<?xml version="1.0" encoding="UTF-8"?>
<svg xmlns="http://www.w3.org/2000/svg" viewBox="0 0 2193.33 1386.51">
  <defs>
    <style>
      .cls-1, .cls-2 {
        fill: #e2832c;
      }

      .cls-3 {
        fill: #369ec3;
      }

      .cls-3, .cls-4, .cls-2 {
        stroke-miterlimit: 10;
      }

      .cls-3, .cls-2 {
        stroke: #1d1d1b;
        stroke-width: 3px;
      }

      .cls-5 {
        fill: #283263;
      }

      .cls-4 {
        stroke: #3fb287;
        stroke-width: 33px;
      }

      .cls-4, .cls-6 {
        fill: #9ec9ad;
      }

      .cls-7 {
        fill: #1e1e1c;
      }

      .cls-8 {
        fill: #3fb287;
      }

      .cls-9 {
        fill: #2a3265;
      }

      .cls-10 {
        fill: #293264;
      }

      .cls-11 {
        fill: #59abc2;
      }

      .cls-12 {
        fill: #1d1d1b;
      }

      .cls-13 {
        fill: #2a4a7c;
      }
    </style>
  </defs>
  <g id="Logo_bright_background" data-name="Logo bright background">
    <g>
      <g>
        <path class="cls-10" d="m1085.11,733.36h-3.21c-1.41,0-2.54.4-3.4,1.21-.86.81-1.29,1.91-1.29,3.32,0,1.3.32,2.29.98,2.97s1.52,1.02,2.62,1.02c1.2,0,2.28-.4,3.24-1.21.96-.81,1.45-1.89,1.45-3.24v-3.67c0-.26-.13-.39-.39-.39Z"/>
        <path class="cls-9" d="m1085.11,733.36h-3.21c-1.41,0-2.54.4-3.4,1.21-.86.81-1.29,1.91-1.29,3.32,0,1.3.32,2.29.98,2.97.65.68,1.52,1.02,2.62,1.02,1.2,0,2.28-.4,3.24-1.21.96-.81,1.45-1.89,1.45-3.24v-3.67c0-.26-.13-.39-.39-.39h0Z"/>
      </g>
      <g>
        <path class="cls-10" d="m1192.64,718.43c-.94,0-1.75.31-2.42.94-.68.63-1.1,1.46-1.25,2.5v15.63c.16,1.04.57,1.88,1.25,2.5.68.63,1.49.94,2.42.94,1.09,0,1.98-.42,2.65-1.25.68-.83,1.02-1.9,1.02-3.2v-13.6c0-1.3-.34-2.37-1.02-3.2-.68-.83-1.56-1.25-2.65-1.25Z"/>
        <path class="cls-9" d="m1192.64,718.43c-.94,0-1.75.31-2.42.94-.68.63-1.1,1.46-1.25,2.5v15.63c.16,1.04.57,1.88,1.25,2.5.68.63,1.49.94,2.42.94,1.09,0,1.98-.42,2.65-1.25.68-.83,1.02-1.9,1.02-3.2v-13.6c0-1.3-.34-2.37-1.02-3.2-.68-.83-1.56-1.25-2.65-1.25h0Z"/>
      </g>
      <g>
        <path class="cls-10" d="m1233.23,347.88c-25.84-12.58-55.43-19.18-87.5-19.18-2.22,0-4.45.04-6.67.12,8.14-27.39,11.98-57.67,11.51-82.89l8.19-.19,3.92-19.12c.06-.28.11-.56.16-.84l24.97-106c1.3-5.71,6.48-9.85,12.31-9.85.95,0,1.91.11,2.85.33l65.84,15.04c6.79,1.55,11.06,8.32,9.54,15.11l-29.48,125.12,12.44,6.13c-5.26,9.54-7.66,23.74-8.21,47.65-10.66,5.29-17.38,14.93-19.89,28.58Z"/>
        <path class="cls-9" d="m1208.98,136.75l42.77,9.77-22.24,94.41-8.94,37.95,11.06,5.45c-1.23,6.6-2.02,13.83-2.5,21.78-3.31,2.95-6.27,6.27-8.86,9.95-15.84-5.38-32.65-8.97-50.24-10.69,2.22-11.97,3.71-23.94,4.5-35.49l4.31-.1,7.85-38.23c.05-.26.1-.52.15-.76l22.15-94.05m-8.86-51.33c-16.95,0-32.26,11.67-36.2,28.9l-25.1,106.55c-.06.28-.09.56-.15.83-4.54.11-10.52.31-15,.62,6.97,32.89-.65,99.47-24.36,137.51,14.74-4.28,30.3-6.62,46.41-6.62,55.54,0,101.95,21.52,132.12,63.38.1-5.36-.18-5.12-.41-23.82-.41-14.57-20.62,3.09-20.83-31.31-.2-32.26,20.83-15.79,20.9-27.1-.27-52.11,6.21-54.81,11.63-54.81.62,0,1.23.04,1.82.04,3.36,0,5.87-1.18,5.25-17.15-6.2-3.64-12.53-7.07-19-10.26l25.03-106.25c4.57-20.01-7.95-39.94-27.96-44.51l-65.85-15.04c-2.78-.64-5.57-.94-8.31-.94h0Z"/>
      </g>
      <g>
        <path class="cls-10" d="m1089.23,929.97c-.95,0-1.91-.11-2.85-.33l-65.85-15.04c-3.3-.75-6.11-2.75-7.9-5.61-1.76-2.81-2.35-6.12-1.67-9.35l31.68-125.37h5.44c4.38,0,8.59-1.1,12.32-3.17,5.09,2.49,10.75,3.79,16.67,3.79h.71c2.21-.08,4.36-.31,6.44-.72.74.06,1.48.1,2.23.1h9.14c3.28,0,6.46-.61,9.42-1.79,2.95,1.18,6.14,1.79,9.42,1.79h9.14c1.52,0,3.03-.13,4.49-.39,1.47.26,2.97.39,4.49.39h9.06c1.52,0,3.02-.13,4.49-.39,1.47.26,2.97.39,4.49.39h9.14c3.34,0,6.57-.64,9.57-1.85,3,1.22,6.23,1.85,9.57,1.85h9.14c.51,0,1.02-.01,1.52-.04,2.24.44,4.56.67,6.92.67,7.16,0,13.73-1.88,19.24-5.41,5.59,3.5,12.1,5.33,19.13,5.33,2.33,0,4.6-.2,6.79-.6.55.03,1.1.05,1.65.05h1.86l-11.3,3.85c-26.22,8.93-53.68,13.78-81.62,14.43l-19.51.45-3.92,19.12c-.04.21-.08.42-.12.63l-27.05,107.09-.06.27c-1.3,5.71-6.48,9.85-12.31,9.85Zm244.38-41.87c-4.4,0-8.43-2.22-10.76-5.93l-69.4-107.92c3.06-.12,6.03-.78,8.79-1.93,3.02,1.23,6.27,1.88,9.63,1.88h9.14c2.95,0,5.82-.5,8.52-1.46,3.06,9.57,11.57,16.65,22.14,17.55l.48.04c1.34.09,2.93.13,4.87.13,14.42,0,25.58-4.39,33.16-13.05,3.28-3.75,5.77-8.02,7.47-12.78l43.87,68.23c3.65,5.9,1.85,13.69-4.04,17.39l-57.19,35.92c-2.05,1.29-4.31,1.95-6.7,1.95h0Zm21.46-193.12c-.63-.81-1.3-1.58-2.03-2.32l-.23-.23c-.3-.29-.6-.58-.91-.85,1.97,0,3.97-.02,6-.03-.93,1.15-1.88,2.3-2.83,3.44Zm-115.63-9.6c.56-.32,1.13-.64,1.69-.96.41.24.82.47,1.24.69-.99.03-1.97.12-2.93.27Z"/>
        <path class="cls-9" d="m1062.01,797.6c4.86,1.19,9.9,1.79,15.06,1.79h.71l.71-.02c2.46-.07,4.87-.28,7.24-.61.24,0,.47,0,.71,0h9.14c3.2,0,6.34-.3,9.42-.88.54.1,1.08.2,1.62.28l-1.85,9.05c-.02.08-.03.15-.05.23l-24.18,95.74-42.75-9.76,23.96-94.84.25-.98m292.66,7.65l19.68,30.6-37.15,23.33-28.68-44.6c.37.04.73.07,1.1.11l.49.04.49.03c1.87.12,3.98.18,6.44.18,16.33,0,28.58-4.21,37.63-9.7m-325.43-167.43c-17.9,70.12-45.06,106.47-56.7,123.62,15.74,12.19,23.7,16.25,41.72,25.14l-27.14,107.4c-4.57,20.01,7.95,39.94,27.96,44.51l65.85,15.04c2.78.64,5.57.94,8.31.94,16.95,0,32.26-11.67,36.2-28.9l27.2-107.7c.06-.28.09-.56.15-.83,31.06-.72,60.94-6.2,88.95-15.73l60.38,93.89c7.06,11.24,19.15,17.4,31.51,17.4,6.76,0,13.59-1.84,19.73-5.7l57.19-35.92c17.38-10.92,22.62-33.86,11.7-51.24l-60.56-94.18c-.15-.24-.33-.45-.48-.69,16.63-17.43,31.11-36.91,43.14-57.97-42.69.05-73.74.36-96.27.36-61.24,0-59.51-2.29-57.7-18.39.02-.2.08-.37.13-.56-28.59,23.26-65.05,37.22-104.78,37.22-45.39,0-86.51-18.22-116.5-47.72h0Zm149.65,111.95c-.26,0-.48-.09-.66-.27-.19-.18-.28-.4-.28-.66v-52.83c0-.26.09-.48.28-.66.18-.18.4-.27.66-.27h9.14c.26,0,.48.09.67.27.18.18.27.4.27.66v15.86c0,.1.05.16.16.16.21,0,.42-.13.63-.39,1.77-1.77,4.01-2.66,6.72-2.66,3.54,0,6.24,1.13,8.09,3.4,1.85,2.27,2.77,5.51,2.77,9.73v15.16c0,4.12-.91,7.33-2.74,9.65-1.82,2.32-4.53,3.48-8.12,3.48-2.92,0-5.26-.99-7.03-2.97-.08-.08-.17-.12-.25-.12-.02,0-.04,0-.06,0-.1.03-.16.12-.16.27v1.25c0,.26-.09.48-.27.66-.19.18-.41.27-.67.27h-9.14Zm-149.1-32.12h7.81c.26,0,.39-.13.39-.39v-21.26c0-.26.09-.48.28-.66.18-.18.4-.27.66-.27h9.14c.26,0,.48.09.67.27.18.18.27.4.27.66v52.83c0,.26-.09.48-.27.66-.18.18-.4.27-.67.27h-9.14c-.26,0-.48-.09-.66-.27-.18-.18-.28-.4-.28-.66v-21.33c0-.26-.13-.39-.39-.39h-7.81c-.26,0-.39.13-.39.39v21.33c0,.26-.09.48-.28.66-.18.18-.4.27-.66.27h-9.14c-.26,0-.48-.09-.67-.27-.18-.18-.27-.4-.27-.66v-52.83c0-.26.09-.48.27-.66.18-.18.4-.27.67-.27h9.14c.26,0,.48.09.66.27.18.18.28.4.28.66v21.26c0,.26.13.39.39.39h0Zm287.33,32.43c-3.59,0-6.28-1.16-8.05-3.48-1.77-2.32-2.65-5.54-2.65-9.65v-14.85c0-4.22.9-7.46,2.7-9.73,1.8-2.27,4.47-3.4,8.01-3.4,3.18,0,5.6,1.17,7.27,3.52.08.12.16.18.23.18.03,0,.05,0,.08-.02.1-.05.16-.16.16-.31v-1.8c0-.26.09-.48.28-.66.18-.18.4-.27.66-.27h9.14c.26,0,.48.09.66.27.18.18.27.4.27.66v37.35c0,5.78-1.37,10.24-4.1,13.36-2.74,3.12-7.65,4.69-14.73,4.69-1.41,0-2.5-.03-3.28-.08-.63-.05-.94-.39-.94-1.02v-7.66c0-.59.25-.88.76-.88.08,0,.16,0,.25.02.4.01.78.02,1.15.02,2.51,0,4.46-.31,5.85-.92,1.59-.7,2.65-1.76,3.2-3.16.55-1.41.82-3.26.82-5.55,0-.16-.05-.23-.16-.23s-.21.08-.31.23c-.94,1.25-2.07,2.12-3.4,2.62-1.33.49-2.62.74-3.87.74h0Zm-176.21-36.18c.16,0,.34-.16.55-.47,1.1-1.67,2.41-2.82,3.95-3.48,1.54-.65,3.09-.98,4.65-.98,3.54,0,6.2,1.2,7.97,3.59,1.77,2.4,2.66,5.76,2.66,10.08v26.18c0,.26-.09.48-.28.66-.18.18-.4.27-.66.27h-9.14c-.26,0-.48-.09-.67-.27-.18-.18-.27-.4-.27-.66v-25.47c0-1.56-.31-2.77-.94-3.63-.63-.86-1.46-1.29-2.5-1.29-1.14,0-2.04.43-2.7,1.29-.65.86-.98,2.07-.98,3.63v25.47c0,.26-.09.48-.28.66-.18.18-.4.27-.66.27h-9.06c-.26,0-.48-.09-.66-.27-.18-.18-.27-.4-.27-.66v-25.47c0-1.56-.31-2.77-.94-3.63-.62-.86-1.46-1.29-2.5-1.29-1.15,0-2.04.43-2.7,1.29-.65.86-.98,2.07-.98,3.63v25.47c0,.26-.09.48-.27.66-.18.18-.4.27-.66.27h-9.14c-.26,0-.48-.09-.67-.27-.18-.18-.27-.4-.27-.66v-38.29c0-.26.09-.48.27-.66.18-.18.4-.27.67-.27h9.14c.26,0,.48.09.66.27.18.18.27.4.27.66v1.02c0,.16.05.26.16.31.03.02.07.03.1.03.07,0,.14-.03.21-.1,1.04-1.04,2.19-1.77,3.44-2.19,1.25-.42,2.45-.63,3.59-.63,4.06,0,6.98,1.62,8.75,4.85l.16.08h0Zm-63.76,8.6l-9.38-.08c-.62,0-.94-.31-.94-.94.26-3.8,1.74-6.84,4.46-9.1,2.71-2.27,6.15-3.4,10.31-3.4,4.43,0,8.02,1.2,10.78,3.59,2.76,2.4,4.14,5.55,4.14,9.46v26.8c0,.26-.09.48-.28.66-.18.18-.4.27-.66.27h-9.14c-.26,0-.48-.09-.66-.27-.18-.18-.27-.4-.27-.66v-1.72c0-.16-.05-.26-.16-.31-.03-.01-.05-.02-.08-.02-.08,0-.16.06-.23.18-1.72,2.19-4.38,3.33-7.97,3.44-3.02,0-5.64-.83-7.85-2.5-2.22-1.67-3.32-4.85-3.32-9.53s1.34-8.18,4.03-10c2.68-1.82,6.55-2.74,11.6-2.74h3.59c.26,0,.39-.13.39-.39v-1.95c0-1.41-.38-2.56-1.13-3.48-.75-.91-1.71-1.37-2.85-1.37-.89,0-1.63.27-2.23.82-.6.55-.98,1.32-1.13,2.31-.05.63-.39.94-1.02.94h0Zm204.96-8.55c.07,0,.15-.07.24-.2,1.41-3.07,3.59-4.61,6.57-4.61,1.41,0,2.5.26,3.28.78.42.26.57.65.47,1.17l-1.49,9.14c-.04.45-.27.68-.7.68-.12,0-.25-.02-.39-.05-.58-.21-1.28-.31-2.11-.31-.78,0-1.46.1-2.03.31-1.2.21-2.16.93-2.89,2.15-.73,1.22-1.09,2.64-1.09,4.26v21.49c0,.26-.09.48-.27.66-.19.18-.41.27-.66.27h-9.14c-.26,0-.48-.09-.66-.27-.19-.18-.28-.4-.28-.66v-38.21c0-.26.09-.48.28-.66.18-.18.4-.27.66-.27h9.14c.26,0,.48.09.66.27.18.18.27.4.27.66v3.05c0,.21.04.33.12.35.01,0,.02,0,.03,0h0Zm-43.52,26.99c1.14,0,2.05-.44,2.73-1.33.68-.88,1.02-2.08,1.02-3.59v-25.47c0-.26.09-.48.27-.66.18-.18.4-.27.66-.27h9.14c.26,0,.48.09.66.27.18.18.28.4.28.66v38.29c0,.26-.09.48-.28.66-.18.18-.4.27-.66.27h-9.14c-.26,0-.48-.09-.66-.27-.18-.18-.27-.4-.27-.66v-1.33c0-.16-.05-.26-.16-.31-.03-.01-.05-.02-.08-.02-.08,0-.16.06-.23.17-.78,1.09-1.76,1.86-2.93,2.31-1.17.44-2.54.66-4.1.66-3.13,0-5.7-.95-7.73-2.85-2.03-1.9-3.05-4.83-3.05-8.79v-28.13c0-.26.09-.48.27-.66.18-.18.4-.27.66-.27h9.14c.26,0,.48.09.67.27.18.18.27.4.27.66v25.71c0,1.51.3,2.67.9,3.48.6.81,1.47,1.21,2.62,1.21h0Z"/>
      </g>
      <g>
        <path class="cls-10" d="m1321.1,718.43c-1.09,0-1.98.42-2.66,1.25-.68.83-1.02,1.9-1.02,3.2v13.21c0,1.3.34,2.37,1.02,3.2.68.83,1.56,1.25,2.66,1.25s1.99-.42,2.7-1.25c.7-.83,1.05-1.9,1.05-3.2v-13.21c0-1.3-.35-2.37-1.05-3.2s-1.6-1.25-2.7-1.25Z"/>
        <path class="cls-9" d="m1321.1,718.43c-1.09,0-1.98.42-2.66,1.25-.68.83-1.02,1.9-1.02,3.2v13.21c0,1.3.34,2.37,1.02,3.2.68.83,1.56,1.25,2.66,1.25s1.99-.42,2.7-1.25c.7-.83,1.05-1.9,1.05-3.2v-13.21c0-1.3-.35-2.37-1.05-3.2-.7-.83-1.6-1.25-2.7-1.25h0Z"/>
      </g>
    </g>
    <path class="cls-5" d="m1531.17,529.07c.1,19.22,12.88,77.17,28.07,122.77,1.58-2.81,1.23-3.07,2.02-6.36l17.01-71.15c4.57-19.1-7.21-38.29-26.31-42.86l-20.78-2.4h0Z"/>
    <path class="cls-4" d="m643.69,702.7c34.61,110.41,147.67,125.98,194.95,118.17,59.36-9.8,161.19-79.69,184.92-308.99,7.4-71.55.69-75.99,46.65-157.51,25.32-44.91,26.26-100.44,26.29-128.85.03-40.69-13.11-98.77-47.48-140.89-42.65-52.28-186.24-108.91-275.01-26.45-43.15,40.09-47.77,101.84-73.1,154.05-25.43,52.42-70.01,100.27,17.63,106.94,25.01,1.9,47.56,16.45,58.65,38.95,27.37,55.58,5.73,147.18-79.96,130.79-102.34-22.55-80.47,127.83-53.53,213.79Z"/>
    <ellipse class="cls-6" cx="697.21" cy="400.46" rx="45.97" ry="46.56"/>
    <g>
      <g id="_Radiale_Wiederholung_" data-name="&amp;lt;Radiale Wiederholung&amp;gt;">
        <g>
          <path class="cls-3" d="m693.78,444.4c1.13,6.93,16.84,16.78,23.62,16.3,6.78-.48,10.17-2.74,20.47-10.53,10.3-7.79,15.93-13.59,15.34-20.73-.59-7.14-42.56-7.17-50.6-.29-8.04,6.88-9.96,8.33-8.83,15.25Z"/>
          <path class="cls-2" d="m755.5,423.64c-10.06,10.28-43.7,12.32-58.12,4.82-14.41-7.51-.61-15.01,4.74-17.99,5.35-2.98,59.11-12.53,59.71-6.59.61,5.94,3.72,9.48-6.34,19.76Z"/>
        </g>
      </g>
      <g id="_Radiale_Wiederholung_-2" data-name="&amp;lt;Radiale Wiederholung&amp;gt;">
        <g>
          <path class="cls-3" d="m741.81,410.61c6.93-1.13,16.78-16.84,16.3-23.62-.48-6.78-2.74-10.17-10.53-20.47-7.79-10.3-13.59-15.93-20.73-15.34-7.14.59-7.17,42.56-.29,50.6,6.88,8.04,8.33,9.96,15.25,8.83Z"/>
          <path class="cls-2" d="m721.05,348.89c10.28,10.06,12.32,43.7,4.82,58.12-7.51,14.41-15.01.61-17.99-4.74-2.98-5.35-12.53-59.11-6.59-59.71,5.94-.61,9.48-3.72,19.76,6.34Z"/>
        </g>
      </g>
      <g id="_Radiale_Wiederholung_-3" data-name="&amp;lt;Radiale Wiederholung&amp;gt;">
        <g>
          <path class="cls-3" d="m708.02,362.59c-1.13-6.93-16.84-16.78-23.62-16.3-6.78.48-10.17,2.74-20.47,10.53-10.3,7.79-15.93,13.59-15.34,20.73.59,7.14,42.56,7.17,50.6.29,8.04-6.88,9.96-8.33,8.83-15.25Z"/>
          <path class="cls-2" d="m646.3,383.35c10.06-10.28,43.7-12.32,58.12-4.82,14.41,7.51.61,15.01-4.74,17.99-5.35,2.98-59.11,12.53-59.71,6.59-.61-5.94-3.72-9.48,6.34-19.76Z"/>
        </g>
      </g>
      <g id="_Radiale_Wiederholung_-4" data-name="&amp;lt;Radiale Wiederholung&amp;gt;">
        <g>
          <path class="cls-3" d="m659.99,396.37c-6.93,1.13-16.78,16.84-16.3,23.62.48,6.78,2.74,10.17,10.53,20.47,7.79,10.3,13.59,15.93,20.73,15.34,7.14-.59,7.17-42.56.29-50.6-6.88-8.04-8.33-9.96-15.25-8.83Z"/>
          <path class="cls-2" d="m680.75,458.1c-10.28-10.06-12.32-43.7-4.82-58.12,7.51-14.41,15.01-.61,17.99,4.74,2.98,5.35,12.53,59.11,6.59,59.71-5.94.61-9.48,3.72-19.76-6.34Z"/>
        </g>
      </g>
    </g>
    <g>
      <ellipse class="cls-11" cx="955.8" cy="232.86" rx="59.24" ry="59.41"/>
      <path class="cls-13" d="m955.8,185.45c26.05,0,47.24,21.27,47.24,47.41s-21.19,47.41-47.24,47.41-47.24-21.27-47.24-47.41,21.19-47.41,47.24-47.41m0-24c-39.34,0-71.24,31.97-71.24,71.41s31.89,71.41,71.24,71.41,71.24-31.97,71.24-71.41-31.89-71.41-71.24-71.41h0Z"/>
    </g>
    <g>
      <g id="_Radiale_Wiederholung_-5" data-name="&amp;lt;Radiale Wiederholung&amp;gt;">
        <rect class="cls-13" x="948.91" y="290.69" width="25.38" height="33.66" rx="6.2" ry="6.2" transform="translate(1943.37 542.8) rotate(175.74)"/>
      </g>
      <g id="_Radiale_Wiederholung_-6" data-name="&amp;lt;Radiale Wiederholung&amp;gt;">
        <rect class="cls-13" x="894.42" y="272.92" width="25.38" height="33.66" rx="6.2" ry="6.2" transform="translate(1405.26 1101.31) rotate(-139.26)"/>
      </g>
      <g id="_Radiale_Wiederholung_-7" data-name="&amp;lt;Radiale Wiederholung&amp;gt;">
        <rect class="cls-13" x="868.45" y="221.83" width="25.38" height="33.66" rx="6.2" ry="6.2" transform="translate(708.55 1135.08) rotate(-94.26)"/>
      </g>
      <g id="_Radiale_Wiederholung_-8" data-name="&amp;lt;Radiale Wiederholung&amp;gt;">
        <rect class="cls-13" x="886.22" y="167.34" width="25.38" height="33.66" rx="6.2" ry="6.2" transform="translate(172.69 745.02) rotate(-49.26)"/>
      </g>
      <g id="_Radiale_Wiederholung_-9" data-name="&amp;lt;Radiale Wiederholung&amp;gt;">
        <rect class="cls-13" x="937.31" y="141.37" width="25.38" height="33.66" rx="6.2" ry="6.2" transform="translate(-9.12 70.96) rotate(-4.26)"/>
      </g>
      <g id="_Radiale_Wiederholung_-10" data-name="&amp;lt;Radiale Wiederholung&amp;gt;">
        <rect class="cls-13" x="991.8" y="159.14" width="25.38" height="33.66" rx="6.2" ry="6.2" transform="translate(358.29 -612.95) rotate(40.74)"/>
      </g>
      <g id="_Radiale_Wiederholung_-11" data-name="&amp;lt;Radiale Wiederholung&amp;gt;">
        <rect class="cls-13" x="1017.76" y="210.23" width="25.38" height="33.66" rx="6.2" ry="6.2" transform="translate(1180.39 -817.41) rotate(85.74)"/>
      </g>
      <g id="_Radiale_Wiederholung_-12" data-name="&amp;lt;Radiale Wiederholung&amp;gt;">
        <rect class="cls-13" x="1000" y="264.72" width="25.38" height="33.66" rx="6.2" ry="6.2" transform="translate(1886.94 -301.95) rotate(130.74)"/>
      </g>
    </g>
    <g>
      <path class="cls-11" d="m828.45,193.89c-16.37,0-29.69-13.36-29.69-29.77s13.32-29.77,29.69-29.77,29.69,13.36,29.69,29.77-13.32,29.77-29.69,29.77Z"/>
      <path class="cls-13" d="m828.45,140.35c13.06,0,23.69,10.67,23.69,23.77s-10.63,23.77-23.69,23.77-23.69-10.67-23.69-23.77,10.63-23.77,23.69-23.77m0-12c-19.71,0-35.69,16.02-35.69,35.77s15.98,35.77,35.69,35.77,35.69-16.02,35.69-35.77-15.98-35.77-35.69-35.77h0Z"/>
    </g>
    <g>
      <g id="_Radiale_Wiederholung_-13" data-name="&amp;lt;Radiale Wiederholung&amp;gt;">
        <rect class="cls-13" x="818.94" y="195.32" width="13.78" height="15.81" rx="3.67" ry="3.67" transform="translate(1635.86 462.31) rotate(-176.09)"/>
      </g>
      <g id="_Radiale_Wiederholung_-14" data-name="&amp;lt;Radiale Wiederholung&amp;gt;">
        <rect class="cls-13" x="792.06" y="182.01" width="13.78" height="15.81" rx="3.67" ry="3.67" transform="translate(1180.89 916.9) rotate(-131.09)"/>
      </g>
      <g id="_Radiale_Wiederholung_-15" data-name="&amp;lt;Radiale Wiederholung&amp;gt;">
        <rect class="cls-13" x="782.46" y="153.59" width="13.78" height="15.81" rx="3.67" ry="3.67" transform="translate(574.37 937.99) rotate(-86.09)"/>
      </g>
      <g id="_Radiale_Wiederholung_-16" data-name="&amp;lt;Radiale Wiederholung&amp;gt;">
        <rect class="cls-13" x="795.77" y="126.71" width="13.78" height="15.81" rx="3.67" ry="3.67" transform="translate(109.22 560.67) rotate(-41.09)"/>
      </g>
      <g id="_Radiale_Wiederholung_-17" data-name="&amp;lt;Radiale Wiederholung&amp;gt;">
        <rect class="cls-13" x="824.18" y="117.11" width="13.78" height="15.81" rx="3.67" ry="3.67" transform="translate(10.47 -56.41) rotate(3.91)"/>
      </g>
      <g id="_Radiale_Wiederholung_-18" data-name="&amp;lt;Radiale Wiederholung&amp;gt;">
        <rect class="cls-13" x="851.07" y="130.42" width="13.78" height="15.81" rx="3.67" ry="3.67" transform="translate(398.35 -599.23) rotate(48.91)"/>
      </g>
      <g id="_Radiale_Wiederholung_-19" data-name="&amp;lt;Radiale Wiederholung&amp;gt;">
        <rect class="cls-13" x="860.66" y="158.84" width="13.78" height="15.81" rx="3.67" ry="3.67" transform="translate(1093.1 -687.41) rotate(93.91)"/>
      </g>
      <g id="_Radiale_Wiederholung_-20" data-name="&amp;lt;Radiale Wiederholung&amp;gt;">
        <rect class="cls-13" x="847.36" y="185.72" width="13.78" height="15.81" rx="3.67" ry="3.67" transform="translate(1625.34 -221.86) rotate(138.91)"/>
      </g>
    </g>
    <rect class="cls-1" x="1269.68" y="350.37" width="270.1" height="25.61" rx="5.64" ry="5.64"/>
    <rect class="cls-1" x="1360.33" y="270.47" width="89.65" height="19.9" rx="5.42" ry="5.42"/>
    <g>
      <path class="cls-1" d="m1322.83,243.86c1.68-2.9,5.87-2.9,7.54,0l8.42,14.59,8.42,14.59c1.68,2.9-.42,6.53-3.77,6.53h-33.7c-3.35,0-5.45-3.63-3.77-6.53l8.42-14.59,8.42-14.59Z"/>
      <path class="cls-1" d="m1330.38,286.72c-1.68,2.9-5.87,2.9-7.54,0l-8.42-14.59-8.42-14.59c-1.68-2.9.42-6.53,3.77-6.53h33.7c3.35,0,5.45,3.63,3.77,6.53l-8.42,14.59-8.42,14.59Z"/>
    </g>
    <g>
      <path class="cls-1" d="m1480.01,243.7c1.55-2.69,5.44-2.69,7,0l8.7,15.06,8.7,15.06c1.55,2.69-.39,6.06-3.5,6.06h-34.79c-3.11,0-5.05-3.37-3.5-6.06l8.7-15.06,8.7-15.06Z"/>
      <path class="cls-1" d="m1487.01,287.56c-1.55,2.69-5.44,2.69-7,0l-8.7-15.06-8.7-15.06c-1.55-2.69.39-6.06,3.5-6.06h34.79c3.11,0,5.05,3.37,3.5,6.06l-8.7,15.06-8.7,15.06Z"/>
    </g>
    <rect class="cls-1" x="1294.7" y="295.23" width="63.8" height="75.75" rx="8.84" ry="8.84"/>
    <rect class="cls-1" x="1453.24" y="295.23" width="60.54" height="73.71" rx="8.93" ry="8.93"/>
    <rect class="cls-1" x="1373.97" y="289.36" width="63.8" height="76.22"/>
    <circle class="cls-1" cx="1405.87" cy="273.35" r="31.9"/>
    <rect class="cls-1" x="1397.37" y="198.68" width="17.01" height="54.25" rx="5.14" ry="5.14"/>
    <rect class="cls-1" x="1397.37" y="198.68" width="17.01" height="44.13" rx="5.21" ry="5.21" transform="translate(1185.13 1626.62) rotate(-90)"/>
    <path class="cls-1" d="m1385.15,569.78h38.61v79.78c0,1.98-1.61,3.59-3.59,3.59h-31.44c-1.98,0-3.59-1.61-3.59-3.59v-79.78h0Z"/>
    <circle class="cls-1" cx="1404.46" cy="569.78" r="19.31"/>
    <path class="cls-1" d="m1404.39,531.69c-22.94-.2-35.65,16.32-35.65,39.77-.32,21.17-4.03,81.33-4.03,81.33h-91.22c-4.24,0-7.36-3.97-6.37-8.1,17.65-73.31,29.19-98.56,27.62-270.58-.02-1.72,1.37-3.13,3.09-3.13,17.87,0,106.6,0,106.6,0h0c4.69,0,89.22,0,106.61,0,1.73,0,3.11,1.43,3.09,3.16-1.57,171.99,9.97,197.25,27.62,270.55.99,4.12-2.13,8.1-6.37,8.1h-91.22s-3.71-60.16-4.03-81.33c0-23.45-14.48-40.31-35.65-39.77h-.07Z"/>
    <path class="cls-7" d="m723.59,513.74h-45.39c-1.3,0-2.39.32-3.3.95s-1.36,1.4-1.36,2.31v132.9c0,.91.45,1.67,1.36,2.31.9.64,2,.95,3.3.95h45.39c1.29,0,2.39-.31,3.3-.95s1.36-1.4,1.36-2.31v-132.9c0-.9-.46-1.67-1.36-2.31-.91-.63-2.01-.95-3.3-.95Z"/>
    <path class="cls-7" d="m845.34,636.27c-14.1-13.32-21.14-31.09-21.14-53.34v-131.12c0-22.24,7.04-40.02,21.14-53.34,14.09-13.32,32.78-19.98,56.06-19.98s42.02,6.73,56.25,20.17c14.22,13.45,21.34,31.29,21.34,53.53v14.74c0,1.3-.46,2.39-1.36,3.3-.91.91-2.01,1.36-3.3,1.36h-45.39c-1.3,0-2.39-.45-3.3-1.36-.91-.9-1.36-2-1.36-3.3v-15.52c0-7.76-2.07-14.03-6.21-18.82-4.14-4.78-9.7-7.18-16.68-7.18s-12.16,2.39-16.29,7.18c-4.14,4.79-6.21,11.06-6.21,18.82v131.89c0,7.76,2.07,14.03,6.21,18.82,4.13,4.79,9.56,7.18,16.29,7.18s12.54-2.39,16.68-7.18c4.13-4.78,6.21-11.06,6.21-18.82v-31.03c0-1.29-.65-1.94-1.94-1.94h-17.07c-1.3,0-2.39-.45-3.3-1.36-.91-.9-1.36-2-1.36-3.3v-34.53c0-1.29.45-2.39,1.36-3.3s2-1.36,3.3-1.36h69.05c1.29,0,2.39.46,3.3,1.36.9.91,1.36,2.01,1.36,3.3v71.77c0,22.25-7.12,40.02-21.34,53.34-14.23,13.32-32.97,19.98-56.25,19.98s-41.96-6.66-56.06-19.98Z"/>
    <path class="cls-7" d="m1221.07,427.18c-.91.91-2.01,1.36-3.3,1.36h-81.08c-1.3,0-1.94.65-1.94,1.94v61.29c0,1.3.64,1.94,1.94,1.94h46.55c1.29,0,2.39.45,3.3,1.36.9.91,1.36,2.01,1.36,3.3v37.63c0,1.3-.46,2.39-1.36,3.3-.91.91-2.01,1.36-3.3,1.36h-46.55c-1.3,0-1.94.65-1.94,1.94v61.68c0,1.3.64,1.94,1.94,1.94h81.08c1.29,0,2.39.45,3.3,1.36.9.91,1.36,2.01,1.36,3.3v37.63c0,1.3-.46,2.39-1.36,3.3-.91.91-2.01,1.36-3.3,1.36h-133.06c-1.3,0-2.39-.45-3.3-1.36-.91-.9-1.36-2-1.36-3.3v-262.24c0-1.29.45-2.39,1.36-3.3s2-1.36,3.3-1.36h133.06c1.29,0,2.39.45,3.3,1.36.9.91,1.36,2.01,1.36,3.3v37.63c0,1.3-.46,2.39-1.36,3.3Z"/>
    <path class="cls-12" d="m1445.16,381.6h45c1.29,0,2.39.45,3.3,1.36.9.91,1.36,2.01,1.36,3.3v262.24c0,1.3-.45,2.39-1.36,3.3-.91.91-2.01,1.36-3.3,1.36h-45.39c-1.3,0-2.39-.45-3.3-1.36-.91-.9-1.36-2-1.36-3.3v-174.18c0-1.03-.26-1.55-.78-1.55s-1.04.39-1.55,1.16l-30.26,53.53c-1.3,2.07-2.33,3.1-3.1,3.1s-1.81-1.03-3.1-3.1l-30.26-53.53c-.52-.78-1.04-1.16-1.55-1.16s-.78.52-.78,1.55v174.18c0,1.3-.46,2.39-1.36,3.3-.91.91-2.01,1.36-3.3,1.36h-45.39c-1.3,0-2.4-.45-3.3-1.36-.91-.9-1.36-2-1.36-3.3v-262.24c0-1.29.45-2.39,1.36-3.3.9-.9,2-1.36,3.3-1.36h44.61c2.58,0,4.52,1.04,5.82,3.1l34.53,61.68c.78,1.04,1.55,1.04,2.33,0l33.36-61.68c1.03-2.07,2.97-3.1,5.82-3.1Z"/>
    <path class="cls-10" d="m1391.12,740.16c.05.1.16.16.31.16h16.33c.26,0,.48.09.66.27.18.18.28.4.28.67v7.58c0,.26-.09.48-.28.66-.18.18-.4.27-.66.27h-28.91c-.26,0-.48-.09-.67-.27-.18-.18-.27-.4-.27-.66v-7.89c0-.47.13-.86.39-1.17,2.08-2.76,3.54-4.64,4.38-5.63,4.58-5.89,7.84-10.34,9.77-13.36,2.81-4.48,4.22-8.26,4.22-11.33,0-1.77-.35-3.14-1.05-4.1-.7-.96-1.65-1.45-2.85-1.45s-2.16.48-2.89,1.45c-.73.96-1.07,2.2-1.02,3.71v3.2c0,.26-.09.48-.27.66-.19.18-.41.27-.67.27h-9.3c-.26,0-.48-.09-.67-.27-.18-.18-.27-.4-.27-.66v-3.67c.21-4.27,1.74-7.7,4.61-10.28,2.86-2.58,6.51-3.87,10.94-3.87s7.9,1.38,10.59,4.14c2.68,2.76,4.02,6.41,4.02,10.94,0,2.71-.43,5.29-1.29,7.74-.86,2.45-2.25,5.08-4.18,7.89-1.46,2.14-3.96,5.47-7.5,10l-3.67,4.69c-.1.1-.13.21-.08.31Z"/>
    <path class="cls-10" d="m1428.23,746.29c-2.81-2.89-4.22-6.71-4.22-11.45v-24.85c0-4.74,1.41-8.56,4.22-11.45,2.81-2.89,6.51-4.34,11.1-4.34,3.02,0,5.7.65,8.05,1.95,2.34,1.3,4.15,3.15,5.43,5.55,1.28,2.4,1.91,5.16,1.91,8.28v24.85c0,3.13-.64,5.89-1.91,8.28-1.28,2.4-3.09,4.25-5.43,5.55s-5.03,1.95-8.05,1.95c-4.59,0-8.29-1.45-11.1-4.34Zm14.26-6.68c.81-1.04,1.21-2.42,1.21-4.14v-26.1c0-1.72-.4-3.1-1.21-4.14-.81-1.04-1.86-1.56-3.16-1.56s-2.35.52-3.13,1.56c-.78,1.04-1.17,2.42-1.17,4.14v26.1c0,1.72.39,3.1,1.17,4.14.78,1.04,1.82,1.56,3.13,1.56s2.35-.52,3.16-1.56Z"/>
    <path class="cls-10" d="m1484.03,740.16c.05.1.16.16.31.16h16.33c.26,0,.48.09.67.27.18.18.27.4.27.67v7.58c0,.26-.09.48-.27.66-.18.18-.4.27-.67.27h-28.91c-.26,0-.48-.09-.66-.27-.18-.18-.28-.4-.28-.66v-7.89c0-.47.13-.86.39-1.17,2.08-2.76,3.54-4.64,4.37-5.63,4.58-5.89,7.84-10.34,9.77-13.36,2.82-4.48,4.22-8.26,4.22-11.33,0-1.77-.35-3.14-1.05-4.1-.7-.96-1.65-1.45-2.85-1.45s-2.16.48-2.89,1.45c-.73.96-1.07,2.2-1.02,3.71v3.2c0,.26-.09.48-.27.66-.18.18-.4.27-.67.27h-9.3c-.26,0-.48-.09-.66-.27-.18-.18-.28-.4-.28-.66v-3.67c.21-4.27,1.75-7.7,4.61-10.28,2.86-2.58,6.51-3.87,10.94-3.87s7.9,1.38,10.59,4.14c2.68,2.76,4.03,6.41,4.03,10.94,0,2.71-.43,5.29-1.29,7.74-.86,2.45-2.25,5.08-4.18,7.89-1.46,2.14-3.96,5.47-7.5,10l-3.67,4.69c-.11.1-.13.21-.08.31Z"/>
    <path class="cls-10" d="m1546.15,732.42c0,2.29-.11,4.25-.31,5.86-.42,3.75-1.86,6.71-4.34,8.87-2.47,2.16-5.8,3.24-9.96,3.24s-7.84-1.15-10.55-3.44c-2.71-2.29-4.17-5.34-4.37-9.14-.16-1.41-.23-2.92-.23-4.53,0-.62.31-.94.94-.94h9.14c.63,0,.94.31.94.94,0,1.2.08,2.32.23,3.36.16,1.36.58,2.41,1.25,3.17s1.56,1.13,2.66,1.13,1.9-.36,2.58-1.09c.68-.73,1.12-1.72,1.33-2.97.16-1.82.23-3.7.23-5.63,0-2.45-.13-4.38-.39-5.78-.21-1.2-.64-2.12-1.29-2.77-.65-.65-1.47-.98-2.46-.98-.78,0-1.56.34-2.34,1.02-.31.21-.52.31-.62.31-.21,0-.44-.13-.71-.39l-4.69-4.77c-.21-.21-.31-.44-.31-.7,0-.21.08-.42.23-.63l9.46-11.64c.1-.1.13-.21.08-.31-.05-.1-.16-.16-.31-.16h-14.07c-.26,0-.48-.09-.67-.27s-.27-.4-.27-.67v-7.5c0-.26.09-.48.27-.66s.4-.27.67-.27h26.88c.26,0,.48.09.67.27.18.18.27.4.27.66v7.82c0,.42-.13.81-.39,1.17l-8.75,11.02c-.05.1-.08.21-.08.31s.05.16.16.16c2.29.21,4.23,1.25,5.82,3.13,1.59,1.88,2.56,4.22,2.93,7.03.26,1.98.39,3.91.39,5.78Z"/>
  </g>
  <g id="Schriftzug">
    <g>
      <path class="cls-1" d="m99.13,1221.03c-.91.91-2.01,1.36-3.3,1.36h-21.73c-1.3,0-1.94.65-1.94,1.94v92.34c0,7.51,1.42,12.68,4.27,15.52,2.84,2.85,7.11,4.14,12.8,3.88h2.72c1.29,0,2.39.46,3.3,1.36.9.91,1.36,2.01,1.36,3.3v38.02c0,1.3-.46,2.39-1.36,3.3-.91.91-2.01,1.36-3.3,1.36h-15.52c-18.88,0-33.11-3.17-42.68-9.51-9.57-6.34-14.36-18.43-14.36-36.28v-113.3c0-1.29-.65-1.94-1.94-1.94H4.66c-1.3,0-2.4-.45-3.3-1.36-.91-.9-1.36-2-1.36-3.3v-29.1c0-1.29.45-2.39,1.36-3.3s2-1.36,3.3-1.36h12.8c1.29,0,1.94-.64,1.94-1.94v-43.07c0-1.29.45-2.39,1.36-3.3s2-1.36,3.3-1.36h43.46c1.29,0,2.39.46,3.3,1.36.9.91,1.36,2.01,1.36,3.3v43.07c0,1.3.64,1.94,1.94,1.94h21.73c1.29,0,2.39.45,3.3,1.36.9.91,1.36,2.01,1.36,3.3v29.1c0,1.3-.45,2.39-1.36,3.3Z"/>
      <path class="cls-1" d="m245.99,1185.53c2.07,1.3,2.84,3.24,2.33,5.82l-7.37,45.4c-.26,2.85-2.07,3.88-5.43,3.1-2.85-1.03-6.34-1.55-10.48-1.55-3.88,0-7.24.52-10.09,1.55-5.95,1.04-10.74,4.59-14.36,10.67-3.62,6.08-5.43,13.13-5.43,21.15v106.7c0,1.3-.46,2.39-1.36,3.3-.91.91-2.01,1.36-3.3,1.36h-45.4c-1.3,0-2.39-.45-3.3-1.36-.91-.9-1.36-2-1.36-3.3v-189.73c0-1.29.45-2.39,1.36-3.3.9-.9,2-1.36,3.3-1.36h45.4c1.29,0,2.39.45,3.3,1.36.9.91,1.36,2.01,1.36,3.3v15.13c0,1.04.19,1.62.58,1.75.39.13.84-.19,1.36-.97,6.98-15.26,17.85-22.89,32.59-22.89,6.98,0,12.42,1.3,16.3,3.88Z"/>
      <path class="cls-1" d="m407.78,1198.72c13.71,11.9,20.56,27.55,20.56,46.95v133.08c0,1.3-.45,2.39-1.36,3.3-.91.91-2.01,1.36-3.3,1.36h-45.4c-1.3,0-2.39-.45-3.3-1.36-.91-.9-1.36-2-1.36-3.3v-8.54c0-.78-.26-1.29-.78-1.55-.52-.25-1.04,0-1.55.78-8.54,10.86-21.73,16.55-39.58,17.07-15,0-28-4.13-38.99-12.42-11-8.28-16.49-24.06-16.49-47.34s6.66-40.61,19.98-49.66c13.32-9.05,32.53-13.58,57.62-13.58h17.85c1.29,0,1.94-.64,1.94-1.94v-9.7c0-6.98-1.88-12.74-5.63-17.27-3.75-4.52-8.48-6.79-14.16-6.79-4.4,0-8.09,1.36-11.06,4.07-2.98,2.72-4.85,6.54-5.63,11.45-.26,3.1-1.94,4.66-5.04,4.66l-46.56-.39c-3.1,0-4.66-1.55-4.66-4.66,1.29-18.88,8.66-33.95,22.12-45.2,13.45-11.25,30.52-16.88,51.22-16.88,21.98,0,39.83,5.95,53.54,17.85Zm-41.32,139.49c4.78-4.01,7.18-9.37,7.18-16.1v-18.24c0-1.29-.65-1.94-1.94-1.94h-15.91c-6.98,0-12.61,2.01-16.88,6.01-4.27,4.01-6.4,9.51-6.4,16.49,0,6.47,1.61,11.38,4.85,14.74,3.23,3.37,7.57,5.04,13,5.04,5.95,0,11.31-2,16.1-6.01Z"/>
      <path class="cls-1" d="m605.27,1198.33c8.79,11.64,13.19,27.94,13.19,48.89v131.53c0,1.3-.45,2.39-1.36,3.3-.91.91-2.01,1.36-3.3,1.36h-45.4c-1.3,0-2.39-.45-3.3-1.36-.91-.9-1.36-2-1.36-3.3v-127.26c0-7.5-1.49-13.32-4.46-17.46-2.98-4.13-7.31-6.21-13-6.21s-10.54,2.13-13.77,6.4c-3.24,4.27-4.85,10.28-4.85,18.04v126.49c0,1.3-.46,2.39-1.36,3.3-.91.91-2.01,1.36-3.3,1.36h-45.4c-1.3,0-2.39-.45-3.3-1.36-.91-.9-1.36-2-1.36-3.3v-190.12c0-1.29.45-2.39,1.36-3.3.9-.9,2-1.36,3.3-1.36h45.4c1.29,0,2.39.45,3.3,1.36.9.91,1.36,2.01,1.36,3.3v7.37c0,.78.32,1.16.97,1.16s1.49-.51,2.52-1.55c8.28-9.83,19.79-14.74,34.53-14.74,17.59,0,30.78,5.82,39.58,17.46Z"/>
      <path class="cls-1" d="m678.41,1370.41c-13.06-10.48-19.59-24.5-19.59-42.1v-2.72c0-1.29.45-2.39,1.36-3.3.9-.9,2-1.36,3.3-1.36h42.68c1.29,0,2.39.45,3.3,1.36.9.91,1.36,2.01,1.36,3.3v1.16c0,5.43,1.94,9.89,5.82,13.39s8.66,5.24,14.36,5.24c5.17,0,9.25-1.49,12.22-4.46s4.46-6.79,4.46-11.45c0-5.69-2.46-10.15-7.37-13.39-4.92-3.23-10.42-5.95-16.49-8.15-6.08-2.19-10.28-3.69-12.61-4.46-14.23-5.17-26.19-12.35-35.89-21.53-9.7-9.18-14.55-22.44-14.55-39.77,0-18.88,6.21-33.76,18.62-44.62,12.42-10.86,28.97-16.3,49.66-16.3s38.47,5.69,51.02,17.07c12.54,11.39,18.82,26.77,18.82,46.17,0,1.3-.45,2.39-1.36,3.3s-2.01,1.36-3.3,1.36h-41.52c-1.3,0-2.39-.45-3.3-1.36-.91-.9-1.36-2-1.36-3.3v-3.1c0-5.17-1.62-9.37-4.85-12.61-3.24-3.23-7.44-4.85-12.61-4.85-5.43,0-9.7,1.75-12.8,5.24-3.1,3.49-4.66,7.57-4.66,12.22,0,6.21,2.65,11.06,7.95,14.55,5.3,3.49,13.39,7.31,24.25,11.45,11.12,4.14,20.62,8.34,28.52,12.61,7.89,4.27,14.68,10.35,20.37,18.24,5.69,7.89,8.54,17.79,8.54,29.68,0,17.85-6.54,32.01-19.59,42.49-13.06,10.48-30.46,15.71-52.19,15.71s-39.52-5.24-52.57-15.71Z"/>
      <path class="cls-1" d="m984.92,1157.4c-.91.91-2.01,1.36-3.3,1.36h-80.7c-1.3,0-1.94.65-1.94,1.94v61.3c0,1.3.64,1.94,1.94,1.94h46.17c1.29,0,2.39.45,3.3,1.36.9.91,1.36,2.01,1.36,3.3v37.64c0,1.3-.45,2.39-1.36,3.3-.91.91-2.01,1.36-3.3,1.36h-46.17c-1.3,0-1.94.65-1.94,1.94v105.92c0,1.3-.46,2.39-1.36,3.3-.91.91-2.01,1.36-3.3,1.36h-45.4c-1.3,0-2.39-.45-3.3-1.36-.91-.9-1.36-2-1.36-3.3v-262.29c0-1.29.45-2.39,1.36-3.3.9-.9,2-1.36,3.3-1.36h132.7c1.29,0,2.39.45,3.3,1.36.9.91,1.36,2.01,1.36,3.3v37.64c0,1.3-.46,2.4-1.36,3.3Z"/>
      <path class="cls-1" d="m1166.5,1157.4c-.91.91-2.01,1.36-3.3,1.36h-81.09c-1.3,0-1.94.65-1.94,1.94v61.3c0,1.3.64,1.94,1.94,1.94h46.56c1.29,0,2.39.45,3.3,1.36.9.91,1.36,2.01,1.36,3.3v37.64c0,1.3-.45,2.39-1.36,3.3s-2.01,1.36-3.3,1.36h-46.56c-1.3,0-1.94.65-1.94,1.94v61.69c0,1.3.64,1.94,1.94,1.94h81.09c1.29,0,2.39.46,3.3,1.36.9.91,1.36,2.01,1.36,3.3v37.64c0,1.3-.45,2.39-1.36,3.3s-2.01,1.36-3.3,1.36h-133.08c-1.3,0-2.39-.45-3.3-1.36-.91-.9-1.36-2-1.36-3.3v-262.29c0-1.29.45-2.39,1.36-3.3.9-.9,2-1.36,3.3-1.36h133.08c1.29,0,2.39.45,3.3,1.36.9.91,1.36,2.01,1.36,3.3v37.64c0,1.3-.45,2.4-1.36,3.3Z"/>
      <path class="cls-1" d="m1314.91,1379.53l-29.88-107.09c-.52-1.03-1.16-1.55-1.94-1.55h-13.19c-1.3,0-1.94.65-1.94,1.94v105.92c0,1.3-.46,2.39-1.36,3.3-.91.91-2.01,1.36-3.3,1.36h-45.4c-1.3,0-2.39-.45-3.3-1.36-.91-.9-1.36-2-1.36-3.3v-262.29c0-1.29.45-2.39,1.36-3.3.9-.9,2-1.36,3.3-1.36h78.38c14.22,0,26.9,3.43,38.02,10.28,11.12,6.86,19.72,16.49,25.8,28.91,6.08,12.42,9.12,26.64,9.12,42.68s-2.91,28.71-8.73,40.35c-5.82,11.64-13.91,20.7-24.25,27.16-.52.26-.91.58-1.16.97-.26.39-.26.84,0,1.36l35.7,114.46.39,1.55c0,2.59-1.42,3.88-4.27,3.88h-46.56c-2.85,0-4.66-1.29-5.43-3.88Zm-46.95-218.83v66.35c0,1.3.64,1.94,1.94,1.94h17.46c8.01,0,14.55-3.17,19.59-9.51,5.04-6.34,7.57-14.8,7.57-25.41s-2.52-19.46-7.57-25.8c-5.04-6.34-11.58-9.51-19.59-9.51h-17.46c-1.3,0-1.94.65-1.94,1.94Z"/>
      <path class="cls-7" d="m1515.5,1379.53l-29.88-107.09c-.52-1.03-1.16-1.55-1.94-1.55h-13.19c-1.3,0-1.94.65-1.94,1.94v105.92c0,1.3-.46,2.39-1.36,3.3-.91.91-2.01,1.36-3.3,1.36h-45.4c-1.3,0-2.39-.45-3.3-1.36-.91-.9-1.36-2-1.36-3.3v-262.29c0-1.29.45-2.39,1.36-3.3.9-.9,2-1.36,3.3-1.36h78.38c14.22,0,26.9,3.43,38.02,10.28,11.12,6.86,19.72,16.49,25.8,28.91,6.08,12.42,9.12,26.64,9.12,42.68s-2.91,28.71-8.73,40.35c-5.82,11.64-13.91,20.7-24.25,27.16-.52.26-.91.58-1.16.97-.26.39-.26.84,0,1.36l35.7,114.46.39,1.55c0,2.59-1.42,3.88-4.27,3.88h-46.56c-2.85,0-4.66-1.29-5.43-3.88Zm-46.95-218.83v66.35c0,1.3.64,1.94,1.94,1.94h17.46c8.01,0,14.55-3.17,19.59-9.51,5.04-6.34,7.57-14.8,7.57-25.41s-2.52-19.46-7.57-25.8c-5.04-6.34-11.58-9.51-19.59-9.51h-17.46c-1.3,0-1.94.65-1.94,1.94Z"/>
      <path class="cls-10" d="m1615.8,1382.05c-.91-.9-1.36-2-1.36-3.3v-262.29c0-1.29.45-2.39,1.36-3.3.9-.9,2-1.36,3.3-1.36h45.4c1.29,0,2.39.45,3.3,1.36.9.91,1.36,2.01,1.36,3.3v262.29c0,1.3-.46,2.39-1.36,3.3-.91.91-2.01,1.36-3.3,1.36h-45.4c-1.3,0-2.39-.45-3.3-1.36Z"/>
      <path class="cls-10" d="m1875.37,1113.16c.9.91,1.36,2.01,1.36,3.3v37.64c0,1.3-.46,2.4-1.36,3.3s-2.01,1.36-3.3,1.36h-48.5c-1.3,0-1.94.65-1.94,1.94v218.06c0,1.3-.45,2.39-1.36,3.3s-2.01,1.36-3.3,1.36h-45.4c-1.3,0-2.39-.45-3.3-1.36-.91-.9-1.36-2-1.36-3.3v-218.06c0-1.29-.65-1.94-1.94-1.94h-46.56c-1.3,0-2.39-.45-3.3-1.36-.91-.9-1.36-2-1.36-3.3v-37.64c0-1.29.45-2.39,1.36-3.3.9-.9,2-1.36,3.3-1.36h153.65c1.29,0,2.39.45,3.3,1.36Z"/>
      <path class="cls-8" d="m1922.31,1382.05c-.91-.9-1.36-2-1.36-3.3v-262.29c0-1.29.45-2.39,1.36-3.3.9-.9,2-1.36,3.3-1.36h45.4c1.29,0,2.39.45,3.3,1.36.9.91,1.36,2.01,1.36,3.3v262.29c0,1.3-.46,2.39-1.36,3.3-.91.91-2.01,1.36-3.3,1.36h-45.4c-1.3,0-2.39-.45-3.3-1.36Z"/>
      <path class="cls-8" d="m2140.37,1113.16c.9-.9,2-1.36,3.3-1.36h45.01c1.29,0,2.39.45,3.3,1.36.9.91,1.36,2.01,1.36,3.3v262.29c0,1.3-.46,2.39-1.36,3.3-.91.91-2.01,1.36-3.3,1.36h-51.22c-2.59,0-4.27-1.29-5.04-3.88l-48.11-150.16c-.26-.78-.72-1.1-1.36-.97-.65.13-.97.58-.97,1.36l.39,148.99c0,1.3-.45,2.39-1.36,3.3-.91.91-2.01,1.36-3.3,1.36h-45.01c-1.3,0-2.39-.45-3.3-1.36-.91-.9-1.36-2-1.36-3.3v-262.29c0-1.29.45-2.39,1.36-3.3.9-.9,2-1.36,3.3-1.36h50.83c2.58,0,4.27,1.3,5.04,3.88l48.5,150.16c.25.78.71,1.1,1.36.97.64-.13.97-.58.97-1.36l-.39-148.99c0-1.29.45-2.39,1.36-3.3Z"/>
    </g>
  </g>
</svg>