<?xml version="1.0" encoding="UTF-8"?>
<svg id="Layer_group" data-name="Layer group" xmlns="http://www.w3.org/2000/svg" viewBox="0 0 994.62 1168.16">
  <g id="Vector_layer" data-name="Vector layer">
    <path d="m0,529.31c.08.62.16,1.24.24,1.86-.02,0-.04.01-.06.02-.06-.63-.12-1.25-.18-1.88Z"/>
    <path d="m657.75,779.03c-7.99-1.74-15.45-5.41-22.13-10.08-6.74-4.71-12.64-10.4-18.03-16.6-2.9-3.34-5.63-6.79-8.23-10.36-3.76-5.13-7.25-10.5-10.36-16.05-3.62-6.45-6.91-13.08-9.98-19.82-1.74-3.84-3.3-7.77-4.82-11.7-1.64-4.23-3.22-8.49-4.69-12.78-3.11-9.06-5.85-18.25-8.42-27.47-2.71-9.75-5.1-19.57-7.13-29.48-2.14-10.48-4.01-21.01-5.52-31.59-1.42-9.99-2.43-20.02-3.22-30.08-.3-3.81-.6-7.6-.84-11.4,0-.11,0-.23-.02-.42-1.24-19.22-1.19-38.53-.11-57.75.47-8.67,1.18-17.35,2.05-25.99.82-8.06,1.96-16.09,3.17-24.1,1.12-7.36,2.47-14.68,3.86-21.38,1.91-9.28,4.3-18.45,6.85-27.59,2.86-10.18,6.18-20.24,9.98-30.11,4.94-12.85,10.76-25.36,17.73-37.24,1.73-2.95,3.58-5.83,5.49-8.66h0c.05-.08.11-.16.13-.2,3.49-5.12,7.29-10.03,11.33-14.59,5.09-5.75,10.85-11,17.22-15.1.1-.07.19-.13.2-.14,1.37-1,2.77-1.96,4.2-2.87-.74-2.17.53-4.6,2.79-5.26.1-.03.19-.06.29-.07,1.05-.44,2.05-.97,3.08-1.45,1.25-.59,2.54-1.12,3.85-1.6,2.65-.99,5.39-1.68,8.17-2.25,2.23-.44,4.44-.77,6.6-.92.08,0,.16-.02.24-.02.09,0,.17-.02.17-.02,3.62-.2,7.26-.05,10.86.52,3.91.61,7.69,1.7,11.39,3.11,7.41,2.82,14.26,7.01,20.36,12.06,6.9,5.72,13.07,12.39,18.46,19.53,2.61,3.46,5.04,7.04,7.41,10.66,2.48,3.79,4.83,7.67,6.96,11.68,4.44,8.35,8.12,17.09,11.5,25.92,1.54,4,3.03,8.03,4.27,11.68,3.29,9.5,6.01,19.18,8.62,28.89,2.67,9.97,4.86,20.02,6.64,30.2,3.55,20.26,6.17,40.68,7.5,61.2.66,10.17,1.09,20.36,1.24,30.55.14,9.43-.03,18.89-.4,28.32-.08-.07-.16-.13-.24-.19-.25-.2-.52-.36-.82-.49-.42-.2-.85-.38-1.3-.56-.21-.12-.43-.24-.63-.36-.32-.23-.62-.46-.92-.7-.43-.39-.85-.79-1.28-1.18.29-12.26.19-24.53-.25-36.8-.19-5.14-.44-10.27-.77-15.4-1.39-20.4-3.6-40.81-7.54-60.88-.07-.38-.15-.75-.2-1.06-.07-.38-.15-.74-.21-1.06-1.87-9.09-3.92-18.15-6.15-27.16-2.16-8.69-4.78-17.23-7.63-25.51-1.96-5.65-4.01-11.28-6.28-16.8-2.23-5.43-4.69-10.75-7.08-15.56-2.32-4.64-4.77-9.21-7.27-13.76-2.28-4.14-4.66-8.2-7.24-12.08-.02-.03-.03-.06-.05-.08l-.13-.19c-3.28-4.86-6.82-9.59-10.38-13.67-2.7-3.08-5.56-5.98-8.63-8.69-2.36-2.07-4.84-4.03-7.43-5.82-.11-.08-.24-.16-.35-.25-2.15-1.43-4.39-2.75-6.44-3.78-1.98-1-4.02-1.9-5.82-2.54-1.98-.69-3.99-1.24-5.82-1.62-.14-.03-.28-.06-.42-.09h0c-1.86-.36-3.73-.64-5.44-.78-.1,0-.2-.02-.29-.02h-.1c-2.06-.13-4.12-.13-5.99-.03-.11,0-.23,0-.34.02h-.04c-2.15.16-4.3.47-6.43.88-1.44.31-2.87.72-4.28,1.19-.41.14-.82.29-1.23.43-2.2.77-4.37,1.69-6.48,2.71-.38.19-.75.39-1.11.61-.08.06-.16.11-.25.16-.11.11-.21.21-.34.32-1.63,1.37-4.12.99-5.51-.49-.54.34-1.07.7-1.6,1.04-1.36.92-2.66,1.89-3.81,2.9-.1.08-.2.17-.27.24-3.27,2.86-6.33,5.96-9.21,9.21,0,0,0,0,0,0-.05.05-.09.1-.11.11-.07.07-.12.15-.14.16-3.65,4.17-7.02,8.54-10.07,13.03-4.52,6.68-8.5,13.71-12.15,20.88-5.04,9.98-9.21,20.4-12.9,30.95-4.75,13.73-8.68,27.8-11.65,42.02-3.22,15.62-6.01,31.37-7.87,47.22-1.11,9.51-2.06,19.04-2.7,27.93-.6,8.66-1.03,17.34-1.28,26.02-.28,9.9-.26,19.79-.15,29.7.12,9.57.34,19.12.92,28.49,1.38,20.66,3.53,41.32,7.25,61.7.58,3.16,1.2,6.32,1.82,9.41.02.07.02.14.04.2.02.07.02.14.03.16.04.2.08.41.1.52.02.08.03.16.05.25l.02.07c1.37,6.7,2.87,13.36,4.63,19.97,1.73,6.46,3.7,12.85,5.85,19.16.02.03.02.07.04.11.02.07.05.15.06.18.07.2.15.42.16.46,2.11,6.1,4.37,12.14,6.91,18.08,2.22,5.19,4.48,10.36,6.83,15.08,3.86,7.74,8.17,15.32,12.79,22.22,3.06,4.54,6.37,8.93,9.98,13.05,2.46,2.79,5.1,5.43,7.59,7.65.75.66,1.51,1.31,2.27,1.95.2.21.41.43.61.63.32.33.7.58,1.1.77,1.46,1.15,2.95,2.27,4.45,3.3,2.18,1.47,4.48,2.81,6.84,4.01,2,.99,4.06,1.87,6,2.58.1.03.19.07.29.1l.06.02c2.11.72,4.28,1.33,5.95,1.68,2.02.41,4.07.7,6.13.85,2.02.12,4.06.12,6.08,0,1.71-.13,3.41-.34,5.11-.65,2.14-.43,4.22-1,6.28-1.69,2.1-.75,4.16-1.64,6.16-2.62,2.33-1.19,4.59-2.5,6.67-3.88,1.67-1.12,3.29-2.31,4.87-3.55.62-.13,1.24-.36,1.79-.65,1.14-.6,2.15-1.35,3.14-2.17,1.37-1.14,2.55-2.45,3.72-3.8.71-.83,1.28-1.73,1.52-2.77,2.14-2.2,4.17-4.39,6.04-6.5,3.11-3.53,5.91-7.31,8.55-11.19,4.96-7.39,9.17-15.22,13.2-23.15,4.98-9.88,9.3-20.08,12.99-30.51,2.99-8.58,5.49-17.31,7.86-26.07,2.48-9.17,4.75-18.4,6.71-27.7,1.9-9.24,3.5-18.53,4.66-27.9,1.02-8.16,1.81-16.33,2.45-24.52.3.08.61.12.92.12.47,0,.96-.1,1.42-.31.55-.24.99-.61,1.35-1.06.34-.11.66-.27.93-.49.32-.25.55-.54.71-.85-.65,9.43-1.62,18.84-2.72,28.22-1.24,10.52-2.68,21.03-4.39,31.49-.94,5.74-1.97,11.47-3.05,16.71-2.04,9.89-4.6,19.63-7.52,29.29-3.01,9.97-6.33,19.84-10.13,29.54-2.51,6.4-5.29,12.69-8.49,18.78-2.55,4.89-5.3,9.66-8.23,14.33-2.77,4.44-5.77,8.74-8.88,12.94-2.71,3.66-5.72,7.14-8.99,10.3-3.07,2.97-6.43,5.69-9.93,8.14-3.94,2.77-8.14,5.14-12.58,7.02-6.78,2.86-14.07,4.35-21.38,4.35-3.76,0-7.53-.39-11.24-1.19Z"/>
    <path d="m673.28,1026.14c-9.8-.07-19.52-1.55-28.8-4.72-8.71-2.98-17.03-7.32-24.75-12.29-4.15-2.67-8.24-5.47-12.03-8.63-1.33-1.11-2.64-2.26-3.91-3.43.36-.35.72-.71,1.07-1.06.08-.06.16-.12.23-.19.71-.63,1.42-1.28,2.09-1.96.56-.55,1.14-1.08,1.65-1.68.24.21.47.42.71.63,3.45,2.91,6.98,5.74,10.74,8.23,2.73,1.73,5.56,3.31,8.37,4.68.04.02.08.04.12.06l.06.03c2.84,1.32,5.74,2.49,8.71,3.48,2.68.84,5.39,1.52,8.16,2.07,4.09.74,8.22,1.21,12.38,1.46,3.04.11,6.06.07,9.11-.15,2.91-.29,5.79-.72,8.66-1.32,2.5-.58,4.95-1.33,7.37-2.18,5.26-1.99,10.33-4.44,15.33-7.02,5.01-2.65,9.8-5.67,14.44-8.89,3.58-2.53,7.02-5.2,10.28-8.11,4.15-3.82,8.16-7.86,11.85-12.12,4.4-5.26,8.47-10.88,12.23-16.6,2.2-3.45,4.2-7,6-10.66,2.96-6.24,5.55-12.64,7.72-19.18,1.41-4.46,2.54-8.98,3.4-13.46,0-.07.02-.13.03-.2l.02-.07c1.52-8.49,2.57-17.09,3-25.71.02-.61.04-1.21.06-1.82.25,1.55.53,3.09.9,4.6.61,2.54,1.29,5.07,2.14,7.54.43,1.23.86,2.45,1.3,3.68.22.6.44,1.2.66,1.8.12.34.24.69.38,1.03-.06.8-.13,1.6-.21,2.4-.54,5.47-1.42,10.91-2.36,16.33-.93,5.35-1.92,10.7-3.27,15.97-.84,3.29-1.8,6.54-2.73,9.36-3.13,9.53-6.61,19.03-11.46,27.83-2.51,4.57-5.44,8.97-8.44,13.22-3.66,5.17-8.02,9.86-12.58,14.25-8.73,8.41-18.99,15.14-30.54,18.99-4.53,1.51-9.31,2.47-14.06,3.01-4.42.51-8.88.79-13.34.79h-.7Z"/>
    <path d="m766.79,839.39c-.4-.46-.84-.82-1.36-1.1-.66-.73-1.28-1.5-1.94-2.23-.69-.76-1.6-1.24-2.61-1.29-.74-2.38-1.54-4.71-2.37-6.98-2.33-6.3-4.94-12.46-7.91-18.12-1.6-3.04-3.27-6.06-5.11-8.98-1.84-2.91-3.81-5.75-5.71-8.46-2.35-3.34-4.92-6.53-7.5-9.39-4-4.39-8.31-8.49-12.63-12.17-2.94-2.47-6.01-4.75-9.14-6.81-.04-.02-.08-.05-.12-.07l-.12-.08c-3.36-2.16-6.85-4.12-10.12-5.7-.2-.1-.4-.19-.61-.29.97-.56,1.85-1.22,2.71-1.93,1.36-1.13,2.54-2.43,3.69-3.76,2.27,1.31,4.49,2.72,6.66,4.19,5.42,3.69,10.5,7.86,15.22,12.4,1.49,1.42,2.93,2.88,4.32,4.39,0,0,0,.02.02.02.09.09.17.19.21.23,2.08,2.29,4.04,4.68,5.97,7.09,3.4,4.26,6.68,8.71,9.51,13.35,4.19,6.89,7.8,14.09,10.99,21.49,3.42,7.93,6.06,16.14,8.18,24.49-.08-.1-.16-.21-.24-.3Z"/>
    <path d="m577.76,964.38c-10.24-17.8-16.5-37.67-19.57-57.91-2.81-18.54-2.81-37.45.53-55.93,3.38-18.62,9.66-36.76,19.14-53.17,3.56-6.17,7.64-12.02,12.22-17.4,5.06-5.94,10.74-11.38,17.02-15.78,1.38-.97,2.8-1.88,4.2-2.83.55-.4,1.1-.8,1.65-1.19,0,0,.02-.02.03-.02h0c1.13-.79,2.27-1.57,3.45-2.32-.83-2.18-.09-4.98,2.06-6.15,1.94-1.04,3.85-2.14,5.82-3.14.07.11.14.21.21.32.3.44.61.89.91,1.33.02.03.03.07.04.1.52,1.19,1.34,2.32,2.16,3.32.93,1.15,1.93,2.25,2.95,3.32-1.88.79-3.74,1.67-5.55,2.61-.44.24-.88.5-1.31.74-2.14,1.23-4.85.81-6.44-1.02-1.1.71-2.19,1.45-3.19,2.14-.1.07-.2.14-.2.15-1.6,1.12-3.07,2.36-4.49,3.66-.03.03-.07.07-.1.09h0c-4.36,4.02-8.48,8.32-12.27,12.77l-.17.2c-3.72,4.4-7.15,9.03-10.14,13.61-.13.2-.27.41-.4.61-3.28,5.1-6.27,10.35-8.87,15.79-2.63,5.52-4.91,11.2-6.77,16.87-2.12,6.58-3.83,13.31-5.04,19.74-1.45,7.9-2.3,15.93-2.7,23.52-.44,8.89-.29,17.8.43,26.56.61,7.08,1.69,14.07,3.13,20.7,1.64,7.27,3.6,14.46,6.01,21.05,2.59,6.99,5.71,13.8,8.96,20.01,2.74,5.18,5.83,10.14,9.14,14.89,1.38,1.95,2.8,3.85,4.28,5.72-.03.03-.06.05-.09.08-.34.28-.7.53-1.06.79-.08.04-.16.09-.25.13-.86.47-1.78,1.01-2.23,1.93-.25.54-.35,1.12-.29,1.69-.16.16-.29.34-.42.52-.08.1-.16.2-.24.31-4.68-5.78-8.85-11.96-12.56-18.4Z"/>
    <path d="m705.95,752.04s0,0,0,0c-.09.11-.19.21-.28.32.09-.11.19-.21.28-.32Z"/>
  </g>
  <g id="Vector_layer-2" data-name="Vector layer">
    <path d="m565.48,1166.2c-5.42-.18-10.12-3.13-13.43-7.31-9.46-12.2,4.9-25.57,17.43-25.85,0,0,0,0,0,0,.78-5.88-1.17-11.79-1.76-17.63-1.47-15.66-4.5-30.9-4.57-46.57.65-20.35,6.48-40.17,10.64-59.99,2.67-10.25,7.45-20.26,13.7-28.79,1.28-1.93,5.81-4.64,6.48-.98,0,1.04-.98,1.9-2.02,1.75-3.66,3.14-5.42,7.83-7.57,11.91-6.41,11.49-8.55,24.6-10.99,37.25-1.75,11.41-4.27,22.96-4.08,34.55,1.04,17.95,3.97,35.38,6.99,53.03,1.22,7.26,4.24,15.78-.96,22.02-2.75,2.74-7.03,2.04-10.28,3.85-2.91,1.69-7.26,4.42-6.23,8.33,5.19,11.52,27.86-.45,36.62-2.69,7.22-1.74,14.75-2.18,21.79-4.78-6.58-5.65-18.72-1.99-23.57-10.63-6.91-13.62-9.18-29.03-8.27-44.19.41-12.9.74-25.8,1.82-38.67.67-6,13-61.99,21.04-53.52.86,1.1.54,2.74-.62,3.49-4.51,5.32-5.26,12.53-7.23,18.96-7.65,24.06-3.75,49.26-3.17,73.98.5,11.6,2.4,23.72,7.6,34.1,5.94,2.34,12.63,3.24,17.77,7.31,3.51,3.21,6.67,8.57,4.93,13.39-3.34,7.18-19.61,8.39-26.79,10.11-11.47,3.47-22.99,8.55-35.25,7.57Z"/>
    <path d="m733.03,1167.87c-14.07-.22-41.14-6.64-29.32-25.76,7.82-11.57,22.06-19.87,36.24-18.37,4.12-13.63,4.82-27.45,5.95-41.5.74-12.29,3.01-24.63,1.33-36.84-1.37-5.06-2-10.22-2.75-15.39-3-11.08-6.44-22.08-13.48-31.25-2.24-3.86,3.56-7.4,5.97-3.49,7.72,11.52,12.24,24.99,13.96,38.68.67,6.01,2.97,11.79,2.69,17.9-.04,5.56-.36,11.42-.74,16.92-1.61,18.5-1.69,36.37-5.01,54.47-.98,5.63-2.47,10.24-9.29,8.71-7.45-.33-14.17,3.06-19.56,8-2.59,2.76-6.39,5.91-6.41,9.93,17.49,7.82,38.22,7.01,56.81,3.73,8.29-1.69,17.36-.55,24.82-5.17-1.35-4.67-2.95-10.55-7.52-13.03-5.92-4.48-25.4.48-22.25-10.93,4.85-15.13,11.75-29.72,15.43-45.17,1.53-8.09,1.48-16.38,1.2-24.58.17-15.2-2.5-30.09-7.42-44.46-4.4-13.36-12.18-25.32-21.39-35.78-.56-.65-1.24-1.26-1.24-2.17,0-1.11,1.75-1.06,1.68.06,6.52,8.08,14.17,15.1,19.98,23.74,6.42,9.94,10.58,21.29,13.78,32.62,2.22,9.19,2.36,18.34,2.95,27.68,2.68,24.6-8.74,46.41-17.53,68.53,7.38.86,15.22.58,21.49,5.19,5.38,4.58,8.51,12.01,9.27,18.94-1.13,10.42-19.9,10.6-27.83,12.48-13.72,3.37-27.49,7.79-41.81,6.31Z"/>
    <path d="m676.35,1135.7c-11.2-.99-34.16,2.2-40.54-8.32-2.78-3.49-1.51-8.5,2.39-10.51,7.34-3.29,6.68-.18,9.7-8.92.66-1.45-.04-3.03.24-4.58.75-4.7.45-9.44.07-14.18.03-8.77.28-17.68.82-26.39,1.42-11.6,1.09-23.41,3.38-34.81.66-1.91.89-3.71.92-5.65.08-1.08,1.74-.85,1.66.22-1.69,9.32-1.3,18.72-1.21,28.18-.47,11.92-.27,23.85.24,35.77,1.09,6.14,1.69,12.27,1.2,18.49.65,2.05-.02,4.15-.78,6.07-2.47,7.23-3.99,10.02-11.68,12.1,4.1,3.54,10.55,1.78,15.56,1.93,11.19-.64,22.39-.72,33.58-.44.85-1.11,1.18-2.56,1.36-3.92-4.2-6.27-15.31-.73-18.67-8.18-1.66-6.49.09-13.36.35-19.95.39-6.57.39-13.07,1.17-19.58.84-6.26,2.11-12.51,2.07-18.86-.52-9.91-2.11-19.1-1.51-28.99.02-2.24,1.86-4.12,4.12-4.12s4.06,1.88,4.12,4.12c.12,4.13-.06,8.27.19,12.4.57,6.23,2.25,12.36,1.83,18.67-.06,7.28-1.82,14.37-2.38,21.6-.39,10-1.16,19.96-1.38,29.96,8.34.64,20.25,4.05,19.55,14.47-.25,4.87-2.16,10.43-6.99,12.46-6.22,1.65-12.95.71-19.36.95Z"/>
    <path d="m590.2,981.69c-.49-.38-.51-1.07-.1-1.51,1.06-1.19,2.13-2.4,3.24-3.56.19.63.47,1.2.92,1.67-.94,1.04-1.82,2.13-2.65,3.23-.2.25-.5.39-.81.39-.21,0-.43-.07-.61-.21Z"/>
    <path d="m591.33,979.45c0-.46.38-.83.83-.83s.83.38.83.83-.38.83-.83.83-.83-.38-.83-.83Z"/>
    <path d="m590.6,979.67c0-.57.47-1.05,1.05-1.05s1.05.47,1.05,1.05-.47,1.05-1.05,1.05-1.05-.47-1.05-1.05Z"/>
    <path d="m590.13,981.28h0s0-.02,0,0c-.7-2.76,1.51-5.22,3.38-6.96,1.71-1.53,3.07-3.3,4.69-4.89.98-1.1,2.22-3.7,3.94-2.23.64.63.53,1.66-.12,2.23-1.9,2.27-3.99,4.34-6.05,6.44-1.39,1.48-3.61,2.71-4.01,4.78.54,1.22-1.49,1.92-1.83.63Z"/>
    <path d="m606.12,999.94c.36-5.33,5.73-9.56,9.44-12.95,1.6-1.3,3.76,1.13,2.25,2.55-2,1.49-3.66,3.38-5.62,4.93-1.56,1.46-3.22,2.89-4.37,4.68-.03.65.06,1.62-.87,1.62-.45,0-.86-.38-.84-.84Z"/>
    <path d="m778.65,947.92c-1.8-3.04-2.25-6.51-3.27-9.81-1.34-3.39-2.95-6.69-3.89-10.23-1.27-6.85-2.3-13.7-4.09-20.47-1.09-7.14-2.16-14.22-4.43-21.09-2-6.01-4.58-11.73-8.48-16.75-5.19-8.38-11.8-15.7-18.7-22.69-3.91-3.97,2.04-10.04,6.09-6.09,7.74,10.33,16.2,20.94,22.68,32.42.02.14.05.29.07.43.17,1.12.42,2.23.68,3.34.52,2.2,1.19,4.36,1.93,6.5.7,2.03,1.53,4.06,2.5,5.97.69,1.36,1.69,2.6,3.12,3.12.99,3.51,1.72,7.11,2.13,10.82.55,4.3,1.82,7.62,2.79,11.7,1.21,6.49,1.94,13.46,5.48,19.12,3.64,8.62,6.15,12.14,14.39,4.76,3.56-3.95,2.39-10.11,2.38-15.03-.62-7.11-.88-14.38-3.04-21.23-1.91-6.87-5.65-13.89-8.35-20.3-3.77-7.48-7.27-15.11-11.31-22.4-3.9-9.35-9.36-18.01-14.57-26.57,0-.98,1.4-1.07,1.64-.25,3.29,5.22,7.14,9.87,10.64,14.93,13.14,19.66,26.19,39.66,31.48,63,1.69,7.83,2.55,15.79,2.11,23.8.08,4.17-1.15,8.29-3.76,11.57-3.87,4.43-9.79,7.63-15.36,7.63-4.16,0-8.11-1.79-10.87-6.2Z"/>
    <path d="m539.9,941.17c-8.82-.67-15.77-8.44-18.68-16.37-2.15-5.07-1.38-10.91-1.41-16.14.07-3.85.27-7.62.44-11.45,1.53-8.03,3.95-15.93,6.21-23.8,1.95-8.09,4.8-16.29,9.77-23.03,5.3-5.38,9.9-11.53,15.98-16.09,3.48-2.36,7.27-4.2,10.69-6.66,1.25-.87,2.56-1.61,3.96-2.21.74-.62,1.92-.34,2.4.47.55.94.02,2.05-.83,2.32-2.68.97-4.69,3.15-6.99,4.75-6.64,3.9-11.98,9.28-16.47,15.49-9.53,9.73-11.14,23.91-14.5,36.32-1.94,9.19-4.39,18.34-3.41,27.84-.93,8.89,3.51,19.67,13,21.48.53,0,1.1.13,1.59-.12,2.11-3.66,3.05-7.79,4.2-11.81,2.23-7.09,6.94-13.02,9.97-19.74.67-1.65,2.67-2.44,4.3-1.74,4.5,2.22-.02,6.77-1.3,9.45-1.87,3.85-3.63,7.09-5.08,11.02-2.62,7.34-3.22,20.94-13.84,20.01Z"/>
    <path d="m616.34,607.37c-9.15-1.51-15.9-8.17-19.44-16.5-4.03-7.66-6.72-16.07-6.8-24.78-.3-12.58-.52-25.47,3.43-37.56,5.55-20.65,13.11-40.72,18.37-61.38,1.82-9.8,2.38-19.03-.93-28.4-1.1-5.67-3.29-11.36-6.77-15.88-1.8-2.58-3.53-5.2-5.19-7.86-1.55-1.67-1.5-4.39.36-5.8,3.98-2.73,6.36,1.9,7.91,4.95,2.32,3.9,5.04,7.57,7.05,11.65,9.77,23.54,4.53,42.28-1.72,65.61-3.47,11.78-5.92,23.82-8.96,35.71-1.4,5.57-3.18,11.09-3.57,16.84-1.21,17.08-.42,33.96,10.9,47.81,3.51,3.23,10.21,5.49,14.49,2.63,3.37-4.11-.16-12.04-1.88-16.44-6.39-10.95-11.92-22.81-12.33-35.7.53-9.5,2.71-19.46,9.06-26.83,4.55-6.66,6.56-13.46,10.99-19.9,3.19-4.27,5.94-8.82,7.67-13.89,2.47-6.51,1.83-13.56,1.94-20.38.31-9.26-.63-18.45-3.68-27.24-3.22-8.58-7.6-16.86-13.36-24.01-3.94-4.03-7.79-8.13-11.27-12.57-3.46-4.07-8.13-6.71-13.07-8.58-1.23-.37-2.78-1.11-2.47-2.63,0,.07,0,.15-.01.22,0,.03,0,.07,0,.1-.04-1.01.68-1.92,1.76-1.92.55,0,1.02.24,1.33.62,9.43,2,16.38,8.38,22.83,15.08,3.88,3.15,7.74,6.39,10.56,10.57,6.99,10.05,11.91,21.13,14.17,33.11,1.33,11.52,2.34,22.71,1.19,34.19-1.61,9.68-7.34,17.74-12.27,25.96-2.6,5.49-5.1,11.04-8.28,16.24-7.38,10.45-9.06,24.59-4.94,36.66,3.78,9.71,10.49,17.34,12.41,27.7,4.38,13-5.63,25.65-19.47,22.59Z"/>
    <path d="m484.03,578.98c-9.75-.57-16.78-12.52-12.13-21.19,5.81-9.07,16.31-13.17,24.67-19.17,4.83-4.82,10.17-9.67,13.24-15.84,1.47-7.83,3.82-15.38,6-23.04,3.23-19.38-1.07-39.28,1.66-58.72,2.24-10.57,4.72-21.34,9.44-31.12,10.42-19.16,27.38-27.69,48.96-26.37.89-.56,1.42.13,1.45.82.02.65-.38,1.32-1.34.91-7.45.14-14.71,3.54-21.51,6.37-9.89,5.21-16.9,15.04-21.12,25.2-2.33,7.65-4.48,15.42-5.85,23.31-.96,7.98-.37,16.05-.07,24.04,0,14.82,3.08,30.29-2.35,44.52-2.62,5.96-3.93,12.36-6.41,18.33-4.13,7.12-10.88,12.46-16.87,17.98-2.5,2.14-5.34,3.74-8.38,4.92-2.97,1.6-5.51,3.85-8.4,5.58-2.48,1.93-5.3,4.02-6.49,7.01-.36,3.36,1.71,7.15,5.25,7.67,7.78.98,15.04-4.08,21-8.54,21-19,30.55-37.58,33.41-65.71.56-6.82,2.12-13.22,3.41-19.82.76-2.36,1.66-4.67,2.67-6.93.03.2.06.41.09.61-.02-.16-.05-.33-.07-.49.59,3.76,1,7.55,1.12,11.36,0-.18-.02-.36-.02-.55.03.86-.08,1.74.05,2.59.18,1.23.72,2.31,1.69,3.07-.54,5.47-.66,11.01-1.35,16.42-2.27,11.98-5.34,23.89-11.14,34.69-9.19,17.21-27.11,42.17-48.68,42.18-.64,0-1.28-.02-1.93-.07Z"/>
    <path d="m557.37,458.28c.03-.24.07-.48.11-.73.39-2.44.83-4.87,1.33-7.29-.02.06-.02.11-.04.16.16-.66.33-1.33.54-1.98-.02.05-.04.11-.07.16.06-.15.11-.29.18-.43.04-.08.06-.17.08-.26,2.33.38,4.28,3.11,2.38,5.6-1.57,1.9-3.11,3.84-4.55,5.83.02-.35.03-.71.04-1.06Z"/>
    <path d="m544.36,488.74c-2.21-4.17-1.28-9.36-1.7-13.94-.46-17.69,3.3-40.25,20.61-49.02,2.9-1.21,4.77,3.18,1.88,4.43-13.83,5.77-16.32,26.67-18.24,39.8-.4,5.71-2.48,11.63-1.3,17.29,1.11.88-.26,2.52-1.24,1.42Z"/>
    <path d="m556.91,537.12c.16-1.28.26-2.61.12-3.9,1.07-.24,2.14-.39,3.23-.43,1.93-.05,4.37,1.47,2.07,3.16-1.6.15-3.56.43-4.91,1.23-.12.07-.25.15-.37.23-.05-.1-.1-.19-.15-.28Z"/>
    <path d="m761.34,539.42c-.68-.63-1.33-1.29-1.99-1.92-.68-.64-1.38-1.23-2.08-1.83-.13-.11-.25-.24-.37-.36-.39-.5-.75-1.02-1.1-1.55-1.09-1.64-2.06-3.34-2.96-5.09-.62-1.27-1.06-2.6-1.56-3.92-.49-1.26-1.02-2.5-1.5-3.76-.28-.85-.53-1.7-.74-2.56-.29-1.53-.56-3.06-.86-4.59,0-.38-.02-.77-.03-1.14-.06-1.59-.1-3.17-.15-4.77,0-.05,0-.1,0-.15,0-.01,0-.03,0-.04,0-2.87.13-5.74.11-8.62-.07-8.03-.12-16.07.1-24.1.09-3.35,0-6.71-.52-10.02-.25-1.59-.43-3.18-.67-4.77-.28-1.87-.66-3.72-.74-5.61,0,.18,0,.35,0,.52-.07-3.52-.54-7-1.31-10.43-.02-.53-.04-1.06-.06-1.59,0-.03,0-.07,0-.11v.06-.12.07c-.04-2.5.13-4.99.26-7.49.06-1.1.09-2.2-.2-3.27-.24-.85-.64-1.65-.97-2.47-.8-2.46-1.41-5.04-1.84-7.59-.36-2.24-.53-4.53-1.7-6.54-.65-1.12-1.5-2.15-2.43-3.05-.29-.59-.54-1.19-.88-1.75-.31-.53-.65-1.02-1.02-1.51,0,0,0,0,0,0h0s.03.03.04.05c.02.03.05.07.07.1-.03-.04-.05-.07-.07-.1-.02-.02-.04-.05-.05-.07,0-.02,0-.02,0-.04-.02-.12-.04-.24-.07-.36-.06-.53-.1-1.08-.29-1.59-.42-1.1-1.23-1.84-2.31-2.13-1.04-2.64-2.22-5.24-3.57-7.8-2.9-5.83-4.94-12.19-9.19-17.23-4.28-4.44-9.07-9.26-14.93-11.35-1,1.61-3.67.53-3.35-1.3,1.42-7.27,15.38,2.78,18.5,5.04,7.11,4.77,11.19,12.27,15.44,19.45,3.13,4.89,5.97,9.97,8.28,15.3,6.4,15.86,9.12,33.13,9.89,50.15.83,11.36,1.82,22.78.43,34.14-.37,9.39-.13,18.94,1.45,28.22.46,4.28,2.41,7.95,5.34,10.75-.07.04-.12.08-.19.12-1.48,1.08-2.18,3.21-1.43,4.93.47,1.06.95,2.09,1.46,3.12-.02.12-.03.25-.05.37-.04.12-.07.23-.11.35-.02-.02-.05-.04-.07-.06Z"/>
    <path d="m747.99,507.76s0,.02,0,.04c0,.05,0,.1,0,.15,0,.11,0,.23,0,.34,0-.17,0-.35,0-.52Z"/>
    <path d="m761.34,539.42c-.67-.62-1.32-1.29-1.99-1.92-.31-.29-.63-.58-.95-.86-2.85-4.5-5.35-9.34-6.26-14.45-.11-1.28,1.55-1.69,1.73-.36-.16,3.01,1.91,5.68,3.25,8.24.83,1.38,1.73,2.75,2.69,4.07,0,.52.09,1.03.3,1.51.47,1.07.97,2.14,1.5,3.2-.07.21-.13.42-.2.63-.03-.02-.05-.04-.08-.07Z"/>
    <path d="m744.01,570.6c-5.16-4.85-10.29-10.29-12.78-17.05-1.12-3.08-1.57-6.32-2.46-9.46-2.97-9.8-7.34-19.41-6.45-29.88.2-11.73,2.27-23.32,3.97-34.9.97-8.52,3.02-17.16,1.01-25.67-2.92-9.44-4.98-19.07-7.45-28.62-1.93-5.25-5.7-9.64-9.25-13.83-3.19-3.66-6.6-7.3-10.73-9.83-1.55-1.17-1.82-3.47-.64-4.98,2.86-3.39,6.51.43,8.89,2.47,10.16,9.88,17.62,21.41,18.89,35.72,1.33,8.35,5.11,15.98,6.06,24.39,1.04,22.36-7.42,45.07-1.48,67.13,3.45,7.91,6.52,15.96,9.51,24.05,3.96,6.05,9.03,12.05,15.55,15.38,5.71,2.63,12.62,4.44,18.83,3.07,7.45-3.12,10.78-7.13,4.43-13.87-2.96-3.4-6.87-5.7-10.54-8.28-.91-1.08-2-2.02-3.07-2.93.01.01.02.02.04.03-1.05-.91-2.14-1.79-3.22-2.67-3.79-6.01-7.56-12.16-11.42-18.08-3.76-5.56,2.02-5.31.41-3.03,3.27,7.49,10.52,12.21,15.84,18.15,6.37,3.82,13.67,5.64,18.87,11.16,14.54,13.72-.16,29.45-16.31,29.61-.23,0-.46,0-.68,0-9.16,0-18.7-1.95-25.79-8.1Z"/>
    <path d="m821.39,678.73c-19.72-7.42-32.21-27.53-37.68-47.08-2.57-9.67-1.63-19.82-.96-29.69.78-6.2.74-12.5,2.24-18.59.77-5.25,2.06-10.38,2.72-15.62.11-.96,1-1.69,1.94-1.69,4.58-.06,1.2,17.87,1.33,20.98.18,12.77.07,25.74,2.09,38.38,2.21,9.71,6.53,18.52,11.91,26.81,6.38,8.92,15.92,20.27,28.12,16.52,1.63-11.31-8.03-23.27-14.73-31.61-2.28-3.14-5.29-6.07-6.6-9.77-1.1-3.16-1.43-6.59-1.66-9.92-.58-14.89,3.44-29.92,4.05-44.7.66-9.28-.37-18.31-1.44-27.43-1.35-9.67-2.94-19.43-7.11-28.35-5.01-11.62-14.98-32.81-29.1-33.67.04.64.05,1.27.05,1.91,0,1.08-1.68,1.08-1.68,0,.11-.98-.18-1.94,0-2.87.33-.77,1.4-.73,2.07-.69,13.76.81,21.95,12.74,28.64,23.36,6.63,11.44,10.44,24.12,12.48,37.13,3.14,16.15,3.31,32.68,1.18,48.97-1.1,8.2-2.48,16.38-1.88,24.69.48,4.02.36,8.63,3.38,11.71,6.32,7.07,13.28,13.7,17.24,22.49,9.82,17.23,6.94,33.86-16.59,28.72Z"/>
    <path d="m788.5,567.43c.86-10.32.58-20.99-3.22-30.67-2.32-4.42-5.97-8-9.06-11.89-.91-.96-1.96-1.78-2.87-2.74-2.24-2.16-.59-6.26,2.55-6.17,4.23.62,5.9,5.69,8.11,8.79,8.65,10.4,8.34,23.86,7.66,36.62-.1,2.06-.43,4.12-.7,6.15-.07.63-.56,1.14-1.23,1.14-.7,0-1.2-.56-1.24-1.24Z"/>
    <path d="m779.46,485.59c-1.73-.94-3.35-2.09-5.14-2.9-.44-.13-.91-.32-1.07-.8-.19-.49-.04-.86.15-1.26.12-1.25,2-1.44,2.38-.26,1.81.98,7.17,1.57,6.19,4.39-.42.99-1.62,1.34-2.51.83Z"/>
    <path d="m847.74,500.17c-11.05-.79-21.89-4.16-30.43-11.43-7.53-7.13-9.94-19.04-13.77-28.1-3.33-10.83-6.08-21.82-10.23-32.4-2.19-8.41-4.38-16.94-8.22-24.78-4.32-7.84-9.05-16.06-13.72-23.58-1.87-2.46-3.22-5.61-6-7.16-3.96-1.31-9.03-1.69-12.58.82-.12,1.56-2.46,1.78-2.99.38-.43-1.11.26-2.13.92-2.98,3.1-3.8,8.57-4.68,13.22-4.31,10.19.86,15.94,16.2,20.66,23.97,7.53,11.5,11.81,24.62,14.95,37.89,3.2,7.9,5.64,16.19,8.21,24.27,2.49,6.77,5.95,14.13,8.98,20.41,1.04,2.08,2.05,4.05,3.3,6,2.66,3.44,6.96,5.1,10.92,6.57,5.19,2.19,10.85,1.9,16.34,2.55,3.72.35,7.5,1.41,11.23.64,5.7-2.25,12.06-3.74,17.13-7.25,4.76-4.62,7.26-12.3,4.67-18.61-9.87.42-19.28,5.18-28.99,5.71-10.17.25-21.06-3.95-27.67-11.83-2.47-3.16-3.95-6.96-5.52-10.63-3.9-9.13-7.43-18.43-8.66-28.34-1.73-7.33-3.54-15.4-4.74-22.61-1.35-7.86-2.75-15.23-6.87-22.13-5.08-9.42-10.15-19.66-20.07-24.78-3.77-2.61-7.6-5.63-12.42-5.59-4.47-.27-8.81,1.3-13.05,2.53-1.2.44-2.44.88-3.27,1.91-1.39,1.5-3.87,1.57-5.45.35-4.26-3.66.87-8.56,4.88-9.49,13.01-3.41,23.01-3.35,33.26,6.26,11.21,6.98,16.3,19.84,22.8,30.79,5.37,8.73,6.38,19.15,9.07,28.86,3.83,12.08,5.47,24.77,11.68,36.01,2.18,3.85,3.81,8.23,7.03,11.35,5.25,4.12,11.98,6.6,18.56,7.51,8.93.5,17.39-3.08,26.27-3.22,12.63-1.73,13,15.23,9.17,23.39-2.9,7.71-9.43,12.11-16.41,15.77-6.39,5.27-14.11,7.06-22.18,5.28Z"/>
    <path d="m526.18,663.95c-5.86.4-11.13-3.83-11.7-9.72.47-8.71,8.03-14.64,11.64-22,4.44-8.05,5.74-17.14,6.64-26.15.49-13.24-.15-26.55,2.08-39.68,1.45-10.93,2.23-25.3,13.96-30.19,3.05-1.26,7.15-1.49,9.67.93.5.49-.27,1.25-.76.76-.44-.59-1.28-.79-1.97-.97-14.17-1.24-17.57,16.08-18.18,27.02-3,19.27,1.25,38.74-3.13,57.8-1.38,6.01-4.11,11.68-7.59,16.75-3.56,4.86-8.6,9.91-8.98,16.01,1.13,4.95,6.31,6.77,10.88,5.7,5.18-1.83,9.6-6.09,12.12-10.93,7.61-14.55,4.78-31.34,7.1-47.05.3-7.26.46-14.99,4.05-21.51,1.88-3.72,3.35-7.91,5.79-11.23,1.51-.91,3.41.74,2.71,2.37-.5,1.24-1.32,2.35-2.06,3.45-2.62,3.85-4.75,8.28-5.79,12.76-1.17,5.57-.38,11.3-1.02,16.92-2.03,15.68-.51,32.44-8.36,46.7-3.55,6.01-9.68,12.24-17.08,12.24Z"/>
  </g>
  <g id="Vector_layer-3" data-name="Vector layer">
    <path d="m752.1,719.34c-3.72-1.34-4.69-5.81-5.82-9.16-.85-2.91-2.85-8.45,1.46-9.38,1.64-.23,3.21.96,3.45,2.61.46,3.71.79,7.71,3,10.86,6.22-1.2,4.97-8.48,8.01-12.53,2.97-4.3,9.53-5.18,11.07-10.49,1.59-6.02,1.18-12.56-.7-18.44-3.23-10.34-13.06-2.46-17.6,2.39-.06.61-1.05.59-1.05-.06.48-2.14,1.96-3.89,3.2-5.67,2.3-3.21,5.82-5.62,9.9-5.41,6.42-.25,9.12,6.41,9.71,11.76.52,4.93,1.47,10.02.45,14.93-1.06,7.04-8.71,8.93-12.21,14.22-1.22,2.89-1.4,6.21-3.16,8.89-1.98,2.62-5.07,5.59-8.54,5.59-.38,0-.78-.04-1.18-.12Z"/>
    <path d="m588.29,732.18c-11.7-.32-11.34-14.4-14.71-22.45-3.24-5.88-9.78-10.25-9.39-17.68-.06-5.96.61-13.36,6.63-16.32,5.84-3.39,10.77,3.41,13.29,7.93.27.93,1.7,4.18-.34,3.52,0,0-.02,0-.03,0-.54-.1-.54-.93,0-1.03-2.35-2.78-5.14-5.4-8.26-7.29-7.25-.55-7.77,9.78-7.04,15,.5,2.61,2.29,4.99,4.08,6.81,6.02,5.61,6.73,13.09,8.42,20.61.88,2,1.82,4.08,3.32,5.69,1.66,1.4,3.82,2.07,5.91,1.72,1.43-1.33,2.59-3.44,3.63-4.97.67-1.25.79-2.59,1.13-3.93.72-2.31,4.34-1.19,3.65,1.14-.45,2.36-1.73,4.45-3.06,6.4-1.39,2.45-3.35,4.94-6.28,4.94-.31,0-.63-.03-.96-.09Z"/>
    <path d="m636.78,666.66c-1.75-.46-3.29-1.77-3.75-3.55-.39-1.55.11-3.19,1.22-4.32.35-.37.77-.67,1.22-.92-.02-.98.61-1.93,1.59-2.17.77-.2,1.53-.34,2.32-.29,1.39.07,2.73.45,3.82,1.38.55.46,1.08,1,1.41,1.64.48.92.66,1.93.55,2.97-.16,1.61-1.19,2.97-2.41,3.97-1.2.98-2.75,1.51-4.3,1.51-.57,0-1.13-.07-1.68-.21Zm1.47-2.62c.05,0,.1-.02.15-.02h0c.2-.02.4-.05.6-.09.22-.05.44-.11.48-.12.18-.07.37-.14.54-.22.19-.09.37-.2.54-.31.11-.09.23-.17.34-.26.06-.05.11-.11.17-.17.05-.05.1-.11.14-.18.05-.09.11-.18.16-.28.02-.03.04-.07.05-.11.04-.11.07-.24.11-.35,0-.07.03-.14.04-.21v-.19c0-.07-.02-.13-.04-.2-.02-.06-.03-.12-.05-.18-.02-.05-.04-.1-.06-.14-.02-.04-.04-.07-.07-.11-.07-.12-.16-.24-.25-.34-.05-.07-.12-.13-.19-.2-.02,0-.04-.03-.06-.04-.08-.05-.16-.09-.24-.14-.09-.04-.19-.07-.28-.12-.23-.08-.46-.14-.7-.2-.12-.02-.24-.04-.38-.06-.17,0-.34,0-.42,0-.03,0-.07,0-.1,0h0c-.16,0-.33.04-.49.06h-.03c-.74.19-1.5,0-2.03-.48-.06.06-.12.12-.19.18-.14.16-.27.34-.39.52-.09.13-.17.28-.25.43-.06.13-.12.26-.16.35,0,.03-.02.05-.02.07h0c-.04.12-.07.25-.1.37-.02.1-.03.2-.03.3,0,.07,0,.13,0,.2,0,.08.02.16.03.25.03.14.07.27.11.4.02.05.05.11.05.13,0,.02.02.04.04.06l.02.03c.04.06.07.12.11.18.05.07.11.14.12.16.06.07.12.12.16.17,0,0,.03.02.04.03l.03.03c.08.07.16.13.2.16.03.02.06.03.08.05l.03.02c.1.06.2.12.31.18.15.07.3.14.46.2.18.06.36.1.36.1.17.03.34.06.52.08.23,0,.46,0,.7,0-.04,0-.07,0-.12.02Z"/>
    <path d="m677.26,662.57c-1.62-1.26-2.47-3.48-1.79-5.46.37-1.07,1.06-1.96,1.98-2.55-.07-.75.2-1.49.73-2.02.58-.57,1.34-.8,1.8-.75.92,0,1.75.14,2.6.48,1.43.56,2.6,1.81,3.14,3.25.4,1.1.51,2.25.29,3.4-.22.96-.57,1.89-1.2,2.68-.7.85-1.62,1.41-2.65,1.75-.55.19-1.14.28-1.72.28-1.13,0-2.27-.35-3.17-1.05Zm.58-5.75c-.03.1-.05.2-.08.29-.02.14-.05.29-.05.45,0,.11,0,.23,0,.34,0,0,0,.02,0,.02,0,.12.02.22.05.34.04.16.07.32.12.46.05.14.11.27.16.41.05.11.12.21.19.3.05.06.11.13.16.2.07.07.14.16.23.23.09.07.19.14.3.22.07.05.15.09.23.13.13.05.26.12.4.17.11.03.22.05.34.08.1.02.2.03.29.04s.19,0,.29,0c.13,0,.25-.03.38-.05.07-.02.12-.04.18-.05.07-.02.12-.05.18-.07.11-.05.21-.12.3-.19.05-.04.11-.08.15-.12.09-.09.18-.18.27-.28.06-.07.12-.14.17-.22.05-.09.11-.18.16-.28.04-.07.07-.15.09-.23.03-.07.05-.15.07-.23,0-.05,0-.1.02-.16v-.07c0-.11-.02-.21-.04-.32-.02-.07-.04-.15-.07-.23-.02-.05-.04-.11-.07-.17-.03-.05-.06-.1-.09-.16-.05-.05-.09-.11-.14-.17-.07-.07-.13-.14-.21-.2-.06-.05-.12-.1-.19-.15l-.05-.02c-.2-.1-.39-.18-.6-.25-.04-.02-.07-.02-.1-.03-.06,0-.12-.02-.17-.03h-.3c-.82.16-1.66-.14-2.23-.72-.05.08-.11.17-.15.26h0c-.08.15-.15.3-.2.45Z"/>
    <path d="m661.13,711.79c-1.32-.03-2.63-.09-3.94-.2-1.27-.11-2.53-.26-3.79-.44-2.59-.37-5.15-.93-7.68-1.57-1.38-.34-2.76-.73-4.1-1.21-1.42-.5-2.84-1.01-4.24-1.59-1.38-.57-2.72-1.23-4.04-1.93-1.16-.61-2.32-1.26-3.45-1.93-.54-.32-1.07-.65-1.6-1-.52-.34-1.02-.72-1.55-1.05-1.04-.66-2.09-1.31-3.1-2.01-.54-.37-1.07-.74-1.58-1.11-.21-.16-.29-.46-.13-.7.15-.23.49-.33.72-.16,0,.02.04.04.04.03,1.5,1.09,3.04,2.13,4.62,3.07,0,0,0,0,.02.02.02.01.03.01.03.01,2.72,1.41,5.51,2.72,8.28,3.8.35.13.7.26.92.35.48.19.96.37,1.38.53,1.77.68,3.54,1.31,5.35,1.86,1.64.5,3.29,1.02,4.97,1.43,1.52.36,3.06.65,4.61.93,1.52.26,3.05.44,4.55.6,2.4.24,4.8.34,7.06.26,1.79-.06,3.57-.2,5.24-.48,2.82-.48,5.65-1.04,8.25-1.85.95-.3,1.91-.6,2.73-.98,1-.46,1.96-1.02,2.92-1.54.93-.5,1.82-1,2.64-1.52.03-.02.05-.04.07-.04.84-.52,1.68-1.05,2.48-1.64.85-.62,1.68-1.29,2.36-1.83.67-.55,1.33-1.14,1.93-1.78.29-.32.56-.65.87-.98.02-.02.05-.06.07-.08l.09-.09c.05-.07.12-.14.16-.19.02-.02.05-.06.05-.06,0,0,.02-.02.04-.03h0s.01-.01,0,0c.01,0,.02-.02.04-.04.02-.02.04-.05.03-.05.02-.02.04-.05.06-.07.26-.84,1.38-1.11,2.05-.57.3.25.48.65.46,1.04-.02.38-.19.71-.46.95-.02.02-.04.03-.05.04-.02,0-.02.02-.04.03,0,.02-.03.04-.04.05h0c-.1.14-.19.29-.24.37l-.03.04s-.07.1-.09.12c0,.02-.02.03-.03.05,0-.02.02-.03.02-.04h0c-.3.43-.64.83-1,1.23-.49.56-.98,1.12-1.48,1.64-1.49,1.56-3.16,2.95-4.96,4.09-1.23.78-2.52,1.48-3.86,2.07-1.26.55-2.59.91-3.87,1.38-1.79.64-3.61,1.18-5.45,1.62-1.06.25-2.14.47-3.21.63-1.08.16-2.17.23-3.25.32-1.32.1-2.65.18-3.98.22-.56.02-1.14.02-1.7.02-.72,0-1.45,0-2.17-.02Z"/>
    <path d="m582.44,708.15c-4.23-1.57-1-5.14,1.42-6.67h0c-4.39-3.25-5.79-8.78-9.02-12.88-1.55-1.55.86-3.98,2.4-2.41,3.22,4.3,3.86,10.34,8.23,13.92,2.03,2.24-1.89,3.58-2.42,5.52,1.18.41,2.5.32,3.71.64.55.11,1.34.17,1.34.91,0,.38-.31.7-.7.7-.7-.04-1.4.07-2.1.18-.62.1-1.25.2-1.86.2-.34,0-.68-.03-1.02-.11Z"/>
    <path d="m756.44,695.3c-.8-.03-2.1.02-2.24-1.02-.12-.73.82-1.24,1.36-.72,1.24-.16,2.63-.22,3.7-.88-.53-1.41-2.19-2.27-2.3-3.87,1.56-4.55,2.88-12.47,9.05-12.23.96.1,1.82.61,2.57,1.19,1.28.96-.08,3-1.46,2.17-.7-.45-1.56-.74-2.31-.4.04-.02.08-.03.11-.04-3.34,1.84-3.88,6.26-5.7,9.32.39.87,1.18,1.48,1.62,2.32,1.64,2.63-1.5,4.18-3.84,4.18-.19,0-.38,0-.55-.02Z"/>
    <path d="m522.63,735.31c-9.26-1-18.29-3.72-27.05-6.74-7.5-3.39-13.19-9.73-17.72-16.45-1.85-2.83-3.54-5.96-4.25-9.33-.06-.34.1-.71.47-.8.38-.11.75.16.82.54,2.27,9.82,10.01,18.09,18.18,23.57,5.66,3.25,12.25,4.28,18.45,6.11,18.9,5.17,39.91.07,55.52-11.34-1.02-1.11-1.81-1.95-2.9-2.78-1.03-.25-2.24-.68-2.71-1.72-.65-1.53,1.06-2.89,2.48-2.18.7.25,1.36.67,1.96,1.12,2.91.93,5.98,1.13,8.94,1.64.76.42.42,1.56-.41,1.63,1.53,1.32-.02,3.18-.3,4.72-.92,4.51-4.3,1.4-5.8-.89-12.75,7.75-27.49,12.95-42.53,12.95-1.05,0-2.11-.02-3.16-.07Zm47.2-16.28c.13-.09.26-.18.39-.26-.19,0-.37-.02-.55-.04-.04,0-.07,0-.11,0,.09.1.17.2.26.3Z"/>
    <path d="m893.26,853.59c-3.23-3.33-6.98-6.45-11.57-7.61-.57-.21-.91-.87-.83-1.46.08-.58.57-1.12,1.18-1.17,3.91.24,7.85.26,11.77.04-3.21-11.55-7.49-22.68-10.98-34.12-3.12-9.39-8.13-18.02-12.22-27-4.71-10.76-10.82-20.7-18.54-29.55-7.93-10.42-17.48-19.51-28.45-26.67-11.9-7.65-23.28-16.9-37.53-19.43-3.43-.74-7.26-1.84-10.52-.23.35.91-1.11,1.26-1.32.4-.38-1.61,1.69-2.14,2.91-2.27,7.5-.26,15.06,2.46,22.03,5.04,9.66,5.23,19.04,11.3,28.14,17.39,13.53,9.1,24.06,21.66,33.65,34.69,5.55,7.72,9.48,16.54,13.62,25.05,4.75,9.21,9.29,18.35,12.2,28.3,2.89,9.51,6.52,18.77,9.45,28.26.38,0,.91-.05,1.5-.1,2.3-.19,5.5-.38,4.16,2.45-.88.91-2.03,1.55-2.85,2.55-.87.78-1.25,2.45-2.61,2.5-.57.98-1.09,3.27-2.31,3.27-.25,0-.55-.11-.88-.36Zm-4.25-7.29c.11.08.23.16.35.25,1.07.75,2.08,1.64,3.02,2.54.58.57,1.13,1.18,1.64,1.81.75-1.45.61-3.21.43-4.77-1.81.09-3.62.16-5.44.17Z"/>
    <path d="m891.65,849.77c-1.52-.46-1.87-2.9-.52-3.74.32-1.19,1.74-1.05,2.71-.98,2.02-.87,3.53,1.61,1.89,3.01v.05c-.02.14-.05.28-.1.4,1.08.54-.02,1.64-.82.85-.16.08-.35.15-.55.17-.26.04-.54.02-.79,0-.43.14-.88.32-1.33.32-.16,0-.33-.02-.48-.08Z"/>
    <path d="m849.02,215.36c-26.17-29.71,14.7-49.52,33.62-67.32,4.62-4.3,16.5-14.87,14.32-21.58l.04-.02c-.14-.22-.3-.43-.46-.65-.09-.09-.18-.18-.16-.2-11.86-6.74-51.03,1.36-56.67,14.38-.12.34-.23.7-.34,1.05-.32,1.02-1.92.57-1.59-.43,3.44-10.48,20.29-15.99,29.82-19.79,13.3-5.41,45.47-9.89,37.23,13.99-8.77,18.62-28.49,28.98-43.02,42.53-5.37,5.07-10.72,12.17-9.65,19.95,1.06,4.36,3.88,8.03,5.95,11.96,2.36,4.21-1.11,8.24-4.86,8.24-1.48,0-2.99-.63-4.22-2.12Z"/>
    <path d="m854.55,244.89c-.29-.16-.6-.12-.92-.08-.23.03-.48.06-.72,0-2.55-.29-2.8-3.98-.45-4.81-4.71-1.8,1.16-6.31,4.21-4.62,2.45,1.11,2.71,4.72,1.22,6.71.43,1.53-.95,3.01-2.43,3.01-.3,0-.62-.07-.92-.21Zm-.34-6.65c-.07.02-.14.05-.21.07.11.21.14.45.11.7-.04.3-.19.55-.4.75h.12c.22,0,.45.02.67.04.66-.22,1.15-.75.88-1.47-.18-.11-.39-.15-.61-.15-.19,0-.38.03-.55.07Z"/>
    <path d="m851.36,246.87c-7.33-6.83,7.7-22.41,13.8-13.64,4.09,5.7-3.11,15.22-9.64,15.22-1.46,0-2.89-.47-4.16-1.58Z"/>
    <path d="m473.12,262.84c-9.71-1.83-22.73-1.8-27.32-12.31-4.38-14.88,9.84-34.8,17.01-47.44,5.47-8.95,11.75-17.38,17.28-26.28,3.87-7.17,11.38-15.98,6.35-24.23-6.73-2.53-13.96-.04-20.74,1.06-18.89,4.62-36.72,14.6-49.78,29.02-1.44,1.62-7.72,9.18-4.89,10.58,1.25.44.54,2.51-.72,2.08-6.13-2.5,1.27-12.32,3.68-15.56,12.86-15.7,30.08-28.31,49.54-34.38,9.29-2.36,20.88-6,29.1.82,8.02,9.53,1.87,22-4.14,30.85-7.43,12.96-46.92,59.37-33.23,72.02,6.32,3.2,13.87,2.02,20.29,4.97,4.61,1.83,2.97,8.87-1.64,8.87-.25,0-.51-.02-.78-.07Z"/>
    <path d="m490.95,272.2c0-.45.38-.83.83-.83s.82.38.82.83-.38.83-.82.83-.83-.38-.83-.83Z"/>
    <path d="m495.27,280.97c-3.67-1.01-4.93-5.23-4.39-8.65-1.01-.38-.72-2.01.4-1.73,1.59-3.83,4.05-8.06,8.02-9.71,4.17-1.51,7.62,2.78,6.95,6.73,1.18,1.85.22,4.22-1.32,5.54-.46,1.41-1.32,2.93-2.68,3.6-.82,2.37-3.12,4.4-5.66,4.4-.43,0-.88-.06-1.32-.19Z"/>
    <path d="m668.94,127.86c-8.17-7.23-13.88-14.93-9.38-26.09,5.21-17.01,14.66-32.33,22.68-48.11,4.27-9.36,24.93-42.34,10.04-47.77-10.84-1.38-21.15,5.05-28.98,11.81-10.12,9.16-41.46,42.2-33.58,55.99.82,1.32-1.32,2.57-2.07,1.22-5.88-11.96,6.51-25.46,12.6-35.13,11.04-14.57,22.7-30.82,40.3-37.69,14.26-5.67,25.41.32,23.01,16.59-1.52,9.84-5.98,18.91-10.43,27.71-7.82,15.74-16.57,31-22.72,47.49-4.5,14.53-4.54,16.38,5.62,27.74,2.73,3.42-.43,7.66-3.89,7.66-1.1,0-2.22-.43-3.2-1.42Z"/>
    <path d="m674.77,177.51c-8.28-.57-5.75-12.14,1.12-12.83,4.38-.16,5.94,3.12,5.47,6.41-.46,3.22-2.88,6.43-6.52,6.43h-.07Z"/>
    <path d="m851.37,738.68c-3.15-1.16-5.27-4.14-7.33-6.64-1.42-1.63-2.76-3.66-2.1-5.9.64-1.91,1.82-3.7,3.3-5.08.43-.39,1.03-.52,1.55-.28.06-.18.2-.33.38-.39,1.05-4.18-1.64-8.2-.96-12.46,1.13-14.07,16.84-18.5,27.95-12.23,6.68,4.2,12.08,10.92,12.32,19.08.91,4.8.06,9.63-3.8,12.84-4.77,4.84-12.66,2.3-18.18,6.06-3.46,2.09-6.73,5.34-10.84,5.34-.73,0-1.5-.1-2.29-.34Zm1.13-3.62c3.65.11,5.71-3.16,8.53-4.84,4.07-2.02,8.93-3.39,13.44-3.3,1.93-.11,4.01-.26,5.51-1.45,4.63-3.49,2.9-10.2,1.34-14.88-2.17-3.4-3.26-7.71-6.38-10.34-6.55-6.04-18.19-7.68-23.44.8-2.55,3.92-3.04,8.71-2.32,13.23.16,2.3.39,5.91-1.62,7.4.06,1.6-1.58,2.86-2.08,4.37-.54.88-.51,1.95.12,2.68,1.17,1.71,2.18,3.1,3.58,4.42h0c.99.75,2.02,1.82,3.33,1.9Z"/>
    <path d="m849.16,733.15h0,0Z"/>
    <path d="m849.19,733.16h0s0,.01,0,0Z"/>
    <path d="m858.3,710.76c-4.35-.58-2.93-6.66,1.19-5.87,4.24,1.05,3.73,5.96-.2,5.96-.31,0-.64-.04-.99-.1Z"/>
    <path d="m867.8,721.13c-3.51-2.87,2.33-7.93,4.01-3.18.33,1.82-.86,3.73-2.48,3.73-.48,0-1-.17-1.53-.55Z"/>
    <path d="m845.5,730.88c-.8-1.5,1.32-4.64,2.97-3.12,1.15,1.21-.25,2.36-1.27,3.02-.14.35-.48.52-.83.52-.33,0-.67-.15-.88-.42Z"/>
    <path d="m849.82,733.35c-1.33-.81-.23-2.57,1.05-2.61,2.23.27,1.34,2.81-.27,2.81-.25,0-.52-.07-.79-.2Z"/>
    <path d="m521.35,717.3c-1.2-.22-2.62-.79-2.96-2.05-.24-.88-.86-1.6-.61-2.48-1-.65-.58-2.33-1.26-3.27-1.45-2.99-4.99-3.7-6.85-6.31-5.2-8.28,6.95-12.85,12.84-15.55,5.21-1.49,10.8-1.86,15.98-.09,7.39,3.32,5.23,13.91-.61,17.73-2.29,2.09-.98,5.47-1.43,8.15-1.25,2.97-4.89,3.68-7.77,3.96-1.49.04-3.01.25-4.54.25-.94,0-1.88-.09-2.8-.34Zm5.31-1.99c.92.02,1.87.04,2.78-.19,1.51-.64,3.29-1.05,4.35-2.43-.03-2.95.1-5.79,1.74-8.19,2.44-2.02,4.09-4.05,5.18-7,1.2-10.83-13.74-10.78-20.57-7.23-4.02,2.24-11.79,5.3-9.05,11.11,1.05,1.98,3.15,2.69,4.78,4.04,1.86,1.62,3.59,4.12,2.96,6.7.46,0,.74.41.94.77,1.07,2.69,3.46,2.44,5.93,2.41.09,0,.18,0,.27,0,.22,0,.45,0,.68.02Z"/>
    <path d="m524.39,714.66c-.25-.57-.37-1.2-.44-1.81-.19-1.25,1.69-1.63,2.03-.42.21.61.37,1.24.4,1.89.12.71-.46,1.13-1.02,1.13-.43,0-.86-.24-.96-.79Z"/>
    <path d="m528.31,715.15c-2.47-2.8,2.54-4.23,1.64-.73.22.65-.35,1.16-.9,1.16-.28,0-.57-.13-.74-.43Z"/>
    <path d="m519.31,703.8c-3.87-1.38-2.36-7.18,1.83-5.65,2.99,1.21,1.95,5.8-.92,5.8-.28,0-.59-.05-.91-.15Z"/>
    <path d="m529.77,701.79c-2.56-1.82-1.05-6.36,2.22-5.57,3.45,1.31,2.68,6.23-.23,6.23-.58,0-1.25-.2-1.99-.66Z"/>
    <path d="m634.48,664.64c-1.23-.68-2.09-2.3-1.2-3.57.05-1.83.1-3.8,1.97-4.68,1.72-1.21,5.16-1.29,4.97,1.55.77.58,1.76,1.37,1.86,2.38-.06,1.68-.87,3.4-2.53,4.02-.7.27-1.49.25-2.19.59-.34.25-.72.35-1.11.35-.62,0-1.26-.27-1.77-.63Z"/>
    <path d="m678.05,660.48s-.02-.05-.03-.07c-.14-.08-.27-.18-.39-.29-.17-.16-.3-.35-.4-.56-2.9.13-2.43-3.7-1.25-5.34.81-1.52,3.25-2.96,4.78-1.65.82.89.63,2.1.6,3.19.05.1.09.2.12.3,2.68,1.18,2.19,5.61-.81,5.51-.23.11-.48.16-.72.16-.79,0-1.56-.52-1.89-1.25Z"/>
    <path d="m642.32,663.75c-.88-.48-1.06-1.54-.7-2.41.01-.61-.4-1.14-.55-1.71-1.26-2.04-4.11-1.66-4.47.79.1,1.73-1,4.16-3.01,2.9-1.51-1.49-1.26-4.04-.31-5.77,1.95-3.79,8.49-4.81,10.91-.99,1.43,1.71,1.89,7.35-.98,7.35-.27,0-.56-.05-.89-.16Z"/>
    <path d="m655.11,718.51c-.66-.16-.41-1.18.25-1.02,1.51.2,3.02.88,4.54.79,2.01-.36,4.05-.51,6.06-.75,1.39-.47,2.82-.68,4.23-1.04.28-.07.57.07.66.35.16.83-1.04.76-1.57.94-3.41.86-6.76,1.33-10.25,1.55-1.32-.17-2.6-.61-3.91-.82Z"/>
    <path d="m656.97,674.83c-.02-.45.36-.88.82-.88s.86.35.88.83c.02.45-.36.88-.82.88s-.86-.35-.88-.82Z"/>
    <path d="m661.12,674.4c-.03-.71.56-1.38,1.29-1.38s1.36.55,1.38,1.29c.02.71-.57,1.38-1.29,1.38s-1.36-.55-1.38-1.29Z"/>
    <path d="m427.69,691.14c-6.46-1.8-13.7-7.46-12.32-14.91.63-2.38,1.82-6.73,5.1-5.49,3.8,1.9-.59,6.2,1.05,9.15,1.79,4.02,6.94,8.21,11.5,7.26,4.88-4.75,7.77-11.37,13.15-15.68,4.22-3.22,9.83-3.91,14.1-6.93,2.18-4.18-1.9-9.08-4.53-11.98-3.67-4.22-8.04-8.42-12.46-11.7-9.08-5.93-23.83-9.06-29.57,2.61l-.04.02c-1.06,8.97,7.02,15.17,5.44,23.8.18.85.15,2.1-1,2.12-.58,0-1.14-.51-1.1-1.11.15-1.34.15-2.79-.02-3.97-.66-3.01-2.84-5.43-4.59-7.82-2.58-3.23-3.41-7.32-3.98-11.31-.62-3.46,2.05-6.22,4.14-8.62,5.23-6.65,14.9-6.54,22.39-4.54,11.95,2.39,33.88,20.73,29.14,34-2.59,3.74-7.96,4.05-11.69,6.13-9.57,3.19-12.1,19.29-22.16,19.29-.8,0-1.66-.11-2.57-.33Z"/>
    <path d="m422.9,683.26c-2.09-.61-.39-3.16,0-4.49.62-1.53,2.98-.54,2.34,1-.63,1.13-.66,3.49-2.3,3.49h-.04Z"/>
    <path d="m426.85,687.13c0-.6.49-1.11,1.09-1.14.68-1.25,1.23-3.83,3.15-2.87,2.07,1.23-1.05,5.21-3,5.21-.56,0-1.03-.34-1.24-1.2Z"/>
    <path d="m426.93,658.1c-4.54-.39-3.6-7.57.32-8.29,3.19-.23,4.89,1.96,4.95,4.17.06,2.08-1.36,4.18-4.38,4.18-.27,0-.58-.03-.89-.05Z"/>
    <path d="m442.6,664.51c-3.14-1.07-3.99-5.39-2.04-7.94,2.47-3.27,7.22.04,6.06,3.61.87,2.16-.87,4.5-3.02,4.5-.32,0-.65-.05-1-.16Z"/>
    <path d="m948.8,920.58c-7.94-1.68-11.65-8.68-10.32-16.34.59-2.73-.41-8.37,2.8-9.34-3.57-4.65-6.39-10.07-9.23-15.1-2.18-2.73-3.62-6.04-3.28-9.59.45-5.43,3.93-9.92,7.33-13.92,2.67-2.91,6.71-3.78,10.28-5.08,7.18-1.67,14.56-3.9,21.8-1.41,11.49,3.06,27.46,8.99,26.39,23.4.17,5.74-1.13,11.89-5.19,16.16-5.67,5.96-15.07,7.52-20.1,14.01-5.47,10.8-3.41,17.5-15.51,17.5-1.44,0-3.07-.1-4.96-.29Zm1.33-66.69c-3.27.64-6.55,1.85-9.49,3.32-4.07,3.44-7.9,7.95-8.59,13.32-.29,2.93,1.32,5.27,3.03,7.45,2.4,3.42,4.15,7.53,6.03,11.16,3.66,5.41,1.38,11.85,1.98,17.9-.07,6.71,7.02,9.7,12.85,8.7l-.34.02c1.74-.24,3.96-.16,4.43-2.02,2.35-5.5,2.78-11.93,7.61-16,9.11-6.66,24.74-7.99,23.46-22.67,1.11-10.35-8.69-15.25-16.93-18.41-4.51-1.93-9.45-4.01-14.28-4.31-3.17.29-6.7,1.06-9.76,1.53Z"/>
    <path d="m947.51,914.04c-1.32-.59-.62-2.51-.61-3.66.56-1.55-.02-5.25,2.07-5.41,2.06.69.21,4.63.24,6.13-.34,1-.13,2.95-1.46,2.95-.08,0-.16,0-.25-.02Z"/>
    <path d="m951.91,914.84c-.03-.09-.04-.18-.04-.29-.02-.35.22-.67.53-.81.54-1.94-.42-6.18,2.38-6.31,2.46.56.64,3.74.34,5.19-.28,1.09-1.17,3.41-2.14,3.41-.35,0-.73-.33-1.08-1.18Z"/>
    <path d="m946.28,879.45c-2.33-.53-3.34-3.48-3.37-5.55.73-2.77,3.75-4.96,6.53-3.43,5.29,2.84,2.51,9-2.7,9-.15,0-.3,0-.46-.02Z"/>
    <path d="m968.62,883.83c-4.99-1.97-3.39-9.51,1.86-9.51,2.81-.03,5.66,3.17,4.89,5.96-.89,1.91-3.02,3.87-5.24,3.87-.51,0-1.01-.1-1.51-.32Z"/>
    <path d="m595.94,545.33c-.91-.12-.42-1.16-.11-1.65,1.34-2.01,4.49-3.84,6.74-2.27.49.3.05,1.06-.45.77-.13-.08-.26-.15-.37-.21-1.93-.93-5.15.9-5.8,2.8,0,0,0,0,0,0h0s0,0,0,0h0c.33.01.34.56-.02.56Z"/>
    <path d="m596.32,547.43c-.05,0-.11,0-.11,0-1.65-.13.02-2.14.64-2.64.62-.71,4.42-2.88,4.91-1.73.07.24-.08.54-.34.6-1.94.43-4.02,1.28-5.11,3.03.5-.04.51.77.02.75Z"/>
    <path d="m597.14,539.28c0-.16.08-.3.21-.4.98-.7,2.25-.78,3.4-1.03,1.1-.2,2.2-.4,3.3-.59.18-.03.35.11.37.29.02.18-.11.34-.28.37-2.13.46-4.46.46-6.43,1.41-.05.33-.56.29-.56-.04Z"/>
    <path d="m638.03,494.8c-.14-.04-.21-.18-.18-.31.52-1.71,1.45-3.29,1.52-5.1.17-2.83-1.01-5.54-2.17-8.04-1.14-2.16-2.28-4.51-4.06-6.18-.5-.66-2.14-1.12-1.62-2.11.21-.27.6-.31.87-.11,4.16,2.87,6.09,8.04,7.29,12.77.83,3.07-.21,6.08-1.34,8.9-.03.13-.18.21-.3.18Z"/>
    <path d="m639.09,485.44c-.34-3.01-.79-6.04-2.06-8.82-1.14-2.56-2.76-4.82-4.14-7.24-.25-.59.69-.96.9-.37,1.94,3.48,4.42,6.72,5.5,10.61.54,1.85.81,3.74.96,5.66.03.32-.17.61-.5.66-.31.04-.62-.18-.66-.5Z"/>
    <path d="m639.58,487.89c-1.39-4.6-4.26-10.26-9.74-10.25-.33,0-.62-.28-.62-.62,0-.32.28-.64.62-.62,4.55-.09,7.54,3.94,8.96,7.83.17.54,2.04,4.76.78,3.63,0,0,0,.02,0,.02Z"/>
    <path d="m734.66,551.18c-1.12-5.36.32-11.33,4.57-14.97.34-.35.89.19.54.53-3.88,3.33-5.62,8.68-4.73,13.67-.01.32.34.85-.09.98-.13.02-.26-.08-.28-.21Z"/>
    <path d="m735.32,548.22c-1.66-3.4-.33-12.98,3.58-14.62.34-.2.8-.08,1,.26.21.36.07.79-.26,1-3.08,1.42-5.16,10.15-3.72,13.01.23.38-.37.73-.59.35Z"/>
    <path d="m732.76,541.99c-.19-4.25.67-8.62,3.66-11.81.19-.23.54-.29.79-.1.23.18.29.55.1.79-1.4,1.66-2.63,3.48-3.32,5.55-.66,1.79-.76,3.68-.72,5.57,0,.32-.5.33-.5,0Z"/>
    <path d="m724.07,517.51c-1.97-.97,3.6-7.78,4.64-8.85,1.48-1.64,3.61-2.37,5.78-2.39.3-.02.56.24.6.52.04.32-.19.64-.52.68-2.6.12-4.82,1.45-6.37,3.49-1.39,1.79-2.95,3.64-3.69,5.79.34.31-.01.9-.45.76Z"/>
    <path d="m725.96,514.11c.67-2.69,3.49-4.53,6.01-5.35.19-.08.43,0,.51.21.08.19,0,.44-.21.51-2.25.72-4.35,1.96-5.62,3.97-.12.23-.19.42-.19.66,0,.32-.5.32-.5,0Z"/>
    <path d="m742.49,437.92c-.49-.53.7-1.24.93-1.73,1.53-1.92,2.72-4.11,3.28-6.5.14-.34.06-1,.54-1.02.26,0,.34.37.11.47,0,0,0,0,0,0,0,0,0,0,0,0,0,0,0,0,0,0-.69,3.21-2.27,6.19-4.35,8.72-.12.16-.35.19-.51.07Z"/>
    <path d="m743.14,436.76c-.25-.19-.26-.55-.05-.77.8-.84,1.57-1.7,2.34-2.56.6-.47,1.34-2.04,2.21-1.5.48.21.03.89-.36.52-1.27,1.3-2.2,2.88-3.42,4.22-.17.22-.5.27-.72.09Z"/>
    <path d="m789.76,627.35c-1.08-3.05.75-6.48,2.97-8.54.74-.6,2.29-2.1,3.04-.85.29.69-.36,1.1-.93,1.28-1.31.73-2.32,1.75-3.25,2.87-.94,1.38-2.3,3.51-1.27,5.1.3.04.27.5-.03.5-.21,0-.44-.19-.53-.37Z"/>
    <path d="m789.85,624.06c-.6.08-.82-.52-.74-1.03.76-2.88,3.21-5.44,5.88-6.69.47-.12.99-.38,1.45-.12.65.36.51,1.38-.21,1.57-.76.21-1.35.54-1.99.94,0,0,0,0,0,0,0,0,.02-.01.02-.02-1.74,1.24-3.58,2.56-4.36,4.58,0,0,0,0,0,0,.45.06.4.78-.06.76Z"/>
    <path d="m790.61,624.46c-.27-1.76,1.33-3.02,2.72-3.75.64-.24,1.55-1.3,2.14-.51.16.28.07.68-.22.84-.75.41-1.64.87-2.32,1.31-.62.41-1.08.89-1.32,1.58-.03.13-.04.21-.02.31.18.67-.89.9-.99.2Z"/>
    <path d="m788.55,618.15c.43-2.74,3.12-4.63,5.46-5.75.73-.2,1.88-1.17,2.41-.24.14.33-.02.76-.36.89-1.3.49-2.58,1.02-3.73,1.8-1.11.79-2.38,1.73-2.79,3.08.11.75-.89,1.02-.99.22Z"/>
    <path d="m805.07,530.43c-.25-.2-.29-.56-.11-.82,1.76-2.34,4.06-4.75,4.06-7.86-.23-.22-.16-.8.05-1.02.31-.22.54.16.56.45.58,3.51-1.75,6.52-3.74,9.15-.19.26-.57.3-.82.11Z"/>
    <path d="m807.12,521.08c-.2-.12-.28-.39-.15-.59.52-.7.88-1.85,1.84-2.01.65-.07.66.94,0,.89-.6.36-.9,2-1.7,1.7Z"/>
    <path d="m805.7,522.92c-.78-.74,1.04-1.8,1.39-2.45.49-.53.87-1.07,1.43-1.51.12-.09.28-.02.39.06.51.23.21.86-.23.46-.72,1.12-1.42,2.26-2.2,3.34-.17.25-.55.28-.78.1Z"/>
    <path d="m790.77,489.57c-.6-.51-1.24-.92-1.91-1.32-.82-.19-1.67-.21-2.47-.48-2.11-.7-3.98-1.96-6.16-2.44-1.14-.38-5.54.3-5.2-1.45-.01-.37.51-.52.7-.2,3.88-1.74,7.05-.47,10.48,1.57,1.04.55,2.09.73,3.16,1.08.73.34,1.22,1.01,1.84,1.5.4.43,1,1.1.46,1.64-.23.23-.63.3-.91.12Z"/>
    <path d="m805.38,523.57c-.75-1.03,1.08-1.64,1.53-2.39.52-.6,1.02-1.31,1.18-2.08.03-.16.09-.32.27-.36,1.58.09-1.76,6.23-2.98,4.84Z"/>
    <path d="m805.78,529.93c-.17-.22-.12-.53.09-.7.85-.69,1.58-1.42,2.22-2.27.69-.87,1.25-1.87,1.8-2.81.02-.11.12-.2.25-.2.68.17-.32,1.09-.4,1.48-.41.91-2.82,5.47-3.96,4.5Z"/>
    <path d="m819.42,485.01c0-.06,0-.13.01-.18-1.82-3.45-2.48-7.43.61-10.39.7-.74,1.45-1.44,2.29-2.02.25-.17.57-.17.8.05.2.21.24.57.05.8-.49.58-1,1.13-1.49,1.68-1.42,1.55-2.57,3.57-2.27,5.68-.07,1.51,1.05,3.24.85,4.57-.21.36-.8.24-.86-.18Z"/>
    <path d="m819.12,482.76c-2.2-2.92-2.6-6.96-1.89-10.46.44-1.68,1.91-2.82,3.14-3.94.41-.33.99.24.65.65-.87,1.2-2.25,2.11-2.61,3.6-.45,3.29-.17,6.73,1.16,9.77.25.05.28.48.06.6-.2.11-.38-.08-.51-.21Z"/>
    <path d="m820.25,483.01c-.54-1.76-.74-3.8.07-5.51.35-.54.9-1.68,1.68-1.17.29.23.33.64.12.93-1.28,1.56-1.82,3.73-1.37,5.65.22.12.12.47-.13.46-.21,0-.3-.2-.38-.36Z"/>
    <path d="m775.72,356.94c-.29-.04-.49-.31-.45-.59.19-1.37.37-2.69.32-4.02-.24-2.41-.97-4.75-1.31-7.15-.26-1.42-1.12-2.77-2.31-3.54-.11-.06-.25-.1-.36-.16-.2-.15-.06-.48.19-.45,3.13,1.08,3.77,4.43,4.32,7.3.76,2.68.89,5.52.19,8.22-.06.25-.33.41-.57.38Z"/>
    <path d="m777.46,355.05c-.4-.05-.68-.43-.63-.82.33-2.02.57-4.08.43-6.13-.06-1-.26-2-.6-2.94-.14-.41.5-.64.66-.24.92,1.2,2.28,10.21.14,10.13Z"/>
    <path d="m779.91,352c-.02-1.18.21-2.45-.07-3.57,0-.07.03-.14.09-.2.75-.58.9,3.18,1,3.7.09.69-1,.77-1.01.07Z"/>
    <path d="m545.47,488.51c-.27-.11-.1-.39-.08-.59-.85.43-1.38-.47-1.24-1.24-.02-2.83.48-5.62.78-8.43.23-3.78-.14-7.58.24-11.35,0,0,0,0,0,0,.2-.88,1.57-.89,1.79,0,.12,1.74.37,3.38.57,5.1.32,5.13.58,10.16-1.12,15.05-.22.42-.38,1.51-.93,1.46Z"/>
    <path d="m545.22,486.64c-.11-1.89-.05-3.83-.3-5.7-.05-.29-.1-.66.2-.84,1.17-.58.84,2.73,1.06,3.44.08,1.03.2,2.07.19,3.1-.02.29-.3.5-.58.5s-.54-.22-.58-.5Z"/>
    <path d="m530.2,533.73s-.03.08-.04.13c1.34-2.69,1.38-5.94,1.21-8.9-.06-2.27-.19-4.53-.91-6.65-.44-.59.42-1.3.89-.71.78,1.23.95,2.74,1.25,4.14.47,3.89.86,8.08-1.04,11.68-.27.35-.42.95-.92,1.01-.37,0-.58-.38-.45-.69Z"/>
    <path d="m532.88,524.56c-.25-2.42-.42-4.91-1.3-7.19-.52-1.49-1.27-2.92-1.62-4.46-.1-.65.98-.66.88,0,.5,2.17,1.83,4,2.46,6.13.22,1.03,1.33,5.7.07,5.94-.25,0-.45-.18-.49-.42Z"/>
    <path d="m534.78,519.29c-.39-1.2-.76-2.4-1.14-3.6-.09-.27.1-.58.37-.65.28-.07.57.09.65.37.33,1.21.71,2.42,1.01,3.64.15.57-.72.82-.89.24Z"/>
    <path d="m542.03,418.39c-1.9-.59-3.43-2.03-4.63-3.55-2.13-1.95-3.1-4.84-2.63-7.68.23-.41.68.09.45.38-.28,4.38,3.72,7.86,7.39,9.47.88.37.31,1.76-.58,1.37Z"/>
    <path d="m537.98,411.48c-1.92-1.67-3.15-4.33-3.07-6.88.04-.13.14-.22.28-.22.21,0,.32.25.2.41-.04,1.98,1.35,3.71,2.54,5.14.32.43,1.23.83.81,1.45-.18.24-.53.28-.76.1Z"/>
    <path d="m535.35,415.66c-.54-.52-3.47-3.76-1.99-4.09.22,0,.44.19.45.42.27.72.76,1.36,1.22,1.95.31.37.65.71,1.01,1.03.45.43-.24,1.14-.69.69Z"/>
    <path d="m543.69,555.12c-2.64-2.02-4.17-5.31-3.64-8.62,0-.27.11-.52.37-.61.52-.31.73.33.15.49,0,0,0,0,0,0,0,0,0,0,0,0,0,0,0,.02,0,.02,0,0,0-.01,0-.02,0,0,0,0,0,0-.32,3.13,1.6,5.82,4,7.61.74.55-.14,1.71-.87,1.13Z"/>
    <path d="m540.17,554.76c-1.06-1.04-1.26-2.6-1.89-3.89-.21-.29.3-.61.44-.26.47,1.23,1.13,2.5,2.17,3.34.59.46-.18,1.35-.71.82Z"/>
    <path d="m546.27,641.32c.2-4.15-.7-8.26-2.67-11.88-.23-.39-.1-.93.3-1.15,1.76-.91,2.44,4.44,2.77,5.59.55,2.46.04,4.97.09,7.44,0,.32-.5.33-.5,0Z"/>
    <path d="m547.24,631.33c-.3-1.69-.96-3.24-1.57-4.82-.09-.22.01-.48.23-.57.21-.09.48.01.57.23.68,1.66,1.27,3.37,1.63,5.12.07.6-.88.64-.85.04Z"/>
    <path d="m546.96,628.37c-.44-1.32-1.13-2.37-1.85-3.52-.17-.27-.09-.64.16-.84,1.28-.74,2.43,2.95,2.96,3.82.36.81-.95,1.37-1.27.54Z"/>
    <path d="m535.72,572.47c-.14-.02-.26-.15-.31-.27-.24-1.28.08-2.64.09-3.93.37-6.19.46-12.58,2.09-18.6,1.6-5.05,5.06-9.27,9.66-11.88,1.66-1.5,3.62-1.99,5.79-2.09.58-.05,1.19-.14,1.77-.06.39.05.69.4.69.79-.02.89-1.02.83-1.66.91-1.15.23-2.37.22-3.48.59-.91.31-1.61,1.03-2.45,1.48-4.21,2.17-7.11,5.9-8.55,10.35-1.29,5.02-1.94,10.24-2.37,15.39-.28,2.26-1.24,4.55-1.12,6.81,0,0,0,0,0,0,.24.12.16.52-.13.49Z"/>
    <path d="m770.26,900.11c0-.13.06-.25.15-.32-1.67-3.51-2.17-7.39-3.36-11.06-.59-1.62-1.27-3.19-1.77-4.84-1.14-3.25-1.31-6.81-3.16-9.74-.39-.87.89-1.64,1.45-.85,2.12,2.69,2.37,6.15,3.3,9.3,2.08,5.45,2.89,11.19,4.4,16.79.08.29.21.67,0,.94-.27.35-1.01.32-1.02-.21Z"/>
    <path d="m771.41,902.4c-1.11-1.94-1.09-4.36-1.78-6.45-1.99-5.31-2.19-10.89-4.63-15.99-1.22-1.95-1.81-4.19-3.15-6.03-.49-.74-.97-1.5-1.05-2.39-.01-.49.58-.9,1.01-.64,1.17-.27,1.57,1.11,2.11,1.86.99,1.89,2.06,3.63,3.32,5.35,1.61,3.38,2.64,7.01,3.54,10.64.56,1.6,6.59,14.17,2.65,13.13-.24.87-1.38,1.16-2.02.52Z"/>
    <path d="m781.63,883.74c-.17-.05-.29-.25-.2-.42,2.92-1.92,5.76-4.97,5.84-8.85,0-.32.5-.33.5,0-.21,3.83-2.71,7.66-6.14,9.27Z"/>
    <path d="m784.18,881.64c-.32-.3-.23-.82.08-1.08,1.46-1.79,2.25-4.09,2.92-6.24.03-.22.1-.45.04-.67-.23-.22-.03-.63.29-.58,1.45.46-1.5,10.31-3.32,8.57Z"/>
    <path d="m781.92,878.4c0-.12.09-.23.21-.25,1.3-.83,2.13-2.32,2.73-3.72,1.98-1.18-2.5,5.58-2.94,3.97Z"/>
    <path d="m783.67,876.78c-.38-.05-.17-.73.13-.75.37-.38.5-1.61,1.17-1.4.16.09.22.31.12.47-.36.58-.75,1.11-1.19,1.62-.06.06-.15.07-.23.07Z"/>
    <path d="m781.42,879.45c-.84-.87.9-1.8,1.26-2.58,1.06-1.23,1.81-2.85,2.84-4.01.21,0,.32.24.21.41-.55,1.02-1.02,2.09-1.59,3.1-.58.74-1.57,3.81-2.72,3.08Z"/>
    <path d="m535.04,879.6c-1.96-.43-3.23-2.12-4.37-3.64-.72-1.11-1.73-2.16-2.16-3.41.03-.43.49-.38.55.04,1.78,2.09,3.33,4.74,5.97,5.75.96.05,1.05,1.38.01,1.25Z"/>
    <path d="m535.2,879.09c-.65-.73-5.29-5.13-3.62-5.73.26-.02.48.22.41.49,1,1.78,2.58,3.05,4.03,4.42.54.52-.29,1.36-.82.82Z"/>
    <path d="m582.13,816.28c-.2-.05-.3-.26-.26-.45.89-4.41,2.18-8.72,3.68-12.96,2.79-9.14,9.04-16.79,15.97-23.17.13-.37.48-.44.56-.06-.04.31-.32.54-.52.75-5.76,5.17-10.87,11.52-13.71,18.79-1.53,4.18-2.88,8.43-4.12,12.7-.37,1.39-.75,2.76-1.14,4.14-.05.2-.26.31-.45.26Z"/>
    <path d="m580.48,809.77c-.23-.07-.38-.32-.31-.55,1.01-3.58,1.97-7.35,4.15-10.41.22-.26.48-.49.8-.62.65-.28,1.03.77.36.97-.37.17-.56.52-.79.83-1.3,2.16-2.1,4.57-2.87,6.95-.27.84-.54,1.68-.79,2.52-.07.23-.32.38-.55.31Z"/>
    <path d="m745.21,805.68c-1.38-3.47-2.78-6.99-4.74-10.16-.04-.25.31-.39.45-.18.47.4,7.13,12.39,4.29,10.33Z"/>
    <path d="m740.95,964.59c-.25-.14-.32-.45-.18-.7,1.09-1.99,2.16-3.99,3.22-5.99,1.45-2.81,2.88-5.65,4.17-8.53.47-1.21,1.29-2.45,1.24-3.78-.02-.24.13-.47.38-.5,2.12.03-3.47,10.8-4.01,12.13-.74,1.49-1.47,2.88-2.31,4.31-.57.98-1.18,1.94-1.81,2.88-.15.23-.45.33-.7.18Z"/>
    <path d="m574.19,1065.75c-1.18-1.91-1.37-4.59-1.93-6.75-.31-2.54-1.19-5.3-.54-7.82,1.46-1.57,2.9,1.4,3.27,2.6.24.65,2.06,7.91.47,6.97-.29-.18-.37-.7.09-.62-.4-2.75-.66-5.76-2.36-8.04-.18-.18-.39-.41-.65-.42-.33,4.45.69,9.1,1.86,13.39.5.04.22.92-.21.69Z"/>
    <path d="m773.47,1062.12c-.78-2.17.17-4.65.76-6.78.12-.45.82-.26.7.19-.47,1.79-.99,3.6-1,5.45.77-2.64,2.51-6.69.35-9-1.29-.64-2.29,1.43-2.66,2.4-.87,2.18-1.04,4.53-1.25,6.84-.01.14-.16.25-.3.23-.15-.02-.24-.16-.23-.3.43-3.29.33-7.76,3.43-9.75,3.76-.72,2.36,6.46,1.66,8.45-.27.57-.51,3.07-1.46,2.27Z"/>
    <path d="m742.09,1131.78c-.38-.21-1.45-.24-1.37-.78.05-.12.2-.19.33-.13.38.18.78.3,1.18.42.32.09.18.58-.13.49Z"/>
    <path d="m573.97,1139.24c.04-.55.77-.57,1.18-.72.4-.11.57.51.17.62-.26.07-.53.11-.77.22-.12.3-.59.2-.58-.12Z"/>
    <path d="m676.53,1108.18c-.15-.19-.1-.51.12-.63.13-.07.27-.13.4-.2.06-.1.17-.17.3-.17.19,0,.35.16.35.35v-.03c.05.45-.81,1.14-1.17.68Z"/>
    <path d="m670.59,1112.43c-.65-2.07,4.16-2.09,5.47-2.42,1.34-.16,1.62,1.85.28,2.06-1.44.22-2.9.39-4.3.8-.51.34-1.2.12-1.46-.44Z"/>
    <path d="m750.2,941.35c-.11-.07-.16-.22-.09-.34.38-.62.76-1.24,1.16-1.84.34-.53,1.78-2.59,2.34-1.58,0,.13-.12.25-.25.25-.73.02-1.11.91-1.53,1.39-.45.66-.88,1.34-1.29,2.03-.07.12-.23.16-.34.09Z"/>
    <path d="m608.07,316.01c.16-1.52,1.6-2.73,2.35-4.02,4.27-7.34,10.15-13.65,16.23-19.53,3-2.49,5.54-5.14,8.92-7.04,1.63-.91,3.11-2.45,5.05-2.56,1.24-.03,1.83,1.67.82,2.41-1.01.66-1.94,1.41-2.89,2.14-5.49,3.38-10.2,7.8-14.83,12.25-5.43,4.9-10.54,10.25-14.87,16.12.28.61-.72.87-.77.19,0,0,0,.04,0,.04Z"/>
    <path d="m612.39,309.41c-2.02-1.04.86-3.61,1.55-4.75,1.1-1.73,2.29-3.42,3.74-4.87,3.66-4.12,7.31-8.36,11.8-11.52,2.25-2.16,4.96-3.69,7.59-5.33,1.35-.78,2.88-1.66,4.47-1.61.3,0,.7,0,.71.39,0,.24-.24.42-.44.38-1.98.19-3.46,1.92-4.91,3.11-3.04,2.29-5.43,5.31-8.38,7.66-2.74,2.68-5.22,5.47-7.83,8.21-2.33,2.6-5.11,4.83-7.13,7.69-.17.47-.68.78-1.17.63Z"/>
    <path d="m611.46,310.59c-2.42-1.44,4.84-9.33,6.1-10.75,1.94-2.65,4.28-4.86,6.67-7.08,1.4-1.62,3.01-3.01,4.73-4.28,3.77-3.21,7.79-6.32,12.53-7.93,1.02-.31,1.76,1.13.88,1.77-.23.17-.49.3-.74.43-5.12,2.67-9.62,6.27-14.13,9.83-2.58,2.7-5.75,4.75-8,7.72-2.43,2.72-5.25,5.11-7.28,8.17-.28.47-.6.9-.59,1.44,0,0,0,0,0,0,.39.13.23.73-.18.67Z"/>
    <path d="m612.75,307.41c-1.24-1.24.88-2.68,1.52-3.7,2.79-3.28,5.32-6.52,8.42-9.48-.01.01-.02.03-.04.04,1.13-1.31,2.27-2.9,3.52-4.04,2.24-1.66,4.07-3.48,6.19-5.18,1.59-1.5,3.62-2.4,5.41-3.63.99-.53,2.49-1.95,3.53-.91.19-.09.38-.16.57-.23.3-.11.5.35.2.46-.2.08-.4.15-.59.24.05.5-.31.9-.76,1.07-1.95,1.08-3.76,2.35-5.65,3.47-2.53,1.94-4.57,4.44-7.15,6.34-1.79,1.75-3.01,4.01-4.96,5.62-2.85,2.69-5.19,5.68-7.76,8.59-.63.68-1.37,2.1-2.45,1.35Z"/>
    <path d="m617.3,305.47c-1.48-1.02.3-2.47.89-3.49,1.65-2.55,4.29-4.22,6.44-6.31,6.33-5.36,13.54-9.41,21.09-12.77.07-.25.49-.22.49.07-.03.34-.43.45-.64.67-5.95,4.17-12.26,7.81-17.78,12.53-2.28,1.67-4.35,3.71-6.38,5.59-1.13,1.02-2.33,4.55-4.11,3.71Z"/>
    <path d="m601.38,337.92c-.5-.15.02-1.14.07-1.48,1.56-4.09,3.94-7.81,6-11.66,6.43-10.55,14.42-19.84,24.14-27.5.74-.57,1.48-1.14,2.21-1.73,1.31-.13-.84,1.27-1.56,1.85-7.06,5.42-13.13,11.96-18.6,18.93-4.63,6.82-9.34,14.08-12.28,21.59Z"/>
    <path d="m620.39,308c-.16-.15-.15-.41,0-.55,2.94-3.46,6.45-6.28,9.95-9.13.73-.52,4.19-4.58,4.8-3.44,0,.12-.09.23-.21.25-.69.25-1.3.79-1.85,1.26-2.43,2.5-5.12,4.74-7.68,7.1-1.49,1.49-2.89,3.08-4.44,4.52-.16.15-.4.16-.56,0Z"/>
    <path d="m624.73,306.82c-.7-.3,4.65-6.06,3.95-4.04-1.17.94-2.17,2.03-3.06,3.23-.27.24-.44,1.02-.89.8Z"/>
    <path d="m594.11,353.22c.15-2.82,1.87-5.27,3.01-7.74.24-.49.45-.91.7-1.38.07-.14.25-.19.39-.13.15.06.24.25.17.41-1.06,2.23-2.52,4.29-3.32,6.64-.24.71-.47,1.45-.45,2.19,0,.32-.5.33-.5,0Z"/>
    <path d="m603.46,332.64c-.17-.1-.23-.32-.13-.49,1.25-3.28,3.18-6.13,5.09-9.04,1.28-2.59,2.96-4.9,4.57-7.28,2.17-3.37,4.61-6.33,7.42-9.14,3.97-5.11,8.78-9.32,14.53-12.3.3-.14.72.21.54.48-.1.13-.3.12-.4,0-4.61,3.29-8.64,7.41-12.63,11.4-1.3,1.59-2.75,3.04-4.23,4.47-1.83,2.49-3.61,5.04-5.35,7.54-1.41,1.43-2.37,2.98-3.38,4.67-1.01,1.79-2.4,3.35-3.43,5.11-.78,1.44-1.33,2.99-2.1,4.43-.1.17-.32.23-.49.13Z"/>
    <path d="m610.67,326.98c-.11-.09-.12-.24-.05-.35.88-1.3,1.87-2.58,2.78-3.86,1.99-3.34,4.02-6.63,6.29-9.79,2.74-4.28,5.66-8.7,9.77-11.76.61-.3,1.63-1.58,2.26-1.01.14.18.12.44-.04.6-.59.57-1.21,1.09-1.84,1.61-3.03,2.5-5.51,5.61-7.92,8.69-1.51,2.52-3.48,4.71-5.21,7.06-1.66,3.08-3.63,5.95-5.7,8.76-.08.11-.25.13-.35.05Z"/>
    <path d="m593.97,352.68c-3.43-1.15,3.62-8.99,4.7-10.72.44-.64,1.32.12.56.48-1.25,2.24-2.56,4.47-3.4,6.89-.53,1.1-.15,3.44-1.86,3.35Z"/>
    <path d="m593.17,383.52c-.04-.71.54-1.24.99-1.71,1.4-1.39,3.33-2.12,5.28-2.3.84.03,3.03,0,2.86,1.23-.09.35-.49.57-.84.47-2.17-.56-4.64-.38-6.51.83-.43.3-.87.66-1.17,1.08-.06.11-.11.25-.1.39,0,.33-.51.33-.51,0Z"/>
    <path d="m592.37,380.24c-.13-1.15,5.66-3.3,5.94-2.06.03.24-.14.47-.38.5-1.65.14-3.36.53-4.71,1.53.13.65-.93.69-.85.03Z"/>
    <path d="m698.03,405.92c-1.76-.28-2.95-1.7-4.21-2.81-.28-.25.16-.64.39-.32,3.04,3.03,5.7,2.11,9.21.63.29-.1.62.09.74.36.32,1.59-4.94,2.42-6.13,2.15Z"/>
    <path d="m698.94,408.14c-1.72-.11-3.38-.73-4.89-1.55-.14-.09-.2-.27-.11-.42.08-.14.28-.2.42-.11,1.17.72,2.63.96,3.95,1.1,1.27.13,2.54-.12,3.73-.56.21-.07.45.06.54.26.3,1.04-2.91,1.36-3.63,1.28Z"/>
    <path d="m708.66,365.58c-.04-1.51-1.75-2.77-2.93-3.54-1.63-.69-3.43-.19-5.05.28-.94.3-1.83.7-2.73,1.1-.5.24-.94-.51-.48-.83,3.57-2.68,9.2-4.24,11.24,1,.27.63.47,1.31.45,1.99,0,.14-.11.25-.25.25s-.25-.11-.25-.25Z"/>
    <path d="m697.42,359.29c-1.57-2.08,8.99-2.32,9.28-1.09-.02.16-.17.27-.33.25-.54-.06-1.07-.12-1.61-.18-2.12-.23-4.36-.17-6.34.66-.35.2-.53.67-1,.36Z"/>
    <path d="m707.06,359.3c-.22-.26-.44-.53-.67-.78-.27-.13-.48-.56-.05-.62.45.21.84.62,1.23.95.14.12.13.36,0,.48-.14.15-.38.12-.51-.03Z"/>
    <path d="m600.57,419.43c-1.96-.16-3.91-.8-5.59-1.8-.22-.17-.56-.34-.59-.64,0-.29.42-.41.54-.14,2.28.99,5.11,1.68,7.48.76.35-.14.77.02.91.37.33,1.28-1.89,1.4-2.75,1.45Z"/>
    <path d="m601.44,421.47c-.09-1,1.09-.86,1.77-.89.4,0,1.06-.17,1.16.38-.05.76-1.39.89-1.98,1.13-.42.11-.88-.17-.95-.62Z"/>
    <path d="m700.69,686.71c-.31-.37-1.13-.4-1.07-.92.23-.79,1.15-.06,1.58.18.54.32,0,1.12-.5.75Z"/>
    <path d="m616.33,688.88c-.63-.69,1.5-2.03,2.04-2.37.66-.37,1.17.67.49.97-.15.07-.33.18-.43.25-.66.28-1.35,1.67-2.09,1.15Z"/>
    <path d="m615.8,687.02c-.75-.59.48-1.98,1.16-1.29.62.61-.49,1.8-1.16,1.29Z"/>
    <path d="m702.22,683.57c0-.3.26-.56.56-.56s.56.26.56.56-.26.56-.56.56-.56-.26-.56-.56Z"/>
    <path d="m679.91,666.82c-.5-.19-1.98-.56-1.55-1.3.16-.16.4-.13.54.04.32.34.78.4,1.21.54.47.12.26.87-.2.73Z"/>
    <path d="m643.38,667.5c-.28-.37.41-.61.52-.9.02-.31.5-.29.5.02-.04.38-.41.63-.66.88-.1.09-.25.1-.35,0Z"/>
  </g>
</svg>