<?xml version="1.0" encoding="UTF-8"?>
<svg xmlns="http://www.w3.org/2000/svg" viewBox="0 0 967.98 847.35">
  <g id="Layer_group" data-name="Layer group">
    <g id="Vector_layer" data-name="Vector layer">
      <path d="m535.76,845.49c-5.13-.17-9.59-2.96-12.72-6.92-8.96-11.55,4.65-24.22,16.51-24.49,0,0,0,0,0,0,.74-5.57-1.11-11.17-1.67-16.71-1.39-14.84-4.26-29.27-4.33-44.12.62-19.28,6.14-38.06,10.08-56.84,2.53-9.71,7.06-19.2,12.98-27.27,1.21-1.83,5.51-4.39,6.14-.93,0,.99-.93,1.8-1.92,1.65-3.47,2.98-5.13,7.42-7.17,11.28-6.07,10.89-8.1,23.31-10.41,35.3-1.65,10.81-4.05,21.76-3.86,32.73.99,17.01,3.76,33.52,6.62,50.24,1.16,6.88,4.01,14.95-.91,20.86-2.6,2.6-6.66,1.94-9.74,3.64-2.76,1.6-6.88,4.18-5.91,7.9,4.91,10.91,26.39-.43,34.7-2.55,6.84-1.64,13.98-2.06,20.64-4.53-6.24-5.35-17.73-1.89-22.33-10.07-6.54-12.91-8.7-27.5-7.84-41.87.39-12.22.7-24.44,1.72-36.63.63-5.68,12.32-58.73,19.93-50.7.81,1.04.51,2.59-.59,3.31-4.27,5.04-4.98,11.87-6.85,17.97-7.24,22.8-3.56,46.67-3,70.09.48,10.99,2.28,22.47,7.2,32.31,5.63,2.21,11.96,3.07,16.83,6.93,3.33,3.04,6.32,8.12,4.67,12.68-3.17,6.8-18.58,7.95-25.38,9.58-10.87,3.29-21.78,8.1-33.4,7.17Z"/>
      <path d="m694.49,847.07c-13.33-.21-38.98-6.29-27.78-24.41,7.41-10.96,20.9-18.82,34.33-17.4,3.9-12.92,4.57-26.01,5.63-39.32.7-11.65,2.86-23.34,1.26-34.91-1.3-4.79-1.9-9.69-2.6-14.58-2.84-10.49-6.1-20.92-12.77-29.61-2.12-3.66,3.37-7.01,5.65-3.3,7.32,10.92,11.6,23.67,13.23,36.65.63,5.69,2.82,11.17,2.55,16.96-.04,5.27-.34,10.82-.71,16.03-1.52,17.53-1.6,34.46-4.75,51.61-.93,5.33-2.34,9.7-8.8,8.26-7.06-.31-13.43,2.9-18.53,7.58-2.46,2.61-6.06,5.6-6.07,9.41,16.57,7.41,36.21,6.64,53.83,3.54,7.86-1.6,16.45-.53,23.52-4.9-1.28-4.43-2.8-10-7.12-12.34-5.61-4.25-24.07.45-21.08-10.36,4.6-14.34,11.13-28.15,14.62-42.79,1.45-7.67,1.4-15.52,1.14-23.29.17-14.41-2.37-28.51-7.03-42.12-4.17-12.65-11.54-23.99-20.27-33.9-.53-.61-1.17-1.19-1.17-2.05,0-1.05,1.66-1.01,1.59.06,6.18,7.65,13.42,14.31,18.93,22.49,6.09,9.41,10.02,20.17,13.06,30.9,2.11,8.71,2.24,17.37,2.8,26.23,2.54,23.31-8.28,43.97-16.61,64.93,6.99.82,14.42.55,20.36,4.91,5.1,4.33,8.06,11.38,8.78,17.94-1.07,9.87-18.86,10.04-26.36,11.82-13,3.19-26.05,7.38-39.61,5.98Z"/>
      <path d="m640.79,816.6c-10.61-.93-32.36,2.08-38.41-7.89-2.63-3.3-1.43-8.05,2.26-9.96,6.95-3.12,6.33-.17,9.19-8.45.62-1.37-.03-2.87.22-4.34.71-4.46.43-8.94.06-13.44.03-8.31.26-16.75.77-25,1.35-10.99,1.03-22.18,3.2-32.98.62-1.81.84-3.51.87-5.36.08-1.02,1.65-.81,1.57.21-1.6,8.83-1.23,17.74-1.15,26.7-.45,11.3-.25,22.6.22,33.89,1.03,5.82,1.6,11.63,1.14,17.52.61,1.94-.02,3.94-.73,5.75-2.34,6.85-3.78,9.49-11.06,11.47,3.88,3.36,9.99,1.68,14.75,1.83,10.6-.6,21.21-.68,31.82-.41.8-1.05,1.12-2.42,1.28-3.71-3.98-5.94-14.5-.69-17.69-7.75-1.57-6.15.08-12.66.33-18.9.37-6.22.37-12.39,1.11-18.55.8-5.93,2-11.85,1.96-17.87-.49-9.39-2-18.1-1.43-27.47.02-2.12,1.76-3.91,3.91-3.91s3.85,1.78,3.9,3.91c.11,3.91-.06,7.84.18,11.75.54,5.9,2.14,11.71,1.73,17.69-.06,6.89-1.72,13.62-2.26,20.47-.37,9.48-1.1,18.91-1.31,28.39,7.91.61,19.19,3.84,18.52,13.71-.24,4.62-2.05,9.88-6.62,11.81-5.89,1.57-12.27.67-18.34.9Z"/>
      <path d="m559.18,670.68c-.47-.36-.48-1.02-.09-1.43,1.01-1.13,2.02-2.28,3.07-3.38.18.59.45,1.14.87,1.58-.89.99-1.73,2.02-2.51,3.06-.19.24-.48.37-.76.37-.2,0-.41-.06-.58-.2Z"/>
      <path d="m560.25,668.56c0-.43.36-.79.79-.79s.79.36.79.79-.36.79-.79.79-.79-.36-.79-.79Z"/>
      <path d="m559.56,668.76c0-.54.45-.99.99-.99s.99.45.99.99-.45.99-.99.99-.99-.45-.99-.99Z"/>
      <path d="m559.11,670.29h0s0-.01,0,0c-.67-2.61,1.43-4.95,3.2-6.6,1.62-1.45,2.91-3.12,4.44-4.63.93-1.05,2.1-3.51,3.74-2.11.61.6.51,1.57-.12,2.12-1.8,2.15-3.78,4.11-5.73,6.1-1.31,1.41-3.42,2.56-3.8,4.53.51,1.16-1.41,1.82-1.74.6Z"/>
      <path d="m574.26,687.97c.34-5.05,5.43-9.06,8.95-12.26,1.52-1.23,3.56,1.07,2.13,2.42-1.9,1.41-3.47,3.2-5.32,4.67-1.48,1.38-3.05,2.74-4.14,4.44-.03.62.05,1.53-.82,1.54-.43,0-.81-.36-.8-.8Z"/>
      <path d="m737.72,638.69c-1.71-2.88-2.13-6.16-3.1-9.3-1.27-3.21-2.8-6.34-3.68-9.69-1.2-6.49-2.18-12.98-3.88-19.4-1.03-6.77-2.05-13.47-4.19-19.98-1.89-5.69-4.34-11.12-8.03-15.87-4.92-7.94-11.18-14.87-17.72-21.5-3.71-3.76,1.93-9.51,5.77-5.77,7.34,9.79,15.35,19.84,21.49,30.72.02.14.04.27.06.4.16,1.06.4,2.12.64,3.16.49,2.09,1.13,4.13,1.83,6.16.67,1.92,1.45,3.85,2.37,5.66.65,1.29,1.6,2.46,2.95,2.96.94,3.32,1.63,6.74,2.01,10.25.52,4.08,1.72,7.22,2.64,11.09,1.15,6.15,1.84,12.75,5.19,18.12,3.45,8.16,5.82,11.51,13.63,4.51,3.37-3.74,2.26-9.58,2.26-14.24-.59-6.74-.83-13.62-2.88-20.11-1.81-6.51-5.36-13.16-7.91-19.24-3.57-7.09-6.89-14.32-10.71-21.22-3.7-8.85-8.87-17.06-13.8-25.17,0-.93,1.33-1.02,1.56-.24,3.12,4.95,6.76,9.35,10.08,14.14,12.45,18.62,24.82,37.57,29.83,59.69,1.6,7.42,2.42,14.96,2,22.55.08,3.95-1.09,7.85-3.57,10.96-3.67,4.19-9.28,7.23-14.55,7.23-3.94,0-7.69-1.7-10.3-5.87Z"/>
      <path d="m511.52,632.29c-8.36-.64-14.95-8-17.7-15.51-2.04-4.81-1.3-10.34-1.34-15.29.07-3.65.25-7.22.42-10.85,1.45-7.61,3.74-15.09,5.88-22.55,1.85-7.67,4.55-15.43,9.26-21.82,5.02-5.1,9.38-10.93,15.14-15.24,3.3-2.23,6.89-3.98,10.13-6.31,1.18-.83,2.43-1.53,3.75-2.09.71-.59,1.82-.33,2.27.44.52.89.02,1.95-.78,2.2-2.54.92-4.44,2.98-6.62,4.5-6.29,3.7-11.35,8.79-15.61,14.68-9.03,9.22-10.55,22.65-13.74,34.42-1.84,8.71-4.16,17.37-3.23,26.38-.88,8.42,3.32,18.64,12.31,20.35.5,0,1.04.12,1.51-.11,2-3.47,2.89-7.38,3.98-11.19,2.11-6.71,6.58-12.33,9.44-18.7.64-1.57,2.53-2.31,4.08-1.65,4.26,2.11-.02,6.41-1.23,8.95-1.77,3.64-3.44,6.72-4.81,10.44-2.48,6.96-3.05,19.84-13.12,18.96Z"/>
      <path d="m583.94,316.03c-8.67-1.43-15.07-7.74-18.41-15.63-3.82-7.26-6.37-15.22-6.44-23.48-.29-11.92-.5-24.13,3.25-35.59,5.26-19.56,12.42-38.58,17.4-58.15,1.72-9.28,2.25-18.03-.88-26.9-1.04-5.37-3.11-10.76-6.41-15.05-1.71-2.44-3.34-4.93-4.92-7.45-1.47-1.58-1.42-4.16.34-5.5,3.77-2.59,6.03,1.8,7.49,4.69,2.2,3.7,4.78,7.17,6.68,11.04,9.26,22.3,4.29,40.06-1.63,62.16-3.29,11.16-5.61,22.56-8.49,33.83-1.33,5.27-3.01,10.5-3.39,15.96-1.15,16.18-.4,32.17,10.33,45.3,3.33,3.06,9.68,5.2,13.72,2.5,3.19-3.89-.15-11.4-1.78-15.58-6.05-10.37-11.29-21.61-11.68-33.82.51-9,2.57-18.44,8.58-25.42,4.32-6.31,6.22-12.75,10.42-18.85,3.03-4.04,5.62-8.36,7.27-13.16,2.34-6.17,1.73-12.84,1.84-19.3.29-8.77-.6-17.48-3.49-25.8-3.05-8.13-7.2-15.98-12.66-22.75-3.73-3.81-7.38-7.7-10.68-11.91-3.28-3.85-7.7-6.35-12.38-8.13-1.16-.35-2.63-1.05-2.34-2.49,0,.07,0,.14-.01.21,0,.03,0,.06,0,.09-.03-.96.65-1.82,1.66-1.82.53,0,.96.23,1.26.59,8.93,1.9,15.52,7.93,21.63,14.28,3.68,2.99,7.33,6.05,10.01,10.01,6.63,9.52,11.29,20.02,13.42,31.37,1.26,10.91,2.22,21.52,1.12,32.39-1.52,9.17-6.95,16.81-11.62,24.59-2.47,5.2-4.83,10.46-7.85,15.38-6.99,9.9-8.59,23.3-4.68,34.73,3.58,9.2,9.94,16.43,11.76,26.24,4.15,12.32-5.33,24.3-18.44,21.41Z"/>
      <path d="m458.59,289.14c-9.24-.54-15.9-11.86-11.49-20.07,5.5-8.6,15.45-12.47,23.38-18.17,4.57-4.57,9.64-9.16,12.54-15.01,1.39-7.42,3.61-14.57,5.69-21.83,3.06-18.36-1.02-37.22,1.57-55.64,2.12-10.02,4.47-20.22,8.94-29.48,9.87-18.15,25.94-26.24,46.39-24.98.85-.53,1.34.12,1.37.78.02.62-.36,1.25-1.27.86-7.06.13-13.93,3.35-20.37,6.03-9.37,4.94-16.01,14.25-20.01,23.87-2.21,7.25-4.25,14.61-5.54,22.08-.91,7.56-.35,15.2-.06,22.78,0,14.04,2.92,28.7-2.23,42.18-2.48,5.64-3.72,11.71-6.07,17.37-3.92,6.75-10.31,11.81-15.99,17.03-2.36,2.02-5.05,3.54-7.94,4.66-2.81,1.52-5.22,3.65-7.96,5.29-2.35,1.83-5.02,3.81-6.15,6.64-.34,3.18,1.62,6.78,4.97,7.26,7.37.93,14.25-3.86,19.89-8.09,19.89-18,28.94-35.6,31.66-62.26.53-6.47,2.01-12.53,3.23-18.78.72-2.24,1.57-4.42,2.53-6.56.03.19.06.39.09.58-.02-.16-.05-.31-.07-.47.56,3.56.95,7.16,1.06,10.76,0-.17-.02-.34-.02-.52.03.81-.08,1.65.05,2.46.17,1.16.68,2.19,1.6,2.91-.52,5.18-.62,10.43-1.28,15.56-2.16,11.35-5.05,22.63-10.55,32.86-8.7,16.31-25.69,39.96-46.12,39.96-.61,0-1.21-.02-1.83-.06Z"/>
      <path d="m528.07,174.78c.03-.22.06-.46.1-.69.37-2.31.78-4.61,1.26-6.91-.02.05-.02.11-.04.16.16-.63.31-1.26.51-1.88-.02.05-.04.1-.06.15.05-.14.11-.28.17-.41.03-.08.06-.16.07-.24,2.2.36,4.05,2.94,2.25,5.31-1.49,1.8-2.94,3.64-4.31,5.53.01-.33.03-.67.04-1.01Z"/>
      <path d="m515.75,203.64c-2.09-3.95-1.21-8.87-1.61-13.2-.44-16.76,3.12-38.14,19.52-46.44,2.75-1.15,4.52,3.01,1.78,4.2-13.1,5.47-15.46,25.27-17.28,37.71-.38,5.41-2.34,11.02-1.24,16.39,1.05.83-.25,2.39-1.18,1.35Z"/>
      <path d="m499.34,459.1c-10.43-2.82-15.24-17.78-14.02-27.54.73-7.03,5.89-12.35,9.62-18.02,4.77-6.9,9.12-14.05,12.11-21.93,3.69-8.78,7.31-18.08,6.66-27.77-1.26-8.51-1.37-17.65-3.91-25.83-4.36-12.78-8.19-26.19-7.33-39.81.27-9.3-.28-18.07,1.78-26.95,3.07-11.16,14.34-25.38,26.58-25.88,1.83-.05,4.14,1.4,1.96,2.99-1.52.14-3.37.41-4.65,1.16-11.28,6.82-19.47,19.37-19.6,32.66-.45,8.41-.68,16.88,0,25.27,1.16,7.62,3.82,14.56,6.79,21.49,3.21,6.06,5.81,12.4,6.4,19.3.93,6.79,2.31,13.62,1.93,20.51-1.53,14.43-8.38,27.72-14.49,40.7-4.09,6.79-8.85,13.08-13.48,19.49-3.3,4.94-2.13,11.55.19,16.67,4.38,13.1,19.04,3.91,25.08-2.98,4.7-5.61,7.62-13.1,8.86-20.1,3.8-15.53,2.03-31.05,3.13-46.72.55-6.05,2.92-11.9,4.85-17.58.81-2.78,2.69-6.27,6.09-4.87,4.13,2.06,1.43,5.72.23,8.72-2.17,5.73-4.22,10.94-4.58,17.01-.59,12.54-.81,25.16-2.76,37.58-1.08,9.87-2.47,20.06-8.19,28.46-5.94,8.73-18.54,16.08-29.24,13.96Z"/>
      <path d="m721.32,251.66c-.64-.6-1.26-1.22-1.88-1.82-.64-.6-1.31-1.16-1.97-1.74-.12-.11-.24-.22-.35-.34-.37-.47-.71-.97-1.05-1.47-1.03-1.56-1.95-3.16-2.81-4.82-.59-1.2-1.01-2.47-1.48-3.71-.47-1.19-.97-2.36-1.42-3.56-.26-.81-.5-1.61-.71-2.43-.28-1.45-.53-2.9-.81-4.35,0-.36-.02-.73-.03-1.08-.05-1.51-.1-3-.14-4.52,0-.05,0-.09,0-.14,0-.01,0-.03,0-.04,0-2.72.12-5.44.11-8.16-.06-7.61-.12-15.23.09-22.83.09-3.17,0-6.36-.5-9.49-.23-1.5-.41-3.02-.64-4.52-.26-1.77-.63-3.53-.7-5.32,0,.17,0,.33,0,.5-.07-3.33-.51-6.63-1.24-9.88-.02-.5-.04-1-.05-1.5,0-.03,0-.06,0-.1v.05-.12.06c-.04-2.36.12-4.73.25-7.09.05-1.04.09-2.09-.19-3.1-.22-.81-.6-1.57-.92-2.34-.76-2.33-1.33-4.78-1.74-7.19-.34-2.12-.5-4.29-1.61-6.19-.61-1.06-1.42-2.04-2.3-2.89-.28-.56-.51-1.12-.83-1.66-.29-.5-.62-.97-.97-1.43,0,0,0,0,0,0h0s.03.03.04.05c.02.03.04.06.07.09-.02-.03-.05-.06-.07-.09-.02-.02-.03-.05-.05-.07,0-.02,0-.02,0-.04-.02-.12-.04-.22-.06-.34-.05-.5-.09-1.02-.27-1.5-.39-1.04-1.16-1.75-2.19-2.02-.98-2.5-2.1-4.97-3.38-7.39-2.74-5.52-4.68-11.55-8.71-16.33-4.05-4.2-8.6-8.78-14.14-10.75-.95,1.53-3.48.5-3.17-1.23,1.35-6.89,14.57,2.64,17.53,4.78,6.74,4.52,10.61,11.63,14.63,18.43,2.96,4.64,5.65,9.44,7.85,14.5,6.06,15.03,8.64,31.39,9.37,47.52.78,10.76,1.73,21.58.4,32.35-.35,8.9-.12,17.94,1.37,26.74.43,4.05,2.28,7.53,5.05,10.19-.06.04-.12.08-.18.12-1.4,1.02-2.07,3.04-1.36,4.67.44,1,.9,1.98,1.38,2.95-.02.12-.03.23-.05.35-.03.11-.07.22-.1.33-.02-.02-.05-.04-.07-.06Z"/>
      <path d="m708.67,221.66s0,.02,0,.03c0,.05,0,.09,0,.14,0,.11,0,.22,0,.32,0-.16,0-.33,0-.5Z"/>
      <path d="m721.32,251.66c-.64-.59-1.25-1.22-1.88-1.82-.3-.28-.6-.55-.9-.81-2.7-4.26-5.07-8.85-5.93-13.69-.1-1.22,1.47-1.6,1.64-.34-.16,2.85,1.81,5.38,3.08,7.81.79,1.31,1.64,2.6,2.55,3.85,0,.49.09.98.29,1.43.45,1.02.92,2.03,1.42,3.03-.06.2-.13.4-.19.6-.02-.02-.05-.04-.07-.06Z"/>
      <path d="m704.9,281.19c-4.89-4.6-9.75-9.75-12.11-16.16-1.06-2.92-1.49-5.99-2.33-8.96-2.81-9.28-6.95-18.39-6.11-28.31.19-11.12,2.16-22.1,3.76-33.07.91-8.07,2.86-16.26.96-24.32-2.77-8.94-4.71-18.06-7.06-27.11-1.83-4.98-5.4-9.13-8.76-13.1-3.02-3.47-6.25-6.92-10.16-9.31-1.47-1.11-1.72-3.29-.6-4.72,2.71-3.21,6.16.4,8.42,2.34,9.63,9.36,16.69,20.28,17.89,33.84,1.26,7.91,4.85,15.14,5.74,23.11.98,21.19-7.03,42.7-1.4,63.61,3.27,7.5,6.18,15.12,9.01,22.79,3.75,5.73,8.55,11.41,14.73,14.58,5.41,2.49,11.96,4.21,17.84,2.91,7.06-2.95,10.21-6.75,4.19-13.14-2.81-3.22-6.51-5.4-9.99-7.84-.86-1.02-1.9-1.91-2.91-2.78.01.01.02.02.03.03-1-.87-2.03-1.69-3.05-2.53-3.59-5.7-7.16-11.52-10.82-17.13-3.56-5.27,1.92-5.03.39-2.87,3.1,7.09,9.96,11.57,15.01,17.2,6.04,3.62,12.96,5.34,17.88,10.58,13.78,13-.15,27.9-15.45,28.06-.22,0-.43,0-.65,0-8.68,0-17.71-1.85-24.43-7.68Z"/>
      <path d="m778.22,383.64c-18.68-7.03-30.52-26.08-35.7-44.6-2.44-9.17-1.54-18.78-.91-28.13.74-5.87.7-11.84,2.12-17.61.73-4.97,1.95-9.84,2.58-14.8.1-.91.95-1.6,1.84-1.6,4.34-.06,1.14,16.93,1.26,19.88.17,12.1.07,24.38,1.98,36.36,2.09,9.2,6.19,17.55,11.29,25.4,6.04,8.45,15.08,19.2,26.65,15.65,1.55-10.72-7.61-22.05-13.96-29.95-2.16-2.97-5.02-5.75-6.26-9.26-1.04-3-1.36-6.25-1.57-9.4-.55-14.1,3.26-28.35,3.84-42.35.63-8.8-.35-17.35-1.36-25.99-1.28-9.16-2.79-18.41-6.74-26.86-4.74-11.01-14.19-31.08-27.57-31.9.04.6.05,1.2.05,1.81,0,1.02-1.59,1.02-1.59,0,.11-.93-.17-1.84,0-2.72.31-.73,1.33-.69,1.96-.65,13.04.77,20.8,12.07,27.14,22.13,6.28,10.84,9.89,22.85,11.82,35.18,2.98,15.3,3.13,30.96,1.12,46.39-1.04,7.77-2.35,15.52-1.78,23.39.45,3.81.34,8.17,3.2,11.09,5.99,6.7,12.59,12.98,16.33,21.31,9.3,16.33,6.57,32.08-15.72,27.21Z"/>
      <path d="m747.05,278.19c.81-9.77.54-19.89-3.05-29.05-2.2-4.19-5.66-7.58-8.58-11.27-.86-.91-1.85-1.69-2.72-2.59-2.12-2.04-.56-5.93,2.42-5.85,4.01.59,5.59,5.39,7.68,8.33,8.2,9.85,7.9,22.6,7.26,34.69-.09,1.96-.41,3.91-.67,5.83-.07.6-.53,1.08-1.16,1.08-.67,0-1.14-.54-1.18-1.17Z"/>
      <path d="m738.49,200.66c-1.64-.89-3.17-1.98-4.87-2.75-.42-.12-.86-.3-1.02-.76-.18-.46-.03-.82.14-1.19.12-1.18,1.89-1.37,2.26-.25,1.72.93,6.79,1.49,5.87,4.16-.4.94-1.53,1.27-2.38.79Z"/>
      <path d="m803.18,214.47c-10.47-.75-20.74-3.94-28.83-10.83-7.14-6.76-9.42-18.04-13.05-26.62-3.16-10.26-5.76-20.67-9.69-30.69-2.07-7.97-4.15-16.05-7.79-23.47-4.09-7.42-8.57-15.21-13-22.34-1.77-2.33-3.05-5.31-5.68-6.79-3.75-1.24-8.55-1.6-11.92.78-.11,1.47-2.33,1.69-2.83.36-.41-1.05.25-2.02.87-2.82,2.94-3.6,8.12-4.44,12.52-4.09,9.65.82,15.11,15.35,19.58,22.71,7.13,10.9,11.19,23.33,14.16,35.9,3.03,7.49,5.34,15.34,7.78,22.99,2.36,6.41,5.64,13.38,8.5,19.34.99,1.97,1.94,3.84,3.12,5.68,2.52,3.26,6.59,4.83,10.34,6.22,4.92,2.08,10.28,1.8,15.48,2.42,3.53.33,7.1,1.33,10.64.6,5.4-2.13,11.43-3.54,16.23-6.87,4.51-4.38,6.88-11.65,4.43-17.63-9.36.4-18.27,4.91-27.46,5.41-9.64.24-19.95-3.74-26.21-11.21-2.34-3-3.74-6.6-5.23-10.07-3.69-8.65-7.04-17.46-8.21-26.85-1.64-6.94-3.35-14.59-4.49-21.43-1.28-7.45-2.61-14.43-6.51-20.97-4.82-8.93-9.61-18.62-19.02-23.47-3.57-2.47-7.2-5.34-11.77-5.3-4.24-.26-8.35,1.23-12.37,2.39-1.13.41-2.32.83-3.1,1.81-1.32,1.42-3.67,1.49-5.16.33-4.03-3.47.82-8.11,4.63-8.99,12.33-3.23,21.8-3.18,31.51,5.93,10.62,6.62,15.45,18.8,21.6,29.17,5.09,8.27,6.04,18.15,8.59,27.34,3.63,11.45,5.18,23.47,11.07,34.12,2.07,3.65,3.61,7.79,6.66,10.76,4.98,3.91,11.35,6.25,17.59,7.11,8.46.47,16.48-2.92,24.89-3.05,11.97-1.64,12.31,14.43,8.69,22.16-2.75,7.31-8.93,11.48-15.55,14.94-6.05,4.99-13.36,6.69-21.02,5Z"/>
    </g>
    <g id="Vector_layer-2" data-name="Vector layer">
      <path d="m591.58,399.3c-6.38-2.22-13.22-6.57-14.43-13.73-1.59-3.75-3.66-7.44-3.44-11.64-.48-3.34-.91-6.72-.06-10.04.91-5.96,6.7-7.3,11.38-9.44,7.34-4.09,16.26-4.7,24.27-2.39.78-1.54,2.96-1.42,3.9-.1.72,1.08,1.99,1.51,3.01,2.25-.02-.02-.05-.03-.07-.05-.05-.03-.09-.06-.14-.1,1.69.85,2.78,2.52,3.22,4.25,2.98,6.35,2.93,13.28.55,19.82-2.71,12.63-14.63,24.34-28.21,21.18Zm7.54-2.63c7.13-1.63,13.56-6.5,15.8-13.57,3.09-7.4,4.42-15.72.87-23.13-.68-3.41-5.4-3.31-6.64-6.31-8.67.14-17.31,1.01-25.21,4.83-4.37,1.79-6.88,2.74-6.95,8.01-.27,2.21.43,3.89,1.18,5.86.51,4.3,2.6,7.94,4.63,11.68,1.04,3.64,2.79,6.49,5.92,8.55,2.72,3.09,6.43,4.08,10.41,4.09Z"/>
      <path d="m664.72,394.32c-5.56-.6-11.03-2.96-14.93-7.02-2.17-2.49-4.13-4.97-6.09-7.6-3.36-7.11-2.74-16.51,1.59-23.07-.3-.42-.22-1.04.2-1.35,3.46-3.02,7.93-4.01,12.34-4.7,5.7-1.51,12.12-1.67,17.72.34,2.63.35,5.45.53,7.62,2.28,5.17,4.37,5.16,11.7,4.8,17.93-.3,12.33-10.06,24.77-23.24,23.19Zm2.36-3.86c8.64-.44,15.95-8.69,16.72-17.05.6-5.11,1-11.03-2.14-15.35-1.38-2.39-3.84-3.31-6.39-3.78-4.28-1.79-9.04-2.25-13.54-1.98-5.18.87-10.93.52-14.95,4.46-1.92,5.54-1.88,11.77-.25,17.37.77,2.61,2.93,4.38,4.42,6.59,1.86,2.2,3.56,4.82,5.84,6.58,3.07,2.02,6.9,3.33,10.56,3.13-.09,0-.18.02-.26.02Z"/>
      <path d="m721.51,366.42c-1.18-.17-1.55-1.43-2.55-1.9-4.14-1.49-8.14-3.65-12.49-4.14-3.89-.86-7.65-1.8-11.58-2.19-3.02-.48-5.88-1.83-8.93-1.65-.38.38-1.09-.12-.87-.62.63-.68,2.66-.45,3.61-.57,5.7.9,11.54.75,17.1,2.07,3.49.32,6.74,1.37,10.09,2.23,1.94,1.07,3.59,1.47,5.4,2.36.68.43,1.34.93,1.86,1.54.98,1.19-.14,3.12-1.66,2.86Z"/>
      <path d="m714.28,371.4c-3.33-2.58-7.48-3.64-11.45-4.96-5.01-2.15-10.39-3.05-15.7-4.29-.94.29-1.77-1.04-1.02-1.72,2.32-.93,5.97.59,8.53.71,2.8.28,5.56.69,8.1,1.93,3.86,1.02,7.7,2.01,11.3,3.75.8.4,1.17,1.26,1.86,1.78,1.49,1.1.07,3.57-1.63,2.79Z"/>
      <path d="m548.71,380.45c-1.6-1.06.13-2.72.98-3.49,1.3-2.6,4.11-3.88,6.25-5.59,5.95-4.38,13.17-7.06,20.19-9.03,1.26.3.58,1.54-.4,1.7-7.96,3.58-16.35,6.77-23.03,12.52-1.39,1.18-1.62,4.77-3.99,3.89Z"/>
      <path d="m550.83,385.73c-3.12-2.13,1.67-5.69,3.67-6.72,1.89-1.21,3.51-2.79,5.22-4.21,1.53-1.27,14.62-7.29,15.27-5.19-.12.88-1.3.28-1.82.68-3.84,2.83-8.38,4.72-12.1,7.67-2.1,2.38-5.34,3.73-7.42,5.91-.53,1.09-1.4,2.48-2.81,1.86Z"/>
      <path d="m611.59,353.09c-1.64-.13-3.46,0-5.06.11-1.12.01-3.08.5-3.17-1.13.1-1.68,2.1-1.11,3.22-1.02,2,.18,4.23.27,5.89,1.47.09.15.1.31.1.48,0,.59-.89.67-.98.09Z"/>
      <path d="m611.49,353.36c0-.06,0-.12,0-.18-.02-.01-.03-.03-.05-.04.01,0,.02.02.04.03,0,0,0,0,0,0,0,0,0,0-.01,0,0,0,0,0,0,0-3.55-.21-7.18-.27-10.72.29-.79.24-1.67-.21-1.98-.96-.74-1.99,1.75-2.8,3.31-2.51,3.33.09,6.97.17,9.73,2.23.45.21.75.65.67,1.15,0,.64-1,.64-.99,0Z"/>
      <path d="m568.52,365.5c.06-1.33-.02-2.89,1.26-3.7,1.08-.91,2.22-2.02,3.64-2.3,1.63-.46,2.73-1.17,4.23-1.74,1.79-.48,3.35-.41,4.94-1.19,3.98-2.66,8.75-3.2,13.31-4.31,4.17-1.83,8.37-1.44,12.64-.35.45.04,1.13-.1,1.16.52,0,.27-.22.5-.5.5-1.07.06-2.13-.32-3.13-.42-5.15-.01-9.6,2.17-14.46,3.43-2.98.55-5.5,2.09-8.22,3.29-2.14.92-4.8,1.01-6.68,2.43-1.65.74-3.41,1.07-4.5,2.64.88,3.17-3.21,4.43-3.7,1.2Z"/>
      <path d="m569.81,372.26c-3.09-1.35-4.47-5.27-2.82-8.23,1.61-1.86,4.39-3.41,6.79-3.94.65-.02,1.9-.37,2.06.47,0,.26-.22.5-.5.5-.43-.03-.92-.1-1.31,0-1.74,1.01-3.21,2.5-4.55,3.98-.36,1.08.02,2.39.69,3.28,1.05.59,2.18,1.1,3.21,1.6,1.38.75,1.09,2.97-.44,3.35-1.14.37-2.2-.37-3.12-.99Z"/>
      <path d="m576.62,385.4c-.92-2.79-3.76-4.94-2.96-8.11h.01c0-.09-.01-.17-.02-.24,0,.02,0,.03,0,.05,0,0,0,.01,0,.02-.09-2.39-1.16-4.4-2.65-6.16-.25-.03-.44-.24-.44-.49.25-1.29,2.72.4,3.26.9,1.52,1.25,2.49,3.01,2.77,4.94.2,1.45.62,2.73,1.67,3.78.85,1.53,1.64,2.69,1.82,4.37.3,2.04-2.68,2.87-3.47.95Z"/>
      <path d="m579.52,391.32c-1.22-2.01-2.37-3.86-3.21-6.06-.77-2.31-1.01-4.79-1.81-7.05-.34-1.1-.68-2.36-.43-3.48,0-.33,0-.74.35-.89.49-.21,1.04.48.65.89.58,2.1,1.82,3.82,2.52,5.85.61,1.51,1.09,3.13,1.81,4.5.71,1.94,2.62,3.48,2.88,5.51-.15,1.33-1.96,1.81-2.77.74Z"/>
      <path d="m686.98,372.27c-1.65-.23-1.56-1.98-1.45-3.26-.07-1.61-.04-3.27.78-4.71.66-1.34,1.53-2.45,2.34-3.64.06-1.4.11-2.85.07-4.24-.02-.08-.04-.16-.06-.24,0,0,0,0,0,0-2.29-.89-4.68-1.36-6.92-2.37,0,0,0,0,0,0-.28.61-1.1.18-1.05-.39.55-1.62,3.55-.5,4.88-.55,1.58.26,3.05.16,4.5.88,1.72.91,1.53,3.17,1.69,4.8.02,1.29.4,2.59-.19,3.78-.69,1.42-1.69,2.68-2.27,4.16-.67,1.87.77,5.84-2.32,5.78Z"/>
      <path d="m626.93,360.4c-4.62-.78-9.54-1.26-13.68-3.58-1.98-1.13-.89-4.32,1.38-3.99,2.57.78,5.33,1.06,7.52,2.72,6.96,1.49,14.29,2.36,21.11-.15,1.85-.53,3.28-1.96,5.21-1.96.64,0,.64.99,0,.99-.65-.07-1.32.89-1.89,1.27-5.52,4.34-12.88,4.97-19.65,4.7Z"/>
      <path d="m620.27,368.96c0-.14.06-.27.16-.36,1.01-5.86,16.86-8.75,20.87-5.01,1.04.89,2.79,2.1,1.92,3.64-.36.63-1.21,1.02-1.92.78-1.3-.36-2.01-1.78-3.33-2.09-5.55-.91-12.05-.35-16.51,3.24-.32.38-1.17.43-1.19-.21Z"/>
      <path d="m621.71,369.92c0-.49.4-.89.89-.89s.89.4.89.89-.4.89-.89.89-.89-.4-.89-.89Z"/>
      <path d="m615.08,400.04c-.29-2.11-.38-4.54.14-6.56,1.94-9.22,1.92-20.09,9.26-26.96,1.08-.38,1.04,1.22.1,1.35-1.96,3.81-2.82,7.99-4.3,11.95-.44,4.24-1.24,8.4-2.28,12.53-.75,2.6-.7,5.11-1.01,7.68-.14,1.08-1.77,1.09-1.92,0Z"/>
      <path d="m616.37,423.19c-3.45-.54-6.76-3.54-7.33-7.04-.16-5.87,4.58-10.32,6.3-15.64.1-.87-.33-2.31.83-2.56.7-.19.93.92.19.98,0,0,0,0,0,0,0,0,0,0,0,0h0c.13,5.74-3.95,10.47-5.25,15.94-.17.64.04,1.22.22,1.81.87,1.92,3.1,3.22,5.01,3.81,1.47.37,4.11-.84,4.61,1.14.04,2.27-3.11,1.5-4.59,1.57Z"/>
      <path d="m630.79,426.37c-4.76-.16-11.37-3.08-10.09-8.76.12-2.65.76-5.31,2-7.64.03-.27.26-.49.53-.49.63.04.58.67.51,1.11-.36,1.42-.52,2.93-.63,4.26-.02,1.76-.3,3.77.54,5.38,2.57,2.12,6.25,3.33,9.57,2.95,1.59-.3,3.15-.65,4.68-1.14.68-.16,1.4.15,1.67.81.67,1.97-1.99,2.33-3.35,2.65-1.78.47-3.57,1.02-5.44.86Z"/>
      <path d="m638.29,424.26c-.64,0-.64-1,0-.99.18,0,.33.01.48-.03.79-.33,1.37-1.05,1.85-1.67.14-.23.43-.32.67-.18.96.99-1.99,3.13-3.01,2.88Z"/>
      <path d="m638.47,423.94c-.26-.51.28-1.18.78-.75,1.09-.88,1.88-2.21,2.21-3.56.2-.66-.02-1.46.44-2,.18-.18.42-.28.66-.28,1.85.29.46,2.65-.11,3.6-.77.79-2.82,4.5-3.98,2.99Z"/>
      <path d="m638.39,423.64c-1.58-.87,1.73-3.27,2.26-4.19.62-.85,2.02.07,1.45.98-.9,1.18-2.04,2.35-3.24,3.17-.15.05-.3.08-.47.04Z"/>
      <path d="m640.7,420.24c.15-.68.03-2.42.99-2.35.26.07.42.35.35.61-.15.59-.33,1.18-.35,1.74,0,.27-.22.5-.5.5s-.5-.22-.5-.5Z"/>
      <path d="m649.16,423.18c-.94.12-8.32-.91-6.68-2.39,2.52-.38,5.38.42,7.89-.28,2.23-1.77,2.24-5.13,2.28-7.76-.67-2.65-2.42-4.96-4.25-6.92-.98-1.11-3.57-2.25-2.12-3.97,2.4-1.99,6.21,4.79,7.05,6.64,1.33,2.28,1.38,4.88,1.13,7.43.14,3.24-1.37,7.66-5.31,7.26Z"/>
      <path d="m647.2,403.35c-.23-.12-.38-.36-.5-.51-6.48-9.7-2.81-22.57-6.03-33.31,0,.03,0,.04.02.07-.09-.6-.42-1.28-.17-1.91.44-1.06,2-1.05,2.44,0,.46.95.5,2.05.66,3.09,1.2,5.94.24,12.2,1.26,18.14,1.11,4.38.75,9.17,2.61,13.33,0,0,0,0,0,0,1.34-.84,1,1.68-.29,1.1Z"/>
      <path d="m618.77,421.3c0-.88.74-1.61,1.61-1.61s1.61.74,1.61,1.61-.74,1.61-1.61,1.61-1.61-.74-1.61-1.61Z"/>
      <path d="m611.61,446.71c-1.56-.58-2.13-2.31-3.28-3.32.01,0,.03,0,.04,0,0,0,0,0,.01,0-1.08.01-1.73,1.12-2.62,1.58-1.55,1.18-3.52.49-4.75-.81-.72-.62-.93-1.78-1.89-2.08-1.32.98-2.35,2.44-3.98,2.93-1.9.73-4.27-.63-3.85-2.81.02-1.23.45-2.47.67-3.65.15-.9.03-1.9.37-2.75.79-2.36,2.14-4.69,3.51-6.7,1.51-2.27,3.35-4.26,5.6-5.8,1.56-1.5,3.39-2.82,5.48-3.42,1.1-.13,4.18-2.28,4.53-.68,0,.43-.45.58-.75.42-6.03,2.53-10.86,7.23-13.94,13-1.62,2.35-2.34,4.86-3.23,7.48-.35,1.01-.52,1.86-.43,2.87,0,0,0,0,0,0,0,0,0,0,0,0,.12.13.33.14.48.13,1.47-.48,2.37-1.94,3.48-2.96,1.44-1.26,3.46-.42,4.56.88.76.89,1.34,1.87,2.48,2.08h0s.1-.02.15-.04c-.03,0-.05.02-.08.02-.02,0-.05,0-.07.01,1.88-.8,4.55-2.65,6.16-.38.73.69,1.24,2.1,2.35,2.14,2.29-1.03,4.3-3.71,7.07-2.2,1.23.53,2.41,1.39,3.77,1.3,1.56-.28,2.71-1.57,4.26-1.88,1.96-.28,3.69,1.17,5.58,1.37,2.1.11,3.84-1.31,5.74-2.01,4.5-2.37,9.37-.34,13.4,2.02,0,0-.01.02-.01.02,2.66.32,5.21-1.03,7.83.13,2.39.4,4.73-.18,7.08.31.74-.39,1.6-.06,2.37-.25.82-.54,1.49-1.2,1.98-1.96-.72-3.45-3.47-6.19-4.89-9.4-3.46-4.4-7.89-7.52-12.74-10.08-1.51-.82-.48-3.3,1.17-2.78,1.21.73,2.51.88,3.86,1.19,5.71,1.59,9.67,6.49,11.75,11.83,1.2,2.33,2.92,4.67,3.22,7.32.13,2.65-1.85,4.56-4.22,5.29-.64.09-1.13-.13-1.69-.16-.64.18-1.25.15-1.9.07-1.94.08-3.79,1.12-5.75.5-1.04-.31-1.86-1.07-2.97-.92-1.29.09-2.25.95-3.32,1.54-3.71,1.55-6.12-3.07-9.47-3.71-1.4-.27-2.63.26-3.83.85-5.38,3.45-6.89,3.67-12.33.3-.12-.02-.25-.04-.37-.06-.79.29-1.31,1.06-2.02,1.48-2.08,1.78-5.05.82-6.88-.81-.84-.64-1.81-.98-2.76-.49-1.43,1.2-2.69,3.84-4.95,3.03Z"/>
      <path d="m654.97,421.98c-.24-.3-.79-.49-.59-.96.36-.73,1.39.06,1.47.6,0,.46-.56.64-.88.36Z"/>
      <path d="m599.33,440.4c-1.48-.73.39-2.87.62-3.99,1.01-2.39,3.09-6.39,5.98-6.46.98.23.39,1.27-.44.95-2.95,1.77-3.43,6.18-5.19,9.03-.17.37-.58.57-.96.47Z"/>
      <path d="m601.86,442.52c-.27-1.08,2.73-9.92,4.03-7.36,0,.23-.17.43-.38.48-.78.86-1.14,2.08-1.42,3.14-.29,1.27-.37,2.56-.48,3.85-.04.43-.45.76-.87.76-.47,0-.89-.4-.88-.88Z"/>
      <path d="m607.51,440.81c.08-.88,1.81-8.68,3-6.41-.5,2.14-1.32,4.28-1.09,6.54.01,1.32-2.08,1.19-1.92-.13Z"/>
      <path d="m616.23,441.99c.11-2.44-.11-4.69-.92-6.96-.07-.26.09-.54.35-.6.26-.08.53.09.61.34.64,2.38,1.39,4.76,1.57,7.23.02,1.04-1.62,1.05-1.61,0Z"/>
      <path d="m625.29,441.21c.06-1.44.42-2.81.48-4.19,0-.64,1-.64.99,0,.09,1.34.31,2.65.55,3.92.17.58-.25,1.22-.85,1.29-.58.08-1.21-.4-1.17-1.02Z"/>
      <path d="m625.73,441.93c.32-.88-.06-2.54,1.19-2.67,1.34.15.79,1.88.88,2.81-.02,1.43-2.24,1.27-2.06-.14Z"/>
      <path d="m640.24,440.24c-.39-1.49-.82-3.07-1.71-4.34-.72-.32-.18-1.45.53-1.11.99.59,1.61,1.66,2.25,2.6.47.89,1.42,1.78,1.26,2.85-.27,1.15-2.05,1.16-2.33,0Z"/>
      <path d="m651.28,443.71c-.54-3.02-2.62-5.68-4.93-7.54-.67-.32-1.15-1.06-.73-1.78.36-.6,1.15-.74,1.7-.33,3.15,2.2,6.16,5.09,6.6,9.1.26,1.61-2.23,2.13-2.64.54Z"/>
      <path d="m661.7,442.16c.11-3.64-2.57-5.72-5.1-7.78-.5-.38.11-1.19.6-.78,1.72,1.75,11.05,7.51,6.57,9.93-.93.26-1.95-.38-2.08-1.36Z"/>
      <path d="m610.21,435.89c-1.52-.37,1.69-5.82,3.01-5.15.92.03.58,1.49-.25,1.11-1.09.69-1.44,2.24-1.88,3.33-.08.42-.42.85-.88.71Z"/>
      <path d="m615.37,436.2c.34-1.12-.4-3.56,1.29-3.6.81.11.86.95.7,1.58-.15.91.31,1.96-.16,2.79-.61.82-1.98.23-1.82-.77Z"/>
      <path d="m622.47,439.67c-.05-.5.01-1.18.66-1.19.65,0,.71.68.66,1.19,0,.85-1.32.85-1.32,0Z"/>
      <path d="m642.9,418.67c-.46-.06-.74-.49-.71-.93.12-1.41.37-2.78.18-4.17-.1-.38-.18-.74-.48-.99-.49-.37.1-1.16.56-.82,1.14.71,2.49,7.01.45,6.91Z"/>
      <path d="m627.24,397.76c.06-3.95.72-7.84.54-11.78,0-.27.22-.5.5-.5s.48.21.49.44c.14,2.74-.23,5.49-.15,8.23,0,1.2,0,2.4-.03,3.6,0,.37-.3.67-.67.67s-.69-.3-.67-.67Z"/>
      <path d="m596.28,352.65c-.32-3.33,5.03-2.06,6.85-1.38,1.19.34,2.44.64,3.64.63.71.06,1.92-.11,2.12.71.01.39-.46.61-.76.43-1.76-.45-3.65.55-5.44.16-1.35-.03-2.51.14-3.8.37-.98.33-2.28.28-2.6-.92Z"/>
      <path d="m573.49,364.38c-2.05-1.86,2.44-4.08,3.65-5.16,1.55-1.14,2.93-2.55,4.56-3.54,2.81-2.2,6.5-2.63,9.75-3.87,3.44-.26,5.92-1.04,9.01-1.37,1.5-.04,2.8.5,4.14.8.48-.13,1,.21,1,.74,0,.61-.71.98-1.2.64-4.99.17-10.1,1.62-14.72,3.56-3.41.91-6.57,2.45-9.56,4.12-1.58.8-2.93,1.88-4.3,2.94-.67.58-1.3,1.75-2.32,1.15Z"/>
      <path d="m574.56,362.13c0-.68.57-1.25,1.25-1.25s1.25.57,1.25,1.25-.57,1.25-1.25,1.25-1.25-.57-1.25-1.25Z"/>
      <path d="m596.76,378.42c-1.51-.34-2.84-1.58-2.95-3.18-.04-.5.02-1.05.22-1.51.11-.24.21-.5.38-.7.19-.24.39-.43.62-.62.13-.1.27-.19.41-.27-.1-1.05.58-2.04,1.61-2.32.23-.06.47-.09.71-.07.27-.05.54-.07.83-.04.4.05.84.21,1.21.35.65.26,1.28.68,1.74,1.19.48.53.81,1.12,1.02,1.8.32,1.01.27,2.16-.23,3.11-.83,1.59-2.63,2.39-4.38,2.39-.4,0-.81-.04-1.19-.13Zm1.35-3.36h.15c.16-.02.31-.06.45-.11.09-.04.18-.07.27-.12.07-.04.13-.08.2-.12.03-.02.05-.04.08-.06.06-.05.11-.11.17-.16.03-.04.06-.08.09-.11.01-.02.03-.04.04-.06-.03-.02-.07-.04-.1-.06-.04-.02-.08-.03-.12-.05-.08-.03-.17-.05-.26-.07-.08-.01-.17-.02-.25-.03-.08,0-.16,0-.24,0-.19.02-.39.03-.58,0-.12.02-.25.03-.37.03-.57,0-1.1-.23-1.5-.6-.01.03-.02.06-.03.08-.02.06-.03.13-.05.19,0,.05-.01.09-.02.14,0,.04,0,.08,0,.12,0,.03,0,.07.01.1,0,.02.01.04.02.06.01.02.02.05.03.07,0,.02.02.03.03.05.02.02.04.05.05.07v.02s.08.06.11.09h0s.06.06.1.08c.04.02.07.04.1.06.15.07.31.14.46.2.16.05.31.1.47.14.11.02.21.03.32.05.12,0,.24,0,.36,0Z"/>
      <path d="m596.26,387.94c-1.02-.25-1.95-.73-2.68-1.18-.63-.37-1.21-.84-1.78-1.29-.03-.02-.05-.04-.08-.06,0,0-.02-.02-.02-.02-1.07-.83-2.1-1.76-2.94-2.81-1.1-1.36-1.82-2.98-2.2-4.69-.35-1.59-.47-3.29-.19-4.89.15-.8.41-1.57.73-2.32.38-.86.86-1.65,1.37-2.43.71-1.09,1.57-2.09,2.58-2.92.25-.21.52-.41.79-.59-.14-.67.15-1.45.82-1.73.21-.08.41-.14.62-.18.01,0,.03,0,.04-.01,0,0,0,0-.01,0,0,0,0,0,0,0,0,0,0,0,0,0-.01,0-.02.01-.02.01,0,0,.02,0,.02,0,0,0,0,0,.01,0,0,0,0,0,0,0,0,0,0,0,0,0h0s0,0,0,0c0,0,0,0,0,0h0s0,0,0,0c0,0,0,0,0,0,0,0,0,0,0,0h.01s.05-.04.07-.05c0,0,.02-.01.03-.02.32-.18.65-.34,1-.45.35-.12.71-.19,1.06-.26.78-.16,1.55-.26,2.34-.29,1.28-.05,2.61.05,3.86.36.64.16,1.26.37,1.86.62.66.27,1.32.56,1.94.91.74.42,1.43.92,2.02,1.52.52.52.97,1.09,1.43,1.64.45.53.9,1.07,1.29,1.65.4.59.67,1.25.93,1.91.47,1.22.81,2.57.84,3.88.05,1.71-.34,3.37-.94,4.97-.54,1.43-1.19,2.83-2.12,4.05-.8,1.07-1.77,2.06-2.87,2.84-1.14.8-2.52,1.24-3.85,1.6-1.17.32-2.4.52-3.62.52-.8,0-1.6-.08-2.37-.27Zm4.11-3.26c.32-.05.63-.11.94-.18.32-.09.63-.19.82-.25.05-.02.09-.04.14-.06h.02c.29-.14.56-.28.79-.4.86-.49,1.72-.98,2.51-1.57.27-.22.53-.44.77-.68.36-.37.71-.76,1.03-1.16,0,0,0,0,0,0,.21-.29.42-.59.51-.75.16-.28.31-.56.45-.85.12-.27.21-.55.3-.83.09-.33.15-.67.18-.82.09-.65.15-1.3.16-1.8,0-.71-.03-1.43-.1-2.14-.06-.44-.14-.88-.24-1.29-.12-.44-.27-.87-.37-1.1-.29-.71-.59-1.43-.97-2.1-.1-.17-.21-.33-.33-.49-.12-.15-.24-.29-.38-.43-.39-.38-.81-.73-1.22-1.05-.52-.4-1.06-.8-1.62-1.14-.28-.16-.55-.31-.82-.43-.3-.13-.61-.24-.9-.32-.59-.17-1.19-.28-1.8-.38-.34-.04-.68-.07-.86-.08-.47,0-.94.02-1.41.07-.46.07-.91.15-1.37.26-.43.12-.83.28-1.24.43-.27.1-.55.18-.82.26l-.17.15c-.05.05-.11.09-.17.13-.57.38-1.33.31-1.84-.11-.11.08-.22.15-.32.23,0,0,0,0,0,0-.4.3-.78.63-1.14.99-.36.36-.7.74-.97,1.09-.22.29-.43.6-.6.85-.16.26-.29.53-.4.79-.04.08-.07.15-.07.17-.18.42-.32.86-.45,1.3-.1.38-.19.77-.26,1.17-.11.8-.19,1.61-.2,2.31,0,.5.01.99.05,1.43,0,.03,0,.06.01.09,0,0,0,.02,0,.01.06.39.13.77.22,1.14,0,.02.01.04.02.06,0,.02,0,.04,0,.03.11.39.24.77.39,1.16.21.51.45,1,.66,1.37.34.57.69,1.12,1.09,1.66.28.36.57.7.88,1.03.2.19.39.37.57.51.02.02.04.03.07.05.01,0,.02.02.02.01.21.15.42.3.65.44.22.13.45.25.68.36.2.09.41.16.62.23h.03c.54.15,1.09.29,1.57.38.04,0,.08.01.12.02h.03c1.09.16,2.19.29,3.06.32.57,0,1.12-.02,1.69-.09Z"/>
      <path d="m662,380.98c-1.48-.59-2.76-1.6-3.81-2.78-.95-1.05-1.72-2.24-2.26-3.54-.55-1.35-.78-2.87-.78-4.32-.02-3.09,1.5-6.09,3.86-8.06,1.14-.95,2.46-1.68,3.87-2.14.03-.4.21-.78.5-1.06.44-.43,1.03-.54,1.47-.43.06.01.12.03.14.03.02,0,.03,0,.04.01,0,0,0,0,0,0,0,0,.01,0,.02,0,.02,0,.04,0,.06.01.03,0,.06,0,.09,0,.17-.01.33-.03.5-.04.85-.04,1.7,0,2.53.16,1.2.22,2.36.64,3.44,1.2.6.31,1.16.66,1.68,1.07.5.39.95.84,1.35,1.33.47.55.85,1.17,1.23,1.79.38.63.71,1.28,1,1.96.62,1.51.71,3.13.53,4.74-.07.66-.2,1.32-.34,1.97-.15.65-.33,1.29-.55,1.91-.42,1.15-.95,2.23-1.74,3.17-.81.97-1.87,1.73-2.98,2.33-1.43.75-2.95,1.26-4.56,1.43-.36.04-.73.06-1.1.06-1.43,0-2.86-.29-4.18-.82Zm4.45-2.18c.47-.03.94-.09,1.2-.14.42-.08.82-.18,1.23-.31.3-.1.59-.22.89-.35.28-.14.55-.3.79-.44.02-.01.03-.02.05-.03l.03-.02c.31-.21.6-.43.89-.67.46-.4.9-.82,1.17-1.13.38-.42.75-.85,1.05-1.25.02-.03.04-.06.06-.09l.02-.03c.14-.21.27-.42.39-.64.16-.31.29-.61.38-.82.01-.04.03-.08.04-.12h0c.08-.25.15-.5.21-.73.05-.25.09-.5.09-.6.03-.32.03-.64.02-.97-.03-.38-.07-.75-.12-1.08,0-.02,0-.04-.01-.06v-.03c-.15-.69-.33-1.38-.48-1.87-.12-.38-.27-.76-.42-1.09,0-.02-.02-.04-.03-.05l-.02-.04c-.1-.19-.2-.37-.31-.56-.16-.24-.34-.48-.53-.71-.22-.24-.45-.46-.68-.68-.45-.41-.92-.8-1.4-1.16-.32-.22-.64-.42-.96-.59-.25-.12-.5-.23-.75-.34-.41-.15-.82-.27-1.25-.38-.41-.09-.81-.16-1.22-.2-.33-.02-.67-.03-.97-.03-.09,0-.19,0-.28,0-.01,0-.03,0-.04,0,0,0,0,0,0,0-.39.3-.96.37-1.42.23-.39-.12-.72-.38-.93-.72-.27.09-.52.2-.77.31-.02.01-.04.02-.06.03-.38.19-.74.4-1.08.6-.36.24-.71.5-.98.72-.31.26-.6.54-.87.84-.25.29-.49.59-.67.83-.22.32-.42.64-.59.96-.18.36-.35.73-.48,1.08-.15.44-.28.88-.38,1.32-.1.5-.18,1-.21,1.38-.04.46-.05.9-.04,1.31,0,.04,0,.07,0,.11,0,0,0,.01,0,0,.02.32.06.64.12.96.07.35.17.71.28,1.05.15.42.32.82.5,1.22.18.36.37.71.58,1.05l.04.06c.16.24.34.48.52.71.21.24.43.47.66.69.01.01.02.02.02.02.01.01.03.02.04.04,0,0,.02.01.02.02.2.18.41.34.63.5.31.21.62.4.95.58.52.27,1.05.51,1.42.64.45.16.92.3,1.26.39.05.01.1.02.15.03h0c.41.08.81.15,1.23.19.34.02.68.03,1.01.02Z"/>
      <path d="m665.95,373.92c-1.16-.02-2.3-.49-3.12-1.3-1.44-1.43-1.38-3.93.06-5.33.25-.24.54-.43.86-.57.07-.78.68-1.47,1.5-1.57.06,0,.12,0,.16-.02.04,0,.09,0,.14-.01h0c.73-.11,1.47.06,2.13.4.47.24.9.56,1.28.92.46.43.77.99.98,1.58.55,1.68.19,3.57-1.11,4.81-.76.73-1.76,1.1-2.8,1.1-.02,0-.04,0-.06,0Zm-.26-2.73c.06,0,.12-.02.18-.03.06-.02.12-.03.18-.05.07-.03.14-.06.21-.09.07-.04.15-.08.22-.13.08-.05.16-.11.23-.18.04-.04.08-.08.11-.11.03-.04.06-.07.08-.11.03-.05.06-.09.08-.14.02-.05.04-.1.06-.16.02-.06.04-.12.06-.19,0-.05.01-.09.02-.14,0-.03,0-.07,0-.1,0-.03,0-.07-.01-.1-.01-.04-.02-.08-.03-.12-.02-.05-.04-.1-.06-.15-.02-.03-.04-.07-.06-.1-.08-.11-.16-.21-.24-.31-.04-.04-.08-.08-.12-.12-.05-.04-.09-.07-.14-.11,0,0,0,0-.01,0-.03,0-.06-.02-.07-.02-.01,0-.03,0-.04,0-.06-.02-.12-.03-.14-.03-.07-.02-.15-.03-.2-.04-.05,0-.09-.01-.09-.01-.1,0-.19-.02-.29-.04-.42.03-.83-.09-1.15-.33-.03.06-.07.12-.1.18-.04.1-.09.2-.13.3-.03.09-.05.19-.07.28-.01.07-.02.14-.03.15,0,.03,0,.06,0,.1v.03c0,.11,0,.21,0,.23,0,.08.02.15.03.23.01.06.03.13.05.19.04.1.08.19.12.29.04.07.08.15.13.22.05.07.1.14.16.2.07.07.14.14.21.21.05.04.11.08.16.12.04.03.09.05.13.08.06.02.11.05.17.07.04.01.07.02.11.03.05,0,.1.01.16.02.05,0,.09,0,.14,0Z"/>
      <path d="m566.9,362.11c-2.53-3.25-9.27-12.34-3.8-15.33,1.28-1.46,1.81-3.13,2.59-4.8.89-1.44,2.91-1.84,4.3-.9,2.59-.67,3.04-5.02,6.04-4.34,2.78-.75,5.16-2.43,7.32-4.24.73-.7,1.66-1.16,2.69-1.17,2.08.19,4.1-.04,6.16-.13,1.56-.34,2.74-1.4,3.97-2.34.6-.51,1.54-.62,2.22-.26,1.71.45,3.33,1.33,5.02,1.71,0,0,0,0,0,0,2.39-1.35,5.5-4.02,7.78-.96.79.83,1.25,2.42,2.55,2.45-.02,0-.05,0-.06,0,0,0,0,0-.01,0-.02,0-.04,0-.05,0,.66-.08.99-.8,1.49-1.19,1.3-1.28,3.62-.69,4.57.73.83,1.48,1.37,3.4,1.02,5.07-.07.75.28,1.39.19,2.12-.49,2-.54,3.91-1.47,5.71-1.05,2.97-2.16,5.85-2.38,8.94-.13.76.51,1.89-.57,2.11-.51.08-.92-.36-.89-.86-.15-1.3-.37-2.59-.52-3.88-.44-2.85.78-5.72,2.64-7.83.4-2.1,1.49-4.03,1.04-6.19.21-1.18-.04-2.36-.38-3.4-.2-.73-.6-1.23-1.38-1.26-.98.06-1.51,1.17-2.36,1.57-1.54.87-3.28-.25-4.2-1.53-.63-.72-1.03-1.88-2.12-1.84-1.91.29-3.33,2.4-5.4,2.08-2.46-.45-5.1-3.48-7.13-.9-2.81,2.53-6.8,1.44-10.21,1.88-3.27,1.8-6.12,5.35-10.02,5.81-1.07.61-1.15,2.02-2.01,2.83-1.46,1.45-3.51,3.03-5.48,1.56-1.16.94-1.57,5.32-3.69,6.57-.49,4.07,3.36,6.84,5.48,9.8,1.3,1.81-1.36,4.05-2.91,2.42Z"/>
      <path d="m688.77,354.93c-1.39-.6-.75-2.31.11-3.03,1.57-2.09,3.28-4.06,5.08-5.96.99-1.71,1.81-3.75,1.82-5.74-1.09-.1-2.32-.05-3.13-.91-.74-.7-.97-1.7-1.13-2.67-2.61.22-5.8-2.31-3.91-4.94-3.42.47-7.58,4.13-10.27.5-.7-.4-1.53-.86-2.33-.91-3.58,2.04-7.56,3.24-10.18-.65-3.19.41-6.62,2.22-9.63.31-2.91,1.07-6.02,2.88-9.04.94-1.87.9-2.44,2.93-2.26,4.82.43,3.76.53,7.65,1.34,11.27.35,2.11,1.5,4.29.96,6.42-.12.19-.32.27-.53.27-.43,0-.67-.57-.34-.85,0-.11.01-.23,0-.29-1.22-3.15-3.25-6.43-3.37-9.84-.58-4.27-1.48-10.4,2.88-12.95,1.81-1.23,3.26.88,5.29.43,1.81-.4,3.37-1.44,5.22-1.56,1.28.47,2.66,1.02,4.07.67,1.99-.28,5.38-1.84,6.84.07.39.48.88.85,1.44.97,2.61.53,4.74-1.45,7.14-2.02,1.93.07,3.71,1.09,5.03,2.4,0,0,0,0,0,0,2.54-.54,5-1.84,7.72-1.58,1.56-.12,1.82.84,1.36,2.07-.29.79.33,1.45,1.1,1.56,2.09.31,3.67-.38,4.17,2.28.18.5.19,1.11.55,1.54.63.29,1.35.37,1.93.75,1.43,1.08,1.31,3.31,1,4.9-.44,3.59-3.48,5.72-5.6,8.33-.93,1.16-1.36,4.02-3.34,3.41Z"/>
      <path d="m571.62,360.27c-.47-.49-5.38-11.22-2.55-8.75.75,2.94,2.24,5.46,3.74,8.06.45.76-.74,1.46-1.19.69Z"/>
      <path d="m573.97,355.64c-1.61-3.91-1.78-8.26-3.2-12.19.06-.77,1.03-.52,1.11.12.23.35.76.78.38,1.19.84,3.52,2.04,6.94,3.06,10.42.26.83-1.04,1.27-1.34.47Z"/>
      <path d="m579.89,355.88c-1.61-2.35-1.95-5.34-3.73-7.63-.35-.59-1.74-1.96-.51-2.3.27,0,.5.22.5.5,1.81,2.3,2.71,5.15,4.14,7.68.25.34.42.52.69.8.71.7-.46,1.74-1.09.95Z"/>
      <path d="m583.69,353.34c-2.07-3.3-2.73-7.25-4.31-10.78-.2-.47-.57-1.43.22-1.5.27,0,.5.22.5.5.83,2.58,2.1,5.19,3.27,7.6.3,1.25,2.67,3.46,1.45,4.5-.39.23-.9.09-1.13-.3Z"/>
      <path d="m581.06,343.71c-1-2.3-1.43-4.77-1.98-7.19-.12-.47.14-.95.6-1.08.53-.14,1,.22,1.1.73.36,1.71.79,3.36,1.5,4.96.34.99,1.59,2.47.2,3.16-.53.22-1.2-.03-1.42-.57Z"/>
      <path d="m588.21,337.33c-.34-1.25-2.05-3.18-1.47-4.36.33-.33.91-.26,1.14.15.4,1.27,1.05,2.46,1.59,3.67.35.81-.91,1.35-1.26.54Z"/>
      <path d="m597.27,342.3c-1.06-3.87-1.02-7.93-1.74-11.86,0-.27.22-.5.5-.5s.5.22.5.5c.35,2.34.83,4.83,1.29,7.15.19,1.62,1.04,3.3.86,4.9-.1.17-.26.3-.46.36-.4.11-.85-.13-.95-.54Z"/>
      <path d="m603.27,337.99c-.05-1.95-.15-3.8-.3-5.68-.18-.58-.12-1.82.78-1.36.47,2.16,1.05,4.53,1.71,6.74.39,1.59-2.13,1.96-2.19.29Z"/>
      <path d="m611.25,340.84c-.26-.04-.47-.29-.43-.56.24-2.23.83-4.48,1.03-6.66,0-.64,1-.64.99,0,0,.42,0,.84-.12,1.25-.41,1.84-.64,3.69-.92,5.54-.04.27-.29.47-.56.43Z"/>
      <path d="m609.13,345.96c0-.49.4-.89.89-.89s.89.4.89.89-.4.89-.89.89-.89-.4-.89-.89Z"/>
      <path d="m609.69,348.25c.18-1.32.12-2.58.3-3.88,0-.27.22-.5.5-.5s.5.22.5.5c-.12,1.12-.22,2.25-.15,3.36.38,1.18-.99,1.76-1.14.52Z"/>
      <path d="m647.07,347.34c.08-4.42,1.06-8.73,1.5-13.11.07-.73.15-1.72.96-1.99.59-.18.89.74.3.94-.04,0-.14.25-.16.28-.62,4.56-.39,9.15.23,13.68.24,1.97-2.82,2.18-2.85.19Z"/>
      <path d="m655.28,339.84c.38-2.86.72-5.8,1.02-8.64.36-.65,1.42-.27,1.27.46,0,0,0-.01,0-.02,0-.03,0-.06,0-.09.1,2.43-.19,4.91-.33,7.31-.07.78.07,2.04-1.03,2.06-.57,0-1.02-.52-.94-1.09Z"/>
      <path d="m662.88,347.59c-.59-5.02.88-9.98,1.62-14.92.12-.42.17-1.14.76-1.15.95.16.19.98.18,1.5-.7,3.63-1.19,7.32-.97,11.01-.12,1.36,1.28,3.82-.45,4.42-.53.07-1.08-.32-1.13-.86Z"/>
      <path d="m670.7,339.26c-1.16-.41.06-2.48.02-3.43.37-.8-.05-2.83,1.01-2.93,1.03.42,0,2.2.06,3.08-.37.91.12,3.17-1.09,3.28Z"/>
      <path d="m676.93,347c-2.64-.38.1-7.86.4-9.7.34-1.29.68-2.58.91-3.81.03-.62.55-1.13,1.19-1.04.65.08,1.09.8.84,1.41-.33,1.88-.54,3.78-.81,5.67-.55,1.75-.16,7.64-2.55,7.46Z"/>
      <path d="m680.25,352.81c-.26-.07-.43-.36-.35-.61.13-.43.28-.85.4-1.28,0,.02,0,.03,0,.05.11-.72,1.22-.41.95.26-.25.53-.18,1.69-.98,1.58Z"/>
      <path d="m684.99,347.46c-2.39-1.18,3.92-9.82,4.37-12.17.13-1.32,1.78-.59.95.29-.9,3.88-2.35,7.61-3.86,11.28-.24.56-.91.83-1.46.59Z"/>
      <path d="m690.58,344.93c-.36-.16-.56-.6-.4-.96.49-1.11,1.02-2.34,1.34-3.49-.15-1.22,1.46-1.68,1.51-.33-.23,1.53-.93,2.95-1.5,4.39-.16.37-.6.54-.96.39Z"/>
    </g>
    <g id="Vector_layer-3" data-name="Vector layer">
      <path d="m0,242.08c.07.59.15,1.18.22,1.77-.02,0-.04.01-.06.02-.06-.59-.11-1.19-.17-1.78Z"/>
      <path d="m623.17,478.67c-7.57-1.65-14.64-5.12-20.96-9.55-6.39-4.47-11.98-9.85-17.08-15.73-2.74-3.16-5.33-6.43-7.8-9.82-3.56-4.86-6.87-9.95-9.82-15.2-3.43-6.11-6.55-12.4-9.45-18.78-1.65-3.64-3.12-7.36-4.57-11.09-1.56-4.01-3.05-8.04-4.44-12.11-2.95-8.58-5.54-17.29-7.98-26.03-2.57-9.24-4.83-18.54-6.75-27.93-2.02-9.93-3.8-19.9-5.23-29.93-1.35-9.47-2.3-18.96-3.05-28.5-.29-3.61-.57-7.2-.8-10.8,0-.11,0-.22-.02-.4-1.17-18.21-1.12-36.5-.11-54.71.45-8.22,1.12-16.44,1.94-24.62.78-7.64,1.85-15.24,3.01-22.83,1.06-6.97,2.34-13.91,3.66-20.26,1.81-8.79,4.07-17.48,6.49-26.14,2.71-9.64,5.85-19.17,9.45-28.53,4.68-12.17,10.2-24.03,16.8-35.28,1.64-2.79,3.39-5.52,5.2-8.2h0c.05-.08.1-.16.12-.19,3.3-4.85,6.91-9.51,10.74-13.82,4.82-5.45,10.28-10.42,16.31-14.3.09-.06.18-.12.19-.13,1.29-.95,2.62-1.86,3.98-2.72-.7-2.05.5-4.36,2.64-4.99.09-.03.18-.05.27-.07.99-.42,1.95-.92,2.92-1.37,1.19-.56,2.41-1.06,3.64-1.52,2.51-.94,5.11-1.59,7.74-2.13,2.11-.42,4.21-.73,6.25-.88.08,0,.15-.02.22-.02.09,0,.16-.02.16-.02,3.43-.19,6.88-.05,10.29.49,3.71.58,7.29,1.61,10.79,2.95,7.02,2.67,13.51,6.64,19.29,11.43,6.54,5.42,12.38,11.74,17.49,18.51,2.47,3.28,4.78,6.67,7.02,10.1,2.35,3.59,4.57,7.26,6.59,11.06,4.2,7.91,7.69,16.2,10.89,24.55,1.46,3.79,2.87,7.61,4.05,11.06,3.12,9,5.7,18.17,8.16,27.38,2.53,9.44,4.61,18.97,6.3,28.61,3.36,19.2,5.85,38.54,7.11,57.98.63,9.64,1.03,19.29,1.17,28.94.13,8.94-.03,17.9-.38,26.83-.07-.06-.15-.13-.22-.18-.24-.19-.5-.34-.78-.47-.4-.19-.81-.36-1.23-.53-.2-.12-.4-.22-.6-.34-.3-.22-.59-.43-.88-.67-.41-.37-.81-.75-1.22-1.12.28-11.61.18-23.24-.23-34.86-.18-4.87-.42-9.73-.73-14.59-1.32-19.33-3.41-38.66-7.15-57.68-.06-.36-.14-.71-.19-1-.07-.36-.14-.71-.2-1-1.77-8.61-3.71-17.2-5.83-25.73-2.05-8.23-4.53-16.33-7.23-24.17-1.85-5.36-3.8-10.68-5.95-15.92-2.12-5.14-4.44-10.19-6.71-14.75-2.19-4.4-4.52-8.73-6.89-13.03-2.16-3.92-4.42-7.77-6.86-11.44-.02-.03-.03-.05-.05-.08l-.12-.18c-3.11-4.61-6.46-9.09-9.83-12.95-2.56-2.92-5.27-5.67-8.18-8.23-2.24-1.96-4.58-3.82-7.04-5.51-.11-.08-.22-.16-.33-.23-2.04-1.36-4.16-2.6-6.1-3.58-1.88-.95-3.81-1.8-5.51-2.4-1.88-.65-3.78-1.17-5.51-1.54-.13-.03-.26-.05-.4-.09h0c-1.76-.34-3.54-.6-5.16-.74-.09,0-.19-.02-.27-.02h-.09c-1.95-.12-3.91-.12-5.68-.03-.11,0-.22,0-.33.02h-.04c-2.04.16-4.08.44-6.09.84-1.36.29-2.72.68-4.05,1.13-.39.13-.78.27-1.16.4-2.09.73-4.14,1.6-6.14,2.57-.36.18-.71.37-1.05.58-.08.05-.16.11-.23.16-.1.1-.2.2-.32.3-1.54,1.3-3.9.94-5.22-.47-.51.33-1.02.66-1.51.98-1.29.88-2.52,1.79-3.61,2.74-.09.08-.19.16-.26.22-3.1,2.71-5.99,5.64-8.73,8.72,0,0,0,0,0,0-.05.05-.09.09-.11.11-.06.07-.12.14-.13.16-3.46,3.95-6.65,8.09-9.54,12.34-4.28,6.33-8.06,12.99-11.51,19.79-4.78,9.45-8.73,19.33-12.23,29.32-4.5,13.01-8.23,26.34-11.04,39.81-3.05,14.8-5.69,29.72-7.46,44.74-1.05,9.01-1.95,18.04-2.56,26.46-.57,8.2-.98,16.43-1.22,24.65-.26,9.38-.25,18.75-.14,28.14.12,9.06.32,18.12.88,27,1.31,19.58,3.34,39.14,6.87,58.46.55,2.99,1.14,5.99,1.73,8.92.02.06.02.13.04.19.02.07.02.13.03.16.04.19.08.39.09.5.02.08.03.16.05.24l.02.07c1.29,6.35,2.72,12.66,4.39,18.92,1.64,6.12,3.5,12.17,5.54,18.15.02.03.02.07.04.11.02.07.05.14.05.17.07.19.14.4.16.43,2,5.78,4.14,11.51,6.54,17.13,2.1,4.92,4.24,9.82,6.47,14.29,3.66,7.33,7.75,14.51,12.12,21.05,2.9,4.3,6.03,8.46,9.45,12.37,2.33,2.64,4.83,5.15,7.19,7.25.71.63,1.43,1.24,2.16,1.85.19.2.39.4.58.6.3.31.66.55,1.05.73,1.39,1.09,2.79,2.15,4.22,3.12,2.07,1.4,4.25,2.67,6.48,3.8,1.9.94,3.85,1.77,5.68,2.44.09.03.18.06.27.09l.05.02c2,.68,4.05,1.26,5.64,1.59,1.92.39,3.85.66,5.81.81,1.92.12,3.85.12,5.76,0,1.62-.12,3.23-.33,4.84-.62,2.02-.41,4-.95,5.95-1.6,1.99-.71,3.94-1.55,5.84-2.48,2.21-1.12,4.35-2.37,6.32-3.67,1.58-1.06,3.12-2.19,4.61-3.36.59-.12,1.17-.34,1.7-.62,1.08-.57,2.04-1.28,2.98-2.05,1.3-1.08,2.42-2.32,3.52-3.6.67-.79,1.22-1.64,1.44-2.62,2.03-2.09,3.95-4.16,5.72-6.16,2.95-3.34,5.6-6.92,8.1-10.6,4.7-7,8.68-14.42,12.51-21.93,4.71-9.36,8.82-19.03,12.3-28.91,2.83-8.13,5.2-16.4,7.45-24.7,2.35-8.69,4.5-17.44,6.36-26.24,1.8-8.75,3.32-17.56,4.42-26.43.97-7.73,1.71-15.47,2.32-23.23.29.08.58.12.88.12.45,0,.91-.09,1.34-.29.52-.22.94-.57,1.28-1,.33-.1.63-.26.88-.47.3-.23.52-.51.67-.81-.62,8.93-1.54,17.85-2.58,26.73-1.17,9.97-2.54,19.93-4.16,29.83-.89,5.44-1.87,10.87-2.89,15.83-1.93,9.37-4.36,18.6-7.12,27.75-2.85,9.44-5.99,18.8-9.6,27.99-2.38,6.06-5.02,12.02-8.05,17.79-2.42,4.63-5.02,9.15-7.8,13.58-2.63,4.2-5.47,8.28-8.41,12.26-2.57,3.47-5.42,6.76-8.52,9.76-2.91,2.81-6.09,5.39-9.41,7.71-3.74,2.62-7.71,4.87-11.92,6.65-6.42,2.71-13.34,4.12-20.26,4.12-3.57,0-7.13-.37-10.64-1.13Z"/>
      <path d="m637.89,712.79c-9.28-.06-18.49-1.47-27.28-4.47-8.25-2.82-16.13-6.93-23.45-11.65-3.93-2.53-7.81-5.19-11.4-8.18-1.26-1.05-2.5-2.14-3.71-3.25.34-.33.68-.67,1.02-1.01.08-.05.15-.12.22-.18.67-.6,1.34-1.22,1.98-1.85.53-.52,1.08-1.02,1.57-1.59.22.2.45.4.67.6,3.26,2.76,6.61,5.44,10.18,7.8,2.59,1.64,5.26,3.13,7.93,4.43.04.02.08.04.12.05l.05.03c2.69,1.25,5.43,2.36,8.25,3.3,2.54.8,5.11,1.44,7.73,1.96,3.88.7,7.79,1.15,11.73,1.38,2.88.11,5.75.07,8.63-.14,2.75-.27,5.49-.68,8.2-1.25,2.37-.55,4.69-1.26,6.99-2.07,4.99-1.88,9.78-4.21,14.52-6.65,4.74-2.51,9.28-5.37,13.68-8.42,3.39-2.4,6.65-4.92,9.74-7.68,3.93-3.62,7.73-7.45,11.23-11.48,4.17-4.99,8.02-10.3,11.59-15.72,2.09-3.26,3.98-6.63,5.68-10.1,2.81-5.91,5.26-11.98,7.32-18.17,1.33-4.23,2.41-8.51,3.23-12.75,0-.06.02-.12.03-.19l.02-.07c1.44-8.05,2.43-16.19,2.85-24.36.02-.57.04-1.15.06-1.72.24,1.46.51,2.92.86,4.36.58,2.41,1.23,4.8,2.02,7.15.4,1.16.81,2.33,1.23,3.49.21.57.42,1.14.63,1.71.12.32.23.65.36.97-.06.76-.13,1.52-.2,2.27-.51,5.19-1.34,10.33-2.23,15.47-.88,5.07-1.82,10.14-3.1,15.13-.8,3.12-1.71,6.19-2.59,8.87-2.96,9.03-6.26,18.03-10.86,26.37-2.38,4.33-5.16,8.5-8,12.53-3.47,4.9-7.6,9.34-11.92,13.5-8.27,7.97-17.99,14.34-28.93,17.99-4.3,1.43-8.82,2.34-13.32,2.85-4.19.48-8.41.75-12.64.75h-.67Z"/>
      <path d="m726.49,535.86c-.38-.43-.8-.78-1.29-1.04-.63-.69-1.22-1.42-1.84-2.11-.65-.72-1.51-1.18-2.47-1.22-.71-2.25-1.46-4.46-2.24-6.61-2.21-5.97-4.68-11.81-7.49-17.17-1.52-2.88-3.1-5.74-4.84-8.51-1.74-2.76-3.61-5.45-5.41-8.02-2.23-3.16-4.66-6.19-7.11-8.9-3.79-4.16-7.87-8.05-11.96-11.53-2.78-2.34-5.7-4.5-8.66-6.45-.04-.02-.08-.05-.12-.07l-.12-.08c-3.19-2.05-6.49-3.91-9.59-5.4-.19-.09-.38-.18-.57-.27.91-.53,1.75-1.16,2.57-1.83,1.29-1.07,2.4-2.3,3.5-3.57,2.16,1.24,4.26,2.57,6.31,3.97,5.13,3.5,9.95,7.45,14.42,11.75,1.41,1.34,2.78,2.73,4.09,4.16,0,0,0,.02.02.02.09.09.16.18.2.22,1.97,2.17,3.83,4.43,5.66,6.72,3.22,4.04,6.33,8.25,9.01,12.65,3.97,6.53,7.39,13.35,10.41,20.36,3.24,7.51,5.74,15.29,7.75,23.21-.07-.1-.15-.19-.23-.29Z"/>
      <path d="m547.39,654.28c-9.7-16.86-15.63-35.69-18.54-54.87-2.66-17.57-2.67-35.49.5-52.99,3.2-17.65,9.16-34.83,18.13-50.37,3.37-5.85,7.24-11.39,11.58-16.48,4.79-5.63,10.17-10.78,16.13-14.95,1.31-.91,2.65-1.78,3.98-2.68.52-.38,1.05-.76,1.57-1.12,0,0,.02-.02.03-.02h0c1.07-.75,2.16-1.49,3.26-2.2-.79-2.07-.09-4.72,1.95-5.82,1.84-.98,3.65-2.03,5.51-2.98.06.1.13.2.2.3.29.42.57.85.86,1.26.02.03.03.06.04.09.5,1.12,1.27,2.2,2.05,3.15.88,1.09,1.83,2.13,2.8,3.15-1.78.75-3.54,1.58-5.26,2.47-.42.22-.83.47-1.24.71-2.03,1.16-4.6.77-6.1-.97-1.05.67-2.08,1.37-3.02,2.02-.09.07-.19.13-.19.14-1.51,1.06-2.91,2.24-4.26,3.47-.03.03-.06.06-.09.09h0c-4.13,3.81-8.03,7.88-11.62,12.1l-.16.19c-3.53,4.17-6.78,8.55-9.61,12.89-.12.19-.26.39-.38.57-3.11,4.83-5.94,9.81-8.4,14.96-2.49,5.23-4.65,10.61-6.41,15.99-2.01,6.23-3.63,12.61-4.78,18.7-1.37,7.49-2.18,15.1-2.56,22.28-.42,8.42-.27,16.86.4,25.17.58,6.71,1.6,13.33,2.97,19.61,1.55,6.88,3.41,13.7,5.69,19.94,2.46,6.62,5.41,13.08,8.49,18.96,2.6,4.91,5.53,9.61,8.66,14.11,1.31,1.84,2.66,3.65,4.05,5.42-.03.03-.06.05-.09.08-.32.26-.66.5-1,.74-.08.04-.16.09-.24.12-.81.45-1.68.96-2.11,1.83-.24.51-.33,1.06-.27,1.6-.15.16-.28.32-.4.49-.08.09-.15.19-.23.29-4.43-5.48-8.38-11.33-11.9-17.44Z"/>
      <path d="m668.84,453.1s0,0,0,0c-.09.1-.18.2-.26.3.09-.1.18-.2.26-.3Z"/>
    </g>
    <g id="Vector_layer-4" data-name="Vector layer">
      <path d="m668.69,399.35c-4.35-.46-8.65-1.75-12.4-4.03-.24-.12-.37-.4-.26-.65.1-.24.41-.39.65-.26,2.75,1.73,5.73,2.75,8.95,3.15,1.67.29,3.35.48,5.05.4.34,0,.64.27.69.6-.02,1.27-1.84.73-2.67.8Z"/>
      <path d="m594.32,406.92c-3.44-2.91,4.48-3.18,6.01-3.88,1.93-.47,3.18-2.16,4.8-3.05.49-.01,1.33-.12,1.38.54-.05.89-1.12.16-1.48.64-1.75,2.25-4.09,3.83-6.81,4.71-1.28.32-2.57,1.34-3.9,1.05Z"/>
      <path d="m632.57,463.18c-1.01.31-10.01-3.89-7.47-4.69,3.3,1.44,6.85,3.63,10.57,2.69.49-.12.99.14,1.13.64.16,1.85-3.02,1.45-4.23,1.36Z"/>
      <path d="m638.36,462.14c-3.88,0-7.69-.71-11.34-2-.3-.06-.47-.41-.39-.69.1-.4.54-.5.88-.33,3.87,1.37,8.2,1.54,12.19.92,1.34-.4,2.37-2.78,3.81-1.78,1.41,1.7-3.72,4.23-5.16,3.87Z"/>
      <path d="m627.18,461.5c0-.57.48-1.05,1.05-1.05s1.05.48,1.05,1.05-.48,1.05-1.05,1.05-1.05-.48-1.05-1.05Z"/>
      <path d="m632.82,462.6c0-.54.46-1,1-1s1,.46,1,1-.46,1-1,1-1-.46-1-1Z"/>
      <path d="m636.44,462.1c0-.83.69-1.52,1.52-1.52s1.52.69,1.52,1.52-.69,1.52-1.52,1.52-1.52-.69-1.52-1.52Z"/>
      <path d="m541.74,531.98c-.26-.04-.46-.29-.43-.56.21-1.55.46-3.21.98-4.64.2-1.1,1.42-.41.84.63-.49,1.35-.63,2.73-.84,4.14-.03.27-.29.47-.56.43Z"/>
      <path d="m554.56,498.78c-.75-.74,1.05-2.32,1.36-3.16.82-1.21,1.69-2.37,2.43-3.61.14-.23.44-.32.67-.18.23.13.32.45.18.67-.69,1.14-1.52,2.32-2.27,3.37-.6.89-1.15,1.81-1.7,2.72-.14.24-.45.32-.68.18Z"/>
      <path d="m739.26,559.06c-1.34-1.24-1.84-3.13-2.9-4.61-1.64-2.12-3.32-4.2-4.68-6.52-2.81-4.78-5.54-9.71-10.44-12.65-1.16-1.12-3.19-3.36-1.22-4.67.83-.49,1.82-.16,2.33.61.56.84,1.28,1.57,2.09,2.19-.51-.83-1.03-1.55-1.61-2.24-.6-.43-1.24-.82-1.52-1.53-.32-.54.53-1.07.85-.5.18.51.65.8,1.08,1.09,6.08,4.76,8.84,12.32,14.33,17.68,1.87,2.26,7.76,7.72,5.48,10.65-.87,1.14-2.66,1.41-3.78.49Z"/>
      <path d="m729.49,550.92c-.49-1.23-2.99-3.93-1.42-4.9.46-.19,1.02.03,1.21.5.49,1.27,1.07,2.36,1.78,3.48.6,1.01-.98,1.95-1.57.92Z"/>
      <path d="m719.06,530.87c-.34-.67-4.63-7.6-1.92-5.92.72,1.89,1.78,3.63,2.78,5.41.32.56-.54,1.06-.86.5Z"/>
      <path d="m535.34,747.59c-1.11-9.43,1.82-18.52,2.16-27.86-.11-8.42,3.11-16.74,5.85-24.53,2.2-9.11,8.32-16.42,13.23-24.16,2.63-3.2,4.81-8.12,9.34-8.7.36-.05.7.22.75.57.06.42-.32.79-.71.76-2.44.43-3.57,3.11-5.04,4.85-3.28,4.43-6.13,9-9.14,13.58-3.1,4.11-4.87,8.81-5.93,13.79-3.12,9.34-3.54,19.13-4.02,28.86,0,4-1.58,8.02-2,11.89-.24,3.65-.12,7.3-.39,10.95-.07,1.02-1.09,1.8-2.06,1.8s-1.99-.78-2.06-1.8Z"/>
      <path d="m597.35,378.92c-4.92-.68-5.19-7.75.02-8.08,5.61-.8,5.33,8.62-.02,8.08Z"/>
      <path d="m660.66,369.05c1.04-5.99,10.77-5.28,8.67,1.43-1.31,5.61-9.2,4.3-8.67-1.43Z"/>
      <path d="m597.1,379.7c-6.49-.81-4.15-12.35,2.2-10.2,5.62,1.11,3.14,11.1-2.2,10.2Z"/>
      <path d="m570.6,370.36c-3.2-2.25-2.23-9.7,2.56-7.63,2.12,1.29,1.59,4.05.92,6.03.02,1.79-2.14,2.78-3.49,1.6Z"/>
      <path d="m577.92,386.48c-3.18-3.94-7.18-7.8-6.46-13.3-.12-1.04-.7-1.93-.92-2.94,0,0,0,0,0,0-.42-3.13,4.06-3.92,4.99-.99,1.32,1.5,1.76,3.35,1.91,5.29.43,1.63,1.17,3.16,1.41,4.84.35,1.93-.04,3.59.26,5.41.02.25.19.45.33.65.76,1.01-.87,2.14-1.53,1.04Z"/>
      <path d="m573.87,377.98c-1.42-.85-2.42-2.29-3.86-3.04-3.15-1.27-5.64-4.62-4.67-8.09.65-3.17,3.64-6.57,7.13-5.14,2.56,1.14,2.26,3.77,1.02,5.78,1.63,3.05,3.36,5.12,2.76,8.67,1.47,1.61-1.24,3.72-2.39,1.82Z"/>
      <path d="m549.84,380.17c-.19-1.4.59-2.6,1.7-3.38,1.5-1.75,3.32-2.78,5.26-3.91,3.29-2.54,6.79-5.14,10.89-5.82.92-.19,1.78-.33,2.68.02,1.21.35,1.18,2.2-.05,2.5-.54.22-1.05.48-1.54.8-4.43,2.67-7.66,7.23-12.01,9.86-.94.75-1.6,1.79-2.7,2.33-1.75.84-4.02-.49-4.23-2.41Z"/>
      <path d="m619.26,370.52c-2.3-1.39-.21-4.08.37-5.84-1.75-.55-1.85-2.65-1.68-4.18-1.49-2.03.44-5.11,2.91-4.08,1.44.67,2.23,2.23,3.43,3.22,1.72-2.36,5.08-1.48,7.51-.99,2.48-1.55,5.6-1.78,8.47-1.86.88-2.28,4.53-2.22,4.74.44,1.32.69,1.77,2.59.83,3.77-.06.61-.29,1.19-.69,1.69-.23.28-.51.55-.82.76-.67,3.12-4.61,3.06-4.66-.28-.03,0-.06-.02-.1-.03-2.24.37-4.59,1.22-6.86.81-2.4.43-5.03,1.8-7.44.97-.68,2.13-3.12,8.24-6.02,5.59Z"/>
      <path d="m643.81,362.54c-.83-.19-.95-1.26-1.2-1.88-1.59-2.23-.25-5.69,2.54-6.03,2.24-.42,3.9,2.48,2.45,4.23-.91,1.15-1.99,1.54-3.08,2.07,0,0,0,0,0,0-.07.17-.12.36-.1.55,0,0,0,0,0,0,.39.46-.07,1.2-.6,1.06Z"/>
      <path d="m642.22,360.31c-2.24-1.15,5.15-7.08,6-4.95.81,1.96-3.07,2.34-4.03,3.66-.61.54-.9,1.88-1.97,1.29Z"/>
      <path d="m644.36,359.73c-1.17-2.09,4.68-5.7,6.37-6.5,1.44-.52,2.98-.65,4.47-.9,2.32.47-2.05,2.76-2.71,3.2-2.36,1.59-5.08,2.63-7.28,4.43-.31.08-.66-.02-.87-.26,0,0,.03.04.03.04Z"/>
      <path d="m651.64,354.63c.14-.84,1.34-.92,1.97-1.22,1.06-.37,2.11-.74,3.16-1.13.26-.1.57,0,.67.27.12.29-.05.6-.33.71-1.12.34-2.15.74-3.22,1.1-.46.17-.94.3-1.34.53-.22.41-.93.24-.92-.26Z"/>
      <path d="m617,355.72c0-.27.22-.5.5-.5s.5.22.5.5-.22.5-.5.5-.5-.22-.5-.5Z"/>
      <path d="m572.23,363.03c-.3-3.56,4.13-4.33,6.33-6.07,2.72-2.13,5.79-3.75,9.23-3.57,1.63-.51,3.58-.77,5.16-.87,1.68-.61,3.39-.93,5.18-.97,1.66-.63,3.4-.31,5.11-.53,2.58-1.31,5.67-1.17,8.4-.74,1.58.36,2.59,1.64,3.59,2.8.89.34,1.8.89,2.06,1.89,1.28.24-.09,1.93-.65.77,0,0,0,0,0,0,0,0,0,0,0,0-1.54.02-3.03-.04-4.5-.49-2.77.52-5.59.06-8.38.47-3.12-.34-6.18.24-9.21.95-2.89.42-5.75.57-8.6,1.24-2.81,1.28-5.44,3.31-8.04,4.87-1.2.62-1.93,2.22-3.38,2.23-1.08,0-2.19-.79-2.29-1.94Z"/>
      <path d="m570.65,366.37c1.01-2.66,3.27-4.63,5.5-6.31,2.34-2.42,5.67-4.3,8.65-5.64,3.98-2.48,8.5-3.5,13.09-4.27,2.53-.74,5.12-1.27,7.74-1.48,1.16-.6,2.44-.82,3.73-.65,1.75.14,3.12,1.35,4.56,2.24,2,.85,3.54,2.36,5.26,3.64,1.32.78,2.08,2.23,1.7,3.74-.79,2.88-4.58,2.49-6.24.63-1.9-1.93-4.24-2.55-6.68-3.37-2.35.01-4.7-.37-7.05-.44-10.07.91-20.01,4.54-27.65,11.11-.21.26-.41.51-.61.78-.06.09-.12.19-.18.29.2,1.69-2.47,1.34-1.83-.25Z"/>
      <path d="m566.09,367.09c-2.54-5.55,13.22-11.93,16.95-14.04,6.45-3.57,13.65-4.74,20.86-5.37,5.89-.87,14.03-1.33,17.12,4.94,1.82.84,3.74,2.01,4.83,3.74,1.8,4.7-4.71,4.53-6.86,1.87-1.96.94-4.13.07-5.83-1.01-2.75-1.01-5.67-1.77-8.58-2.15-4.76-.2-9.32.72-13.85,1.95-4.61,1.52-9.64,2.7-13.58,5.61-3.33,1.18-7.67,8.67-11.05,4.46Z"/>
      <path d="m635.86,361.04c-2.77-.02-5.53-.75-8.22-1.01-2.54-.55-5.99-1.14-7.19-3.76-.24-.25-.22-.72.13-.87,5.03.64,9.53.13,14.55,1.97,6.32,1,10.07-4.96,15.3-7.15,8.62-4.08,18.83-3.69,27.9-1.32,3.83,1.08,8.34,1.67,11.24,4.61.88.77,1.74,1.49,2.37,2.5,1.26,1.98-.37,4.71-2.67,4.67-2.56-.16-4.82-1.7-7.07-2.81-9.43-4.9-21.09-3.1-31.05-.91-5.17,1.23-9.86,4.47-15.3,4.11Z"/>
      <path d="m713.82,367.17c-2.48-.05-4.48-2.35-6.77-2.83-3.79-1.58-8.14-.69-11.79-2.53-1.74-.7-3.62-1.18-5.26-2.06-.74-.47-.42-1.47.4-1.49,1.87-.31,3.48-1.34,5.31-1.72,3.22-.25,6.39.17,9.56.71,2.74.7,5.86.43,8.18,2.18,4.98,1.08,6.24,7.3.37,7.74Z"/>
      <path d="m715.67,366.73c-6.63-.72-13.38-1.28-19.85-2.98-3.05-.83-8.94.58-9.42-3.74.9-5.49,7.66-1.72,10.96-.92,3.77,1.28,7.87.99,11.64,2.4,2.41,1.18,5.37,1.33,7.45,3.1,1.72.35.79,2.92-.78,2.14Z"/>
      <path d="m650.3,345.82c-.17-3.17.09-6.33.52-9.47.04-.27.29-.47.56-.43.27.04.46.29.43.56-.23,1.81-.44,3.63-.53,5.43-.07,1.3-.04,2.6.02,3.91,0,.26-.23.5-.5.5-.28,0-.49-.23-.5-.5Z"/>
      <path d="m649.08,350.89c-.03-.49-.07-1.02-.1-1.52-.06-.34-.01-.78.4-.83.87-.03.51,1.25.65,1.77.3,1-.68,1.57-.95.58Z"/>
      <path d="m646.52,343.48c-.02-1.78-.04-3.54-.06-5.32,0-.64,1-.64.99,0,.02,1.78.04,3.54.06,5.32,0,.64-1,.64-.99,0Z"/>
      <path d="m657.92,347.35c-.02-1.01-.05-2.01-.12-3.01v.07c.07-.67-.55-1.88.35-2.12.29-.04.6.17.63.47.14,1.53.25,3.06.26,4.59,0,.3-.26.56-.56.56s-.56-.26-.57-.56Z"/>
      <path d="m670.01,347.94c-.09-1.09-.16-2.18-.22-3.27-.02-.27.23-.5.5-.5.87.16.4,1.45.58,2.09,0-.02,0-.05,0-.06-.09.67.55,1.89-.29,2.17-.26.04-.53-.16-.56-.43Z"/>
      <path d="m672.26,349.17c-.26-.04-.47-.29-.43-.56.29-1.63.61-3.24.98-4.85.47-1.97.92-3.94,1.36-5.92.05-.26.36-.42.61-.35.26.08.4.35.34.61-.45,2.03-.93,4.06-1.4,6.09-.36,1.53-.64,3.02-.92,4.55-.04.27-.29.47-.56.43Z"/>
      <path d="m681.11,345.73c-.56-.16-.29-.85-.22-1.21.33-1.56.57-3.04.79-4.61.09-.62,1.08-.51.98.14-.25,1.83-.56,3.57-.95,5.33-.06.26-.36.42-.61.35Z"/>
      <path d="m684.92,350.32c0-.6.51-1.12,1.12-1.12s1.12.51,1.12,1.12-.51,1.12-1.12,1.12-1.12-.51-1.12-1.12Z"/>
      <path d="m685.45,338.6c.11-.62-.38-1.83.48-1.97.86.14.39,1.35.51,1.97,0,.64-1,.64-.99,0Z"/>
      <path d="m599.85,433.27c-.33-.19-.41-.63-.19-.93.83-1.11,1.64-2.23,2.49-3.32.33-.75,5.81-6.95,5-3.8-2.84,1.98-4.57,5-6.43,7.82-.2.29-.57.41-.87.22Z"/>
      <path d="m604.97,435.37c-1.02-.57.15-2.06.26-2.92.11-.32.51-.45.81-.33.73.36.14,1.19,0,1.75,0,0,0-.01,0-.02-.26.54-.23,1.68-1.07,1.51Z"/>
      <path d="m613.7,433.89c0-.6.51-1.12,1.12-1.12s1.12.51,1.12,1.12-.51,1.12-1.12,1.12-1.12-.51-1.12-1.12Z"/>
      <path d="m612.18,444.18c.08-1.6.23-3.18.27-4.78.02-.47.38-.86.86-.86.52,0,.91.48.85.98-.12,1.59-.27,3.18-.46,4.77-.1.92-1.55.82-1.53-.11Z"/>
      <path d="m618.28,442.43c-.53-2.95-1.02-5.92-1.12-8.92,0-.27.23-.5.5-.5.28,0,.49.22.5.5.04,1.71.26,3.37.49,5.05.16,1.25.4,2.49.62,3.73.05.26-.16.53-.43.56-.27.04-.5-.15-.56-.43Z"/>
      <path d="m623.5,441.74c-.4-3.45-.73-6.99-.32-10.44.07-.26.35-.42.6-.35.26.07.42.35.35.61-.32,1.56-.05,3.1.17,4.64.28,1.81.7,3.4,1.19,5.13.15.54-.18,1.1-.71,1.25-.57.16-1.2-.24-1.28-.84Z"/>
      <path d="m638.86,441.18c-.71-3.25-1.02-6.66-2.37-9.71-.1-.26.02-.56.27-.67s.57.02.67.27c1.38,3.15,1.7,6.63,2.41,9.97.1.63-.89.77-.98.13Z"/>
      <path d="m647.92,438.21c-.36-2.27-.91-4.57-2.01-6.59-.18-.63-1.21-1.44-.54-2.02.81-.34,1.02,1.02,1.36,1.44,1.12,2.15,1.84,4.54,2.46,6.9.24.85-1.14,1.16-1.27.26Z"/>
      <path d="m653.95,442.05c-.23-3.95-.98-7.79-2.63-11.4-.1-.25,0-.54.26-.65.24-.1.55.02.65.26,1.62,3.69,2.53,7.62,2.88,11.63.1.75-1.07.92-1.16.16Z"/>
      <path d="m665.1,440.13c-2.49-6.55-7.92-10.85-14.06-13.79-.59-.25-.2-1.18.38-.92,4.64,2.46,9.34,5.33,12.74,9.4,1.11,1.34,1.82,2.95,2.54,4.51.18.41,0,.9-.38,1.12-.41.24-.99.11-1.23-.33Z"/>
      <path d="m624.67,419.89c-.7-.89.41-1.77.76-.71.47.59-.28,1.36-.76.71Z"/>
      <path d="m612.26,414.87c-.06-.37-.11-.91.38-.98.71-.1.87,1.3.18,1.4-.26.04-.53-.15-.56-.42Z"/>
      <path d="m619.35,392.14c-.26-.07-.41-.35-.34-.6.15-.75.33-1.54.78-2.17.27-.57,1.17-.16.9.41-.42.61-.58,1.29-.73,2.02-.06.26-.36.41-.61.34Z"/>
      <path d="m628.22,456.46c-2.58-.4-3.99-2.2-5.77-3.53-1.44-.67-3.78-1.19-3.55-3.22-2.8-3.28,9.05-1.69,10.63-2.14,3.11.14,6.14-.63,9.24-.66,3.5.09,7.34.43,10.5-1.26,1.3-.36,1.95,1.48.85,2.12-2.76,2.53-6.26,4.1-9.28,6.17-4.12,1.25-8.33,2.83-12.62,2.52Zm4.6-4.54c3.51-.32,7.05-.53,9.93-2.71-5.54-.45-10.84,1.18-16.37.76.91.67,1.75,1.28,2.69,1.85,1.33.08,2.69.1,4.03.07-.09,0-.19.02-.28.02Z"/>
      <path d="m633.57,452.04c-4,.09-7.98-.21-11.85-1.33-.48.45-1.33-.08-1.14-.7.17-.92,1.41-.78,2.14-.72,2.23.31,4.45.6,6.69.56.25-.98,1.39-1.4,2.29-1.45,1.9-.12,3.77-.49,5.68-.58,1.47-.01,4.49-1.45,4.35,1.11,3.29,3.32-6.45,3.24-8.16,3.11Z"/>
      <path d="m640.21,450.09c0-.46.38-.84.84-.84s.84.38.84.84-.38.84-.84.84-.84-.38-.84-.84Z"/>
      <path d="m540.38,536.56c-.26-.07-.43-.35-.35-.61.51-1.67,1.04-3.33,1.57-5,2.06-6.61,4.38-13.09,7.16-19.43,2.2-4.78,4.15-9.74,7.06-14.15.49-.46.87-1.8,1.68-1.39.21.16.26.48.08.7-5.03,7.09-7.98,15.49-11.26,23.5-2.02,5.27-3.66,10.66-5.33,16.03-.08.27-.35.43-.61.35Z"/>
      <path d="m564.15,490.56c-.22-.12-.33-.45-.18-.67.81-1.22,1.57-2.32,2.37-3.5.91-1.17,6.03-9.4,7.3-7.05-3.09,2.38-5.35,5.94-7.58,9.23-.59.57-1,2.29-1.91,2Z"/>
      <path d="m542.35,540.99c-.29-.12-.4-.45-.3-.74.74-2.14,1.51-4.27,2.29-6.4,2.54-6.8,4.9-13.78,8.75-19.98.58-.64,1.57-2.85,2.53-2.28.19.19.19.51,0,.7-3.58,3.96-5.26,9.15-7.3,13.98-1.82,4.78-3.54,9.6-5.23,14.43-.1.28-.47.41-.74.29Z"/>
      <path d="m708.53,512.24c-2.08-5.46-4.6-10.77-6.41-16.33-.08-.47-.27-1.33.42-1.37.27,0,.5.22.5.5.05,1.47.8,2.73,1.27,4.1,1.72,4.23,3.44,8.48,5.14,12.71.25.59-.67.98-.92.39Z"/>
      <path d="m544.14,632.8c-2.56-9.63-5.15-19.28-6.49-29.17-.33-2.72-.55-5.46-.54-8.21,0-.27.22-.5.5-.5.97.2.32,2.11.53,2.88.42,7.91,2.15,15.71,4,23.39.96,3.79,1.96,7.57,2.95,11.35.17.6-.79.9-.95.26Z"/>
      <path d="m555.12,641.79c-.76-2.01-9.26-14.11-7.01-14.61.27,0,.5.22.5.5.43,1.85,1.6,3.37,2.43,5.04,1.62,2.86,3.29,5.72,4.93,8.57.34.55-.53,1.07-.85.5Z"/>
      <path d="m554.32,698.05c0-.27.22-.5.5-.5s.5.22.5.5-.22.5-.5.5-.5-.22-.5-.5Z"/>
      <path d="m541.12,738.22c-.26-.04-.46-.29-.42-.56,1.09-7.68,2.16-15.34,3.47-22.98,1.13-5.81,2.3-11.57,4.16-17.19.72-1.57,1-3.93,2.65-4.76.62.05,2.02.04,1.95.91-.31.76-1.22.04-1.78.08-3.56,6.41-4.4,14.11-6.01,21.22,0-.02,0-.04,0-.05,0,0,0-.01,0-.02,0,0,0,0,0,.01,0,0,0,0,0,0-1.28,7.6-2.38,15.27-3.45,22.92-.04.26-.3.46-.57.43Z"/>
      <path d="m737.68,754.9c-.12-8.76-.4-17.5-.91-26.25-.15-2.63-.27-5.26-.3-7.89,0-.27.22-.5.5-.5s.49.22.5.5c.21,8.85.95,17.7,1.07,26.55.06,2.53.11,5.06.15,7.59,0,.63-1,.65-.99,0Z"/>
      <path d="m731.98,775.98c-.29-.08-.5-.4-.4-.69.84-2.42,1.66-4.92,2.47-7.33,1.33-3.88,1.97-8,3.57-11.78.11-.25.4-.37.65-.26.24.1.37.4.26.65-1.37,3.14-1.92,6.54-2.95,9.78-.93,3.09-1.9,6.18-2.91,9.24-.1.3-.4.48-.7.4Z"/>
      <path d="m700.05,824.75c-3.01-1.57-6.77-3.75-6.62-7.62-.02-.37.32-.68.68-.68,1.22.16.35,1.93,1.03,2.68,1.14,2.23,3.48,3.32,5.56,4.5.73.42.07,1.53-.65,1.12Z"/>
      <path d="m542.87,820.62c-.05-.41.24-.74.63-.83,1.93-.38,3.85-.76,5.78-1.13.43-.09.84.26.9.68.06.44-.26.82-.68.9-1.93.36-3.87.67-5.8,1.01-.39.07-.78-.24-.83-.63Z"/>
      <path d="m735.57,758.09c-4.02-1.38-3.45-10.33-1.96-13.53.52-.77.6-2.51,1.69-2.52.3.08.51.42.42.72-1.25,3.4-2.15,6.95-1.62,10.53.83,6.95,3.62,2.81,3.52-1.48.04-1.03,1.5-.92,1,.09-.04.12-.04.26-.05.37-.03,2.11-.53,5.38-3,5.82Z"/>
      <path d="m542.63,761.41c-2.44-.63-3.5-3.46-4.69-5.44-.32-.56.53-1.06.86-.5.86,1.38,2.71,5.81,4.68,4.73,1.65-1.72,1.54-4.41,1.86-6.65.17-3.82,1.15-8.82-2.33-11.4-.69-.55.24-1.27.81-.69,2.32,1.91,2.91,5.1,2.74,7.95-.38,3.15.36,11.73-3.93,12Z"/>
      <path d="m541.03,747.4c0-.6.51-1.12,1.12-1.12s1.12.51,1.12,1.12-.51,1.12-1.12,1.12-1.12-.51-1.12-1.12Z"/>
      <path d="m540.9,752.05c-.47-1.35-.81-2.78-.71-4.22.02-.23.16-.46.39-.52.16-.32.37-.79.82-.6.63.31.11,1.1-.24,1.43-.01,1.28.27,2.47.68,3.65.17.61-.78.89-.95.26Z"/>
      <path d="m537.53,238.94c-.11-4.19-.22-8.4-.33-12.59,0-.27.23-.5.5-.5.28,0,.5.22.5.5.11,4.19.22,8.4.33,12.59,0,.64-1,.64-.99,0Z"/>
      <path d="m536.27,255.51c-.42-16.55.16-33.16,1.82-49.62.78-7.02,1.49-14.14,3.02-21.02-.05-.32.14-.66.5-.66,1.17.28-.05,2.44-.04,3.28-1.94,10.91-2.92,22.03-3.69,33.06v-.07c-.65,11.66-.94,23.35-.61,35.02.01.63-.99.65-.99,0Z"/>
      <path d="m503.67,144.1c-.26-.07-.43-.35-.35-.6,1.26-3.77,2.4-7.59,4.04-11.22,2.13-4.96,5.67-9.19,9.75-12.68,1.9-1.41,3.79-3.49,6.24-3.76.64,0,.65,1,0,.99-1.13.04-2.05.91-2.95,1.45-5.94,4.27-10.78,10.07-13.22,17.02-1.07,2.83-1.96,5.6-2.89,8.46-.08.26-.35.42-.61.34Z"/>
      <path d="m569.99,101.33c-.67-.6-1.58-.71-2.41-.57-.46.06-.79-.49-.5-.87.5-.42,1.32-.23,1.92-.14.6.2,1.86.48,1.78,1.26-.09.33-.49.5-.78.32Z"/>
      <path d="m562.19,104.48c-.37-.87,2.11-1.43,2.11-.46-.02.63-.71.44-1.12.57-.29.16-.8.33-.98-.12Z"/>
      <path d="m563.59,103.22c-.63-1.04,1.02-1.45,1.62-1.99,1.45-.91,3.29-1.93,5-1.18.45.18.72.53,1.09.74.56.32.05,1.19-.5.86-1.28-1.28-2.91-.96-4.22.08-.95.4-1.93,2.41-2.99,1.5Z"/>
      <path d="m666.25,126.49c-.31-.54-1.33-.87-.93-1.56.65-.62,1.28.56,1.71.95.4.5-.39,1.12-.78.6Z"/>
      <path d="m662.39,124.63c-.41-.85-3.68-3.57-2.37-4.12.23-.06.5.06.59.28.62.89,1.33,1.72,2.02,2.55.3.38,1,.83.55,1.34-.22.22-.6.2-.79-.05Z"/>
      <path d="m681.41,88.9c-2.82-2.22-6.37-2.52-9.35-4.33-.22-.15-.32-.44-.18-.68.14-.22.45-.32.68-.18.81.54,1.69.95,2.57,1.24,2.43.64,4.67,1.77,6.87,2.93.68.36.05,1.42-.6,1.02Z"/>
      <path d="m656.89,87.3c-.23-.23-.24-.62,0-.85,1.07-1.04,2.19-2.07,3.4-2.97,1.25-1.09,7.13-4.1,6.65-.59.05.33-.14.68-.5.67-.65-.03-.49-.78-.45-1.22-3.38-.27-5.92,2.89-8.25,4.96-.23.23-.62.23-.85,0Z"/>
      <path d="m671.63,84.6s0-.07,0-.1c0,0,0,0,0,0,0,0,0,0,0,0,0-.01,0-.03,0-.05,0,.01,0,.02,0,.03,0,0,0-.01,0-.02,0,0,0,0,0,0-.01-.03-.02-.05-.03-.07.02.02.02.04.04.05-2.47-1.53-5.74-1.77-8.52-.88-.8.23-1.87,1.09-2.48.11-.55-1.02.66-1.54,1.43-1.85,3.21-1.36,7.02-.63,9.76,1.44.43.3.83.75.8,1.31,0,.64-1,.64-.99,0Z"/>
      <path d="m660.98,88.39c-.2-.2-.19-.5,0-.71.67-.73,1.37-1.48,2.26-1.95.9-.68,2.58-.04,1.92,1.19-.3.62-1.23.11-.87-.48-1.13.19-1.85,1.19-2.61,1.95-.18.2-.51.18-.7,0Z"/>
      <path d="m666.09,79.11c-1.33-.59-2.79-.98-4.2-.71-.73-.01-1.89,1.02-2.34.15-.08-.27.09-.53.35-.61,1.63-.63,3.4-.84,5.09-.3.56.3,1.97.33,1.75,1.21-.11.26-.4.36-.65.26Z"/>
      <path d="m561.91,100.8c-.21-.16-.26-.49-.09-.69,1.08-1.28,2.33-2.77,4.13-2.81.68-.04,1.28.32,1.83.66.27,0,.5.22.5.5-.26,1.17-1.47-.08-2.09-.16-1.27-.09-2.27.91-3.04,1.78-.35.33-.68,1.11-1.25.73Z"/>
      <path d="m565.87,136.25c-.25-.75.91-.82,1.28-1.17.87-.43.97-1.47,1.7-2,.14-.08.34-.11.44-.23.62-.75,1.36.4.55.84-.9.38-1.02,1.5-1.86,2.02-.55.31-1.61,1.31-2.11.54Z"/>
      <path d="m563.14,136.11c-.71-.26-2.09-.54-1.89-1.54.11-.55.96-.48.98.08.36.23.8.29,1.2.4.68.17.39,1.25-.29,1.05Z"/>
      <path d="m682.06,92.73c-.18-.85-.36-1.75-.62-2.56-.06-.17-.12-.33-.19-.47,0,0,0-.01-.01-.02-1.19-.11-.87-1.7.23-1.66,1.79.46,1.52,3.08,1.74,4.55.03.65-.99.79-1.14.16Z"/>
      <path d="m563.26,480.25c-4.48-2.83,4.17-9.65,6.42-11.69,3.91-3.42,7.65-7.07,12.13-9.77,2.26-1.31,5.11-2.57,7.71-1.63.58.19.92,1.03.3,1.37,0,0,0,0,.01,0-3.93.89-6.69,3.96-9.66,6.47-4.46,3.93-8.94,8.01-12.94,12.39-.93,1.37-1.91,3.73-3.97,2.85Z"/>
      <path d="m553.22,489.34c1.85-3.92,5.45-6.92,7.83-10.57,5.39-8.15,13-14.33,20.85-19.95,1.91-1.41,4.76-5.37,7.19-2.94.71.89.52,2.26-.38,2.95-6.75,5.59-14.13,9.61-20.59,15.44-3.05,2.88-5.69,6.18-8.73,9.07-1.8,2.03-4.29,3.7-5.21,6.26-.16.61-1.12.36-.95-.26Z"/>
      <path d="m577.84,473.51c-1.52-1.31,12.36-14.68,13.77-12.38.1.24,0,.56-.26.65-1.64.4-3.1,1.41-4.3,2.47-2.99,2.86-6.23,5.65-8.53,9.08-.15.23-.44.32-.67.18Z"/>
      <path d="m574.53,473.84c-2.69-3.25,11.53-12.14,14.15-14.13.28-.12.6-.3.9-.16.59.25.31,1.32-.35,1.08-4.55,4.11-10.13,7.52-13.3,12.85-.28.48-.92.64-1.4.36Z"/>
      <path d="m574.22,477.48c-2.09-2.93,12.01-14.91,15.17-14.63.95-.15.8,1.32-.12.98-1.79.26-3.21,1.82-4.71,2.8-2.92,2.38-5.85,4.68-8.01,7.78-.56.88-1.03,1.82-1.48,2.74-.16.32-.52.49-.85.34Z"/>
      <path d="m569.99,483.39c-1.38-1.18.97-2.73,1.47-3.88,1.73-2.13,3.16-5.09,5.81-6.13,1.05-.15,1.16,1.52.1,1.52-2.6,2.18-4.11,5.42-6.08,8.15-.29.44-.86.61-1.31.34Z"/>
      <path d="m585.2,29.01c-.74-.74-.87-2.02-.19-2.84,1.16-1.33,2.02-2.89,3.28-4.13,5.42-6.69,12.95-11.33,20.47-15.23.92-.23,4.23-1.91,4.31-.43-.08.45-.56.8-.92.44-5.89,2.63-10.63,7.74-15.05,12.12-2.74,2.22-8.25,13.2-11.91,10.07Z"/>
      <path d="m582.79,33.27c-.22-.13-.33-.45-.18-.67.86-1.29,1.76-2.54,2.84-3.66,4.37-4.35,8.13-9.33,13.22-12.92,4.14-2.97,8.68-5.46,12.93-8.12,1.78-.56,3.19,1.87,1.82,3.14-4.08,3.59-9.99,4.33-14.2,7.71-5.59,4.01-11.24,8.31-15.39,13.79-.25.36-.51,1.01-1.04.72Z"/>
      <path d="m585.79,26.4c.06-1.8,2.34-3.07,3.24-4.36,1.87-2.18,3.28-4.72,5.6-6.48,2.46-2.69,5.92-4.02,8.97-5.81,2.06-1.4,4.38-2.53,6.83-2.93.26-.06.54.09.61.35.1.89-1.27.72-1.84.93-4.59,2.4-9.25,5.47-12.72,9.39-2.03,1.31-8.78,13.82-10.69,8.92Z"/>
      <path d="m583.67,33.33c-2.39-1.56,4.41-6.59,5.41-8.11.65-.58,1.77-2.7,2.73-2.01.16.21.12.53-.09.7-1.08.82-1.88,1.92-2.66,3.02-1.39,2-2.62,3.87-3.75,5.99-.32.57-1.09.75-1.64.43Z"/>
      <path d="m725.69,253.65c-.41-.07-.4-.48-.42-.8-1.94-1.18-4.35-1.55-6.51-.94-1.22.36-2.16.81-3.26,1.35-.34.18-.78.07-1-.26-.71-1.78,3.8-2.83,5.1-2.89,2.05.04,5.26.89,6.62,2.42.17.43.09,1.2-.53,1.12Z"/>
      <path d="m727.32,256.1c-.51-.06-.61-.63-.5-1.04,0,0,0,0,0,0,0,0,0,0,0,0,0,0,0,0,0,0,0,0,0,0,0,0,0,0,0,0,0,0,0,0,0,0,0,0,0,0-.03-.03-.02-.02-1.18-.72-2.61-1.24-3.97-.96-.63.13-.85-.84-.22-.97,1.35-.35,5.36.37,5.17,2.19.31.34-.03.9-.47.81Z"/>
      <path d="m721.89,249.68c-1.68-1.55-4.56-2.07-6.83-1.91-.88-.07-2,1.23-2.65.48-.12-.24-.03-.57.22-.68,3.1-1.58,7.6-.82,10.08,1.55.39.57-.52,1.13-.85.52,0,0,.03.05.03.05Z"/>
      <path d="m582.89,263.35c-.03-.06-.08-.12-.1-.14-2.29-1.57-5.18-2.07-7.71-3.17-.26-.09-.36-.41-.26-.65.11-.26.4-.36.65-.26,2.52,1.05,5.28,1.67,7.64,3.06.26.17.49.39.66.64.35.57-.56,1.09-.88.52Z"/>
      <path d="m581.37,258.71c-1.27-1.21-2.77-2.03-4.39-2.64-.26-.09-.37-.4-.26-.64.11-.26.4-.36.65-.27,1.69.64,3.29,1.52,4.61,2.78.5.39-.1,1.19-.6.78Z"/>
      <path d="m580.11,255.76c-.35-.56-.68-1.16-1.24-1.54-.22-.16-.26-.49-.09-.7.95-.66,1.71,1.11,2.23,1.72.35.57-.55,1.09-.89.52Z"/>
      <path d="m519.67,379.14c-.19-.19-.19-.51,0-.7,1.17-1.27,2.7-2.09,4.26-2.8.59-.26.98.66.39.91-1.13.51-2.28,1.12-3.22,1.88-.41.31-.86,1.19-1.43.71Z"/>
      <path d="m520.46,376.48c-.79-.87,2.01-2.63,2.47-1.71.24.93-1.31.76-1.61,1.41-.05.36-.56.6-.86.29Z"/>
      <path d="m521.51,375.19c-.14-.22-.06-.54.18-.67,1.03-.59,2.1-1.11,3.19-1.59.25-.12.55.02.65.26.21.84-1.14.9-1.62,1.27-.75.17-1.72,1.43-2.39.73Z"/>
      <path d="m491.4,236.96c-2.28-.97,9.55-8.78,7.42-5.29-2.52,1.17-5.13,2.83-6.77,5.02-.11.25-.41.37-.65.26Z"/>
      <path d="m491.34,235.11c-.01-.26.06-.54.26-.73,1.46-1.26,3.29-2.01,5.03-2.79.25-.11.55.02.65.26.11.25-.02.54-.26.65-1.65.74-3.3,1.41-4.68,2.55.07.68-.99.74-.99.06Z"/>
      <path d="m493.04,231.85c.83-1.01,2.19-1.43,3.36-1.92.26-.09.54,0,.65.27.1.24,0,.55-.26.64-.97.39-2.01.75-2.8,1.43-.19.76-1.35.26-.95-.42Z"/>
      <path d="m494.31,227.6c-.84-1.9,2.74-1.93,3.92-2.16,1.09-.16,1.33,1.56.22,1.69-.95.12-1.98.09-2.85.53-.37.33-.97.36-1.29-.06Z"/>
      <path d="m781.52,177.6c-.48-2,3.45-.95,4.58-1.14,1.17-.88,2.59,1.16.5,1-1.29.03-2.64-.19-3.85.16-.38.26-.94.48-1.23-.02Z"/>
      <path d="m780.85,180.43c-.22-.28-.16-.69.12-.91,2.11-1.67,4.88-2.28,7.51-2.29.6.06,1.55-.54,1.82.27.1.34-.14.7-.49.75-1.3.13-2.51.08-3.76.35-1.44.31-2.73.92-3.95,1.71-.36.3-.89.58-1.25.12Z"/>
      <path d="m778.06,176.62c-.33-.75.8-.97,1.3-1.22,1.69-.55,3.63-1.55,5.36-.72.78.53-.17,1.67-.67.76,0,0,0,0,0,0-1.89-.25-3.7.61-5.32,1.36-.22.15-.54.05-.67-.18Z"/>
      <path d="m814.03,206.01c-.93-.19-3.75-.4-3.45-1.72.14-.33.54-.5.88-.36.9.43,1.83.76,2.81.95.28.06.46.36.42.64-.04.33-.34.54-.65.5Z"/>
      <path d="m816.53,206.2c-2.75-.34-5.58-1.12-7.91-2.57-.57-.19-1.2-.65-.91-1.33.2-.47.77-.64,1.21-.4.99.57,1.95.95,3.01,1.32,1.72.51,3.27.75,4.98,1.15.45.1.74.59.68,1.03-.07.51-.56.89-1.06.81Z"/>
      <path d="m731.29,92.71c-1.16.03-2.26-.29-3.37-.5-.58.55-1.21-.46-.6-.87.8-.39,1.71.23,2.53.21,1.92.13,3.72-.29,5.6-.55.33-.05.64.19.68.52.05.34-.19.64-.52.69-1.43.2-2.87.51-4.33.5Z"/>
    </g>
  </g>
  <g id="Vector_layer-5" data-name="Vector layer">
    <path d="m883.24,361.88c-3.03-.3-6.04-.76-9.03-1.36-1.46-.29-2.9-.64-4.34-1-1.38-.35-2.74-.77-4.1-1.18-.76-.23-1.51-.5-2.26-.76-.69-.24-1.38-.49-2.06-.75-1.35-.51-2.69-1.08-3.99-1.68,0,0,0,0,0,0,.1-.13.18-.28.23-.43.01-.02.03-.05.04-.07.16-.14.31-.3.45-.45.28-.3.56-.6.83-.91.69.31,1.38.62,2.07.92,1.36.57,2.74,1.08,3.99,1.54,1.74.59,3.49,1.17,5.27,1.64,1.8.48,3.6.92,5.42,1.29,1.86.36,3.72.67,5.59.94,1.93.27,3.88.45,5.68.58,2,.12,4.02.23,6.03.22,1.04,0,2.08,0,3.12-.04,1.08-.04,2.15-.1,3.23-.16,2.09-.16,4.18-.34,6.25-.62,1-.13,1.99-.27,2.98-.43,1.08-.18,2.16-.38,3.23-.58,1.11-.23,2.2-.46,3.29-.71,1.1-.25,2.19-.54,3.27-.83,2.18-.58,4.31-1.29,6.33-1.98,1.71-.62,3.41-1.27,5.09-1.99,1.69-.73,3.34-1.52,4.99-2.34.66-.35,1.33-.7,1.98-1.05.7-.38,1.38-.78,2.06-1.16.64-.36,1.27-.76,1.89-1.15.64-.39,1.26-.81,1.87-1.2.01,0,.02-.01.03-.02l.03-.02c.54-.37,1.08-.74,1.61-1.12.65-.46,1.29-.93,1.92-1.41,1.16-.87,2.27-1.8,3.3-2.68.94-.83,1.88-1.67,2.77-2.55.97-.96,1.91-1.95,2.82-2.96,1.41-1.62,2.72-3.3,3.89-4.98,1.09-1.62,2.11-3.28,2.98-5,.06-.11.11-.22.16-.33.76-1.51,1.43-3.07,1.97-4.62.08-.22.15-.44.2-.56.49-1.5.91-3.02,1.24-4.54.33-1.69.58-3.39.7-5.1.04-.78.07-1.55.07-2.33s-.02-1.52-.06-2.23c0-.03,0-.05,0-.08v-.02c-.06-.75-.13-1.5-.23-2.25-.11-.83-.26-1.65-.41-2.47-.18-.8-.36-1.6-.58-2.39-.22-.81-.48-1.61-.72-2.29-.28-.78-.58-1.54-.9-2.31-.31-.75-.68-1.48-1.02-2.17-.38-.73-.77-1.47-1.2-2.18-.43-.71-.88-1.4-1.33-2.09-.48-.69-.97-1.37-1.48-2.04-.51-.66-1.04-1.3-1.58-1.94-.68-.77-1.37-1.52-2.08-2.25s-1.47-1.43-2.23-2.12c-.94-.82-1.89-1.62-2.87-2.39-.98-.76-1.99-1.48-2.93-2.13-1.09-.73-2.2-1.43-3.33-2.1-1.05-.62-2.11-1.19-3.19-1.75-.66-.34-1.32-.66-2-.98-.69-.33-1.4-.63-2.11-.94-1.41-.61-2.85-1.13-4.19-1.63-1.79-.61-3.6-1.19-5.43-1.68-1.88-.51-3.78-.94-5.67-1.33-.04,0-.07-.02-.1-.02-1.86-.34-3.71-.67-5.59-.89-1.08-.13-2.16-.25-3.25-.36-.91-.09-1.82-.15-2.73-.21-.88-.05-1.76-.1-2.64-.12-1.02-.02-2.04-.05-3.06-.05-1.81,0-3.62.03-5.32.13-.17.01-.34.02-.48.03-.44.03-.88.06-1.3.09-.03,0-.06,0-.09,0h-.02,0c-.12,0-.25.02-.38.03-.02,0-.05,0-.07,0-.01,0-.02,0-.02,0h-.03c-.89.08-1.79.15-2.69.25-1.04.12-2.07.24-3.11.38-1.96.27-3.92.61-5.86.98-.97.21-1.94.41-2.9.64-1.14.28-2.28.57-3.41.87-1.94.52-3.85,1.14-5.67,1.75-1.64.59-3.25,1.2-4.87,1.86-.81.33-1.61.69-2.41,1.05-.73.34-1.46.66-2.18,1.02-.04.02-.07.04-.11.05-.13.07-.27.13-.37.18-.09.04-.18.09-.19.1-.16.08-.33.16-.5.25-.07.04-.14.07-.14.07-.06.03-.12.07-.17.09-.66.34-1.31.68-1.96,1.04-.77.43-1.53.87-2.29,1.31-1.34.78-2.62,1.64-3.91,2.5-.59.41-1.18.82-1.77,1.25-.62.45-1.23.92-1.84,1.38-1.18.89-2.29,1.87-3.35,2.79-.02.02-.05.04-.07.06-1.97,1.79-3.86,3.64-5.59,5.59-.71.81-1.41,1.64-2.07,2.49-.69.89-1.36,1.8-1.98,2.72l-.36.56c.44.44.59,1.17.23,1.71-.03.05-.06.09-.09.13-.18.29-.35.59-.52.89-.25.45-.48.91-.66,1.26-.44.88-.86,1.77-1.26,2.67-.38.86-.71,1.73-.96,2.44-.54,1.59-.99,3.2-1.31,4.66l-.06.29c-.31,1.56-.52,3.13-.64,4.71-.05.79-.09,1.57-.09,2.36,0,.84.04,1.67.09,2.51.12,1.54.34,3.07.61,4.47.34,1.6.77,3.16,1.29,4.71.49,1.36,1.05,2.68,1.67,3.94.77,1.51,1.62,2.97,2.55,4.36.5.73,1.03,1.46,1.56,2.16.58.76,1.2,1.49,1.74,2.13.03.03.05.06.08.09h0c1.45,1.64,2.99,3.18,4.62,4.64.83.72,1.68,1.43,2.55,2.11.3.23.6.46.91.69-.29.36-.58.72-.84,1.1.02-.02.03-.04.04-.07-.02.02-.04.05-.05.07h0s-.02.02-.02.03c0,0-.01.01-.02.02,0,0,0,0,0,0-.01.02-.02.03-.03.05,0,0,0,.01-.01.02,0,0,0-.01.01-.02-.05.07-.1.14-.14.21,0,0,0,0,0-.01,0-.01.02-.02.03-.04,0,.01-.02.02-.03.04-.07.09-.13.19-.2.29.02-.03.04-.06.06-.09-.09.13-.18.26-.27.38-.33-.23-.65-.47-.97-.7-1.12-.84-2.22-1.72-3.29-2.64-2.23-1.92-4.28-4.06-6.09-6.37-2.75-3.51-4.98-7.45-6.41-11.54-.06-.19-.13-.38-.16-.45-.96-2.76-1.57-5.63-1.85-8.54-.27-2.82-.19-5.66.15-8.46.11-.92.27-1.83.44-2.66.59-2.88,1.51-5.66,2.67-8.35.63-1.46,1.33-2.91,2.12-4.29.09-.15.18-.3.26-.46.03-.05.05-.11.08-.16.32-.59,1.07-.82,1.68-.61.39-.62.8-1.23,1.18-1.8,1.57-2.34,3.27-4.59,5.18-6.66,2.04-2.22,4.29-4.23,6.62-6.14.61-.5,1.24-.98,1.88-1.45.68-.51,1.37-1.02,2.05-1.48.66-.45,1.32-.89,1.98-1.32.63-.41,1.27-.8,1.91-1.2,1.31-.81,2.67-1.55,4.03-2.28,2.6-1.4,5.3-2.6,8.03-3.73.54-.22,1.09-.43,1.63-.64.57-.23,1.15-.44,1.65-.61l.09-.03c.54-.18,1.07-.37,1.52-.52.61-.21,1.23-.42,1.86-.61.69-.21,1.38-.43,2.08-.62,1.45-.4,2.91-.81,4.38-1.14.77-.17,1.54-.36,2.31-.51.77-.15,1.54-.3,2.31-.46.78-.16,1.56-.27,2.34-.4.77-.13,1.54-.23,2.3-.34,1.5-.22,3.01-.35,4.51-.5,1.48-.14,2.97-.21,4.45-.29,1.49-.07,2.98-.08,4.48-.08s3.06.07,4.59.14c1.51.07,3.01.22,4.52.36,1.43.14,2.84.36,4.26.56,1.48.21,2.95.51,4.42.81,1.39.29,2.78.6,4.14.98,1.54.42,3.07.88,4.59,1.36,1.41.45,2.81.98,4.19,1.52,2.71,1.05,5.33,2.29,7.89,3.66,1.68.89,3.32,1.88,4.87,2.93.12.08.24.16.37.25.1.07.2.14.3.2,0,0,.01,0,.02,0,0,0,.02.01.01,0,1.22.83,2.4,1.73,3.55,2.64,1.14.91,2.21,1.91,3.29,2.9.51.48,1.01.98,1.49,1.5.5.53,1,1.06,1.46,1.61.91,1.08,1.81,2.17,2.61,3.32.84,1.21,1.66,2.43,2.37,3.72.7,1.29,1.36,2.59,1.93,3.95,1.08,2.62,1.92,5.34,2.39,8.13.47,2.83.64,5.68.47,8.55-.17,2.81-.68,5.58-1.46,8.29-.39,1.35-.88,2.68-1.4,3.98-.53,1.32-1.14,2.62-1.81,3.88-.34.64-.68,1.28-1.05,1.91-.4.68-.82,1.34-1.24,2-.81,1.26-1.69,2.47-2.59,3.66-1.79,2.36-3.84,4.53-5.96,6.59-1.02.99-2.1,1.94-3.2,2.84-1.18.97-2.38,1.93-3.62,2.82-1.55,1.12-3.13,2.21-4.77,3.2-1.72,1.04-3.46,2.07-5.17,2.92-1.41.71-2.82,1.39-4.25,2.05-1.34.61-2.71,1.16-4.07,1.7-1.34.53-2.69,1.02-4.05,1.47-1.42.47-2.85.93-4.29,1.33-2.87.79-5.76,1.5-8.69,2.02-2.98.52-5.97.98-8.98,1.22-1.6.13-3.2.24-4.81.32-1.48.07-2.95.09-4.43.09-2.94,0-5.88-.16-8.81-.44Z"/>
    <path d="m847.34,348.16s0,0,0,0c0,.01-.02.03-.03.04,0-.02.02-.03.02-.04Z"/>
    <path d="m793.7,396.29c-1.7-.61.25-2,1-2.54,7.79-5.76,15.63-11.45,23.53-17.02,3.09-2.67,6.27-5.31,9.36-7.96,3-2.63,5.45-5.8,8.09-8.77,3.72-4.41,8.34-8.08,11.67-12.77-.34.14-1.2.9-1.38.25.02-.32.46-.25.64-.41,1.75-1.09,1.79-.55,1.01.71-.06.09-.13.17-.19.26,0,0,0,0,0-.01,0,0-.01.02-.02.03,0,.01-.02.02-.02.03-.01.02-.03.04-.04.07,0-.01.01-.02.02-.03-.02.02-.03.04-.05.07,0-.01.02-.02.03-.04-.05.07-.1.14-.15.22,0,0,0,0,0,0-.07.11-.15.21-.22.32.02-.03.04-.06.06-.09-.13.19-.26.38-.39.57-2.18,2.93-6.1,7.24-6.5,7.57-2.86,3.08-5.45,6.41-8.21,9.56-2.84,3.21-6.32,5.75-9.57,8.54-4.39,4.01-9.51,7.04-14.32,10.49-4.25,2.91-8.17,6.26-12.39,9.21,6.25-3.11,12.8-5.51,19.15-8.41,6.34-3.3,12.04-7.77,17.98-11.68,0,0,0,0,0,0,.71-.47,1.35-.91,2-1.34-.02,0-.03.02-.04.03,7.04-4.96,14.4-9.64,20.62-15.6.81-.77,3.34-4.04,3.68-1.57-2.72,3.4-6.28,6.21-9.78,8.85-5,3.88-10.28,7.52-15.52,11.03-8.21,5.6-16.2,11.7-25.7,14.96-2.99,1.12-5.91,2.39-8.8,3.76-1.73.68-3.48,1.73-5.37,1.73-.06,0-.12,0-.18,0Z"/>
    <path d="m834.75,373.14s-.03.02-.05.03c.02-.01.03-.02.05-.03Z"/>
    <path d="m847.39,348.09s0,0,.01-.01v.02s-.01,0-.01,0Z"/>
    <path d="m876.92,296.87c-.3-.02-.62-.14-.89-.26-.6-.27-1.03-.73-1.39-1.26-3.33-.38-2.76-4.85-1.79-7.09.85-1.77,2.47-2.92,3.93-4.15.68-.71,1.95-.1,1.81.88.29-.04.58-.05.86-.02.15.02.3.04.45.07,2.61-1.34,6.15.32,6.08,3.43-.24,3.7-2.69,8.39-6.99,8.01-.64.33-1.35.43-2.06.38Zm2.6-5.81s.06-.08.09-.12c-.04-.06-.08-.13-.12-.19-.05-.07-.1-.14-.15-.2-.1.1-.17.22-.22.35.12.09.26.14.39.16Z"/>
    <path d="m909.65,294.46c-.97-.82-1.59-2.04-1.76-3.29-.93-1.46-.02-3.46,1.47-4.13.83-.82,1.99-1.37,3.15-1.51,1.87-1.07,4.67-1.28,6.13.56,3.35,2.88.61,7.47-3.05,8.35-1.71,1.34-4.27,1.53-5.94.02Zm5.24-1.99c.27-.04.54-.11.8-.19.05-.07.09-.15.14-.22-.14.06-.27.12-.41.18-.17.07-.33.13-.5.18,0,.02-.02.03-.03.05Z"/>
    <path d="m897.76,328.99c-11.84-1.01-20.57-4.27-26.66-15.05-.12-.23-.31-.54-.3-.81.02-.59.81-.64.97-.16.07.14.17.29.22.37,5.26,7.73,12.6,11.47,21.84,11.79,8.72,1.09,16.86-.92,24.44-5.14,2.67-1.34,5.25-2.87,7.65-4.65,1.66-1.3,3.94.93,2.6,2.6-1.9,2.43-4.68,3.89-7.34,5.32-7.11,4.02-15.15,6.9-23.42,5.73Z"/>
    <path d="m876.97,297.42c-1.37-.66-2.78-1.22-4.02-2.11-3.03-2.28-3.89-7.14-.75-9.7,1.53-3.46,5.45-5.48,9.13-5.46,3.35-.18,5.98,2.77,6.28,5.94.47,1.49.99,3.12.24,4.61-1.29,2.47-3.7,4.35-6.24,5.44-1.22,1.16-2.99,1.84-4.64,1.27Zm1.45-5.8c.13-.1.26-.2.39-.31.02-.02.04-.04.06-.05-.86-.69-1.44-1.69-1.74-2.74-.03.07-.07.14-.1.21.32,1,.6,2.17,1.4,2.9Zm4.55-3.7c.2.61.25,1.24.2,1.88-.04.57-.24,1.13-.49,1.65.66-.35,1.19-.69,1.7-1.18.28-.57.48-1.23.54-1.84.26-2.17-1.44-3.3-3.46-3.11.68.75,1.2,1.65,1.5,2.6Zm-3.34,2.43c.47-.71.9-1.63.74-2.48-.16-.29-.41-.61-.67-.78-.32-.15-.71,0-1.02.11-.36,1.07.2,2.37.95,3.14Z"/>
    <path d="m912.73,298.43c-3.7-.61-5.12-4.54-6.21-7.65-2.32-7.68,8.06-13.05,14.35-10,1.61.79,2.57,2.48,2.72,4.23.81,1.98.9,4.27.28,6.32-.99,2.97-3.23,5.31-6.09,6.39-.53.2-1.06-.05-1.58.04-1.13.3-2.23.9-3.45.67Z"/>
    <path d="m878.7,298.4c-7.09-1.38-10.72-8.02-6.74-14.34.61-.86,1.43-1.66,2.47-1.96,1.73-1.59,4.05-2.43,6.39-2.17,12.68,0,9.47,20.21-2.13,18.47Zm1.31-3.11c4.6-.4,7.47-6.24,4.95-10.12-1.16-2.02-4.86-2.13-6.82-1.4-1.61.88-2.96,2.21-4.25,3.5-.27.46-.76.74-1.27.77-.54,2.67.8,4.75,3,6.12-.03-.02-.06-.04-.08-.06,1.33.81,2.92,1.21,4.47,1.19Z"/>
    <path d="m891.41,327.03c-8.19-.7-17.48-3.23-21.64-10.98-.76-1.31-1.51-2.65-1.9-4.12-.27-.66-.37-1.45.12-2.05,1.69-1.65,2.97-.04,3.49,1.67,1.76,2.1,4.04,3.66,6.07,5.38,2.18,1.99,4.88,3.05,7.59,4.1,5.99,2.75,12.98,3.26,19.43,2.14,7.45-1.69,15.14-3.64,21.24-8.42.69-.68,2.02-.18,1.88.85-.71,1.74-2.61,2.7-4.09,3.7-1.62,1.13-3.2,2.34-5.06,3.04-5.48,2.21-11.16,4.01-17.03,4.61-3.37.07-6.72.06-10.09.07Z"/>
    <path d="m832.82,299.13c-1.42-1.04,1.1-5.58,2.36-6.04,1.09-1.96,2.84-3.46,4.41-5.03,2.05-2.11,4.13-4.2,6.48-5.98,3.43-3.13,7.21-5.82,11.05-8.38.6-.41,1.2-.84,1.87-1.11.19-.08.5-.17.6.08.09.25-.26.82-.56.59-7.4,6.31-15.15,12.32-21.39,19.81-1.11,1.42-2.46,7.48-4.81,6.06Z"/>
  </g>
</svg>