<?xml version="1.0" encoding="UTF-8"?>
<svg id="Vektorebene" xmlns="http://www.w3.org/2000/svg" viewBox="0 0 1006.8 927.94">
  <path d="m215.9,285.32c-6.41-.19-12.78-.79-19.12-1.74-6.12-.91-12.22-2.18-18.16-3.9-3.2-.93-6.35-1.96-9.46-3.13-2.9-1.1-5.8-2.25-8.61-3.56-5.85-2.72-11.59-5.68-16.96-9.27-2.62-1.75-5.24-3.53-7.73-5.47-1.24-.96-2.48-1.92-3.7-2.92-.83-.69-1.66-1.37-2.48-2.05-.46-.38-.93-.75-1.38-1.16-1.35-1.22-2.69-2.45-4.04-3.67-.34-.31-.66-.65-.99-.98-.82-.82-1.63-1.63-2.45-2.45-1.04-1.04-2.01-2.15-3-3.24-.95-1.05-1.89-2.11-2.79-3.21-.96-1.18-1.96-2.33-2.87-3.55-.62-.84-1.23-1.68-1.85-2.52-.45-.6-.91-1.19-1.32-1.81-.98-1.48-1.96-2.96-2.94-4.44-.88-1.33-1.65-2.73-2.47-4.1-1.13-1.9-2.2-3.84-3.17-5.78-2.84-5.64-5.3-11.5-7.17-17.54-1.88-6.09-3.39-12.3-4.25-18.62-.86-6.29-1.29-12.62-1.21-18.97.08-5.62.54-11.27,1.4-16.83,1.82-11.75,5.09-23.27,9.85-34.18,2.55-5.84,5.45-11.5,8.7-16.99,3.02-5.1,6.36-10,9.93-14.73,7.42-9.85,16.1-18.78,25.57-26.66,4.9-4.08,10.04-7.83,15.34-11.37,5.18-3.45,10.61-6.5,16.11-9.39,2.76-1.45,5.59-2.8,8.43-4.07,2.7-1.2,5.41-2.35,8.16-3.41,5.27-2.02,10.63-3.76,16.07-5.24,4.07-1.11,8.2-2.08,12.34-2.92.1-.46.29-.9.59-1.28.52-.67,1.24-1.04,2.05-1.19,5.72-1.08,11.48-1.88,17.28-2.34,11.29-.89,22.67-.7,33.91.8,5.75.77,11.47,1.87,17.11,3.29,2.78.7,5.54,1.49,8.27,2.36,1.42.45,2.83.93,4.24,1.42.02,0,.05.02.07.03.02,0,.05.02.07.02,1.33.47,2.66.96,3.97,1.47,2.65,1.04,5.27,2.15,7.85,3.34,5.06,2.34,10,4.99,14.71,7.96,2.82,1.78,5.57,3.64,8.25,5.63,2.7,2,5.28,4.13,7.81,6.33.1.08.2.16.29.25.14.12.27.24.41.36,9.3,8.21,17.16,17.96,23.48,28.62,1.56,2.63,2.97,5.35,4.33,8.09,1.33,2.68,2.54,5.44,3.62,8.23,2.22,5.71,4.04,11.56,5.39,17.55,1.36,6.07,2.2,12.23,2.62,18.44.42,6.28.27,12.57-.24,18.84-1.05,12.83-4.26,25.46-8.89,37.45-4.31,11.17-10.12,21.75-16.94,31.58-7.25,10.44-15.79,19.93-25.23,28.41-4.59,4.12-9.42,7.94-14.41,11.55-4.98,3.6-10.19,6.93-15.54,9.95-10.92,6.17-22.45,11.32-34.44,15.05-6.06,1.88-12.21,3.51-18.44,4.69-5.93,1.12-11.92,1.97-17.94,2.46-4.67.38-9.36.61-14.04.61-1.34,0-2.67-.02-4.01-.06Zm4.04-5.89c3.48-.02,6.95-.14,10.42-.36,3.35-.25,6.69-.57,10.02-1.03,3.55-.49,7.07-1.11,10.59-1.81,3.77-.79,7.51-1.68,11.23-2.68,3.77-1.01,7.49-2.21,11.18-3.47,3.72-1.33,7.41-2.76,11.04-4.3,3.28-1.39,6.51-2.93,9.7-4.52,3.17-1.62,6.29-3.32,9.37-5.1,3.06-1.77,6.04-3.68,8.99-5.63,2.97-2.02,5.9-4.11,8.75-6.3,2.69-2.08,5.31-4.24,7.89-6.45,5.32-4.7,10.33-9.68,15.04-14.98,4.36-5.02,8.41-10.26,12.16-15.76,1.76-2.66,3.46-5.35,5.08-8.1,1.56-2.65,3-5.37,4.4-8.1,1.29-2.61,2.52-5.25,3.67-7.93,1.22-2.86,2.33-5.76,3.38-8.69.91-2.68,1.76-5.38,2.54-8.1.8-2.78,1.45-5.6,1.98-8.02.62-3.05,1.18-6.11,1.59-9.19.4-2.97.69-5.96.9-8.95.13-2.38.22-4.76.22-7.14,0-2.48-.08-4.96-.21-7.44-.19-2.62-.44-5.24-.76-7.85-.33-2.64-.79-5.26-1.3-7.87-1.07-5.09-2.45-10.08-4.02-14.61-1.6-4.46-3.44-8.8-5.54-13.06-2.28-4.47-4.81-8.78-7.61-12.95-1.27-1.83-2.57-3.63-3.94-5.38-1.47-1.87-3-3.69-4.56-5.47-3.05-3.39-6.26-6.6-9.65-9.65-.13-.11-.26-.23-.39-.34-.34-.26-.65-.57-.96-.84-.42-.36-.84-.71-1.26-1.07-3.07-2.6-6.34-5-9.34-7.03-4.51-3.04-9.2-5.79-14.05-8.25-5.05-2.49-10.22-4.67-15.53-6.56-.08-.02-.16-.05-.23-.08-6-2.06-12.1-3.73-18.29-5.02-6.52-1.29-13.11-2.18-19.32-2.6-7.04-.46-14.11-.46-20.72-.02-6.36.44-12.7,1.21-18.96,2.38-.08.02-.15.03-.23.04-1.19.22-2.35-.39-3-1.35-6.35,1.35-12.59,3.12-18.66,5.2-3.77,1.31-7.5,2.72-11.19,4.25-3.83,1.59-7.58,3.35-11.31,5.17-1.82.93-3.63,1.87-5.43,2.83-1.79.96-3.54,1.98-5.3,3-3.44,1.99-6.75,4.18-9.96,6.34-.03.02-.06.05-.1.07h0c-2.65,1.86-5.28,3.74-7.83,5.72-2.81,2.18-5.54,4.45-8.22,6.77-2.65,2.37-5.23,4.79-7.77,7.29-2.4,2.37-4.69,4.85-6.87,7.3-.03.03-.06.06-.08.1l-.03.03c-4.33,4.96-8.35,10.15-12.06,15.57-3.68,5.46-7,11.13-9.95,16.96-.01.03-.03.06-.04.08l-.03.06c-2.62,5.32-4.93,10.78-6.84,16.16-1.97,5.67-3.59,11.43-4.83,17.29-1.13,5.57-1.9,11.19-2.31,16.82,0,.02,0,.04,0,.06v.09c-.17,2.63-.27,5.27-.27,7.91,0,2.93.12,5.85.3,8.72,0,.03,0,.05,0,.08v.03c.2,2.34.42,4.68.74,7.01.33,2.42.75,4.83,1.21,7.23.49,2.32,1.02,4.63,1.63,6.92.65,2.41,1.39,4.79,2.17,7.17.82,2.34,1.69,4.67,2.64,6.96.93,2.23,1.95,4.41,3,6.58.95,1.86,1.96,3.68,2.98,5.51.42.75.89,1.48,1.34,2.22.57.93,1.13,1.86,1.57,2.6.89,1.31,1.78,2.61,2.66,3.92.73,1.07,1.52,2.09,2.29,3.12.73.97,1.45,1.96,2.23,2.89,1.04,1.24,2.07,2.47,3.1,3.71,1.03,1.12,2.06,2.23,3.09,3.34.87.94,1.79,1.83,2.71,2.73.86.85,1.71,1.71,2.62,2.52,1.17,1.04,2.34,2.09,3.52,3.13.88.71,1.75,1.41,2.63,2.11.69.56,1.38,1.14,2.09,1.66.99.74,1.99,1.48,2.98,2.21.79.58,1.62,1.11,2.44,1.66,2.14,1.36,4.3,2.7,6.5,3.95,2.23,1.27,4.5,2.45,6.78,3.62,2.68,1.29,5.37,2.53,8.1,3.71,2.61,1.12,5.28,2.08,7.96,3.03,3.27,1.09,6.56,2.09,9.88,3.01,3.33.93,6.71,1.69,10.09,2.39,2.91.56,5.83,1.07,8.76,1.45,3.2.41,6.4.72,9.62.96,3.73.22,7.46.37,11.2.36Z"/>
  <path d="m237.2,179.91c-1.59-.15-3.18-.35-4.73-.77-1.68-.45-3.25-1.09-4.81-1.86-3.23-1.6-6-3.82-8.35-6.55-2.59-3.01-4.33-6.75-5.23-10.59-.98-4.19-.95-8.67.29-12.8,1.23-4.11,3.48-7.94,6.56-10.94,1.11-1.07,2.34-2.01,3.62-2.87.48-.32.97-.62,1.48-.89.5-.26,1.02-.47,1.53-.7,1.09-.57,2.29-.86,3.47-1.2.75-.21,1.51-.41,2.27-.59.52-.67,1.28-1.14,2.16-1.25,4.53-.57,9.14.06,13.36,1.83,5.8,2.44,10.48,7,13.24,12.64,1.64,3.36,2.45,7.14,2.52,10.87.05,3.03-.56,6.09-1.56,8.94-1.25,3.59-3.49,6.87-6.17,9.56-.64.64-1.31,1.26-2.06,1.77-.71.48-1.44.95-2.17,1.42-2.13,1.36-4.47,2.4-6.9,3.1-2.13.61-4.4.96-6.65.96-.63,0-1.26-.03-1.88-.09Zm2.76-5.79c.93-.08,1.84-.21,2.76-.38.83-.18,1.64-.4,2.44-.67.86-.31,1.69-.67,2.52-1.07.61-.32,1.2-.66,1.78-1.04.31-.22.61-.44.9-.68,1.01-.91,2-1.86,2.91-2.87.5-.59.98-1.19,1.42-1.83.45-.7.83-1.43,1.21-2.17.4-.83.77-1.67,1.08-2.53.27-.81.49-1.63.67-2.46.14-.75.21-1.5.26-2.17,0-.03,0-.06,0-.09v-.05c.06-.9.06-1.8.01-2.7-.07-.9-.19-1.79-.36-2.68-.16-.73-.36-1.44-.59-2.14-.32-.88-.67-1.75-1.08-2.6-.38-.74-.8-1.45-1.25-2.15-.46-.67-.96-1.31-1.49-1.93-.55-.61-1.12-1.19-1.73-1.73-.61-.52-1.24-1.02-1.9-1.48-.7-.47-1.43-.9-2.18-1.28-.78-.38-1.58-.72-2.4-1.01-.8-.26-1.61-.49-2.44-.66-.81-.15-1.63-.27-2.45-.33-.87-.05-1.73-.05-2.6,0-.36.03-.72.06-1.09.11-.59.07-1.17-.01-1.69-.22-1.42.33-2.81.73-4.21,1.16-.06.02-.12.05-.19.07-.78.53-1.57,1.04-2.36,1.56-.51.35-1.02.72-1.5,1.13-.83.74-1.63,1.51-2.38,2.33-.58.67-1.12,1.36-1.62,2.08-.46.71-.89,1.43-1.28,2.18-.38.78-.72,1.58-1.01,2.4-.26.79-.48,1.59-.66,2.4-.13.7-.22,1.39-.29,2.1-.04,1.01-.04,2.02.02,3.03.08.9.2,1.8.37,2.68.19.85.41,1.68.68,2.51.29.8.62,1.59.99,2.36.38.73.79,1.43,1.23,2.12.49.7,1.01,1.38,1.56,2.03.58.64,1.19,1.25,1.83,1.82.64.54,1.31,1.05,2,1.53.64.41,1.3.79,1.96,1.15.81.39,1.62.77,2.45,1.11.94.3,1.88.54,2.85.75.9.13,1.8.25,2.71.33.71.03,1.41.02,2.11,0Z"/>
  <path d="m347.17,151.11c-15.18-2.92-30.22.93-45.47-.38-9.95-1.7-20.09,1.75-29.92-.64-4.9-2.31-5.71-13.56-10-18.3-1.76-4.29-11.48-7.36-10.59-11.09-4.62-3.47,6.74-16.7,8.67-20.89,5.65-10.78,13.6-19.96,20.6-29.84,3.44-3.74,4.69-10.78,9.48-12.67,2.61-.25,4.48,2.01,6.46,3.36,3.82,3.3,7.98,6.13,12.37,8.63,18.81,12.15,34.39,31.57,40.79,53.16,1.4,5.91,8.92,30.69-2.46,28.66,0,0,.08,0,.08,0Zm-38.05-5.86c12.72-.08,24.94-2.93,37.56-.49.25-24.92-14.32-46.65-31.88-63.08-7.4-6.03-16.28-9.91-23.4-16.33-11.62,18.26-25.81,34.79-35.32,54.38,9.77,4.96,14.74,14.91,18.02,24.89,11.6.99,23.41-.93,35.02.64Z"/>
  <path d="m196.67,145.41c-1.16-.39-2.32-.75-3.46-1.17-1.02-.38-2.02-.78-3.04-1.14-3.1-1.02-6.3-1.73-9.43-2.68-2.97-.91-5.99-1.6-8.93-2.21-1.71-.35-3.43-.68-5.15-1.04-1.4-.29-2.8-.61-4.2-.91-2.95-.57-5.93-.98-8.85-1.67-2.75-.64-5.44-1.49-8.17-2.2-2.6-.67-5.16-1.46-7.66-2.43-1.02-.39-2.02-.83-3.02-1.25-.98-.42-1.94-.9-2.93-1.3-.11-.05-.23-.09-.34-.13-1.25-.42-2.53-.73-3.82-1.04-.89-.21-1.78-.46-2.68-.65-1.16-.23-2.26-.49-3.16-1.34-1.3-1.22-1.47-3.23-1.2-4.89.54-3.26,1.83-6.32,3.14-9.32,1.18-2.72,2.38-5.44,3.55-8.16,1.28-2.97,2.68-5.89,4.29-8.7,3.2-5.57,7.2-10.56,11.68-15.14,2.29-2.34,4.8-4.47,7.44-6.4,2.47-1.81,5.17-3.34,7.86-4.79,2.71-1.46,5.55-2.7,8.36-3.96,2.77-1.24,5.56-2.41,8.41-3.46,5.46-2.01,11-3.81,16.37-6.05,2.36-.99,4.7-2.03,7.09-2.87.02,0,.04-.01.06-.02l.09-.03c.85-.31,1.67-.64,2.59-.68,1.18-.04,2.29.51,3.05,1.4.81.95,1.34,2.11,1.93,3.2.82,1.55,1.54,3.17,2.27,4.77.61,1.35,1.2,2.71,1.74,4.09,2.46,6.36,4.62,12.82,6.85,19.27,2.11,6.12,4.1,12.28,6.15,18.41.96,2.72,1.92,5.44,2.99,8.12,1.24,3.14,2.4,6.29,3.48,9.49.59,1.73-.66,3.65-2.34,4.11-.14.04-.29.07-.43.09-.33.65-.79,1.16-1.47,1.45-.69.29-1.49.29-2.19,0-.19-.08-.37-.19-.54-.31-.08.02-.16.05-.24.08-1.01.36-2,.77-2.97,1.24-.67.35-1.32.73-1.95,1.14-.91.64-1.78,1.33-2.62,2.05-1.25,1.14-2.41,2.38-3.5,3.6-1.07,1.22-2.14,2.47-3.08,3.79-.49.76-.96,1.54-1.39,2.34-.74,1.52-1.38,3.08-2.09,4.62-.21.45-.4.9-.6,1.35-.21.48-.45.92-.82,1.3-.54.55-1.25.86-2.01.98-.27.05-.55.07-.83.07-1.45,0-2.92-.56-4.26-1Zm3.21-5.67c.38-.88.77-1.75,1.16-2.62.59-1.29,1.22-2.56,1.96-3.77.77-1.24,1.68-2.38,2.61-3.5,1.89-2.28,3.89-4.45,6.13-6.38,2.41-2.08,5.16-3.63,8.15-4.71.92-.33,1.88-.64,2.85-.8-1.07-2.99-2.24-5.92-3.37-8.88-1.18-3.1-2.24-6.25-3.3-9.39-1.04-3.1-1.99-6.22-3.05-9.32-1.08-3.16-2.16-6.31-3.24-9.46-.36-1.05-.72-2.09-.94-2.73-1.2-3.42-2.36-6.86-3.67-10.24-1.36-3.51-2.85-6.93-4.5-10.3-.11-.2-.22-.41-.32-.61-1.33.49-2.63,1.07-3.94,1.63-2.42,1.04-4.87,2.04-7.35,2.93-5.75,2.05-11.58,4-17.19,6.43-3.1,1.34-6.18,2.73-9.2,4.23-2.46,1.29-4.85,2.69-7.17,4.21-1.64,1.14-3.19,2.38-4.71,3.68-2.01,1.82-3.9,3.74-5.72,5.75-1.92,2.22-3.72,4.51-5.39,6.92-1.41,2.17-2.7,4.39-3.91,6.68-1.43,2.88-2.67,5.84-3.94,8.8-1.29,3.02-2.7,5.98-3.82,9.07-.21.65-.4,1.3-.57,1.97.38.09.75.18,1.13.27,1.25.3,2.51.58,3.75.94,1.75.52,3.35,1.31,5.02,2.02,1.6.68,3.18,1.33,4.82,1.91,2.29.78,4.62,1.35,6.96,1.99,2.6.71,5.16,1.48,7.8,2.04,1.95.39,3.91.68,5.86,1.04,1.9.35,3.78.81,5.58,1.2.08.02.17.03.25.05.06.01.12.03.28.05,2.49.5,4.98.99,7.46,1.55,2.22.5,4.39,1.11,6.57,1.78,2.32.71,4.66,1.32,6.99,1.99,2.34.68,4.55,1.68,6.77,2.47.72.25,1.44.51,2.16.77.34.12.68.24,1.02.36Z"/>
  <path d="m136.36,91.54c-5.59-2.62,17.5-29.49,21.43-31.63,10.98-8.72,25.02-17.92,39.59-15.14,2.94,2.2,2.41,6.49,4.28,9.45.6,1.34-.1,2.97-1.43,3.53-4.09,1.24-4.77-4.94-6.09-7.51-16.92.35-31.92,11.86-42.3,24.44-4.26,3.12-10.24,20.62-15.49,16.85Z"/>
  <path d="m132.68,101.93c-1.99-.62-1.73-2.61-1-4.15,2.73-8.1,7.08-15.53,11.33-22.9,1.68-2.61,3.67-4.99,5.63-7.39.74-.91,2.08-1.13,3.03-.39.91.7,1.14,2.12.39,3.03-3.68,4.2-6.75,8.84-9.2,13.86-2.56,4.59-5.08,9.22-6.78,14.22-.55,1.65-1.1,4.33-3.41,3.71Z"/>
  <path d="m198.91,58.82c-.38-1.28-.66-2.59-.85-3.91-.02-.11-.03-.21-.04-.32-1.99.32-2.9-1.93-3.93-3.24-3.12-4.81,3.41-6.7,6.66-4.05,2.68,2.64,1.59,6.97,2.84,10.23.77,3.07-3.72,4.34-4.67,1.29Z"/>
  <path d="m200.45,58.03c-2.33-2.94-9.21-10.96-1.73-11.62,3.44,1.03,3.93,5.67,6.5,7.93,2.4,3.06-2.4,6.8-4.77,3.68Z"/>
  <path d="m347.7,142.86c-.64-.49-.98-1.17-1.13-1.95-.84-4.57-.89-9.24-1.74-13.8-1.38-6.32-3.58-12.43-6.45-18.22-3.92-7.61-8.59-13.91-13.44-20.75-3.6-4.97-7.35-9.85-11.58-14.32-5.53-5.54-12.37-9.61-18.75-14.09-.78.71-1.41,1.57-2.14,2.33.35,1.78-1.6,3.24-3.23,2.53-2.62-1.16-1.93-4.66-.25-6.36,1.38-2.48,4.02-6.5,7.27-4.46,3.17,1.91,6.18,4.06,9.19,6.23,12.4,7.54,20.83,19.51,28.95,31.24,6.79,9.33,12.38,19.58,15.34,30.78,1.74,5.89,1.72,12.07,2.75,18.08.48,2.52-2.81,4.41-4.77,2.76Z"/>
  <path d="m227.68,266.8c-7.89.44-14.4-4.53-21.37-7.42-6.77-3.28-14.26-5.37-20.31-9.99-2.6-1.82-7.04-4.76-4.43-8.31,8.34-7.25,11.4-18.01,16.3-27.47,2.38-4.98,5.5-9.54,8.19-14.35,2.51-4.27,3.96-9.26,7.19-13.07.06-1.79,2.03-2.68,3.57-2.01,1.59.27,3.95-.03,4.07,2.14,3.93,1.89,8.15,3.15,12.49,3.56,7.02.15,14.16-1.43,20.46-4.5,1.99-1.31,3.55-4.23,6.3-3.41,2.25.67,2.82,3.2,3.73,5.08,2.29,5.17,4.7,10.29,7.12,15.39,2.29,4.81,5.69,9.01,8.18,13.72,2.51,4.41,4.73,8.96,7,13.5,2.25,4.6,5.18,9.01,6.53,13.97.29,1.45-.07,3-1.28,3.95-1.81,1-3.6,2.03-5.36,3.13-18.18,10.1-37.26,17.3-58.38,16.09Zm5.35-6.62c18.93.25,36.93-7.73,53-16.99-4.57-9.57-9.34-19.01-14.68-28.15-5.45-7.83-9.12-16.66-13.04-25.31-4.12,2.91-9.19,4.34-14.1,5.22-8.9,2.26-18.44.8-26.28-3.98-1.91,2.78-3.13,5.94-4.65,8.94-2.86,5.67-6.58,10.86-9.37,16.56-4.69,9.04-7.78,19.32-15,26.76,6.14,4.91,13.93,6.88,20.85,10.42,4.77,1.87,9.09,4.9,14.06,6.21,3.05.44,6.16.29,9.23.34Z"/>
  <path d="m226.29,264.11c-15.18-2.72-29.79-6.72-43.59-13.68-4.74-2.86.03-8.32,2.06-11.46,8.8-14.38,14.75-30.33,24.33-44.32,1.4-2.32,2.57-4.81,4.16-7,2.1-2.75,6.42.53,4.26,3.28-3.62,6.14-7,12.44-10.86,18.45-6.69,11.94-11.61,24.77-18.99,36.32,8.73,3.97,17.53,7.54,27.03,9.27,4.05,1.72,16.71.7,15.62,6.85-.48,1.79-2.33,2.69-4.02,2.28Z"/>
  <path d="m219.6,265.34c-9.03-1.63-18.24-4.48-26.39-8.63-2.84-1.36-5.08-2.24-7.67-3.69-1.9-.93-4.1-1.79-5.27-3.66-1.66-2.53.58-5.29,2.73-6.4,1.32-1.08,2.32-2.54,4.06-3.02,2.73-1.08,4.42,2.91,1.74,4.12-1.38.44-1.76,2.09-2.92,2.89,9.35,4.45,18.5,9.16,28.62,11.43,4.14.77,9.06,2.93,12.91.32,5.71-2.61,8.97,9.06-7.81,6.64Z"/>
  <path d="m203.43,253.15c-.96.68-2.38.67-3.27-.24-.95-.96-1.59-2.25-2.2-3.46-.05.05-.1.09-.15.13-.59.45-1.3.58-1.98.44-.63,1.62-3.06,1.75-3.89.23-.94-1.7-2.04-3.49-2.11-5.49-.22-.85-.39-1.71-.58-2.56-.57-2.06,2.01-3.66,3.59-2.21.19-.44.47-.84.86-1.14-2.66-5.07.84-9.83,6.06-6.19,4.18,3.26,7.09,7.86,10.18,12.1.49.67.9,1.37,1.16,2.17.59,1.72-1.01,3.62-2.76,3.51.39,2.74-2.78,4.26-4.9,2.69Z"/>
  <path d="m225.3,265.35c-1.43-.16-2.88-.44-4.19-1.05-.93-.43-1.82-.94-2.73-1.43-4.86.79-14.38.52-13.79-6.38-1.91-2.33-.47-5.68,1.56-7.42-.18-.06-.35-.13-.52-.23-.18-.1-.34-.23-.49-.37-1.72.74-3.92-.35-4.42-2.14-.56.06-1.14-.03-1.66-.24-.84,1.17-1.75,2.43-3.1,3.05-2.7,1.19-5.29-1.53-4.73-4.23-1.74-.12-2.57-2.04-1.95-3.55-.16-2.71.76-5.4,1.65-7.93,2.38-6.26,5.33-12.3,8.1-18.4,2.03-4.18,4.52-8.12,7.37-11.76.96-1.59,1.58-3.64,3.15-4.73,1.6-2.74,3.07-8.04,7.14-7.03.98-.55,2.19-.54,3.17-.01,1.55-1.1,3.89-1.03,5.1.52,2.42-2.09,6.47-1.21,6.38,2.37.25.08.49.2.71.34,2.01-2.23,5.76-5.26,8.11-1.78.78-.05,1.6.23,2.2.69.08.06.16.13.23.2,1.19-.44,2.48-.45,3.75-.35.66-.28,1.33-.52,2.05-.55,1.3-1.08,2.86-1.83,4.48-2.28,1.92-3,5.92-1.33,7.86.79,2.53,2.48,3.59,5.98,5.21,9.04,1.66,3.27,3.59,6.41,5.36,9.63.72,1.44,1.81,2.87,1.86,4.52.36.42.72.84,1.08,1.26,3.52-.08,5.57,5.86,7.03,8.52,1.95,4.65,4.21,9.21,5.35,14.15,3.06,1.22,2.41,5.25.2,7.01-4.96,4.44-12.15,4.3-17.74,7.64-3.02,1.72-6.05,3.36-9.28,4.65-2.11,1.13-4.23,2.3-6.53,3-9,2.99-18.46,5.29-28,4.48Zm12.7-7.1c.14-.02.28-.05.42-.08h.06c-.03-.06-.06-.11-.09-.16-.13.08-.26.16-.4.24Z"/>
  <path d="m246.45,175.62c-.77-.27-1.46-.71-1.96-1.36-.05-.06-.1-.13-.14-.19-.58.19-1.18.29-1.8.29-.72,0-1.42-.15-2.05-.43-2,.72-4.1,1.46-6.18.55-2.94,2.19-9.01,1.2-8.07-3.44-2.61-.22-5-2.01-6.4-4.14-.93-.51-1.56-1.38-1.94-2.38-1.02-3.18-1.55-6.64-1.02-9.96-1.34-2.06,0-4.67.48-6.82.86-2.91,2.37-5.81,4.93-7.57,7.21-15.84,29.66-13.56,36.66,1.25,3.94,9.48,2.23,24.15-5.32,31.46-1.88,1.81-4.47,3.65-7.2,2.75Zm5.15-33.63c.09,0,.19,0,.28,0-.1-.13-.2-.26-.3-.39,0,.13.01.26.02.39Z"/>
  <path d="m310.04,149.33c-2.23-.3-4.45-.51-6.69-.53-1.59-.06-3.41-.43-4.33-1.86-3.73-.45-10.75,3.6-12.75-1.44-1.95-.08-3.93.54-5.84.31-2.05,2.26-6.46,1.26-7.33-1.65-2.12-.83-3.39-3.27-2.98-5.49-.71-1.32-1.11-2.98-.65-4.45-.1-.12-.21-.25-.31-.37-.44-.53-.79-1.16-1.07-1.8-.32-.15-.62-.33-.9-.54-1.26-.93-2.03-2.28-2.53-3.75-.88-.54-1.68-1.23-2.31-2.03-.11-.15-.23-.3-.34-.45-.09-.02-.18-.05-.27-.09-1.06,2.53-4.77,1.95-5.33-.68-.89-3.11-1.06-6.61.28-9.6.05-1.22.53-2.53,1.79-2.88.25-3.25-.17-8.11,3.74-9.25,7.09-10.19,14.3-20.48,20.88-31.09,1.64-2.68,3.27-5.36,4.97-8,.63-.97,1.23-2.12,2.13-2.87,1.25-1.04,3.34-.69,4.21.66.64-1.74,3.02-2.44,4.55-1.47,1.96,1.25,3.86,2.62,5.77,3.95,3.33,2.29,17.4,13.74,13.21,17.86.22.44.44.88.65,1.33.35.73.7,1.46,1.03,2.19,3.02.49,4.06,3.84,5.15,6.29,2.02.28,3.14,2.2,3.95,3.88,1.85-.34,3.67,1.13,3.8,3.01,4.59,1.45,5.64,8.44,7.17,12.45,2.2,4.51,2.69,9.7,5.01,14.15,3.09.29,3.64,3.84,4.27,6.29.52,2.49,1.22,4.97,1.41,7.51,2.13.97,2.9,3.93,1.64,5.86-1.51,2.38-4.68,2.41-6.98,1.22-1.35,2.43-4.41,1.89-6.7,1.62-2.45-.31-5.31-.39-7.32-1.95-4.3.71-8.66,1.67-13.06,1.46-1.76,2.55-5.17,2.57-7.93,2.2Zm-27.8-27.64s.02-.03.03-.04c.07-.11.13-.23.2-.34-.12-.02-.24-.05-.36-.08.05.15.09.31.13.47Z"/>
  <path d="m270.21,146.06c-1.34-3.45-2.78-6.87-4.19-10.3-1.02-3.09-2.95-5.75-5.23-8.05-2.62-2.17-4.8-4.62-8.53-4.45,0,0,0,0,0,0-1.57-.16-2.4-2.01-1.64-3.35.54-1.07,1.98-1.43,3.08-1.45,1.56.04,3.09.39,4.62.66.9.23,1.62.77,2.38,1.29,1.86,1.41,3.87,2.64,5.44,4.4,2.57,2.71,4.42,5.9,5.66,9.41,1.16,3,2.61,5.91,3.6,8.97,1.65,3.4-3.21,6.11-5.21,2.86Z"/>
  <path d="m195.56,140.42c-.52-.41-.91-.98-1.09-1.62-.01-.05-.03-.1-.04-.15-.6.12-1.2.13-1.79.04-4.13,3.71-10.71,1.38-13.14-3.17-.02,0-.04,0-.07,0-.7.04-1.43-.17-2.09-.44-2.69,5.05-8.07,3.71-8.46-1.89-.9.56-2.07.65-3.04.24-1.08-.46-1.88-1.52-2.01-2.68-.19,0-.37-.02-.56-.06-.05,2-2.14,3.46-4.09,3.2-2.14-.37-4.03-1.51-5.96-2.46-3.95.83-16.79-2.42-15.82-7.75-1.97,1.65-5.33,1.4-6.54-1.03-2.16,1.8-5.72-.33-5.23-3.08.29-1.4,1.05-2.65,1.67-3.93-.82-1.91.68-3.81,1.2-5.62,1.38-3.81,2.67-7.65,4.02-11.47.93-2.64,1.82-5.31,2.92-7.88.83-2.09,3.78-2.68,5.34-1.04,0,0,0,0,0,0,2.7-4.58,5.4-9.3,8.75-13.37-3.32-4.1,2.2-8.16,4.97-10.76,3.1-2.71,6.41-5.17,9.86-7.42,3.39-2.08,6.88-4.21,10.85-4.97,1.1-.82,2.46-1.67,3.89-1.26,4.87-2.81,10.23-5.28,15.9-5.69,4.07-3.98,8.38,4.25,10.57,7.01,2.11,3.15,8.05,10.61,1.16,11.84,1.17,2.16,2.41,4.29,3.59,6.1,1.04,1.38.88,3.45-.49,4.57.45,2.71,1,5.41,1.66,8.08.79.4,1.41,1.11,1.66,2.01.73,2.54,1.03,5.18,2.05,7.61,3.3,1.08,4.4,4.85,5.8,7.68,1.76,4.13,3.53,8.26,5.58,12.26.87,1.47,2.12,2.88,1.93,4.7-.23,2.69-3.95,3.75-5.67,1.75-.66,1.33-2.16,1.88-3.51,2.26-1.34.48-2.66,1.02-3.94,1.64-5.46,2.63-9.6,7.19-12.94,12.15-1.72,2.36-3.18,6.99-6.89,4.6Zm-50.65-25.65c.19-.19.38-.38.56-.57,0-.02-.01-.03-.02-.05-.07.02-.15.04-.22.07-.36.14-.72.29-1.07.45.25.03.5.07.75.11Zm-7.52-4.45c.08-.29.18-.57.28-.86-.09.02-.18.03-.27.04-.08.25-.17.5-.26.74.08.02.17.05.25.08Zm52.4-54.65c.62-.53,1.38-.97,2.2-1.01.45-.73,1.2-1.24,2.03-1.46.2-.08.42-.15.64-.18,0-.05-.01-.09-.02-.14-2.08.31-4.12.93-6.07,1.72.48.27.9.64,1.22,1.08Z"/>
  <path d="m402.48,545.73c-.72-.41-1.11-1.1-1.34-1.87-1.81-4.73-4.01-9.32-6-13.99-2.93-7.21-6.76-14.01-9.7-21.21-7.04-18.78-16.31-36.58-25.16-54.53-8.91-20.53-14.34-42.65-24.59-62.61.03.05.06.11.09.16-7.47-14.45-13.59-29.54-20.16-44.41-7.95-16.98-15.76-34.01-23.58-51.05-.89-2.04,2.25-4.01,3.54-1.5,3.6,7.45,6.89,15.04,10.33,22.56,10.83,21.65,20.11,44.01,30.66,65.79,10.52,19.08,17.25,39.85,24.68,60.26,3.17,8.58,7.53,16.29,11.56,24.39,5,10.23,10.06,20.5,14.41,31.04,3.73,10.23,8.95,19.64,13.21,29.57,2.05,4.79,4.39,9.45,6.15,14.36.66,2.23-2.11,4.32-4.09,3.04Z"/>
  <path d="m445.94,400.66c-5.68-6.49-10.6-13.61-15.93-20.39-5.19-7.01-11.22-13.37-16.27-20.48-3.84-5.77-7.09-11.93-11.44-17.36-4.09-5.24-8.96-9.88-12.47-15.56-6.22-10.4-11.85-21.47-18.9-31.31-5-7.42-10.32-14.63-15.4-22-1.44-2.21-2.99-4.38-3.87-6.88-.56-1.66-1.81-4.02.57-4.82,1.07-.29,2.08.36,2.42,1.37.77,2.93,2.35,5.49,4.05,7.95,5.08,7.38,10.46,14.54,15.49,21.95,5.32,7.59,10.17,15.49,14.59,23.63,2.44,4.4,4.92,8.72,8.01,12.59,3.98,4.87,8.32,9.23,11.85,14.41,2.67,3.77,4.97,7.79,7.42,11.7,3.77,5.93,8.71,10.97,12.97,16.53,6.75,8.23,12.79,17.03,19.66,25.16,2.48,1.94-.23,5.69-2.74,3.5Z"/>
  <path d="m594.95,409.1c-13.64-8.16-25.13-19.06-37.62-28.77-26.27-14.57-48.66-34.75-72.38-52.97-33.25-27.66-63.39-59.25-100.36-82.07-1.13-.79-1.27-2.49-.46-3.54,2.94-3.37,9.96,4.89,13.43,5.93,21.23,14.71,41.57,30.96,60.14,48.96,22.05,18.66,43.98,37.09,66.84,54.64,6.62,4.51,12.93,9.63,19.52,14.17,10.73,6.32,21.62,12.38,30.54,21.23,7.32,6.59,15.75,11.7,23.49,17.76,2.71,1.99-.19,6.49-3.15,4.67Z"/>
  <path d="m560.4,278.3c-22.64-6.06-43.38-17.88-64.63-27.39-28.4-12.83-56.66-25.91-85.8-37.1-3.15-1.81-10.81-4.81-7.7-9.29,1.13-1.13,2.94-1.08,4.07,0,6.29,5.6,15.05,7.4,22.68,10.59,9.38,3.14,18.25,7.5,27.29,11.46,24.28,9.65,48.11,22.3,72.28,32.47,8.81,3.49,17,8.43,26.24,10.77,2.43.75,4.85,1.54,7.31,2.17,4.06,1.08,2.36,7.47-1.74,6.32Z"/>
  <path d="m486.25,164.88c0-.4.34-.74.74-.74s.74.34.74.74-.34.74-.74.74-.74-.34-.74-.74Z"/>
  <path d="m684.62,221c-3.96-.91-7.83-2.16-11.81-3.02-5.16-1-10.4-1.53-15.58-2.34-8.83-1.3-17.5-3.47-26.24-5.24-12.23-2.59-23.95-5.11-36.18-7.17-11.54-1.78-22.97-4.22-34.19-7.45-16.08-4.45-31.66-10.57-47.84-14.68-19.87-4.86-40.13-7.87-60.43-10.31-8.63-1.03-17.32-1.39-25.89-2.88-.91-.14-1.57-.98-1.44-1.9.12-.9.99-1.58,1.9-1.44,5.8.99,11.65,1.56,17.51,1.97,22.25,2.09,44.44,5.13,66.29,9.91,16.86,3.88,33.05,10.08,49.7,14.71,11.03,3.13,21.68,5.35,32.87,7.02,13.09,1.97,26.1,4.63,39.06,7.25,12.64,2.74,25.34,5.09,38.21,6.4,5.32.62,10.47,2.13,15.68,3.33,3.7,1.09,2.37,6.76-1.61,5.83Z"/>
  <path d="m601.05,123.05c-6.63-.3-13.15-1.48-19.73-2.25-6.75-.76-13.54-.8-20.32-1.18-20.88-1.76-41.78-3.14-62.74-3.55-11.31-.35-22.62-1.18-33.94-.63-8.42.26-17.01-.2-25.09,2.56-.9.25-1.86-.3-2.11-1.2-.25-.9.3-1.86,1.2-2.11,2.29-.64,4.59-1.36,6.94-1.72,6.76-1.06,13.63-.79,20.44-1.12,8.87-.46,17.75-.1,26.62.23,13.88.27,27.75.68,41.62,1.27,7.84.3,15.67,1.23,23.49,1.72,11.07.49,22.18.52,33.15,2.27,3.69.52,7.41.74,11.13.97,3.02.41,2.53,5.12-.65,4.73Z"/>
  <path d="m420.79,67.29c-.29-1.07.36-2.14,1.4-2.46,3.29-1,6.59-1.88,9.97-2.55,10.53-2.23,21.23-3.45,31.93-4.57,27.95-2.72,56.01-4.48,84.1-3.73,24.7-.17,49.39.93,74.07,1.71,17.62.04,35.26.3,52.86,1.25,16.66.88,33.36.87,50.02,1.89,4.75.43,9.49.91,14.26,1.04,3.05.49,8.55-1.19,8.84,2.88,0,1.4-1.21,2.76-2.67,2.68-8.1-.19-16.18-.81-24.24-1.58-34.85-1.1-69.66-3.14-104.53-3.29-34.93-1.67-69.93-2.51-104.9-2.03-25.46,1.42-51.08,2.59-76.21,7.14-4.2.77-8.34,1.73-12.42,3.02-1.02.32-2.18-.36-2.46-1.39Z"/>
  <path d="m379.19,27.41c-7.35-5,8.74-8.79,12.15-9.32,4.05-.8,8.19-1.09,12.28-1.55,8.64-.9,17.2-2.36,25.8-3.57C466.57,7.55,503.94,3.66,541.31.1c2.18-.17,5.72-.47,5.46,2.68-.56,3.01-4.08,1.71-6.23,2.09-38.49,3.43-76.98,7-115.27,12.3-8.11,1.18-16.23,2.29-24.4,3.02-6.76.74-13.94,1.22-19.96,4.65,1.52,1.16-.08,3.55-1.73,2.57Z"/>
  <path d="m289.17,470.74c-.79-.77-1.16-1.75-1.4-2.8-.47-2.16-1.02-4.31-1.74-6.4-1.78-4.76-4.29-9.19-5.81-14.05-1.55-4.87-2.54-9.89-3.94-14.8-2.4-8.37-5.46-16.45-8.39-24.61-6.03-15-10.94-30.5-16.13-45.74-5.86-17.73-14.33-34.6-18.48-52.87-.62-2.48,3.1-3.67,3.89-1.07,1.08,4.74,2.38,9.43,3.99,14.02,3.51,9.71,7.63,19.17,11.23,28.85,4.97,12.71,8.98,25.76,13.68,38.57,4.84,12.22,9.63,24.48,13.84,36.93,2.17,6.47,3.46,13.19,5.6,19.67,2.57,6.85,6.42,13.2,7.74,20.48,2.25,2.65-1.5,6.31-4.1,3.82Z"/>
  <path d="m258.66,574.47c-3.81-23.12-10.44-45.37-16.1-68.04-2.95-11.33-7.22-22.27-9.63-33.75-4.01-17.13-5.04-34.75-8.34-52.01-3.02-14.79-7.06-29.3-10.9-43.89-2.41-8.48-4.96-16.93-6.65-25.59-2.34-11.8-3.96-23.74-5.35-35.68-.47-4.02-.22-8.04.04-12.06.05-.92.73-1.7,1.7-1.7.89,0,1.75.77,1.7,1.7-.09,1.54-.21,3.07-.26,4.6-.2,2.87.05,5.74.37,8.6,1.82,14.28,3.79,28.67,7.37,42.61,4.01,14.25,8.1,28.48,11.68,42.85,5.46,18.91,7.27,38.56,10.27,57.94,3.23,19.89,10.92,38.62,15.37,58.23,4.95,18.4,9.7,36.91,13.28,55.57.35,2.83-4.02,3.77-4.56.63Z"/>
  <path d="m165.25,461.16c-1.05-1.01-.83-2.51-.95-3.83-.18-3.46-.98-6.79-1.87-10.11-1.7-8.35.57-16.84.04-25.19-1.77-15.93-3.11-31.94-5.93-47.73-3.07-16.24-2.21-32.79-2.4-49.22-.12-5.71-.49-11.41-1.29-17.07-.33-2.72,3.8-3.44,4.27-.58,2.36,16.45,1.01,33.13,2.06,49.66.74,10.9,3.28,21.57,4.76,32.38.71,5.38,1.13,10.78,1.84,16.16.67,5.28,1.47,10.54,1.88,15.84.54,7.05-.86,14.08-.41,21.14.19,3.12,1.52,6,2.09,9.04.45,2.47.7,4.96.86,7.47.14,2.48-3.28,3.88-4.95,2.05Z"/>
  <path d="m132,561.98c-.66-11.59-.23-23.19.94-34.75.86-7.4.58-14.87.86-22.3.19-9.28.47-19.19-.08-28.34-.68-8.76-3.21-17.24-4.07-25.98-2-24.55,1.61-49.12,1.52-73.7-.02-20.84-2.47-41.6-2.37-62.45-.18-8.2-.56-16.39-.38-24.59.04-2.21.25-4.43.41-6.63.09-1.21,1.36-2.07,2.51-1.91,2.64.49,1.77,3.43,1.7,5.34-.37,5.9-.15,11.82.06,17.72.48,19.41,1.36,38.85,2.75,58.15.93,18.32-.31,36.66-1.16,54.96-.84,15.67-1.04,31.51,2.55,46.89,2.62,11.9,2.15,24.12,1.97,36.21-.29,8.4-.05,16.83-.75,25.21-.53,4.84-.87,9.69-1.07,14.55-.72,7.22-.19,14.4,0,21.61-.08,3.41-5.25,3.65-5.38,0Z"/>
  <path d="m77.86,395.34c.21-7.52,2.71-15.06,2.83-22.53.52-10.76-.16-21.54.66-32.29,1.18-16.1,2.94-32.16,4.53-48.23,1.08-9.27,1.33-18.72,3.82-27.76.3-1.19,1.6-1.89,2.77-1.57,3.2,1.19.65,5.01.45,7.35-3.01,22.64-4.73,45.47-6.62,68.23-1.16,14.55.73,29.21-1.3,43.7-.67,4.36-1.7,8.67-1.73,13.1-.11,3.52-5.31,3.6-5.41,0Z"/>
  <path d="m91.48,845.33c-9.27.25-16.16-5.51-23.56-10.16-21.91-12.19-24.64-42.08-14.9-63.12,4.86-11.51,20.54-10.57,26-21.49,3.12-8.35,5.83-17.14,13.43-22.63,3.71-2.65,13.77-13.06,16.94-6.13.2,1.47-.86,2.86-2.32,3.07-10.33,4.03-18.63,13.21-21.47,23.91-4.65,18.23-25.84,13.76-29.86,31.14-4.09,14.22-4.22,32.17,6.45,43.57,5.87,6.24,13.82,10.18,20.89,14.83,7.17,1.96,14.88,1.9,21.86-.01,2.73-3.32,7.5,1.52,5.15,4.57-5.33,2.84-12.51,2.64-18.61,2.46Z"/>
  <path d="m106.26,841.72c-2.05-1.71-2.41-4.45-3.73-6.63-10.26.9-19.35-5.9-27.07-11.86-9.43-6.11-12.54-17.84-12.22-28.55,2.21-9.23,10.97-14.58,17.72-20.41,7.91-9.66,15.67-19.78,21.98-30.63,6.49-9.11,14.88-3.44,8.84.22-1.99.25-3.59,1.53-4.65,3.18-6.48,11.08-14.37,21.57-22.65,31.29-5.45,4.73-11.8,8.71-15.24,15.29-1.75,6.53.77,14.72,4.16,20.4,7.41,6.94,16.12,14.34,26.47,15.76,5.04-1.08,7.73,1.83,8.86,6.34.62,1.9,3.13,3.59,1.13,5.58-1.01,1.01-2.59.95-3.61,0Z"/>
  <path d="m103.49,818.62c-4.47-.27-9.16-1.04-12.93-3.61-4.97-3.12-7.71-11.35-.94-14.09,5.51-2.92,11.4.02,17.1.43,2.81.19,5.61-.25,8.42-.18,3.06.17,6.13.67,9.17-.05,14.33-2.56,21.87-13.22,21.6-27.48-.13-3.12-2.91-5.27-4.6-7.67-4.02-5.26-8-10.59-12.67-15.3.91,4.46,1.81,8.27,2.61,12.59.72,2.88,1.29,5.97-.16,8.73-2.51,5.42-8.57,7.67-13,11.19,3.63.01,7.6-.37,10.66,1.97,4.36,3.13,4.76,5.58.46,9.13-2.42,2.3-5.56,3.43-8.82,3.83-3.66.76-7.09,1.5-10.8,1.46-3.3.24-6.79.88-10.01-.19-2.42-1.07-4.81-2.37-6.74-4.21-2.47-2.36-3.37-5.8-3.04-9.13.89-7.95,11.4-9.53,17.29-12.8,1.96-1.29,6.14-2.81,6.22-5.45-1.55-8.58-5.17-16.8-4.71-25.69-.01-1.21,1.02-2.22,2.21-2.22s2.21,1.01,2.22,2.22c.02,2.21.08,4.42.35,6.62.65,4.86,2.31,9.52,3.48,14.27.5,2.11,1.15,4.3.73,6.48-2.61,8.1-17.15,9.69-22.52,14.97-1.41,2.11-1.07,5.17.48,7.11,1.85,1.84,4.34,3.49,6.93,3.94,5.2-.14,10.55-.11,15.55-1.72,3.04-.72,6.19-1.36,8.35-3.83-3.54-2.93-8.82-.51-12.95-2.05-4.7-1.51-2.7-5.92.4-8.03,2.35-2.01,5.05-3.57,7.61-5.28,2.08-1.56,4.73-3.11,5.23-5.88-.86-4.87-2.2-9.73-3.21-14.59-1.73-5.04-.53-13.56,6.61-9.68,4.38,2.97,7.49,7.54,10.9,11.52,1.71,2.22,3.4,4.46,5.12,6.68,2.91,3.46,6.06,7.23,5.7,12.03,0,17.27-11.61,29.64-28.62,31.62-2.51.31-4.98,0-7.49-.19-3.63-.13-7.25.5-10.87,0-3.69-.21-7.29-2.07-11.01-1.37-1.11.3-2.39.61-3.18,1.47-.39,1.98,1.38,3.73,2.85,4.81,2.22,1.45,4.85,2.05,7.44,2.47,4.9.72,9.83-.41,14.72-.71,6.34-.3,12.72-.06,18.95-1.52,6.72-1.37,11.62-6.73,16.74-10.91,1.47-1.27,2.79-2.69,3.88-4.3,3.64-5.77,5.36-12.43,6.68-19.05.3-1.32,1.79-2.07,3.05-1.73,1.34.37,2.02,1.73,1.73,3.04-1.06,5.2-2.29,10.37-4.54,15.2-2.04,5.15-5.71,9.34-10.05,12.69-6.15,5.46-12.05,9.88-20.53,10.59-5.23.97-10.56.58-15.84.92-4.06.34-8.11.99-12.18.94Z"/>
  <path d="m142.62,788.81c-2.51-3.78-5.1-7.61-6.85-11.82-1.01-2.58,2.76-4.18,3.9-1.65,1.72,4.03,4.22,7.67,6.6,11.33,1.36,2.4-2.15,4.5-3.65,2.14Z"/>
  <path d="m135.02,795.02c-.65-5.91-3.5-13.34,1.29-18.2,1.67-1.32,5.16-3.35,6.48-.63.76,2.16-.96,3.02-2.72,3.57-1.43.61-1.75,2.3-1.91,3.7-.07,3.69.87,7.31,1.35,10.95.2,1.22-.74,2.39-1.94,2.55-1.22.17-2.36-.72-2.55-1.94Z"/>
  <path d="m168.29,824.8c-3.81.17-7.48-1.13-11.05-2.34-4.4-1.6-8.73-3.63-12.19-6.84-1.58-1.61-4.43-4.87-1.73-6.7,2-1.01,3.12.46,3.91,2.11,1.6,2.12,3.99,3.47,6.3,4.71,6.34,3.06,13.3,5.05,20.37,3.89,1.33-.2,2.6.8,2.78,2.11.15,4.16-5.7,2.77-8.39,3.06Z"/>
  <path d="m173.39,812.6c-5.8-1.38-12.28-2.9-16.23-7.7-1.43-2.13-4.51-6.19-1.12-7.92,4.36-1.44,3.81,7.13,11.31,8.48,2.63.78,5.29,1.87,8.05,1.93,1.51-.24,3.02.69,3.23,2.26.34,2.96-3.02,3.45-5.24,2.94Z"/>
  <path d="m174.81,824.14c-3.05-.95-1.78-5.42,1.28-4.66,2.29.68,4.71-.07,6.94-.69,8.69-3.19,17.25-13.66,14.51-23.28-.69-2.93-1.93-5.76-3.53-8.3-1.57-2.11-3.21-4.19-4.4-6.54-1.76-3.39-3.6-6.74-5.31-10.16-1.47-3.24-1.25-6.98-.58-10.39.2-2.19,2.42-4.42,1.7-6.54-1.5-2.3-2.81-4.74-4.48-6.92-2.59-2.64-5.81-4.92-9.4-5.9-7.17-1.15-14.29.71-21.43,1.18-2.35.14-4.77.17-6.88-1.03-2.61-1.45-4.08-4.13-6.26-6.08-5.14-4.13-12.04-5.21-18.25-6.89-2.51-.48-4.95-.83-7.22-.99-2.59-.19-6.6.4-6.71-3.25,0-1.63,1.41-3.16,3.09-3.09,2.93.12,5.85.35,8.74.86,5.68,1.05,11.31,2.51,16.71,4.58,3.7,1.31,7.05,3.52,9.55,6.55,2.69,3.57,3.45,4.39,8.04,3.81,11.23-1.11,22.61-4.13,31.5,4.97,2.78,2.2,4.38,5.37,6.26,8.29,2.67,3.24,1.88,6.65.19,10.11-.97,2.96-1.32,6.47.13,9.33,2.1,3.92,4.02,7.94,6.34,11.73,4.28,5.22,7.28,11.58,7.6,18.39.22,13.06-14.83,27.8-28.11,24.93Z"/>
  <path d="m170.51,806.49c-.1-2.07,1.86-2.22,3.13-3.06,5.46-5.13-1.7-15.74-2.54-22.16-3.41-5.05-1.82-28.23-10.08-23.8,1.31,5.71,3.23,11.22,5.64,16.56.54,1.3-.08,2.84-1.38,3.38-4.76.97-4.89-6.76-6.78-9.77-1.06-3.49-2.31-6.99-3.05-10.54.6-6.29,9.98-7.32,13.77-3.21,4.06,4.1,3.39,10.37,4.59,15.62,1.94,9.8,5.92,19.14,7.31,29.07,1.32,4.72-8.12,15.58-10.61,7.92Z"/>
  <path d="m99.33,863.34c-2.23-.59-4.34-1.75-5.64-3.7-2.44-3.6-1.01-7.66,3.53-8,2.39-.51,4.61-1.52,6.79-2.6,1.99-.89,4.11-1.55,5.73-3.09,5.07-4.75,6.53-11.81,1.72-17.32-2.73-3.25-7.05-3.87-10.9-4.95-4.35-1.4-7.93-4.42-11.07-7.65-2.93-3.02-5.45-6.5-6.77-10.54-1.13-3.17-.73-6.65-1.35-9.89-.36-.99-.43-2.28.73-2.75,3.81-1.01,3.04,7.61,3.71,9.89.77,3.46,2.93,6.83,5.22,9.38,2.95,3.16,6.18,6.32,10.32,7.84,3.02.94,6.22,1.39,8.99,3,9.3,5.17,10.28,17.87,3.25,25.4-1.94,2.24-4.61,3.57-7.26,4.78-2.73,1.5-5.57,2.77-8.62,3.46,1.26,1.99,4.02,2.1,6.14,2.37,8.13-.06,16.4-3.2,22.1-9,2.07-3.21,5.82-5.08,9.42-3.15,2.76,1.39,4.57,4.14,7.44,5.39,8.13,3.72,17.48,1.92,25.74-.37,9.45-3.21,17.45-5.58,22.13-15.25,1.99-3.32,4.94-6.94,3.12-10.95-4.38,2.9-7.37,7.44-11.41,10.78-3.27,3.15-6.87,6.54-11.61,7.04-4.12.14-8.36-1.02-12.4-1.55-3.8-.65-7.09-2.67-10.38-4.56-3.41-1.72-6.35-4.13-9.28-6.52-2.74-1.8-6.04-2.22-9.03-3.41-4.3-1.83-8.29-4.41-12.93-5.32-3.56-1.07-2.14-6.43,1.52-5.51,3.56.76,6.9,2.22,10.08,3.96,3.31,1.91,7.09,2.6,10.55,4.14,2.36.96,4.26,2.67,6.08,4.4,4.41,3.42,8.89,6.65,14.32,7.96,1.49.29,2.98.48,4.48.68,2.53.23,5.14,1.29,7.65.46,3.1-1.06,5.2-3.67,7.45-5.91,3.1-2.95,5.46-6.02,8.41-8.98,2.32-1.97,5.04-4.73,8.34-4.22,3.86.94,4.81,7.42,4.73,10.78-.56,3.06-2.14,5.86-3.76,8.49-2.4,4.08-4.86,8.22-8.66,11.16-4.28,3.45-10.2,5.33-15.13,7.04-11.95,3.89-28.62,5.98-38.28-3.78-3.1-3.01-3.47-.13-5.71,1.84-7.12,6.59-19.95,11.21-29.52,8.77Z"/>
  <path d="m160.52,833.66c-6.45-.38-.38-9.68-15.42-15.19-.79-.34-1.18-1.27-.84-2.07,1.15-2.16,3.58.05,5.16.53,5.26,2.26,9.43,6.56,11.38,11.95,2.48-1.62,5.11-3.4,6.57-6.04,1.34-2.91,5.69-1.08,4.5,1.9-1.59,3.47-7.44,8.76-11.34,8.92Z"/>
  <path d="m124.48,823.03c-2.6-1.28-5.02-2.96-7.77-3.86-1.84-.09-3.77-.08-5.46-.93-2.91-1.41-.81-5.61,2.07-4.13,1.46.81,3.18.52,4.73.98,3.02,1.04,5.73,2.85,8.57,4.28,2.38,1.45.3,5-2.14,3.67Z"/>
  <path d="m81.5,796.71c-1.15-8.5,2.52-16.17,4.88-24.15.95-2.4-.21-6.9,3.77-6.55,6.59,1.62-2.38,18.3-3.26,22.83-1.02,3.27,2.14,9.82-2.7,10.54-1.48,0-2.65-1.22-2.68-2.68Z"/>
  <path d="m97.59,781.33c-1.06-.14-1.88-1.18-1.7-2.25.65-4.56,1.66-9.2.63-13.78-.24-1.14-.96-2.16-.75-3.37.17-1.95,3.11-2.33,3.8-.5,1.51,4.28,1.66,8.92.98,13.38-.61,2.07.2,6.7-2.95,6.52Z"/>
  <path d="m49.65,757.45c-.76-5.09-1.5-10.26-.73-15.4.68-4.97,1.71-9.89,2.71-14.8,2.55-12.77,12.13-23.11,23.05-29.63,5.85-3.28,12.32-5.09,18.64-7.18,2.56-.84,5.12-1.68,7.67-2.53,1.21-.4,2.56.45,2.89,1.64.35,1.29-.43,2.48-1.64,2.89-6.35,2.16-12.74,4.2-19.08,6.39-10.24,4-19.16,11.68-24.35,21.39-1.99,3.9-2.96,8.65-3.77,12.7-.93,4.74-2.09,9.49-2.12,14.34,0,3.23.62,6.41,1.01,9.61.16,1.16-.68,2.27-1.84,2.43-1.15.16-2.27-.67-2.43-1.84Z"/>
  <path d="m69.1,852.22c-13.07-.96-25.4-2.7-35.49-11.84-4.63-3.76-9.4-7.46-13.11-12.18-5.27-6.57-9.46-13.94-14.8-20.46-1.64-2.07-3.39-4.06-5.1-6.08-1-1.18-.67-3.06.51-3.98,1.27-.98,2.98-.66,3.98.51,4.42,5.12,8.57,10.46,12.29,16.12,4.04,5.94,7.8,11.98,13.29,16.66,5.4,4.46,10.47,9.69,17.1,12.31,6.95,2.9,14.58,3.39,22,4.08,3.14.47,2.54,5.19-.66,4.85Z"/>
  <path d="m126.58,884.15c-2.98-.05-3-4.53,0-4.56,6.4.42,12.84.3,19.21-.45,10.06-1.02,19.59-5.46,27.51-11.63,4.28-4.06,7.32-9.08,10.27-14.11,1.06-1.79,3.83-.21,2.78,1.62-4.32,7.39-9.03,15.08-16.72,19.35-4.6,2.76-9.27,5.53-14.45,7.05-9.25,2.63-19.03,3.09-28.6,2.73Z"/>
  <path d="m224.94,757.01c-7.53-15.9-10.84-23.05-27.52-30.47-6.37-3.18-12.95-6.46-20.17-6.91-5.26-.38-10.46.72-15.64,1.45-4.1.58-8.19,1.15-12.25,1.95-.88.16-1.73-.55-1.85-1.4-.12-.92.52-1.68,1.4-1.84,2.39-.45,4.78-.88,7.18-1.24,12.6-1.93,22.99-4.77,35.26.89,14.88,6.56,24.96,10.44,32.63,25.82,1.79,3.29,3.44,6.65,5.07,10.02.53,1.09-.11,2.47-1.19,2.92-1.11.48-2.41-.07-2.92-1.18Z"/>
  <path d="m213.9,861.99c-.97-.41-1.56-1.66-1.07-2.65.93-1.89,1.85-3.78,2.72-5.7,1.54-3.23,2.88-6.56,3.79-10.03,1.36-4.85,2.14-9.84,2.76-14.83.73-6.4,1.92-12.95.7-19.36-1.52-8.39-8.06-14.31-13.49-20.33-1.63-1.7.85-4.25,2.57-2.57,17.43,17.45,16.54,24.28,13.32,47.64-.92,6.48-2.4,12.94-5.05,18.94-1.17,2.62-2.37,5.22-3.6,7.81-.47,1.01-1.64,1.52-2.65,1.07Z"/>
  <path d="m148.11,694.81c-.09-.65.39-1.38,1.08-1.43,1.69-.11,3.39-.29,5.02-.65,6.41-1.31,12.55-3.48,18.76-5.47,14.27-4.39,28.55-8.97,43.24-11.77,6.17-1.26,12.43-2.02,18.7-2.59.78-.07,1.51.43,1.62,1.23.1.75-.45,1.55-1.23,1.62-3,.27-6.01.52-8.99.91-3.09.41-6.16.92-9.23,1.47-15.88,2.94-31.22,7.85-46.62,12.62-2.66.78-22.24,7.63-22.35,4.05Z"/>
  <path d="m239.71,718.54c-.09-.67.39-1.32,1.06-1.4,1.57-.2,3.15-.39,4.71-.67,2.6-.45,4.99-.94,7.51-1.46,17.83-3.74,35.92-6.79,54.18-6.44,1.66.02,1.73,2.59,0,2.61-17.92-.44-35.81,2.54-53.27,6.18,0,0,.02,0,.03,0,0,0,.01,0,.06,0-2.69.55-5.35,1.11-8.05,1.56-1.61.29-3.22.48-4.83.69-.66.09-1.31-.38-1.4-1.06Z"/>
  <path d="m242.39,785.63c-.09-.7.41-1.36,1.11-1.46,2.19-.31,4.4-.57,6.56-1.06,11.98-3.32,24.09-6.44,36.28-8.84,3.1-.64,6.15-1.18,9.26-1.71.73-.12,1.43.45,1.53,1.16.1.75-.43,1.41-1.16,1.53-4.01.66-8,1.43-11.82,2.19-10.08,2.16-20.14,4.34-30.02,7.31-3.37.95-6.81,1.55-10.29,1.98-.68.1-1.36-.4-1.46-1.11Z"/>
  <path d="m229.89,859.59c-.32-.77.05-1.65.8-1.98,1.91-.85,3.82-1.7,5.75-2.53,8.1-3.29,16.05-6.93,24.2-10.1,8.33-2.99,17.13-4.17,25.78-5.89,2.13-.27,2.6,2.91.45,3.27-6.79,1.22-13.62,2.26-20.31,3.97-5.05,1.47-9.91,3.47-14.73,5.56-4.67,2.02-9.38,3.93-14.07,5.9-1.97.85-3.93,1.72-5.89,2.6-.74.33-1.67-.05-1.98-.8Z"/>
  <path d="m332.04,906.87c-12.34-.58-17.24-17.26-11.9-26.94,3.62-4.64,9.91-6.3,14.54-9.79,8.07-6.06,14.48-14.03,22.46-20.18,9.79-6.32,23.87-16.32,35.73-15.52,5.55,1.59,2.85,9.34-2.02,5.61-19.78,4.99-34.8,19.03-49.13,32.71-4.63,4.88-12.21,6.46-16.47,11.39-1.66,5.18-.73,11.03,3.36,14.81,11.67,5.57,23.82-5.23,33.83-10.48,11.69-5.94,21.64-14.39,32.48-21.59,3.65-2.19,7.07,3.56,3.34,5.71-6.15,3.49-11.17,8.57-17.12,12.36-15.69,8.15-30.45,22.87-49.12,21.89Z"/>
  <path d="m310.5,895.75c-8.19-3.11-17.21-15.19-16.95-24.03.52-4.73,5.73-6.81,9.48-8.7,4.31-1.09,7.89-3.58,11.64-5.85,4.58-2.57,9.24-4.99,14.05-7.09,5.01-2.42,10.58-3.22,15.92-4.59,4.13-1.09,8.15-2.49,12.3-3.5,9.82-3.11,20.45-3.46,29.99-7.42,1.21-.53,2.68.08,3.19,1.29,1.12,3.22-3.21,3.91-5.34,4.84-4.05,1.15-8.04,2.46-12.14,3.43-5.52,1.18-10.97,2.62-16.32,4.44-3.8,1.1-7.51,2.47-11.36,3.42-5.14,1.25-10.38,2.34-15.1,4.83-6.29,2.83-12.31,6.22-18.14,9.89-3.78,2.11-8.36,2.6-11.58,5.72.66,6.61,9.26,19.17,16.89,17.36,4.33-.48,5.21,5.81.9,6.57-2.49.43-5.08.39-7.43-.6Z"/>
  <path d="m400.36,876.13c-8.06-2.22-9.64-10.83-11.59-17.85-3.13-8.65.05-17.71,2.36-26.17,2.89-8.71,10.84-13.54,17.8-18.71,13.92-11.88,32.53-17.3,49.54-23.33,7.3-1.61,14.62-3.59,21.83-4.7,11.83.13,23.68-.51,35.49-.61,7.45.73,15.15,2.19,22.36-.6,19.38-9.86,10.73,25.65,20.18,34.29,5.37,8.83,17.96,16.17,19.85.89-2.1-3.75-4.23-7.71-3.61-12.19,3.97-10.52-10.37-19.61-3.64-25.27,3.93-2.75,8.78-1.79,13.26-2.14,3.79-.14,7.17-2.32,10.95-2.29,2.94-.13,4.58,3.85,2.42,5.85-.98,1.06-2.38.96-3.69,1.1-5.61,2.46-11.59,2.09-17.41,2.52,4.93,6.58,6.21,14.62,4.95,22.56.3,3.76,3.91,6.4,3.73,10.29-.03,8.84-8.38,17.37-17.48,15.22-7.09-2.58-12.52-8.69-16.4-14.98-6.29-9.24-4.24-20.7-7.65-30.78-9.15,4.83-19.54,3.29-29.39,2.23-16.54,1.09-33.27-.83-49.33,4.11-8.98,1.65-17.28,5.47-25.67,8.91-10.98,3.84-21.17,9.18-29.82,16.98-9.74,5.01-13.52,14.89-15,25.16,0-.03,0-.05.01-.07-1.12,7.56,1.38,16.23,5,22.83,1.91,1.36,5.8,2.11,4.56,5.27-.57,1.36-2.25,2.07-3.59,1.46Z"/>
  <path d="m660.37,877.56c-3.54-8.64,28.12-5.73,33.85-9.23,24.96-7.71,55.32-19.11,62.74-46.96,2.25-11.55-1.43-23.21-3.77-34.43-3.42-15.72-13.98-30.2-30.64-32.95-19.26-5.19-39.61-2.83-58.74,2.03-13.15,3.75-25.52,9.74-37.91,15.43-9.49,4.96-18.67,10.83-29.43,12.43-3.17,4.55-8.27-2.64-3.07-4.66,2.89-1.37,6.13-1.45,9.09-2.61,22.74-11.51,45.1-25.01,70.52-29.63,17.88-2.98,35.99-4.2,53.53,1.08,20.54,4.55,31.46,24.41,34.61,43.8,1.86,9.08,4.16,18.35,2.86,27.69-5.02,31.72-38.49,45.98-65.81,54.67-8.54,2.8-17.49,2.88-26.3,4.02-3.76-.44-9.21,3.5-11.55-.7Z"/>
  <path d="m485.93,927.94c-7.62-.37-16.46-9.07-12.26-16.81,3.48-4.6,9.96-6.05,14.73-8.96,18.96-10.16,38.98-20.33,60.95-20.64,20.58-1.31,42.79-3.27,60.66-14.31,9.87-7.08,19.7-16.01,31.75-18.89,2.99,0,8.18-2.27,9.15,1.84.14,4.75-6.14,2.96-9.17,3.94-15.64,5.56-26.53,20.73-42.43,25.64-19.56,7.16-40.61,7.71-61.11,9.53-19.45,4.02-36.8,13.73-54.18,22.78-1.47,1.06-4.23,1.39-4.64,3.3.88,3.12,4.1,5.65,7.35,5.79,16.03-2.22,31.08-9.98,46.62-14.43,8.64-3.27,17.76-3.47,26.87-3.45,8.81-1.16,17.67-1.4,26.54-1.67,10.32-1.45,20.98-1.52,31.02-4.42,11.41-5.36,23.53-9.35,34.51-15.53,4.72-1.97,8.98-13.01,14.42-8.18,2.79,4.74-4.81,7.85-7.15,11.2-7.39,6.37-17.08,8.94-25.79,12.96-6.07,2.43-11.79,5.88-18.22,7.3-6.53,1.55-13.31,1.31-19.89,2.59-15.43,1.37-30.95,2.3-46.42,2.77-21.86,2.25-41.43,16.03-63.28,17.64Z"/>
  <path d="m458.05,891.54c-16.06.15-32.18-.86-46.31-9.24-3.38-.93-19.87-9.03-16.69-12.81,3.98-4.44,8.77,3.36,12.82,4.54,5.57,2.06,10.8,4.11,16.08,6.75,29.8,9.24,61.61,1.33,92.04-.21,6.2.49,36.21-4.54,35.4,3.78-1.26,5.24-8.09,1.99-11.82,2.11-7.36.1-14.71.56-22.07.86-19.87.89-39.54,4.84-59.47,4.22Z"/>
  <path d="m534.78,799.13c-.59-1.99,1.14-3.53,2.98-3.74,1.38-.5,2.58-1.38,3.7-2.3.74-.71,1.14-.94,1.57-1.67.66-1.19,2.25-1.57,3.41-.89,2.67,1.71.3,4.66-1.32,6.19-2.23,2.36-8.29,7.28-10.34,2.42Z"/>
  <path d="m539.03,812.42c-1.12-2.64,1.64-3.85,3.51-4.88,2.36-1.4,4.62-5.92,7.64-3.2,3.95,3.49-9.12,13.56-11.14,8.09Z"/>
  <path d="m547.34,832.2c-3.23-1.51-.91-4.91.22-7.09,1.42-2.31,3.6-7.11,6.92-4.91,2.26,1.79.45,4.2-1.01,5.81-1.77,2.17-2.33,7.51-6.14,6.19Z"/>
  <path d="m565.28,841.85c-1.68-3.63-4.64-12.72,1.6-13.14,4.34.8,1.36,5.62,2.96,8.38.93,2.1,2.18,5.14-.65,6.36-1.48.63-3.27-.08-3.91-1.59Z"/>
  <path d="m589.91,837.65c-3.57-1.85-8.64-2.73-10.32-6.8-.87-2.57,2.33-4.97,4.58-3.52,2.17,2.35,5.29,3.24,8.12,4.69,3.65,1.54,1.24,7.19-2.38,5.63Z"/>
  <path d="m587.01,824.47c-6.03-.66-4.34-9.34,1.03-5.74,4.09.47,2.94,6.79-1.03,5.74Z"/>
  <path d="m578.85,812.07c.03-4.98,7.16-2.95,10.45-3.78,1.51-.09,2.78,1.34,2.78,2.78.03,2.39-2.44,2.97-4.38,2.88-2.87-.18-7.94,2.17-8.86-1.88Z"/>
  <path d="m580.85,802.3c-1.3-.01-2.39-1.08-2.39-2.39s1.09-2.41,2.39-2.39c2.67.02,5.35.11,8.02.02,3.13.05,3.15,4.69,0,4.79-2.67.1-5.35.01-8.02-.02Z"/>
  <path d="m583.24,793.35c-2.45-.28-6.87.89-7.07-2.73,0-1.41,1.19-2.64,2.62-2.62,2.45.25,6.87-.86,7.07,2.73,0,1.4-1.2,2.66-2.62,2.62Z"/>
  <path d="m713.55,853c-.84-1.51.51-2.58,1.81-3.03,3.89-2.2,7.91-4.17,11.72-6.5,2.48-1.76,4.94-3.58,7-5.83,2.93-3.98,5.59-8.16,9.26-11.54,4.89-6.85,4.2-16.68,2.1-24.45-1.12-3.94-2.78-7.69-4.5-11.39-.45-.99.09-2.2,1.06-2.61,1.02-.43,2.16.07,2.61,1.06,1.1,2.45,2.26,4.89,3.19,7.41,3.27,8.44,4.47,18.01,1.64,26.75-1.27,5.11-5.89,8.02-8.8,12.1-4,5.91-9.74,10.64-16.06,13.89-2.94,1.44-5.66,3.27-8.55,4.79-.86.44-1.95.25-2.47-.65Z"/>
  <path d="m690.22,862.27c0-.58.48-1.07,1.07-1.07s1.07.48,1.07,1.07-.48,1.07-1.07,1.07-1.07-.48-1.07-1.07Z"/>
  <path d="m462.8,885.54c-2.25-.09-4.48-.46-6.7-.88-.92-.13-1.62-1.02-1.48-1.95.12-.89,1.02-1.66,1.95-1.48,1.83.36,3.67.64,5.52.82,2.34.2,4.66-.13,6.95-.6,6.94-1.23,13.78-4.14,20.78-4.78,8.26-.39,16.5-1.94,24.75-2.38,2.81-.23,5.63-.05,8.45.02,3.67.13,7.39-.51,11.02.21,2.91.63,5.8,1.37,8.7,2.03,1.07.3.67,1.98-.47,1.7-3.46-.72-6.86-1.84-10.38-2.21-2.61-.1-5.2.21-7.81.27-5.86-.19-11.55.17-17.28,1.15-6.42,1.01-12.86,1.75-19.3,2.56-8.18,1.9-16.22,5.5-24.71,5.52Z"/>
  <path d="m440.86,881.12c-4.93-.9-9.38-3.17-14.18-4.46-3.47-.71-5.82-3.36-8.6-5.3-1.42-1.22-4.91-1.67-4.08-4.15,1.11-2.26,3.47-.33,4.95.45,2.57,1.34,4.33,3.76,6.83,5.18,2.39,1.08,5.05,1.43,7.38,2.67,2.69,1.3,5.68,1.8,8.54,2.61.82.21,1.32,1.11,1.09,1.92-.22.84-1.11,1.31-1.92,1.09Z"/>
  <path d="m354.31,892.24c-.33-.56-.14-1.32.43-1.65,1.28-.74,2.57-1.46,3.78-2.28,4.4-3.08,8.2-6.9,12.63-9.96,3.71-2.75,7.34-5.6,10.99-8.42.51-.39,1.26-.3,1.65.21.39.51.3,1.26-.21,1.65-2.28,1.77-4.56,3.53-6.84,5.3-3.77,2.92-7.66,5.67-11.26,8.8-2.91,2.61-6.08,4.91-9.52,6.78-.56.33-1.31.14-1.65-.43Z"/>
  <path d="m312.85,884.32c-13.23-5.8-3.97-12.16-2.64-6.79,1.31,1.36,3.22,2.08,4.86,3,2.46,1.49.31,5.16-2.21,3.79Z"/>
  <path d="m424.36,814.59c-.32-.77.05-1.66.8-1.98,3.86-1.7,7.54-3.13,11.41-4.41-.01,0-.02,0-.04.01-.01,0-.02,0-.04.01.61-.22,1.21-.41,1.8-.63-.04.02-.08.03-.13.04-.01,0-.03,0-.04.01,1.2-.42,2.25-.79,3.38-1.18,1.85-.77,3.04,2.06,1.19,2.83-.63.22-1.27.44-1.89.66-2.03.71-4.2,1.45-6.2,2.15-2.79,1.02-5.54,2.13-8.28,3.28-.75.32-1.66-.04-1.98-.8Z"/>
  <path d="m400.67,835.24c-.62-.62-.62-1.66,0-2.29,1.42-1.51,2.9-2.96,4.46-4.33,1.72-1.55,3.45-3.08,5.18-4.62.66-.59,1.64-.65,2.3,0,.6.6.66,1.71,0,2.3-1.72,1.53-3.44,3.07-5.16,4.6-1.57,1.37-3.05,2.83-4.49,4.33-.63.62-1.66.63-2.29,0Z"/>
  <path d="m612.94,790h0c-1.3-.76-1.87-2.33-1.5-3.7-2.55-4.15,3.44-7.61,5.37-10.84,4.1-5.02,8.14-10.09,12.42-14.96,2.78-2.38,3.86-6.46,6.98-8.11,2.85-.87,5.24,2.73,4.27,5.23-4.08,8.14-10.05,15.08-15.47,22.35-2.14,2.39-3.03,6.79-6.37,7.65-1.37,1.7-3.38,3.78-5.69,2.38Z"/>
  <path d="m624.26,776.44c-2.14-.42-4.21-1.32-6.39-1.46-2.21,4.35-6.92-.11-9.83-1.34-3.69-.72-4.47-7.7-.2-8.18,14.87-2.08,29.2,1.91,43.49,4.69,3.17.82,3.17,5.56,0,6.4-6.95.86-14.11-.91-21.13-1.07-1.29,2.1-3.95,1.5-5.94.96Z"/>
  <path d="m658.17,793.21c-4.46-3.42,2.02-7.67,3.79-10.75,1.58-2.21,3.14-4.43,4.7-6.66,2.04-2.8,6.52.2,4.74,3.16-.56,4.57-5.4,9.35-8.61,12.61-.71,1.81-2.94,2.64-4.61,1.64Z"/>
  <path d="m672.17,790.89c-.28-.12-.57-.22-.85-.32-.7-.23-1.41-.44-2.11-.66-4.67.9-9.97-1.47-14.52-2.78-2.98-1.13-3.11-5.68.12-6.53,6.81-.09,16.81.81,21.71,5.93,1.21,2.64-1.74,5.53-4.35,4.35Z"/>
  <path d="m605.62,823.92c-8.53-2.29,1.97-10.44,4.69-13.76,3.05-2.77,7.61-13.29,11.63-12.34,4.4,1.57,1.16,6.13-.6,8.57-3,3.86-5.45,8.76-9.32,11.7-1.89,2.05-3.27,5.62-6.4,5.83Z"/>
  <path d="m627.91,816.88c-7.39-.83-14.91-.26-22.19-1.92-1.99.52-4.28-1.18-5.29-2.82-1.21-3.12,2.51-5.02,4.94-3.29,2.73-6.62,18.44.88,23.78,1.83,3.14,1.28,2.18,6.3-1.24,6.2Z"/>
  <path d="m653.81,760.45c-3.17-2.69.62-6.01,2.54-8.13,4.2-3.68,7.33-9.96,12.62-11.81,9.51,1.88-4.02,11.13-6.35,14.4-2.87,1.89-4.57,8.24-8.81,5.54Z"/>
  <path d="m669.18,756.33c-5-2.7-11.54-.79-16.12-4.37-2.59-2.49.18-6.03,3.26-5.95,2.83-2.29,6.17.8,9.04,1.36,3.57,1.58,7.91,1.91,10.82,4.76,2.74,5.07-3.54,6.24-7,4.2Z"/>
  <path d="m591.02,783.44c-3.78-2.89,1.59-7,3.17-9.71.22-3.48,9.05-9.89,8.74-2.84-1.59,2.81-8.34,15.05-11.92,12.55Z"/>
  <path d="m586.53,780.44c-.88-.64-1.34-1.76-1.25-2.83-1.73-4.64,5.03-5.88,8.34-5.24-.02,0-.04,0-.06,0-.01,0-.02,0-.1,0,3.08.37,6.22-.33,9.27.19,2.45.64,2.93,4.25.91,5.63-1.29,3.38-5.73,1.93-8.55,2.38-2.77.36-6,1.47-8.56-.11Z"/>
  <path d="m761.04,778.28c-19.73-10.77-13.43,2.54-21.68-.6-3.16-4.26,6.46-9.81,10.26-9.1,3.41.55,16.71,3.79,14.91,8.29-.55,1.29-2.2,2.04-3.49,1.42Z"/>
  <path d="m759.05,792.37c-2.03-3.52-11.34-6.62-9.16-10.65,4.01-4.48,9.98,4.2,13.21,6.6,2.64,2.6-1.44,6.69-4.05,4.05Z"/>
  <path d="m764.43,815.94c-3.25-5.07-5.99-10.45-7.47-16.32-.45-1.54.53-3.21,2.06-3.63,5.2-.58,4.15,7.28,6.64,10.32,1.23,2.25,2.51,4.47,3.86,6.65,1.95,3.26-3.16,6.3-5.1,2.98Z"/>
  <path d="m766.71,828.2c-1.67-3.72-9.38-8.81-5.74-12.83,4.98-2.69,7.35,6.59,10.3,9.32,2.27,2.95-2.3,6.49-4.56,3.52Z"/>
  <path d="m754.38,822.42c0-.52.43-.95.95-.95s.95.43.95.95-.43.95-.95.95-.95-.43-.95-.95Z"/>
  <path d="m749.81,806.16c-.36-5.63,12.05-3.42,15.94-4.51,1.62-.11,2.97,1.43,2.97,2.96.04,2.6-2.68,3.16-4.75,3.09-4.02-.63-12.65,3.62-14.16-1.54Z"/>
  <path d="m756.31,796.7c-.12-4.64,6.24-3.07,9.27-3.55,2.97.41,9.15-.99,8.99,3.54-.98,4.17-6.27,1.53-9.25,2-2.92-.42-8.08,2.12-9.02-2Z"/>
  <path d="m760.1,792.09c-.92-.93-.91-2.45,0-3.38,1.88-1.9,3.76-3.79,5.58-5.75.88-.95,2.46-.89,3.35,0,.95.95.86,2.39,0,3.35-1.78,1.99-3.67,3.88-5.55,5.79-.91.93-2.46.91-3.38,0Z"/>
  <path d="m736.51,769.47c-1.16-.68-1.56-2.21-.88-3.37,1.09-1.9,2.16-3.84,3.88-5.25,1.84-1.56,4.11-2.54,6.4-3.23,1.28-.41,2.69.47,3.04,1.73.68,2.75-2.36,3.15-4.2,3.97-1.2.65-2.43,1.38-3.22,2.52-1.18,1.78-2.3,5.1-5.02,3.64Z"/>
  <path d="m745.84,766.78c-.39-.93.05-2.07,1-2.45,1.59-.64,3.18-1.29,4.78-1.91,1.92-.45,5.85-2.89,6.82-.11.62,2.33-2.57,2.55-3.93,3.05-2.1.73-4.16,1.58-6.21,2.42-.93.38-2.05-.04-2.45-1Z"/>
  <path d="m555.63,797.36c-2.08-1.8-3.82-3.94-5.79-5.85-.21-.18-.44-.35-.66-.51-5.98-.6-1.4-8.53,2.89-4.76,2.84,1.72,4.88,4.45,7.58,6.37,3.24-.34,6.47-1.92,8.34-4.63,2.16-3.57,7.84-.1,5.63,3.45-3.67,5.03-12.16,10.08-17.99,5.93Z"/>
  <path d="m557.33,811.19c-.62-.17-1.06-.56-1.46-1.05-.07-.08-.12-.16-.18-.25-1.87.33-3.49-1.38-3.01-3.22.31-1.31,1.48-2.16,2.33-3.13-.61.11-1.22.06-1.81-.33-.51-.34-.88-.79-1.07-1.3-4.06-2.19.79-11.47,4.33-6.86,1-.72,2.38-.69,3.3.22.21.21.38.46.5.72,1.55.12,3.01,1.28,3.19,2.88,1.47-1.07,2.78-2.53,4.51-3.15,1.73-.56,3.58,1.16,3.19,2.91.56.98.41,2.25-.4,3.09-1.84,1.91-3.88,3.65-5.87,5.4-2.2,1.59-4.61,4.47-7.55,4.06Z"/>
  <path d="m568.26,830.53c-2.56.48-4.96-1.43-5.33-3.96-2.31,1.13-5.03-1.32-4.09-3.73-.28-.16-.55-.34-.82-.53-.11-.08-.23-.16-.34-.25-6.09.02-9.72-14.67-10.58-19.63-.11-.91-.31-1.83-.21-2.74.07-.5.25-.98.44-1.45-.04-.53-.07-1.06-.08-1.29-.15-5.27,6.8-5.05,6.97.16,5.32-1.25,4.67,5.62,6.53,8.77,2.47-2.07,4.72-4.09,7.08-6.2.33-1.8.56-3.61.76-5.42.23-2.11.09-4.91,2.42-5.86,6.65-1.76,5.46,8.62,5.91,12.63.66.83.79,2.01.29,2.95.23,1.63-.68,3.35-2.31,3.83,0,.09,0,.18.01.27,0,.12.02.24.03.36,5.69,1.97,6.48,10.58,3.02,14.82-.08.29-.17.57-.28.84-.23.61-.61,1.15-1.07,1.6-.61,3.72-4.77,6.68-8.36,4.83Z"/>
  <path d="m561.16,785.34c-2.49-.19-5.46-2.5-4.32-5.22-4.72-1.74-7.3-6.03-10.52-9.46-3.65-4.77-4.39-10.92-4.24-16.76.02-1.86.13-3.7.63-5.5.76-3.01,2.82-5.78,2.56-8.99-.56-4.42-3.27-8.27-5.48-12.04-3.05-4-5.93-8.52-5.6-13.77,0-5.56,2.21-10.88,2.11-16.42-.21-2.56-1.54-4.83-2.62-7.11-2.73-5.36-5.81-10.5-9.96-14.88-7.85-8.84-8.82-21.22-10.88-32.23-.38-2.95-.82-5.9-.96-8.88-.27-5.98,1.11-11.94,2.48-17.72,1.52-6.81,5.75-12.52,9.59-18.2,7.9-11.07,16.92-22.33,31.25-24.29,5.24-1.15,10.61-2.09,15.94-1.01,12.39,2.6,23.72,10.18,30.96,20.56,8.66,11.39,11.59,26.15,10.21,40.21-1.59,13.38-7.18,26.02-13.46,37.81-4.1,6.44-8.99,12.39-12.36,19.29-4.73,8.71-3.27,18.98-2.05,28.4,2.97,18.85.57,24.72-10,40.22-2.03,2.65-3.83,5.45-4.92,8.63-1.21,3.45-1.37,7.13-1.88,10.72-.29,3.59-2.23,7.35-6.47,6.62Zm.23-8.57c.49-5.73,1.61-11.46,4.57-16.48,2.91-4.37,6.15-8.86,8.75-13.39,1.09-1.54,2.02-3.25,2.62-5.07,3.86-9.55.55-19.59-.18-29.36-1.3-12.74.56-20.94,7.58-31.66,2.32-3.64,4.9-7.1,7.33-10.67,2.88-4.48,5.05-9.36,7.18-14.22,5.57-12.67,8.77-26.24,5.89-40.02-2.7-14.11-12.23-26.91-25.21-33.15-6.51-3.58-14.07-4.95-21.32-3.02.09-.02.18-.04.27-.06-12.94,1.9-18.7,7.7-26.33,17.72-4.2,5.7-8.69,11.45-11.26,18.1-1.79,6.52-3.19,12.51-2.96,19.15.96,9.17,2.37,18.39,4.82,27.27.96,2.52,2.05,4.99,3.51,7.26,3.43,4.5,7.48,8.55,9.91,13.75,2.64,5.01,6.1,10.16,5.64,16.07-.9,10.08-5.56,16.19,2.15,25,3.25,5.41,7.36,11.36,6.44,17.97-.46,2.58-1.62,4.89-2.51,7.33-.96,2.93-.61,6.09-.58,9.12.13,4.57,2.15,8.79,5.33,12.03,1.12,1.29,2.05,2.76,3.29,3.94,1.51,1.12,3.35,1.65,5.07,2.37Z"/>
  <path d="m578.51,666.57c-.72-.57-1.39-1.2-2.07-1.82-6.02,5.75-10.57,1.13-16.11-2.27-4.29-.7-7.45.27-11.13-3.22-3.98,1.98-4.75,8.49-9.87,8.21-3.66,2.28-10.4-2.15-10.41-6.5-.62-5.97-1.41-16.02,5.86-18.03,5.05.87,7.49-3.06,10.58-6.28,5.81-2.75,12.88,2.84,18.81-.35,5.61-.91,10.49,2.62,12.41,7.64,4.25.86,8.44,1.93,9.93,6.59,1.79,4.28,3.78,9.19,2.68,13.85-1.52,4.53-7.43,5.41-10.69,2.19Zm4.91-3.54c.21-.1.41-.24.54-.43,0,0,.01,0,.01,0-1.34-19.23-9.57-7.66-13.73-18.83-2.37-3.59-6.53-.87-9.84-.99-4.03-.02-7.98-.86-11.94-1.44-3.85,5.05-7.07,7.06-13.14,7.45-1.35,3.82-3.39,13.45,2.39,13.96,4.42-2.36,6.97-11.12,13.5-8.7,8.4,5.68,7.17-1.22,18.77,8.01,8.05-4.69,6.12-4.22,13.42.98,0,0,0,0,0,0Z"/>
  <path d="m529.85,636.39c-3.4-.87-7.31-3.96-6.39-7.86,1.19-3.04,3.37-6.03,6.52-7.2,2.77-.93,5.73-.22,8.57-.09,1.59-.39,3.23.51,4.14,1.8,2.44,3.63-1.88,7.51-4.33,9.89-2.63,2-5.09,4.48-8.52,3.44Zm1.84-4.34c2.79-1.58,5.08-3.47,6.67-6.14-4.97-.49-7.94-1.58-10.4,3.78.63,1.41,2.35,2.23,3.84,2.36,0,0-.1,0-.1,0Z"/>
  <path d="m563.78,627.12c-2.96.05-5.57-1.41-8.16-2.63-2.13.03-4.4.45-6.3-.8-3.21-1.44-3.5-9.29.5-9.66.41-2.49.47-5.57,2.9-7,4.76-2.09,10.89-2.14,14.94,1.49,2.52,2.33,4.59,5.49,4.94,8.96.13,5.3-3.02,10.22-8.82,9.65Zm1.03-5.24c1.52.12,1.97-1.25,2.36-2.46.78-1.87-.38-3.73-1.35-5.28-2.18-3.68-6.77-4.12-10.5-2.82-.06.22-.12.44-.17.66-.41,2.24-.69,4.51-.99,6.76,4.03-.77,6.74,3.32,10.65,3.14Z"/>
  <path d="m593.8,639.53c-4.06-1.1-6.8-4.41-9.76-7.15-1.18-.98-2.54-1.99-4.12-2.08-.69.98-2.15,1.13-3.07.42-1.98-1.54-.04-4.29,1.87-4.62-3.09-3.6,2.87-6.91,5.95-7.54,2.89-.65,5.91.01,8.37,1.63,3.23,2.27,6.67,5.4,8.26,9.04,2.09,5.49-.66,12.62-7.49,10.3Zm2.62-4.39c.05,0,.11-.01.16-.02.03,0,.05-.02.08-.03,1.83-3.66-2.11-6.52-4.46-8.74-2.99-2.79-7.06-3.41-9.85,0,5.58,1.47,8.13,8.31,14.07,8.79Z"/>
  <path d="m585.54,610.5c-1.34-.51-2.64-1.12-3.98-1.62-.33-.12-.61-.31-.85-.55-.99,1.03-3.05.52-3.34-.93-.25-2.02-1.16-3.8-1.78-5.71-.74-2.75.12-6.04,2.46-7.76,2.18-1.32,4.81-.51,6.98.41,4.32,1.77,10.93,8.54,9.91,13.52-1.31,4.27-5.98,4.31-9.41,2.64Zm4.02-4.39c-1.74-3.58-4.79-7.01-8.86-7.76-1.47,1.74-.25,4.04.15,5.95.76-.64,1.85-.83,2.84-.45,1.97.74,3.83,1.77,5.88,2.26Z"/>
  <path d="m537.15,606.6c-11.99-.77-2.12-19.16,5.95-12.43,2.65-3.68,7.98,1.3,7.64,4.74-1.1,5.38-8.44,8.88-13.59,7.69Zm3.16-5.1c1.88-.44,3.45-1.82,4.96-2.85-.24-.22-.52-.39-.8-.54-3.25,3.96-4.93-3.76-7.64,2.94,1.14.25,2.31.48,3.48.45Z"/>
  <path d="m885.31,847.67c-.46-.05-.89-.21-1.27-.44-3.47.6-6.02-2.5-7.78-5.07-2.94-4.25-3.81-9.49-4.71-14.47-2.16-18.53.86-37.14,1.39-55.59.26-9.36,1.1-18.73.65-28.09-.27-3.74-.58-7.47-.61-11.22.46-11.73-.21-23.45-.36-35.18.94-10.09-1.46-19.94-2.21-29.96-.51-7.08-1.89-14.06-3.27-21.01-.58-3.35-2.28-6.33-3.63-9.4-2.16-3.44-6.32-5.13-9.93-6.64-5.48-1.21-11.27-1.3-16.4-3.92-9.19-3.65-14-13.98-15.07-23.11-2.26-9.96-2.07-20.23-1.07-30.32.08-7.21.7-14.41,1.13-21.55.55-5.6.74-11.32,2.4-16.73,1.75-5.79,6.55-9.81,11.02-13.57,2.35-1.88,4.68-4.02,7.54-5.07,4.51-1.27,9.45-.2,13.54,1.91,7.49,4.17,12.84,11.7,14.99,19.93,1.35,4.47.68,9.14,1.05,13.72.69,6.28,1.35,12.64,2.93,18.76,1.69,4.99,5.67,8.71,9.39,12.26,4.16-5.76,3.29-13.3,3.31-20.02.24-5.72-.63-11.39-.59-17.1.32-7.35-.15-14.67-.89-21.96-.53-5.3.19-11.15-.18-16.25-.72-8.46-.27-16.93-.37-25.4-.38-9.67,1.31-19.25,2.3-28.82.65-3.88,2.34-7.48,3.77-11.12.77-1.85,1.68-3.59,2.93-5.16,1.14-1.43,2.62-2.59,4.09-3.68,2.93-2.16,6.06-4.59,9.87-4.62,4.25-.3,8.86-.85,12.61,1.62,9.12,6.32,13.31,17.56,16.43,27.79,3.58,12.56,4.02,25.66,4.89,38.54.27,8.56-.32,17.14.43,25.7.68,7.42.66,14.85.56,22.29.14,8.81,1.11,17.58,1.29,26.39.8,15.12,3.88,29.98,5.46,45.01,1.43,6.65,6.3,11.84,10.86,16.62,6.6,6.97,15.23,11.34,22.92,16.92,6.44,4.57,10.94,11.4,13.27,18.89,2.82,8.34,4.76,16.99,5.69,25.74.77,9.63,3.22,19.9-.57,29.16-3.24,8.66-10.6,10.59-19.14,9.79-11.07-1.44-15.74-12.46-17.82-22.14-1.66-7.82-1.71-15.94-4.38-23.52-2.58-7.43-9.48-18.19-18.63-16.31,0,0,.03-.08.03-.08-5.1,3.24,1.41,25.63,1.09,31.92-.01,11.77,1.36,23.49,1.82,35.24.48,15.29.67,30.57-.13,45.86-1.12,12.67-.64,25.42,1.07,38.02.83,6.48,1.92,13.52-2.05,19.24-3.42,5.84-11.03,6.39-17.11,5.94-5.03-.1-10.04-.6-15.05-1.03-4.92-.07-9.78,1.01-14.69,1.22-4.26.05-8.53.09-12.79.06Zm-2.37-5.17c.69-1.05,1.96-1.66,3.29-1.52,4.03-.16,8.08-.02,12.11-.14,4.16-.31,8.29-.93,12.45-1.22,4.28-.06,8.66.73,12.92.89,4.86-.04,10.7,1.46,14.84-1.69,2.16-2.64,2.85-5.98,2.43-9.31-.55-7.02-1.79-13.97-2.07-21.01-.41-7.2-.61-14.42.12-21.61.71-12.52.88-25.05.51-37.59.06-10.57-.94-21.08-1.44-31.63-.77-6.29-.27-12.65-.98-18.93-1.09-8.02-4.73-22.04-1.13-29.32,4.84-9.04,17.32-4.79,23.04,1.12,5.09,4.91,8.27,11.52,10.05,18.29,2.47,9.05,2.12,19.25,5.64,27.96,1.29,3.9,3.93,7.78,7.82,9.38,3.55,1.17,7.8.95,11.19-.59,5.03-4.12,4.9-11.49,4.59-17.44-.51-5.98-1.08-11.96-1.9-17.9-1.45-8.61-3.41-17.27-7.09-25.22-2.52-5.19-6.96-9.04-11.69-12.18-9.33-5.73-18.43-12.06-25.39-20.64-5.16-5.77-8.46-13.02-8.61-20.82-1.55-13.43-4.28-26.7-4.85-40.24-.2-8.11-1-16.17-1.26-24.27.07-8.93.06-17.85-.73-26.75-.63-8.65.09-17.33-.43-25.98-.87-13.01-1.55-26.26-5.88-38.64-2.47-6.65-7.19-18.29-14.34-20.22-2.73-.06-5.57-.14-8.23.5-2.65,1.51-5.24,3.27-7.37,5.46-1.45,1.74-2.11,3.92-2.96,5.98-1.68,3.7-2.68,7.57-2.83,11.63-.47,3.51-.98,7.01-1.23,10.54-.94,6.68-.31,13.4-.56,20.11-.24,10.87.71,21.69.43,32.55,1.1,9.33,1.15,18.47,1.09,27.74.72,8.16.81,16.43.29,24.61-.5,5.44-2.35,11.55-6.91,14.93-4.56,2.65-8.41-2.48-11.3-5.38-1.91-2.02-3.74-4.1-5.15-6.5-1.96-3.21-2.93-6.88-3.45-10.57-.69-4.71-1.53-9.41-1.9-14.17-.4-5.4.34-10.98-1.95-16.07-3.07-7.38-10.22-15.33-18.93-13.93-2.82,1.46-5.22,3.77-7.59,5.75-2.55,2.3-5.3,4.69-6.5,8-1.62,5.1-1.74,10.51-2.3,15.8-.32,6.56-1.06,13.05-1.03,19.6-.77,9.56-1.45,19.81.59,29.16.99,5.54,2.07,11.27,5.97,15.58,4.89,5.63,12.78,6.13,19.66,7.19,5.28,1.54,10.59,4.23,14.22,8.45,2.8,4.45,4.89,9.5,5.77,14.71,1.13,5.75,2.24,11.52,2.83,17.35.35,9.29,2.86,18.39,2.64,27.7-.46,13.79.82,27.58.2,41.38,0,3.86.41,7.67.64,11.51.29,5.92-.16,11.85-.38,17.77-.4,16.05-2.36,32.14-2.66,48.08-.19,7.53-.44,14.34,1.14,21.49.75,3.7,1.99,7.41,4.53,10.27Z"/>
  <path d="m836.75,533.23c-1.61-5.45-3.59-10.77-5.7-16.05-1.11-2.85,3.05-4.61,4.3-1.82,2.17,5.46,4.25,10.97,5.89,16.62.37,1.21-.43,2.54-1.63,2.87-1.21.34-2.5-.41-2.87-1.63Z"/>
  <path d="m830.34,560.62c-4.94-1.55-9.47-4.12-13.02-7.92-2.24-2.32,1.13-5.72,3.48-3.48,3.11,3.35,7.11,5.52,11.45,6.86,2.95,1.27,1.1,5.75-1.92,4.54Z"/>
  <path d="m819.24,588.86c-3.9.02-3.9-6.06,0-6.02,4.35,1.15,18.13-3.54,18.28,2.35-.14,5.29-14.24,3-18.28,3.67Z"/>
  <path d="m838.37,626.69c-1.11-.65-1.45-2.06-.83-3.16,1.05-1.89,2.17-3.8,3.54-5.48,1.48-1.82,3.07-3.55,4.65-5.29.84-.93,2.4-.86,3.26,0,.92.92.85,2.33,0,3.26-1.79,1.98-3.63,3.91-5.18,6.09-1.48,1.77-2.38,6.09-5.43,4.57Z"/>
  <path d="m846.14,556.56c-.11-3.89-1.58-8.58.31-12.13,6.72-3.71,3.65,8.05,4.87,11.42.47,3.34-4.75,4.06-5.18.71Z"/>
  <path d="m853.39,532.11c-3.47-1.24-.8-5.56-.34-8.02,1.11-2.34,1.39-7.76,5.12-6.53,3.05,1.49.43,4.87-.14,7.13-.62,1.88-1.13,3.78-1.61,5.7-.32,1.3-1.77,2.07-3.03,1.72Z"/>
  <path d="m857.78,554.75c-.91-.92-.99-2.57,0-3.48,2.22-2.04,4.48-4.02,6.71-6.04,2.36-2.15,4.6-4.42,6.66-6.86,2.05-2.47,5.78.39,3.88,3-4,5.02-9.05,9.07-13.77,13.38-.99.9-2.5.97-3.48,0Z"/>
  <path d="m864.76,579.15c-1.21-1.52.05-3.17,1.35-4.07,2.28-2,4.56-4,6.6-6.26,1.4-1.61,2.7-3.29,4-4.98.78-1,2.25-1.2,3.25-.42,1,.77,1.19,2.25.42,3.25-1.74,2.29-3.52,4.54-5.5,6.62-2.15,2.24-4.55,4.22-6.87,6.28-.95.83-2.51.53-3.25-.42Z"/>
  <path d="m851.35,594.52c-.97-3.61-7.46-10.71-2.44-13.15,4.36-.76,5.01,8.22,7.39,11.06,1.39,3.16-3.57,5.31-4.95,2.09Z"/>
  <path d="m877.26,618.96c0-.45.38-.82.82-.82s.82.38.82.82-.38.82-.82.82-.82-.38-.82-.82Z"/>
  <path d="m857.74,635.3c-.82-1.05-.66-2.73.45-3.53,2.43-1.74,4.83-3.52,7.25-5.27,2.4-1.74,4.83-3.45,7.24-5.17,1.1-.79,2.63-.65,3.48.45.8,1.04.66,2.7-.45,3.48-2.39,1.7-4.79,3.38-7.15,5.11-2.44,1.79-4.87,3.6-7.3,5.38-1.1.8-2.67.66-3.53-.45Z"/>
  <path d="m867.23,655.66c-.29-4.18,5.16-3.09,7.63-4.76,2.94-1.82,8.79-6.42,8.77.3-1.87,3.34-14.83,10.63-16.41,4.46Z"/>
  <path d="m888.71,693.11c-7.14-3.26-9.84-4.87-17.87-2.92-3.39.44-4.1-4.68-.71-5.18,4.16-.44,8.56-.93,12.54.67,2.62,1.04,5.18,2.22,7.77,3.34,1.11.48,1.66,1.79,1.18,2.91-.47,1.11-1.82,1.67-2.91,1.18Z"/>
  <path d="m866.13,721.5c-1.98-1.59-.45-3.86,1.21-4.97,1.4-1.01,3.16-1.23,4.81-1.53,5.96-1.22,12-1.49,18.04-1.83,2.92.04,2.93,4.36,0,4.46-6.86.44-13.48.62-19.94,2.68-1.05,1.25-2.55,2.38-4.11,1.18Z"/>
  <path d="m865.1,750.58c-3.93-5.51,15.03-13.66,19.3-13.18,4.66,3.4-1.65,5.49-4.6,6.29-5.81.6-11.91,10.02-14.7,6.88Z"/>
  <path d="m873.4,770.21c-.74-1.22-.16-2.88,1.14-3.43,2.33-1.16,4.78-2.09,7.19-3.07,2.59-1.06,5.12-2.25,7.65-3.43,1.1-.51,2.46.09,2.92,1.18.48,1.14-.09,2.41-1.18,2.92-2.2,1.02-4.39,2.05-6.62,3.02-1.99.86-3.98,1.71-5.93,2.66-1.66.96-3.78,2.35-5.16.16Z"/>
  <path d="m862.36,818.94c-.93-.93-.99-2.59,0-3.51,1.97-1.84,4.03-3.55,6.22-5.12,6.08-4.67,12.84-8.47,20.41-9.98,2.37-.3,6.28-2.95,7.5.34.33,1.2-.39,2.5-1.6,2.82-3.42.92-6.87,1.74-10.22,2.85-6.22,2.32-11.54,6.48-16.65,10.62-1.54,1.37-3.56,3.99-5.66,1.98Z"/>
  <path d="m867.63,831.44c-.14-1,.61-2.12,1.67-2.2,1.6-.12,3.17-.31,4.74-.61,2.42-.59,4.78-1.41,7.14-2.19.93-.3,1.97.35,2.22,1.26.27.98-.32,1.91-1.26,2.22-2.04.65-4.05,1.38-6.11,1.95-2.05.52-4.11.9-6.2,1.23-1.03.17-2.06-.63-2.2-1.66Z"/>
  <path d="m945.69,835.62c-5.7.14-11.21-1.34-16-4.46-3.46-1.97-.33-7.37,3.11-5.33,2.16,1.2,4.3,2.51,6.74,3.05,3.05,1.05,8.88-.95,9.24,3.65,0,1.65-1.41,3.12-3.09,3.08Z"/>
  <path d="m931.78,814.04c-.09-4.49,6.17-2.95,9.07-4,4.04.13,15.1-5.94,16.66-1.25.61,5.08-8.84,4.3-12.22,5.84-3.66.09-12.06,4.26-13.51-.6Z"/>
  <path d="m935.36,791.43c-.95-2.46,1.53-3.39,3.34-4.15,2.77-1.42,5-3.64,7.34-5.65,1.67-1.45,3.35-2.89,5.03-4.33.91-.78,2.38-.62,3.2.2.89.89.99,2.55,0,3.43-2.98,2.24-16.1,16.34-18.91,10.5Z"/>
  <path d="m935.76,762.67c-.99-4.59,7.17-2.55,11.65-11.82,1.45-4.27,7.53-3.66,5.79,1.12-1.97,4.3-13.34,17.78-17.44,10.71Z"/>
  <path d="m931.78,730.83c-.7-4.65,9.64-2.51,14.94-9.18,2.17-1.56,4.65-5.91,7.57-3.33,1.04,1.04,1.1,2.88,0,3.91-3.23,3.84-19.33,16.28-22.51,8.6Z"/>
  <path d="m929.57,698.13c-.05-2.13,2.11-3.02,3.92-2.89,4.8-.11,9.37-1.57,13.65-3.67,3.34-1.46,5.57,3.79,2.2,5.2-3.76,1.71-18.82,7.88-19.77,1.36Z"/>
  <path d="m939.43,671.68c-3.08-.14-6.16-.28-9.24-.42-3.27-.1-3.26-4.93,0-4.98,3.08.14,6.16.28,9.24.42,1.36.06,2.49,1.09,2.49,2.49,0,1.31-1.14,2.56-2.49,2.49Z"/>
  <path d="m952.25,679.35c-5.42-.86-.17-17.27.05-21.46.45-3.67,6.25-2.88,5.66.77-1.29,6.01-2.05,12.12-2.5,18.25-.12,1.55-1.74,2.63-3.21,2.43Z"/>
  <path d="m959.17,696c-2.84-3.81,3.73-6.2,5.82-8.57,2.98-2.51,5.29-5.65,7.69-8.68,2.04-2.68,6.23.53,4.13,3.19-2.6,3.15-13.63,17.46-17.65,14.06Z"/>
  <path d="m967.78,723.44c-1.2-.51-1.59-1.91-1-3.03,3.62-7.26,8.32-13.88,12.1-21.04.49-.92,1.75-1.2,2.62-.69.93.54,1.18,1.7.69,2.63-1.61,3.19-3.49,6.25-5.37,9.29-1.78,2.93-3.4,5.94-4.95,9-.9,1.63-1.6,4.8-4.09,3.84Z"/>
  <path d="m985.98,740.69c-1.96-3.02-3.83-6.37-3.44-10.09.69-3.02-.08-9.31,4.31-9.2,5.08,1.41.44,7.62,1.42,11.16.43,1.93,1.61,3.59,2.62,5.26,1.89,3.14-3.03,6.06-4.91,2.87Z"/>
  <path d="m1003.72,719.73c-3.54-.68-7.12-1.55-10.19-3.51-1.76-1.46-6.44-3.19-4.54-6.04.73-.95,2.11-1.11,3.07-.39,3.51,3.02,7.68,4.93,12.25,5.62,2.83.49,2.24,4.67-.59,4.33Z"/>
  <path d="m994.56,700.8c-.16-1.22.71-2.39,1.94-2.56,2.57-.34,5.15-.68,7.72-1.02,1.23-.16,2.39.71,2.56,1.94.16,1.22-.71,2.39-1.94,2.56-2.57.34-5.15.68-7.72,1.02-1.21.16-2.4-.71-2.56-1.94Z"/>
  <path d="m995.74,682.69c-.54-.91-.22-2.14.7-2.67,2.37-1.37,4.73-2.73,7.1-4.1.92-.53,2.13-.22,2.67.7.54.91.22,2.14-.7,2.67-2.37,1.37-4.73,2.73-7.1,4.1-.91.53-2.13.22-2.67-.7Z"/>
  <path d="m977.27,664.37c-7.49-3.4,4.37-8.05,6.67-10.95,3.39-1.88,6.78-9.95,11.02-6.93,4.7,2.86-14.66,17.95-17.69,17.88Z"/>
  <path d="m968.64,647.01c-3.53-1.86-.03-5.97.78-8.56,1.46-2.25,2.09-7.48,5.76-6.27,1.26.53,2,2.13,1.39,3.41-2.33,2.88-3.33,12.83-7.93,11.42Z"/>
  <path d="m947.65,634.19c-3.65-3.89,6.55-11,9.33-13.46,2.37-1.98,8.41-6.35,8.23-.26-2.61,3.56-7.51,5.16-10.36,8.73-2.24,1.7-3.71,7.17-7.2,4.99Z"/>
  <path d="m942.94,597.49c-1.78-4.95,6.31-6.13,9.34-8.28,3.68-.82,9.31-6.88,12.21-2.48,1.52,4.88-10.15,6.81-13.33,9.31-2.52,1.05-5.96,4.83-8.22,1.46Z"/>
  <path d="m940.65,577.22c-4.98-5.85,12.2-13.2,15.74-16.87,2.97-2.31,6.56,2.34,3.55,4.6-1.9,1.36-3.8,2.72-5.71,4.06-2.88,2.06-6.06,3.84-8.48,6.46-1.12,1.69-3.18,3.26-5.11,1.75Z"/>
  <path d="m941.24,544.52c-4.68-2.02.97-8.41,3.22-10.42,1.96-1.48,4.27-5.63,6.98-3.3.92.92.97,2.55,0,3.46-1.79,1.69-3.64,3.36-5.31,5.18-.88.96-1.57,2.07-1.86,3.36-.37,1.3-1.76,2.09-3.04,1.73Z"/>
  <path d="m932.48,512.93c-.98-4.29,9.1-4.35,11.54-9.19,1.78-1.7,3.52-5.91,6.48-3.89,1.09.84,1.35,2.52.47,3.62-2.2,3.74-15.21,15.79-18.49,9.46Z"/>
  <path d="m935.13,489.36c-2.1-3.18,2.62-4.62,4.37-6.45,1.89-1.64,3.42-3.62,4.81-5.68.9-1.43,1.77-2.86,2.58-4.35,1.7-2.79,5.86-.37,4.3,2.52-2.13,3.97-4.61,7.87-7.99,10.91-2.08,1.44-5.64,5.9-8.07,3.06Z"/>
  <path d="m935.44,467.65c-.94-.55-1.37-1.9-.75-2.86,1.38-2.12,2.77-4.23,4.17-6.33,1.76-2.68,3.35-5.47,4.55-8.45,1.12-2.49,4.83-.93,3.84,1.62-2.16,5.53-5.76,10.31-8.95,15.27-.63.97-1.87,1.34-2.86.75Z"/>
  <path d="m925.9,456.89c-3.32-1.16-.86-5.41-.36-7.75,1.89-5.32,4.63-10.32,5.98-15.82.3-1.32,1.81-2.09,3.07-1.74,1.33.37,2.08,1.75,1.75,3.07-.78,2.95-1.98,5.77-3.16,8.57-1.07,2.51-2.23,4.98-3.14,7.55-.92,2.21-.64,6.83-4.14,6.12Z"/>
  <path d="m917.03,438.35c-1.11-5.65-1.91-11.37-3.53-16.9-.64-2.2-3.29-5.05-.49-6.79,6.87-2.56,7.38,18.52,9.02,23,.49,3.21-4.55,3.95-5,.68Z"/>
  <path d="m904.1,448.49c-2.25-4.13-4.85-8.24-8.35-11.3-1.65-1.26-3.21-3.1-5.43-3.15-1.42-.14-2.42-1.57-2.23-2.94,1.42-4.97,7.76-.59,9.98,1.57,4.3,3.71,7.44,8.47,10.13,13.42,1.5,2.73-2.46,5.06-4.11,2.4Z"/>
  <path d="m901.07,459.61c-5.21-3.04-10.1-6.59-15.39-9.49-1.16-.54-2.33-1.04-3.58-1.33-1.6-.04-3.03-1.3-2.79-2.98.18-1.52,1.76-2.52,3.22-2.13,7.85,2.03,13.87,8.11,20.94,11.82,2.65,1.65.32,5.62-2.4,4.11Z"/>
  <path d="m891.65,486.6c-3.74-1.71-7.68-3.77-10.9-6.17-1.87-1.48-5.57-2.07-4.73-5.22,2.91-5.81,8.85,1.92,12.44,3.38,2.4,1.84,8.29,2.34,6.95,6.48-.59,1.39-2.37,2.21-3.77,1.53Z"/>
  <path d="m889.45,510.83c-3.55-.85-11.25.95-11.31-4.29.22-1.61,1.77-2.8,3.38-2.57,5.43,1.18,10.84,1.21,16.25-.08,1.56-.26,3.06.95,3.27,2.49.02,4.94-8.14,3.77-11.59,4.45Z"/>
  <path d="m897.18,549.17c-4.49-.74-20.93-8.08-16.44-13.85,4.97-3.42,8.12,5.59,12.96,6.27,2.73,1.15,8.23,1.16,7.31,5.41-.44,1.62-2.24,2.66-3.84,2.18Z"/>
  <path d="m891.31,579.35c-3.01-1.25-5.04-4.05-6.74-6.71-.71-1.12-.24-2.68.87-3.33,1.12-.65,2.7-.29,3.33.87,1.02,1.84,2.21,3.74,4.07,4.82,2.15.81,4.55-.12,6.77-.22,1.24-.14,2.41.71,2.58,1.96.17,1.22-.72,2.43-1.96,2.58-2.95.24-6.04,1.15-8.92.03Z"/>
</svg>