<?xml version="1.0" encoding="UTF-8"?>
<svg id="Vektorebene" xmlns="http://www.w3.org/2000/svg" viewBox="0 0 1473.41 596.56">
  <path d="m533.73,231.32c-2.76-.27-5.44-1.11-7.91-2.37-3.94-2.01-7.2-5.2-9.38-9.03-1.29-2.27-2.15-4.77-2.6-7.34-.5-2.86-.33-5.76.25-8.59.72-3.52,2.46-6.92,4.8-9.62,1.27-1.46,2.67-2.86,4.28-3.96.99-.67,2.04-1.2,3.05-1.82.05-.03.09-.07.14-.1.56-.38,1.11-.57,1.76-.75,1.11-.29,2.29-.45,3.41-.64,1.43-.25,2.91-.38,4.37-.42.69-.46,1.46-.59,2.29-.53,3.64.26,7.34,1.6,10.36,3.61,2.48,1.66,4.67,3.73,6.35,6.21,2.27,3.34,3.66,7.22,3.93,11.26.19,2.83-.19,5.78-1.04,8.47-.43,1.35-.98,2.64-1.64,3.9-.34.64-.72,1.24-1.13,1.83-.38.54-.82,1.02-1.26,1.5-.69.79-1.37,1.58-2.14,2.3-.96.9-1.98,1.7-3.07,2.43-1.68,1.13-3.51,1.98-5.42,2.63-.76.26-1.53.46-2.32.62-.73.16-1.46.31-2.2.39-.83.09-1.66.14-2.48.14-.8,0-1.6-.04-2.4-.12Zm3.47-5.96c.78-.06,1.55-.15,2.31-.3.66-.15,1.32-.33,1.96-.55.62-.22,1.23-.47,1.82-.76.68-.35,1.35-.73,1.99-1.15.59-.41,1.15-.85,1.69-1.32.51-.46.99-.94,1.45-1.45.2-.24.4-.48.58-.74.59-.92,1.15-1.9,1.65-2.88.3-.62.57-1.26.81-1.91.24-.7.43-1.42.59-2.14.14-.71.23-1.42.29-2.14.02-.58.02-1.15,0-1.73-.07-.91-.19-1.82-.36-2.72-.15-.66-.33-1.32-.54-1.97-.26-.73-.57-1.44-.91-2.13-.31-.58-.64-1.14-.99-1.68-.39-.56-.8-1.09-1.24-1.61-.49-.54-1-1.05-1.54-1.54-.52-.44-1.06-.85-1.61-1.24-.54-.36-1.1-.69-1.68-.99-.67-.33-1.36-.62-2.06-.87-.72-.24-1.45-.44-2.2-.59-.63-.12-1.26-.21-1.89-.26-.1,0-.2-.02-.3-.04-.58,0-1.16.01-1.74.05-1.88.16-3.73.47-5.58.83-.06.02-.12.03-.19.05-.83.52-1.69.99-2.52,1.52-.57.4-1.11.83-1.64,1.28-.51.47-1,.96-1.47,1.47-.52.61-1.02,1.24-1.48,1.89-.36.55-.69,1.11-1,1.69-.33.68-.62,1.37-.88,2.08-.23.7-.43,1.42-.59,2.14-.13.69-.22,1.39-.29,2.09-.04.8-.05,1.59,0,2.39.06.72.16,1.43.3,2.14.16.71.36,1.41.59,2.1.24.63.5,1.25.79,1.86.32.63.68,1.23,1.06,1.83.43.62.88,1.21,1.37,1.78.5.54,1.02,1.06,1.56,1.56.52.44,1.06.85,1.61,1.24.57.37,1.16.71,1.77,1.03.58.28,1.18.54,1.79.76.74.25,1.49.46,2.25.63.76.15,1.53.26,2.3.32.74.04,1.47.04,2.21,0Z"/>
  <path d="m554,172.25c-1.27-.19-2.53-.36-3.78-.66-5.29-1.3-9.89-4.66-12.95-9.12-1.24-1.87-2.21-3.89-2.88-6.03-.57-1.82-.82-3.71-.91-5.61-.29-6.07,2.22-12.1,6.44-16.41,1.88-1.91,4.19-3.45,6.66-4.48.85-.36,1.74-.61,2.64-.82.01-.02.02-.03.04-.05.52-.68,1.23-1.05,1.77-1.19.1-.02.2-.04.3-.06l.08-.02c2.6-.51,5.32-.56,7.93-.11,3.53.61,6.85,1.98,9.75,4.09,3.03,2.2,5.41,5.18,7.05,8.53,1.6,3.28,2.29,7.09,2.13,10.72-.22,4.79-2.11,9.57-5.16,13.27-2.5,3.03-5.77,5.4-9.45,6.78-2.2.82-4.49,1.33-6.84,1.42-.11,0-.21,0-.32,0-.84,0-1.66-.13-2.49-.25Zm.7-5.97c1.37-.12,2.75-.22,4.1-.47.7-.15,1.39-.34,2.07-.56.7-.26,1.38-.54,2.05-.87.6-.31,1.18-.65,1.75-1.02.56-.39,1.1-.8,1.61-1.24.5-.45.96-.92,1.41-1.42.48-.56.92-1.13,1.34-1.74.36-.56.7-1.14,1-1.74.23-.49.44-.98.63-1.48.25-.78.46-1.58.63-2.39.14-.75.25-1.5.31-2.26.04-.73.04-1.45,0-2.18-.06-.71-.16-1.41-.29-2.11-.11-.52-.25-1.02-.41-1.53-.29-.81-.61-1.6-.98-2.37-.32-.62-.68-1.22-1.06-1.81-.4-.57-.83-1.13-1.29-1.66-.48-.52-.98-1.02-1.51-1.49-.47-.4-.95-.77-1.46-1.12-.56-.37-1.13-.7-1.72-1.01-.63-.31-1.27-.58-1.93-.82-.7-.23-1.4-.42-2.12-.58-.7-.13-1.4-.23-2.11-.29-.72-.04-1.45-.04-2.17,0-.7.06-1.39.16-2.09.28-.03,0-.06.01-.09.02-.63.13-1.26.02-1.82-.24-.61.27-1.21.56-1.48.7-.78.39-1.53.83-2.26,1.31-.64.45-1.26.92-1.86,1.43-.53.49-1.03.99-1.51,1.53-.46.55-.9,1.11-1.31,1.7-.38.59-.74,1.2-1.06,1.83-.3.63-.57,1.27-.81,1.92-.24.72-.44,1.45-.61,2.19-.14.72-.24,1.43-.3,2.16-.04.75-.04,1.5,0,2.25.06.71.15,1.42.28,2.12.15.69.34,1.37.56,2.05.24.66.51,1.3.81,1.93.33.64.7,1.26,1.09,1.86.42.6.86,1.18,1.33,1.73.44.48.9.94,1.39,1.39.51.44,1.05.86,1.6,1.25.59.39,1.19.74,1.82,1.07.66.32,1.32.6,2.01.85.71.23,1.44.43,2.17.59.57.11,1.15.19,1.73.24.18,0,.37,0,.55,0Z"/>
  <path d="m465.31,211.66c-4.5-.81-8.64-2.82-12.06-5.84-8.31-7.33-10.07-19.51-7.39-29.81,1.15-4.4,3.03-8.62,5.57-12.4.68-1.01,1.39-1.99,2.13-2.96.27-.35.52-.71.78-1.07.5-.72,1.25-1.3,1.88-1.89.91-.85,1.84-1.7,2.79-2.5.92-.78,1.85-1.55,2.8-2.28.26-.63.72-1.2,1.32-1.62,2.51-1.67,5.2-3.06,8.04-4.07.05-.02.1-.03.15-.05.58-.27,1.25-.43,1.85-.61.66-.2,1.33-.36,2-.51,3.37-.75,6.81-.98,10.25-.58,7.73.91,14.68,5.5,18.55,12.23,2.73,4.74,3.87,10.25,3.69,15.7-.21,6.41-2.12,12.6-5.21,18.2-2.96,5.36-7.21,9.84-12.12,13.46-4.1,3.02-8.85,5.3-13.85,6.34-2.12.44-4.27.68-6.42.68-1.59,0-3.17-.13-4.74-.42Zm6.17-5.67c1.17-.09,2.32-.25,3.47-.48,1.13-.25,2.25-.56,3.34-.93,1.27-.46,2.51-.98,3.72-1.57,1.26-.64,2.47-1.36,3.64-2.14,1.17-.81,2.29-1.68,3.37-2.61.79-.72,1.54-1.46,2.25-2.25,1.38-1.61,2.68-3.28,3.88-5.02.89-1.35,1.71-2.74,2.45-4.18.65-1.32,1.22-2.68,1.72-4.06.48-1.42.88-2.87,1.2-4.34.24-1.25.41-2.51.51-3.78.07-1.27.08-2.54,0-3.81-.09-1.09-.24-2.17-.45-3.24-.23-1.08-.52-2.14-.87-3.19-.3-.81-.63-1.6-1.01-2.37-.39-.76-.82-1.49-1.29-2.21-.43-.61-.88-1.2-1.36-1.76-.52-.57-1.07-1.12-1.64-1.64-.57-.48-1.15-.93-1.76-1.35-.62-.41-1.26-.78-1.92-1.13-.71-.34-1.43-.65-2.17-.92-.79-.26-1.58-.48-2.39-.66-.89-.17-1.8-.29-2.71-.37-1-.06-2-.05-3,0-1.1.09-2.19.24-3.27.45-1.16.25-2.3.57-3.42.94-1.26.45-2.49.97-3.68,1.57-1.19.61-2.34,1.28-3.45,2.02-.02.01-.03.02-.05.04-.29.19-.6.32-.93.39-1.03.78-2.02,1.6-3,2.43-1.22,1.09-2.46,2.16-3.61,3.33l-.02.02c-.7,1.03-1.45,2.02-2.15,3.04-.91,1.38-1.76,2.79-2.51,4.26-.68,1.4-1.28,2.82-1.82,4.28-.48,1.42-.88,2.86-1.21,4.33-.27,1.4-.46,2.8-.58,4.21-.06,1.22-.07,2.43,0,3.64.1,1.19.26,2.37.49,3.53.2.89.44,1.78.73,2.65.32.91.69,1.8,1.1,2.67.37.72.78,1.42,1.22,2.1.44.63.9,1.24,1.4,1.82.53.59,1.09,1.15,1.67,1.69.61.52,1.24,1.01,1.9,1.47.63.41,1.27.79,1.94,1.14.7.34,1.43.65,2.16.92.85.28,1.71.51,2.58.7.87.16,1.76.28,2.64.35.96.05,1.92.06,2.88,0Z"/>
  <path d="m461.98,142.36c-2.8-.02-5.54-.61-8.02-1.93-1.67-.89-3.11-2.12-4.29-3.59-1.47-1.83-2.34-4.05-2.72-6.36-.46-2.85.09-5.74,1.06-8.43.87-2.39,2.31-4.48,3.87-6.46.36-.46.66-.92,1.12-1.29.87-.71,1.81-1.34,2.73-1.99,1.26-.89,2.58-1.7,3.94-2.43.33-.76.93-1.41,1.74-1.73.52-.21,1.05-.39,1.27-.47,3.94-1.36,8.34-1.73,12.37-.56,2.33.67,4.48,1.84,6.25,3.5,2.01,1.89,3.43,4.39,3.98,7.09.11.55.15,1.12.2,1.68.06.74.09,1.48.06,2.23-.11,2.14-.58,4.2-1.38,6.18-1.01,2.51-2.58,4.78-4.39,6.78-1.86,2.06-4.16,3.91-6.67,5.12-1.11.54-2.28.91-3.45,1.28-.9.29-1.79.58-2.71.79-1.59.37-3.21.59-4.85.59-.04,0-.08,0-.13,0Zm.96-5.63c.72-.06,1.43-.16,2.14-.3.72-.16,1.43-.36,2.12-.59.24-.09.47-.19.7-.3,1.26-.65,2.45-1.42,3.63-2.21.75-.52,1.47-1.07,2.17-1.66.56-.51,1.09-1.05,1.6-1.6.51-.6.99-1.21,1.44-1.85.39-.6.76-1.21,1.09-1.84.26-.54.49-1.1.7-1.66.17-.54.32-1.08.44-1.63.08-.47.15-.94.19-1.41.02-.42.02-.83,0-1.25-.02-.22-.05-.43-.08-.64-.12-.47-.27-.94-.43-1.4-.12-.32-.25-.63-.39-.93-.14-.27-.3-.54-.46-.79-.19-.27-.39-.53-.6-.78-.17-.19-.35-.37-.54-.54-.27-.23-.55-.45-.84-.65-.29-.19-.59-.36-.89-.52-.37-.18-.75-.34-1.13-.48-.44-.14-.88-.27-1.32-.37-.53-.1-1.06-.17-1.6-.22-.64-.03-1.28-.03-1.91,0-.66.06-1.32.14-1.98.26-.76.16-1.51.36-2.24.6-.25.09-.51.19-.76.28-.44.18-.89.25-1.34.24-1.15.61-2.26,1.28-3.34,2-.92.63-1.85,1.26-2.72,1.96,0,0,0,0,0,0-.57.84-1.22,1.63-1.8,2.46-.34.53-.64,1.06-.93,1.62-.31.63-.58,1.27-.82,1.93-.18.57-.34,1.14-.48,1.72-.09.5-.16,1.01-.2,1.52-.01.41-.01.81,0,1.22.03.41.09.81.16,1.21.08.37.19.73.3,1.08.12.32.25.64.4.95.12.23.25.46.39.69.02.03.04.07.06.1.02.03.04.05.05.08.17.23.34.45.53.67.24.27.49.52.76.77.26.22.54.43.82.63.33.21.67.4,1.02.59.34.16.69.31,1.05.44.47.16.96.29,1.44.4.59.11,1.18.18,1.78.23.62.03,1.23.02,1.85-.01Z"/>
  <path d="m426.23,203.64c-1.69-.23-3.23-1.06-4.41-2.27-1.29-1.32-2.1-3.08-2.54-4.86-.66-2.69-.52-5.47-.04-8.17.27-1.51.61-2.99,1.13-4.44.45-1.26.98-2.48,1.59-3.67.62-1.21,1.35-2.36,2.16-3.45.53-.71,1.15-1.34,1.78-1.97.22-.22.45-.44.67-.65.12-.75.5-1.45,1.16-1.89,0,0,.02-.01.02-.02.05-.04.09-.07.14-.1.77-.6,1.63-1.08,2.15-1.33,1.17-.59,2.45-1.03,3.76-1.12,1.3-.09,2.55.06,3.78.52,1.48.56,2.81,1.63,3.71,2.92,1.96,2.81,2.42,6.4,2.21,9.75-.18,2.94-.92,5.81-2,8.54-.62,1.57-1.39,3.06-2.27,4.06-.12.14-.24.28-.36.41-.67.8-1.24,1.68-1.92,2.47-.86.99-1.8,1.92-2.84,2.73-1.95,1.51-4.3,2.61-6.78,2.61-.36,0-.73-.02-1.09-.07Zm1.27-5.14c.14-.01.29-.03.43-.06.21-.05.42-.11.63-.17.24-.09.47-.19.7-.3.36-.19.71-.39,1.04-.61.35-.25.69-.51,1.01-.79.45-.4.88-.84,1.29-1.29.52-.61,1.01-1.25,1.34-1.72.07-.1.13-.2.19-.31.32-.71.57-1.45.92-2.16.48-.99.91-1.99,1.29-3.03.31-.93.58-1.87.79-2.83.16-.86.28-1.72.35-2.59.03-.63.05-1.27.02-1.9-.04-.5-.1-.99-.19-1.48-.08-.33-.16-.65-.26-.97-.09-.23-.18-.46-.29-.68-.1-.18-.2-.36-.31-.53-.11-.15-.22-.3-.34-.45-.06-.07-.13-.13-.2-.2-.08-.06-.16-.12-.23-.18-.07-.05-.14-.09-.22-.13-.06-.03-.12-.05-.18-.08-.06-.02-.12-.04-.18-.05-.11-.02-.22-.03-.33-.05-.1,0-.21,0-.31,0-.15.02-.3.04-.44.06-.17.04-.33.09-.49.14-.24.09-.47.18-.7.29-.32.17-.64.36-.94.55l-.2.14c-.15.1-.3.22-.46.31-.32.17-.65.28-.99.35-.54.5-1.07,1.03-1.58,1.56-.27.32-.52.66-.76,1-.52.78-.99,1.58-1.42,2.4-.48.99-.9,2.01-1.28,3.04-.27.82-.48,1.64-.67,2.47-.2,1.13-.37,2.26-.47,3.41-.02.52-.02,1.04,0,1.56.05.6.13,1.19.24,1.79.08.34.17.67.28,1,.09.24.19.47.3.7.1.19.21.38.33.56.08.11.17.22.26.33.08.09.16.17.25.26.1.09.21.17.32.25.07.05.15.09.23.13.09.04.18.08.27.12.09.03.18.05.27.08.12.02.23.04.35.05.12,0,.24,0,.36,0Z"/>
  <path d="m464.73,168.34c-6.14-4.21-4.52-14.34,1.69-17.7,3.08-1.67,13.56-5.03,11.96,1.57,10.65,7.44-4.1,23.85-13.66,16.13Zm5.96-3.51c3.34,0,7.31-4.47,5.01-7.44-2.15-.73-5.39.85-6.21-2.26-4.55,1.96-4.35,10.08,1.42,9.68-.08,0-.16.01-.22.02Z"/>
  <path d="m460.69,124.77c-5.76-1.37-8.33-10.89-2.96-14.12,3.36-.76,9.93-1.46,12.43,1.13,7.59,6.12-1.55,16.32-9.47,13Zm3.43-4.76c1.97.17,4.74-1.83,2.74-3.65-1.01-.42-2.3-.14-3.09-1.02-1.19-.06-2.39-.15-3.57-.04-.31,1.1-.04,2.34.38,3.33.8,1.12,2.24,1.42,3.55,1.38Z"/>
  <path d="m550.07,148.72c-8.69-1.26-8.79-13.82-1.85-17.6.41-1.07,1.45-1.88,2.65-1.85.04,0,.08,0,.13,0,13.43-.86,12.89,20.76-.93,19.44Zm1.35-5.13c5.15-.11,5.84-8.56.38-8.62-1.02.77-2.22,1.45-2.85,2.61.05-.11.1-.2.15-.3-.71,1.36-.85,3.02-.51,4.5-.05-.12-.07-.21-.11-.32.34,1.26,1.6,2.32,2.94,2.13Z"/>
  <path d="m525.8,209.61c-10.01-4.41-4.6-18.47,5.44-18.1,3.37-3.09,7.85,1.68,8.58,5.08,2.45,7.84-6.6,15.39-14.02,13.02Zm2.85-4.59s0-.03,0-.03c3.95-.15,7.79-4.48,4.98-8.13.1.1.16.18.25.28-.38-.63-1.03-.79-1.68-1-4.28,1.27-8.1,2.48-6.07,7.75,0,0,0-.06,0-.06.57.81,1.56,1.2,2.53,1.2Z"/>
  <path d="m425.88,188.54c-7.48-1.99-5.66-15.06,2.4-12.74,6.04,1.3,3.74,8.25-1.66,4.75-1.17,1.27-.38,2.62,1.02,3.22,2.83.96,5.84-2.46,6.26-5.04-5.86-1.58-.81-7.9,3.51-4.13,5.55,6.31-4.42,16.97-11.53,13.94Z"/>
  <path d="m423.51,198.29c-1.72-1.19-3.7-3.26-2.4-5.46.4-.68,1.07-1.19,1.82-1.43-.2-2.54,1.22-6.05,4.33-5.17.59-.7,1.36-1.17,2.39-1.17.07,0,.14,0,.21,0,.58-.3,1.19-.53,1.87-.53s1.29.16,1.88.44c.37-1.56.66-3.15,1.01-4.71.85-2.9,5.16-1.73,4.45,1.23-1.03,4.61-3.52,18.79-10.28,16.79-1.41,1.47-3.75,1.15-5.28,0Z"/>
  <path d="m459.56,137.5c-.68-.23-1.33-.59-1.84-1.1-.04-.04-.08-.08-.12-.13-2.36-.02-4.03-2.27-4.5-4.39-3.23-3.56-3.03-14.13,3.47-13.31,2.64,1.46,5.76,4.28,6.31,7.32,2.66-1.56,4.91-3.94,8.05-4.7-.42-2.32-1.45-5.74,1.62-6.66.44-1.69,1.44-3.48,3.34-3.74,6.47.2,4.23,9.86,2.46,13.74.49,1.86.56,4.2-1.52,5.06-2.26,4.21-6.66,7.49-11.56,7.01-1.7.98-3.79,1.57-5.71.89Z"/>
  <path d="m474.8,125.78c-1.05-3.56-8.23-12.75-5.5-15.31,5.55-3.63,6.41,6.29,8.68,9.37.66,1.72,2.29,3.34,1.87,5.27-.53,2.28-3.97,2.77-5.05.66Z"/>
  <path d="m463.98,207.87c-.73-.16-1.35-.62-1.78-1.22-2.14-1.07-4.79-2.14-5.44-4.68-8.55-1.98-8.93-14.2-7.21-21.19.04-6.33,4.28-12.69,8.31-17.37.73-2.87,2.89-7.25,6.27-4.38,2.46,3.68-1.78,8.43-2.41,12.36.63-1.25,1.23-2.52,1.78-3.81,1.08-2.78,5.46-2.24,5.83.68.4.14.77.35,1.08.62.65-.37,1.36-.61,2.09-.63.2-.33.42-.64.69-.9.5-.49,1.06-.88,1.71-1.09,1.07-2.67,3-5.06,3.88-7.78-.34-3.22-1.17-9.71,4.01-8.42,1.98-1.53,4.68-.58,6.27,1.06.77.19,1.51.52,2.18,1,.11.08.22.16.32.24,7.76-4.31,9.88,15.68,10.77,20.53.23,5.03,2.92,14.83-4.6,15.32-.19.47-.39.94-.6,1.4-.24.51-.52.97-.83,1.42-1.36,6.44-7.39,12.74-14.08,13.46-1.98,2.28-5.16,3.37-8.11,2.57-3.28.8-6.78,1.12-10.12.82Z"/>
  <path d="m548.34,167.51c-.38-.3-.71-.64-.98-1.03-4.22.43-5.93-6.28-6.65-9.51-1.41-3.35-1.68-7.07-1.81-10.63.84-2.1.91-4.36,1.57-6.54.94-3.38,5.91-3.01,6.38.45,2.6,1.61.43,4.83.38,7.18.55-.37,1.18-.58,1.83-.64,1.36-2.35,5.02-2.59,6.34-.09.83-1.86,1.85-3.79,3.61-4.9.07-.52.19-1.02.47-1.5.21-.36.48-.67.8-.92-.13-1.37-.55-2.66-1.22-3.86-1.39-3.63,3.26-6.38,5.75-3.36,2.01,2.52,3.76,5.22,5.62,7.86,2.07,2.91,4.21,6.03,4.27,9.74.86,5.2-3.95,18.31-10.74,15.37-2.49,2.11-6.2,2.49-9.22,1.45-1.59,1.74-4.46,2.49-6.41.92Z"/>
  <path d="m532.59,230.06c-8.85-3.09-19.6-16.93-16.01-26.57.55-2.18,2.89-3.7,5.06-2.81,5.36,4.83,8.03,8.78,15.22,3.32,1.57-4.12-.05-10.71,3.35-13.55,3.51-1.29,4.41,3.22,5.55,5.48,9.44.19,9.87,33.49-1.22,26.06-.27,1.22-.67,2.48-1.49,3.42.38,4.9-6.96,5.18-10.45,4.65Zm-9.36-18.67c.04-.05.08-.11.13-.16-.12-.08-.23-.16-.34-.25,0,0,0,0,0,0,.07.13.14.27.21.4Z"/>
  <path d="m424.64,174.2c-.4-10.05,3.57-19.56,7.05-28.8,2.25-5.85,4.96-11.69,9.35-16.26,1.26-.92,2.19-2.07,3.28-3.18,1.09-1.08,2.89-1.09,3.98,0,1.81,1.93.3,3.89-1.28,5.31-6.19,7.53-9.03,17.09-12.56,26.02-2.03,5.9-3.26,11.42-4.34,17.27-.7,2.88-5.19,2.61-5.49-.37Z"/>
  <path d="m544.28,376.47c-5.37-.82-10.72-1.88-16.16-2.18-4.87-.26-9.77-.54-14.49-1.88-4.79-1.29-9.32-3.38-13.99-5.03-4.68-1.65-9.55-2.83-13.98-5.12-7.89-4.59-14.5-10.93-21.04-17.2-7.96-6.18-15.91-12.43-22.41-20.2-4.73-5.25-7.04-11.98-8.94-18.66-1.01-2.95-2.43-5.74-3.6-8.63-2.3-6.26-5.05-12.39-6.96-18.79-1.77-8.57-2.15-17.39-4.93-25.75-3.23-9.18-1.95-18.99-2.44-28.51-.37-4.02-1.25-8.07-.33-12.08.66-2.48,1.2-5.27,2.88-7.27,1.53-1.53,4.13-1.2,5.41.46.57-1.32,1.1-2.65,1.59-4-1.3-1.2-1.18-3.41.03-4.62,2.18-2.16,5.79-.19,6.7,2.33.43,1.25-.13,2.78-1.1,3.64-.41.9-.76,1.83-1.13,2.75-1.41,3.27-2.65,9.37-7.52,7.2-1,3.3-.16,6.72.15,10.06.5,6.02.01,12.06.38,18.09.15,4.22,1.34,8.28,2.55,12.3,1.39,5.01,2.38,10.12,2.98,15.29.44,6.34,2.42,12.31,4.87,18.14,1.95,5.39,4.24,10.63,6.43,15.92,2.11,6.79,4.11,13.81,9.25,19.01,5.72,6.43,12.36,11.86,19.2,17.05,6.23,5.49,11.89,11.55,18.91,16.09,4.84,3.38,10.8,4.38,16.22,6.48,6.88,2.58,13.73,5.62,21.19,5.92,3.77.22,7.52.43,11.27.93,5.16.59,10.23,2.11,15.47,1.7,6.35-.5,12.56-2.04,18.87-2.81,4.83-.46,9.71-.71,14.56-.54,4.22.2,8.33,1.59,12.56,1.54,10.19-1.84,19.91-5.58,29.49-9.4,11.87-4.71,23.3-11.5,31.8-21.14,6.04-6.95,13.35-12.75,18.77-20.22,3.37-5.21,6.03-10.81,8.64-16.44.09.07.17.15.26.22.28.25.57.48.87.71.83.62,1.68,1.2,2.61,1.65.66.32,1.33.59,2.02.83-1.93,3.93-3.89,7.84-5.87,11.74-4.53,8.89-12.3,15.35-19.07,22.47-3.41,3.6-6.54,7.51-10.4,10.66-6.31,4.87-12.91,9.5-20.2,12.8-7.86,3.6-15.95,6.62-24.14,9.37-5.11,1.38-10.21,3.27-15.53,3.54-5.79-.29-11.44-2.14-17.3-1.57-5.23-.11-10.39.79-15.55,1.69-4.87.85-9.74,1.7-14.65,1.7-1.4,0-2.81-.07-4.23-.23Z"/>
  <path d="m701.48,274.43c-.68-.16-1.37-.32-2.05-.48-.59-.13-1.18-.23-1.77-.34,2.53-6.55,4.86-13.17,7.24-19.58,3.15-9.8,4.76-19.79,6.63-29.84,1.41-8.14,2.14-16.38,2.44-24.62.53-8.23,1.22-16.45.68-24.71-1.99-16.59-8.7-32.2-15.16-47.47-2.89-5.81-6.25-11.18-10.25-16.16-4.69-5.14-9.91-9.78-14.96-14.56-7.64-6.65-15.86-13-25.45-16.54-9.02-2.51-17.96-5.31-26.94-8-6.04-1.94-11.92-4.33-18.19-5.52-5.97-1.16-12.11-.7-18.14-1.43-10.24-1.18-20.64-2.36-30.88-.4-8.64,2.24-17.2,4.81-25.47,8.19-8.24,3.01-15.93,5.64-23.89,9.04-5.07,2.16-10.28,4.02-15.27,6.39-8.71,4.8-16.89,10.88-23.05,18.76,1.36,3.87-5.25,4.22-5.2.49.01-1.6,1.11-2.95,2.01-4.19,1.84-2.56,3.91-4.91,6.13-7.14,4.48-4.66,9.87-8.29,15.36-11.64,5.63-3.27,11.87-5.27,17.82-7.87,6.16-2.55,12.32-5.07,18.64-7.18,8.95-3.48,17.96-6.78,27.23-9.3,13.61-4.17,27.87-1.68,41.72-.48,10-.03,19.89,1.79,29.16,5.61,7.9,2.51,15.87,4.83,23.8,7.27,12.45,2.55,23.08,9.93,32.74,17.87,6.87,6.17,14.1,12.12,19.86,19.36,6.27,8.28,10.72,17.7,14.3,27.41,2.62,6.4,4.94,12.93,6.91,19.56,4.05,12.31,4.64,25.35,3.34,38.16-.44,12.89-1.56,25.75-4.27,38.39-1.28,6.57-2.5,13.17-4.38,19.6-1.95,6.28-4.46,12.37-6.68,18.56-.43,1.18-.87,2.35-1.31,3.52-.89-.27-1.79-.52-2.69-.73Z"/>
  <path d="m416.55,218.39c-4.77-.69,1.98-18,4.42-19.36,4.58-2.36,6.24,6.13,2.82,7.88-1.57,3.72-1.35,12.8-7.24,11.48Z"/>
  <path d="m425.53,215.18c-9.86.34-5.02-10.32,1.67-5.52,3.71.8,10.07-4.42,11.7.96.21,4.79-9.91,4.61-13.38,4.56Z"/>
  <path d="m475.96,313.99c-11.9.36-24.36-.28-34.8-6.63-2.44-2.03-7.88-2.55-6.34-6.83,1.78-3.71,5.61-1.33,8.15.12,2.75,1.88,5.77,3.25,8.9,4.36,6.78,2.41,14.01,2.7,21.13,2.53,11.48.62,22.89-1.62,33.68-5.48,7.22-2.88,14.74-5.96,20.83-10.88,10.12-9.64,5.56-16.37-7.28-17.42-5.14-.31-10.09,1.42-14.99,2.72-7.99,1.55-15.6,4.38-23.39,6.61-12.2,2.96-25.38,3.89-37.43-.18-5.68-2.14-9.72-7.3-15.21-9.62.38,2.26-2.9,3.2-3.78,1.08-3.99-7.91,6.67-6.6,10.34-3.14,3.82,2.13,6.99,5.37,11.15,6.88,6.62,2.03,13.82,2.2,20.45,1.89,12.13-.78,22.77-6.04,34.51-8.39,5.18-1.25,10.28-3.15,15.65-3.38,5.39-.1,11,.94,15.64,3.75,8.43,5.24,5.6,15.67-.24,21.79-3.32,3.75-7.63,6.5-12.14,8.62-13.79,7.33-29.19,11.9-44.84,11.61Z"/>
  <path d="m475.82,310.89c-1.73-.44-3.23-1.62-4.43-2.91-.23-.24-.44-.5-.65-.76-.76.19-1.56.26-2.36.24-2.68,4.35-8.79,1.89-11.63-1.01-1.47.51-3.23.25-4.46-.73-3.42-.01-5.39-2.95-7.83-4.78-.16.35-.39.67-.67.96-.49.5-1.11.78-1.76.85-.05,2.39-3.31,3.22-4.52,1.15-1.33-2.73-2.18-5.69-3.65-8.36-2.46-4.89-4.43-10.02-6.1-15.22-.8-2.37-2.74-8.06,1.74-7.34,4.07-3.94,9.99.75,12.48,4.41,1.15,1.18,2.46,2.23,3.44,3.58,2.73.16,4.87,1.92,6.88,3.6,3.23-4.02,9.01-2.64,12.97-.52,1.26-.18,2.54-.07,3.82.22.57.13,1.14.29,1.71.49.33-.09.66-.17.98-.22.69-.11,1.42-.19,2.12-.14.66-.35,1.31-.56,2.06-.67.15-.02.29-.04.44-.04,2-2.03,4.95-3.73,7.85-2.72,1.02-1.07,2.45-1.65,3.92-1.75,1.11-.08,2.2.12,3.22.51.04-.02.08-.05.13-.07.01,0,.03-.02.04-.02.5-2.96,3.89-4.76,6.66-3.7.4-.22.83-.39,1.23-.49.95-.24,1.86-.3,2.82-.14,1.34-1.87,3.69-2.55,5.76-3.27,2.31-.83,4.93-.85,7,.63,1.22-.41,2.56-.42,3.84-.25,1.49.2,3.05.68,4.36,1.46,3.25-2.71,8.05-1.6,10.09,1.97,3.64,1.2,3.41,5.87,1.94,8.71-.32,3.02-1.96,6.25-4.93,7.37-1.62,3.21-6.7,9.33-10.49,5.99-1.28,1.08-3.06,1.3-4.65.96-.72.5-1.56.84-2.39.91-.4.04-.82.05-1.23.05-1.01,3.82-5.62,5.91-9.32,5.02-1.72.85-3.66,1.27-5.58,1.1-1.61,5.63-9.35,5.25-12.75,1.52-.03,0-.06,0-.09.01-1.32,3.07-4.93,4.39-8.03,3.44Zm13.6-9.4c-.05-.37-.1-.74-.17-1.11-.12-.15-.23-.3-.33-.46.01.47,0,.95-.04,1.43.18.05.36.1.54.14Z"/>
  <path d="m363.73,234.46c-6.86-.41-13.52-2.33-20.22-3.71-4.72-.81-9.5-1.27-14.22-2.1-2.55-.44-5.12-.7-7.67-1.16-4.38-.61-9.22-1.97-13.43-.05-3.7,1.53-6.14-4.02-2.4-5.68,6.05-2.81,12.86-.9,19.13.02,7.02,1.06,14.08,1.94,21.07,3.21,5.83,1.27,11.63,2.81,17.59,3.34,9.87-.02,19.56-2.22,29.37-3.03,3.38-.3,6.81-.44,10.02-1.66,4.5-1.69,9.02-3.33,13.58-4.83,2.98-1.13,4.89,3.19,1.91,4.52-6.68,1.94-12.75,5.72-19.61,7.01-11.71,1.26-23.3,3.9-35.1,4.13Z"/>
  <path d="m324.28,253.01c-6.09-7.53-14.12-12.92-20.85-19.81-7.95-8.3-14.01-18.3-22.35-26.19-11.85-11.69-20.91-25.57-30.84-38.8-5.73-5.82-11.34-11.82-15.4-18.98-1.75-3.32-7.37-9.91-1.26-11.67,4.56-.17,6.05,8.84,9.11,11.77,4.55,7.36,11.66,12.59,16.48,19.73,11.43,18.6,27.73,33.13,40.79,50.41,6.22,8.91,14.43,16.03,22.27,23.43,1.84,3.09,8.51,6.15,5.82,10.11-1,1-2.79,1.07-3.78,0Z"/>
  <path d="m313.01,271.61c-9.34-1.86-16.34-8.36-22.88-15.08.89-.66,1.43-1.76,1.28-2.92-.18-1.42-.28-2.85-.46-4.27-.07-.52-.14-1.05-.22-1.57,6.74,7.16,13.56,14.88,22.94,17.55,4.53.73,9.55,0,13.51-2.36,2.48-1.63,1.4-5.34-.03-7.36-2.29-3.23-5.27-5.79-8.27-8.11-1.4-.56-2.38-1.98-1.74-3.48,2.41-4.19,6.89,1.54,9.34,3.09,5.55,4.2,10.55,12.45,5.92,18.98-3.91,4.17-9.9,5.75-15.61,5.75-1.28,0-2.55-.08-3.78-.23Z"/>
  <path d="m262.11,227.37c-5.9-6.46-11.25-13.36-17.98-18.98-8.13-7.71-15.77-16-22.41-25.04-3.25-4.47-6.47-9.05-10.73-12.65-4.18-3.43-8.26-7.21-10.55-12.21-2.13-3.87,3.48-7.27,5.86-3.43.52.99,1.03,2.02,1.64,2.96,3.61,5.2,9.26,8.28,13.07,13.19,5.31,6.6,10,13.7,15.75,19.95,5.88,6.67,12.46,12.62,18.82,18.81,7.73,8.81,15.5,17.51,23.56,25.97-.81.29-1.57.7-2.2,1.3-.64.61-1.09,1.56-1.32,2.4-.15.56-.29,1.13-.35,1.71-4.44-4.61-8.82-9.28-13.16-13.99Z"/>
  <path d="m311.5,266.31c-7.43-2.69-14.11-6.57-20.26-11.21.18-.46.25-.96.18-1.48-.18-1.42-.28-2.85-.46-4.27-.09-.73-.2-1.46-.31-2.19-.03-.21-.06-.42-.09-.64,12.15,10.96,25.32,18.34,36.08,12.35-7.74-14.75-21.3-24.73-31.28-37.74-9.35-14.11-21.39-25.88-31.8-39.13-11.22-15.71-25.93-27.89-38.57-42.35-1.06-1.04-1.04-2.82,0-3.87,4.25-3.49,11.63,9.09,14.83,11.58,8.29,9.41,18.63,16.88,25.65,27.43,7.02,9.82,15.52,18.37,23.39,27.46,6.29,8.67,12.58,17.54,19.84,25.4,12.33,12.4,39.49,39.16,10.62,39.16-2.25,0-4.84-.16-7.81-.51Z"/>
  <path d="m250.29,210.66c-10.23-11.51-20.49-23-31.36-33.92-6.6-7.63-17.12-11.95-21.65-21.2-2.56-3.84,3.88-7.51,5.81-3.3,3.62,7.57,12.11,10.82,17.53,16.9,13.68,13.3,26.5,27.57,38.8,42.09,4.6,5.65,11.89,15.25,20.38,24.51-1.06.28-2.06.74-2.86,1.51-.64.61-1.09,1.56-1.32,2.4-.08.31-.16.63-.23.95-8.96-9.55-16.99-20.17-25.11-29.93Z"/>
  <path d="m239.06,155.54c-4.65-5.65-9.47-11.27-14.53-16.61-2.36-2.52-7.81-7.51-2.27-9.73,4.48-.71,10.5,10.55,14.09,13.6,1.85,3.32,10.11,9.65,5.94,13.16-1.04.61-2.36.42-3.23-.42Z"/>
  <path d="m233.19,146.35c-7.94-10.88-19.86-15.6-32.45-18.84-12.84-4.78-25.21-10.65-36.88-17.84-17.25-12.94-55.52-51.03-33.1-72.02,2.42-1.88,5.08-2.81,7.87-3.11.27.43.55.84.82,1.26,1.03,1.56,2.03,3.14,3.02,4.72-.03-.04-.05-.09-.08-.14.03.05.07.11.1.16,0,0-.01-.02-.02-.03l.04.06s0,0,0,.01c0,0,0,.01.01.02,0,0,0,0,0,0,.02.03.03.06.05.08l-.05-.08c.11.19.23.38.34.57-15.77-1.47-14.38,18.86-5.17,30.84,4.86,7.93,10.7,14.97,17.28,21.17.1.68.33,1.32.74,1.89.7.95,1.82,1.51,2.99,1.47.3.26.61.52.92.78.27.35.62.64,1.02.84,13.86,11.39,30.4,19.52,47.81,24.77,1.37.46,2.73.94,4.12,1.34.14.04.27.08.41.12-5.25-10.42-10.18-21.29-15.77-31.72.35.09.7.17,1.05.23.67.12,1.36.15,2.03.17,1.39.04,2.79.05,4.17-.02.18,0,.35-.02.53-.03,6.2,11.74,11.73,23.84,17.62,35.26,3.55,2.47,19,13.67,14.96,18.05-.6.59-1.39.89-2.19.89s-1.59-.3-2.19-.89Z"/>
  <path d="m196.08,79.87c-.53-.29-1.04-.59-1.54-.92-.27-.2-.52-.4-.77-.61-.32-.31-.62-.63-.92-.95-.52-.64-1.01-1.31-1.48-1.99-.65-1.02-1.26-2.07-1.8-3.14-.18-.4-.34-.81-.5-1.22-.3-.96-.55-1.95-.77-2.93.03-.21.05-.42.07-.63.06-.34.11-.68.15-1.02,3.42,4.54,6.56,9.3,9.5,14.19-.07,0-.15.01-.22.02-.58-.25-1.16-.51-1.72-.79Z"/>
  <path d="m175.09,51.53c.48.53.96,1.06,1.45,1.59-.02.01-.03.03-.05.04-.18.04-.35.09-.52.15-.25-.62-.54-1.22-.88-1.79Z"/>
  <path d="m156.26,43.38c-.48-.61-.93-1.24-1.34-1.89-.93-1.57-1.76-3.19-2.56-4.83,2.75.89,5.41,1.9,7.87,2.75.66.24,1.3.52,1.91.82-1.69.33-3.13,1.28-4.24,2.62-.35.42-.65.9-.89,1.41-.25-.29-.51-.57-.75-.87Z"/>
  <path d="m142.5,40.58s-.01-.02-.02-.03c0,.01.01.02.02.04,0,0,0,0,0,0Z"/>
  <path d="m222.01,130.73c-3.5-4.13-6.39-8.76-9.81-12.97-.89-1.15-.67-2.84.48-3.73,1.11-.86,2.89-.7,3.73.48,3.26,4.34,6.06,8.99,9.06,13.49,2.1.48,1.83,3.6-.13,4.1-1.27.36-2.46-.5-3.32-1.37Z"/>
  <path d="m194.08,118.16c-2.1-8.59-6.22-16.21-11.02-23.47.55-.18,1.09-.41,1.62-.63.96-.39,1.91-.79,2.85-1.21.48-.06.97-.13,1.45-.19.74,1.13,1.49,2.26,2.24,3.37,1.88,4.2,11.87,22.45,5.71,24.29-.11.01-.22.02-.33.02-1.23,0-2.36-.93-2.52-2.18Z"/>
  <path d="m124.73,54.45c1.92-10.02,13.43-10.26,21.95-7.04.45.71.9,1.43,1.35,2.14,0,0,0,0,0-.01,0,0,0,.01.01.02,0,0,0,0,0,0,.04.06.07.12.11.17,0,0,0,0,0,0,0,.01.01.02.02.03,0,0,0,0,0,0,0,0,0,0,0,0,0,0,0,.01,0,.02,0,0,0-.01,0-.02,0,0,0,0,0,0,0,0,0,0,0,0,.27.44.54.87.81,1.3,0,0-.01-.02-.02-.03-.02-.03-.04-.06-.06-.09-.04-.07-.08-.14-.13-.2.04.07.08.14.13.2.02.03.04.06.06.09,0,.02.02.03.03.05,0,0,0-.01-.01-.02.26.42.53.84.8,1.26,0,.04-.02.09-.02.13-.09.5-.17,1-.27,1.48-.11.56-.21,1.12-.31,1.68-.1.04-.2.08-.3.13-5.88-3.39-12.01-4.77-17.15-1.6.02,2.88-2.08,4.44-3.99,4.44-1.76,0-3.36-1.32-3-4.15Z"/>
  <path d="m148.15,49.73s0,0,0,0c0,0,0,0,0-.01.01.02.02.03.03.05,0-.01-.01-.02-.02-.03Z"/>
  <path d="m206.95,162.95c-3.46-3.6-7.52-6.56-11.39-9.71-5.28-4.36-10.8-8.56-16.77-11.95-5.16-2.49-10.52-4.54-15.8-6.76-7.46-3.61-14.41-8.38-20.92-13.48-9-6.91-16.12-15.85-21.79-25.63-5.41-9.35-9.82-19.75-9.67-30.73-.24-5.47.57-11.2,3.8-15.78,3.29-4.29,6.13-10.4,11.75-11.82,2.19-.41,4.71,1.03,4.93,3.36.32,1.64-.91,2.86-1.08,4.39-.52,2.88-4.71,1.91-4-.9-3,3.57-5.92,7.43-7.81,11.71-2.24,7.69-.88,16.08,1.61,23.56,6.13,16.18,16.95,30.56,31.21,40.42,4.53,2.88,8.94,6.11,13.74,8.5,7.3,3.26,15.15,5.55,21.81,10.08,8.78,6.09,17.41,12.58,25.12,20,3,3.16-1.53,7.84-4.76,4.76Z"/>
  <path d="m119.41,44.37c-1-1.29-.82-3.38.56-4.34,3.03-2.05,6.36-3.73,9.84-4.85,3.52-1.3,7.07-.31,10.18,1.44.84,1.29,1.66,2.6,2.48,3.9l-.08-.14c.04.07.08.13.12.2,0,0,0-.02-.01-.02,0-.01-.01-.02-.02-.03,0,.01.01.02.02.03.01.02.02.04.03.05,0,0,0-.01-.01-.02.02.03.04.07.06.1l-.05-.08c.09.15.18.3.27.45-1.05.6-2.26.83-3.53.39-3.99-1.67-6.73-1.59-10.54.54-1.41.72-2.78,1.48-4.11,2.34-.79.74-1.85,1.22-2.87,1.22-.87,0-1.7-.34-2.33-1.17Z"/>
  <path d="m129.98,176.13c-43.68-6.14-52.37-62.04-34.02-95.36,3.2-5.6,15.83-33.49,23.32-24.66.89,3.36-3.23,3.03-4.57,5.14-15.35,19.26-25.04,44.97-21.01,69.72,7.93,39.7,44.63,49.28,76.94,29.6,19.36-9.88,15.94-22.45,22.36-20.36,3.8,1.79,1.05,5.89-.3,8.49-4.7,10.37-16.1,15.67-25.65,20.83-11.18,7.17-24.43,6.15-37.07,6.62Z"/>
  <path d="m103.38,161.04c-3.86-6.29-5.19-13.77-6.61-20.91-1.38-11.81-.67-23.91,1.64-35.56,1.67-6.95,3.46-14.27,7.91-20.02,2.02-2.58,4.7-4.57,7.09-6.8,2.07-1.93,5.06,1.01,3.07,3.07-1.25,1.11-2.5,2.22-3.74,3.34-11.42,9.65-12.74,37.25-11.89,51.41.99,7.9,2.52,16.16,6.54,23.12,1.49,2.6-2.35,4.95-4.01,2.34Z"/>
  <path d="m117.03,169.48c-7.05-18.88-5.23-41.47,3.5-59.55,2.18-2.71,5.77-11.02,9.86-8.87,3.2,3.46-3.27,6.71-4.58,9.79-1.71,2.77-2.83,5.99-3.92,8.95-4.61,13.1-4.38,27.45-2.22,40.9-.07,3.23,4.33,7.25,1.03,9.74-1.22.72-2.98.33-3.67-.96Z"/>
  <path d="m122.6,169.07c-2.08-1.73-.37-3.74.85-5.36,1.03-1.55,1.99-3.13,2.88-4.77,6.8-12.92,15.25-25.14,16.95-39.9.23-1.26,1.34-2.19,2.65-2.02,1.23.17,2.25,1.39,2.01,2.65-1.12,8.07-3.56,15.82-7.44,23-2.65,5.63-5.88,10.94-8.8,16.44-1.7,3.25-3.46,6.48-5.57,9.49-.79,1.13-2.49,1.27-3.55.46Z"/>
  <path d="m136.6,169.58c-2.29-3.67,11.66-7.12,15.78-15.64,2.92-4.59,5.33-9.51,7.25-14.6,1.6-2.93.28-9.99,4.97-9.52,5.63,3.55-5.09,21.86-7.72,26.61-2.25,4.06-16.26,19.05-20.28,13.15Z"/>
  <path d="m180.63,152.7c-21.83-1.17-41.08-12.71-56.48-27.65-11.28-11.7-23.01-25.31-23.63-42.26-.3-6.24,7.61-6.21,7.26,3.92,4.17,22.94,30.69,45.24,51.12,54.83,8.53,2.25,17.09,5.91,26.02,4.86,2.85.3,3.38,4.49.73,5.58-1.56.63-3.35.64-5.02.72Z"/>
  <path d="m165.52,170.56c-18.05-3.68-35.05-12.08-45.74-27.54-10.42-14.23-26.61-28.92-25.02-47.97.34-1.46,1.99-2.3,3.39-1.92,3.17.92,1.29,4.18,1.84,6.43,2.22,12.77,10.43,22.43,18.2,32.22,7.7,9.38,14.67,20.09,25.89,25.36,7.13,3.23,14.56,6.02,22.22,7.71,3.68.47,2.92,6.28-.78,5.71Z"/>
  <path d="m137.31,169.93c-8.78-2.23-15.66-8.49-22.43-14.19-3.76-3.54-7.64-6.99-11.16-10.77-5.44-6.02-9.01-13.35-12.79-20.45-1.56-2.87,2.6-5.33,4.31-2.52,2.96,5.52,5.83,11.36,9.52,16.28,7.48,8.95,16.46,16.57,25.94,23.21,2.39,1.7,5.23,2.55,7.99,3.45,3.24,1,1.92,5.83-1.37,4.99Z"/>
  <path d="m178.93,114.97c-1.46-5-3.98-9.49-6.8-13.81.23-.24.42-.52.57-.83.02-.04.04-.07.06-.11.04-.05.09-.11.13-.16.48-.49,1-.94,1.53-1.39.35-.29.69-.57,1.04-.85.28.41.56.82.84,1.23,2.84,4.24,5.25,8.77,6.77,13.65,1.18,2.14-.34,4-1.95,4-.83,0-1.69-.5-2.2-1.72Z"/>
  <path d="m131.29,64.92c-1.54-.11-3.27-1-2.99-2.8.16-1.19,1.36-2.21,2.59-1.97,4.81.69,9.4,2.19,13.66,4.34-.13.44-.26.88-.38,1.32-.18.68-.35,1.36-.5,2.04-.14.39-.24.78-.31,1.18-3.71-2.01-7.73-3.45-12.08-4.12Z"/>
  <path d="m140.46,81.5c-.95-.41-1.46-1.57-1.03-2.54,1.25-2.8,2.55-5.58,3.76-8.39,0,.12-.02.25-.02.37-.05.85.01,1.71.09,2.55.1,1.09.26,2.31.8,3.29,0,.12.02.24.03.36.02.22.06.45.1.67-.4.89-.8,1.78-1.2,2.66-.33.73-1.06,1.18-1.81,1.18-.24,0-.49-.05-.73-.15Z"/>
  <path d="m149.2,55.46c-.01.05-.02.11-.03.16-.39.14-.74.38-1.03.68.23-.41.62-.7,1.06-.85Z"/>
  <path d="m169.52,107.56c-.79-.79-.84-2.2,0-2.99,1.89-1.76,3.77-3.52,5.75-5.17,1.81-1.46,3.69-2.85,5.55-4.24.09-.06.18-.12.27-.17.25.02.51.01.77-.02.27-.04.55-.09.81-.17.42.11.81.36,1.1.73.7.89.54,2.26-.38,2.95-2.36,1.76-4.69,3.55-6.95,5.43-1.56,1.02-3.52,4.23-5.53,4.23-.47,0-.93-.17-1.4-.59Z"/>
  <path d="m292.53,258.77c-1.51-.55-2.01-1.46-2.03-2.55.66-.67,1.03-1.61.91-2.6-.04-.31-.08-.62-.11-.94.34-1.1.63-2.18.51-3.12.96-9.82-5.93-19.07-16.3-14.3-1.28.57-2.83-.09-3.37-1.37-.82-7.25,15.9-5.91,19.19-1.63,6.2,2.78,9.42,26.52,1.51,26.52-.1,0-.21,0-.32-.01Z"/>
  <path d="m270.16,240.14c1.48-3.11,3.21-10.73,7.71-9.28,1.84,1.5,1,3.57-.3,5.87-.22.15-.43.33-.63.52-.64.61-1.09,1.56-1.32,2.4-.09.35-.18.7-.25,1.06-.71,1.56-1.12,3.13-.64,4.64.16,4.64,4.95,7.09,8.14,9.75,1.14.94,2.43,1.4,3.77,1.55.49.31,1.06.49,1.67.49.12,0,.25,0,.38-.02.6-.07,1.14-.32,1.58-.68,1.44-.29,2.86-.77,4.16-1.26,1.47-.55,3.15.04,3.78,1.54,1.12,5.84-8.61,5.43-12.49,5.46-9.03-2.58-19-11.82-15.56-22.03Z"/>
  <path d="m388.5,262.93c-6.81-.26-13.43-1.93-20.02-3.5-10.03-1.42-20.08-2.91-30.23-3.11-.06,1.76-2.25,2.94-3.75,1.97-1.16-.73-2.32-1.48-3.52-2.15-2.34-1.05-2.24-4.65.37-5.29,12.11-1.1,24.29.6,36.31,2.08,6.57,1.14,12.99,3.23,19.7,3.6,11.01.48,21.74-3.44,31.46-8.27,3.84-1.53,6.28,4.12,2.47,5.85-10.16,5.03-21.33,8.96-32.8,8.81Z"/>
  <path d="m776.91,289.78c-9.18-1.39-18.52-.65-27.73-1.68-6.28-1.13-12.25-3.54-18.26-5.64-7.83-2.87-15.53-6.33-23.72-8.08-5.82-.96-11.54-2.48-16.69-5.43-8.52-4.29-14.88-11.58-21.38-18.35-2.8-2.47-5.41-5.81-7.3-8.9-1.63-2.43-3.92-4.74-4.39-7.72-.09-4.02,7.38-3.85,6.21.3,2.07,3.06,4.13,6.16,6.39,9.09,2.27,2.46,4.82,4.64,6.96,7.22,5.3,5.69,11.13,11.01,18.23,14.34,4.97,2.53,10.26,3.19,15.52,4.32,4.02.9,7.87,2.39,11.71,3.82,8.64,3.06,17.1,6.69,25.92,8.91,7.91,1.27,16.01.59,23.99,1.18,11.09,1.8,22.15-.07,32.86-2.96,4.27-1.17,8.77-1.24,12.98-2.61,4.13-.95,7.24-3.68,10.5-6.2,2.5-1.59,6.1-5.5,8.84-2.39,1.76,2.74-.35,4.46-2.76,5.57-3.5,2.3-6.49,5.38-10.26,7.26-5.06,2.26-10.03,2.91-15.37,3.8-10.56,2.59-21.31,5.2-32.27,4.14Z"/>
  <path d="m832.56,297.6c-1.1-.34-1.5-1.54-1.09-2.54,1.18-3.9,2.33-7.81,3.45-11.73,2.31-9.63,5.04-19.04,8.38-28.37,3.49-8,6.11-16.32,9.54-24.34,3.53-7.62,5.55-15.73,7.86-23.77,2.22-7.14,3.71-14.48,6.12-21.57,1.57-4.42,3.23-8.82,4.96-13.19,3.35-7.73,7.09-15.31,10.01-23.21,1.05-3.79,2.68-7.34,4.12-10.99.72-1.76.75-3.93,2.31-5.22,1.54-1.26,4.04-.65,4.95,1.08.67,1.19.53,2.66-.27,3.68-.83,3.1-2.21,6-3.4,8.97-4.46,14.08-11.91,26.98-16.5,41.03-2.84,9.08-5,18.37-7.81,27.47-1.16,4.58-2.52,9.11-4.35,13.48-2.5,5.85-4.94,11.71-6.98,17.74-1.9,4.95-4.24,9.72-5.99,14.73-1.22,3.9-2.7,7.72-4.13,11.55-1.48,4.5-2.64,9.21-4.3,13.58.31.43.36,1.03.07,1.51-.77,1.34-1.7,2.59-2.23,4.05-.94,1.7-2.23,6.74-4.73,6.04Z"/>
  <path d="m907.91,119.46c-2.75-.98-5.02-2.77-6.88-5-2.54-3.05-3.92-6.98-4.68-10.82-.75-3.77-.87-7.64-.62-11.47,0,0,0-.02,0-.03,0,0,0,0,0,0h0s0-.06,0-.1c.2-2.86.59-5.7,1.16-8.52.55-2.69,1.38-5.31,2.22-7.92.85-2.6,1.78-5.18,2.85-7.69.77-1.81,1.6-3.59,2.54-5.31.57-1.04,1.17-2.06,1.77-3.08-.11-.71,0-1.45.39-2.11,0,0,0-.01.01-.02,0,0,0,0,0,0,0,0,0,0,0,0,3.28-5.53,7.12-10.76,11.71-15.28,4.58-4.5,10.05-8.54,16.32-10.27,2.5-.69,5.13-.93,7.71-.6,2.81.36,5.5,1.54,7.71,3.3,2.55,2.04,4.38,4.81,5.64,7.79,2.02,4.77,2.54,10.14,2.41,15.27-.14,5.73-1.19,11.46-2.79,16.96-1.49,5.14-3.49,10.12-5.9,14.89-2.57,5.1-5.61,9.96-9.19,14.41-.8,1-1.64,1.99-2.52,2.93-.75.8-1.56,1.56-2.35,2.33-1.41,1.37-2.88,2.69-4.41,3.93-4.05,3.27-8.74,6-13.89,7-1.2.23-2.41.35-3.62.35-1.9,0-3.79-.3-5.6-.94Zm6.23-4.93c.67-.05,1.34-.14,2-.28.75-.17,1.48-.38,2.2-.62,1-.35,1.96-.78,2.69-1.13.08-.04.16-.08.23-.12h.01c1.1-.58,2.16-1.22,3.19-1.9,1.42-.97,2.79-2.02,4.03-3.11,1.22-1.09,2.39-2.22,3.48-3.44,2.41-2.76,4.69-5.64,6.53-8.34,1.91-2.84,3.64-5.81,5-8.49.08-.15.15-.3.22-.44.04-.07.07-.14.11-.22.03-.05.05-.1.05-.11,1.58-3.19,2.94-6.48,4.11-9.83,1.01-3,1.86-6.04,2.52-9.14.53-2.64.9-5.3,1.1-7.98.12-2.03.12-4.06,0-6.09-.12-1.49-.32-2.96-.6-4.43-.22-1.01-.49-2.01-.82-2.99-.27-.75-.58-1.47-.92-2.19-.31-.59-.65-1.17-1.01-1.73-.26-.36-.52-.71-.81-1.05-.32-.36-.65-.7-1.01-1.02-.32-.28-.66-.53-1-.78-.32-.21-.65-.4-.98-.58-.35-.17-.71-.32-1.07-.45-.41-.14-.84-.25-1.26-.35-.43-.08-.86-.14-1.3-.18-.5-.03-1-.02-1.5,0-.65.05-1.3.14-1.93.26-.73.16-1.45.36-2.15.59-.98.35-1.94.76-2.87,1.22-1.17.6-2.3,1.27-3.4,2-1.37.94-2.68,1.97-3.94,3.05-1.8,1.59-3.47,3.3-5.06,5.09-1.82,2.1-3.51,4.3-5.03,6.54-.03.04-.05.08-.08.12l-.06.09c-.9,1.34-1.74,2.7-2.56,4.09,0,0,0,.02-.01.02,0,0,0,0,0,0,0,0,0,0,0,.01,0,0,0,0,0,0-.37.63-.93,1.09-1.57,1.34-.08.16-.17.32-.25.49-.95,1.9-1.79,3.84-2.65,5.78-.97,2.19-1.85,4.42-2.64,6.68-.8,2.35-1.46,4.73-1.88,6.79-.7,3.44-1.31,6.87-1.58,10.37,0,.07,0,.14-.01.22-.12,2.04-.14,4.07-.02,6.1.12,1.45.31,2.89.58,4.32.23,1.04.5,2.07.83,3.08.29.82.62,1.63,1,2.42.29.55.59,1.09.93,1.62.3.44.63.86.97,1.26.34.37.69.73,1.06,1.07.3.25.61.5.93.72.34.22.69.43,1.05.62.36.17.73.33,1.11.47.4.13.81.24,1.22.34.48.09.96.15,1.45.19.47.03.94.03,1.41,0Z"/>
  <path d="m890.83,136.71c-2.58-3.74-3.82-8.17-5.2-12.45-1.59-4.03-3.05-8.09-4.33-12.23-1.78-4.47-1.9-9.3-2.32-14.03-.8-9.67.34-19.43,2.71-28.8,1.14-4.96,3.37-9.57,5.09-14.34,2.56-7.13,6.84-13.45,11.52-19.36,5.98-7.89,13.98-14.43,23.55-17.32,3.43-1.03,7.02-2.15,10.64-1.77,4.36.62,4.37,3.82,1.82,6.76-1.41,1.76-3.97-.42-2.55-2.12-15.41,2.78-25,11.83-33.34,24.44-2.98,4.26-5.07,8.78-6.78,13.63-3.71,8.69-6.19,17.93-6.67,27.39-.52,6.68.04,13.25.94,19.84.78,3.12,2.07,6.48,2.99,9.45,2.49,5.65,3.65,11.93,6.83,17.26,2.25,3.18-2.49,6.73-4.89,3.63Z"/>
  <path d="m842.02,311.45c-7.39-.19-14.31-6.13-13.1-13.93,1.07-3.9.92-13.22,6.66-12.57,8.12,4.26-10.29,19.48,9.12,20.04,9.44-3.56,10.35-15.13,14.23-23.17,5.88-13.33,10.33-27.1,15.96-40.52,9.14-23.39,16.66-47.29,25.48-70.81,4.83-11.5,4.79-25.52,11.59-35.92,16.69-8.1,37.55-11.53,48.32-28.53,11.29-16.66,16.28-37.83,9.57-57.19-2.62-8.54-5.74-18.3-14.03-22.91-7.19-2.55-15.28-6.47-22.9-3.75,1.12,7.15-9.64,2.3-7.65-2.52,9.29-9.16,27.29-3.48,37.06,2.62,8.61,6.77,11.83,17.7,14.81,27.78,6.46,23-.83,47.46-15.85,65.42-11.88,13.29-29.32,17.78-45.11,24.17-3.2,8.79-5.07,18.21-7.65,27.26-11.52,32.95-23.06,65.8-35.8,98.3-2.92,7.47-5.89,14.89-8.97,22.31-3.63,10.07-8.5,25.22-21.76,23.9Z"/>
  <path d="m837.23,271.65c-3.91-1.49-1.01-7.54,2.49-5.09,2.9,1.94.96,6.84-2.49,5.09Z"/>
  <path d="m803.69,332.44c-21.07-3.37-42.57,2-63.68-1.48-15.91-1.56-30.2-8.78-43.93-16.35-10.57-5.2-21.76-9.6-31.46-16.33-5.61-5.05-12.13-10.18-16.33-16.27-.48-2.87,3.18-5.07,5.45-3.15,7.2,6.26,13.21,14.17,21.89,18.51,24.38,10.6,46.99,27.54,74.6,27.97,16.34.76,32.73-1.73,49.01-.26,15.52,3.42,31.07.99,46.26-2.87,18.36-4.95,40.04-28.65,26-47.31-6.53.6-4.96-8.77,1.72-5.95,9.52,5.37,10.68,19.72,7.58,29.26-6.24,14.25-19.22,26.8-34.56,30.39-14.07,3.32-28.11,6.57-42.55,3.84Z"/>
  <path d="m627.76,231.8c.23-7,4.04-15.16,11.67-16.23,2.99-.27,7.99-3.53,9.54.51.52,5.36-7.61,3.7-10.83,5.78-3.12,2.02-4.36,6.41-4.62,9.94.04,3.72-5.77,3.73-5.75,0Z"/>
  <path d="m698.82,244.47c-2.7-1.57-.08-4.79.7-6.55,1.87-4.14,4.25-8.27,4.65-12.87.09-2.5.03-5-.04-7.49.07-3.22,4.79-3.24,4.92,0,.25,4.56.62,9.34-1.13,13.66-1.6,4.25-3.61,8.31-5.68,12.35-.62,1.21-2.29,1.56-3.42.9Z"/>
  <path d="m700.94,179.88c-.04-1.09-.11-2.11-.17-2.98-.58-5.46-.45-11.01-1.51-16.41-1.95-8.1-5.38-16.16-10.77-22.57-.48.84-1.62,1.12-2.45.63-1.61-.95-.61-2.83.25-3.94,3.83-3.98,9.84,7.46,11.45,10.23,2.74,5.22,5.09,10.75,6.07,16.59.9,6.09.98,12.3.82,18.45-.1,2.41-3.58,2.44-3.69,0Z"/>
  <path d="m541.1,364.14c-2.67-.09-5.36.01-8.02-.28-2.74-.51-5.41-1.41-8.1-2.16-9.09-2.79-17.86-6.58-26.04-11.41-7.44-4.16-15.43-8.02-21-14.66-1.56-2.09,1.48-4.49,3.17-2.45,2.28,2.82,5.24,4.88,8.21,6.88,8.6,5.05,17.37,9.97,26.68,13.6,5.86,2.34,11.41,4.05,17.46,5.48,4.84.43,9.72.24,14.58.26,1.29-.02,2.37,1.1,2.37,2.37s-1.08,2.34-2.37,2.37c-2.32.06-4.62.04-6.94,0Z"/>
  <path d="m548.16,289.49c.83-10.15-2.3-22.33-12.46-26.66-1.35-.46-2.54-1.76-1.88-3.23.45-1.05,1.81-1.71,2.88-1.17,12.31,4.88,17.06,19.02,15.77,31.36-.32,2.62-4.34,2.36-4.31-.29Z"/>
  <path d="m467.03,229.65c-2.82-.36-5.66-.97-8.25-2.19-2.04-.96-4.05-1.99-6.03-3.06-.94,1.49-3.21,1.34-4.08-.13-.79-1.23-1.58-2.45-2.38-3.67-.82-1.05-2.04-1.93-2.22-3.36-.2-1.25.66-2.48,1.86-2.82,1.47-.45,2.62.66,3.49,1.69,4,2.71,8.41,4.9,12.83,6.71,6.6,1.96,13.92,2.21,20.27-.73,1.48-.61,3.21.08,3.84,1.56.61,1.46-.09,3.23-1.56,3.84-2.89,1.18-5.83,2.06-8.92,2.48-2.94.39-5.94.07-8.86-.3Z"/>
  <path d="m537.24,245.59c-4.85.17-24.05-6.06-22.1-12.01.68-1.16,2.36-1.7,3.52-.93,7.37,5.53,16.49,9.24,25.81,7.48,2.88-.18,6.95-4.02,8.87-.37,1.27,5.95-12.14,5.95-16.09,5.83Z"/>
  <path d="m549.56,182.09c-3.34-.15-4.09-5.14-.58-5.68,12.77.83,30.7-.6,35.42-14.94.88-2.36,1.14-6.59,4.69-5.74,4.77,2.25-.04,8.99-1.34,12.36-7.56,12.89-24.61,14.83-38.18,14Z"/>
  <path d="m451.55,153.25c-4.02-1.93-6.73-5.51-9.17-9.12-1.61-2.16,1.61-4.65,3.27-2.52,2.06,3,4.18,6.13,7.53,7.8,2.49,1.14.9,4.86-1.62,3.84Z"/>
  <path d="m536.66,78.44c-.65-2.32-.95-7.1,2.39-7.25,6.66-15.3-5.55-29.95.05-32.12,6.59-1.97,7.3,15.76,7.72,20.16.07,4.11-3.52,26.54-10.16,19.22Z"/>
  <path d="m561.68,77.45c-8.23-3.14,3.51-27.51,8.88-31.18,2.32-1.75,5.78-5.62,8.48-2.43,1.04,1.34.86,3.52-.58,4.52-1.63,1.17-3.32,2.29-4.7,3.76-10.51,10.61-5.69,26.26-12.08,25.33Z"/>
  <path d="m589.6,67.41c-4.36-6.33,23.07-30.89,26.72-24.04,2.05,4.63-5.06,5.91-7.61,8.37-3.54,2.56-6.96,5.32-9.91,8.55-4.44,3.7-1.74,8.05-5.36,9.3-1.58.44-3.45-.52-3.84-2.18Z"/>
  <path d="m593.65,99.31c-6.14-2.95,1.55-14.55,5.4-17.17,3.45-2.01,8.74-9.41,12.51-4.83,1.99,5.15-6.31,6.75-8.84,10.13-5.36,2.46-2.96,12.6-9.06,11.86Z"/>
  <path d="m621.23,85.94c.36-15.32,15.72-25.04,28.86-29.36,2.85-.87,6.99-4.31,8.92-.32.7,1.66-.13,3.42-1.69,4.18-11.22,4.42-24.1,8.89-29.12,20.98-.95,2.24.09,4.92-1.56,6.77-1.82,1.99-5.57.49-5.41-2.24Z"/>
  <path d="m653.29,92.69c-2.94-1.8-.72-4.91.62-7,4.12-8.14,14.31-9.01,22.29-10.81,5.23,0,3.99,6.57-.79,6.31-20.47,2.18-15.06,13.75-22.11,11.51Z"/>
  <path d="m516.36,85.42c-.42-5.86.57-11.93-1.16-17.63-.73-2.78-4.34-6.79-.47-8.71,8.93-.51,6.84,20.25,7.27,26.34.05,3.64-5.64,3.65-5.64,0Z"/>
  <path d="m552.37,58.29c-.92-8.32,4.37-16.43,11.76-19.99,2.51-1.32,6.54-4.1,8.3-.35,1.67,5.72-10.71,6.11-12.35,12.83-1.34,2.3-1.62,4.9-1.36,7.51.06,4.1-6.36,4.11-6.35,0Z"/>
  <path d="m493.27,458.38c-12.43.93-24.88-4.53-19.91-19.03,4.77-10.38,13.64-18.19,18.74-28.41,4.54-7.97,8.53-16.21,11.94-24.73,2.35-4.83,3.14-10.92,7.38-14.54,3.45-2.23,6.96,3.39,3,5.13-5.92,13.98-11.18,28.35-19.27,41.32-4.48,9.9-17.74,17.74-16.19,29.37,3.92,8.01,19.68,3.66,27.15,3.57,29.85,2.31,8.91-23.72,14.55-45.26.97-4.84,5.38-37.72,12-33.57,1.7.69,2.5,2.74,1.79,4.42-4.49,14.52-8.52,29.51-7.78,44.84,7.03,34.96-.46,36.6-33.4,36.89Z"/>
  <path d="m659.31,422.56c-4.37-.23-5.95-5.11-9.43-7.04-17.5-7.39-37.32-1.53-53.94-11.99-7.19-5.03-15.5-9.46-19.15-17.93-1.64-4.26-4.69-9.32-2.69-13.88,2.5-4.71,10.8,1.51,5.02,3.99,4.05,15.88,20.65,24.49,35.56,27.8,15.26,2.09,34.48-.98,45.19,12.45,13.77-1.32,9.01-29.98,5.09-38.53-5.84-6.52-17.38,5.64-27.7,2.11-5.24-.52-26.83-7.09-21.81-14.28,1.26-1.31,3.45-1.28,4.73,0,25.75,19.69,33.93-4.74,48.99,6.9,8.6,11.86,11.77,50.74-9.85,50.38Z"/>
  <path d="m937.31,129.17c.17-6.38,10.82-3.71,15.18-4.85,10.29-1.12,20.4-2.97,29.69-7.5,11.31-4.33,19.66-12.39,25.73-22.74,10.2-12.21,8.99-29.47.43-42.22-9.79-19.54-36.41-28.47-56.98-26.09-1.58.24-3.09-.94-3.31-2.51.39-7.55,22.75-3.25,27.53-1.32,15.92,2.9,31.16,12.29,38.42,27.1,9.89,14.94,10.5,35.05-1.22,49.13-10.14,18.15-29.77,27.81-49.62,31.38-7.33,1.45-14.8,1.58-22.2,2.51-1.75.14-3.41-1.09-3.65-2.89Z"/>
  <path d="m924.39,46.8c0-.4.34-.74.74-.74s.74.34.74.74-.34.74-.74.74-.74-.34-.74-.74Z"/>
  <path d="m911.98,116.66c-14.25-20.54-2.7-56.07,10.95-74.56,1.96-3.78,8.49-5.02,6.86.85-1.03,1.98-1.65,5.84-4.66,5.1-9.1,14.73-15.78,35.34-13.62,52.66,1.04,4.09,2,8.48,4.43,11.98,2.57,2.54-1.43,6.56-3.96,3.96Z"/>
  <path d="m930.51,105.74c-10.02-13.22-3.73-32.42-1.01-47.36,3.36-12.51,7.85-24.59,22.88-24.42,3.74-.54,4.56,5.29.79,5.81-5.97.56-11.65,1.73-13.7,8.13-5.76,13.15-8.22,27.78-8.36,42.09.74,3.68.59,8.06,2.98,11.1,3.02,2.3-.61,7.03-3.59,4.65Z"/>
  <path d="m943.27,82.28c-1.31-5.07-.91-10.33-.07-15.45.74-4.4,1.58-8.85,3.53-12.89.91-1.83,1.87-3.64,2.86-5.44.59-1.1,2.09-1.44,3.15-.82,1.11.65,1.42,2.04.82,3.14-.93,1.72-1.85,3.44-2.73,5.19-2.77,6.61-3.79,13.97-3.78,21.1.16,1.24.36,2.46.61,3.69.17.69.21,1.4-.18,2.04-.91,1.72-3.79,1.38-4.2-.55Z"/>
  <path d="m973.09,116.85c-2.93-2.55,1.01-5.23,2.32-7.48,2.43-3.62,4.04-8.21,5.41-12.03,4.18-13.01,10.45-26.4,7.96-40.36-2.23-8.32-6.24-18.14-14.32-22.09-3.48-.64-2.32-6.09,1.12-5.12,10.22,3.81,15.37,15.51,18.21,25.33,2.76,12.14-1.07,24.34-5,35.7-2.43,5.81-7.79,28.64-15.7,26.04Z"/>
  <path d="m1000.06,105.75c-2.72-1.66-.41-4.53.25-6.7,1.74-5.05,3.12-10.25,4.24-15.47,1.71-9.28,2.44-18.92,1.03-28.28-.7-3.35-1.67-6.36-5.73-6.18-3.28-.09-3.28-4.95,0-5,9.57-.36,11.19,9.73,11.48,17.22.57,9.76-.27,19.44-2.73,28.88-1.34,4.92-2.45,10.02-4.83,14.55-.73,1.29-2.47,1.71-3.72.98Z"/>
  <path d="m1004.78,47.06c-5.72-3.84-12.66-6.05-19.59-5.98-4.55-.63-11.97,5.19-15.06,2.39-.98-1.24-.56-2.98.72-3.8,11.62-6.12,26.03-4.78,36.98,2.15,3.42,1.92.31,7.23-3.06,5.23Z"/>
  <path d="m1015.13,73.7c-6.96-5.01-15.93-7.26-24.43-6.73-4.22-.66-15.64,4.19-17.05-.8-2.08-5.35,27.02-5.12,30.27-3.58,4.18,1.01,18.55,4.6,15.41,10.57-.98,1.26-2.95,1.58-4.2.54Z"/>
  <path d="m985.87,98.5c-4.24-.59-17.59-3.13-15.48-9.11,2.84-3.87,6.84,1.52,10.15,2.09,8.58,2.7,17.54,1.28,26.02-1.02,1.64-.37,3.33.48,3.79,2.15,1.66,6.51-20.24,6.68-24.48,5.88Z"/>
  <path d="m975.81,116.66c-3.91-.87-15.97.98-15.98-4.4.2-1.45,1.61-2.57,3.08-2.34,8.37,1.42,16.92,1.59,25.36.64,1.52-.14,2.96.84,3.17,2.41.23,5.52-11.85,3.17-15.62,3.69Z"/>
  <path d="m905.9,65.5c-.5-1.19.09-2.5,1.23-3.02,7.37-3.5,14.95-6.52,22.44-9.75,9.93-5.16,13.51-4.78,24.19-2.95,2.33.27,6.41-.25,6.57,3.02-.25,3.02-2.87,2.67-5.14,2.43-3.55,0-6.95-1.08-10.46-1.43-4.86-.65-9.2,1.72-13.51,3.59-2.37,1.01-4.77,1.93-7.17,2.86-5.12,1.98-10.14,4.18-15.12,6.48-1.13.53-2.55-.09-3.02-1.23Z"/>
  <path d="m899.66,90.97c-2.76-4.98,16.14-9.46,19.52-10.89,8.82-3.17,17.4-7.55,26.84-8.52,3.66-.08,17.18-1.49,15.32,4.84-.57,1.36-2.31,2.17-3.7,1.5-.74-.38-1.55-.6-2.36-.78-4.69-.61-9.48-.45-14.11.53-6.49,1.4-12.57,4.11-18.82,6.28-5.32,1.96-10.91,3.17-16.04,5.61-2.05.95-4.74,4.25-6.66,1.44Z"/>
  <path d="m911.77,114.59c-1.95-2.3,1.61-4.25,2.8-5.95,2.42-2.65,5.28-4.85,8.16-6.97,5.58-4.06,11.34-8.12,17.86-10.51,2.15-.8,4.4-1.39,6.61-2.02,3.07-.78,4.34,3.76,1.29,4.67-3.86,1.03-7.76,2.04-11.32,3.89-7.02,3.75-13.95,8.04-19.58,13.68-1.63,1.38-3.35,5.27-5.81,3.21Z"/>
  <path d="m175.8,112.39c-4.68-3.02,2.86-11.89,5.73-14.26,4.1-4.64,9.27-5.7,14.71-5.76.21.09.42.17.63.23.45.14.91.24,1.38.33.67.12,1.36.15,2.03.17,1.39.04,2.79.05,4.17-.02.99-.05,1.99-.12,2.98-.27.67.01,1.34.01,2,0,9.22.79,18.7-4,23.15-12.18,2.31-4.43,3.01-11.08-2.73-13.03-3.05-1.27-6.1,2.38-10.41,6.02-5.72,4.84-13.65,9.69-26.71,3.02-4.98-3.69,2.82-15.64-3.99-26.34-7.73-14.34-17.28-12-30.71-9.71-1.88-.75-3.73-1.91-5.38-3.33-.4-.8-.78-1.61-1.16-2.42h0c-1.18-2.65-2.2-5.36-3.1-8.13-.04-.12-.07-.24-.11-.37-.15-1.33-.26-2.66-.34-3.98-.02-.75,0-1.5.04-2.25.02-.28.05-.55.08-.83,0-.03,0-.06.01-.09.05-.31.11-.62.16-.92.31-.43.66-.84,1.05-1.25,5.59-3.39-1.44-9.6-5.46-10.53-3.66,6.17-4.86,13.65-3.91,20.88-.92.18-1.79.74-2.24,1.56-.5.91-.62,1.88-.35,2.88.15.54.38,1.06.63,1.56.43.85.96,1.64,1.49,2.44,1.03,1.56,2.03,3.14,3.02,4.73-.03-.05-.06-.09-.09-.14.04.07.08.13.12.2-.01-.02-.02-.04-.04-.05.01.02.03.05.05.08,0,0,0,0,0,0,0,0,0,0,0,0,0,0,0,0,0-.01.01.02.03.04.04.06,0-.01-.02-.03-.02-.04.93,1.53,1.83,3.07,2.78,4.59.91,1.45,1.82,2.89,2.73,4.35,0,0,0,0,0,0,0,0,0,0,0,0,0,0,0,0,0,0,.04.06.07.12.11.17,0,0,0,0,0,0,0,.01.01.02.02.03,0,.01.01.02.02.03,0,0,0,0,0,0,.27.43.53.86.8,1.29l-.02-.03s-.04-.06-.06-.09c-.04-.07-.08-.14-.13-.2.04.07.08.14.13.2.02.03.04.06.06.09,0,.02.02.03.03.05,0,0,0,0,0-.01.26.42.53.84.79,1.26,0,.04-.01.09-.02.12-.09.5-.17,1-.27,1.48-.07.36-.14.72-.2,1.07-1.12-.8-2.19-1.79-3.13-2.39-13.59-12.07-19.21-38.97-4.95-52.25,10.35-3.11,23.52,13.73,12.86,21.2-4.12,4.9,1.82,9.52,5.27,12.51,23.98-9.99,44.24,14.72,38.16,37.66,13.98,5.54,17.87-5.73,27.66-10.77,23.49-1.67,17.53,26.96,1.62,34.42-6.38,4.64-13.96,4.2-21.26,3.77-8.39-.5-16.41-.99-21.79,6.2-1.93,2.25-2.98,7.47-6.17,7.47-.52,0-1.11-.14-1.76-.46Z"/>
  <path d="m148.15,49.73s0,0,0,0c0,0,0,0,0-.01.01.02.02.03.03.05,0-.01-.01-.02-.02-.03Z"/>
  <path d="m151.31,34.45c.04.08.08.17.12.26-.04-.09-.08-.17-.12-.26Z"/>
  <path d="m138.1,85.5c-10.25-19.61,10.2-27.88,1.05-42.23-1.53-1.31-3.72-3.08-2.07-5.22,1.19-.9,2.33-1.05,3.38-.71.68,1.05,1.35,2.12,2.01,3.18l-.08-.14c.04.07.08.13.12.2,0,0,0-.02-.01-.02,0-.01-.01-.02-.02-.03,0,.01.01.02.02.03.01.02.02.04.03.05,0,0,0,0,0,0,.02.03.03.06.05.08l-.05-.08c.93,1.53,1.84,3.07,2.79,4.59.5.8,1,1.59,1.5,2.39.02.11.04.22.06.33,3,8.74-3.92,14.79-4.86,22.78-.35,4.11-.36,8.28,1.78,11.95,1.12,2.36-1.07,4.41-3.15,4.41-.99,0-1.95-.46-2.53-1.56Z"/>
  <path d="m138.63,77.18c-4.58-2.08,0-8.17.61-11.55,1.27-3.91,2.42-7.97,5.14-11.15-14.94-12.11-15.31-38.89-2.34-52.44,4.91-2.06,6.64,4.1,2.61,6.62-6.6,11.51-7.24,26.07.16,37.35,2.85,3.28,8.49,6.23,5.26,11.32-5.03,3.84-6.52,21.43-11.44,19.85Z"/>
  <path d="m167.39,96.51c-6.63-3.9-14.37-7.83-19.03-14.09-5.02-7.91.32-23.94,11.36-18.75,9.71,2.91,22.9,15.19,20.96,26.12-2.14,4.77-8.12,8.26-13.29,6.72Zm2.87-5.72c7.81-1.57,3.49-7.61.06-11.45-3.07-4.98-8.32-7.33-13.05-10.24-5.3-1.75-5.34,6.73-3.83,9.94,1.71,3.38,5.54,4.67,8.44,6.78,2.78,1.56,5.08,4.66,8.37,4.97Z"/>
  <path d="m168.38,57.5c-3.5-1.97-5.27-6.19-7.08-9.68,0,0,0,0,0,0-.53-1.29-.19-2.82.97-3.72.76-.59,1.68-.76,2.53-.58,4.51-.99,4.02,5.46,5.93,8.04,2.06,2.32,1.42,6.71-2.35,5.94Z"/>
  <path d="m176.32,66.05c-1.62-.09-3.01-1.16-3.24-2.82-.1-.7.06-1.42.4-2.04-.86-5.35,6.88-4.11,9.53-2.11,5.62-1.69,9.42,5.06,3,6.49-3.23.12-6.43.84-9.7.48Z"/>
  <path d="m169.69,93.48c-1.59-.06-3.07-.85-4.02-2.14-.47-.64-.74-1.35-.9-2.1-1.51-.22-2.68-1.3-3.47-2.54,0,0-.01,0-.02,0-7.34,2.68-10.37-13.03-8.59-17.97.95-3.67,6.68-2.2,5.76,1.48.47.06.93.21,1.32.45.23.15.46.3.67.46,3.74-1.34,6.16,2.36,7.32,5.37,3.43-2.89,8.17,1.09,6.91,5.08.82,1.21.77,2.83.26,4.16-.02.05-.04.1-.06.14,1.67,3.18-1.69,7.74-5.18,7.6Z"/>
  <path d="m138.09,136.31c-5.27-1.47-10.21-4.15-14.23-7.88-3.8-4.4-6.64-10.32-6.27-16.23.39-3.6,1.8-14.65,7.18-12.85,2.56,1.09,2.06,4.57,1.94,6.81-.06,1.45-1.3,2.64-2.79,2.41-1.53,5.46.54,11.03,3.96,15.33,3.29,3.27,7.66,5.18,12.11,6.31,6.09,1.47,12.41-.87,17.5-4.17,3.74-2.06,6.95,3.37,3.3,5.64-1.96,1.29-4.03,2.39-6.23,3.23-5.19,2.17-10.99,2.92-16.46,1.41Z"/>
  <path d="m140.49,148.71c-6.42-1.65-12.64-9.21-8.38-15.64,1.6-2.72,5.06-5.8,8.42-4.69,15.58-5.14,15.7,24.02-.04,20.33Zm2.71-5.71c2.63-.63,3.53-4.68,2.72-6.95.03.07.07.13.1.2,0,.03.02.05.08.16-.1-.25-.37-.66-.47-.84-.74-.82-1.8-1.37-2.89-1.51-.9.71-2.19.82-3.25.24-.13-.07-.26-.14-.39-.21-1.13.41-1.75,1.89-2.3,2.69-.18.59-.14,1.2.06,1.77-.03-.08-.05-.15-.08-.23,0-.02,0-.03-.05-.14.98,2.63,3.7,4.59,6.47,4.83Z"/>
  <path d="m116.78,130.98c-27.59-6.01-5.08-37.48,5.24-17.01,5.73,4.42,2.41,17.22-5.24,17.01Zm.4-6.32c4.9-7.84-4.29-5.37-4.58-10.9-2.05,1.33-3.85,4.54-2.24,6.75-.08-.11-.15-.22-.23-.34,1.84,2.02,4.43,3.71,7.05,4.48Z"/>
  <path d="m74.93,387.1c.69-16.7,19.71-30.3,35.74-28.76,13.78,1.09,18.29,15.15,25.38,24.58,3.44,5.61-4.4,7.07-6.5,1.79-10.39-25.25-28.22-27.48-45.82-7.13-1.76,2.84-3.53,6.09-3.41,9.52.06,3.49-5.42,3.5-5.4,0Z"/>
  <path d="m132.16,387.04c-1.17-1.84.14-4.59,2.45-4.32,11.59-11.79,12.84-33.35,4.8-47.35-2.02-.78-4.35-2.12-3.58-4.72.49-1.77,2.39-2.86,4.17-2.36,10.56,3.83,9.98,18.41,11.15,27.78,1.01,7.73-8.53,38.29-19,30.98Z"/>
  <path d="m141.59,333.5c-.23-.22-.46-.43-.72-.61-1.2-.94.21-2.76,1.43-1.85.81.53,1.84,1.53.95,2.46-.46.46-1.19.44-1.65,0Z"/>
  <path d="m87.34,346.72c-11.88-3.15-23.97-10.76-26.92-23.43-1.25-9.59-3.18-21.99,4.48-29.36,2.36-2.41,6.07,1.29,3.69,3.69-1.45,1.55-2.89,3.04-3.13,5.23-11.12,55.15,71.64,45.63,70.05.83.05-17.37-21.91-28.55-5.75-44.96-.11-.1-.2-.21-.3-.33-.67-.86-.83-1.95-.57-2.92-7.02-.44-12.88,3.98-19.29,6.05-6.73,2.76-14.09,3.78-21.33,3.91-23.32.08-15.63-18.68.42-24.23,13.61-4.96,40.55-6.67,46.47,9.94,10.44,14.2-15.48,11.75,1.24,33.47,20.12,34.38-14.37,67.54-49.08,62.11Zm4.98-88.2c12.07-.05,21.86-8.04,33.45-9.71-12.55-6.99-38.79-6.39-45.6,8.26,3.79,1.57,8.09,1.75,12.14,1.44Z"/>
  <path d="m62.19,302c-1.51-.88-2.05-2.9-1.16-4.42,20.47-29.48-4.54-13.29,1.18-37.11,2.21-6.92,8.23-11.79,14.57-14.87,8.53-4.89,9.85,9.71,2.75,4.99-6.79,3.49-15.48,12.4-10.19,20.22,2.73,1.15,5.61,2.94,6.27,6.08,1.75,5.35-6.86,27.92-13.43,25.11Z"/>
  <path d="m136.73,308.32c-1.11-2.64,1.39-4.21,3.56-4.92,5.11-2.52,8.82-8.77,7.64-14.48-2.67-4.2-8.01-5.9-12.55-7.28,1.46,9.21-11.43.22-6.57-4.61,7.35-4.49,21.52,2.66,24.87,10.06,1.77,6.29-.99,13.22-5.31,17.86-2.71,2.43-8.79,8.12-11.64,3.38Z"/>
  <path d="m152.59,402.5c-1.39-1.04-1.66-3.11-.65-4.5,1.6-2.29,2.63-4.87,3.68-7.44,3.09-6.59,4.51-13.74,5.14-20.95.6-5.62,1.48-11.25,1.03-16.92-.62-5.79-1.67-11.57-3.67-17.06-1.24-3.3-2.17-7-5.09-9.24-3.86-3.24-8.6-6.64-13.91-5.61.58,2.5,4.26,6.39.85,8.16-3.42,1.14-3.89-3.64-5.11-5.77-3.77-7.39,4.34-8.31,9.75-7.78,5.83,1.45,11.3,5.06,15.25,9.57,5.05,8.48,7.17,18.57,8.06,28.31.35,5.35-.16,10.69-.7,16.01-.57,5.23-1.02,10.53-2.56,15.59-1.31,4.33-3.13,8.49-4.93,12.63-1.38,2.71-3.48,7.54-7.17,5Z"/>
  <path d="m140.49,339.9c-19.93-24.76,2.89-26.12-1.99-16.6-.63,5.5,10.66,13.64,5.88,17.62-1.31.77-3.12.33-3.89-1.02Z"/>
  <path d="m62.51,415.27c-17.12-14.15-19.41-67.85-7.46-85.8,7.11-10.44,14,7.64,4.63,3.32-9.96,21.14-6.03,47.12.06,68.86,1.18,4.52,10.52,9.21,7.15,13.62-1.19,1.19-3.18,1.19-4.37,0Z"/>
  <path d="m73.43,388.1c-4.9-2.71-6.42-8.76-7.93-13.76-3.18-8.72-2.09-17.88,1.71-26.21,4.46-8.37,2.44-8.78-3.8-14.98-1.53-1.65-4.6-1.17-4.85-4.03,2.1-11.41,16.83,5.33,18.03,10.29,1.01,4.35-2.32,7.88-3.41,11.86-4.74,9.56-2.99,20.69,1.96,29.81,5.9-.18,3.57,9.56-1.72,7.03Z"/>
  <path d="m111.91,476.16c-25.33.05-27.23-24.08-30.32-43.41-1.41-7.51-9.83-9.09-14.8-13.6-5.18.19-6.93-11.42.28-7.36,11,9.29,20.72,9.25,22.02,26.42,1.71,9.29,1.58,20.57,9.49,27.06,11.58,9.38,27.19,3.91,32.81-9.38,6.47-12.91,5.21-27.36,4.24-41.11,2.59-6.36,8.76-10.22,13.66-14.66,2.64-3.1,8.78-6.86,9.2-.11-3.73,6.68-12.47,9.66-16.26,16.6,4.02,21.48-2.13,60.46-30.31,59.55Z"/>
  <path d="m102.49,433.95c-11.7-1.53-19.58-17.46-13.03-27.39-.46-2.55,2.37-4.14,4.56-3.22.9-.32,1.82-.48,2.78-.6,1.19-.14,2.34.34,3.08,1.2,7.63-.03,13.07-7.29,20.77-6.9,8.43.93,11.98,11.56,11.84,18.93-1.04,13.74-17.84,20.61-29.99,17.97Zm7.65-6.32c7.07-.49,16.56-5.5,15.82-13.66-.62-3.62-1.93-9.77-6.14-10.43-8.01,2.04-14.87,8.37-23.79,6.44-3.51,2.08-1.9,7.52-.58,10.63,2.34,5.92,8.85,7.63,14.69,7.02Z"/>
  <path d="m104.47,431c-2.1-.29-4.01-1.51-5.4-3.08-8.78-2.18-12.28-16.53-1.96-19.12,2.1-3.45,7.13-3.15,8.87.47,1.83-4.22,6.82-7.61,11.43-5.81.42-.26.86-.47,1.33-.62.67-.21,1.37-.28,2.05-.21,5.42-2.59,9.04,5.82,9.45,10.11-.62,6.85-7.35,16.29-15.05,14.24-3.48,1.64-6.5,4.78-10.71,4.01Z"/>
  <path d="m102.52,390.28c-4.06-2.28-18.24-6.06-13.95-12.36,2.79-2.67,5.36,1.1,7.9,2.2,3.07,1.26,6.3,2.4,8.77,4.69,2.16,2.08.25,5.95-2.73,5.47Z"/>
  <path d="m109.35,387.43c-6.39-3.32,2.2-10.96,5.59-13.52,1.33-2.26,4.67-3.43,6.28-.84,1.59.42,2.5,2.26,2.08,3.8-.46,1.66-2.11,2.51-3.74,2.19-2.9,2.98-5.43,8.88-10.21,8.37Z"/>
  <path d="m88.15,492.29c-9.35-3.1-11.59-19.13-5.44-26.16,2.34-2.5,6.33-3.96,9.02-1.15,19.64,1.6,17.32,31.06-3.58,27.32Zm3.61-6.26c8.76-.26,8.68-10.59,2.01-14.16-2.02-.31-4.62.4-5.87-1.71-3.89,2.92-1.98,16.98,3.86,15.86Z"/>
  <path d="m133.34,484.65c-13.6-1.76-11.28-22.75,1.23-24.53,1.84-4.55,6.63-.99,9.28.8,15.72,8.38,5.18,27.71-10.51,23.73Zm5.83-5.89c8.98-2.72,6.59-10.21-.74-13.36-10.9,1.65-11.18,15.33,1.15,13.27-.15.03-.27.06-.41.09Z"/>
  <path d="m7.61,369.38c-.3-1.09.36-2.12,1.4-2.46,6.35-2.09,12.78-4.11,19.45-4.87,2.61-.3,3.15,3.55.55,3.98-3.77.47-7.45,1.2-11.07,2.33-2.63.77-5.25,1.58-7.86,2.43-1.02.34-2.19-.38-2.46-1.4Z"/>
  <path d="m12.61,445.58c-1.62-.61-1.66-3.19,0-3.78.91-.32,1.39-.48,2.2-.76,3.91-1.36,7.83-2.68,11.75-4.01,6.05-2.44,12.49-2.72,18.93-2.46,1.11,0,2.04.92,2.04,2.04s-.93,2.04-2.04,2.04c-2.84-.02-5.69-.1-8.53.03-6.72.76-13.4,3.87-19.71,5.84-1.52.35-3.06,1.57-4.63,1.07Z"/>
  <path d="m1.31,483.75c-1.72-.65-1.76-3.38,0-4.02,9.37-3.25,18.69-6.83,28.4-8.94,2.78-.68,3.92,3.4,1.16,4.21-3.13.68-6.22,1.5-9.28,2.44-4.18,1.35-8.28,2.7-12.38,4.15-2.07.72-4.13,1.44-6.19,2.17-.56.2-1.14.24-1.7,0Z"/>
  <path d="m15.32,286.11c-.47-1.11.08-2.33,1.14-2.82,5.22-2.39,10.6-4.4,16-6.36,3.39-1.18,6.91-1.93,10.39-2.82,1.13-.29,2.32.35,2.64,1.5.3,1.11-.37,2.35-1.5,2.64-8.94,1.98-17.5,5.28-25.85,9.02-1.05.49-2.38-.08-2.82-1.14Z"/>
  <path d="m768.19,497.26c0-.4.34-.74.74-.74s.74.34.74.74-.34.74-.74.74-.74-.34-.74-.74Z"/>
  <path d="m788.59,561.65c-31.07-5.04-29.54-47.35-22.23-70.51.98-2,3.91-2.39,5.27-.55,1.21,1.25.06,7.71-1.24,8.78-3.09,19.16-5.54,53.21,20.33,56.07,10.19,1.4,16.56-8.51,20.89-16.27,5.23-9.07,4.56-19.63,4.2-29.7.24-6.69-1.37-13.39-.36-19.96,1.31-3.41,6.82-2.13,6.47,1.43-.27,14.54,2.91,29.59-1.32,43.78-4.99,13.32-15.67,29.83-32.02,26.93Z"/>
  <path d="m815.61,500.45c-1.15-1.47-.87-3.46-.71-5.2.14-3.51,1.69-6.68,2.91-9.91,1.63-3.24,5.03-12.4,9.76-8.61,1.2,1.2,1.26,3.31,0,4.5-.66.59-1.15,1.34-1.65,2.07-2.15,3.62-3.83,7.26-5.2,11.18,2.18,1.18,1.02,3.48-.05,5.02-.89,1.94-3.57,2.79-5.06.96Z"/>
  <path d="m808.23,484.1c-5.5-5.81,28.98-19.24,33.36-25.99,12.31-10.33,17.8-33.73-5.68-20.75-11.38,7.17-19.86,17.61-29.17,27.1-1.56,1.77-3.14,3.55-4.13,5.72-1.88,3.35-7.13.33-5.16-3.02,4.36-7.78,11.48-13.61,17.38-20.19,33.48-38.64,65.38-12.86,25.48,20.34-7.92,5.48-16.38,10.09-24.62,15.06-2.15,1.56-5.07,4.67-7.47,1.74Z"/>
  <path d="m767.65,497.7c-4.86-16.47,24.61-66.44,44.52-47.25,3.41,2.61-.67,7.92-4.06,5.26-14.41-13.44-34.53,26.69-35.82,38.22,2.14,2.73-2.34,6.25-4.63,3.77Z"/>
  <path d="m780.38,466.39c-5.27-4.28,7.85-15.25,11.87-17.17,5.82-3.38,12.48-3.96,17.75.73,1.37.86,1.9,2.62,1.06,4.05-2.75,3.97-6.26-1.39-9.41-1.75-12.86,1.16-16.06,16.86-21.27,14.15Z"/>
  <path d="m810.07,513.6c-11.98-2-23.93-14.71-8.55-22.21,4.93-1.65,10.52-1.74,15.62-1.31,2.58.97,4.7,5.35,1.78,7.09,5.73,10.78,6.3,19.4-8.85,16.43Zm5.14-5.91c.3-.02.6-.05.9-.09-.16-.47-.33-.94-.49-1.42-.17.15-.36.29-.56.41-.45.38-.92.74-1.4,1.09.51.06,1.03.03,1.55,0Z"/>
  <path d="m798.92,451.93c-7.48-3.11,6.05-13.47,8.1-17.46,6.18-7.21,14.23-12.29,22.73-16.24,9.98-4.75,17.67,13.58,8.76,16.19-4.76-.15-2.36-7.65-7.03-8.38-7.19.94-10.91,9.16-17.03,12.7-3.45,1.95-6.34,8.74-9.54,8.7-1.68,1.8-2.95,5.34-5.98,4.5Z"/>
  <path d="m776.8,580.38c-15.33-3.62-8.83-32.82,2.39-23.57,6.06,1.63,14.78.12,18.23,6.56,3.93,11.27-10.33,21.71-20.62,17.01Zm6.79-5.46c4.01-.25,7.79-4.21,8.04-8.14-2.33-3.29-8.16-1.81-11.77-3.06-1.26.66-2.77.38-3.79-.59-.33-.13-.64-.32-.91-.55-3.32,6.36,1.31,13.07,8.43,12.33Z"/>
  <path d="m805.55,573.28c-4.33-2-13.6-12.42-6.97-15.86,1.75-.48,3.56.58,4.06,2.31,7.37,20.56,34.9,1.47,10.86-8.55-6.09,5.28-7.67-7.22-.29-5.99,26.6,5.77,18.03,38.11-7.66,28.09Z"/>
  <path d="m969.47,400.42c-12.48-2.94-26.73-8.67-33.51-20.18-1.79-2.88-6.39-8.16-1.22-10.13,2.33-15.61,14.78-30.1,28.78-37,21.68-8.67,40.19-4.47,58.56-24.16,13.06-19.86,22.67-25.35,38.95-4.05,8.08,10.62,30.08,34.15,17.41,46.89-8,5.28-18.73-2.35-28.83,3.53-17.5,11.46-29.99,29.27-47.82,40.17-9.89,4.73-21.57,4.54-32.33,4.93Zm4.6-6.52c8.08-1.32,16.76-.37,24.26-4.05,18.74-11.23,31.24-31.25,50.58-41.42,4.33-1.31,8.88-2.31,13.42-2.42,3.96-.13,8.34,2.57,12.06.59,6.4-11.86-16.86-35.81-24.49-44.99-14.79-14.13-18.15,14.65-36.36,21.91-12.8,9.62-28.95,8.94-43.55,13.72-14.24,4.89-25.1,18.07-29.82,32.06,1.81,1.1,1.9,3.95-.13,4.86,6.42,11.83,20.92,19.12,34.03,19.75Z"/>
  <path d="m1054.05,300.37c0-1.61,1.29-2.73,2.83-2.82,14.39-5.1,17.05-25.29,18.1-38.76-.22-1.8,1.03-3.5,2.84-3.74,8.83-.67.02,25.95-1.91,30.52-1.77,5.9-17,25.2-21.85,14.81Z"/>
  <path d="m1070.55,260.75c-15.74-6.3-14.28-36.11,6.24-28.65,1.07-5.05,7.96-2.41,10.63-.13,2.49,2.17,3.77,5.41,4.32,8.6,3.19,11.49-10.48,22.49-21.19,20.17Zm3.38-5.45c7.51-1.5,14.85-8.37,10.74-16.35-.82-2-2.7-3.21-4.85-3.22-1.41,4.66-6.98.83-10.21,1.08-7.92,3.45-2.82,17.42,4.32,18.49Z"/>
  <path d="m1071.17,233.89c-12.8-10.63-2.5-30.94,11.07-35.21,11.68-2.38,20.19,11.39,20.64,21.65,1.64,9.78-19.04,19.63-21.57,11.65-.24-1.73,1.03-3.53,2.82-3.71,18.14.4,13.36-19.92.68-23.41-6.82,1.64-12.5,9.59-13.12,16.36-.57,4.54,4.13,6.58,5.02,10.4.12,2.75-3.68,4.38-5.53,2.29Z"/>
  <path d="m1099.29,255.11c-2.59-.44-5.19-.93-7.76-1.46-4.07-1.05-2.33-7.41,1.73-6.28,5.88,1.15,11.59,2.84,17.48,1.29,13.48-6.58-4.95-22.76-14.67-16.67-1.58,9.94-15.16-4.15.82-6.51,28.04-5.9,36.03,36.09,2.4,29.63Z"/>
  <path d="m1091.29,281.55c-7.82-5-17-17.2-10.53-26.23.79-1.21,2.34-1.7,3.62-.95,3.78,2.74-2.59,6.36-.22,9.89,1.22,5.26,14.21,20.86,17.75,11.29,3.44-8.75-3.59-18.65-12.25-20.67-1.63-.64-2.38-2.63-1.71-4.22,3.17-4.79,10.57.99,13.71,3.6,11.88,9.34,8.49,39.28-10.37,27.3Z"/>
  <path d="m1060.88,278.64c-7.98-1.68-12.34-7.39-10.54-15.54,1.05-5.13,4.82-9.23,9.1-12.02,2.55-1.48,6.54-5.11,8.89-1.53.85,1.46.39,3.56-1.14,4.37-3.26,1.79-6.72,3.68-8.92,6.77-1.8,2.47-2.62,5.92-1.44,8.82.87,1.48,2.59,2.23,4.11,2.87,8.32,3.61,11.25-7.18,11.63-13.41-1.29-.49-1.83-2.11-1.14-3.28,1.22-2.04,3.85-.85,4.98.66,1.49,2.12.83,4.9.55,7.28-.75,8.41-6.45,17.64-16.06,15.01Z"/>
  <path d="m1056.38,256.08c-33.85-11.53-15.41-37.77,13.3-28.9,2.33.79,5.89,1.75,5.02,4.96-.44,1.6-2.25,2.75-3.89,2.21-3.91-1.65-7.91-2.23-12.13-1.83-9.49-1.82-20.37,5.79-9.12,13.25,4.03,2.26,8.98,6.51,13,2.17,3.18-2.54,7.12,2.57,3.84,4.98-2.91,2.14-6.27,4.4-10.02,3.17Z"/>
  <path d="m1013.45,238.41c-.7-.91-.5-2.19.37-2.89,1.91-1.55,3.86-3.05,5.82-4.54,2.75-2.1,5.49-4.18,8.34-6.16,11.62-7.77,25.08-17.94,39.8-13.4,2.54.74,1.53,4.53-1.08,3.91-8.38-2.75-16.94.67-24.07,4.96-6.38,3.69-12.45,7.89-18.31,12.35-2.68,2.02-5.36,4.04-7.98,6.14-.87.7-2.22.51-2.89-.37Z"/>
  <path d="m986.78,297.37c-.43-.55-.32-1.37.23-1.8,4.42-3.48,8.85-6.96,13.21-10.52,5.94-4.93,11.9-9.85,18.47-13.95,3.27-2.21,6.8-3.98,10.39-5.61.62-.3,1.4.06,1.66.68.28.66-.05,1.37-.68,1.66-10.24,4.48-18.98,11.48-27.5,18.59-4.19,3.45-8.45,6.82-12.72,10.17-.86.68-2.08,1.98-3.08.77Z"/>
  <path d="m878.72,396.84c-.55-.55-.53-1.43,0-1.98,2.08-2.17,4.15-4.35,6.21-6.54,3.01-3.25,6.1-6.36,8.79-9.82,6.67-10.16,11.96-15.19,22.71-20.97,7.57-4.26,14.71-9.35,23-12.16,1.45-.59,2.44,1.61.95,2.26-7.89,2.68-14.7,7.48-21.86,11.63-4.42,2.57-8.92,5.23-12.76,8.61-3.96,3.53-6.66,7.85-9.68,12.11-4.25,5.42-9.05,10.17-13.75,15.16-.99.9-2.15,2.99-3.61,1.7Z"/>
  <path d="m864.83,434.27c-.73-.72-.8-2.07,0-2.78,1.68-1.5,3.42-2.92,5.2-4.29,4.16-3.31,8.55-6.3,13.06-9.09,9.37-5.58,17.74-12.83,27.81-17.18,8.18-3.86,16.87-7.16,26.06-6.75,2.59.06,2.65,3.91,0,4-6.58-.28-12.89,1.42-18.9,3.99-5.81,2.32-11.42,5.09-16.63,8.53-7.51,5.49-15.61,10.27-23.29,15.44-3.66,2.65-7.3,5.34-10.71,8.3-.73.64-1.93.49-2.59-.17Z"/>
  <path d="m933.22,434.52c-.37-.86.05-1.91.92-2.27,6.97-2.9,14.06-5.52,21.05-8.34,5.69-2.32,11.17-5.13,16.44-8.3,5.62-3.33,10.86-7.33,16.77-10.15,1.35-.57,3.42-1.99,4.33-.07.35.83-.05,1.81-.88,2.16-7.9,3.36-14.53,8.95-22.05,13.03-6.3,3.59-12.96,6.5-19.74,9.04-4.88,1.89-9.74,3.82-14.57,5.83-.86.36-1.91-.04-2.27-.93Z"/>
  <path d="m764.81,453.29c-.8-.62-.91-1.75-.33-2.55,1.23-1.67,2.48-3.31,3.74-4.95,3.6-4.76,8.09-8.92,13.56-11.43,6.17-3.18,12.77-5.32,19.66-6.21,2.25-.27,2.73,3.06.47,3.44-6.27.81-12.26,2.72-17.89,5.58-3.18,1.54-6.23,3.44-8.7,5.98-3.03,2.93-5.43,6.45-7.96,9.8-.58.8-1.78.92-2.54.33Z"/>
  <path d="m725.18,499.07c-.64-.5-.77-1.46-.27-2.1,1.14-1.47,2.3-2.92,3.46-4.37,3.06-3.84,6.43-7.45,10.34-10.45,4.02-3.12,8.62-5.34,13.05-7.78,1.69-.95,3.19,1.58,1.51,2.58-7.13,3.67-14.2,7.68-19.48,13.87-2.25,2.59-4.4,5.28-6.51,7.99-.51.65-1.46.77-2.11.27Z"/>
  <path d="m290.06,558.5c-4.58-4.44-10.2-5.96-16.59-5.73-6.35.32-15.72-5.76-10.21-12.46,8.74-7.65,18.83-13.83,28.72-19.93,11.81-9.99,13.29-3.82,20.49,6.24,5.19,10.44,12.52,7.83,17.43,14.61,1.44,11.39-27.07,13.73-35.25,13.62.53,2.46-2.31,4.79-4.6,3.65Zm8.83-9.55c8.16-.43,16.72-2.12,23.95-6.02-10.62-2.67-15.54-12.68-21.67-20.77-10.87,7.43-22.45,13.95-32.64,22.29,5.92,3.33,13.75.73,19.82,4.29,3.2-1.29,6.99,1.16,10.54.21Z"/>
  <path d="m353.2,573.34c-20.86,1.24-31.59-19.67-17.19-34.92,6.8-6.66,20.21-4.53,24.9-13.13-3.13-9.15-1.39-12,8.45-10.41,5.33,1.5,1.98,7.8-2.78,6.06,5.93,20.45,22.08,53-13.38,52.39Zm4.07-6.37c20.57-1.07,9.18-22.33,6.39-34.16-6.65,6.08-16.79,5.46-23.74,10.99-10.61,14.64,1.99,24.99,17.35,23.17Z"/>
  <path d="m412.84,576.49c-6.95-.47-14.17-2.87-19.07-8-1.57-1.5-2.69-3.35-4.1-4.98-1.25-1.36-2.35-2.92-2.87-4.72-.81-3.82-.54-7.82-.68-11.71.06-1.92.35-3.82.53-5.73.05-.57.28-1.09.63-1.51-2.17-1.35-.49-4.76,1.93-3.76,2.77,1.41,5.52,2.93,8.73,2.37,5.05-.68,9.74-1.84,14.27-4,4.66-2.51,9.51-4.69,13.98-7.51,3.73-2.59,7.09-5.83,10.08-9.19,3.96-4.35,9.06-12.34,15.85-8.77,3.32,2.03,6.49,4.37,9.27,7.1,2.16,2.39,3.65,4.51,5.92,6.58,5.28,5.85,12.18,9.08,6.98,17.93-5.55,9.34-14.36,16.1-23.29,22.02-4.6,3.22-9.15,6.62-14.34,8.84-7.51,3.14-15.72,4.61-23.82,5.06Zm1.57-5.91c9.89-1.01,20.18-2.48,28.42-8.49,9.41-6.58,19.61-12.73,26.1-22.45,1.03-1.71,2.59-3.77,1.98-5.85-1.84-2.82-4.76-4.73-6.92-7.31-2.1-1.95-3.93-4.14-5.74-6.35-2.22-2.41-4.93-4.28-7.61-6.13-1.71-1.46-3.24-.71-4.69.68-3.04,2.69-5.38,6.01-8.22,8.89-2.84,2.94-5.92,5.68-9.34,7.93-7.86,4.24-15.69,9.35-24.65,10.78-3.55.76-7.34,1.22-10.87.12-.41,3.01-.75,6.03-.57,9.07.17,2.05-.3,4.27.53,6.21,2.41,3.37,4.95,6.82,8.35,9.28,4.02,2.14,8.61,3.76,13.22,3.62Z"/>
  <path d="m333.01,518.26c-3.87-5.2-4.73-12.25-3.75-18.54,1.6-7.12,6.42-13.61,12.67-17.35,5.2-2.55,13.45-1.64,18.59.75,6.86,4.47,10.89,11.58,13.62,19.06,1.52,3.86-4.1,6.25-5.83,2.46-1-2.6-2.13-5.15-3.33-7.66-2.36-3.06-4.4-6.46-7.83-8.48-3.4-1.18-7.22-1.52-10.79-1.06-3.18,1.03-5.68,3.76-7.57,6.43-3.84,5.07-4.87,11.72-3.01,17.77.99.09,1.72,1.27,1.27,2.19-.16.32-.31.65-.44.98.18.64.48,1.26.49,1.94.03,2.1-2.71,2.98-4.08,1.49Z"/>
  <path d="m345.26,512.63c-8.54-14.96,8.04-26.3,18.08-9.11,1.99,3.17-2.91,6.48-5.11,3.44-1.15-1.72-2.9-2.95-4.04-4.7-4.03-4.59-7.02,3.95-4.25,6.75,2.37,3-2.35,6.66-4.68,3.61Z"/>
  <path d="m338.87,528.91c-4.86.88-10.32-2.76-7.66-7.98.26-1.64.86-3.34,2.43-4.17,4.08-2.22,8.61,3.54,3.24,5.07-.04.24-.09.47-.14.71-.04.16-.08.31-.13.46,8.3,1.72,12.45-7.1,19.43-9.71,15.94-4.17,22.25,6.66,37-9.89-7.43-4.68-21.24,8.23-22.72-.42-.04-2.52,2.35-3.19,4.37-3.55,7.55-3.58,17.34-5.28,24.5.01,5.66,7.23-10.78,16.36-16.33,18.83-7.78,4.09-16.01-1.47-24.02.74-6.9,2.86-11.71,10.81-19.97,9.89Z"/>
  <path d="m349.73,513.39c-7.73-4.25,8.6-9.92,11.91-9.45,5.19,3.81-2.35,5.98-5.44,6.98-.37,3.01-4.22,2.6-6.46,2.47Z"/>
  <path d="m369.34,596.24c-3.13-.82-8.39-1.52-8.35-5.68.05-2.86,4.2-3.15,4.64-.33,2.36.96,5.04,2.01,7.61,1.41.61-1.11,1.14-2.28,1.45-3.51-1.88-.28-4.16-.63-5.91.27-3.26,1.84-6.09-2.99-2.89-4.93,4.24-2.36,15.1-1.55,13.86,5.3-1.6,6.09-3.81,8.76-10.43,7.47Z"/>
  <path d="m278.17,586.83c-4.67-5.62-.6-15.08,5.11-18.47,4.3-2.73,9.6-2.6,14.47-3.45,1.41-.19,2.75.82,2.93,2.23.31,3.43-3.81,3.04-6.12,3.46,4.31.77,6.85,4.8,5.46,9-2.38,8.15-15.12,12.14-21.85,7.23Zm7.69-3.34c3.58-.46,9.47-2.05,8.84-6.66-2.52-.74-6.56-2.17-4.7-5.53-5.94-.33-13.41,13.2-4.13,12.19Z"/>
  <path d="m235.5,547.23c-3.13-10.57,10.39-15.77,18.87-15.85,1.41-.19,2.75.82,2.94,2.23.14,4.21-5.55,2.9-8.28,3.77,9.02,6.74-8.87,18.75-13.54,9.85Zm5.85-2.08c1.88-.37,3.48-1.7,4.76-3.08-1.04-.67-2.03-1.61-1.95-2.9-1.36.94-6.07,5.44-2.81,5.98Z"/>
  <path d="m112.53,466.28c-3.4,0-3.4-5.3,0-5.25,1.78.03,3.74-.06,5.06-1.4,8.92-6.73,8.37-20.8,12.56-19.79,7.91,2.35-8.3,29.73-17.63,26.44Z"/>
  <path d="m82.54,400.55c-.92-.12-1.55-.98-1.44-1.89.25-2.02.46-4.08.94-6.06.71-2.46,2.13-4.65,3.21-6.95.66-1.28,2.76-.99,3.08.4.25,1.28-.86,2.38-1.29,3.51-.72,1.48-1.57,2.87-1.88,4.5-.32,1.67-.52,3.37-.72,5.06-.11.91-1.01,1.56-1.89,1.44Z"/>
  <path d="m776.96,509.84c-.98-.13-1.65-1.05-1.54-2.02.23-2,.52-3.99.88-5.97,1.19-5.88,2.23-11.5,4.2-17.11,2.12-6.31,5.53-12.06,8.87-17.78.5-.86,1.65-1.16,2.51-.66.87.51,1.16,1.64.66,2.52-4.74,7.74-8.89,15.92-10.77,24.86-1.09,4.84-2.13,9.7-2.79,14.62-.14.98-1.07,1.68-2.03,1.54Z"/>
  <path d="m791.73,550.74c-5.12-2.55-10.23-5.75-13.52-10.55-.91-1.79-4.17-4.61-1.74-6.35.88-.51,2.03-.2,2.54.66,1.15,1.97,2.37,3.91,3.88,5.63,2.87,3.06,6.58,5.3,10.29,7.2,2.21,1,.81,4.3-1.44,3.4Z"/>
  <path d="m812.65,566.86c-.56-.95-.23-2.25.73-2.8.9-.55,2.46-1.83,1.47-2.91-.55-.3-.98-.85-1.03-1.5-.1-1.11.61-2.14,1.75-2.3,2.18-.18,3.49,2.37,3.71,4.24.47,2.7-4.21,8.58-6.63,5.28Z"/>
  <path d="m835.11,459.67c-1.33-1.45.02-2.71,1.12-3.73,1.83-2.24,3.2-4.89,3.74-7.75.56-2.81,1.03-5.64,1.52-8.47.18-.99,1.06-1.72,2.09-1.58.97.13,1.76,1.09,1.59,2.09-1.04,5.09-1.23,10.56-4.01,15.1-1.2,1.68-3.58,6.4-6.04,4.34Z"/>
  <path d="m974.57,387.84c-5.19-.34-10.2-2.09-14.77-4.51-2.22-1.21-4.83-2.09-6.32-4.25-1.77-2.9-2.47-6.3-3.64-9.46-.69-2.72,3.29-3.84,4.14-1.14,1.05,2.77,1.62,5.82,3.18,8.35,2.68,1.96,5.95,3.09,8.99,4.42,2.57.83,5.21,1.5,7.91,1.78,3.32.21,6.59-.49,9.89-.68,4.31-.31,8.74-.83,12.67-2.73,2.46-1.28,4.82-2.74,7.21-4.15,2.79-1.55,5.22,2.51,2.48,4.23-3.52,2.15-7.05,4.45-10.99,5.72-6.65,1.82-13.87,2.16-20.74,2.43Z"/>
  <path d="m1039.74,340.5c.15-2.21.12-4.42-1.04-6.37-.98-2.22-2.3-4.2-4.22-5.7-.92-1.06-3.61-1.79-2.48-3.55,1.44-1.53,3.29,1.04,4.49,1.84,2.95,2.44,4.88,6.07,5.81,9.73-.05,1.41.81,5.34-1.26,5.36-.69,0-1.33-.59-1.3-1.3Z"/>
  <path d="m1061.88,344.01c-.44-.75-.19-1.78.58-2.2,3.37-1.94,4.7-6.45,4.9-10.11-.05-1.8-1.69-2.83-2.79-4.04-2.11-2.33-3.99-4.86-5.96-7.3-.94-1.23.91-2.7,1.89-1.46,2.32,2.81,4.25,5.68,6.86,8.08,2.5,1.83,3.19,5.09,2.42,7.92-.61,2.68-1.46,5.41-3.18,7.59-1.1,1.18-3.33,3.51-4.72,1.51Z"/>
  <path d="m1225.13,480.89c.1-11.94-3.36-23.54-4.23-35.4-.99-21.54-4.08-42.85-6.33-64.3-5.68-43.78-13.34-87.31-20.64-130.81.55-4.48-4.52-19.05.55-19.99,1.42-.19,2.89.85,3.04,2.31,1.81,24.65,8.04,48.53,11.67,72.91,6.22,39.41,12.1,78.8,16.16,118.51.7,11.42.77,22.21,3.05,33.29.27,5.46,6.68,25.57-.26,26.49-1.65,0-3.02-1.37-3.02-3.02Z"/>
  <path d="m1231.67,488.45c-2.6-1.3-5.98-2.01-7.48-4.72-1.25-3.1,2.38-4.91,4.86-5.53,4.47-1.31,9.24-1.12,13.84-1.4,8.71-.63,17.35-2.23,25.95-3.64,2.39-.29,3.87-1.34,6.17-1.42,2.86-.25,5.06,3.13,3.18,5.48-.79,1.01-2.14,1.47-3.36,1.22-.74.21-1.45.55-2.21.72-8.57,1.58-17.23,2.89-25.94,3.48-5.23.52-10.52,0-15.72.8,1.65.74,4.48,1.5,3.54,3.88-.45,1.08-1.77,1.62-2.83,1.15Z"/>
  <path d="m1276.14,475.79c-.74-4.74-6.74-39.1.41-37.45,5.19.46,2.85,7.16,3.47,10.66-.02,6.89.87,13.65,1.1,20.52,3.06,3.03-1.34,12.37-4.98,6.27Z"/>
  <path d="m1277.68,448.09c-18.69-12.18,25.3-11.72,31.51-13.59,5.31-.95,10.77-1.18,15.92-2.87,2.04-1.05,4.92-.71,5.6,1.81,1.79,9.59-41.84,7.43-49.15,10.97,1.8,2.39-1.55,5.61-3.87,3.68Z"/>
  <path d="m1335.4,472.31c-.2-6.48-15.55-45.65-2.96-42.76,2.31.97,2.27,3.56,1.27,5.49.41,4.26,1.69,8.21,2.57,12.35,1.64,7.91,3.88,15.7,5.66,23.57.69,3.97-5.6,5.29-6.54,1.34Z"/>
  <path d="m1338.13,470.09c-3.29-7.06,34.84-8.17,40.43-11.45,3.37-1.2,6.64-2.71,10.08-3.69,5.61-.81,5.37,6.67.06,6.98-11.03,5.15-23.13,5.76-34.87,8.21-4.22-.35-14,4.98-15.7-.05Z"/>
  <path d="m1390.49,457.69c0-.44.37-.81.81-.81s.81.37.81.81-.37.81-.81.81-.81-.37-.81-.81Z"/>
  <path d="m1389.56,457.39c-4.87-27.93-9.56-55.82-15.34-83.57-3.13-13.89-10.22-26.62-12.9-40.66-3.68-29.05-9.14-57.79-12.98-86.81-1.61-12.64-7.33-23.92-9.99-36.24-.88-2.62-1.52-6.66,2.18-7.21,4.26-.4,4.11,4.73,4.9,7.67,6.4,18.57,11.21,37.4,12.54,57.11,4.16,21.21,7.04,42.78,9.94,64.09,4.55,18.86,13.73,36.25,15.47,55.83,4.76,17.83,6.6,36.17,9.48,54.35-.41,4.41,5.44,16.9-.04,17.93-1.55.21-3.03-.9-3.26-2.47Z"/>
  <path d="m1251.25,491.67c-2.27-.06-4.25-1.26-6.28-2.14-3.07.31-6.23,1.06-9.3.42-1.16-.29-2.27-.87-2.53-2.13-.18-.85.23-1.71,1.11-1.95.73-.2,1.63.19,1.9.93,2.09.45,4.26.02,6.36-.23.03-2.57,2.62-3.09,4.7-2.83,2.38.07,4.74.35,7.11.51,12.25.98,24.35-1.73,36.58-1.9,9.39-.07,18.72-1.07,28.08-1.73,13.57-.52,27.12-1.62,40.72-1.33,7.16-.02,14.34.01,21.47.79,1.32-.07,2.91-.05,3.92.92,3.38.11,6.78.58,10.06,1.38,2.22.81,2.2,4.28,0,5.11-.64.27-1.3.26-1.94.07-2.29-.39-4.58-.78-6.9-.97-2.29-.11-4.58-.06-6.87-.01-16.72.12-33.45-.22-50.18.11-13.03-.24-25.88,1.78-38.8,3.16-13.04,1.24-26.18.54-39.21,1.83Z"/>
  <path d="m1300.07,502.65c-1.34-.25-2.42-1.22-2.61-2.61-.13-.99.23-1.91.89-2.57-11.89.13-23.73,1.38-35.62,1.65-.58,1.62-3.29,1.25-3.42-.5-.26-4.52,6.39-2.85,9.25-3.36,13.42-.89,26.82-1.89,40.28-2.04,15.09-.71,30.2-1.15,45.3-1,4.09-.07,8.05.95,12.05,1.45,3.44.37,6.84-.3,10.28-.41,2.91-.52,5.75,2.45,3.8,5.15-.81,1.05-2.2,1.85-3.54,1.45-2.34,1.56-5.51.42-8.12.16-2.97.28-5.93.58-8.9.86-10.62,1.14-21.29,1.34-31.96,1.29-9.23-.17-18.49.82-27.7.48Z"/>
  <path d="m1348.58,520.1c-1.05-.36-1.86-1.16-2.02-2.3-.05-.35-.03-.7.05-1.03-12.78-.59-25.57-1.2-38.13-3.84-3.88-.65-7.79-1.13-11.69-1.61-.99-.12-1.69-1.08-1.56-2.05.13-.99,1.07-1.68,2.05-1.56,2.73.33,5.46.63,8.17,1.05,10.82,1.9,21.68,3.51,32.69,3.57.7-1.53,2.54-1.69,4.03-1.67,1.92-.08,3.84-.14,5.76-.2,7.42-.21,14.84-.42,22.27-.79,4.7-.11,9.35-.9,14.02-1.38,2.64.04,6.93-1.99,8.33,1.15,2.42-.13,6.53-.16,6.15,3.28-.38,2.79-3.53,2.48-5.66,2.44-3.4-.02-6.74.05-9.98.96-7.29-.1-14.5,1.5-21.71,2.42-2.94.45-5.89.91-8.83,1.36-1.31.13-2.66.6-3.95.2Z"/>
  <path d="m1174.55,238.77c-2.93-5.37-2.29-12.2-4.24-18.01-.36-3.36-2.18-7.35-.4-10.48.94-1.16,2.25-1.57,3.7-1.52,6.91-.35,13.88-.88,20.72-1.97,38.93-7.19,76.69-19.52,115.62-26.85,12.63-3.37,25.54-5.14,38.44-7.03,3.15-.06,6.97-3.21,9.47-.14,1.51,8.77,4.57,17.7,5.37,26.66-1.17,5.23-8.56,2.59-12.43,4.3-3.88-.1-10.26,3.64-12.89.06-.95-1.61-.36-3.69,1.22-4.65,5.34-1.93,11.35-2,16.94-3.15-1.17-5.67-3.08-11.16-3.87-16.91-59.64,7.22-116.27,30.3-175.96,36.44.91,5.99,2.66,11.82,3.27,17.86,5.64-.71,11.82-5,17.42-2.46,2.72,2.02.56,6.45-2.7,5.49-6.41.07-13.73,6.45-19.67,2.35Z"/>
  <path d="m1215.34,202.12c1.22-5.9,4.74-11.37,6.56-17.11,1.08-2.91,1.9-8.15,6.12-7.18,5.99,1.86-1.76,12.48-2.68,16.54-2.13,3.35-2.18,8.38-5.44,10.77-2.02.88-4.65-.69-4.55-3.02Z"/>
  <path d="m1312.87,183.74c-3.42-5.02-7.4-9.61-11.71-13.88-3.22-.89-5.98-6.97-1.6-8.3,6.04.38,14.54,13.35,18.54,18.14,2.62,3.37-2.67,7.46-5.23,4.04Z"/>
  <path d="m1240.26,180.48c-2.18-.51-4.34-1.17-6.43-1.95-.59-.22-1.06-.61-1.41-1.1-.02,0-.05-.02-.07-.03-.93-.31-1.88-.55-2.78-.97-.96-.45-1.9-.95-2.82-1.48-1.94-1.11-3.79-2.37-5.54-3.75-.5-.39-.98-.81-1.47-1.21-.58-.47-1.17-.91-1.72-1.41-1-.93-1.91-1.94-2.79-2.98-2.01-2.36-3.69-4.97-5.05-7.75-1.26-2.58-2.16-5.32-2.74-8.12-1.05-5.38-.85-10.93.67-16.21,1.43-4.95,3.93-9.55,7.16-13.55,4.34-5.39,9.94-9.65,16.1-12.75,7.16-3.59,15.11-5.5,23.1-5.84,2.67-.11,5.36-.01,8.02.26,3.38.34,6.66,1.04,9.92,1.96,3.21.91,6.3,2.23,9.26,3.76,2.95,1.52,5.65,3.44,8.24,5.52,3.38,2.72,6.2,6.11,8.42,9.82,1.14,1.91,2.11,3.95,2.84,6.04,1.91,5.45,2.49,11.32,1.52,17.04-.97,5.72-3.36,11.09-6.77,15.78-6.11,8.44-15.22,14.32-25.04,17.54-2.36.77-4.77,1.36-7.21,1.81-2.29.43-4.63.76-6.95.93-1.21.08-2.42.12-3.63.12-4.31,0-8.61-.5-12.82-1.47Zm18.03-5.46c1.73-.14,3.45-.41,5.16-.74,2.11-.44,4.19-1,6.24-1.68,2.03-.72,4-1.54,5.93-2.48,1.74-.89,3.43-1.86,5.06-2.94,1.49-1.02,2.92-2.12,4.29-3.3,1.22-1.09,2.39-2.23,3.48-3.44,1.03-1.18,1.99-2.41,2.88-3.7.77-1.16,1.47-2.35,2.11-3.58.6-1.21,1.13-2.46,1.59-3.73.42-1.23.76-2.47,1.03-3.74.24-1.25.41-2.51.5-3.78.06-1.13.06-2.27,0-3.4-.09-1.27-.25-2.53-.5-3.77-.26-1.21-.58-2.41-.98-3.58-.41-1.14-.89-2.26-1.42-3.35-.57-1.12-1.22-2.21-1.91-3.26-.76-1.11-1.58-2.17-2.46-3.19-.78-.87-1.59-1.72-2.45-2.5-1.52-1.29-3.09-2.49-4.72-3.63-1.51-.95-3.04-1.82-4.62-2.65-1.64-.75-3.29-1.44-4.99-2.06-2.03-.65-4.06-1.22-6.14-1.69-2.08-.39-4.18-.66-6.3-.82-2.3-.13-4.58-.14-6.88,0-2.35.18-4.69.5-7,.96-2.15.46-4.27,1.05-6.35,1.76-1.92.68-3.8,1.48-5.63,2.38-1.75.89-3.44,1.88-5.08,2.97-1.47,1.01-2.88,2.09-4.23,3.26-1.25,1.11-2.44,2.29-3.55,3.54-1,1.15-1.93,2.36-2.79,3.62-.76,1.15-1.46,2.35-2.1,3.57-.59,1.2-1.12,2.43-1.57,3.69-.42,1.23-.77,2.49-1,3.55-.02.08-.03.17-.05.25h0c-.24,1.24-.4,2.49-.49,3.74-.06,1.15-.06,2.3,0,3.46.09,1.29.26,2.57.52,3.84.26,1.18.58,2.33.96,3.47.41,1.13.88,2.24,1.41,3.33.58,1.14,1.23,2.24,1.93,3.3.79,1.15,1.65,2.25,2.57,3.31.49.55,1,1.08,1.52,1.6.57.57,1.11,1.19,1.71,1.74,1.07.92,2.19,1.77,3.34,2.57,1.18.79,2.4,1.53,3.65,2.2.63.34,1.28.66,1.91,1.01.58.31,1.13.69,1.72,1.01.61-.1,1.25-.04,1.86.19.24.09.48.18.55.21.05.02.11.04.17.06l.05.02c1.92.66,3.88,1.2,5.76,1.6.07.01.14.03.21.04h.06c2.23.45,4.48.74,6.75.89,2.77.15,5.53.05,8.3-.1Z"/>
  <path d="m1222.28,191.26c-4.21-1.51-1.11-6.44-.29-9.32,1.87-3.5,2.05-10.58,7-10.78,3.79.63,5.29,9.98-.02,9-2.17,3.37-1.34,11.65-6.69,11.1Z"/>
  <path d="m1299.79,169.57c-2.83-2.96-13.18-11.08-5.25-13.51,1.57-.06,2.56,1.21,3.06,2.54,1.79,2.55,4.15,4.63,6.37,6.78,2.74,2.68-1.49,6.92-4.19,4.19Z"/>
  <path d="m1250.12,149.71c-4.03-.89-5.51-6.43-1.64-8.56,8.27-8.76,14.8,11.46,1.64,8.56Z"/>
  <path d="m1249.98,139.03c-5.31-1.91-4.5-14.63-6.34-19.68-1.18-4.37,5.74-5.81,6.41-1.32.86,5.22,1.71,10.45,2.87,15.62,2.01,2.09-.14,5.83-2.93,5.38Z"/>
  <path d="m1253.82,145.28c-2.78-5.08,7.59-8.81,10.5-12.03,4.24-1.71,15.74-13.78,18.54-6.89,1.46,3.87-11.33,8.63-14.23,11.42-4.21,1.71-10.53,11.65-14.81,7.5Z"/>
  <path d="m1210.41,125.42c-31.93-9.23-1.72-57.93,23.64-31,2.48,3.39,10.14,9.98,4.67,13.59-1.63.69-3.69-.08-4.34-1.76-13.8-29.12-44.53-1.52-24.71,12.71,7.25-.75,8.32,7.14.74,6.46Z"/>
  <path d="m1284.67,111.57c-2.82-4.63,5.5-6.16,3.46-15.15.61-6.9-5.7-8.78-11.04-10.84-8.83-3.25-18.59,1.39-16,11.8-.03-.09-.06-.17-.09-.25,0,0,0-.01-.05-.14.12.28.26.55.43.8,4.55-.63,5.31,6.43.68,6.5-2.5.09-4.97-.72-6.16-3.08-6.46-14.26,5.78-26.38,20.47-22.75,6.13,2,14.44,4.07,17.21,10.49,1.48,5.96,2.41,12.8-.28,18.55-1.6,2.86-5.41,7.75-8.63,4.07Z"/>
  <path d="m1271.45,84.12c0-.84.18-1.7.59-2.43.3-.53.66-.97,1.08-1.37-.98-2.2,1.13-4.77,3.48-4.11,2.67-1.52,5.98.82,5.76,3.81,9.54,9.24-9.75,15.39-10.92,4.11Z"/>
  <path d="m1204.82,98.79c-5.27.37-9.13-5.39-5.24-9.48.44-6.43,8-5.42,11.06-1.43,4.45,4.34.86,13.63-5.82,10.91Z"/>
  <path d="m1242.6,102.51c-.45-2.81-.89-5.58-1.68-8.33-5.46,1.36-10.03-4.57-5.83-8.95,4.23-2.68,10.9-3.8,15.68-1.97,4.39,3,.03,7.91-3.59,9.12.25,3.79,4.03,11.19-1.12,12.76-1.62.23-3.28-.96-3.46-2.63Z"/>
  <path d="m1187.23,236.97c-7.72-6.62,10.11-7.09,13.69-8.92,12.77-2.95,25.2-5.92,38.07-6.58,17.43-3.16,34.52-7.02,51.48-11.84,18.55-4.66,36.79-10.73,54.87-16.97,3.97-.82,12.51-4.86,14.52.08.48,1.74-.57,3.7-2.35,4.14-31.1,7.82-61.26,19.89-92.89,26.23-13.79,3.16-27.58,4.98-41.57,6.61-11.99,1.81-23.99,5.93-35.82,7.25Z"/>
  <path d="m1222.98,296.53c-3.76-2.52-1.43-7.97-2.25-11.69.15-12.67-5.16-24.07-8.69-35.89-1.97.52-3.77-1.46-3.25-3.39,4.98-7.19,15.97-6.6,23.84-8.03,16.23-3.82,32.52-7.43,48.85-10.81,14.36-3.74,29.02-6.13,43.08-10.91,6.34-3.45,7.8,3.59,9.01,8.28,2.9,10.62,4.37,21.48,5.87,32.36.31,6.26,8.82,23.77,0,25.71-28.55,1.58-56.92,6.03-85.43,7.73-8.21,1.95-16.41,4.31-24.55,6.14-2.06.72-4.4,1.55-6.48.5Zm-.07-37.5c3.32,9.74,4.81,20,4.84,30.28,14.01-2.96,27.69-8.06,42.28-7.22,22.18-2.34,44.35-5.2,66.6-6.51-4.19-17.64-5.27-35.93-10.58-53.29-35.25,10.18-71.7,16.95-107.7,23.46,1.41,4.32,2.62,8.94,4.56,13.27Z"/>
  <path d="m1274.07,270.46c-14.16-6.27-6.07-30.12,9.22-21.52,12.31,4.07,2.83,25.97-9.22,21.52Zm2.86-6.12c4.46-.06,5.3-4.79,5.15-8.38-1.9-.69-3.79-2.25-5.82-2.25-4.55,1.58-3.68,9.65.68,10.64Z"/>
  <path d="m1239.89,425.79c-4.7-17.17-3.78-35.02-5.67-52.59-1.84-18.78-7.21-36.11-9.09-54.72-.1-3.5-1.38-9.55,3.1-10.71,2.79-.37,3.86,2.38,4.19,4.66.36,2.91,3.14,7.39-.26,9.33,4.14,26.65,11.01,52.63,10.36,79.72.61,7.33,2.16,14.57,3.52,21.79,1.58,3.93-4.55,6.49-6.16,2.52Z"/>
  <path d="m1241.63,432.84c-4.8-9.97,25.53-10.49,31.57-11.91,12.1-2.02,24.23-4.78,36.24-6.99,7.3-.61,50.42-15.28,50.96-6.71.4,3.62-3.56,4.1-6.28,3.89-7.05.98-14.07,2.22-20.93,4.16-25.57,6-51.14,10.98-77.2,13.98-2.96.67-6.15,1-8.92,2.31-1.45,1.46-3.58,3.15-5.45,1.27Z"/>
  <path d="m1362.38,407.43c-1.92-2.04-2.33-5.17-3.28-7.74-1.33-5.19-2.09-9.96-3.34-15.08-3-13.07-5.03-25.8-6.36-39.06-1.32-7.72-2.87-15.4-4.18-23.13-1.92-7.62-4.43-15.12-5.58-22.91,0-2.03-1.19-4.2-.14-6.11,1.37-2.55,5.59-2.05,6.23.81,1.09,9.43,4.1,18.44,6.28,27.64,1.16,7.22,2.52,14.41,3.76,21.62.7,4.99.96,10.04,1.65,15.03,2.04,14.68,4.88,28.43,7.69,42.74,1.11-.53,2.4.75,1.87,1.88-.36.8-.76,1.59-1.07,2.41-.18,1.89-1.82,3.07-3.51,1.89Z"/>
  <path d="m1231.51,312.14c-10.03-5.99,8.81-7.63,12.69-8.27,9.91-1.34,19.6-3.84,29.46-5.52,22.71-1.27,44.82-7.82,67.55-8.1,4.2-.03,4.26,6.56,0,6.54-16.59-.19-32.78,4.17-49.19,6.16-19.6.63-38.45,5.9-57.76,8.45-.71.75-1.78.97-2.75.74Z"/>
  <path d="m1252.67,383.65c-6.48-1.36-8.27-10.11-8.53-15.79-.06-6.3,7.83-12.88,13.33-8.01,12.89,1.73,7.49,25.16-4.8,23.8Zm.72-6.31c4.41-.54,6.17-6.77,4.38-10.32,0,0,0,0,0,0-1.39.51-2.93-.08-3.74-1.35-.27-.43-.55-.85-.83-1.28-5.26,1.96-1.92,9.54.19,12.94Z"/>
  <path d="m1341.89,341.39c-4.64-.99-2.31-6.89-2.97-10.24-.23-3.98-.98-7.95-.9-11.93-.17-4.15,3.64-7.35,7.61-7.22,2.75-.57,6.57-1.56,7.94,1.73.09,7.28,3.56,14.78,1.95,21.98-1.18,2.78-4.66,2.66-7.19,3.13-2.49.08-3.95,2.85-6.44,2.56Z"/>
  <path d="m1353.31,391.47c-3.7-4.09-2.09-11.1-4.29-16.17-.95-3.67-4.31-12.51,2.78-10.98.83-2.76,3.65-5.43,6.48-3.35,3.17,4.6,2.91,11.14,6.3,15.96,2.53,4.22,7,12.55-1.14,13.19-3.34.34-6.86,3.11-10.12,1.35Zm3.24-12.52c.4,1.67.78,3.36.97,5.07.03.25.05.5.08.74.59-.19,1.19-.38,1.79-.55.4-.11.8-.21,1.2-.31-2.06-4.13-4.3-8.18-5.85-12.54-.02,0-.03.02-.05.03.62,2.52,1.26,5.03,1.87,7.55Z"/>
  <path d="m1423.6,439.67c-13.24-4.29-28.38-8.1-38.07-18.58-2.64-4.55-.98-11.77,4.3-13.52,3.74-.63,7.4,1.42,10.98,2.25,3.71,1.01,2.11,6.78-1.58,5.72-2.61-.75-5.19-1.67-7.86-2.19-6.81,9.41,26.74,17.4,33.1,19.94,4.13.48,3.26,7.02-.88,6.39Z"/>
  <path d="m1421.19,423.86c-7.01-3-12.3-9.35-20.63-8.96-3.37,1.84-11.41-1.59-6.95-5.73,3.16-1.71,7.14-.27,10.58-.22,7.48.09,12.64,5.32,18.73,8.61,4.09,1.07,2.31,7.45-1.73,6.29Z"/>
  <path d="m1446.52,476.02c-16.74-6.36-21.98-22.87-28.03-37.97-1.93-6.48,6.11-7.58,8.02,1.29,3.81,8.38,5.51,18.15,13.01,24.28,8.71,8.77,26.81,12.19,22.59-5.76-8.74-18.07-10.88-39.06-20.76-56.29-4.47-5.06-12.91-6.71-18.05-1.72-2.57,2.61-8.14,7.56-4.09,11.01,4.47,11.83-16.72,2.43-3.84-12.3,7.25-10.78,23.43-11.01,31.38-.93,6.75,9.25,8.34,20.79,11.86,31.43,2.84,7.73,5.17,15.33,8.31,22.9.73,2.98,3.74,6.09,2.22,9.17,2.87,12.9-12.13,19.88-22.62,14.89Z"/>
  <path d="m1408.8,409.44c-5.72-3.62-13-6.22-19.81-6.21-1.55.92-3.62.36-4.53-1.19-2.04-12.33,23.54-1.15,27.88,2.81,2.98,2.28-.6,6.91-3.54,4.59Z"/>
  <path d="m1424.13,420.56c-5.42-1.09-.66-11.38.96-14.46,2.94-3.63,8.26,2.25,4.09,4.62-1.57,3.1-.22,9.96-5.05,9.84Z"/>
  <path d="m1422.62,416.35c-2.91-3.67.1-9.53.71-13.75,1.26-3.19,6.29-2.15,6.18,1.25,0,0,0,0,.01,0-.08,1.02-.38,2.01-.49,3.03.36.51.57,1.12.76,1.74.43,1.39-.38,2.9-1.67,3.46-.28,2.83-2.37,6.43-5.51,4.27Z"/>
  <path d="m1432.96,427.93c-4.08-.77-9.37-.5-12.27-3.87-3.47-1.42-2.17-6.81,1.62-5.91,3.92,1.86,8.85.81,12.62,3.55,5.19.86,2.76,8.56-1.98,6.23Z"/>
  <path d="m1424.22,417.64c-3.62-.21-2.02-8.12-.18-9.53.6-1.35,1.29-2.66,1.96-3.97,1.59-2.86,6.08-.26,4.38,2.56-2.78,2.96-1.73,10.96-6.15,10.94Z"/>
  <path d="m1429.24,417.63c-4.31-1.77-3.71-8.71,1.3-8.71,6.21.04,4.58,10.85-1.3,8.71Z"/>
  <path d="m96.48,393.64c-6.42,1.04-4.78-6.24-.96-8.53.96-4.22,7.37-3.71,6.23.89,5.72,3.49-.05,11.66-5.27,7.64Z"/>
  <path d="m115.3,390.78c-1.05-.05-2.09-.27-2.96-.92-.58-.44-1.05-.92-1.45-1.48-2.15-.5-3.09-3.56-1.54-5.16.55-3.84,5.32-3.93,8.24-5.09,3.9-1.09,5.37,5.06,1.41,5.9,2.67,2.76-.25,6.93-3.71,6.74Z"/>
  <path d="m159.04,58.29c-4-5.77,5.08-10.55,9.39-6.87,4.29,4.89-5.77,12.15-9.39,6.87Z"/>
  <path d="m178.82,71.57c-2.89-.91-5.49-4.31-4.57-7.39-.78-3.35,3.58-5,6.09-3.44,4.54,2.3,5.22,12.12-1.52,10.83Z"/>
  <path d="m1430.73,458.01c-1.46-6.79,17.37-4.83,9.72-17.71-3.85,2.29-17.66,8.1-16.7-.47,1.16-2.76,4.37-1.41,6.63-2.04,3.17-.69,5.88-2.59,8.82-3.88,8.84-2.54,12.86,16.41,5.51,20.29-3.58,2.23-10.87,9.9-13.99,3.82Z"/>
  <path d="m1434.85,454.79c-1.11-.15-2.03-.81-2.65-1.7-10.17-4.73,5.03-21.02,8.49-13.2,6.59,3.62.54,15.2-5.83,14.9Z"/>
  <path d="m1462.51,493.69c-10.2-1.24-14.76-17.08-5.63-22.67,1.32-4.28,8.31-4.25,11.6-2.27,8.17,6.32,6.16,25.35-5.98,24.94Zm-.18-7.13c2.27-1.74,1.65-5.79.65-8.16-1.53.49-2.46.56-3.61,1.29-.23.2-.44.44-.58.72.24,2.3,1.29,5.2,3.54,6.15Z"/>
  <path d="m1453.33,495.47c-10.96-.52-21.95-17.62-11.42-25.33,5.5-2.54,9.47,5.6,2.73,6.25-2.03,6.25,5.45,14.04,11.77,12.34,2-1.27,4.21-3.79,6.54-1.43,3.7,5.2-5.41,8.89-9.63,8.18Z"/>
  <path d="m1420.61,226.97c-6.01-3.45-12.54-5.8-18.75-8.8-4.9-2.68-9.85-6.23-15.74-5.55-3.73-.57-12.35,3.82-13.63-.88-.92-5.79,22.99-5.02,26.14-1.53,7.91,4.72,16.8,7.37,24.73,12.08,3.04,1.75.28,6.46-2.74,4.69Z"/>
  <path d="m1433.97,288.63c-9.07-4.74-18.34-10.49-28.55-12.05-3.12-.74-9.23,1.96-9.81-2.64.27-3.86,5.1-2.47,7.72-2.79,9.6-.17,18.03,5.34,26.55,9.07,2.6,2,9.51,3.1,7.77,7.45-.75,1.27-2.43,1.69-3.68.96Z"/>
  <path d="m368.51,336.15c-8.5-2.48,8.35-24.97,8.9-31.69,3.64-8.7-3.32-11.83-8.53-4.25-5.56,8.34-11.15,17.91-12.42,27.97,0,1.44-1.21,2.64-2.65,2.64-5.97-1.51-.61-11.32.27-15.27,4.53-9.46,8.45-22.08,19.32-25.77,7.97-1.63,13.23,8.21,10.17,14.92-2.38,9.82-8.8,18-11.48,27.6-.09,2.01-1.3,4.19-3.58,3.85Z"/>
  <path d="m337.03,379.2c-.84-19.12-12.4-37.12-9.3-56.44.81-12.75,21.56-28.16,30.76-15.09,1.07,4-3.86,4.58-5.25,1.21-21.45-1.72-22.32,22.41-16.99,37.65.77,6.18,11.73,33.36,4.28,35.34-1.67.23-3.24-.98-3.5-2.66Z"/>
  <path d="m325.88,335.74c-6.28-7.19-12.29-15.9-13.93-25.47-2.06-20.19,12.2-32.94,25.66-12.24,1.98,3.4,7.95,9.88,3.08,12.98-1.61.68-3.5-.1-4.18-1.7-8.05-18.26-19.67-22.8-18.01,1.86,2.15,7.43,6.49,14.56,11.59,20.34,2.74,2.7-1.51,6.99-4.22,4.22Z"/>
  <path d="m338.54,354.46c-.3-6.55,9.82-3.85,13.4-6.98,5.16-2.95,2.89-9.33-2.65-9.72-5-.54-8.61,3.15-12.68,5.31-1.2.73-2.85.23-3.54-.96-2-3.91,8.65-8.9,11.78-9.77,19.16-3.69,21.66,20.63,2.76,22.85-2.97.4-7.63,3.49-9.08-.74Z"/>
  <path d="m338.19,329.94c-2.5-2.25-1.58-6.99,1.62-8.1,1.07-1.89,4.1-1.72,4.84.34,4.27,3.48-2.28,10.73-6.45,7.76Z"/>
  <path d="m337.22,326.58c-4.48-1.94.1-5.78,2.14-7.71,2.28-1.99,5.38-7.45,8.6-4,2.37,4.03-4.08,6.32-6.07,9.08-.21,2.03-2.92,2.88-4.66,2.62Z"/>
  <path d="m357.37,400.82c-13.53-.07-19.65-13.54-19.7-25.41-.58-4.12,5.84-5,6.37-.87.73,5.63.73,11.86,4.83,16.28,6.46,7.11,19.04,3.82,20.54-5.85.91-12.15-1.77-24.97-1.68-37.15.61-4.17-4.41-15.87.51-17.23,5.62-.96,4.8,27.84,5.65,32.55,1.85,15.18,4.35,36.38-16.53,37.68Z"/>
  <path d="m337.85,355.77c-3.62-1.94-6.87-7.85-4.12-11.62,2.15-1.76,3.47-5.07,6.62-5.06,2.4-2.57,6.2-3.7,9.56-2.55,2.54-1.17,5.52.88,5.57,3.62,3.17,2.5.1,6.5-3,7.17-2.12,2.45-4.55,5.51-8.04,5.68-1.47,1.99-4.06,3.74-6.58,2.76Z"/>
  <path d="m367.22,409.83c-4.7-3.42-5.99-11.04-2.28-15.6,2.24-8.51,15.95-10.04,20.94-2.96,8.09,11.42-7.14,27.7-18.66,18.57Zm8.37-3.31c9.88-1.41,6.52-18.45-3.13-11.71.51.82.63,1.9.25,2.79-.63,1.5-2.27,2.09-3.76,1.62-1.29,4.14,2.61,7.7,6.63,7.3Z"/>
  <path d="m330.64,406.13c-12.38-5.57-4.32-28.76,8.4-25.93,2.13.77,4.03,3.25,2.38,5.37-1.13,1.48-3.36,1.51-4.64.19-9.4,3.5-6.87,21.77,1.27,12.14,4.08-3.74-1.9-9.12,2.68-11.64,11.91-.71,2.79,25.57-10.09,19.86Z"/>
  <path d="m392.05,331.16c-3.91-.12-7.77-.83-11.57-1.71-3-.88-1.79-5.34,1.27-4.6,6.92,1.82,13.72,1.81,20.74,1.09,1.32-.12,2.56.73,2.74,2.08.17,1.26-.76,2.63-2.08,2.74-3.69.31-7.4.52-11.1.41Z"/>
  <path d="m388.63,353.01c-.16-1.14.66-2.21,1.79-2.37,2.22-.31,4.43-.64,6.63-1.03,3.98-.85,7.94-1.78,11.89-2.74,1.14-.28,2.32.35,2.64,1.5.3,1.09-.36,2.37-1.5,2.64-3.11.73-6.23,1.44-9.35,2.13-3.22.72-6.48,1.21-9.75,1.67-1.11.16-2.22-.66-2.36-1.79Z"/>
  <path d="m404.2,379.33c1.17-5.23,9.33-2.36,13.33-3.17,3.97.89,12.74-2.62,13.74,2.75-1,5.31-9.79,2.01-13.74,2.93-3.89-1-12.41,2.9-13.32-2.51Z"/>
  <path d="m81.42,334.12c-5.75-5.6-16.13-12.81-12.48-21.98,1.55-2.57,2.05-8.66,6.2-7.39,4.2,2.52-1.14,7.44-1.62,10.83,1.17,6.21,7.19,10.27,11.48,14.46,2.42,2.23-1.06,6.21-3.59,4.08Z"/>
  <path d="m113.95,323.82c-1.02-.79-1.18-2.26-.42-3.29,1.64-2.2,3.3-4.38,4.86-6.64,1.66-2.51,2.82-5.3,3.81-8.12.93-2.88,5.16-1.73,4.45,1.23-1.66,6.22-5.54,11.39-9.41,16.4-.76,1.03-2.29,1.19-3.29.42Z"/>
  <path d="m85.39,278.42c0-.71.59-1.3,1.3-1.3,6.12-.33,12.97.99,18.4-2.46.62-.35,1.42-.15,1.78.46.36.61.14,1.43-.47,1.78-1.79,1.06-3.64,2.08-5.75,2.27-4.62.7-9.31.5-13.97.56-.71,0-1.3-.6-1.3-1.31Z"/>
  <path d="m139.03,316.49c-.56-2.1,1.22-3.36,3.08-3.64,1.35-1.04,2.45-2.37,3.82-3.38,1.99-1.07,3.95-2.31,6.16-2.81,4.15-3.96,6.87-8.98,8.37-14.46.82-5.87-2.54-11.63-5.42-16.49-2.65-4.57-6.98-7.46-12.19-8.31-3.12-.57-6.43-1.23-9.54-.31-.83.42-1.89.28-2.57-.41-2.68-3.6,3.47-4.91,6.02-4.96,7.52-.06,15.98,1.89,20.67,8.23,4.47,6.09,8.61,13.43,8.5,21.17-.11,2.45-.95,4.78-1.89,7.02-1.5,3.38-2.98,6.86-5.66,9.49-1.65,1.93-3.23,4.13-5.92,4.46-.98.48-1.87,1.14-2.94,1.44-1.03.63-1.81,1.58-2.72,2.37-1.84,2.02-6.47,4.22-7.77.58Z"/>
</svg>