<?xml version="1.0" encoding="UTF-8"?>
<svg id="Vektorebene" xmlns="http://www.w3.org/2000/svg" viewBox="0 0 1208.83 706.34">
  <path d="m411.34,198.18c-1.61-.2-3.21-.55-4.76-1.05-1.1-.36-2.14-.91-3.2-1.36-3.42-1.39-6.61-3.22-9.46-5.59-3.73-3.09-6.83-7-8.99-11.34-2-4.03-3.19-8.45-3.52-12.94-.4-5.35.48-10.73,2.49-15.7,1.66-4.12,4.15-7.81,7.22-11.01.05-.05.09-.1.1-.11.6-.75,1.37-1.29,2.14-1.85.8-.58,1.61-1.13,2.42-1.7,1.22-.85,2.47-1.64,3.76-2.38.27-.8.82-1.49,1.62-1.85,3.35-1.55,6.88-2.57,10.54-3.05,5.89-.77,12.01,0,17.52,2.21,5.23,2.11,9.91,5.39,13.63,9.64,2.64,3.01,4.74,6.48,6.23,10.2,1.36,3.4,2.12,7.11,2.37,10.77.25,3.74-.05,7.57-1.1,11.18-.58,2-1.25,3.95-2.11,5.85-1.08,2.38-2.46,4.59-4.03,6.69-2.35,3.14-5.3,5.86-8.56,8.03-1.11.74-2.26,1.41-3.45,2.01-1.2.6-2.46,1.01-3.71,1.48-2.4.92-4.9,1.5-7.43,1.88-1.55.23-3.12.34-4.69.34-1.68,0-3.35-.12-5.02-.33Zm5.33-5.92c1.29-.04,2.58-.14,3.86-.32,1.09-.18,2.17-.4,3.24-.68.13-.03.26-.07.38-.11.41-.15.84-.26,1.24-.39.54-.18,1.08-.38,1.61-.6,1.4-.67,2.78-1.43,4.11-2.23,1.02-.64,2.01-1.33,2.96-2.07.98-.8,1.92-1.65,2.8-2.55.84-.89,1.62-1.82,2.35-2.79.71-.97,1.36-1.97,1.96-3.01.63-1.14,1.19-2.3,1.68-3.5.37-.96.71-1.93.98-2.93.33-1.35.57-2.73.76-4.11.15-1.28.22-2.56.22-3.85-.03-1.36-.14-2.72-.33-4.07-.17-1.02-.37-2.03-.65-3.03-.43-1.43-.93-2.84-1.52-4.21-.5-1.11-1.07-2.19-1.55-3.02-.05-.08-.1-.17-.16-.25h0c-.66-1.08-1.38-2.1-2.16-3.08-.74-.91-1.53-1.77-2.36-2.59-.91-.87-1.86-1.68-2.86-2.44-.96-.7-1.96-1.35-2.98-1.95-1.06-.59-2.15-1.12-3.27-1.59-1.21-.48-2.45-.89-3.71-1.23-1.19-.29-2.4-.52-3.62-.68-1.3-.15-2.61-.21-3.92-.2-1.26.03-2.51.13-3.75.3-1.26.19-2.5.46-3.72.8-1.29.38-2.56.84-3.79,1.38-.05.02-.1.04-.14.07-.54.25-1.11.39-1.68.38-.39.22-.78.44-1.17.67-1.98,1.22-3.87,2.56-5.48,3.71-.12.08-.24.17-.34.26-.87,1.26-1.93,2.38-2.87,3.6-.74,1.02-1.43,2.07-2.05,3.16-.62,1.13-1.17,2.28-1.66,3.47-.46,1.18-.85,2.39-1.18,3.61-.3,1.23-.53,2.47-.69,3.73-.14,1.32-.22,2.64-.2,3.96.03,1.25.13,2.5.3,3.74.2,1.26.46,2.51.8,3.75.38,1.31.85,2.59,1.38,3.84.51,1.14,1.1,2.24,1.74,3.31.67,1.06,1.38,2.07,2.14,3.05.83,1.02,1.72,2,2.65,2.93.89.84,1.83,1.63,2.52,2.15,1.09.81,2.22,1.55,3.39,2.22,1.06.58,2.14,1.11,3.25,1.57.39.16.79.29,1.2.41,1,.23,2.02.4,3.02.61,1.13.24,2.27.44,3.41.58,1.3.13,2.59.19,3.89.19Z"/>
  <path d="m483.77,106.2c-1.35-.21-2.62-.56-3.91-1.01-2.03-.71-4-1.6-5.86-2.66-1.79-1.02-3.36-2.29-4.75-3.79-1.21-1.31-2.24-2.79-3.06-4.37-1.56-3-2.3-6.47-1.99-9.85.26-2.8,1.18-5.48,2.68-7.87.72-1.15,1.59-2.2,2.54-3.16.5-.51,1.02-.97,1.58-1.41.58-.45,1.23-.77,1.86-1.14.68-.42,1.37-.83,2.1-1.17,1.27-.59,2.62-1.02,3.98-1.36.58-.14,1.16-.29,1.74-.41.83-.18,1.72-.21,2.56-.22.91-.02,1.84-.07,2.75-.05.25,0,.51.01.76.03.07-.06.14-.11.22-.17.71-.5,1.5-.65,2.34-.58,3.49.45,6.86,1.66,9.87,3.48,3.58,2.16,6.64,5.39,8.4,9.21,2,4.34,2.33,9.34.65,13.84-.82,2.18-2.04,4.11-3.59,5.84-1.99,2.21-4.51,4.15-7.33,5.14-1.69.59-3.37,1.18-5.13,1.52-1.17.23-2.36.35-3.55.37-.46.01-.92.02-1.38.02-1.16,0-2.33-.05-3.48-.23Zm4.38-6.05c.76-.02,1.52-.07,2.28-.17.75-.13,1.48-.29,2.21-.5.5-.15.99-.32,1.47-.52.78-.37,1.52-.82,2.26-1.27.58-.36,1.14-.75,1.68-1.17.45-.37.87-.76,1.28-1.17.31-.33.61-.67.89-1.03.33-.47.64-.97.93-1.47.23-.42.43-.85.62-1.29.17-.45.32-.9.45-1.36.12-.49.21-.97.28-1.47.05-.47.07-.95.08-1.42-.02-.5-.06-.99-.12-1.49-.08-.51-.2-1.02-.33-1.52-.15-.49-.33-.98-.53-1.46-.23-.51-.49-1.01-.78-1.5-.33-.53-.69-1.03-1.07-1.52-.41-.5-.85-.98-1.31-1.43-.49-.46-1-.88-1.52-1.29-.62-.45-1.25-.86-1.92-1.24-.66-.36-1.34-.69-2.04-.98-.76-.3-1.54-.55-2.32-.76-.78-.19-1.56-.34-2.35-.46,0,0-.02,0-.03,0-.56-.07-1.06-.31-1.47-.65-.35-.01-.71-.03-1.06-.03-1.27.02-2.53.02-3.79.13-.1.02-.21.04-.31.07-.74.24-1.46.52-2.17.83-.92.42-1.81.9-2.68,1.41-.27.17-.54.35-.8.55-.39.34-.75.72-1.13,1.07-.37.34-.73.67-1.08,1.02-.38.41-.73.83-1.07,1.27-.29.4-.55.81-.8,1.23-.24.44-.45.89-.65,1.35-.16.43-.31.88-.43,1.32-.12.5-.22,1-.29,1.51-.05.47-.08.94-.08,1.41.01.55.06,1.1.13,1.65.09.5.2,1,.34,1.49.15.49.33.98.53,1.46.25.55.53,1.08.84,1.6.32.5.66.98,1.02,1.44.41.5.85.98,1.31,1.44.28.26.56.5.86.74.7.49,1.4.95,2.14,1.38,1,.53,2.02.99,3.06,1.43.91.36,1.83.69,2.78.97.46.11.92.19,1.39.26,1.1.1,2.2.14,3.31.14Z"/>
  <path d="m541.76,169.53c-5.47-.4-10.91-2.56-14.62-6.69-6.31-4.6-14.81-6.9-17.29-15.25-3.04-10.9,11.21-20.52,21.16-17.82,4.9-3.29,11.55,1.75,15.89,4.36,14.34,8.96,17.47,37.42-5.14,35.39Zm1.71-5.76c17.33-2.29,4.26-24.66-6.58-27.58-4.59-.83-9.53-2.55-14.06-.59-6.21,2.59-10.69,9.97-4.43,15.1,8.51,4.02,15.35,13.29,25.08,13.07Z"/>
  <path d="m310.22,138.63c-7.03-.29-10.67-5.67-11.56-12.17-2.51-14.03,12.73-28.01,26.55-25.85,32.11-7.86,29.41,44.2-14.99,38.02Zm6.34-6.06c14.1,2.69,35.89-18.46,15.94-26.12-4.53,2.41-10.41-.8-15.33,1.17-12.52,3.97-19.48,27.12-.61,24.95Z"/>
  <path d="m296.36,215.99c-1.82-.21-3.62-.48-5.41-.85-2.29-.48-4.46-1.27-6.59-2.24-2.49-1.14-4.64-2.73-6.68-4.54-2.55-2.28-4.54-5.14-6.1-8.17-1.5-2.91-2.46-6.21-2.85-9.46-.35-2.93-.16-5.94.42-8.83.74-3.7,2.28-7.27,4.42-10.38,1.78-2.59,4.23-4.7,6.68-6.65.05-.04.1-.08.15-.13.19-.23.38-.43.64-.62.49-.35,1.04-.6,1.61-.83,1.52-.62,3.04-1.26,4.61-1.79,1.38-.47,2.79-.9,4.22-1.23.56-.61,1.35-1.02,2.23-1.13,4.07-.48,8.24-.05,12.13,1.21,4.21,1.37,8.02,3.71,11.2,6.78,2.37,2.34,4.35,5.05,5.79,8.06,1.74,3.62,2.68,7.59,2.77,11.61.14,5.92-1.45,11.98-4.77,16.43-1.23,1.65-2.48,3.25-3.94,4.7-1.3,1.29-2.74,2.44-4.27,3.45-1.96,1.29-4.09,2.33-6.32,3.1-1.54.53-3.12.93-4.73,1.2-.75.13-1.51.23-2.26.33-.44.06-.87.09-1.31.09-.55,0-1.1-.04-1.66-.11Zm1.64-6.13c.54-.03,1.07-.11,1.53-.18.04,0,.08-.01.12-.02h.07c1.21-.2,2.39-.45,3.57-.78.96-.3,1.91-.64,2.83-1.04.85-.4,1.68-.83,2.5-1.32.77-.48,1.52-1.01,2.24-1.57.74-.6,1.45-1.25,2.11-1.93.55-.58,1.07-1.18,1.55-1.81.34-.47.66-.95.95-1.45.62-1.13,1.24-2.27,1.74-3.46.41-1.05.77-2.11,1.06-3.2.23-.93.41-1.86.54-2.81.11-.97.16-1.95.16-2.92-.02-.92-.09-1.83-.22-2.75-.18-1.03-.42-2.04-.71-3.05-.29-.93-.61-1.84-.99-2.73-.4-.88-.84-1.73-1.32-2.56-.52-.84-1.09-1.65-1.7-2.42-.56-.68-1.15-1.32-1.77-1.94-.7-.66-1.43-1.28-2.2-1.87-.73-.53-1.48-1.02-2.14-1.4-.05-.03-.09-.05-.14-.08l-.04-.02c-.83-.46-1.68-.86-2.55-1.23-.87-.34-1.75-.63-2.64-.88-1-.25-2.02-.44-3.04-.58-.95-.11-1.9-.15-2.85-.14-.8.02-1.6.08-2.4.17-.27.03-.53.03-.79-.01-.73.15-1.46.33-2.18.54-2.26.68-4.44,1.53-6.62,2.42-.03.01-.06.03-.09.04-.42.43-.89.79-1.37,1.17-.66.54-1.31,1.11-1.91,1.72-.37.4-.72.81-1.05,1.24-.89,1.22-1.78,2.44-2.54,3.75-.46.84-.86,1.7-1.23,2.57-.37.95-.68,1.91-.95,2.9-.22.92-.39,1.85-.52,2.79-.1.96-.15,1.92-.15,2.89.02.92.1,1.83.21,2.74.16.92.38,1.83.61,2.73.31.98.65,1.94,1.04,2.9.44.95.91,1.87,1.43,2.77.58.89,1.18,1.74,1.84,2.58.6.67,1.21,1.32,1.84,1.96.69.62,1.39,1.2,2.12,1.78.58.41,1.17.79,1.79,1.15.91.49,1.84.92,2.8,1.32.87.34,1.74.63,2.64.88,1.75.42,3.52.71,5.01.92.13.02.26.03.38.05h0c.47.06.94.11,1.42.14Z"/>
  <path d="m410.95,164.59c-1.5-.17-2.95-.45-4.34-1.04-.75-.31-1.48-.7-2.16-1.16-2.51-1.71-4.71-4.12-5.93-6.92-1.54-3.55-1.66-7.71-.33-11.35.64-1.75,1.59-3.36,2.8-4.78.46-.54.98-1.05,1.51-1.52.76-.68,1.54-1.35,2.48-1.75,1.27-.54,2.61-.95,3.93-1.3.2-.06.41-.11.61-.15.54-.55,1.26-.91,2.07-.96,4.25-.26,8.56,1.14,11.7,4.06,1.95,1.81,3.49,4.07,4.34,6.61.57,1.71.84,3.48.82,5.29-.01,1.49-.37,3.07-.8,4.5-.45,1.48-1.16,2.93-2.06,4.2-.56.79-1.17,1.53-1.88,2.2-.65.62-1.42,1.07-2.18,1.53-.56.35-1.1.71-1.68,1.02-.65.34-1.34.63-2.04.88-1.53.54-3.16.77-4.78.77-.7,0-1.39-.04-2.08-.12Zm2.63-5.85c.31-.01.62-.03.93-.07.29-.05.57-.12.85-.19.42-.13.84-.29,1.25-.46.35-.16.68-.34,1.01-.53.13-.08.26-.17.39-.26.11-.1.22-.2.33-.31.62-.66,1.22-1.33,1.77-2.04.23-.32.44-.65.64-.99.18-.34.35-.69.51-1.05.14-.38.27-.76.38-1.15.07-.3.13-.59.17-.89.03-.35.04-.7.04-1.05-.01-.58-.05-1.15-.12-1.72-.07-.41-.16-.81-.26-1.21-.12-.38-.26-.75-.41-1.12-.17-.36-.35-.71-.55-1.06-.2-.31-.41-.62-.64-.91-.24-.29-.49-.57-.75-.83-.3-.28-.62-.55-.94-.8-.33-.24-.68-.46-1.03-.67-.34-.18-.69-.35-1.04-.5-.37-.14-.74-.26-1.11-.36-.38-.09-.76-.17-1.15-.22-.43-.04-.86-.06-1.29-.07-.13,0-.26.01-.39.02-.17.01-.34,0-.51,0-.61.12-1.21.26-1.81.42-.85.26-1.69.54-2.51.86,0,0-.01,0-.02.01,0,0,0,0-.01.01-.47.39-.93.79-1.36,1.22-.27.29-.53.59-.77.91-.24.34-.47.69-.67,1.04-.18.34-.35.68-.5,1.03-.16.41-.29.83-.41,1.26-.1.44-.18.88-.24,1.32-.04.4-.06.8-.06,1.2.01.4.05.79.1,1.19.07.43.17.85.28,1.26.13.4.27.8.43,1.18.11.24.24.47.37.7.22.35.46.68.7,1.02.31.38.64.74.98,1.1.49.45.99.89,1.51,1.3.2.14.4.27.61.39.3.16.6.3.91.43.23.08.46.16.7.22.36.08.71.14,1.07.21.89.09,1.77.14,2.66.15Z"/>
  <path d="m409.17,194.23c-7.46-3.95-16.21-6.88-19.9-15.26-1.43-2.83-4.43-6.48-2.06-9.56-1.68-11.02,3.19-21.98,9.39-30.84,2.44-2.36,6.73.39,5.55,3.59-1.58,2.74-2.92,5.58-4.4,8.37,1.34.06,2.66.89,3.08,2.23.91,2.88,1.98,5.71,3.09,8.52.53-.22,1.12-.3,1.69-.24,3.75-1.91,8.3,1.75,11.67,3.47,3.4-3.74,7.17-7.23,9.95-11.53-.69-1.18-1.1-2.58-.84-3.92.04-.23.11-.47.19-.7-.37-1.4-.67-2.81-.82-4.25,0-.09-.02-.19-.03-.28-2.6-1.49-4.53-4.4-6.39-6.74-1.37-7.67,6.67-3.22,9.07.24,3.32-.49,5.72,2.65,7.09,5.29,8.88-3.62,14.19,31.47,6.57,32.67-.65,2.38-1.67,5.07-4.06,6.17-.77,3.27-1.57,8.82-6.13,8.04-2.97,2.18-7.45,6.03-10.96,2.57-3.45,2.17-7.75,3.66-11.75,2.18Z"/>
  <path d="m317.53,125.19c-17.66-6.89-9.01-28.12,5.21-20.71,15.8,2.27,9.16,26.12-5.21,20.71Zm4.43-5.13c3.48-1.1,5.81-6.82,1.56-8.56-2.96-1.51-6.39-.62-9.3-1.55-3.53,4.81,3.32,9.71,7.74,10.11Z"/>
  <path d="m319.12,124.86c-6.85-.28-9.84-3.55-11.4-10-.35-6.14,6.71-9.97,12.2-9.45.7-.52,1.6-.77,2.48-.56,4.85.57,9.7,4.65,8.54,9.93-1.41,5.31-5.76,11.57-12,10.06,0,0,.18.02.18.02Zm2.07-5.67c1.72-.11,4.35-4.91,3.58-6.35-1.2-1.79-3.92-1.05-5.31-2.58-1.96-.1-7.16,2.31-5.87,4.71,1.35,4.15,3.82,3.89,7.6,4.22Z"/>
  <path d="m312.06,133.62c-1.54-.08-2.79-.94-3.91-1.93-.9-.8-1.72-1.66-2.36-2.69-.5-.8-.99-1.69-1.25-2.63-.29-.6-.5-1.22-.63-1.89-.18-.95-.07-1.86.09-2.8.3-1.75,2.17-3.11,3.94-2.69.68.16,1.29.35,1.84.81.48.41.83.94,1.09,1.51.14.05.28.11.43.16,1.14.41,2.33.8,3.37,1.43.3.18.6.38.88.6.03-.03.05-.05.08-.08.89-.94,1.79-1.88,2.68-2.82,2.86-3.02,5.72-6.04,8.59-9.06.02-.29.05-.59.09-.88.08-.6.21-1.2.38-1.77.14-.5.27-1,.49-1.46.45-.93,1.21-1.73,2.25-1.96,1-.22,1.96.11,2.73.75.02.02.04.03.06.05.95-.32,2.05-.18,2.9.38.66-.15,1.36-.1,2,.2.76.34,1.4.96,1.7,1.74.14.31.23.64.29.99.08.49.11.97.13,1.46.06,1.49.13,2.98.19,4.47.06,1.4.14,2.8.18,4.21.02.84,0,1.68-.01,2.52-.02.29-.05.58-.09.86-.07.38-.18.86-.37,1.2-.31.56-.62,1.02-1.1,1.45-.54.48-1.17.73-1.88.82-.04,0-.07,0-.11.01-.39.38-.89.66-1.53.8-1.21.27-2.45-.16-3.27-1.07-.01-.01-.02-.03-.03-.04-.03,0-.07,0-.1,0,.01.02.03.05.04.07.57,1.09.46,2.34-.16,3.38-.45.77-1.07,1.27-1.85,1.68-.77.4-1.64.47-2.48.64-.91.18-1.82.36-2.73.54-.83.16-1.67.31-2.5.46-.48.09-.96.18-1.44.26-.66.12-1.32.25-2,.12-.68-.13-1.29-.47-1.76-.95-.4,0-.8,0-1.19,0-1.01.65-2.22,1.14-3.4,1.14-.08,0-.15,0-.23,0Z"/>
  <path d="m310.22,129.3c-1.56-3.32-3.01-6.7-4.45-10.08-2.32-3.49,2.23-7.9,5.09-4.3,1.61,4.5,4.82,9.19,5.08,13.91-.72,2.53-4.62,2.9-5.73.47Z"/>
  <path d="m320.86,133.35c-2.47-5.5,14.21-9.68,15.98-16.82,1.78-2.26,1.59-7.86,5.55-6.96,1.34.44,2.11,1.94,1.66,3.29-2.19,7.01-6.72,13.15-13.19,16.74-3.06,1.22-6.8,7.05-10,3.75Z"/>
  <path d="m287.68,189.59c-1.37-.35-2.71-.76-3.96-1.44-1.76-.95-3.54-2.06-4.81-3.63-1.15-1.41-2.04-3-2.43-4.78-.27-1.27-.27-2.58-.04-3.86.12-.73.36-1.43.64-2.11.25-.62.62-1.18.96-1.75.28-.59.67-1.1,1.22-1.49,1.27-.89,2.66-1.67,4.07-2.33.57-.27,1.14-.51,1.72-.72.46-.73,1.18-1.28,2.06-1.45,3.32-.63,6.76-.42,9.98.64,2.11.7,4.13,1.8,5.8,3.27,1.83,1.62,3.38,3.76,3.77,6.04.15.94.3,1.83.31,2.79,0,.87-.15,1.74-.38,2.58-.38,1.42-1.12,2.81-2.09,3.91-1.07,1.21-2.35,2.22-3.81,2.92-.73.34-1.5.64-2.25.93-.74.28-1.5.51-2.28.69-1.24.28-2.52.41-3.8.41-1.59,0-3.17-.21-4.7-.6Zm4.95-5.24c.5-.02.99-.06,1.48-.13.47-.08.94-.18,1.4-.31.43-.14.85-.29,1.27-.45.1-.05.2-.1.3-.16.34-.23.68-.48,1.01-.74.45-.37.88-.76,1.29-1.18.16-.16.31-.33.45-.51.09-.12.17-.25.24-.38.08-.16.16-.32.24-.48.06-.16.12-.33.17-.49.04-.16.07-.32.09-.49.02-.17.02-.34.03-.51,0-.15-.02-.29-.04-.44-.01-.08-.03-.16-.05-.24l-.26-.56c-.13-.3-.28-.59-.44-.87-.14-.21-.28-.41-.43-.61-.19-.23-.4-.45-.61-.66-.25-.24-.52-.46-.79-.67-.34-.25-.7-.48-1.07-.69-.4-.22-.82-.41-1.24-.59-.5-.19-1-.35-1.51-.49-.55-.13-1.11-.24-1.67-.32-.63-.07-1.26-.1-1.89-.1-.54.02-1.07.06-1.6.13-.13.02-.26.04-.38.07-.03,0-.05.01-.08.02h0c-.11.02-.23.04-.34.05-.77.25-1.52.54-2.26.85-.94.45-1.83.97-2.41,1.29-.16.09-.31.18-.46.28l-.25.47c-.13.23-.25.47-.35.71-.06.17-.12.34-.17.52-.04.2-.08.39-.11.59-.02.19-.03.37-.03.56,0,.17.02.34.04.51.03.18.07.35.11.52.05.16.11.32.17.47.11.22.22.44.35.65.15.23.3.45.46.67.16.19.33.38.51.56.23.2.46.4.7.58.48.34.98.65,1.48.96.38.21.77.4,1.17.58.58.22,1.16.4,1.75.56.77.16,1.54.3,2.32.4.46.04.92.07,1.39.07Z"/>
  <path d="m300.82,211.18c-8.09.11-17.03-1.59-22.61-7.98-1.96-3.39-6.25-7.09-4.13-11.31-.49-6.33-1.63-16.79,5.27-19.78.24-.52.49-1.04.79-1.53.6-1.01,1.83-1.53,2.98-1.4,1.39-2.02,4.36-5.29,6.44-2.18,3.6-2.02,7.82-2.37,11.65-.77,3.36-1.81,6.81,2.03,8.97,4.28,7.34-.07,13,18.79,9.19,23.8-1.41,4.91-2.98,12.71-9.43,12.54-.37.39-.76.75-1.22,1.06-.3.21-.65.37-1.01.48-1.31,2.48-4.31,3.07-6.88,2.78Zm-11.95-21.91c1.9-.27,3.86-.22,5.77-.2.77,0,1.54.03,2.31.08.26-.22.54-.42.83-.61.74-.47,1.6-.83,2.48-1.02,1.07-1.88,2.25-3.98,4.37-4.8-1.95-20.12-25.36-9.1-15.76,6.55Z"/>
  <path d="m485.21,87.84c.38-.02.76-.05,1.14-.1.34-.06.67-.13,1-.22.23-.07.46-.16.68-.25.2-.09.4-.19.59-.31.04-.02.07-.05.11-.07.13-.26.28-.51.46-.75.13-.18.25-.36.37-.54.05-.1.1-.21.15-.31.04-.1.07-.19.1-.29.02-.11.04-.22.06-.33,0-.03,0-.06,0-.09-.1-.35-.19-.7-.28-1.05-.06-.19-.12-.37-.2-.55-.1-.21-.21-.42-.33-.63-.14-.22-.3-.43-.45-.64-.21-.25-.43-.49-.66-.72-.24-.22-.48-.42-.73-.62-.34-.24-.68-.47-1.04-.68-.39-.21-.78-.4-1.19-.57-.43-.16-.87-.31-1.31-.43-.4-.1-.81-.17-1.23-.23-.42-.04-.85-.07-1.27-.08-.32.01-.65.04-.97.08-.03,0-.06,0-.09.01h0c-.46.05-.9,0-1.32-.16-.46.15-.91.31-1.36.48-.06.03-.12.06-.18.09-.03.02-.05.03-.08.05-.04.04-.08.08-.13.12-.13.25-.27.49-.41.74-.09.16-.17.33-.24.5-.04.12-.08.24-.12.36-.03.12-.05.25-.07.37,0,.12-.01.23-.02.35,0,.13.02.26.03.38.02.11.05.23.08.34.07.19.14.39.21.58.14.3.29.59.46.87.25.38.52.75.8,1.12.17.19.34.38.52.56.22.2.44.38.68.56.34.25.7.47,1.06.69.39.21.79.4,1.2.57.45.18.91.33,1.37.46.44.11.88.19,1.33.25.42.04.84.07,1.26.07Zm-11.3.63c-1.82-1.96-3.13-4.55-3.12-7.26,0-1.43.45-2.87,1.19-4.09.36-.59.83-1.05,1.18-1.33.64-.52,1.21-1.07,1.97-1.43.63-.3,1.28-.53,1.94-.74.09-.16.2-.31.32-.45.57-.68,1.34-1.02,2.2-1.13,3.08-.41,6.36.25,9.1,1.67,2.04,1.05,3.82,2.46,5.23,4.29.62.8,1.09,1.69,1.49,2.61.21.48.36,1,.49,1.51.18.73.18,1.42.12,2.05-.06.58-.07,1.15-.18,1.73-.13.7-.36,1.37-.66,2.01-.27.6-.63,1.14-1.02,1.66-.19.25-.41.49-.64.69-.38.34-.8.56-1.26.76,0,0,0,0-.01,0-.42.27-.83.56-1.27.8-.49.27-1.01.49-1.54.68-1.37.49-2.81.69-4.26.72-4.18,0-8.42-1.64-11.28-4.73Z"/>
  <path d="m488.98,99.68c-.46-.14-.87-.35-1.23-.63-6.87,1.43-25.96-6.99-17.58-14.93,5.8-1.71,3.23,9.67,17.96,8.41,1.8-1.85,4-3.35,6.41-4.28-.48-1.36-.95-2.72-1.42-4.09-.27-.79-.54-1.59-.76-2.4-7.85-1.5-5.22-12.87,2.85-7.12,6.37-.51,12.48,24.26,3.49,21.85-2.78,1.88-6.24,3.92-9.72,3.18Z"/>
  <path d="m482.63,100.81c-8.17-2.56-15.75-10.87-15.11-19.64.95-4.51,7.82-2.39,6.11,1.88,1.97,5.93,5.31,10.65,11.62,12.3,3.56,1.66.89,7.18-2.62,5.46Z"/>
  <path d="m479.48,98.27c-.46-5.03,6.75-3.71,9.91-5.21,2.2-.76,5.11-2.76,6.66.13,1.74,4.15-4.12,5.22-6.97,6.03-3.03.3-8.26,3.32-9.6-.94Z"/>
  <path d="m481.97,101.25c-.65-3.86,4.24-3.79,6.77-4.73,2.64-.52,6.31-3.65,8.21-.33,1.73,3.88-3.47,4.83-6.1,5.78-2.83.59-7.64,3.45-8.88-.72Z"/>
  <path d="m525.27,154.15c-1.24-.24-2.46-.68-3.61-1.2-1.18-.53-2.29-1.46-3.13-2.44-.49-.57-.94-1.16-1.31-1.82-.36-.63-.66-1.29-.94-1.95-.55-1.29-.79-2.74-.85-4.13-.07-1.48.27-2.98.83-4.36.65-1.59,1.63-3.19,2.99-4.28.36-.29.73-.52,1.12-.75.77-.48,1.54-.95,2.4-1.24.54-.19,1.09-.3,1.67-.31.31,0,.61.02.9.06.65-.61,1.52-.97,2.45-.9,2.55.2,5.02,1.18,6.96,2.87,1.82,1.58,3.06,3.63,3.71,5.93.89,3.14.27,6.74-1.48,9.46-.75,1.16-1.75,2.13-2.83,2.99-1.64,1.3-3.71,1.99-5.77,2.28-.29.04-.58.06-.87.06-.75,0-1.5-.12-2.25-.26Zm1.18-6.12c.34-.03.69-.08,1.03-.12.3-.05.6-.12.9-.19.28-.09.56-.19.83-.3.18-.08.35-.17.52-.27.19-.12.37-.25.55-.39.13-.11.26-.23.39-.35.12-.14.24-.29.36-.45.17-.24.34-.49.49-.75.08-.15.15-.31.23-.46.08-.23.15-.46.22-.7.08-.35.15-.69.2-1.04.01-.14.02-.27.02-.41,0-.25-.03-.49-.06-.74-.04-.22-.09-.44-.14-.65-.07-.22-.15-.44-.24-.65-.1-.21-.21-.42-.33-.62-.11-.18-.24-.35-.36-.51-.14-.17-.29-.33-.44-.48-.17-.15-.34-.3-.52-.45-.17-.12-.35-.23-.53-.34-.22-.12-.45-.23-.68-.33-.2-.08-.41-.14-.62-.2-.21-.05-.42-.09-.64-.12-.06,0-.12-.01-.18-.02-.57-.04-1.09-.22-1.55-.5h0c-.56.33-1.15.59-1.71.91-.08.05-.15.1-.22.15,0,0,0,0,0,0-.27.29-.55.57-.83.85-.11.12-.21.24-.31.36-.14.19-.26.39-.39.59-.15.28-.28.56-.41.85-.08.22-.15.45-.21.67-.04.18-.07.36-.1.54-.01.15-.02.29-.03.44.01.26.03.52.06.77.06.31.13.62.21.93.11.31.23.62.35.92.12.25.25.49.39.73.11.17.23.33.35.49.13.15.27.3.41.45.16.14.32.28.48.42.09.07.19.13.29.19.15.08.31.15.46.23.47.17.93.33,1.41.47.12.03.24.05.36.07Z"/>
  <path d="m542.24,158.3c-5.13-.93-.71-12.02-5.67-15.7-3.78-1.61-1.67-7.36,2.15-5.29,4.91,2.02,10.34,19.89,3.52,20.98Z"/>
  <path d="m542.14,152.7c-.55-3.71-1.1-7.83-3.67-10.74-7.68,3.18-5.22-8.41,1.89-5.61,4.6,1.53,11.55,17.49,4.99,19.07-1.62.14-3.03-1.1-3.2-2.72Z"/>
  <path d="m547.52,162.69c-1.59-.05-2.83-1.51-2.75-3.07.05-.94.53-1.72,1.24-2.2.2-9.66-8.95-13.12-6.64-16.65,7.28-6.96,18.79,22,8.15,21.91Z"/>
  <path d="m543.54,160.83c-.35-1.59.69-3.38,2.35-3.68.05,0,.1-.02.16-.03,1.52-4.12-3.07-11.99,2.52-13.54,5.64.53,3.24,10.43,3.53,14.48-.12,4.06-6.94,7.74-8.55,2.76Z"/>
  <path d="m536.65,164.11c-4.09-2.77-2.19-8.39-.24-11.94,2.79-4.57,8.28.59,4.92,4.33,2.3-1.08,4.32-3.6,7-3.4,2.6.39,3.46,4.18,1.2,5.59-4.05,1.74-8.21,7.24-12.88,5.41Z"/>
  <path d="m539.57,163.51c-.1-.09-.2-.18-.29-.28-4.19,1.44-8.32-1.24-11.8-3.31-1.92-1.27-2.57-2.69-4.1-3.98-2.91-.85-6.02-1.34-8.42-3.38-2.25-1.65-2.61-5.69.37-6.76,1.62-.59,3.52.19,4.22,1.77,2.2,1.5,5.07,1.19,7.3,2.61,1.32.88,2.4,2.06,3.4,3.28,1.16.1,2.32-.8,3.23-1.44,1.27-2.11,3.2-3.79,4.57-5.84,1.38-2.96,6.01-2.14,6.23,1.1,1.09.57,1.81,1.72,1.78,3.08,0,.01,0,.02,0,.03.55.84.64,1.85.38,2.84-.03.1-.06.19-.09.29,1.5.52,2.38,1.95,2.74,3.42.68.72,1.03,1.72.82,2.79-.16,1.15-1.15,1.79-1.73,2.7-2.01,2.44-6.14,2.96-8.63,1.07Z"/>
  <path d="m551.97,156.25c.03-.58.52-.96,1.07-.96s.99.54.96,1.07c-.03.58-.52.96-1.07.96s-.99-.54-.96-1.07Z"/>
  <path d="m533.42,158.4c-.66-3.54,3.44-3.54,5.83-4.15,1.88-.89,4.44-2,5.7.42,2.59,4.61-10.67,8.39-11.54,3.73Z"/>
  <path d="m406.71,215.11c-8.69-.75-17.27-3.49-24.76-7.98-7.14-3.85-9.26-6.55-10.29-14.69-.49-2.72,3.45-3.6,4.11-.91.31,2.06.83,4.32,1.43,6.29,1.86,3.42,6.03,4.72,9.22,6.6,18.75,9.29,41.76,7.12,59.89-2.66,2.82-1.5,5.96-2.61,8.22-4.94,3.2-3.4,5-8.86,2.99-13.26-2.82-3.24,1.89-7.52,4.84-4.41,5.48,7.61,1.45,18.99-5.8,24.01-8.59,5.07-18.03,9.24-27.85,11.07-7.29,1.19-14.73,2.23-22.06.89,0,0,.07,0,.07,0Z"/>
  <path d="m543.15,187.24c-3.79-.71-12.73.43-11.93-5.39.51-1.54,2.26-2.47,3.82-1.93,11.59,2.56,28.68,1.75,34.68-10.24,2.06-3.31-2.41-6.6.36-9.4,8.19-3.79,7.75,10.86,4.04,14.88-6.53,10.18-19.75,12.24-30.96,12.09Z"/>
  <path d="m569.58,153.17c-2.14-5.4-9.23-8.93-9.93-14.45.65-3.65,7.09-3.17,6.45.78,2.23,3.61,12.22,10.89,7.32,14.87-1.33.69-3.19.2-3.84-1.2Z"/>
  <path d="m520.6,174.13c-2.24-2.07-4.4-4.18-6.12-6.7-.85-1.25-1.65-2.54-2.44-3.83-1.06-1.78.95-4.1,2.86-3.38.61.2,1.04.62,1.34,1.11.95,1.53,1.93,3.07,3.04,4.5,1.38,1.63,2.93,3.11,4.52,4.52,2.42,2.16-.7,5.84-3.2,3.78Z"/>
  <path d="m464.84,114.18c-.19-.19-.39-.38-.58-.57-.72-.69-1.44-1.37-2.21-2.01-2.88,1.06-4.82-3.08-2.73-5,3.48-2.73,7,1.83,9.39,4.04,2.31,2.47-1.58,6.05-3.88,3.54Z"/>
  <path d="m486.36,118.24c.03-.55.5-.93,1.04-.93s.95.52.93,1.04c-.03.55-.5.93-1.04.93s-.95-.52-.93-1.04Z"/>
  <path d="m499.59,118.87c-4.87-1.76-24.93,2.5-22.17-5.92.86-1.33,2.55-1.59,3.59-.98,11.13.19,26.01,4.27,34.47-5.14,4.24-2.97,7.22-9.2,2.17-12.95-2.78-2.95,1.92-7.25,4.64-4.23,13.61,13.41-8.27,31.55-22.7,29.22Z"/>
  <path d="m518.97,83.99c-1.63-2.2-3.24-4.44-5.2-6.37-.83-.79-1.68-1.82-1.6-3.04.07-3.37,5.36-3.85,4.85-.08,2.17,1.91,4.04,4.13,5.87,6.37.87,1.05.88,2.59-.16,3.54-1.11,1.01-2.87.8-3.75-.41Z"/>
  <path d="m344.47,139.44c-2.96-1.7.16-4.92.76-7.16,1.19-2.4,2.41-9.35,6.28-6.87.9.77,1.12,2.32.26,3.21-.56.8-.86,1.77-1.27,2.66-.92,2.4-1.84,4.79-2.98,7.1-.55,1.13-1.95,1.62-3.06,1.07Z"/>
  <path d="m313.21,151.04c-10.03-1.77-22.86-7.08-24.4-18.43-.33-2.6.63-6.48,3.98-5.9,1.64.31,2.93,2.02,2.53,3.71-.79,8.37,10.03,12.3,16.67,14.1,6.22,2.1,12.45-1.38,18.6-1.26,8.78,6.4-13.68,8.34-17.38,7.79Z"/>
  <path d="m282.3,123.19c-2.99-2.09,1.41-6.09,2.86-7.98,2.3-2.06,5.24-3.31,7.7-5.2,2.53-1.67,5.11,2,2.66,3.79-2.63,2.11-6.09,3.26-8.15,5.99-1.25,1.63-2.5,4.95-5.06,3.41Z"/>
  <path d="m305.82,231.21c-4.36,0-8.7-.37-13.05-.66-5.24-.17-10.72-1.04-15.22-3.88-2.37-1.67-4.39-3.84-6.37-5.94-2.68-2.87-5.59-5.72-6.98-9.48-.73-2.22-2.08-6.57,1.3-7.09,1.28-.11,2.48.88,2.57,2.18.03,2.47,1.07,4.79,2.62,6.68,2.7,3.14,5.62,6.11,8.85,8.72,5.19,3.49,11.79,3.17,17.78,3.59,6.52.55,13.24.74,19.2-2.38,2.19-1.01,4.4-2.11,6.16-3.79,1.5-1.61,2.45-3.63,3.36-5.62.67-1.45,2.49-2.06,3.92-1.38,1.41.68,2.11,2.5,1.38,3.92-1.23,2.39-2.53,4.87-4.39,6.84-1.94,2.05-4.5,3.49-7.04,4.66-4.42,2.04-9.17,3.69-14.1,3.6Z"/>
  <path d="m334.84,203.44c-2.33-4.03-3.85-8.49-4.07-13.16-.13-1.25.88-2.38,2.11-2.48,1.27-.11,2.36.86,2.48,2.11.18,4.07,1.52,7.9,3.55,11.41,1.33,2.69-2.59,4.77-4.07,2.13Z"/>
  <path d="m256.58,194.22c-2.5-1.77.08-4.04,1.1-5.83,1.44-1.97,1.75-7,5.17-5.71,2.86,1.64-.04,4.92-.76,7.06-1.15,1.94-2.63,6.09-5.52,4.47Z"/>
  <path d="m371.03,167.81c.03-.57.51-.95,1.06-.95s.98.54.95,1.06c-.03.57-.51.95-1.06.95s-.98-.54-.95-1.06Z"/>
  <path d="m366.39,176.18c-1.05-.5-1.58-1.86-1.03-2.92,2.1-3.73,3.89-8.26,7.77-10.45,2.83-1.07,3.74,1.85,3.49,4.11.02,1.55-.03,3.11-.05,4.66-.02.89-.86,1.58-1.71,1.54-2.46-.36-1.25-3.54-1.49-5.24-1.64,2.26-2.82,4.8-4.06,7.29-.52,1.08-1.86,1.54-2.92,1.03Z"/>
  <path d="m458.94,167.69c-1.2-2.33-6.37-6.88-3.8-9.27,1.36-1.3,4.01-.3,4.2,1.55,1.19,1.65,2.44,3.25,3.67,4.86,1.84,2.68-2.15,5.5-4.08,2.86Z"/>
  <path d="m405.33,110.08c.04-.63.57-1.05,1.18-1.05s1.09.59,1.05,1.18c-.04.63-.57,1.05-1.18,1.05s-1.09-.59-1.05-1.18Z"/>
  <path d="m400.12,102c.04-.63.57-1.05,1.18-1.05s1.09.59,1.05,1.18c-.04.63-.57,1.05-1.18,1.05s-1.09-.59-1.05-1.18Z"/>
  <path d="m592.05,142.58c-6.25-3.87-11.94-9.76-15.52-16.09-2-3.36-4.34-6.59-5.4-10.41-2.63-8.1-5.07-16.27-7.7-24.36-1.75-5.03-2.96-10.53-8.74-12.18-2.94-1.22-5.94-2.31-8.97-3.31-2.27-.67-4.64-1.44-6.36-3.14-4.21-4.49-6.03-10.65-7.03-16.58-1.34-4.83-6.33-6.77-10.62-8.25-6.03-2.55-12.78-2.63-18.85-5-3.07-1.38-6.05-2.87-9.36-3.63-4.46-.79-8.93-1.86-13.47-1.98-8.53.42-15.51,6.36-21.49,11.92-6.16,6.09-10.57,13.63-15.68,20.56-3.52,4.74-7.69,8.27-11.84,12.3-6.21,6.45-13.49,11.63-21.03,16.39-6.96,3.51-13.61,6.32-20.69,9.32-7.51,2.72-15.51,3.76-23.41,4.61-4.69.1-9.39-.65-13.98-1.52-2.86-1.38-6.06-1.54-9.14-1.94-3.68-1.07-2.44-6.76,1.47-4.89,3.29-.4,6.62.39,9.78,1.19,5.3.42,10.8,1.5,16.07.32,4.35-.67,8.75-1.19,13-2.39,5.5-1.45,10.43-4.3,15.68-6.37,5.31-2.19,9.72-4.59,14.22-7.97,6.48-4,11.77-9.51,17.23-14.75,7.47-6.36,12.13-15.04,17.82-22.86,5.21-6.8,11.77-12.53,19.13-16.9,7.61-4.42,15.56-4.15,23.86-2.22,4.85.64,9.48,2.26,13.83,4.48,6.41,2.41,13.49,2.56,19.79,5.37,5.9,1.84,11.76,5.42,13.81,11.57,1.25,5.04,1.96,10.54,5.61,14.54,1.14.88,2.61,1.16,3.96,1.6,3.84,1.3,7.67,2.68,11.36,4.36,4.72,2.1,7.3,6.36,8.87,11.09,2.86,7.82,5.04,15.85,7.68,23.74,1.66,7.09,5.55,13.26,9.78,19.09,3,3.5,6.11,6.34,9.95,8.74,3.53,2.33.23,7.89-3.61,5.57Z"/>
  <path d="m585.83,422.26c.55-5.6,8.62-7.22,11.2-12.16,10.88-10.03,18.95-22.35,29.17-32.96,9.83-12.01,13.34-27.88,19.72-41.72,5.31-21.58,17.16-41.71,17.44-64.33,1.24-28.73,2.84-58.59-13.05-83.97-11.34-26.16-25.42-30.14-49.65-40.55-3.42-2.88-14.92-6.04-12.57-11.34.91-1.41,2.78-1.75,4.18-.89,6.85,4.65,14.32,8.56,22.05,11.4-.05-.02-.1-.04-.15-.06,23.21,6.04,36.83,24.6,45.61,45.79,9.88,17.44,11.34,37.39,10.78,57.02-.61,13.79.41,27.9-2.89,41.4-9.36,28.75-17.84,58.18-31.61,85.16-13.96,16.48-26.65,34.85-43.79,48.18-1.22,3.19-6.26,2.47-6.46-.97Z"/>
  <path d="m394.11,457.75c-.34.29-.69.57-1.03.86-.2.12-.39.25-.59.37.54-.41,1.08-.82,1.62-1.23Z"/>
  <path d="m249.82,402.16c-32.37-32.29-49.69-61.17-64.48-104.23-6-15.22-8.98-31.87-7.73-48.21,1.39-5.86.39-19.23,7.33-20.8,2.8.06,4.05,4,1.72,5.61-7.86,27.48,1.45,55.09,12.41,80.25,11.02,33.19,33.55,60.57,57.77,85.13,14.45,12.62,31,22.68,45.7,35.08.7.6,1.66,1.19,2.61,1.81-.22.25-.39.54-.53.85-.24.56-.44,1.15-.61,1.75-.14.29-.27.59-.38.87-.31.8-.69,1.65-.79,2.5-.02.19-.03.38-.02.57-17.51-13.89-36.67-25.96-52.99-41.18Z"/>
  <path d="m351.39,453.87c.03-.57.51-.95,1.05-.95s.97.53.95,1.05c-.03.57-.51.95-1.05.95s-.97-.53-.95-1.05Z"/>
  <path d="m418.54,474.53c-18.29-.06-36.89-2.05-54.51-6.97-7.92-2.74-18.06-3.62-24.04-9.77-2.83-5.29,7.93-8.66,7.77-2.3,38.43,13.92,80.82,16.05,120.78,8.66,29.99-1.69,59.05-10.82,86.91-21.49,9.3-4.36,11.41,5.22,1.23,7-28.08,10.61-57.58,19.78-87.71,21.37-16.68,2.97-33.48,5.31-50.44,3.48Z"/>
  <path d="m203.56,201.49c4.37-11.65,26.17-6.72,33.18-20.46,7.2-12.62-5.93-22.15-1.94-34.64,3.84-16.92,20.39-27,35.72-32.37,7.51-4.77,14.53-9.95,23.94-9.66,3.61,0,11.43,1.19,10.3,6.16-1.51,5.39-11.16-2.2-19.99,2.61-12.89,9.76-31.35,12.3-40.24,27.08-7.35,12.02-1.41,16.6,1.14,27.77,1.2,24.46-15.67,27.44-34.2,33.92-2.21,2.4-7.21,4.14-7.9-.41Z"/>
  <path d="m334.04,272.98c-8.42.22-15.88-5.51-15.66-14.31-3.61-5.99,5.96-7.08,6.15-.58.32,13.05,19.44,8.69,26.66,3.95-2.73-3.53,2.89-7.69,5.42-4,6.48,12.2-14.42,14.92-22.58,14.95Z"/>
  <path d="m435.41,314.67c-19.42-.17-34.82-13.01-52.61-17.73-20.59,0-40.24,15.81-60.99,7.87-9.98-6.2-21.75-8.76-33.37-9.54-6.49.36-14.37,2.83-18.73-3.62-12.4-13.92,12.45-32.57,24.45-36.94,7.81-1.56,15.83,2.54,23.36.16,7.3-4.24,15.36-4.74,23.53-6.35,9.45-2.12,18.96,1.85,27.25,6.11,15.46,9.16,35.38,9.52,52.14,3.38,17.68-10.95,38.42-9.44,56.98-1.64,22.1,11.97,40.02-14.15,62.15-13.88,8.3-.55,17.61-1.43,24.89,3.31,10.26,7.97,9.81,25.98-4.52,28.82-13.46,5.02-27.86,5.41-41.48,9.43-37.85,13.23-29.81,32.32-83.05,30.61Zm2.29-6.73c46,2.11,43.38-18.71,78.11-30.13,13.49-4.35,27.91-4.42,41.32-9.39,9.69-1.18,9.63-12.51,2.83-17.47-8.69-3.44-18.82-2.1-27.75-.21-11.39,2.26-20.01,10.22-30.82,13.76-18.2,7.6-34.63-8.49-52.91-7.78-11.5-.28-20.55,6.36-31.01,9.61-20.02,5.84-40.84,2.03-58.55-8.35,3.43,3.1-1.01,8.4-4.15,4.64-2.59-4.56-8.2-6.59-13.26-6.35-6.56.03-12.81,1.47-18.71,4.3-2.44,1.19-4.73,3.04-7.7,2.13-9.23-.74-19.76-4.44-27.29,2.96-6.59,4.42-22.99,18.65-9.48,23.69,14.01-1.83,28.92.43,41.59,6.76,19.62,12.11,40.68-6.2,61.1-5.84,8.24-.56,15.41,4.49,22.55,7.87,10.58,5.28,22.17,9.56,34.11,9.81Z"/>
  <path d="m451.62,311.16c-2.22-20.29-5.12-14.65-21.14-14.77-4.79-.84-9.19-3.22-14.02-3.85-6.87-1.21-6.98,8.83-11.9,11.05-3.28.71-4.96-3.49-2.61-5.65,6.09-15.17,15.58-12.99,28.55-8.19,9.78,1.13,19.58-5.19,24.82,7.43,1.1,3.96,5.87,15.86-.17,16.98-1.78.16-3.33-1.21-3.52-2.98Z"/>
  <path d="m512.88,272.34c-3.27-.77-7.37-2.85-8.55-6.06-.47-2.26,1.88-4.15,3.98-3.16,4.27,4.94,10.1,2.95,15.59,1.37,5.52-1.03,9.32-4.45,7.39-10.33-.78-2.62-2.33-5.95,1.03-7.26,5.5-1.31,5.37,6.74,5.7,10.37.85,12.59-15.61,14.89-25.14,15.07Z"/>
  <path d="m504.78,263.49c-.44-5.09,7.72-3.24,5.3,1.1-1.35,2.1-5.15,1.62-5.3-1.1Z"/>
  <path d="m506.25,273.69c-.57-2.64-2.28-5.34-1.66-8.07.67-1.8,2.79-2.63,4.45-1.56,2.06,1.83,1.6,5.17,2.81,7.58,1.33,3.62-4.33,5.69-5.6,2.05Z"/>
  <path d="m508.52,281.68c-1.07-.9-1.26-2.41-.69-3.62-2.18-.73-4.4-3.63-3.48-6.04.1-2.54.7-5,1.31-7.46.65-2.89,4.94-2.08,4.43.84-.31,1.23-.61,2.47-.85,3.72,3-.52,6.06-.52,9.09-.62,5.19-1.13,10.44-2.04,15.72-2.57-.47-1.61-.12-3.37.51-4.89-.23-3.34-2.07-6.6-1.52-9.95.43-2.33,3.32-3.54,5.23-2.1,1.05-1.26,2.98-1.62,4.38-.71,2.51-2.15,6.24-1.3,7.71,1.61.03,0,.06,0,.09,0,5.55-6.28,16.72.1,14.02,8.04,2.23,1.79,3.42,5.27,1.29,7.58-.87,1.05-2.25,1.61-3.48,2.12-2.22.83-4.39,1.73-6.7,2.3-7.1,1.9-14.24,4.15-21.64,4.21-5.45,1.84-10.7,4.18-16.05,6.27-2.92.85-6.49,3.31-9.37,1.3Z"/>
  <path d="m338.61,301.41c-1.73-.03-3.45-.22-5.16-.46-1.67.39-3.69.58-4.99-.71-3.77-.44-7.69-.46-11.24-1.95-1.65-.92-3.34-1.91-4.8-3.12-.93-.13-1.78-.53-2.45-1.18-.2-.03-.4-.06-.6-.09-1.22-.2-2.51-.41-3.57-1.08-3.4-.19-10.47,2.11-10.91-2.95-1.02-.09-2.01-.33-2.75-1.04-2.79.61-5.62,1.13-8.37,1.9-1.45.43-3.05.74-4.42-.09-1.02,1.39-2.79,2.24-4.5,1.73-2.39-.66-3.18-3.36-3.96-5.43-.99-5.14,1.6-11.56,6.85-13.24,2.71-2.84,4.8-7.37,9.1-7.84,1.1-.77,2.24-1.5,3.4-2.19.83-1.04,1.9-1.94,3-2.63,3.47-2.07,8.21-3.13,11.85-.91,3.2-.77,6.98-.17,9.38,2.19,2.92-.51,5.82.65,8.03,2.51,3.34.83,5.76,3.49,7.42,6.37,6.24-.6,12.53.22,18.67-1.28,1.04-3.69,3.42-7.15,6.73-9.12.19-3.4,3.91-4.18,6.35-2.36,3.57-2.56,9.04-.42,9.96,3.87.11.01.22.02.33.04,1.42-2.26,4.26-1.16,6.44-1.27,4.67.07,9.68-1.26,14.16.41,3.74-.54,7.49-1.57,11.28-1.44,2.46.11,4,3.03,2.62,5.08,3.31-.32,6.62-.57,9.94-.73,3-.16,8.19-.79,8.14,3.55-.06,1.53-1.28,2.89-2.81,3.11.47,3.23-2.95,4.1-5.39,4.77-3.33,1.01-6.68,2.02-10.01,3.03-.44,5.49-16.27,7.48-20.91,8.56-4.32,1.42-8.65,2.99-13.07,3.97-3.45,1.05-6.89,2.16-10.36,3.14-1.06.26-2.26.47-3.26-.07-.79,3.24-4.98,3.04-7.53,4.12-.89,1.61-2.96,1.79-4.61,2.07-2.64.39-5.33.86-8.01.76Zm14.59-16.75c.11-.47.33-.89.6-1.32.03-.04.06-.09.09-.13-.33.35-.72.64-1.16.88.18.18.34.37.48.56Z"/>
  <path d="m460.78,309.47c-1.24-.25-2.37-.86-3.2-1.83-.39-.46-.72-.95-1-1.47-7.12,1.22-4.64-9.03-5.03-13.29.46-5.5-2.16-11.83.01-16.93-.02-.03-.04-.06-.07-.1-.32-.47-.5-1-.58-1.54-1.06-.61-1.72-1.85-1.65-3.07.02-.45.14-.89.34-1.28-3.68.21-7.63.79-11.19-.37-7.74,1.14-17.6,7.68-24.76,2.84-2.17-2.94.42-6.22,3.25-7.42-10.13.56-19.85,5.94-30.11,4.45-1.12,1.27-.63,3.32-2.14,4.31-6.84,2.55-4.32-7.79-.38-9.64,9.49-5.66,21.37-3.74,31.78-6.6,11.1-3.61,23.7-10.64,34.49-2.34,2.69-.3,6.06-.71,8.12,1.44,6.81,1.05,13.33,3.48,20.15,4.4,7.39,1.81,15.39.57,22.38,3.63,1.05-3.92,6.46-2.92,7.51.51,3.17-1.13,7.59,1.02,5.61,4.75.05.72-.11,1.46-.41,2.12.21.22.39.47.54.76.44.84.47,1.74.2,2.54,2.36,1.79,1.05,5.08-1.24,6.25-4.35,6.03-13.99,6.58-20.54,9.7-8.48,4.66-15.68,11.68-24.54,15.46-2.24,1.44-4.79,3.17-7.57,2.73Zm4.05-10.06c-.25.56-.5,1.12-.79,1.66-.15.29-.31.57-.5.84.65-.41,1.3-.84,1.94-1.27-.29-.46-.46-1.01-.5-1.57-.05.11-.1.23-.15.34Z"/>
  <path d="m463.99,307.04c-4.06-3-.35-9.07.35-13.02,1.51-4.02,7.16-1,5.11,2.65,6.43,1.18-1.4,12.43-5.47,10.36Z"/>
  <path d="m398.62,298.7c-1.62-.47-3.03-1.46-4.63-1.97-1.71-.49-2.59-2.53-1.95-4.14-1.19-.05-2.33-.68-3.02-1.65-1.5.98-3.59,1.82-5.13.51-2.76.01-5.45,1.17-8.09,1.97-1.48.42-2.9,1.35-4.49,1.07-1.83-.33-3.05-2.38-2.38-4.12-6,1.38-11.62,4.11-17.58,5.57-3.22.39-5.05-3.86-2.37-5.83-3.14.78-6.26,1.7-9.43,2.36-3.56.7-5.34-4.13-2.14-5.86,1.72-.81,3.58-1.28,5.36-1.94-.55-3.48,3.75-4.34,6.22-5.32,3.57-1.25,7.15-2.48,10.73-3.7,5.77-1.96,11.56-3.86,17.42-5.54,2.73-.65,7.32-2.69,8.38,1.24,4.02-.49,8.14-.41,12.04-1.57,1.21-.38,2.4-.75,3.67-.91,2.85-.4,5.21,2.06,4.25,4.89,1.52-.65,3.22-.63,4.84-.83-.86-4.48,4.46-3.97,7.38-4.33,2.19-3.28,7.93-2.01,11.4-2.42,4.42-.1,8.84-.19,13.26-.3,7.21-.7,14.42-1.29,21.64-1.85,2.43-.19,4.87-.48,7.3-.55.7-.02,1.35.11,1.95.49,1.33.83,1.8,2.69,1.05,4.05,0,.01,0,.02,0,.03,1.5-.05,3.19-.52,4.55.33,1.72,1.11,1.62,3.86-.36,4.6-2.02.81-4.26.98-6.39,1.37-.74,2.1-3.07,3.14-5.11,3.54-.24.98-1,1.89-1.97,2.2-.42.13-.83.24-1.24.32-.09.13-.19.25-.3.36.04.16.06.33.07.49.55.37.98.9,1.21,1.53.34.94.19,2.07-.37,2.91,1.61,2.12-.26,5.12-2.79,5.11.1,1.14-.57,2.37-1.6,2.9-3.37,2.94-8.3.4-11.96-.73-2.99.05-7.46,1.55-9.21-1.74-1.25.12-2.58.18-3.73-.35-.21-.1-.41-.22-.59-.36-2.22.36-5,1.47-6.94-.16-.53.03-1.04-.02-1.56-.21-.7-.27-1.3-.7-1.7-1.34-1.76.15-3.72.37-5.25-.69-.18.03-.37.05-.55.07-.87.11-1.84.29-2.72.09-3.46,3.35-6.69,6.9-9.72,10.64-1.14,1.28-2.38,2.97-4.24,3-1.7,0-3.31-1.49-3.21-3.25Zm-25.12-18.57c.69.74.92,1.7.76,2.62,5.17-.92,10.4-1.64,15.66-1.85,2.77.33,4.08-2.61,5.87-4.23-7.64.89-15.36,1.28-22.9,2.88.22.17.42.37.61.58Z"/>
  <path d="m369.28,584.07c-18.61-4.06-10.71-24.79-6.66-37.29,2.83-14.56,4.62-29.38,5.64-44.18,1.1-11.54.91-23.67,2.22-34.9,10.05-6.25,3.94,23.81,4.67,28.6-.99,18-2.69,36.02-6.55,53.56-11.68,33.5-1.17,27.43,26.34,26.59,39.42-.12,23.98-18.17,18.23-43.74-1.46-13.19-3.59-26.16-5.04-39.33-.06-5.19-5.36-18.53,1.98-19.76,5.48,1,2.19,8.5,3.62,12.37,3.13,17.77,3.86,35.96,7.81,53.49,21.69,49.17-17.52,42.73-52.25,44.6Z"/>
  <path d="m512.95,577.83c-35.28-1.59-42.58-20.14-39.8-52.29,2.02-17.12.27-34.19,1.52-51.35-5.29-2.63,1.93-10.11,4.69-4.44,2.76,11.65-.93,24.11,1.62,36.01-.27,15.49-3.68,31.49.21,46.79,4.41,21,38.15,21.19,54.6,16.12,13.34-9.88-16.58-54.9-20.15-69.3-4.18-11.77-7.87-24.58-6.42-37.16.28-1.83,2.21-3.05,3.98-2.71,4.61,1.18,1.86,6.78,2.38,10.12,1.8,18.9,9.5,36.67,17.87,53.51,6.41,11.63,11.87,24.25,12.31,37.72,2.35,17.87-20.49,17.5-32.82,16.96Z"/>
  <path d="m720.22,548.61c-17.81.19-32.45-12.1-42.81-25.59-23.29-33.56-20.49-76.39-23.09-115.29.01-21.22-2.53-42.13-5.05-63.11-.41-4.69-5.62-13.62.12-16.13,7.22-2.38,7.83,32.36,8.95,37.66,7.34,49.03-3.38,102.79,21.21,147.95,7.01,11.26,17.16,20.62,29.26,26.12,10.25,3.54,36.91,2.88,23.43-13.5-8.9-10.27-23.04-14.46-31.57-25.2-22.54-26.23-23.59-63.07-24.3-96.03,0-23.42-3.17-46.5-4.7-69.79-1.42-22.01-1.79-44.08-4.3-66-1-10.14-3.83-20.72.02-30.58,1.1-3.32,6.44-1.77,5.29,1.74-4.35,13.61,2.62,27.86,2.36,41.77,2.56,24.42,1.92,49.14,5.03,73.54,5.37,40.94-1.85,84.53,14.21,123.45,10.3,23.93,26.18,26.5,42.6,42.23,13.82,13.87.38,29.64-16.67,26.77Z"/>
  <path d="m163.61,569.55c-3.02-.05-5.91-.88-8.58-2.26-2.74-.74-5.61-1.36-7.79-3.32-11.39-10.12-4.33-30.09.59-42.06,3.46-7.02,8.32-13.23,12.36-19.92,2.81-5.15,5.23-10.51,6.67-16.22,3.43-10.74,4.58-21.97,6.71-32.99,2.44-11.93,3.82-24,4.72-36.13.79-9.06,2.41-18.02,2.95-27.11,1.5-21.24,1.73-42.7,1.63-63.98-1.22-17.97-1.09-36.28-3.88-54.08-.17-1.5-1.12-2.81-.92-4.36.18-1.3,1.57-2.15,2.81-1.91,1.11.21,1.82,1.12,1.93,2.17,4.77,17.22,3.72,35.41,5.68,53.06,1.15,20.96-.04,41.95-.54,62.9-.64,13.98-2.88,27.79-3.89,41.74-.74,12.05-3.18,23.88-5.34,35.73-2.58,17.29-6,35.29-16.32,49.8-3.26,5.22-7.05,10.15-9.42,15.85-3.29,8.58-10.78,29.69,1.25,33.86,2.85.35,5.2,2.2,8.05,2.49,9.28,1.14,17.58-4.65,24.33-10.36,6.81-7.65,10.4-17.25,13.3-26.91,2.56-7.56,4.65-15.27,5.19-23.26.46-3.74,1.04-7.47,1.16-11.24-.49-8.73-2.04-17.38-2.38-26.12-.46-10.02.3-20.03.81-30.03-.28-6.05-1.66-12.03-1.21-18.12.24-5.52,1.23-10.97,1.93-16.45.81-5.16.61-10.42,1.61-15.56.7-4.15,2.15-8.11,3.24-12.16,1.25-4.98,2.52-10.73,4.43-15.3.59-1.32.9-2.77,1.66-3.99,1.04-1.48,3.04-2,4.61-.98,3.03,2.07.56,5.36-.21,7.73-2.08,5.22-3.07,10.71-4.55,16.09-2.05,6.1-3.39,12.39-3.53,18.84-.43,5.77-1.46,11.48-2.17,17.21-1.52,8.93,1.38,17.75.68,26.66-.76,10.24-1.15,20.67-.34,30.84,1.01,10.68,3.15,21.37,1.01,32.05-.69,11.35-4.26,22.16-7.9,32.84-1.53,4.41-3.37,8.9-5.74,12.89-3.3,5.96-7.68,11.29-13.55,14.84-6.13,4.31-13.41,7.64-21.05,7.19Z"/>
  <path d="m639.34,160.54c-2.64-1.64-1.14-5.74,1.94-4.28,0,0,0,0,0,0,6.87-5.98,6.62-15.75,9.43-23.69,3.03-5.95,7.99-11.74,14.26-14.34,2.69-1.65,5.81-2.5,8.83-1.15,1.5.53,2.37,2.15,1.86,3.69-.98,2.46-3.04,2.15-5.12,1.47-1.54.2-2.86,1.4-4.37,1.84-2.18.99-3.84,2.81-5.55,4.44-2.19,2.39-4.38,5.02-5.28,8.19-1.74,7.16-3.43,14.83-8.3,20.59-1.86,2-4.83,4.84-7.7,3.25Z"/>
  <path d="m720.75,239.04c-6.75-.06-9.98-7.49-12.43-12.76-1.36-2.99-1.54-6.35-2.81-9.37-1.17-2.82-3.95-4.3-6.72-5.15-1.87-.91-3.83-1.56-5.8-2.23-3.16-1.22-6.49-1.89-9.78-2.64-1.65.04-3.36.4-4.97-.22-5.26-2.02-8.2-7.25-9.29-12.53-1.69-.85-3.62-.15-4.98,1.02-3.2,2.76-7.41-1.85-4.34-4.77,2.23-1.89,5.21-3.37,8.19-3.05,6.49.56,7.01,3.87,8.57,9.24,1,1.56,2.43,3.8,4.38,4.08,2.21-.35,4.39-.03,6.51.65,5.89,1.13,11.41,3.54,16.95,5.73,6.38,3.12,7.99,8.94,9.22,15.38,1.35,3.44,3.46,10.52,7.67,10.78.05-5.35-.02-10.64-.34-15.9.07-4.1-2.26-8.19-5.22-10.91-2.19-1.67-4.97-2.17-7.5-3.12-3.18-1.28-7.02-1.58-9.55-4.08-1.28-1.48-2.31-3.16-3.39-4.79-2.26-3.44-4.15-7.21-4.74-11.32-.4-5.97-2.02-12.12-9.2-12.05-3.07-.68-6.29.6-9.26-.4-2.06-.93-2.12-3.91-.45-5.27,2.52-2.08,5.95-1.93,9.02-2.18,3.5-.67,7.05-1.91,9.8-4.23-.11-2.59-1-5.37.75-7.64,3.02-3.89,7.43-6.48,10.94-9.91-8.19-1.87-7.72.26-13.58,4.8-4.89,3.52-9.66,7.25-15.12,9.87-3.21,2.03-6.87,2.76-10.62,2.19-6.71-.35-14.14-1.48-20.04,2.5-1.94,1.19-3.73,2.58-5.54,3.95-.75.57-1.87.32-2.39-.42-.55-.79-.32-1.82.42-2.39,7.27-5.94,12.15-8.34,21.73-7.8,3.75-.05,7.77,1.03,11.36-.32,6.14-3.09,11.33-7.31,16.79-11.37,3.12-2.37,5.34-6.42,9.49-7.03,3.47-.72,11.1-.06,13.48,2.69,2.73,3.27-.79,6.67-3.31,8.71-2.88,2.77-6.54,4.9-8.96,8.08,1.46,7.18-1.28,9.14-7.4,12,3.44,1.87,5.76,5.41,6.85,9.1.76,2.8.62,5.77,1.47,8.55,1.22,3.9,3.61,7.31,5.98,10.59,6.91,3.54,16.35,3.52,20.46,11.29,1.37,2.24,2.65,4.65,3.22,7.23.48,4.64.56,9.04.62,13.48-.25,5.01,1.79,13.4-6.17,11.94Z"/>
  <path d="m660.13,157.33c-.52-.44-.79-1.03-.88-1.7-.29-2.11-.49-4.22-.65-6.34-.58-6.24,1.62-12.7,5.96-17.23,3.11-2.85,7.59-4.98,8.09-9.68-2.37.08-6.03,3.38-7.51.26-.39-1.07.17-2.32,1.25-2.7,2.47-.72,5.06-2.29,7.69-1.58,3.15.96,3.2,4.78,2.23,7.37-.54,1.79-1.5,3.48-2.71,4.91-2.05,2.38-5.04,3.73-6.8,6.4-4,5.27-3.55,12-2.57,18.18.29,2.14-2.54,3.56-4.11,2.11Z"/>
  <path d="m728.44,151.63c-4.85-.97-11.21-1.84-14.86-5.14-3.63-5.58,5.49-7.94,9.42-9.08,5.81-2.34,17.31-7.27,19.03,2.22.55,6.98-7.25,12.01-13.59,12Zm.97-5.87c2.7-.25,5.64-1.73,6.9-4.22-.05.13-.09.22-.13.33.29-.62.49-1.33.27-2-5.17-1.18-9.76,2.92-14.78,3.76,2.54.81,5.05,2.03,7.75,2.13Z"/>
  <path d="m667.86,99.53c-2.7-4.66,5.41-7.53,7.1-11.42,2.17-3.18,2.97-7.08,5.34-10.19,11.69-15,27.51,10.31,10.34,17.12-3.52,1.26-15.06,6.88-17.37,3.34-1.32,1.64-3.65,3.06-5.4,1.15Zm12.83-9.31c-.53.79-1.12,1.54-1.74,2.27,5.43-1.04,17.91-4.89,11.34-11.97-5.64-3.74-7.07,6.48-9.6,9.71Z"/>
  <path d="m700,249.72c-9.6-1.47-8.35-13.95-13.23-20.27-1.24-2.03-2.74-3.93-4.88-5.07-4.49-5.28,3.09-8.07,7.7-1.27,14.82-5.56,29.91,25.19,10.4,26.61Zm1.27-5.89c5.55-4.34-1.11-12.43-5.85-14.64.06.02.11.05.17.07.01,0,.02,0,.2.08-.77-.27-1.6-.33-2.41-.37,3.31,4.1,2.34,13.55,7.94,14.84-.03,0-.06,0-.05.01Z"/>
  <path d="m652.18,173.09c-1.15-.06-2.06-1.08-2-2.23.09-1.56,1.37-2.55,2.62-3.25,3.18-1.49,6.8-2.64,10.3-1.64,1.14.22,1.92,1.36,1.71,2.5-.5,2.22-2.69,1.74-4.36,1.38-2.12.05-4.29.85-6.16,1.83-.31.85-1.17,1.46-2.11,1.4Z"/>
  <path d="m684.48,192.17c-2.16-.83-3.86-2.59-6.13-3.14-3.41-.77-6.85-1.94-10.38-1.21-2.42.35-4.85.94-6.68,2.65-2.58,1.74-5.24-2.02-2.73-3.91,5.02-4.01,12.26-4.48,18.28-2.76,2.24.52,3.94.81,5.85,1.89,1.28.75,2.46,1.65,3.85,2.21,2.77,1.4.79,5.53-2.04,4.26Z"/>
  <path d="m688.21,188.62c-2.67-1.09-1.11-5,1.54-3.85,2.67,1.1,1.1,5-1.54,3.85Z"/>
  <path d="m613.45,679.37c-19.53.52-35.27-12.85-53.99-15.71-12.03-2.81-27.95.3-36.21-10.84-4.95-10.79-6-23.18-4.89-34.89,1.18-48.61,33.14-32,41.15-70.92,5.04-37.04,5.06-76.36-3.9-112.77-1.53-7.36-7.06-12.71-10.94-18.82-2.01-4.2-3.41-8.69-5.81-12.7-2.9-7.63-8.51-14.24-9.79-22.39.52-9.87,8.84-21.16,19.73-19.04,5.34-1.75,12.53,1.76,16.31,5.74,4.54,7.27,9.68,14.25,13.62,21.88,6.99,18.35,14.02,36.82,19.42,55.72,7.93,24.9,1.78,51.22,4.64,76.68,2.12,8,.04,17.96,7.97,22.73,3.98.25,7.8-1.77,11.8-.92,8.52,3.04,18.56,3.54,25.03,10.54,8.78,10.16,21.9,6.45,33.61,7.36,9.21,2.55,19.26,6.26,24.82,14.52,16.19,23.77-16.24,24.32-17.35,45.11-1.5,15.93-.93,45.46-20.62,49.47-8.31,1.7-16.31-2.87-24.6-1.8-10.56,2.36-18.35,12.15-30.01,11.07Zm.24-6.57c20.56-2.19,20.63-16.96,46.83-9.22,27.76,3.45,15.16-43.56,26.67-58.01,3.9-6.05,10.96-8.99,15.57-14.29,4.19-13.43-12.53-21.26-23.2-23.74-39.05,2.83-24.51-9.19-52.84-16.1-5.07-2.8-10.13-1.07-15.48-.66-5.72.09-9.02-5.71-12-9.81-1.92-6.73-1.9-13.88-3.34-20.75-2.32-26.01,3.46-52.8-5.37-78.05-7.57-20.26-12.26-42.28-24.12-60.55-6.07-10.21-8.53-14.84-21.57-14.03-5.49,1.25-7.57,6.46-9.2,11.25-.19,5.68,4.42,10.32,6.45,15.41,2.82,6.26,5.95,12.38,8.56,18.75,4.45,5.73,9.26,11.8,10.99,18.96,9.41,36.48,8.92,75.4,4.9,112.63-5.74,39.11-30.76,31.49-38.76,55.72-3.37,16.18-6,34.88,1.9,50.05,9.57,7.3,23.16,4.08,34.26,7.45,17.2,3.25,31.7,15.38,49.77,14.98Z"/>
  <path d="m604.94,439.55c-1.95-3.24-16.99-17.55-7.83-18.25,1.69-4.31,8.52-2.55,12.12-1.89,11.4,2.58,7.82,33.55-4.29,20.14Zm5.05-2.03c2.94-7.54-.92-14.75-9.74-12.36,3.17,4.18,5.98,8.67,9.74,12.36Z"/>
  <path d="m546.21,497.42c-8.96-5.51-4.81-24.54,3.49-28.85,3.78-1.01,8.2,3.44,3.42,5.62.19,3.91,1.7,7.08,2.98,10.66,2.38,6.12-2.57,15.68-9.89,12.57Zm2.89-5.01c4.61-2.96.02-8.9-.9-12.79-1.05,3.64-3.04,10.63.9,12.79Z"/>
  <path d="m572.87,441.06c-3.38-25.03-12.88-50.3-31.59-67.88-1.19-1.05-2.37-2.09-3.58-3.11-.65-.55-.73-1.57-.18-2.22.55-.66,1.57-.74,2.22-.18,18.43,15.09,28.48,37.19,33.96,59.91,1,4.37,1.62,8.83,2.25,13.24.16,1.99-2.87,2.29-3.08.25Z"/>
  <path d="m589.04,545.45c-.8-.04-1.47-.76-1.41-1.56.25-3.28.52-6.56.79-9.84.41-4.86.7-9.75.65-14.62,0,.02,0,.03,0,.05,0,0,0,.01,0,.02-.27-7.51.34-14.84-.09-22.31-1.23-13.63-2.22-27.3-4.07-40.86-2.24-14.56-2.52-29.63-7.72-43.54-1.02-2.8-2.03-5.59-3.01-8.4-.38-1.03,1.26-1.77,1.69-.62.59,1.69,1.18,3.39,1.79,5.07,4.11,9.99,5.88,20.63,6.96,31.32,1.5,12.43,3.47,24.8,4.54,37.28.63,7.14,1.89,14.21,2.34,21.36.37,7.56.09,15.25.38,22.76.08,6.12-.53,12.23-.98,18.34-.42,1.72.54,5.52-1.87,5.56Z"/>
  <path d="m563.45,583.16c-.86-.28-1.37-1.25-1.07-2.12,1.51-4.29,3.2-8.51,4.3-12.92,1.91-6.83,2.95-13.76,4.5-20.67,3.78-18.02,5.75-36.52,4.88-54.91-.53-9.74-2.75-19.26-3.88-28.88,0,.05.01.08.02.12-.33-2.19-.59-4.08-.9-6.15-.1-.68.5-1.31,1.16-1.36.72-.06,1.27.47,1.36,1.16,1.39,10.05,3.02,19.88,4.38,29.86.74,8.95.68,17.98.2,26.95-.79,16.07-4.65,31.76-7.26,47.59-1.29,6.9-3,13.73-5.57,20.28-.31.87-1.26,1.36-2.12,1.07Z"/>
  <path d="m579.5,599.47c-7.54-2.26-13.81-9.82-12.49-17.95.47-1.6-.09-5.3,2.37-5.04.81.15,1.33.95,1.19,1.75-2.36,8.59,1.45,15.56,9.85,18.43,1.83.61.91,3.39-.93,2.81Z"/>
  <path d="m631.49,623.64c-.89-1.26-.61-3.16.71-4.03,3.63-2.45,7.09-5.13,10.75-7.54,4.12-3.58-.08-9.57-1.42-13.63-3.71-9.49-13.88-12.06-21.4-17.57-4.66-3.35-6.93-8.75-8.82-13.97-.39-1.02.19-2.2,1.19-2.56,3.03-.84,3.14,3.65,4.27,5.47,1.26,3.11,3.24,5.9,5.99,7.86,5.12,3.7,11.29,5.61,16.14,9.72,3.9,3.25,6.41,7.75,8.29,12.38,2.96,6.08,4.28,13.36-2.32,17.56-3.18,2.24-6.13,4.8-9.34,7.01-1.29.88-3.11.59-4.03-.71Z"/>
  <path d="m621.81,630.93c-4.05-.96-8.11-1.92-12.16-2.89-1.26-.26-.9-2.18.37-1.95,4.05.97,8.11,1.93,12.16,2.89,1.26.26.9,2.18-.37,1.94Z"/>
  <path d="m605.19,646.5c-9.01-1.17-19.06-5.24-22.09-14.58-.77-2.11-1.15-4.36-1.58-6.56-.23-1.18.48-2.38,1.69-2.64,1.15-.25,2.41.5,2.64,1.68.86,6.76,3.67,12.53,10.36,15.03,3.88,1.53,8.02,2.54,12.21,2.56,3.26-.19,6.48-.89,9.7-1.4,5.71-.97,11.66-2.45,15.75-6.79,1.88-1.23,4.74-3.91,6.66-1.39.79,1.13.51,2.73-.62,3.52-2.63,1.33-4.62,3.47-7.02,5.14-4.95,2.96-11.19,3.93-16.75,4.77-3.62.53-7.28,1.27-10.95.67Z"/>
  <path d="m596.31,583.31c.03-.55.5-.92,1.03-.92s.95.52.92,1.03c-.03.55-.5.92-1.03.92s-.95-.52-.92-1.03Z"/>
  <path d="m589.04,579.31c-1.4-.62-2.59-1.56-3.79-2.5-2.41-2.12.65-5.75,3.18-3.74,1.27.95,2.63,2.26,4.35,1.94,3.77-.81,6.97-3.22,9.85-5.68,1.02-.88,2.56-.86,3.49.16.9.98.85,2.6-.16,3.49-1.96,1.73-4.02,3.42-6.36,4.62-3.18,1.64-7.04,3.32-10.55,1.7Z"/>
  <path d="m593.4,588.29c.03-.57.52-.96,1.07-.96s.99.54.96,1.07c-.03.57-.52.96-1.07.96s-.99-.54-.96-1.07Z"/>
  <path d="m588.53,590.46c.05-1.46,1.5-2.25,2.83-2.09,2.23-.01,4.48,0,6.63-.64,1.79-.55,3.53-1.21,5.26-1.92,1.11-.45,2.42.21,2.82,1.31.43,1.16-.21,2.35-1.31,2.82-3.17,1.29-6.45,2.64-9.91,2.77-2.27-.15-6.24,1.14-6.32-2.24Z"/>
  <path d="m637.62,575.63c-4.1-5.27-8.48-12.69-15.77-13.29-1.61.26-3.3-.52-3.67-2.19,1.14-9.21,15.5.7,18.45,4.79,1.89,3.2,8.78,7.66,5.03,11.4-1.29.9-3.11.58-4.03-.71Z"/>
  <path d="m541.88,629c-3.11-5.17-6.36-10.59-7.21-16.66-1.62-11.37,6.47-20.07,17.83-19.94,3.34-.2,3.76,4.73.42,5.1-12.15-.19-16.13,10.52-11.25,20.5,1.33,2.88,2.72,5.76,4.33,8.5,1.41,2.57-2.46,4.95-4.12,2.5Z"/>
  <path d="m667.99,610.56c-.4-3.37-1.22-7.02.04-10.3.88-1.87,1.88-3.7,3.15-5.35,2.16-2.61,5.3-5.93,3.78-9.56-.18-.35-.33-.76-.66-1-2.99-1.68-6.2-2.97-9.29-4.46-2.54-1.28-.73-5.1,1.88-3.93,3.24,1.6,6.66,2.91,9.78,4.73,6.08,5.1,2,12.73-2.44,17.37-.97,1.53-1.81,2.8-2.4,4.46-.31,2.46-.08,4.97.08,7.44.21,2.4-3.43,2.96-3.91.59Z"/>
  <path d="m558.97,347.12c-5.2-1.34-3.23-6.29-.03-8.73,2.67-3.3,4.8-7.21,8.48-9.52,5.72-3.78,11.99,4.28,8.66,9.57-1.85,3.09-5.8,3.17-8.79,4.41-1.89.76-3.08,2.82-5.08,3.21-.65,1.08-2.08,1.59-3.23,1.07Zm8.71-10.76c1.1-.25,2.22-.53,3.23-1.05.18-.53-.03-1.05-.44-1.39-1.11.58-1.93,1.56-2.79,2.45Z"/>
  <path d="m517.11,407.03c-8.73-5.54-12.99-25.02-.61-28.48,1.83-2.35,6.06-.48,5.49,2.51-.34,1.02-.13,1.95.65,2.7,3.81,3.43,7.43,8.55,5.82,13.9-1.2,4.81-5.52,12.08-11.35,9.37Zm2.47-5.5c7.33-7.05.55-10.62-3.46-16.38-3.09,5.21-.49,12.29,3.46,16.38Z"/>
  <path d="m291.04,693.94c-5.41-.5-10.84-.03-16.24.45-8.48.74-16.91,1.48-25.16-1.51-30.02-10.79-36.8-52.78-16.99-75.88,7.52-7.09,18.9-9.46,26.15-16.73,4.39-7.19,11.96-13.75,12.87-22.34,2.77-16.68,4.61-33.11,6.66-49.84,2.47-13.93,6-27.13,7.4-41.16,5.03-19.59,8.86-39.6,15.55-58.62,2.06-11.12,8.06-20.34,15.44-28.67,2.63-3.38,5.62-6.77,9.89-7.92,2.3-.89,5.82-2.14,6.78,1.09.44,1.59-.53,3.18-2.07,3.65-6.83,1.06-10.09,7.42-14.06,12.35-6.73,9.26-10.57,19.98-13.49,31.1-.05.12-.1.23-.14.35-.31.8-.69,1.65-.79,2.5-.04.28-.03.55,0,.82-2.64,10.78-4.64,21.81-7.75,32.15-5.95,28.95-11.46,58.02-14.32,87.48-1.84,7.46-1.89,14.57-3.79,21.83-5.11,7.91-9.85,16.65-16.82,23.1-7.56,4.76-16.35,8.08-23.16,13.84-12.04,16.09-12.75,40.38,1.46,55.43,9.65,12.29,23.57,11.32,37.55,10.35,7-.49,14-.97,20.5.2,12.05,1.19,23.19,5.84,34.8,8.82,6.8,4.2,14.23,2.68,20.99-.8,6.26-3.67,8.88-11.57,12.27-17.68,1.68-8.58-2.06-17.02.79-25.55.79-8.67,6.59-15.05,10.49-22.38,2.29-13.88-8.7-26.21-17.15-36.05-7.18-7.8-16.4-13.76-22.34-22.71-7.59-17.79-9.13-38.39-7.7-57.52.43-11.34.38-22.46,3.71-33.47,1.48-9.01,1.17-18.46,4.75-27,2.43-8.31,5.16-16.55,7.69-24.83.45-.38.84-.84,1.18-1.33.93-1.33,1.5-2.9,1.98-4.44.46-1.46.84-2.93,1.12-4.43.33-1.78.48-3.58.53-5.39.49-2.04.64-4.1-.1-6.21,0,0,0,0-.01,0-.06-.99-.17-1.97-.37-2.93-.29-1.38-.63-2.76-1.14-4.08,2.07.2,4.14.42,5.84,1.72,3.4,3.52,3.78,9.67,1.95,14.04-4.54,16.72-11.23,32.89-14.8,49.78-.61,12.2-4.82,24.18-5.3,36.24.62,10.48-1.37,20.97-1.15,31.46,1.58,8.22,2.61,15.93,3.88,24.11,4,22.27,33.6,31.23,42.3,58.2,8.15,16.45-5.81,23.52-8.63,37.82-2.45,7.89.22,15.85-.39,23.83-1.79,7.91-6.81,15.11-11.71,21.45-5.8,4.87-14.17,7.61-21.65,7.7-15.53-4.98-30.88-10.97-47.29-12.4Z"/>
  <path d="m348.1,422.52c.39-1.29.72-2.59.96-3.92.48-2.59.58-5.25.55-7.88,1.51-2.15,2.66-4.29,2-6.36-1-2.73-2.49-4.61-4.29-5.85-.12-.23-.25-.47-.38-.69-.89-1.5-2.8-2.49-4.52-1.99-.46.13-.86.35-1.21.61-4.16-.41-8.83.55-12.96,1.48-2.33,2.81-6.62-.71-4.24-3.54,3.98-3.41,15.59-5.12,20.81-3.91,10.32,3.22,18.12,16.01,8.89,24.71-2.04,2.1-2.34,7.35-5.59,7.35,0,0-.01,0-.02,0Z"/>
  <path d="m298.88,551.84c-1.28-.17-2.21-1.41-2.04-2.68.2-2.49.4-4.97.57-7.46.19-2.72.32-5.38.46-8.09.46-6.8,1.18-13.59,1.73-20.38.93-9.11,2.87-18.1,4.09-27.17.87-6.55,1.88-13.1,2.36-19.69.47-9.15,1.7-18.32,4.61-27.03,1.32-4.41,1.94-9.01,3.69-13.28,1.94-4.5,3.99-9.02,6.72-13.1,4.18-5.55,9.54-10.39,15.53-13.91,1.99-1.05,4.09-1.83,6.1-2.83.98-.58,2.31,0,2.73.99.44,1.05-.09,2.12-1.05,2.61-2.5,1.23-5.07,2.3-7.4,3.84-4.57,3.35-8.89,7.21-12.2,11.85-4.57,7.2-7.44,15.13-9.08,23.45-3.29,9.82-4.55,20.09-5.09,30.4-1.15,11.35-2.94,22.61-4.8,33.86-1.64,9.71-2.15,19.56-3.09,29.35-.29,5.75-.64,11.5-1.17,17.24-.12,1.3-1.44,2.21-2.68,2.04Z"/>
  <path d="m313.22,620.72c-1.92-.67-1.33-2.34-.86-3.81.35-2.38.17-5.05.06-7.24-.36-5.2-2-10.21-2.73-15.36-.51-3.43-.62-7.18-.87-10.59-.23-3.93-.78-7.85-.62-11.79.25-5.26,1.12-10.47,1.43-15.73.39-6.91.45-13.84.63-20.76.06-2.39,3.65-2.47,3.71,0-.26,8.29-.18,16.61-.93,24.88-.41,4.55-1.1,8.74-1.14,13.11.07,4.05.55,8.09.78,12.08-.03,8.07,2.69,15.92,3.45,23.83.07,2.53,1.18,12.15-2.9,11.38Z"/>
  <path d="m311.97,624.68c0-.49.41-.9.9-.9s.9.41.9.9-.41.9-.9.9-.9-.41-.9-.9Z"/>
  <path d="m267.93,627.05c-1.12-.32-1.81-1.51-1.5-2.64.31-1.14,1.52-1.81,2.64-1.5.59.19,1.22.14,1.82.13,2.22-.22,4.19-1.41,5.84-2.85,4.08-3.99,7.35-8.8,10.64-13.44,1.46-3.92,1.56-8.22,2.26-12.31.42-2.66,4.39-2.15,4.09.56-1.06,5.66-.68,12.15-4.66,16.74-5.23,6.73-11.04,17.49-21.14,15.32Z"/>
  <path d="m350.79,630.54c-7.86-3.5-10.45-5.86-14.36-13.52-2.62-4.77-4.82-9.75-6.51-14.91-.36-1.04.4-2.2,1.41-2.47,1.6-.46,2.51,1.03,2.81,2.38,1.27,3.88,3.08,7.91,4.95,11.48,1.84,3.07,3.22,6.57,5.84,9.08,2.21,1.84,4.86,3.03,7.41,4.3.98.46,1.5,1.58,1.06,2.61-.41.98-1.64,1.52-2.61,1.06Z"/>
  <path d="m359.25,626.2c0-.53.44-.96.96-.96s.96.44.96.96-.44.96-.96.96-.96-.44-.96-.96Z"/>
  <path d="m359.27,611.43c-7.25-3.49-14.11-8.01-18.57-14.86-3.66-4.69-6.73-9.86-8.64-15.51-1.06-2.9-1.59-5.98-2.22-9-.09-.46-.07-.9.17-1.31.67-1.27,2.8-1.02,3.11.41,1.28,7.78,4.13,15.31,8.98,21.59,2.99,4.17,5.87,8.01,10.14,10.78,2.79,1.85,5.77,3.44,8.76,4.95,1.91,1.1.23,4.09-1.73,2.96Z"/>
  <path d="m325.95,454.06c-.17-6.73,1.69-13.19,3.84-19.49,1.47-4.68,3.45-9.25,6.64-13.04,3.04-3.35,6.88-9.38,12.11-7.61,1.8.61.79,3.11-.97,2.44-2.65-.7-4.42,2.43-6.17,3.96-5.21,5.44-7.92,12.49-9.82,19.63-1.5,4.57-2.3,9.3-2.25,14.11-.05,2.2-3.34,2.23-3.37,0Z"/>
  <path d="m322.36,497.73c-.83-.11-1.48-.92-1.34-1.77.53-3.24,1.1-6.47,1.54-9.72.46-3.43.9-6.87,1.34-10.3.11-.86.93-1.47,1.78-1.35.86.12,1.46.93,1.35,1.78-.44,3.39-.86,6.77-1.32,10.16-.42,3.3-1.04,6.58-1.59,9.86-.14.84-.92,1.46-1.77,1.34Z"/>
  <path d="m259.41,658.75c-5.31-2.62-12.89-6.42-14.56-12.54-.96-5.64,2.6-10.6,4.8-15.52.93-2.02,3.97-.75,3.13,1.32-1.83,4.68-6.46,9.99-3.93,15.15,3.1,3.92,7.47,6.43,11.8,8.68,1.88.84.68,3.68-1.23,2.9Z"/>
  <path d="m299.21,656.78c-5.27-1.51-9.24-5.51-13.42-8.86-1.33-.85-2.42-2.48-1.27-3.94.75-.97,2.26-1.22,3.23-.42,7.8,6.7,14.51,12.79,24.5,5.55,2.84-1.57,5.27,2.55,2.5,4.28-4.46,3.19-10.14,4.82-15.54,3.38Z"/>
  <path d="m323.95,684.51c-6.71-1.64-12.31-6.18-18.62-8.82.38,1.27-.35,2.71-1.72,2.89-2.36.28-2.5-2.39-2.71-4.09-.8-4.38,2.99-4.26,5.92-2.76,5.68,2.42,10.79,5.93,16.53,8.18,3.39,1.17,6.75-1.11,9.33-3.1,1.61-1.14,3.35-2.11,4.63-3.64,2.04-1.95,5,.98,3.05,3.05-1.23,1.39-2.69,2.55-4.29,3.49-3.46,2.7-7.53,5.33-12.12,4.78Z"/>
  <path d="m337.67,651.24c-.43-2.17,1.55-2.45,3.16-2.71,2.44-.6,4.9-1.09,7.38-1.51,2.88-.53,5.17-2.49,7.36-4.31,1.55-1.2,2.76-4.54,5.13-2.88,2.53,2.34-1.62,5.03-3.25,6.54-1.89,1.39-3.79,2.8-5.98,3.69-2.13.83-4.43,1.01-6.65,1.46-1.33.29-2.64.61-3.96.88-1.21.39-2.79.33-3.19-1.15Z"/>
  <path d="m315.23,388c-6.67-.55-13.85-8.18-8.86-14.53,1.57-2.38,4.52-4.29,7.4-3.14,5,2.16,7.31,9.34,13.59,8.27,7.09-.3,8.6,7.47,1.76,6.77-4.17,2.02-9.22,3.21-13.89,2.63Zm2.31-6.13c-1.91-1.63-3.62-3.46-5.46-5.17-.03-.03-.06-.05-.09-.08-2.93,2.94,3.01,5.46,5.55,5.25Z"/>
  <path d="m290.61,427.3c-8.91-3.43-2.16-21.22,6.55-18.72,4.91-1.34,4.15,3.04,2.75,6.04-.73,4.99-2.72,13.63-9.3,12.68Zm1.31-5.24c1.89-2.26,2.49-5.37,2.77-8.23-1.98,2.12-3.92,5.26-2.77,8.23Z"/>
  <path d="m268.87,511.21c-4.06-1.81-3.22-4.82-2.04-8.3.7-2.37,2.12-4.41,3.25-6.58.92-1.83,1.49-4.07,2.15-5.88,1.52-5.23,4.02-10.05,6.74-14.75.59-1.06,2.02-1.41,3.05-.8,2.06,1.28.66,3.41-.26,4.94.39,1-.14,2.04-.38,3.03-.31,2.41.18,4.85.22,7.26.71,4.72,2.15,9.55.74,14.29-1.56,5.43-8.09,10.45-13.48,6.78Zm4.3-3.4c7.11-2.31,5.05-10.96,3.55-16.44-.91,2.56-1.51,5.23-2.8,7.64-1.41,2.46-2.71,4.96-3.3,7.76.79.45,1.62.99,2.55,1.04Z"/>
  <path d="m369.88,444.37c-.76-.12-1.51-.32-2.24-.54-1.69-.53-3.36-1.13-4.94-1.93-8.74,5.08-7.98-23.73-1.05-24.45,6.26.09,2.18,8.8,6.21,11.8,3.24,3.37,10.66,2.08,11.42,8.04.42,4.97-4.89,8.2-9.4,7.08Zm2.02-5.18c.57-.12,1.35-.23,1.55-.87-3.89-1.67-8.6-2-10.98-6.12-.4,5.17,5.63,6.74,9.78,6.92-.12.02-.23.05-.35.07Z"/>
  <path d="m44.02,350.06c-7.81-3.61-10.39-14.15-13.68-21.52-1.32-19.21,3.4-38.67,8-57.29,7.25-17.06,13.77-35.15,25.15-49.96,20.45-21.12,47.03-37.94,76.73-41.24,10.01-1.03,19.68,2.56,29.31,4.69,8.8,1.22,16.98,4.52,24.46,9.26,16.97,10.47,31.25,28.76,34.04,48.81.24,8.53,1.25,19.9-6.5,25.51-4.29,3.17-15.37,4.9-14.83-2.97-10.73-14.25-12.97-40.48-33.87-43.92-20.69-2.42-58.1,8.87-68.83,27.99-14.51,23.03-22.06,49.31-34.12,73.6-3.09,6.95-8.04,12.5-12.67,18.38-3.07,4.48-6.8,10.78-13.19,8.64Zm2.81-6.37c27.18-28.81,31.64-71.13,54.84-102.61,13.67-18.36,55.83-31.48,77.58-25.07,20.84,7.36,22.43,33.28,34.72,48.26,7.41-1.13,7.4-9.54,7.53-15.49.5-11.98-5.34-23.91-13.15-32.7-10.73-15.52-28.32-23.4-46.49-26.29-16.87-6.02-34.75-1.86-50.64,5.17-15.49,6.85-28.98,17.63-41.28,29.12-11.6,14.02-17.47,31.82-24.87,48.23-4.95,16.32-6.87,32.53-8.56,49.3-.89,5.13,5.89,20.72,10.33,22.08Z"/>
  <path d="m8.38,319.93c-18.41-5.91-2.3-23.38,8.58-27.71,2.65-2.12,4.67-8.26,8.76-6.53,1.75,1.01,1.85,3.39.51,4.79-2.86,10.95.06,34.06-17.86,29.44Zm4.23-5.97c6.5-1.04,4.21-10.48,5.59-15.26-5.65,2.77-19.34,14.26-5.59,15.26Z"/>
  <path d="m98.45,290.09c-7.58-7.23-2.98-22.81,1.76-30.6,2.77-6.82,7.37,1.26,8.52,4.79,2.28,6.88,1.13,29.82-10.28,25.81Zm2.51-4.63c3.58-5.17,4.54-14.22,1.83-20.13-2.52,6.18-4.31,13.72-1.83,20.13Z"/>
  <path d="m199.16,186.32c-2.04-5.81-5.4-11.76-4.31-18.11.71-4.76,2.77-12.52,9.05-11.15,6.6,3.58,11.44,14.39,6.95,21.22-1.49,2.52-1.94,7.76-5.87,7.07-.04,3.08-4.73,3.9-5.82.98Zm4.21-6.04c.94-2.95,3.28-5.65,3.36-8.77,0,0-.04.02-.04.02-.91-2.9-2.25-5.76-4.1-8.19-3.09,5.57-1.64,11.5.78,16.94Z"/>
  <path d="m230.44,260.53c-1.37-.31-2.16-1.87-1.8-3.18.13-.49.4-.9.74-1.21-2.02-2.71,1.51-5.79,2.37-8.4,2.3-4.53,5.21-14.23,11.93-10.33,7.1,3.39,4.79,12.34,1.56,17.79-2.93,4.62-9.74,5.65-14.8,5.33Zm6.6-11.41c-1.05,2.1-2.13,4.18-3.21,6.26,2.46-.69,5.97-.55,7.09-3.3,1.15-3.07,4.12-8.16,0-10.09-2.04,1.94-2.5,4.78-3.88,7.13Z"/>
  <path d="m173.05,240.72c-4.87-5.55-13.99-3.15-18.51-8.4-2.51-9.8,13.08-12.36,18.98-7.31,5.3,2.86,8.43,17.45-.47,15.71Zm-8.44-10.84c1.24.25,2.47.65,3.68,1.02,1.16.36,2.25.86,3.31,1.44-1.65-3.71-6.3-4.28-9.73-2.92.91.16,1.83.28,2.74.46Z"/>
  <path d="m67.08,237.81c-.87-.37-1.41-1.5-.96-2.38.89-1.78,1.76-3.57,2.76-5.3,6.19-10.91,16.82-15.43,28.08-19.42,3.31-1.21,6.41-2.79,9.39-4.53,2.01-1.07,4.61-4.74,7.01-3.42,1.54.87.92,3.35-.85,3.39-14.33,12.17-32.63,8.96-42.01,28.63-.74,1.37-1.36,3.83-3.41,3.04Z"/>
  <path d="m83.5,266.2c-1.06-.45-1.51-1.66-1.11-2.72,2.28-6.61,5.51-12.86,7.45-19.58.94-5.25,5.03-8.83,8.26-12.79,1.73-2.1,4.92.35,3.29,2.54-2.08,2.59-4.48,4.96-6.3,7.75-.96,2.14-1.42,4.47-2.15,6.7-2.07,5.59-4.56,11.01-6.57,16.63-.33,1.22-1.69,1.98-2.86,1.46Z"/>
  <path d="m213.1,263.44c-1.78-1.58-1.39-4.34-2.02-6.47-.92-3.91-1.92-7.79-2.49-11.77-.29-2.75-1.29-5.57-2.58-7.9-2.92-6.17-7.48-11.31-11.68-16.62-8.76-10.29-20.65-18.03-34.5-18.25-2.53-.24-5.05-.49-7.58-.67-1.35.07-2.77-.69-2.76-2.2,0-1.13.99-2.24,2.17-2.17,2.96.17,5.91.48,8.86.75,10.46.25,20.03,4.68,28.66,10.31,4.58,3.34,8.85,7.27,12.43,11.67,3.47,4.13,6.98,8.25,9.36,13.14,1.36,2.67,2.87,5.39,3.41,8.37.36,2.73.82,4.93,1.29,7.58.87,3.27,1.62,6.56,2.17,9.9,0-.03-.01-.06-.02-.09,0-.02,0-.04-.01-.06.11.52.22,1.04.32,1.56.51,2.68-2.97,4.64-5.03,2.91Z"/>
  <path d="m112.79,214.1c-.8-3.81,4.16-3.92,6.72-4.54,3.99-.61,7.99-1.15,11.98-1.75,5.42-.77,10.92-1.42,16.36-.52,1.1,0,2.22.41,2.67,1.49.53,1.12-.11,2.53-1.22,3-2.7.61-5.53-.17-8.29.18-3.64.35-7.25.87-10.86,1.47-3.6.59-7.22,1.1-10.8,1.76-2.34.53-5.48,2.16-6.57-1.09Z"/>
  <path d="m78.7,192.61c-19.26-7.18,9.11-20.35,17.6-21.93,6.74-1.07,19.68-5.6,21.26,4.16.31,3.55-12.7,2.59-17.09,7.63-5.25,6.44-13.09,11.62-21.77,10.14Zm3.63-5.54c7.88,0,11.57-7.44,17.47-11.16-7.84,1.43-15.6,5.23-21.77,10.2.79,1.27,2.96.91,4.3.96Z"/>
  <path d="m46.44,340.62c-3.58-4.1-4.82-9.52-5.5-14.79-.52-4.17-.91-8.38-.59-12.58.09-1.06,1.19-1.81,2.2-1.67,2.64.52,1.3,3.73,1.62,5.6.28,5.86.56,12,2.92,17.44.64,1.31,1.42,2.54,2.37,3.66,1.49,1.98-1.44,4.28-3.02,2.34Z"/>
  <path d="m46.34,335.15c-.49-.84-.21-2.02.66-2.5,2.08-1.18,4.21-2.27,6.23-3.55,1.93-1.35,2.79-3.67,3.98-5.61,1.5-2.52,2.81-5.16,3.86-7.9.66-1.71,1.25-3.45,1.86-5.18,1.02-2.38,4.65-.89,3.67,1.55-2.25,6.71-5.37,13.21-9.73,18.81-2.24,2.25-5.34,3.41-8.02,5.04-.86.48-1.99.23-2.5-.66Z"/>
  <path d="m44.69,331.61c-6.42-3.57-5.49-11.67-5.28-17.93.1-3.26,4.91-3.26,4.97,0,.09,4.55-1.6,10.43,2.32,13.81.83.79,1.98.74,2.92.17,3.46-1.42,5.63-4.46,8.15-7.06,1.71-1.7,4.31.89,2.62,2.62-3.78,3.88-9.58,11.54-15.7,8.38Z"/>
  <path d="m46.11,302.1c-2.81-.9.07-5.33.41-7.26,1.03-3.25,1.79-6.59,2.91-9.82.56-2.12,1.64-4.27,1.44-6.48-.16-.94.58-1.84,1.49-1.96,2.71-.13,2.12,3.38,1.69,5.11-1.2,4.46-2.74,8.82-3.91,13.3-.51,1.64-1.12,3.26-1.61,4.91-.19,1.23-.99,2.62-2.42,2.21Z"/>
  <path d="m61.03,267.04c-.68-.4-.91-1.29-.52-1.97,3.47-6.08,6.91-12.17,10.77-18.01,2.47-3.94,5.29-7.66,8.3-11.2.59-.69,1.59-.88,2.33-.3.69.53.9,1.65.3,2.33-5.69,6.45-10.2,13.36-14.6,20.62-1.55,2.66-3.08,5.34-4.61,8.01-.39.69-1.3.91-1.97.52Z"/>
  <path d="m214.91,273.72c-23.08-5-13.37-19.51-8.45-11.15.15.12.31.24.46.36,1.5-2.9,6.04-.68,4.72,2.31,3.36,1.81,7.86-1.52,10.45-3.51,2.35-1.47,2.95-5.61,6.22-5.27,7.53,1.46-4.49,20.23-13.39,17.26Z"/>
  <path d="m211.5,295.97c-5.16-5.59,1.16-13.47.47-19.97.69-3.66-4.4-8.63-.59-11.11,1.87-.79,3.35.79,3.81,2.48.25-2.12,1.57-4.61,4.08-3.91,3.7,1.23.48,6.2,4.29,10.57,5.32,9.13,1.9,29.72-12.06,21.94Zm4.88-4.09c6.84-2.26,3.2-12.97.71-17.64,1.34,5.93-1.57,11.49-1.72,17.33.3.18.66.28,1.01.31Z"/>
  <path d="m698.53,183.99c-.75-.23-1.47-.55-2.16-.92-.25-.14-.5-.29-.75-.43-.04-.02-.08-.04-.12-.05-.59.31-1.28.44-1.95.38-.21.09-.43.17-.64.26-.7.29-1.43.68-2.2.63-1.05-.06-1.99-.44-2.65-1.29-.62-.8-.89-1.94-.58-2.92s.91-1.58,1.35-1.94c1.1-.98,2.38-1.9,3.95-1.8.3.02.6.04.91.09.33-.07.66-.12,1-.16.71-.07,1.39-.02,2.09.14.42.1.84.3,1.24.47.6.26,1.15.59,1.72.9.19.09.38.17.57.24.3.09.59.17.9.24.49.09.99.15,1.49.2,1.41.05,2.83-.02,4.23-.11,2.05-.19,4.05-.66,6.11-.78.79-.05,1.58-.05,2.37-.05h1.04c1.12-.01,2.23-.06,3.35-.12,1.82-.16,3.6-.54,5.41-.75.83-.1,1.67-.15,2.5-.23.98-.1,1.93-.26,2.89-.44,1.34-.28,2.68-.57,4.04-.8,1.62-.27,3.27-.31,4.9-.19,1.34.1,2.66.35,3.98.6,1.27.24,2.55.4,3.84.51.94.05,1.87.05,2.81,0,3.09-.29,6.13-.98,9.19-1.46,2.89-.46,5.8-.7,8.71-.99,6.04-.59,12.07-1.11,18.15-1.04,3.1.04,6.19.2,9.28.38,3.04.17,6.07.17,9.11.1,3.02-.07,6.05-.24,9.07-.24,3.22,0,6.43.22,9.63.51,2.9.26,5.79.54,8.69.76,1.9.09,3.8.15,5.7.11,1.82-.03,3.65-.08,5.48-.09.83,0,1.67,0,2.5,0,1.06.01,2.13.02,3.2.01,1.67-.01,3.33-.09,5-.18,5.84-.42,11.67-1.15,17.49-1.86,1.51-.18,3.02-.38,4.53-.52,1.56-.14,3.12-.18,4.69-.21,2.84-.05,5.68-.11,8.52-.08,3,.03,6,.23,8.99.23,3.09,0,6.18-.12,9.27-.3,3.15-.18,6.29-.42,9.44-.55,3.02-.12,6.04-.09,9.06-.11,3.74-.02,7.47.11,11.21.29,3.67.17,7.31.15,10.97-.07,2.51-.2,5-.49,7.49-.82,2.56-.35,5.09-.82,7.64-1.28,2.42-.43,4.84-.84,7.26-1.29,2.15-.4,4.31-.72,6.46-1.14.42-.1.83-.2,1.25-.32.21-.08.42-.17.63-.26.13-.07.26-.15.38-.23.14-.1.28-.21.42-.32.3-.28.58-.56.86-.86.29-.34.56-.68.82-1.04.13-.2.24-.4.36-.6-.13-.06-.26-.11-.39-.16-.61-.19-1.25-.33-1.83-.6-.43-.2-.82-.45-1.23-.68-.12-.05-.23-.1-.35-.15-.15-.04-.3-.09-.45-.12-3.48-.67-7-1.09-10.43-1.35-2.41-.15-4.82-.19-7.23-.21-2.66-.02-5.31-.13-7.97-.22-5.34-.19-10.67.04-16,.38-2.99.22-5.98.49-8.97.7-3.09.22-6.18.21-9.28.06-2.98-.16-5.97-.33-8.96-.34-3.11,0-6.23.06-9.34.1-2.96.04-5.91-.09-8.86-.18-3.12-.09-6.23-.11-9.35-.08-3.27.03-6.54.07-9.82.09-3.04.02-6.09.04-9.12.17-1.55.07-3.11.16-4.58.26-4.05.28-8.09.64-12.14.92-.05,0-.11,0-.16.01-.03,0-.05,0-.08,0h-.09c-.09.01-.17.02-.26.02h-.08c-.39.03-.79.08-1.19.08-.06,0-.13.01-.19.02-.74.05-1.48.1-1.79.12-3.14.22-6.3.5-9.45.6-3.09.09-6.18.07-9.28,0-6.34-.15-12.67-.34-19-.33-3.06,0-6.12.04-9.18.13-3.19.09-6.37.27-9.55.37-6.2.2-12.41.25-18.62.49-3.14.12-6.29.36-9.44.36-1.49,0-2.97-.05-4.46-.1-1.56-.05-3.12-.11-4.69-.1-6.36.03-12.69.84-19.05.48-1.23-.07-2.45-.18-3.68-.26-1.1-.06-2.2-.1-3.3-.11-1.12,0-2.24.1-3.36.17-2.87.2-5.73.4-8.61.49-2.82.08-5.65-.21-8.45-.44-.64-.04-1.27-.06-1.91-.06-.07.07-.15.14-.23.2-.57.44-1.24.57-1.95.52-.03,0-.07,0-.1,0-1.05-.05-2.22,0-3.14-.61-.88-.58-1.47-1.43-1.47-2.52,0-1.25.84-2.29,1.96-2.73.66-.26,1.41-.37,2.12-.45.8-.09,1.61-.14,2.42-.17,1.3-.05,2.61.05,3.86.13.05,0,.11,0,.16.01.08,0,.16.01.25.02.27.02.53.03.8.05.07,0,.13,0,.2.01,0,0,0,0,0,0,0,0,0,0,0,0h.02c1.48.08,2.96.15,4.45.13,1.43-.01,2.85-.1,4.27-.19,3.17-.26,6.35-.64,9.53-.67,1.57-.02,3.13.08,4.7.18,1.48.1,2.96.19,4.45.19,3.23,0,6.45-.23,9.68-.44,3.05-.2,6.1-.27,9.16-.2,1.55.04,3.09.1,4.64.12,1.56.02,3.12-.02,4.67-.08,3.14-.12,6.29-.3,9.43-.39,6.25-.18,12.5-.28,18.74-.54,3.07-.13,6.15-.29,9.23-.33,3.25-.04,6.49-.08,9.74-.07,6.18.02,12.36.31,18.54.36,3.21.03,6.41-.03,9.61-.22,2.57-.18,5.14-.36,7.37-.51.12,0,.24-.02.36-.03,0,0,0,0,.01,0,.14-.02.29-.03.43-.03,5.2-.36,10.39-.81,15.16-1.13,6.38-.44,12.79-.38,19.18-.48,3.11-.05,6.22-.09,9.34-.06,3.06.02,6.12.15,9.18.2,2.4.04,4.8,0,7.2-.04,2.57-.04,5.13-.09,7.7-.03,2.5.05,4.99.23,7.48.34,2.4.11,4.79.08,7.18-.05,6.04-.43,12.07-1.06,18.13-1.17,2.87-.05,5.75-.08,8.62.04,2.91.12,5.82.18,8.74.21,3.98.05,7.93.33,11.89.79,1.77.2,3.54.51,5.29.86.79.16,1.55.38,2.3.69.46.2.86.46,1.29.71.02,0,.03.01.05.02,1.16.37,2.3.71,3.35,1.37,1.05.67,1.96,1.48,2.52,2.62.65,1.33.65,2.9.18,4.29-.52,1.53-1.33,2.85-2.34,4.09-.91,1.12-1.99,2.14-3.2,2.93-2.45,1.57-5.46,1.83-8.27,2.32-2.77.48-5.54,1.01-8.32,1.48-2.94.5-5.87,1.09-8.83,1.52-3.09.45-6.21.8-9.32,1-3.05.2-6.1.25-9.15.13-3.01-.12-6.02-.32-9.04-.35-6.18-.07-12.35,0-18.52.41-3.01.2-6.02.39-9.03.48-3.11.09-6.2.01-9.3-.1-2.62-.09-5.24-.09-7.86-.06-2.48.03-4.96.04-7.44.16-2.78.21-5.55.62-8.32.94-2.91.34-5.83.68-8.75.99-3.05.32-6.1.58-9.16.69-1.78.06-3.55.05-5.33.04-1.16,0-2.32-.01-3.48,0-3.81.04-7.61.18-11.42-.09-3.85-.27-7.69-.69-11.55-.99-2.96-.18-5.92-.25-8.89-.16-3.12.09-6.23.23-9.35.24-3.02.02-6.02-.18-9.03-.32-3.02-.15-6.04-.26-9.05-.21-1.81.03-3.62.1-4.97.19-2.94.21-5.88.46-8.82.75-2.94.29-5.89.54-8.81.98-3.09.46-6.15,1.21-9.27,1.5-3,.27-5.98.02-8.93-.53-1.26-.24-2.5-.45-3.77-.56-.56-.02-1.11-.01-1.67.01-.92.09-1.82.23-2.29.32-1.86.38-3.71.82-5.6,1.05-1.59.19-3.19.28-4.78.55-1.9.33-3.79.53-5.72.62-1.78.08-3.58,0-5.36.09-1.45.13-2.87.41-4.31.6-1.66.23-3.36.27-5.03.31-.13,0-.27,0-.4,0-1.66,0-3.36-.2-4.95-.69Z"/>
  <path d="m935.75,156.39c-6-1.67-1.02-9.48,2.41-11.48,7.33-5.97,22.81-6.84,25.46,4.26.32,4.13-6.47,5.03-6.07.46-4.68-4.93-13.69-2.23-17.46,2.57-.72,2.04-1.65,4.61-4.33,4.19Z"/>
  <path d="m969.39,191.56c-3.46-.24-6.91-.62-10.38-.78-1.75-.1-3.52-.02-5.2-.59-4.48-1.1-8.49-3.55-12.62-5.52-5.67-3.32-3.88-10.97,3.04-8.51,1.36.97,3.4,2.89,2.29,4.66,3.23,1.18,6.23,2.86,9.63,3.52,2.8.17,5.63.16,8.43.28,2.6.19,4.37.47,6.83.39,2.75-.52,5.49-1.23,8.2-1.96,4.04-1.51,6.47,4.33,2.53,6.11-4.21,1.12-8.53,2.73-12.94,2.38,0,0,.19.01.19.01Z"/>
  <path d="m978.62,175.51c-4.21-5.45-11.82-10.86-17.94-4.49,3.15,7.12-10.42,5.44-7.13-1.16,13.39-21.94,41.37,7.16,25.07,5.64Z"/>
  <path d="m974.98,189.97c-4.97-.82-2.51-7.01,1.64-5.14,5.72-1.07,10.53-4.36,15.87-6.41,8.03-2.9,15.47-7.03,23.13-10.77,5.87-3.62,11.87-7.06,17.38-11.21,1.27-.82,2.74-1.26,3.97-2.15,1.31-.86,3.18-.39,4.1.8,2.46,3.76-2.2,5.41-4.84,6.81-2.8,2.42-6.13,4.03-9.12,6.18-3.35,1.79-6.33,4.21-9.8,5.79-6.38,3.01-12.51,6.7-19.12,9.01-7.87,2.62-14.74,7.42-23.2,7.1Z"/>
  <path d="m975.32,154.47c-2.04-.2-5.31-2.16-3.71-4.49.7-.89,2.03-1.07,2.93-.38.35.28.68.6,1.17.49,4.05-.63,8.06-1.6,12.14-2.07,4.33-1.08,8.58-2.46,12.83-3.8,3.56-1.01,7.22-1.98,10.74-3.07,7.36-3.48,12.24-10.37,18.73-15.08,2.72-2.3,9.59-5.32,10.2.32,0,1.7-1.48,3.35-3.25,3.25-.52.09-1.01.39-1.5.59-5.62,3.32-9.35,9.04-14.99,12.32-2.56,1.92-5.43,3.76-8.37,4.73-3.17.65-6.19,1.8-9.34,2.52-4.78,1.37-9.51,3.01-14.42,3.89-4.39.2-8.78,1.06-13.18.78Z"/>
  <path d="m1054.99,133.47c-3.41-.59-6.76-1.86-9.77-3.57-6.82-3.9-11.88-10.78-13.68-18.41-1.45-6.15-.91-12.63,1.6-18.45,2.55-5.9,7.19-11.12,12.93-14.08,2.11-1.09,4.31-1.89,6.59-2.47.34-.27.74-.47,1.18-.57.04,0,.08-.02.11-.02.12-.02.23-.05.34-.07-.03,0-.07.01-.1.02,0,0,0,0,0,0,0,0,0,0,0,0,0,0,0,0,0,0,0,0,0,0,0,0l-.08.02s-.09.02-.14.03c-.03,0-.06.01-.09.02.07-.01.14-.03.21-.04,2.7-.55,5.43-.71,8.18-.52,2.47.17,4.9.72,7.24,1.51,4.83,1.7,9.11,4.56,12.51,8.37,2.29,2.63,4.14,5.64,5.38,8.9.92,2.41,1.48,4.93,1.74,7.49.3,2.94.15,5.87-.4,8.77-1.48,7.25-5.67,13.9-11.74,18.18-1.54,1.08-3.15,2.02-4.86,2.8-2.35,1.08-4.93,1.78-7.48,2.17-1.55.24-3.1.36-4.65.36-1.68,0-3.36-.14-5.03-.43Zm6.43-6.24c1.06-.1,2.11-.24,3.16-.43,1.12-.25,2.23-.52,3.32-.87.74-.27,1.46-.58,2.16-.92.91-.47,1.8-.98,2.65-1.55.78-.54,1.53-1.12,2.25-1.74.72-.65,1.4-1.33,2.04-2.05.6-.7,1.15-1.42,1.68-2.17.56-.85,1.08-1.72,1.54-2.62.46-.93.87-1.88,1.21-2.85.32-.96.58-1.93.79-2.92.18-.94.31-1.89.38-2.85.06-1,.06-2,0-3-.07-.96-.19-1.92-.37-2.86-.23-1.05-.54-2.09-.88-3.11-.34-.96-.74-1.89-1.18-2.8-.45-.88-.95-1.73-1.5-2.55-.54-.78-1.13-1.53-1.7-2.2-.02-.03-.05-.05-.07-.08h0c-.63-.7-1.3-1.36-1.99-1.98-.71-.61-1.45-1.18-2.03-1.59-.08-.05-.15-.1-.23-.15h0c-.83-.56-1.7-1.06-2.58-1.52-.91-.44-1.84-.83-2.79-1.17-.93-.31-1.88-.57-2.85-.78-.97-.19-1.96-.32-2.94-.4-1.01-.06-2.03-.06-3.05,0-.96.07-1.92.2-2.87.38-.02,0-.04,0-.06.01-.08.02-.17.04-.25.05-.01,0-.02,0-.06.01.04,0,.07-.01.11-.02.02,0,.03,0,.05,0,0,0,0,0,0,0,0,0,0,0,0,0,0,0,0,0,.01,0,0,0,0,0,0,0,.02,0,.04,0,.05-.01-.41.07-.82.09-1.22.03-.44.12-.88.25-1.31.4-1.05.38-2.08.83-3.09,1.33-.89.46-1.75.97-2.59,1.52-.83.57-1.62,1.18-2.38,1.84-.67.61-1.32,1.25-1.92,1.92-.63.72-1.22,1.47-1.76,2.26-.6.9-1.14,1.83-1.63,2.8-.42.87-.79,1.76-1.12,2.66-.31.94-.58,1.89-.79,2.85-.2,1.04-.35,2.08-.42,3.14-.05.95-.05,1.91,0,2.87.08,1.07.21,2.13.42,3.17.21.97.47,1.92.78,2.86.35.99.76,1.95,1.22,2.89.44.85.93,1.67,1.46,2.47.54.78,1.12,1.53,1.74,2.25.66.73,1.36,1.43,2.09,2.09.73.62,1.49,1.21,2.28,1.76.62.41,1.25.78,1.91,1.13,1.03.5,2.08.94,3.15,1.33.97.31,1.94.57,2.93.8,1.01.18,2.01.32,3.03.41,1.07.05,2.13.05,3.2,0Z"/>
  <path d="m1043.76,82.54c-6.86-2.3,2.62-15.47,5.88-18.29,4.44-3.1,7.7,5.91,2.18,5.97-3.72,2.98-3.68,12.69-8.05,12.32Z"/>
  <path d="m1093.12,282.53c-18.58-5.02-32.65-19.71-42.79-35.48-6.29-9.75-8.19-21.04-10.66-32.01-3.17-11.29-3.45-22.98-5.13-34.46-1.78-16.23-.32-32.66,1.95-48.78.48-3.35.64-11.13,5.74-9.15,1.53.89,1.69,2.76.88,4.19-.91,3.67-.73,7.49-1.24,11.22-2.99,23.63-1.18,47.43,2.94,70.81,5.2,24.44,7.59,34.11,25.32,52.91,5.85,4.59,11.69,9.85,18.75,12.39,2.93,1.64,9.24,1.28,8.3,6.05-.47,1.71-2.36,2.81-4.05,2.3Z"/>
  <path d="m1106.82,284.39c-4.61-.58-9.91.09-13.74-3.02-3.15-1.87-1.56-6.21,2.09-5.19,1.33.11,2.61,1.05,4.33,1.03,5.74.51,11.49.59,17.21-.35,6.67-1.24,9.56-5.38,13.94-9.95,1.85-1.83,3.87-3.47,5.61-5.4,3.59-4.15,6.15-9.35,8.62-13.96,3.24-6.74,6.23-13.68,8.22-20.9,1.89-5.41,1.99-11.17,2.98-16.75.02-.46.01-.92,0-1.38-.15-2.93,3.84-4.56,5.82-2.41,2.18,2.61.38,6.3.24,9.31-1.11,13.12-6.37,25.55-12.22,37.21-2.5,4.71-5.08,9.45-8.63,13.47-3.35,3.5-7.05,6.64-10.26,10.29-5.98,7.01-15.62,7.66-24.21,7.98Z"/>
  <path d="m1160.89,112.99c-.69-12.61-.18-26.08-5.85-37.76-2.44-5.84-4-12.15-8.82-16.54-3.71-7.57-7.84-11.42-15.33-15.09-3.2-1.37-6.76-6.09-2.35-8.31,1.95-.86,3.59.42,4.77,1.83,7.56,3.89,14.73,8.94,18.07,17.11,4.72,4.57,7.01,10.37,9.12,16.44,5.73,12.18,8.32,29.44,5.79,42.64.11-.2.22-.44.27-.64-.66,2.72-4.69,2.97-5.67.33Z"/>
  <path d="m1150.49,210.35c-4.46-.69-9.54-2.23-10.32-7.36-3.75-7.15-2.33-15.62,1.61-22.39,2.88-6.35,7.73-11.1,13.78-14.45,4.86-4.04,9.3-8.77,13.2-13.73-2.93-2.5-6.11-4.89-10.22-4.33-4.28.64-5.21-6.08-.91-6.63,5.79-.74,11.14,1.79,15.24,5.71,4.1,2.19,3.4,7.25.57,10.23-5.94,7.37-12.81,13.75-20.75,18.87-6.41,7.51-10.79,16.84-5.6,26.23,4.35,2,9.07,1.14,13.64.74.49-.44.78-1.06.85-1.71-3.74-8.08,3.23-14.65,7.72-20.61,8.8-10.38,18.51-20.68,29.97-28.13,2.33-1.16,2.83-4.08,2.79-6.45-1.88-2.42-4.86-4.31-7.3-6.31-3.75-2.74-6.35-6.6-9.36-10.07-7.01-10.21-18.58-17.39-30.5-10.28-2.55,2.01-5.67-2.04-3.06-3.96.58-.41,1.11-.85,1.65-1.31,8.25-5.57,19.02-3.85,26.93,1.49,5.68,4.54,9.87,10.77,14.91,16,2.71,2.83,6.26,4.66,9.02,7.43,7.46,3.93,4.73,16.1-1.98,19.45-7.54,4.48-13.38,11.16-19.6,17.24-4.48,3.99-8.05,8.78-11.66,13.52-1.29,2.27-3.88,3.83-3.78,6.69-.17,1.35.27,2.57.79,3.78.45,2.06-.17,4.24-1.16,6.05-1.34,2.31-3.75,4.23-6.55,3.86-3.28.52-6.66.73-9.96.43Z"/>
  <path d="m1151.25,153.14c-2.74-2.22-5.43-4.91-5.98-8.55-.18-2.39-.73-7.31,2.87-7.03,1.36.18,2.22,1.43,2.09,2.76-.78,4.48.71,6.2,4.04,8.92,2.5,2.05-.42,5.83-3.01,3.9Z"/>
  <path d="m1116.96,172.13c-2.79-10.94,1.77-21.94,3.69-32.75,2.28-11.22,6.61-21.72,14.14-30.46,6.08-8.15,15.54-14.47,26.04-13.37,2.3.29,3.13,3.47,1.25,4.86-1.29.83-2.9.58-4.31,1.14-9.76.99-16.14,8.4-21.36,15.99-8.97,11.88-9.79,27.32-13.45,41.29-1.33,4.13.32,8.29-.05,12.41-.69,2.7-4.56,3.41-5.96.89Z"/>
  <path d="m1139.11,171.25c-8.72-1.05-4.48-12.12-3.71-17.68,1.45-8.81,2.56-17.73,5.91-26.09,2.04-5.46,4.81-11.09,9.79-14.41,1.47-.92,3.68-1.76,5.26-.69,1.61,1.41-.09,3.13-1.43,3.95-.59.82-1.17,1.65-1.76,2.47-.25.34-.71.46-1.09.34-2.71,3.32-4.49,7.51-5.87,11.46-2.09,5.97-3.52,12.14-4.22,18.43-.67,5.49-2.68,10.49-2.04,16.01,2.71-.25,5.54-.07,8.12-1.05,2.65-.83,5.39-1.45,7.52-3.15,1.61-2.51,2.06-8.18,6.34-6.61,3.2,1.6,1.62,4.45.55,6.91-.45,1.22-1.07,2.38-1.66,3.54-1.44,1.8-3.72,2.95-5.86,3.76-5.05,2.13-10.37,3.04-15.84,2.85Z"/>
  <path d="m1158.15,161.17c-.02-2.92.26-5.84.55-8.74.32-2.59-.75-7.25,3.06-7.41,5.51.03,1.35,12.32,2.11,16.14.02,3.71-5.73,3.71-5.72,0Z"/>
  <path d="m1045.98,177.11c-.29-1.08-.31-2.54-.47-3.53-1.13-4.39.14-9.01-.35-13.49-.58-6.01-1.06-12.03-2.22-17.96-.83-2.97-1.05-6.27-2.88-8.83-.7-1.11-.24-2.64.86-3.29,2.47-1.36,3.86,1.63,4.81,3.41,4.48,11.89,5.22,25,4.82,37.59.66,2.63,2.82,6.95-.9,8.17-1.56.45-3.18-.52-3.67-2.08Z"/>
  <path d="m1067.6,188.75c-7.81-.25-16.04-3.72-21.07-9.69-3.43-10,8.89-9.46,4.85-3.24.02.19.03.37.07.56,10.25,7.81,21.76,6.86,33.88,5.01,2.95-.7,5.92-1.27,8.9-1.81,1.72-.39,3.56-1.48,5.26-.45,2.47,1.33,1.97,5.37-.79,6.02-1.27.37-2.52.83-3.83,1-9.03,2.06-18.18,3-27.44,2.58,0,0,.16.01.16.01Z"/>
  <path d="m1098.19,183.24c-.92-.02-1.91-.03-2.66-.65-1.55-1.16-1.07-3.8.84-4.28,3.57-.37,6.9-1.54,10.18-2.94,2.86-.88,5.49-2.43,7.84-4.06,1.91-1.56,5.01-3.15,6.67-.4.86,1.46.36,3.43-1.12,4.27-3.05,1.71-5.74,4.07-9.11,5.18-4.09,1.39-8.25,3.12-12.65,2.89Z"/>
  <path d="m1067.19,251.9c-4.84-1.18-4.39-7.22-6.04-10.95-3.59-12.35-2.28-25.33-3.47-37.97-.98-4.25,4.29-6.41,7-8.65,12.66-6.5,29.66-1.35,40.54,6.71,8.01,5.57,4.81,17.41-.9,23.52-5.27,3.91-11.91,6.11-18.36,6.63-1.17,4.55-1.13,9.42-.8,14.07,1.48,3.11-.1,7.31-4.05,5.83-4.74-1.53-9.14,1.57-13.92.8Zm2.26-5.98c3-.48,5.78-2.17,8.93-1.75.37-6.19-1.26-15.03,4.16-19.31,3.63-.74,7.46-.24,10.79-2.12,5.12-1.22,8.95-4.76,9.86-10.06,1.46-4.63-2.86-7.34-6.44-9.11-5.85-2.92-12.42-5.79-19.07-5.11-5.45-.56-10.32,1.42-14.12,5.33,1.16,14.15.34,28.6,5.37,42.12.18,0,.35,0,.53,0Z"/>
  <path d="m1073.97,212.04c0-.44.37-.81.81-.81s.81.37.81.81-.37.81-.81.81-.81-.37-.81-.81Z"/>
  <path d="m1073.8,218.56c.18-3.63-3.4-11.17.38-13.29,3.45-3.95,9.42-1.14,13,1.28,2.72,1.23,5.95,2.91,6.44,6.18.51,3.11-2.05,6.42-5.34,5.84-4.6-1.08-12.27,7.03-14.48-.02Zm5.79-4.41c.09-.03.18-.06.27-.09,1.48-.53,2.94-1.11,4.44-1.57-1.82-.84-3.41-2.37-5.49-2.53.28,1.39.4,2.82.77,4.19Z"/>
  <path d="m1063.2,109.36c-.88-8.79-7.54-10.68-13.75-4.8-2.42,1.82-2.86,7.08-6.89,5.51-7.6-4.96,9.22-17.53,15.23-15.53,4.41.17,8.43,3.28,10.18,7.27.98,3.2,4.03,9.3-1,10.41-1.78.25-3.51-1.05-3.76-2.85Z"/>
  <path d="m972.56,154.04c-2.65.29-5.36.3-7.85-.78-2.06-.8-4.42-1.48-5.88-3.25-2.49-3.3,2.17-7.22,5.02-4.23,1.73.94,3.57,1.78,5.45,2.39,2.54.43,6.98.18,6.98,3.71.04,1.85-2.14,3.14-3.72,2.17Z"/>
  <path d="m1055.27,68.63c-5.07.12-10.05-.57-14.95-1.86-4.23-.7-7.84-2.96-11.38-5.23-1.06-.51-2.42-1.03-2.51-2.4.29-5.38,6.97-1.2,9.55-.06,3.02,1.52,6.82,1.6,9.89,2.34,2.59.56,5.25.64,7.89.63,3.46.17,7.12.55,10.45-.55,5.65-2.18,10.05-6.66,15.04-9.66,2.35-1.25,5.43-4.12,7.73-1.23,1.94,2.85-.45,4.83-2.89,6.08-2.22,1.14-4.12,2.72-6.2,4.08-6.87,5.4-13.53,9.21-22.6,7.87Z"/>
  <path d="m1027.72,58.95c-5.91-3.99,14.24-27.12,18.2-19.91,1.27,2.17-.39,4.21-2.4,5.07-4.25,2.97-7.98,6.78-10.61,11.27,1.49,3.05-2.85,5.38-5.2,3.57Z"/>
  <path d="m1041.1,38.37c.25-5.05,7.48-33.29,15.21-26.04,1.37,1.75.5,3.84-1,5.15-1.79,3.13-3.63,6.16-4.91,9.47-1.19,3.77-2.44,7.52-3.35,11.37-.11,1.62-1.27,3.01-2.99,3.01-1.56,0-3.04-1.35-2.96-2.96Z"/>
  <path d="m1080.4,20.08c-4.66-1.11-22.05-2.17-22.86-6.94-4.06,6.46-10.4-.52-1.94-6.05,10.19-5.38,22.26-5.17,33.42-7.09,8.65.02,18.32-.41,25.91,4.36,5.45,4.05.76,10.99-4.37,12.63-9.52,3.35-20.16,3.15-30.16,3.09Zm10.59-6.54c6.72-.82,15.18,1.03,20.33-4.37-14.93-6.52-32.31-1.78-47.69.9,8.93,2.32,18.1,4.31,27.36,3.47Z"/>
  <path d="m1129.75,41.64c-6.07-.92,1.93-12.85-14.16-29.35-1.82-.6-2.39-2.79-3.7-4.04-1.53-2.41,1.23-5.51,3.82-4.35,1.44.72,2.6,2.12,3.58,3.25,4.89,5.22,9.66,11.04,11.92,17.93.88,3.9,5.47,16.74-1.47,16.57Z"/>
  <path d="m1089.08,54.17c-9.24.67-8.16-8.43-2.37-6.41,11.34.95,23.31-1.64,33.76-6.25,3.8-.99,8.36-7.75,11.81-3.81,3.51,5.53-8.96,9.48-12.62,11.41-9.77,3.66-20.16,5.26-30.57,5.06Z"/>
  <path d="m1080.49,46.13c-1.03-.1-1.48-1.01-2.27-1.51-3.58-2.45-7.86-3.36-11.95-4.54-2.39-.88-4.96-.91-7.48-.91-3.37-.29-6.91-.59-10.07.85-2.05.84-3.36-2.2-1.32-3.14,3.64-1.6,7.62-1.94,11.55-1.77,2.88-.19,5.83-.17,8.6.75,5.27,1.45,11.14,2.59,15.03,6.65,1.25,1.5-.17,3.95-2.09,3.61Z"/>
  <path d="m1058.57,61.62c0-.52.43-.95.95-.95s.95.43.95.95-.43.95-.95.95-.95-.43-.95-.95Z"/>
  <path d="m1056.46,61.42c-.48-1.12.24-2.33,1.38-2.65,2.07-1.1,3.55-2.26,5.44-3.47,3.39-2.34,6.42-5.14,9.4-7.97,1.82-1.77,4.55.95,2.75,2.76-3.77,3.62-7.85,7.23-12.3,9.95-1.83,1.03-5.08,4.19-6.67,1.38Z"/>
  <path d="m1055.51,61.65c-4.99-1.16-10.02-2.04-15.07-2.89-1.54-.14-3.07-.29-4.59-.58-1.35.07-2.61-.91-2.6-2.32,0-1.24,1.05-2.33,2.31-2.31,5.51.49,10.99,1.35,16.41,2.45,2.31.82,7.16.34,6.46,3.99-.35,1.31-1.69,1.94-2.93,1.66Z"/>
  <path d="m1120.57,31.29c-.16-1.61-.22-3.26-.89-4.75,0,0,0,.04,0,.04-.94-1.81-5.13-3.43-3.27-5.73,1.77-1.57,3.28,1.05,4.53,2.07,2.52,2.02,2.81,5.37,3.03,8.36-.04,2.23-3.33,2.24-3.41,0Z"/>
  <path d="m1098.93,44.44c-2.38-.36-1.89-3.96.5-3.65,1.5.37,3.02.1,4.51-.17,4.01-.47,7.86-1.6,11.51-3.32.75-.31,1.62.04,1.94.79.31.74-.04,1.63-.79,1.94-1.57.65-3.13,1.34-4.72,1.93-4.23,1.09-8.52,2.89-12.95,2.5Z"/>
  <path d="m1052.94,26.48c-2.82-1.04-.91-4.55.42-6.1,1.2-1.39,2.6-4.4,4.79-2.86,2.31,2.11-1.24,4.33-2.23,6.19-.32.39-.41.88-.51,1.37-.24,1.07-1.45,1.68-2.47,1.4Z"/>
  <path d="m1052.76,33.74c-3.38-.81-1.12-4.64.19-6.39.62-.96,1.85-1.35,2.87-.75,2.17,1.49.41,3.29-.51,4.9-.31,1.23-1.11,2.47-2.55,2.24Z"/>
  <path d="m1146.05,83.02c-2.2-7.69-4.73-15.68-11.19-20.91-1.31-1.18-2.84-2.03-4.4-2.83-3.22-1.95-.43-6.78,2.91-4.97,8.11,4.08,13.83,12.1,16.2,20.76.58,2.3.96,4.62,1.25,6.97.15,1.2-.59,2.36-1.77,2.68-1.27.36-2.6-.42-3-1.7Z"/>
  <path d="m1138.03,89.75c-.39-2.42-1.28-4.69-2.4-6.86-.97-2.39,2.55-3.89,3.63-1.54.88,2.07,4.46,8.71,1.14,9.75-.98.27-2.16-.32-2.38-1.35Z"/>
  <path d="m1090.28,124.77c-1.75-.6.07-3.35.2-4.62.59-1.92.97-3.91,1.63-5.8,2.09-5.8,2.21-12.18,1.26-18.16-.21-1.05,1.26-1.68,1.82-.72,1.11,4.25.97,8.92.5,13.32-.45,4.07-2.15,7.85-3.07,11.83-.6,1.18-.53,4.54-2.33,4.16Z"/>
  <path d="m1190.13,157.15c-2.37-3.98,4.49-3.65,3.52-7.49-.2-1.83-.8-4.64,1.73-5.02,1.2-.16,2.46.71,2.59,1.96.27,2.75.91,6.15-1.21,8.32-1.68,1.45-4.52,4.64-6.62,2.23Z"/>
  <path d="m1136.97,252.44c-1.94-1.4.86-3.54,1.29-5,2.42-4.93,4-10.08,5.66-15.27,1.32-3.6,2.39-7.21,2.67-11.06.1-.68.74-1.18,1.43-1.09.68.09,1.18.75,1.09,1.43-.35,2.28-.56,4.61-1.09,6.86-2.13,7.13-3.52,14.59-7.27,21.07-.99,1.14-1.87,3.93-3.77,3.05Z"/>
  <path d="m1124.05,266.93c-1.16-1.53.48-2.79,1.61-3.66.98-.87,1.87-1.84,2.76-2.8,1.01-1.08,1.95-2.23,2.88-3.39.66-.82,1.86-1,2.7-.35,2.2,2.03-1.18,4.26-2.33,5.89-1.56,1.46-5.45,6.82-7.62,4.3Z"/>
  <path d="m1103.8,188.26c-.38-.89.06-1.88.92-2.27,1.9-.87,3.81-1.7,5.67-2.63,3.38-1.8,6.5-4.04,9.81-5.95.64-.36,1.46-.21,1.91.38,2.03,2.34-7.25,6.75-8.9,7.97-2.3,1.31-4.76,2.3-7.15,3.42-.84.39-1.91-.06-2.27-.92Z"/>
  <path d="m1136.51,182.1c0-.49.41-.89.89-.89s.89.41.89.89-.41.89-.89.89-.89-.41-.89-.89Z"/>
  <path d="m1131.86,194.44c-.66-4.15-.04-8.6,2.51-12.02,1.14-1.35,2.25-4.69,4.48-3.23.77.6.86,1.67.32,2.44-1.15,1.72-2.55,3.33-3.32,5.27-.85,2.25-.89,4.71-.55,7.07.28,2.24-3.09,2.72-3.44.47Z"/>
  <path d="m1141.47,211.53c-5.36-1.01-10.85-3.71-13.15-8.95-.95-2.02-1.63-4.96.19-6.71,2.2-2.17,5.8.44,4.45,3.19,1.34,4.56,6.05,7,9.81,9.37,1.68.99.57,3.59-1.3,3.09Z"/>
  <path d="m780.57,151.77c-1.14-3.72,13.06-3.4,15.53-3.8-.03,0-.06,0-.09,0-.02,0-.03,0-.05,0,5.09-.55,10.21-.23,15.31-.42,3.74-.35,7.47-.77,11.24-.48.88.04,1.62.71,1.62,1.62s-.73,1.62-1.62,1.62c-3.66-.13-7.29.21-10.93.55-7.33.09-14.65.08-21.97.73-2.41.12-4.77.61-7.08,1.28-.82.22-1.73-.26-1.96-1.12Z"/>
  <path d="m849.52,186.54c-1.75-.32-5.66.99-5.84-1.55,0-.84.7-1.54,1.54-1.54,6.64.22,13.21-.56,19.82-.88,3.68,0,7.36-.02,11.04-.3,6.06-.29,12.09.81,18.16.28,2.6.1,13.12-2.29,12.58,1.88-.14,1.09-1.14,1.78-2.2,1.67-3.46-.47-6.69.05-10.05.19-4.72.23-9.43-.18-14.13-.66-4.8-.2-9.6.37-14.41.13-5.59.02-10.94.83-16.5.77Z"/>
  <path d="m961.55,135.46c0-.53.44-.97.97-.97s.97.44.97.97-.44.97-.97.97-.97-.44-.97-.97Z"/>
  <path d="m964.8,139.38c-1.46-.3-4.08-.16-4.26-2.11-.03-1.41,2.18-2.32,3.05-1.15,4.56.54,9-.76,13.53-.88,2.34.05,2.35,3.52,0,3.57-4.1.13-8.2.88-12.32.57Z"/>
  <path d="m986.59,191.49c-.38-.9.07-1.86.92-2.27,3.36-1.69,6.73-3.32,10.4-4.22,4.6-1.78,9.13-3.55,13.59-5.64,1.42-.64,2.89-1.16,4.3-1.82.74-.35,1.66,0,2.07.69,1.3,2.7-3.7,3.34-5.3,4.44-5.6,2.94-11.58,5.21-17.67,6.91-2.05.86-4.02,1.9-6.03,2.85-.84.41-1.92-.08-2.27-.92Z"/>
  <path d="m737.06,91.56c-1.9-6.17-3.63-12.46-6.01-18.5-.43-3.73-7.87-11.27-2.86-13.3-1.18-18.68,17.22-18.02,25.03-4.63,2.24,3.37,1.49,8.25-1.01,11.28-2.85,2.73-7.24,3.29-10.98,3.92-4.36.65-5.29-6.23-.92-6.74,2.36-.29,4.82-.77,6.96-1.85,2.66-5.56-13.4-17.05-12.45-2.66,1.51,9.28,4.72,18.21,6.58,27.43.43,2.01,1.39,4.87-1.09,5.91-1.13.48-2.5.13-3.25-.86Z"/>
  <path d="m763.18,79.93c-1.42-4.93-5.39-9.79-4.4-15.07.66-1.6,2.58-2.36,4.16-1.69,1.27.54,2,1.83,1.92,3.14.36,2.25,1.57,4.24,2.4,6.35.98,2.8,4.11,7.14.2,9.01-1.59.68-3.63-.08-4.27-1.73Z"/>
  <path d="m755.96,56.66c-2.53-4.39,3.83-8.56,6.14-3.7-.01-.03-.03-.06-.04-.09,1.72,4.05-3.62,8.42-6.09,3.78Z"/>
  <path d="m782.17,74.35c-14.37,2.14-15.5-20.23-3.78-24.37,6.37-2.8,15.57,5.26,9.93,11.27-2.85,2.69-7.2,4.26-11.1,3.6.3.87.64,1.73,1.05,2.55,10.53,2.64,9.41-6.28,14.94-4.02,5.91,5.11-6.3,11.75-11.04,10.98Zm-3.69-15.68c.11.14.2.29.28.45,1.71-.25,3.37-.97,4.76-1.99-1.59-2.08-4.34-.73-5.34,1.22.11.1.21.21.3.32Z"/>
  <path d="m803.79,67.29c-6.17-7.44-4.1-24.65-3.72-34.13.19-1.84,1.15-3.63,1.05-5.45-.4-2.58,3.03-4.06,4.75-2.22,1.73,2.03.26,5.02-.07,7.34-.76,8.09-.9,16.46.07,24.53,1.97-4.04,3.91-7.96,7.54-10.73,2.07-1.77,5.5.25,5.03,2.91-.39,2.07-2.55,3.02-3.74,4.61-.96,1.23-1.53,2.71-2.3,4.06-2.42,3.01-3.32,11.24-8.61,9.07Z"/>
  <path d="m820.05,65.8c-2.49-.72-4.26-2.99-6.72-3.68-2.19,1.8-5.63-.51-4.8-3.24,2.42-6.37,9.85-1.27,13.58,1.01,3.56,1.35,1.56,7.06-2.05,5.91Z"/>
  <path d="m828.22,62.25c.03-4.15,5.04-2.75,7.31-4.49-.51-8.21-17.24-14.27-1.86-23.42,2.71-1.47,8.27-1.65,7.92,2.67-.22,1.65-1.85,2.97-3.53,2.68-2.15,0-5.73,2.52-3.22,4.56,2.7,2.82,5.49,5.89,6.62,9.71,2.1,5.13-1.09,10.42-6.59,11.02-2.59.87-6.57.86-6.64-2.74Z"/>
  <path d="m727.65,112.85c-.81-1.98,1.13-3.07,2.69-3.69,2.43-1.25,4.79-2.64,7.17-3.99,10.53-6.06,22.35-9.46,33.57-13.82,10.56-3.92,20.58-9.29,31.48-12.28,7.75-2.22,15.43-4.68,23.34-6.3,6.7-1.75,13.33-3.83,20.23-4.67,3.66-.4,4.5,5.02.77,5.64-4.98.7-9.89,1.73-14.71,3.18-11.51,2.63-22.92,5.6-34.21,9.05-13.51,5.13-26.79,10.92-40.56,15.34-7.03,2.53-13.87,5.58-20.34,9.32-2.11,1.21-4.25,2.39-6.46,3.43-1.1.54-2.51-.11-2.97-1.2Z"/>
  <path d="m401.13,564.68c-.61-1.04-.14-2.38.95-2.86,1.41-1.4,1.57-3.56,2.08-5.36,1.9-7.29,1.61-14.83.77-22.25-1.91-12.84-2.55-25.82-4.76-38.62.04-1.85-1.62-5.21.95-5.82.89-.12,1.78.52,1.88,1.43,1.33,9.49,2.32,19.01,3.13,28.56,1.12,8.95,3.16,17.8,2.95,26.88-.16,5.41-1.34,10.87-3.04,16.01-.57,1.98-3.33,4.4-4.92,2.03Z"/>
  <path d="m504,562.79c-5.75-.29-11.56-2.65-15.31-7.11-2.89-3.74-3.01-8.75-4.37-13.14-.65-2.65-1.27-5.3-1.88-7.96-.28-1.23.36-2.5,1.62-2.85,1.18-.32,2.57.39,2.85,1.62.62,2.71,1.24,5.43,1.92,8.13,1.12,3.58,1.27,7.53,3.11,10.85,3.59,4.86,10.07,6.24,15.81,5.97,1.24-.04,2.27,1.06,2.27,2.27-.17,3.09-3.92,2.2-6.03,2.22Z"/>
  <path d="m239.34,363.19c-2.56-2.66-5.17-5.28-7.45-8.18-2.1-2.63-3.46-5.74-5.26-8.57-1.81-2.77-3.5-5.62-5-8.57-5.07-9.86-11.2-19.16-15.31-29.48-.81-1.96,2.16-3.26,3.03-1.28,2.76,7.34,6.99,13.9,10.59,20.82,4.28,8.03,8.46,15.98,13.26,23.67,2.43,3.41,5.45,6.36,8.36,9.37,1.42,1.44-.74,3.66-2.21,2.22Z"/>
  <path d="m272.3,396.9c-3.84-2.39-7.64-4.82-11.39-7.34-2.55-1.54-.28-5.39,2.29-3.91,3.75,2.52,7.55,4.95,11.38,7.34,1.05.65,1.45,2.01.82,3.1-.61,1.05-2.06,1.46-3.1.81Z"/>
  <path d="m271.71,312.25c-3.4-.32-6.32-2.53-8.89-4.61-2.24-2.57-3.92-5.59-5.85-8.4-3.84-5.32-4.44-11.9-3.73-18.24.04-.61.48-1.12,1.12-1.12.59,0,1.16.51,1.12,1.12-.13,2.33-.34,4.95-.18,7.21.23,5.51,3.63,9.9,6.64,14.23.81,1.08,1.62,2.34,2.54,3.3,2.13,1.61,4.53,3.32,7.24,3.65,4.35.04,8.59-1.33,12.93-1.43,1.95.02,1.97,2.98,0,3.01-4.34.16-8.59,1.45-12.95,1.27Z"/>
  <path d="m428.86,331.24c-5.81-.68-11.47-2.18-17.01-4.04-4.58-1.17-9.12-2.51-13.1-5.16-3.39-1.86-6.61-4.09-10.24-5.45-5.48-1.31-11.17-1.9-16.64-3.01-2.31-.43-4.66-1.02-7.01-.45-4.36,1.12-8.32,3.4-12.45,5.13-.86.39-1.9-.07-2.26-.91-.38-.88.06-1.87.91-2.26,2.09-.95,4.18-1.89,6.26-2.82,6.27-3.14,10.1-3.37,16.84-1.79,5.51,1.28,11.29,1.39,16.62,3.29,5.57,2.36,10.34,6.33,16.03,8.42,8.68,2.27,17.35,6.04,26.39,5.46,6.25-.36,12.43-1.27,18.45-3.04,1.01-.27,2.09.33,2.36,1.34.28,1.02-.34,2.08-1.34,2.36-7.69,2.27-15.81,3.38-23.83,2.93Z"/>
  <path d="m549.23,288.15c-.27-.98.32-1.96,1.28-2.25,2.35-.72,4.71-1.44,7.05-2.2,5.19-2.06,10.68-3.99,15.01-7.61,4.38-4.56,8.87-9.71,10.39-15.99.69-3.16.03-6.46-1.22-9.39-1.05-2.09-3.06-3.44-4.91-4.77-1.5-.91-3.74-2.2-2.55-4.26.6-1.03,2.08-1.5,3.12-.82,2.04,1.34,4.05,2.76,5.76,4.51,3.45,3.56,4.44,9.01,3.89,13.8-1.08,6.84-5.6,12.41-9.95,17.53-4.55,5.26-11.36,7.68-17.65,10.21-2.63.92-5.31,1.7-7.98,2.52-.94.29-1.99-.33-2.25-1.28Z"/>
  <path d="m570.92,233.75c-2.45-.64-5.01-.72-7.49-.18-3.27.49-3.97-4.62-.69-5.06,3.37-.33,11.65-1.7,11.32,3.47-.37,1.39-1.82,2.1-3.14,1.78Z"/>
  <path d="m646.78,235.24c-.74-.54-.77-1.47-.94-2.29-2.27-6.45-5.59-12.54-7.68-19.08-.72-3.13-3.41-6.28-1.86-9.5,1.52-3.24,3.93-6.19,4.89-9.64-.35-2.65-2.52-4.92-3.76-7.03-2.95-4.34-5.73-8.75-9.66-12.27-2.65-2.67-6.07-4.34-9.01-6.64-2.09-1.52-4.18-3.04-6.27-4.56-.67-.49-.77-1.5-.28-2.14.52-.67,1.46-.76,2.14-.27,7.19,5.67,15.61,9.63,21.05,17.24,2.36,3.25,4.64,6.56,6.85,9.92,1.12,1.81,2.43,3.76,2.29,5.98-.62,4.2-3.71,7.61-5.04,11.55.73,2.16,1.62,4.18,2.29,6.29,1.87,5.24,4.1,10.34,6.43,15.38.78,2.07,3.4,6.62.02,7.45-.51.07-1.05-.07-1.46-.39Z"/>
  <path d="m618.21,357.16c-2.49-1.19,4.23-7.95,5.21-9.37,2.56-3.25,4.64-6.89,6.51-10.54,2.09-4.06,3.67-8.35,5.35-12.58,2-4.69,4.26-9.26,5.95-14.08,3.34-10.04,5.01-20.51,5.9-31.02.42-1.54-.41-5.17,1.91-5.03.76.1,1.24.8,1.17,1.54-1.02,12-2.55,24.08-6.48,35.52-1.85,5.46-4.64,10.52-6.8,15.85-2.49,6.28-5.23,12.38-8.83,18.06-2.39,3.99-5.95,7.12-8.18,11.21-.34.6-1.14.8-1.73.46Z"/>
  <path d="m408.16,453.71c0-.99.82-1.79,1.8-1.8,3.55-.03,7.1-.04,10.64-.21,4.19-.34,8.36-.97,12.52-1.63,9.4-1.41,18.96-1.37,28.34-2.91,7.46-.8,15.18-.61,22.4-2.38,11.59-2.3,22.46-7.01,33.2-11.8,2.5-1.01,4.16,2.7,1.63,3.85-10.6,4.73-21.36,9.36-32.79,11.67-6.87,1.55-13.87,2.05-20.9,2.14-5.73.53-11.73,1.53-17.44,1.69-10.42.41-20.62,2.89-31.04,3.1-2.19.03-4.38.05-6.56.07-.98.01-1.8-.82-1.8-1.8Z"/>
  <path d="m442.38,436.83c-.12-.9.54-1.84,1.47-1.94,3.41-.34,6.82-.69,10.23-1.02,4.17-.42,8.42-.76,12.39-2.2,1.5-.44,3.74-2.03,4.71.02.36.85-.04,1.94-.93,2.28-6.98,3.01-14.67,3.1-22.11,3.94-1.85-.09-5.15,1.51-5.77-1.09Z"/>
  <path d="m432.06,92.65c-.75-.75-.75-1.99,0-2.74,2.52-2.52,5.11-5,7.51-7.64,2.84-3.55,5.65-7.12,8.34-10.79,2.81-4.12,3.5-9.25,6.05-13.5,3.72-5.28,9.9-8.17,16.09-9.39,2.68-.63,5.32-1.47,8.09-1.42,2.8.08,2.82,4.24,0,4.28-2.67-.04-5.25.89-7.83,1.45-4.96.94-9.77,3.32-12.97,7.31-2.49,3.93-3.2,8.7-5.7,12.63-4.91,7.17-10.51,13.85-16.83,19.82-.75.75-1.99.75-2.74,0Z"/>
  <path d="m368.38,122.23c-2.88-.04-5.46-1.37-7.96-2.65-1.12-.42-1.86-1.65-1.2-2.76.5-.85,1.59-1.11,2.45-.64,2.02,1.05,4.11,2.24,6.41,2.44,3.59.07,7.42-.79,10.78-1.84,1.44-.47,3.63-1.77,4.5.2.36.86-.03,2.03-.96,2.36-4.48,1.66-9.21,2.89-14.02,2.89Z"/>
  <path d="m218.92,208.73c-.31-.74.03-1.74.82-2.02,4.37-1.75,9.3-2.75,13.28-5.29,2.83-2.16,4.91-4.9,6.97-7.7.53-.98,1.46-2.15,2.69-1.43.71.41,1.01,1.41.56,2.12-1.83,2.85-3.98,5.49-6.39,7.86-2.29,2.29-5.29,3.6-8.32,4.6-2.53.89-5.05,1.78-7.57,2.68-.77.28-1.68,0-2.02-.82Z"/>
  <path d="m391.2,241.01c-.09-.71.42-1.44,1.15-1.51,3.09-.32,6.21-.57,9.26-1.15,5.08-1.26,9.67-4,14.8-5.17,3.68-.81,7.09-2.51,10.78-3.28,2.32-.39,4.96.31,7.19.39,1.57.13,3.09.13,4.62.41,2.87.73,5.78,1.23,8.73,1.38.77.06,1.31.86,1.21,1.6-.11.79-.83,1.27-1.6,1.21-4.37-.12-8.59-1.73-12.94-1.8-2.02-.09-4.01-.52-6.03-.51-1.81.15-3.54.87-5.24,1.42-3.33,1.36-6.89,1.99-10.28,3.17-4.13,1.4-8.02,3.63-12.41,4.11-2.57.37-5.16.61-7.75.88-.72.08-1.42-.4-1.52-1.15Z"/>
</svg>