<?xml version="1.0" encoding="UTF-8"?>
<svg id="Vektorebene" xmlns="http://www.w3.org/2000/svg" viewBox="0 0 748.67 703.19">
  <path d="m518.23,411.8c-1.83-.18-3.65-.43-5.48-.63-.21-.02-.41-.05-.62-.07-.1-1.36-.15-2.73.14-3.95,1.92-11.18-3.95-22.19-8.14-32.27-6.49-13.54-12.95-27.71-24.18-38.03-5.79-5.68-11.75-12-19.77-14.3,10.31,19.04,23.03,36.72,32.98,55.96,2.81,5.09,4.27,10.72,6.49,16.06.59,2.68,3.34,5,2.64,7.76-1.23,2.82-4.93,1.87-5.89-.66-3.11-5.5-5.14-12.2-7.86-17.74-4.36-9.18-10.47-17.34-15.17-26.36-4.88-7.93-10.15-15.62-14.72-23.74-3.33-5.26-12.59-20.02.34-18.48,8.86,1.16,15.99,7.21,22.25,13.16,11.02,9.41,18.32,21.75,24.84,34.5,7.57,15.25,15.17,31.67,12.62,48.82-.16,0-.31-.02-.47-.03Z"/>
  <path d="m512.75,411.17c-1.79-.2-3.59-.37-5.38-.58-.49-.05-.98-.11-1.46-.17-2.32-.89-4.6-1.9-6.88-2.91-1.7-1.5-3.37-3.03-5.1-4.53-5.76-5.07-13.54-7.32-18.77-13.07-11.67-9.99-24.52-18.62-34.2-30.74-5.24-6.41-13.39-10.52-17.04-18.11-.86-2.96,3.2-5.12,5.08-2.6.52,1,1.26,2.3,2,3.04,9.65,8.45,18.15,18.02,27.43,26.86,6.66,5.84,14.66,11.16,21.04,17.07,4.4,4.69,10.49,6.86,15.65,10.53,4.74,3.47,8.8,7.91,13.29,11.46,2.15,1.39,4.47,2.51,6.65,3.86.11.06.21.13.31.2-.87-.11-1.75-.22-2.62-.31Z"/>
  <path d="m508.07,423.56c-24.43-3.17-47.29-15.38-63.55-33.91-11.49-12.26-21.86-27.84-21.88-45.2.29-2.98,2.39-7.79,6.07-5.83,2.85,1.65.92,4.36.34,6.62,2.52,28.79,29.43,51.95,53.28,65.08,4.18,1.64,8.49,3.06,12.85,4.24.25.23.53.42.84.56.64.29,1.36.44,2.04.62.73.2,1.46.38,2.21.54-.12-.03-.25-.05-.37-.08.28.06.57.12.85.18,1.98.75,4.03,1.31,6.15,1.64,1.26.2,2.53.32,3.8.39.03,0,.06,0,.09.01,1.46,1.74.52,5.18-2.19,5.18-.17,0-.35-.01-.53-.04Z"/>
  <path d="m540.32,441.99c-14.3-3.43-13.45-4.84-21.21-16.05-1.27-1.28-3.11-1.77-4.73-2.45-2.36-.53-4.9-.4-7.15-1.36-1.7-.67-2.88-2.94-2.23-4.49.62.14,1.26.26,1.89.36,1.26.2,2.53.32,3.8.39.25.04.51.08.76.12,1.32.2,2.65.36,3.98.57,1.28.2,2.55.44,3.83.58.13.02.27.02.4.02.25,0,.5-.03.74-.08.21.11.41.22.62.33,5.98,3.27,6.54,12.36,13.52,14.21,2.35.73,4.7,1.58,7.12,2,3.59.04,8.97-.77,9.42-5.15.09-5.27-3.78-9.6-7.39-13.02-6.7-5.82-16.12-7.52-24.75-6.51-2.38-.1-4.82-.2-7.23-.42-.61-.07-1.23-.13-1.84-.19-1.15-.14-2.28-.31-3.38-.53-.66-.2-1.56-.43-2.59-.7-2.11-.87-4.2-1.81-6.28-2.73-.93-.41-1.86-.8-2.79-1.2-1.26-1.22-1.71-2.74-.54-4.65,1.99-2.43,4.39-.92,6.46.46,4.02,1.7,8.31,2.68,12.64,2.96,2.63.33,5.26.23,7.89.14,2.13-.07,4.27-.15,6.41,0,5.19.68,10.42,2.13,15.02,4.66,15.49,8.74,22.58,32.77-.85,32.77-.5,0-1.02-.01-1.55-.03Z"/>
  <path d="m538.12,431.98c-12.38-1.97-13.85-17.54-3.4-15.04,10.49-2.55,17.43,16.69,3.4,15.04Zm1.71-5.97c-.91-2.47-3.36-2.54-5.44-3.35-.09.03-.18.06-.28.08,0,0,0,0,0,0,1.35,1.81,3.49,3,5.72,3.27Z"/>
  <path d="m510.59,465.64c-6.57-1.04-13.07-4.86-15.9-11.07-1.81-3.83-3.11-8.14-2.37-12.39,1.26-5.25,4.1-11.18,9.23-13.52-.04-1.82.03-3.63-.19-5.44-.3-.56-.35-1.25-.1-1.88.5-1.28,2.08-1.79,3.25-1.11,2.22,1.86,1.81,5.36,2.53,7.94.71,2.53.6,6.24-2.84,6.21-2.98,1.6-4.43,5.33-5.45,8.41-.67,3.3.59,6.6,2,9.54,3.09,5.67,10.25,7.82,16.36,6.96,4.19-.5,5.03,5.75.87,6.37-2.47.23-4.94.4-7.4-.01Z"/>
  <path d="m526.51,446.14c-2.39-11.5-3.29-9.76-11.92-16.43-2.2-2.98-3.41-11.12,1.71-11.59,4.06.16,3.15,4.16,3.37,6.95.62,1.48,2.75,1.77,3.9,2.86,3.46,2.37,6.33,5.72,7.3,9.87.4,2.78,1.72,6.58-.4,8.86-1.18.91-3.07.75-3.95-.51Zm4.98-2.25c-.05-.4-.2-.76-.43-1.08.22.34.36.7.43,1.08Z"/>
  <path d="m514.04,453.6c-12.03-1.84-14.3-22.31-3.18-18.9,4.66-1.31,9.03,3.28,10.72,7.23,1.69,4.71-1.71,12.77-7.54,11.67Zm.79-6.15c.98-1.33,1.4-3.25.07-4.49-1.04.56-2.36.49-3.36-.26-.58-.44-1.16-.88-1.75-1.31.22,2.89,2.4,5.1,5.04,6.07Z"/>
  <path d="m575.55,231.4c0-.52.43-.95.95-.95s.95.43.95.95-.43.95-.95.95-.95-.43-.95-.95Z"/>
  <path d="m571.35,235.64c-.73-.73-1.01-1.7-.91-2.71.01-.16.04-.31.06-.47.03-.75,0-1.51.01-2.26,0-.5,0-1.01.03-1.51.03-.68.09-1.31.22-1.97,0-.03.01-.07.02-.1.06-1.79.01-3.58.01-5.36,0-2.44,0-4.88,0-7.32,0-5.63,0-11.26-.01-16.89-.02-11.97-.02-23.93-.02-35.9,0-11.66,0-23.32,0-34.98s.02-23.85.07-35.77c.03-6.1.05-12.2.07-18.3.03-5.85.09-11.7.11-17.55.01-4.64,0-9.29,0-13.93,0-1.3,1.09-2.39,2.39-2.39s2.39,1.09,2.39,2.39c.02,12.06.12,24.12.21,36.18.1,11.98.17,23.96.2,35.94.03,11.73.07,23.46.1,35.18.04,11.95.03,23.9.07,35.84.03,11.27.04,22.53.06,33.8,0,1.7.01,3.41.02,5.12,0,1.31-.03,2.63.02,3.94,0,.02,0,.04,0,.06.13.65.19,1.28.23,1.95.02.5.02,1,.03,1.5,0,.77-.02,1.56.02,2.33.02.16.05.31.06.47.09.87-.1,1.71-.64,2.4-.61.79-1.55,1.25-2.55,1.25-.85,0-1.67-.34-2.27-.94Z"/>
  <path d="m573.75,236.68c0-.41.34-.75.75-.75s.75.34.75.75-.34.75-.75.75-.75-.34-.75-.75Z"/>
  <path d="m741.55,241.85c-9.47-.19-18.94-.35-28.41-.54-12.82-.26-25.65-.54-38.48-.8-13.38-.28-26.75-.53-40.12-.79-6.29-.12-12.57-.25-18.86-.38-6.4-.13-12.81-.23-19.21-.43-7.83-.24-15.66-.55-23.5-.69-1.55-.03-2.84-1.27-2.84-2.84s1.29-2.87,2.84-2.84c6.07.11,12.15.14,18.23.14,6.3.01,12.6.12,18.89.22,12.78.2,25.57.42,38.35.65,13.3.25,26.61.45,39.91.65,12.45.19,24.9.41,37.35.64,5.28.09,10.56.19,15.84.29,1.83.03,3.36,1.5,3.36,3.36s-1.49,3.36-3.3,3.36c-.02,0-.04,0-.06,0Z"/>
  <path d="m738.86,238.38c-.09-6.51-.29-13.02-.45-19.52-.16-6.86-.3-13.72-.45-20.58-.29-14.17-.55-28.35-.79-42.52-.24-13.89-.47-27.78-.7-41.67-.24-13.82-.45-27.65-.68-41.47-.17-10.35-.35-20.7-.5-31.05l-.07-4.45c-.03-1.9,1.61-3.48,3.48-3.48s3.45,1.59,3.48,3.48c.14,8.02.26,16.04.39,24.06.22,13.7.43,27.39.65,41.09.22,13.84.43,27.69.64,41.54.2,13.89.38,27.78.58,41.67.2,14.22.34,28.44.47,42.66.03,3.42.04,6.84.09,10.26.02,1.68-1.42,3.08-3.07,3.08s-3.05-1.4-3.08-3.08Z"/>
  <path d="m593.37,42.17c-2.87-.03-5.74-.07-8.61-.13-2.69-.07-5.37-.04-8.05-.24-.42-.02-.85,0-1.28,0-1,.02-1.83-.84-1.83-1.83s.83-1.82,1.83-1.84c.37,0,.74-.01,1.12-.03.91-.08,1.81-.19,2.72-.23,1.27-.06,2.54-.1,3.8-.17,2.42-.13,4.84-.22,7.26-.35,4.89-.27,9.8-.45,14.7-.59,10-.3,20-.46,30-.63,10.35-.17,20.69-.34,31.04-.5,10.12-.16,20.24-.31,30.37-.46,9.99-.15,19.98-.3,29.97-.46,4.03-.06,8.06-.12,12.09-.2,1.63-.03,2.99,1.39,2.99,3s-1.36,2.98-2.99,3c-8.04.08-16.07.22-24.1.34-10.11.15-20.21.3-30.32.45-10.2.15-20.41.3-30.61.45-10.2.15-20.39.3-30.58.4-5.03.05-10.05.09-15.08.13-.83,0-1.66,0-2.49,0-3.98,0-7.97-.06-11.95-.11Z"/>
  <path d="m596.05,140.58c-1.85-.02-3.25-1.55-3.29-3.36-.13-7.86-.28-15.73-.38-23.59-.17-12.51-.31-25.03-.36-37.54,0-2.36,0-4.71-.04-7.06-.03-1.6,1.4-2.92,2.97-2.9,1.63.02,2.88,1.37,2.9,2.97.1,5.98.38,11.95.52,17.93.15,6.33.31,12.66.46,19,.22,9.39.37,18.79.53,28.19.02,1.03.03,2.05.05,3.09.03,1.8-1.57,3.29-3.33,3.29-.01,0-.02,0-.03,0Z"/>
  <path d="m652.8,139.05c-5.95-.04-11.91-.06-17.86-.09-5.48-.02-10.96-.07-16.45-.11-5.23-.03-10.45-.18-15.67-.35-1.35-.04-2.75,0-3.99-.21-.06,0-.11-.02-.16-.02-.81-.02-1.61-.02-2.42-.02-1.39,0-2.56-1.16-2.56-2.56s1.16-2.56,2.56-2.56c.82,0,1.65.03,2.48,0,.04,0,.07-.01.07,0,1-.17,2.03-.15,3.05-.18,1.29-.04,2.59-.08,3.88-.12,2.54-.07,5.09-.1,7.63-.12,5.54-.05,11.07-.03,16.61-.02,6.88.02,13.75.03,20.62.05.74,0,1.48,0,2.23,0,1.72,0,3.16,1.44,3.16,3.16s-1.43,3.16-3.14,3.16c0,0-.01,0-.02,0Z"/>
  <path d="m653.4,136.01c.01-.89-.07-1.77-.1-2.65-.05-1.47-.11-2.93-.13-4.4-.04-2.95-.13-5.91-.19-8.86-.1-5.77-.1-11.54-.08-17.31.02-8.89.13-17.79.25-26.68.03-2.39.07-4.79.1-7.18.02-1.84,1.52-3.38,3.38-3.38s3.41,1.54,3.38,3.38c-.08,6.26-.15,12.52-.25,18.79-.18,11.04-.36,22.09-.86,33.12-.22,4.87-.44,9.75-.78,14.61,0,.19-.01.37-.01.56-.02,1.29-1.06,2.36-2.36,2.36s-2.38-1.07-2.36-2.36Z"/>
  <path d="m592.99,65.72c0-1.61,1.33-2.89,2.93-2.92,6.02-.11,12.04-.38,18.06-.52,5.52-.14,11.05-.26,16.58-.37,8.29-.16,16.58-.32,24.87-.47,1.73-.03,3.18,1.47,3.18,3.17s-1.45,3.14-3.18,3.18c-9.25.16-18.51.35-27.76.5-5.11.08-10.21.18-15.32.22-5.47.04-10.95.04-16.42.14-.02,0-.03,0-.05,0-1.57,0-2.88-1.37-2.88-2.93Z"/>
  <path d="m613.96,133.24c.82-9.5.23-18.86.27-28.36.51-12.78,1.88-25.51.99-38.28-.06-3.47,5.4-3.51,5.4,0,1.22,16.21-.97,32.43-.29,48.64-.45,3.9,1.98,21.56-3.37,21-1.66,0-2.98-1.37-3-3Z"/>
  <path d="m630.98,134.44c-.84-22.12,2.29-44.17,2.89-66.27.51-4.02,6.82-3.2,6.24.86-.62,16.07-1.84,32.12-2.88,48.15-.67,6.15.79,12.88-.67,18.75-1.58,2.17-5.25,1.2-5.57-1.48Z"/>
  <path d="m601.18,86c-6.28.94-5.36-8.34.26-5.85,9.77.19,19.02-2.76,28.68-3.21,8.33.66,16.79-1.41,25.05-.35,4.04,1.09,2.32,7.39-1.72,6.25-8.75-.19-17.53.81-26.3.47-8.61,1.34-17.21,2.84-25.97,2.7Z"/>
  <path d="m599.62,104.16c-2.03.16-4.2-1.56-3.52-3.73.48-1.56,2.22-2.48,3.76-1.77,2.85-.05,5.67-.5,8.5-.8,14.32-1.11,28.24-3.12,42.52-4.11,3.06-.1,8.6-1.66,8.89,2.87,0,1.73-1.44,3.16-3.17,3.17-3.96-.09-7.84.71-11.77.95-15.11.33-30.07,3.06-45.21,3.43Z"/>
  <path d="m594.53,123.09c.02-4.51,6.42-2.59,9.34-3.76,14.35-2.62,28.98-5.27,43.58-5.48,3.43.5,11.62-1.68,12.91,2.22.81,3.45-3.13,4.32-5.75,3.68-15.72-.65-31.32,1.99-46.87,3.97-3.37.1-12.07,3.86-13.2-.64Z"/>
  <path d="m680.13,151.24c-4.88-1.13-1.74-8.04-2.64-11.64-.83-7.24-2.45-14.73-3.63-21.83-2.15-11.67-5.3-23.78-2.98-35.49,1.59-9.39,2.04-24.03,14.28-24.93,1.47-.34,3,.43,3.42,1.94.92,4.35-4.64,3.18-6.79,4.93-4.99,8.43-5.4,19.23-5.47,28.83-.92,8.54,14.78,59.36,3.8,58.19Z"/>
  <path d="m715.2,150.05c-2.02-.29-2.95-2.37-2.35-4.22-1.27-5.78-1.66-10.99-1.53-16.73-.01-8.42-1.65-16.2.45-24.39,1.27-7.32,3.48-14.11,2.82-21.51-.97-15.36-9.97-29.79-26.14-18.73-3.79,2.25-7.28-3.7-3.44-5.89,20.29-13.16,34.67,2.38,36.29,23.12,1.29,10.43-2.92,20.36-3.93,30.51.08,8.63.55,17.25.51,25.89-.02,3.73,3.2,11.66-2.69,11.95Z"/>
  <path d="m718.25,145.22c0-.54.45-.99.99-.99s.99.45.99.99-.45.99-.99.99-.99-.45-.99-.99Z"/>
  <path d="m699.16,183.26c-7.16-.96-16.58-.77-20.73-7.76-3.69-7.55.47-19.25,9.3-20.71,3.8-.56,6.39,2.65,9.57,4.02,4.28.98,11.53,1.83,13.39-3.26,1.24-4.69,1.6-10.04,5.94-13.09,3.1-2.94,6.18-2.98,9.04.39,3.24,5.9,1.29,13.34.45,19.69-1.41,11.01-16.09,21.62-26.95,20.71Zm1.89-6.37c6.43-.07,12.07-4.96,16.26-9.49,3.92-5.68,3.88-13.66,3.35-20.37-.39-.02-.77-.13-1.12-.32-3.53,2.94-2.61,8.14-4.59,11.95-5.43,8.87-18.89,8.28-26.37,2.47-3.97.98-5.47,6.19-4.97,9.82,1.78,6.16,12.21,5.23,17.44,5.94Z"/>
  <path d="m694.33,232.62c-4.84-.76-9.55-2.34-14.03-4.33-4.09-1.34-7.57-3.99-10.14-7.43-5.87-6.55-3.67-16.23-1.23-23.8,3.47-7.42,4.11-15.44,4.65-23.46.05-7.1.34-14.24,1.8-21.21.68-3.12,1.13-6.87,4.2-8.59,1.05-.7,2.56-.21,3.17.83.66,1.13.21,2.46-.83,3.16-1.02.62-1.08,1.99-1.38,3.03-.73,3.88-1.11,7.82-1.44,11.74-.33,8.01-.22,16.05-1.55,23.98-.65,5.93-3.71,11.13-4.96,16.89-.86,4.11-1.7,8.72.48,12.57,1.53,2.07,3.18,4.14,5.35,5.59,1.53,1.06,3.36,1.52,5.02,2.32,4.74,1.82,9.92,4.1,15.09,3.28,6.22-1.36,18.72-7.3,20.38-13.78,1.89-5.98.22-12.06-1.38-17.87-1.25-7.1-2.03-14.26-2.88-21.42-.46-4.29,5.78-5.18,6.52-.89.85,5.1.79,10.31,1.95,15.36.35,4.58,1.52,8.98,2.27,13.48.97,7.36-.62,15.99-6.77,20.75-6.89,5.27-15.32,10.29-24.28,9.78Z"/>
  <path d="m678.53,204.57c-1.38-.19-2.22-1.44-2.11-2.77-.21-4.51,3.03-7.14,6.61-9.18,2.73-1.53,5.48-3.19,8.49-4.08,10.91-2.71,15.76-1.83,23.57,6.39,2.69,2.79-1.38,6.89-4.2,4.2-2.13-1.96-4.01-4.38-6.64-5.7-5.61-1.6-11.76-.21-16.78,2.53-2,1.13-4.22,2.11-5.75,3.86-.41.8-.3,1.78-.42,2.65-.12,1.34-1.5,2.28-2.78,2.11Z"/>
  <path d="m695.41,110.79c-4.82.15-9.91-.03-12.97-4.34-2.6-2.57,1.43-6.62,4-4.01,2.82,4.02,8.35,2.04,12.55,1.98,2.68-.29,4.97-2.64,7.66-2.25,8.16,5.4-6.95,9.22-11.25,8.62Z"/>
  <path d="m728.86,67.62c-.11-4.53.03-9.07.51-13.58-3.6-.3-7.05-1.32-10.32-2.84-.7-.28-1.02-1.12-.73-1.8.29-.7,1.11-1.02,1.8-.73,3.36,1.44,6.95,2.86,10.67,2.24.85-.39,1.91-.12,2.38.71.38.61.26,1.26.12,1.91-.58,4.67-.53,9.4-.47,14.09-.05,2.58-3.88,2.6-3.95,0Z"/>
  <path d="m723.93,231.15c-.52-2.3,2.07-2.61,3.75-2.55.62-.02,1.26.06,1.86-.04.29-.35.39-.83.52-1.25.5-2.84.76-5.73.98-8.6.17-1.57-.59-4.27,1.74-4.38,2.24.1,1.7,2.79,1.69,4.34-.23,3.16-.49,6.34-1.02,9.46-.58,3.11-2.71,4.26-5.72,4.13-1.38.2-3.3.72-3.81-1.1Z"/>
  <path d="m587.37,228.69c-7.9,1.15-6.12-20.24.91-16.63,1.76,1.35.76,3.35-.28,4.8-.78,2.11-.62,4.53-.44,6.74,1.34.19,2.69-.17,3.94-.64,5.37-.88,5.14,6.48-4.13,5.73Z"/>
  <path d="m621.99,198.47c-1.61-.27-3.19-.73-4.68-1.41-1.3-.6-2.46-1.35-3.3-1.92-3.23-2.16-5.52-5.42-6.83-9.05-1.4-4.15-1.37-8.53.08-12.66,1.11-3.17,3.15-5.97,5.71-8.12.92-.77,1.92-1.45,2.97-2.02.7-.38,1.48-.51,2.22-.39.57-.24,1.14-.45,1.74-.65.47-.19.92-.4,1.41-.54.66-.2,1.36-.3,2.04-.41,1.51-.23,3.08-.18,4.59.05,2.43.38,4.83,1.18,6.94,2.48,1.73,1.07,3.25,2.39,4.57,3.93,3.96,4.62,5.31,11.12,3.79,16.98-.29,1.13-.71,2.23-1.21,3.29-.03.07-.07.14-.1.22-.24.62-.64,1.21-.99,1.76-1.21,1.89-2.75,3.56-4.55,4.91-3.28,2.46-7.31,3.81-11.39,3.81-1,0-2-.08-3-.25Zm3.84-6.27c.57-.05,1.13-.12,1.69-.22.52-.12,1.04-.25,1.55-.41.56-.2,1.11-.44,1.65-.7.46-.24.91-.51,1.34-.79.4-.29.79-.59,1.17-.91.34-.3.66-.62.96-.95.37-.43.72-.87,1.05-1.33.29-.44.56-.89.8-1.35h0c.24-.52.46-1.04.66-1.57.17-.53.32-1.07.45-1.61.1-.54.17-1.08.22-1.63.02-.54.02-1.07,0-1.61-.05-.59-.13-1.17-.24-1.76-.12-.53-.26-1.06-.43-1.58-.18-.49-.39-.98-.62-1.45-.24-.46-.5-.9-.78-1.33-.3-.43-.61-.84-.95-1.23-.34-.39-.71-.76-1.09-1.1-.43-.37-.88-.71-1.35-1.03-.39-.25-.79-.48-1.2-.7-.5-.24-1.01-.45-1.54-.64-.53-.17-1.06-.32-1.6-.44-.82-.15-1.65-.26-2.48-.33-.61-.03-1.23-.05-1.84-.03-.61.05-1.21.1-1.82.14,0,0-.01,0-.02,0-.23.06-.45.13-.67.21-.09.03-.18.06-.27.1-.28.47-.67.87-1.17,1.14-.36.2-.72.42-1.07.64-.46.32-.91.67-1.34,1.04-.38.35-.74.71-1.08,1.09-.33.39-.64.8-.94,1.22-.28.43-.54.87-.77,1.32-.24.5-.45,1.01-.64,1.53-.16.49-.3,1-.41,1.5-.1.56-.18,1.12-.23,1.68-.03.54-.03,1.09,0,1.63.05.55.12,1.1.23,1.64.12.54.27,1.07.44,1.59.18.49.39.97.62,1.44.25.47.51.92.8,1.37.3.43.62.84.96,1.24.57.62,1.18,1.2,1.81,1.76.18.15.36.29.55.42.44.28.89.54,1.35.77.46.22.93.41,1.41.59.49.16.99.3,1.5.42.62.12,1.24.2,1.86.25.49.02.98.02,1.48,0Z"/>
  <path d="m499.36,347.94c-9.46-5.18-9.51-14.58.01-19.97-3.49-8.68,3.82-16.69,10.49-21.36,1.18-7.65,5.23-16.4,11.13-21.55,2.01-5.9,5.69-11.27,10.37-15.37.8-9.52,5.85-19.5,13.34-25.48,2.53-6.84,4.82-14.44,10.24-19.58.84-5.06,14.37-19.39,19.57-19.94,3.6-3.53,7.04-7.81,11.95-9.47,3.37-3.74,8.42-6.7,13.54-6.76,2.44-3.11,5.6-5.94,9.56-6.8,1.88-6.48,11.39-11.65,16.62-5.87,3.32,4.05.27,12.52-5.62,11,9.81,13.51-6.9,19.79-10.91,1.44-1.38.61-2.53,1.61-3.53,2.72,3.83,3.38,9.26,8.83,6.65,14.33-1.33,2.5-4.45,3.59-7.09,2.67-2.33,13.96-19.37,6.71-21.13-3.84-.7.64-1.4,1.29-2.1,1.94,6.58,3.77,11.08,14.23,5.14,20.34-7.35,5.05-17.11-2.69-17.68-10.65,0,0,0,0,0,0-1.15,1.3-2.31,2.57-3.53,3.8-1.12,1.14-2.28,2.25-3.35,3.44,20.36,9.17,6.51,36.23-6.63,10.47-1.77,3.2-3.07,6.63-4.45,10.01,26.04,9.72,3.57,34.55-6.64,9.29-2.91,3.82-5.14,8.2-6.63,12.77,9.36-3.76,16.81,6.65,16.21,15.23-2.99,12.85-17.36,3.24-21.26-4.04-1.89,2.14-3.61,4.45-4.94,6.99,24.36,11.4,5.44,29.38-7.74,11.93-1.52,3.2-3.42,6.32-4.34,9.76,6.07.5,11.35,5.92,12.69,11.72.24,14.2-14.88,3.43-17.59-3.71-3.85,3.53-8.65,8.23-5.65,13.77,15.8,6.61,8.17,21.72-3.96,6.83-1.39,1.05-2.92,2.31-3.4,4.04.97,1.75,2.28,3.24,3.72,4.61,1.86,2.18-.27,5.79-3.06,5.29Zm33.69-51.96c.2-.02.39-.04.59-.06-1.55-2.76-4.36-4.75-7.2-6.02-.71,3.19,3.56,6.48,6.61,6.08Zm14.39-15.57c.29,0,.59-.02.85-.16.2-5.1-3.88-11.48-9.35-7.68,1.92,3.27,4.98,6.61,8.6,7.85,0,0-.1-.01-.1-.01Zm8.81-23.34c4.23-.84-3.1-5.91-4.73-6.65.69,2.53,2.32,4.85,4.35,6.39.12.09.25.18.38.25Zm10.65-20.3c-.57-2.82-2.44-5.33-4.81-6.94.92,2.71,2.95,4.84,4.81,6.94Zm16.2-15.46c.07-.01.14-.02.21-.03,1.48-4.07-1.78-8.68-5.54-10.17-3.18,3.89.4,10.51,5.33,10.2Zm14.67-11.82c4.89-2.15-3.87-9.67-7.19-8.47-.11,4.1,3.15,7.78,7.19,8.47Zm9.28-7.72c-.8-1.96-2.36-3.54-3.81-5.05.13.98.15,2.08.78,2.89v-.07c.87.9,1.91,1.65,3.03,2.23Zm-10.1-5.99c0-.11,0-.22.02-.33-.12.05-.25.11-.37.16.12.05.24.11.35.17Zm19.17-13.23s0-.03-.01-.04c-.03-.08-.05-.17-.07-.25-.04.06-.07.12-.11.19.06.04.13.07.19.11Z"/>
  <path d="m498.5,348.86c-.43-.51-.8-1.07-1.14-1.64-.17-.29-.27-.59-.32-.91-1.6.78-3.59-.25-4.04-1.91-.84-4.93,7.71-5.34,10.29-2.71,4.42,3.58.05,11.85-4.8,7.17Z"/>
  <path d="m338.37,489.28c-10.9-5.53-10.32-19.81-3.54-28.46-3.8-5.85-8.15-5.44-11.96.14,11.6,36.98-23.93,32.64-7.43-.51-2.48-5.39-8.79-3.89-12.74-1.08,2.46,33.82-29.58,21.98-7.34-2.69-1.59-4.98-8.44-5.4-12.61-3.95-1.42,32.58-33.71,19.91-6.81-3-.08-3.78-10.75-9.28-14.02-7.56.61,7.57-3.92,17.53-12.15,18.59-11.54-2.3-.63-18.28,5.25-21.73-.61-1.2-1.76-1.96-2.91-2.57-5.18-4.84,3.03-10.04,8.48-.85,6.38-1.83,18.81,4.22,21.11,10.43,6.93-1.42,15.85-.29,19.14,6.87,5.74-3.61,14.28-4.04,18.6,1.93,5.57-6.81,14.65-6.46,19.58.85,5.81-6.29,15.08-6.27,21.47-.87,5.88-4.52,14.45-6.62,20.96-2.17,2.68-6.55,10.66-12.04,17.67-8.86,1.77-2.66,4.63-4.58,7.44-5.97,2.77-1.38,5.77-2.31,8.89-2.39,2.02-3.72,4.91-7.31,9.31-8.08-2.26-9.7,2.78-21.95,11.69-26.52-2.93-7.11,2.89-14.33,8.67-17.97,1.2-8.02,8.45-14.99,16.52-15.92,1.57-5.81,11.3-13.6,16-7.17,1.63,3.36-2.08,7.16-4.95,4.1-1.6.53-2.93,1.67-3.85,3.07,0,0,0,0,0,0,20.28,4.87.23,31.42-8.11,6.89-3.72.93-6.58,3.98-8.29,7.31,8.33-.31,15.8,11.64,6.62,16.26-4.99,2.03-11.1-2.44-13.04-6.98-2.55,2.37-5.1,6.06-2.81,9.43,21.63-.07,9.66,23.56-3.52,6.9-6.26,2.19-11.85,15.43-7.3,20.97,10.47,2.63,4.34,14.33-3.41,6.07-2.81-.69-5.55.69-6.79,3.28,8.51,2.6,12.22,18.07,2.21,20.74-7.5.03-13.3-8.21-11.75-15.33-3.21,1.06-6.9,2.69-8.51,5.84,4.51,5.01,10.37,16.9.82,19.72-7.98-.69-10.59-11.64-8.39-18.21-.08-.05-.16-.09-.06-.03-4.49-1.64-8.47,3.19-9.64,7.08,5.09,4.83,12,10.46,10.97,18.26-.42,3.42-3.95,6.47-7.43,5.2-8.05-3.45-12.04-12.75-10.93-21.16-4.14-3.55-9.82-2.78-14.06.19,6.04,6.77,9.25,23.04-2.24,25.7-2.59,0-4.43-2.07-6.06-3.82-6.32-5.38-4.65-15.06-1.15-21.6-4.09-3.38-9.35-2.84-12.81,1.13,4.83,5.66,7.23,13.67,4.42,20.8-1.35,3.76-4.45,9.36-9.24,7.7Zm1.57-6.87c3.45-4.86,2.82-11.56-.82-16.14-3.01,4.88-4.51,12.28.82,16.14Zm-22.06-2.78c.96-2.68.78-5.64.5-8.43-.34,2.73-1.54,5.77-.5,8.43Zm45.28-1.62c2.78-4.41.41-9.78-2.22-13.68-1.84,4.79-2.54,10.43,2.22,13.68Zm-69.26-4.56c1.25-1.62,1.41-3.85,1.86-5.8-.78,1.81-2.19,3.76-1.86,5.8Zm97.52-.13c-.47-3.15-2.84-5.71-5.02-7.89.44,3.32,2.3,6,5.02,7.89Zm-119.22-8.49c1.54-1.32,2.3-3.36,3.07-5.19-1.36,1.5-2.55,3.2-3.07,5.19Zm151.14-13.8c1.57-3.37-.83-6.82-4.02-8.04-1.12,3.1.91,7.04,4.02,8.04Zm33.06-59.65c.18-.1.31-.28.41-.46-.53-2.03-2.8-3.09-4.75-3.23.57,1.96,2.67,2.82,4.34,3.68Zm14-14.01c1.46-2.19-.51-3.93-2.76-3.96.82,1.34,1.42,3.09,2.76,3.96Z"/>
  <path d="m232.89,446.27c-12.36-4.58.94-18.51,9.11-19.26,2.21-7.15-2.48-14.5-9.51-16.46-2.08,4.07-5.01,7.88-8.97,10.26-4.37,1.37-10.38,2.45-14.17-.79-2.79-2.14-2.53-5.88-1.35-8.85,2.92-8.05,12.94-9.83,20.47-8.52,2.2-5.05-.72-10.76-5.41-13.16-4.64,8.25-21.91,15.74-24.53,2.4.99-10.15,12.85-13.67,21.43-10.81,1.12-3.97-3.73-6.24-6.68-7.63-4.39,4.32-13.39,7.06-18.24,2.26-2.08-2.96-1.32-7.29,1.16-9.78,4.06-4.18,10.11-2.05,14.88-.49,2.85-3.97,1.83-8.74.33-13.01-6.35-.26-14.96.84-19.04-5.1-2.96-4.78,2.09-10.08,6.98-10.23,6.04-.49,12.72,1.35,15.82,6.97,3.38-2.55,2.91-7.58,2.2-11.3-.33-1.8,1.12-3.56,2.88-3.8,7.86-.25,4.36,19.56-2.45,21.36,2.13,5.7,2.87,12.16-.39,17.61,5.94,2.53,11.53,8.85,8.84,15.61,7.29,3.78,11.84,12.78,8.76,20.72,9.87,3.13,16.43,13.7,13.61,23.87,2.89,1.4,5.95,2.67,7.83,5.41,2.21,2.14,4.35,7.82-.57,7.74-1.71-.18-2.28-1.97-3.33-3.07-1.55-2.04-3.89-2.95-6.15-3.97-2.77,4.97-6.67,13.51-13.55,12.01Zm-16.77-30.98c4.39.4,7.47-2.57,9.45-6.21-4.42-.3-11.03.54-11.62,5.99.63.4,1.45.2,2.16.23Zm-7.54-22.97c3.14-.42,5.59-2.89,7.68-5.1-4.2-.96-9.25.02-10.89,4.49.76.94,2.14.55,3.21.61Zm-5.81-21.05c.9-.08,1.82-.14,2.66-.51-1.46-.3-4.03-1.41-4.73.54.69.03,1.38,0,2.07-.03Zm5.18-25.56c-2.44-1.99-6.49-2.45-9.43-1.45,2.89,1.36,6.3,1.16,9.43,1.45Z"/>
  <path d="m220.08,333.16c-24.66-5.55-33.62-30.97-23.27-52.82,2.11-4.64,5.4-8.91,8.2-13.09,3.88-5.74,7.35-11.81,12.57-16.48,3.53-3.84,7.35-7.36,11.15-10.92,3.65-3.61,2.96-15.55,9.76-14.06,2.35,1.01,2.5,3.84,1.12,5.73-1.59,3.21-2.27,6.79-3.97,9.97-2.85,4.97-8.08,7.9-11.63,12.35-5.5,4.83-9.7,11.35-13.6,17.37-5.9,7.72-10.38,16.47-11.17,26.29-1.21,11.69,6.25,22.62,16.68,27.44,3.71,1.25,8.46,4.19,12.19,2.11,8.11-2.09,5.44,10.7-8.32,6.06,0,0,.28.06.28.06Z"/>
  <path d="m310.5,229.03c-3.24-2.05-.81-5.28.18-7.9,3.29-7.11,6.74-14.14,10.83-20.84,4.38-6.79,6.56-14.57,9.58-21.98,2.27-5.06,4.61-10.08,6.73-15.2,1.95-4.59,4.46-8.92,6.11-13.63,2.14-6.97,3.51-14.14,3.19-21.42-.47-4.38-1.49-8.71-2.79-12.92-1.66-4.94-5.28-8.89-8.95-12.45-3.97-4.34-9.24-6.96-14.92-8.29-2.48-.46-4.98-1.02-7.51-.86-2.96.29-5.79,1.37-8.46,2.64-5.83,2.71-10.25,7.39-14.17,12.34-2.24,2.92-4.37,5.95-6.07,9.22-2.47,4.88-3.76,10.23-5.9,15.25-3.36,8.39-5.67,17.14-9.02,25.52-1.74,4.19-3.46,8.38-4.97,12.65.73,1.82-1.18,3.36-2.08,4.76-1.6,1.62-4.38.26-4.29-1.96,1.39-6.89,4.06-13.5,6.42-20.12,2.47-7.14,4.43-14.45,7.09-21.53,2.1-5.18,3.57-10.41,5.72-15.52,2.46-5.33,5.83-10.23,9.66-14.68,2.95-3.42,5.94-6.93,9.87-9.26,9.82-6.63,19-7.75,30.1-3.56,5.13,1.57,9.48,4.72,13.22,8.51,3.66,3.57,7.19,7.43,9.43,12.07,2.74,6.6,4.41,13.86,4.45,21.01-.27,10.26-2.69,20.54-7.47,29.64-4.64,10.36-9.58,20.62-13.27,31.38-2.85,7.75-7.75,14.5-11.52,21.8-1.75,3.95-3.8,7.77-5.5,11.76-.73,2.57-2.8,5.15-5.69,3.56Z"/>
  <path d="m229.22,332.67c-3.9-.92-2.64-7.19,1.34-6.5,6.57-1.15,13.62-1.73,19.77-4.51,8.37-3.79,12.3-12.53,17.45-19.57,7.9-8.96,13.51-20.02,18.29-30.68,1.57-2.72,2.82-8.65,7.06-6.62,1.44.84,2.01,2.82,1.12,4.26-4.04,7.51-7.15,15.49-11.18,23.01-3.51,6.24-9.17,11.78-12.86,17.78-9.47,17.22-22.11,21.73-40.99,22.83Z"/>
  <path d="m215.47,334.13c-13.18-3.16-24.71-10.48-33.19-21.09-7.59-6.98-6.44-17.16-3.4-26.05,1.44-7.53,4.65-14.44,7.49-21.51,3.23-8.14,7.83-16.99,17.01-19.35,4.91-1.44,24.48-4.34,22.84,4.34-.68,1.61-2.58,2.38-4.19,1.7-3.38-2.05-7.86-.77-11.45-.7-15.3.41-17.7,17.89-23.04,28.94-3.75,15.56-9.16,21.8,5.15,33.74,5.56,6.06,12.86,10.18,20.81,12.16,2.36,1.06,6.25,1.46,5.77,4.93-.23,1.73-2.01,3.25-3.78,2.87Z"/>
  <path d="m267.78,148.84c-1.51-.36-2.62-1.58-3.38-2.87-3.35-4.07-7.72-8.02-8.07-13.66.56-13.6,10.07-25.5,17.79-36.15,6.38-8.84,17.9-10.36,27.98-9.15,2.86.28,7.4-1.03,8.04,2.94.95,7.61-16.94,1.15-23.19,4.83-9.23,4.04-14.17,14.87-19.04,23.14-6.68,12.73-6.66,14.13,2.3,25.14,3.12,1.78,1.02,6.76-2.43,5.78Z"/>
  <path d="m357.41,317.5c-19.02-3.22-42.01-21.56-55.66-35.04-14.64-12.76-30.38-23.98-47.68-32.87-14.44-8.79-24.95-24.16-30.9-39.76-5.7-14.87-.25-34.32,16.11-39.28,7.47-2.1,17.18-2.2,23.33,3.05,1.68,1.63,3.35,4.34,1,6.18-2.12,1.68-4.3-.2-5.47-2.03-9.79-4.76-23.46-1.31-28.21,9.03-7.82,16.77,5.37,34.32,15.45,47.08,10.45,11.94,26.39,16.59,38.86,26.02,9.2,7.52,19.1,14.34,27.2,23.08,8.26,7.34,17.53,13.36,26.59,19.64,15.35,10.03,36.87,15.33,33.42-11.06-.3-5.82-.37-11.71-3.5-16.85-1.89-3.83-2.03-7.9-3.3-11.86-2.92-6.64-7.24-12.58-10.54-19.03-2.31-9.12-8.2-16.37-11.67-24.97-4.14-6.47-8.03-12.71-11.24-19.51-2.8-5.92,4.94-7.68,7.05-1.37,0,0,0,0,0,0,.15.15.54.91.58,1,1.18,4.17,4.07,7.77,6.18,11.34,3.89,4.9,5.21,11.16,8.98,16.11,3.18,4.6,4.48,10.06,6.52,15.17,3.37,6.02,7.17,11.82,10.13,18.06,1.75,6.86,3.7,13.09,6.41,19.65,1.35,10.41,2.93,21.57-1.87,31.31-3.02,5.17-12.16,7.62-17.82,6.89Z"/>
  <path d="m332.84,256.6c-7.05-13.07-18.83-23.06-29.44-33.25-8.84-7.8-19.89-16.34-17.88-29.55,1.13-8.67,1.12-16.65-6.78-22.12-5.94.79-9.05,9.26-15.64,8.48-1.16-.17-2.24-.69-3.42-.8-3.68-.93-2.1-6.73,1.57-5.66-.12-.03-.24-.05-.36-.07-.1,0-.2-.01-.3-.02,2.58.44,4.21.26,6.03-1.79,2.66-2.48,4.77-4.37,7.81-5.99,7.99-3.76,14.88,6.03,17.5,12.49,2.58,22.16-5.92,21.84,14.5,38.84,11.78,11.02,24.73,22.07,32.33,36.46,1.58,3.67-3.93,6.52-5.94,2.97Z"/>
  <path d="m99.57,196.23c-5.27-3.25-9.18-8.34-11.16-14.19-2.84-8.38-1.11-17.9,4.3-24.86.67-.86,1.39-1.7,2.19-2.42.97-.88,2.05-1.68,3.11-2.44,1.11-.8,2.3-1.57,3.52-2.21,1.15-.6,2.48-.94,3.71-1.35.74-.25,1.49-.46,2.25-.65.51-.53,1.2-.91,1.97-1.04,1.7-.28,3.45-.39,5.17-.32.31.01.61.03.92.05,3.29.25,6.56,1.03,9.54,2.49,2.09,1.06,4.1,2.28,5.89,3.8,1.12.95,2.15,1.97,3.11,3.08.92,1.06,1.68,2.17,2.28,3.42.3.57.64,1.13.93,1.7.39.76.75,1.52,1.07,2.31.56,1.38,1.01,2.8,1.33,4.25.57,2.59.74,5.21.56,7.85-.38,5.35-2.5,10.56-5.88,14.71-2.93,3.62-6.84,6.46-11.2,8.11-2.5.95-5.09,1.5-7.75,1.69-.54.03-1.07.05-1.61.05-5.02,0-9.93-1.37-14.24-4.02Zm15.52-2.13c.82-.06,1.63-.17,2.44-.32.97-.21,1.93-.45,2.86-.76.85-.3,1.69-.65,2.5-1.04.79-.41,1.56-.86,2.3-1.35.71-.49,1.39-1.02,2.05-1.58.62-.55,1.21-1.14,1.77-1.76.6-.69,1.17-1.42,1.69-2.17.49-.74.93-1.51,1.34-2.29.36-.74.69-1.5.97-2.27.31-.92.57-1.85.78-2.79.18-.92.3-1.86.38-2.79.05-.86.05-1.71,0-2.57-.07-.95-.2-1.89-.38-2.83-.2-.91-.44-1.8-.74-2.68-.29-.8-.62-1.58-.99-2.35-.26-.51-.53-1.01-.83-1.49-.09-.12-.18-.23-.19-.24-.72-.82-1.37-1.69-2.09-2.52-.58-.64-1.19-1.25-1.83-1.84-.64-.55-1.31-1.07-2-1.55-.69-.45-1.39-.87-2.13-1.25-.84-.41-1.73-.76-2.62-1.08-.87-.29-1.75-.54-2.65-.73-.9-.17-1.8-.3-2.71-.37-.89-.05-1.78-.05-2.66,0-.67.05-1.34.13-2,.24-.45.07-.9.04-1.32-.07-1.33.35-2.64.78-3.95,1.22-.29.11-.59.21-.88.33-.62.42-1.24.81-1.87,1.22-.57.4-1.13.81-1.66,1.26-.77.71-1.47,1.51-2.16,2.29-.64.73-1.23,1.49-1.78,2.29-.48.73-.92,1.49-1.32,2.28-.36.76-.69,1.53-.98,2.31-.31.92-.57,1.85-.77,2.79-.17.91-.29,1.81-.36,2.73-.05.91-.05,1.82,0,2.74.08.89.2,1.77.37,2.65.18.87.42,1.73.7,2.58.31.86.66,1.7,1.06,2.52.42.82.89,1.62,1.18,2.06.53.79,1.1,1.54,1.72,2.26.58.64,1.19,1.25,1.83,1.83.65.57,1.34,1.1,2.05,1.59.73.48,1.47.92,2.25,1.33.86.42,1.74.8,2.64,1.12.83.27,1.68.51,2.54.7.93.18,1.86.3,2.8.38.88.05,1.77.05,2.65,0Z"/>
  <path d="m104.42,170.5c-1.7-1.42-2.94-3.35-3.54-5.48-.23-.84-.35-1.7-.39-2.57-.03-.55.02-1.09.06-1.64-.05-.41-.05-.81.07-1.23.12-.46.39-.89.63-1.3.39-.66.8-1.33,1.26-1.94.41-.54.83-1.06,1.29-1.55.02-.2.05-.39.1-.59.12-.45.34-.84.63-1.18.23-.28.51-.53.84-.73,0,0,0,0,.01,0,.01,0,.03-.01.04-.02,2.57-1.6,5.82-1.99,8.75-1.27.53.13.99.36,1.46.6,1.65.76,3.55,1.78,4.24,3.55.36.46.71.93,1.01,1.44.45.77.79,1.59,1.05,2.43.45,1.48.55,3.07.34,4.6-.27,2.04-1.16,4-2.49,5.57-1.64,1.93-3.91,3.22-6.39,3.7-.64.12-1.28.18-1.92.18-2.55,0-5.09-.93-7.05-2.56Zm7.49-2.59c.27-.03.54-.06.81-.11.25-.06.49-.13.73-.2.23-.09.46-.18.68-.28.24-.13.47-.27.7-.41.16-.12.32-.24.47-.37.2-.18.39-.37.58-.57.15-.18.29-.36.42-.54.16-.25.3-.5.44-.76.1-.21.18-.41.26-.62.08-.25.15-.51.21-.77.04-.25.08-.51.1-.77.01-.26.01-.51,0-.77-.02-.25-.06-.5-.1-.75-.06-.26-.13-.51-.21-.76-.09-.25-.2-.49-.31-.73-.11-.2-.23-.4-.35-.59-.08-.11-.16-.22-.25-.33-.48-.22-.91-.52-1.36-.83-.25-.16-.51-.32-.77-.46-.11-.05-.22-.1-.33-.14-.25-.04-.5-.09-.71-.13-.36-.07-.71-.13-1.08-.16-.2,0-.41,0-.61,0-.16.02-.32.04-.48.06l-.2.05c-.25.08-.49.17-.74.25-.24.09-.49.19-.72.3-.14.07-.27.15-.41.23-.03.02-.06.04-.1.06,0,0,0,0,0,0-.01,0-.02.01-.03.02-.23.14-.48.25-.73.32-.11.11-.21.22-.31.33-.29.34-.57.69-.84,1.04-.3.46-.6.93-.89,1.4-.01.26-.04.52-.06.77-.01.26-.01.52,0,.77.02.29.06.57.11.85.05.23.11.45.18.68.09.24.19.48.3.71.12.22.25.44.38.65.16.22.32.44.5.64.15.16.29.31.45.45.2.17.41.33.63.49.19.12.38.23.57.34.27.13.54.24.81.35.23.07.46.14.7.19.24.04.48.08.72.1.27.01.55.01.82,0Z"/>
  <path d="m109,196.46c-1.75-.67-3.7-.53-5.43-1.3-4.16-1.7-7.37-5.28-9.79-8.97-2.19-4.13-2.94-9.11-2.4-13.69-.64-4.09.27-8.32,1.41-12.25.6-1.7,1.34-3.36,2.33-4.88,2.9-3.53,7.49-.19,5.94,3.86,3.13,4.12,3.22,10.45,8.05,13.23.53-.46,1.2-.74,1.89-.8,1.76-2.48,4.72-4.05,7.76-4.2.37-.02.75-.02,1.14,0,.23-2.25-1.09-4.34-1.08-6.61-1.7-1.4-.24-3.6.71-5.02.8-1.03,2.28-1.45,3.45-.78,2.9-1.74,5.46.92,6.61,3.44,1.48-.1,3.05.88,3.38,2.38.22.98.38,1.99.49,2.99,3.71,5.49,3.9,12.83,2.76,19.17-.48,1.73-2.12,3.11-3.95,3.11-.7.45-1.62.57-2.44.44-.14.13-.28.26-.43.38-.59.46-1.3.81-2.05.93-1.33,3.23-3.18,8.25-7.54,7.41-1.58,1.3-3.84,1.61-5.72.76-1.6.76-3.39.77-5.08.38Z"/>
  <path d="m166.64,183.08c-1.96-3.25-2.7-7.12-2.15-10.87.66-4.44,3.29-8.69,7.08-11.11.62-.39,1.27-.73,1.93-1.03.56-.26,1.14-.5,1.72-.72.41-.42.92-.74,1.52-.88,2.93-.69,6.04-.64,8.92.29,1.72.55,3.33,1.35,4.8,2.41,1.08.78,2.04,1.76,2.91,2.76,2,2.28,3.16,5.11,3.68,8.08.14.78.2,1.59.2,2.38,0,.87-.16,1.7-.32,2.55-.27,1.46-.63,2.88-1.21,4.25-1.07,2.48-2.78,4.64-4.88,6.33-2.41,1.94-5.45,3.15-8.53,3.44-.48.04-.96.07-1.44.07-5.67,0-11.29-3.06-14.22-7.94Zm14.89,1.69c.42-.04.84-.1,1.25-.17.42-.09.84-.21,1.25-.34.41-.15.81-.32,1.2-.51.4-.21.79-.44,1.16-.68.36-.25.7-.52,1.03-.8.3-.28.59-.56.87-.86.28-.33.55-.66.79-1.02.25-.38.48-.77.69-1.18.19-.4.36-.82.52-1.24.13-.39.23-.78.33-1.18.04-.22.06-.44.09-.66.02-.65-.02-1.32-.07-1.97-.04-.51-.1-1.01-.2-1.51-.07-.31-.15-.62-.25-.93-.19-.49-.4-.98-.62-1.45-.21-.39-.43-.78-.67-1.15-.24-.34-.5-.67-.76-.99-.25-.27-.51-.53-.77-.78-.29-.24-.58-.46-.89-.67-.44-.29-.89-.56-1.35-.8-.4-.19-.82-.37-1.24-.52-.38-.12-.77-.23-1.16-.32-.45-.08-.91-.15-1.37-.19-.44-.02-.87-.02-1.31,0-.45.04-.9.1-1.34.18-.05.01-.1.02-.14.03-.47.11-.94.13-1.39.06-.34.14-.68.29-1.02.45-.27.14-.53.29-.79.45-.43.31-.85.64-1.25.98-.33.3-.64.61-.93.94-.3.35-.58.72-.85,1.09-.25.39-.48.78-.7,1.2-.18.38-.34.77-.48,1.16-.13.41-.25.83-.35,1.25-.08.45-.14.91-.18,1.36-.02.45-.02.89,0,1.34.04.47.11.94.19,1.4.1.42.21.84.35,1.26.15.4.31.79.49,1.17.19.37.4.73.62,1.08.24.33.49.64.75.95.34.35.69.69,1.05,1.02.34.27.68.54,1.03.79.35.22.69.42,1.05.62.46.22.92.41,1.4.59.34.1.69.19,1.03.28.65.12,1.3.21,1.96.27.33,0,.66,0,.99,0Z"/>
  <path d="m174.9,178.59c-2.25-.73-4.24-2.1-5.49-4.14-.66-1.08-1.01-2.29-1.08-3.55-.08-1.33.25-2.61.83-3.78.22-.43.46-.85.76-1.24.35-.45.8-.83,1.24-1.19.16-.79.64-1.52,1.38-1.95.21-.12.42-.23.44-.23,1.82-.93,3.74-1.43,5.8-1.46,1.57-.03,3.11.27,4.6.79.66.23,1.29.54,1.89.9.44.27.85.56,1.23.91.33.3.57.69.85,1.04.88,1.01,1.56,2.11,1.94,3.42.21.71.29,1.47.23,2.21-.05.58-.26,1.07-.47,1.6-.32,1.05-.7,2.01-1.34,2.92-.68.98-1.61,1.8-2.6,2.45-1.9,1.25-4.23,1.89-6.54,1.89-1.26,0-2.51-.19-3.68-.57Zm4.37-4c.33-.03.65-.07.97-.13.32-.07.64-.16.95-.26.3-.11.6-.24.89-.37.23-.12.45-.25.67-.38.2-.14.38-.28.57-.43.17-.16.34-.33.5-.5.11-.14.22-.28.32-.42.08-.13.15-.25.22-.39.06-.14.12-.28.18-.42.01-.04.02-.07.03-.11-.09-.35-.16-.7-.24-1.05-.05-.21-.1-.43-.16-.64-.03-.08-.07-.16-.1-.25-.07-.14-.15-.27-.23-.41-.09-.12-.17-.23-.27-.35-.02-.02-.04-.04-.05-.06l-.02-.02c-.49-.25-.94-.55-1.42-.82-.28-.13-.56-.25-.84-.36-.24-.08-.48-.15-.73-.2-.32-.06-.64-.11-.96-.14-.36-.02-.73-.02-1.09,0-.33.03-.66.07-.98.13-.36.08-.71.18-1.06.3-.19.07-.37.15-.55.23-.08.05-.17.1-.25.15-.03.02-.07.04-.1.06h0c-.41.24-.87.36-1.32.38-.16.13-.32.27-.48.4-.07.07-.14.13-.2.2,0,0,0,0,0,.01-.07.12-.14.23-.2.35-.07.14-.13.29-.18.43-.04.14-.08.28-.12.43-.02.12-.04.24-.05.37,0,.13,0,.26,0,.38.01.11.03.23.04.34.03.14.07.28.11.42.05.14.11.28.18.42.07.13.15.26.23.38.09.13.19.25.29.38.13.14.26.27.39.39.17.14.34.28.52.4.25.16.5.31.75.44.22.1.44.19.67.28.31.1.62.19.94.26.3.05.6.09.91.12.43.02.86.02,1.29,0Z"/>
  <path d="m173.05,185.96c-2.3-1.3-3.75-3.83-4.1-6.4,0-2.81-1.39-7.27,2.19-8.37,1.66-.46,3.68.55,4.06,2.3.14.75.21,1.54.76,2.13.39-.09.8-.11,1.22-.07,1.57.13,3.12.48,4.66.81.46-1.98.74-4.14,2-5.8-.36-.28-.78-.5-1.16-.74-1.66-.92-1.3-3.59.56-4-2.75-2.56.48-7.02,3.73-5.12,1.4,1.15,2.66,2.52,3.68,4.03,2.66,6.17,3.57,19.91-5.46,20.92-3.94,1.15-8.29,2.65-12.13.31Z"/>
  <path d="m182.12,143.04c-3.62-.03-7.21-1.3-10.06-3.52-2.73-2.13-4.71-5.07-5.71-8.38-.31-1.01-.34-2.05-.51-2.91-.32-1.73-.2-3.48.16-5.2.37-1.79,1.02-3.54,1.95-5.1.51-.86,1.11-1.67,1.76-2.43.12-.14.24-.28.36-.43.48-.57,1.05-1,1.66-1.43.65-.47,1.31-.92,1.99-1.33.35-.62.89-1.13,1.58-1.43.65-.28,1.3-.52,1.85-.71,3.76-1.3,8.04-1.01,11.69.48,2.2.9,4.43,2.32,5.94,4.2.59.73,1.16,1.43,1.68,2.21.46.68.84,1.39,1.2,2.13.19.4.34.81.48,1.24.14.42.16.84.18,1.27.36,1.42.62,2.82.66,4.29.04,1.42-.13,2.83-.45,4.21-.63,2.78-2.05,5.31-3.94,7.42-3.09,3.46-7.73,5.41-12.35,5.41-.04,0-.08,0-.12,0Zm.93-5.97c.46-.04.92-.1,1.38-.18.49-.11.97-.24,1.44-.4.44-.16.87-.34,1.29-.54.43-.22.85-.47,1.25-.74.34-.24.68-.5,1-.78.34-.3.66-.62.96-.95.3-.35.58-.71.84-1.09.25-.39.49-.79.7-1.19.2-.42.39-.86.55-1.3.16-.47.29-.95.39-1.43.08-.45.15-.91.19-1.37.02-.48.03-.95,0-1.42-.04-.47-.1-.95-.19-1.41-.06-.25-.12-.5-.19-.74-.23-.31-.42-.63-.59-.99-.14-.28-.26-.57-.4-.85-.2-.38-.42-.76-.65-1.12-.24-.35-.5-.68-.77-1.01-.09-.09-.18-.18-.25-.24-.26-.23-.51-.46-.76-.69-.36-.3-.73-.59-1.11-.86-.37-.24-.75-.46-1.14-.67-.43-.2-.87-.39-1.32-.55-.43-.14-.87-.26-1.32-.36-.45-.08-.91-.14-1.36-.18-.41-.02-.82-.02-1.23,0-.51.04-1.03.11-1.54.21-.42.1-.85.21-1.26.34-.36.13-.71.29-1.07.44-.29.12-.58.2-.88.24-.19.11-.38.23-.57.35-.61.42-1.23.83-1.81,1.28-.37.45-.73.9-1.06,1.37-.24.37-.46.75-.66,1.13-.23.48-.44.98-.63,1.48-.16.5-.3,1.01-.42,1.52-.08.44-.14.88-.17,1.32-.02.39-.02.78-.01,1.17,0,.32-.02.63-.02.94,0,.03,0,.06.01.1.16.66.35,1.31.56,1.95.17.47.37.93.59,1.38.2.38.42.76.66,1.12.29.41.59.8.92,1.18.28.31.58.6.89.89.32.28.66.53,1,.78.38.25.77.48,1.17.69.48.23.96.44,1.46.62.45.15.91.27,1.38.37.45.08.91.14,1.36.18.47.02.93.03,1.4,0Z"/>
  <path d="m177.05,131.85c-3.23-.76-5.73-3.34-6.71-6.45-.49-1.56-.46-3.23-.14-4.82.17-.81.5-1.55.89-2.29.35-.66.86-1.18,1.39-1.69.23-.22.46-.43.69-.63.04-.13.08-.26.13-.38.34-.8.96-1.34,1.72-1.72-.08.04-.16.08-.24.12-.04.02-.09.04-.13.06.01,0,.02-.01.03-.02l.1-.05s.07-.04.11-.05c0,0,.02,0,.02-.01,0,0,.02,0,.03-.01,0,0,0,0,0,0,0,0,0,0,0,0,.06-.03.11-.06.17-.08-.04.02-.08.04-.12.06-.02.01-.04.02-.06.03.03-.01.05-.03.08-.04,0,0,0,0,0,0,0,0,0,0,0,0h.03c1.88-.9,3.99-1.27,6.05-.87.69.13,1.34.31,2,.57.34.13.68.29.99.48.39.23.7.53,1.02.83.79.67,1.56,1.31,2.16,2.17,1,1.44,1.85,3.23,1.5,5,.05,1.45-.12,2.84-.67,4.22-.68,1.74-1.91,3.17-3.42,4.23-1.63,1.07-3.47,1.63-5.37,1.63-.76,0-1.52-.09-2.28-.27Zm2.6-5.24c.19-.02.39-.05.58-.08.17-.04.33-.09.5-.14.15-.06.29-.12.44-.18.15-.08.3-.17.44-.26.13-.09.25-.19.38-.29.13-.12.25-.24.37-.37.1-.12.2-.24.29-.37.08-.14.17-.27.24-.41.08-.16.15-.33.21-.5.05-.17.1-.34.14-.51.03-.16.05-.31.07-.47,0-.09,0-.19,0-.28-.11-.18-.21-.38-.29-.59-.13-.36-.25-.71-.41-1.05-.08-.14-.16-.27-.25-.41-.08-.11-.17-.23-.26-.34-.08-.09-.17-.18-.26-.26-.07-.06-.13-.11-.2-.16-.36-.14-.71-.29-1.07-.42-.16-.05-.32-.1-.48-.14-.16-.03-.33-.05-.49-.06-.14,0-.27,0-.41,0-.15.01-.3.03-.44.06-.15.04-.31.08-.46.12-.16.06-.31.12-.46.2-.1.05-.19.1-.29.14-.24.12-.49.2-.74.24,0,0-.02.02-.03.02-.27.25-.54.5-.8.76l-.16.45c-.07.2-.12.4-.17.61-.03.19-.06.39-.08.58,0,.17,0,.34,0,.52.02.16.04.32.07.48.04.18.09.36.15.54.06.15.12.3.18.45.08.14.16.28.25.42.11.15.22.29.33.43.1.11.21.21.32.31.13.1.25.2.39.3.14.09.28.17.42.25.17.08.34.15.51.21.17.05.34.1.52.14.16.03.32.05.47.06.16,0,.31,0,.47,0Z"/>
  <path d="m179.5,137.55c-4.19-.49-7.31-4.06-9.55-7.36-.94-1.69-.28-3.93,1.56-4.69,2.79-1.13,5.17,1.44,6.86,3.34.47-.04.95-.01,1.43.06.49.08.97.23,1.44.39.58-.16,1.19-.27,1.79-.3.21-.71.54-1.39.97-2.02.6-.88,1.62-1.44,2.67-1.57,1.75-4.32-4.56-7.02-3.64-11.07,2.5-4.25,6.47,1.05,7.49,3.81,5.27,1.13,4.27,13.13.24,15.08-2.51,3.38-7.18,4.7-11.26,4.32Z"/>
  <path d="m63.46,144.54c-2.07-3.18-2.93-7.28-2.17-11.01.48-2.4,1.55-4.76,3.05-6.7,1.04-1.35,2.42-2.47,3.88-3.39.35-.56.86-.97,1.45-1.28.03-.01.05-.03.08-.04,0,0,0,0,0,0,1.55-.75,3.24-1.25,4.96-1.44,1.93-.21,3.87-.07,5.75.41,3.19.81,6.02,2.69,8.12,5.2.52.62.97,1.29,1.39,1.98.32.53.6,1.08.84,1.65.25.57.36,1.14.48,1.73.19.84.43,1.65.54,2.51.09.71.13,1.43.13,2.14,0,1.65-.3,3.27-.82,4.83-.85,2.4-2.19,4.62-4.08,6.35-2.77,2.53-6.3,4.02-10.07,4.16-.19,0-.38.01-.57.01-5.21,0-10.13-2.77-12.96-7.13Zm13.71.84c.37-.04.74-.08,1.1-.15.42-.1.83-.21,1.23-.34.41-.15.81-.32,1.2-.51.32-.17.62-.35.93-.54.34-.24.67-.49.99-.76.28-.26.55-.53.81-.81.23-.27.45-.56.66-.85.22-.34.43-.69.62-1.06.16-.33.3-.67.44-1.02.14-.42.26-.85.36-1.29.07-.37.12-.73.15-1.1.02-.43.03-.86,0-1.28-.04-.42-.09-.84-.17-1.26-.06-.25-.12-.5-.2-.75-.24-.43-.46-.87-.67-1.31-.2-.38-.41-.75-.64-1.11-.22-.32-.46-.63-.71-.93-.26-.29-.53-.56-.82-.83-.3-.26-.62-.5-.94-.72-.32-.2-.64-.39-.97-.57-.36-.17-.72-.32-1.09-.46-.37-.12-.74-.22-1.11-.3-.41-.08-.82-.13-1.23-.17-.4-.02-.81-.02-1.22,0-.39.03-.77.09-1.15.15-.39.09-.78.19-1.17.32-.4.15-.79.33-1.18.5-.02.01-.04.02-.06.03-.37.18-.75.27-1.14.28-.2.15-.39.3-.58.46-.25.24-.49.48-.72.74-.34.39-.66.79-.96,1.21-.22.34-.42.69-.61,1.04-.17.37-.33.74-.47,1.13-.08.27-.16.54-.22.81-.11.58-.19,1.16-.24,1.75-.02.38-.02.77,0,1.15.03.4.09.79.16,1.19.09.41.2.81.33,1.2.15.4.31.79.5,1.18.17.32.35.64.55.95.24.35.5.68.77,1.01.25.27.5.53.77.77.29.25.6.49.92.71.35.23.72.44,1.09.63.35.16.71.31,1.07.44.38.12.76.23,1.15.32.39.07.78.12,1.17.16.44.02.87.02,1.31,0Z"/>
  <path d="m72.22,140.42c-6.04-.28-9.05-9.47-4.28-13.23,1.04-.81,2.44-1.1,3.7-1.36.81-.45,1.67-.81,2.64-.79,10.01,1.37,7.13,15.81-2.06,15.37Zm.91-4.96c1.89-.32,3.23-3.7,1.16-4.6-.6.19-1.25.17-1.84-.04-.78.2-.96.16-1.52.45-.83,1.48.25,4.45,2.21,4.19Z"/>
  <path d="m74.74,145.6c-3.48.26-10.28-1.47-8.25-6.23-.54-3.96,4.27-5.28,6.97-3.1.51-.41,1.09-.66,1.77-.85.67-.2,1.4-.18,2.1-.13-.69-2.65-2.01-5.47-1.55-8.24,1.42-4.68,6.83-2.14,8.4,1.1,1.54,3.12,3.63,6.98,2.44,10.48-1.79,4.45-7.12,7.58-11.87,6.96Z"/>
  <path d="m89.25,107.91c-2.84-1.55-5.11-4.07-6.54-6.95-1.71-3.47-2.08-7.55-1.07-11.28.51-1.89,1.39-3.62,2.53-5.21.45-.62.96-1.19,1.43-1.78.42-.52.97-.89,1.54-1.25.71-.45,1.43-.89,2.17-1.29.53-.29,1.07-.56,1.62-.81.33-.45.78-.8,1.32-1.01.14-.05.27-.1.4-.14,0,0,0,0,0,0,0,0,0,0,0,0,2.77-.8,5.7-.83,8.5-.15.45.11.89.25,1.32.4,1.72.62,3.32,1.46,4.77,2.58.64.49,1.25,1.04,1.79,1.63.75.83,1.29,1.73,1.79,2.7.71,1.37,1.39,2.69,1.82,4.18.4,1.4.59,2.86.61,4.31.04,3.81-1.39,7.69-3.89,10.55-2.7,3.09-6.55,5.17-10.66,5.54-.49.04-.98.06-1.46.06-2.79,0-5.53-.71-8-2.06Zm8.67-3.93c.43-.04.86-.1,1.29-.17.44-.1.88-.22,1.32-.36.45-.17.89-.36,1.32-.57.36-.19.7-.4,1.04-.62.35-.25.69-.51,1.02-.79.31-.29.61-.59.9-.9.27-.32.53-.66.78-1.01.24-.38.47-.77.68-1.17.18-.37.33-.75.48-1.13.16-.48.29-.97.4-1.46.07-.41.13-.82.17-1.24.02-.42.02-.84,0-1.27-.04-.44-.09-.88-.17-1.32-.1-.45-.22-.88-.36-1.32-.16-.45-.35-.89-.56-1.32-.09-.18-.18-.35-.29-.51-.07-.09-.14-.18-.21-.27-.64-.71-1.33-1.41-2.04-2.05-.31-.26-.62-.5-.95-.73-.37-.24-.75-.46-1.14-.67-.39-.18-.79-.35-1.19-.5-.39-.13-.78-.23-1.17-.33-.45-.09-.91-.15-1.36-.19-.42-.02-.85-.02-1.27,0-.44.04-.88.09-1.32.17-.29.06-.58.14-.86.22-.21.07-.43.11-.64.13-.37.16-.74.33-1.11.5-.87.46-1.71.96-2.55,1.48-.41.53-.84,1.05-1.23,1.6-.22.33-.42.68-.6,1.03-.21.45-.41.91-.58,1.37-.14.42-.25.84-.35,1.26-.09.46-.15.93-.19,1.4-.02.45-.02.9,0,1.34.04.45.1.9.18,1.35.09.41.2.81.33,1.2.16.44.34.87.54,1.29.22.41.45.81.7,1.2.24.34.5.68.78,1,.27.3.56.58.86.85.32.27.64.52.98.76.37.24.75.46,1.14.67.38.18.77.35,1.17.5.43.14.87.26,1.31.37.49.09.97.16,1.47.2.43.02.86.02,1.29,0Z"/>
  <path d="m95.87,104.24c-.15-.08-.28-.17-.41-.28-2.59.05-5.38-1.06-7.29-2.71-2.51-2.27-3.2-5.7-3.79-8.7-.47-1.81.87-3.74,2.7-3.99.06-3.51,3.63-5.38,5.88-7.57,1.17-.98,2.44-.51,3.77-.66,4.61-.33,7.79,4.03,9.38,7.86,6.04,2.44,1.82,16.17-4.4,15.43-1.57,1.32-4.03,1.65-5.84.62Zm-1.74-12.59c2.06-.19,4.85-2.66,2.86-4.6-.7-1.03-1.88-.77-2.9-1.16-.87.8-1.84,1.54-2.55,2.49,0,0,0,0,0,0,0,0,0-.02.04-.05-.34,1.5,1.01,3.25,2.55,3.34Z"/>
  <path d="m66.85,123.93c-3.16-6.5-.44-15.52,2.84-21.56,1.55-2.42,5.85-9.17,9.13-6.28.61.69.94,1.72.49,2.6,0,0,0,0,0,0-5,5.69-8.67,13.22-7.67,20.98.07.33.13.67.22,1,.73,1.25.33,2.94-.8,3.81-1.25.96-3.28.8-4.21-.54Z"/>
  <path d="m69.07,115.74c-2.74-1.02-.42-4.55-.25-6.55,1.64-6.46,4.95-12.73,8.86-17.96,2.45-2.35,5.87,1.51,3.22,3.66-3.46,3.75-5.73,8.4-7.8,12.81-.72,2.21-1.19,4.5-1.74,6.75-.24.99-1.33,1.56-2.28,1.3Z"/>
  <path d="m62.05,167.08c-5.19-.74.51-13.78,3.2-15.45,2.99-1.96,5.9,1.93,2.68,3.73-1.18,2.18-2.14,3.95-2.64,6.3-.52,2.23.09,5.62-3.24,5.42Z"/>
  <path d="m65.37,152.36c-1.05-.45-1.34-1.7-1.01-2.69.41-1.88,1.94-3.91,3.77-2.04.56.64.39,1.47.17,2.2-.37,1.46-1.09,3.22-2.93,2.53Z"/>
  <path d="m200.34,395.83c-10.5-.67-21.17-.46-31.41-3.13-10.64-3.07-21.38-6.41-31.19-11.61-6.73-4.02-13.98-7.17-20.26-11.91-5.04-3.68-9.47-8.11-13.66-12.71-4.33-4.39-9.1-8.38-12.98-13.2-3.58-4.21-6.73-8.74-9.44-13.56-1.91-2.66-4.14-5.08-6.14-7.68-9.69-13.29-14.38-29.31-19.1-44.85-6.97-17.22-8.18-35.9-9.13-54.24-.93-14.22-2.29-29.01,1.73-42.87,1.75-5.94,6.47-10.17,10.98-14.13,2.65-2.23,5.53-4.44,8.78-5.65,3.32-.61,5.53,2.66,2.85,5.08-.64.54-1.46.73-2.12,1.23-4.85,3.61-9.74,7.59-13.02,12.72-3.5,7.84-3.36,16.68-3.43,25.07.06,7.81.75,15.75,1.25,23.52.54,9.8,1.22,19.6,3.19,29.24,1.94,10.15,6.15,19.59,8.86,29.52,4.04,13,9.45,25.98,18.54,36.3,2.52,2.8,4.16,6.19,6.18,9.34,2.19,2.97,4.46,5.89,6.62,8.34,3.03,3.46,6.42,6.57,9.79,9.69,3.2,3.3,6.22,6.8,9.72,9.79,5.03,4.45,10.72,7.97,16.72,10.96,3.23,1.75,6.39,3.64,9.64,5.35,6.89,3.31,14.17,5.65,21.4,8.06,7.36,2.42,15.07,3.81,22.83,3.79,8.08.62,16.19,1.11,24.27.21,4.35-.46,5.42,5.94.92,6.73-4.11.39-8.25.67-12.38.6Z"/>
  <path d="m212.93,397.31c-16.3-1.57,1.07-13.65,1.72-5.68,30.24.19,58.27-13.42,83.36-29.09,9.03-7.08,19.02-13.8,27.22-21.75,8.54-6.28,15.66-13.32,22.72-21.19,3.03-1.98,5.4-8.37,8.95-7.93,3.12.42,3.91,4.32,2.01,6.53-7.14,7.21-13.39,15.42-21.35,21.74-10.83,8.46-20.95,17.72-32.2,25.68-27.06,18.2-59.01,33.72-92.42,31.69Z"/>
  <path d="m374.82,278.43c-.74-.74-.71-1.68-.76-2.65-.11-1.49-.42-3.63,1.49-4.03,2.52-10.29,4.08-20.79,5.18-31.31.19-8.18-.54-16.36-.1-24.55.03-8.04.43-16.09-.07-24.13-.31-5.87-.96-11.72-1.92-17.52-.51-4.21-.47-7.54-1.26-11.48-1.76-8.24-4.1-16.35-6.44-24.44-1.99-5.65-5.45-10.64-7.63-16.21-1.71-4.31-2.41-8.91-3.82-13.3-1.35-3.81-3.53-7.23-5.67-10.63-1.59-2.3-3.36-4.46-5.42-6.34-1.97-2.03-5.6-4.28-3.28-7.39,2.98-3.18,5.49-.12,7.75,2.15,3.97,3.57,7.06,7.97,9.63,12.62,3.92,5.96,4.79,13.09,6.97,19.73,2.73,7.01,7.21,13.14,9,20.51,2.55,10.22,6.23,20.3,6.58,30.93,1.09,8.41,2.28,16.83,2.46,25.33.18,8.26-.11,16.53-.2,24.8-.35,9.26,1.08,18.57-.79,27.73-1.06,7.49-2.34,14.94-4.5,22.18-.93,3.23-2.54,11.2-7.18,8.01Z"/>
  <path d="m89.03,82.52c-1.08-.22-1.69-1.48-1.41-2.49.27-.62.47-1.22.63-1.88.98-3.18,2.23-6.23,3.66-9.23,3.35-8.21,8.38-13.05,15.41-18.15,4.25-3.51,8.63-6.86,13.2-9.94,4.42-2.92,9.34-4.94,14.04-7.37,3.55-1.73,6.5-3.39,10-5.02,7.55-2.89,15.6-4.67,23.64-5.5,7.72-1.13,15.53-.08,23.22-1.28,5.87-.73,11.66.6,17.47,1.21,2.91.22,8.07-.26,7.74,3.98-.23,1.67-1.85,2.96-3.54,2.69-5.06-.44-10.09-1.06-15.12-1.7-5.43-.49-10.75,1.21-16.18.74-14.28-.07-29.1,2.04-41.67,9.14-6.05,3.16-11.84,5.38-17.29,9.05-4.92,3.28-9.5,7.02-14.23,10.57-2.44,1.77-4.88,3.56-6.93,5.8-2.95,3.39-4.9,7.5-7.06,11.42-.74,1.5-1.42,3.03-2.07,4.58-.64,1.55-1.41,3.9-3.51,3.39Z"/>
  <path d="m348.84,91.49c-2.33-.27-2.92-2.88-4.58-4.09-8.04-4.87-12.82-13.3-20.81-18.21-9.65-6.01-19.7-11.38-29.47-17.2-8.19-3.23-16.24-6.77-24.22-10.5-15.63-5.56-31.95-9.54-48.33-12.24-4.05-1.45-16.08-.01-15.62-5.75.23-1.72,1.94-3.13,3.7-2.81,26.33,3.86,52.84,8.96,76.82,20.89,8.98,3.27,17.24,7.91,25.38,12.88,7.65,4.77,16.06,8.41,22.64,14.73,3.57,2.81,5.74,6.96,9.55,9.5,2.86,2.35,6.1,4.16,8.05,7.42,1.86,2.23-.25,5.88-3.12,5.38Z"/>
  <path d="m183.89,37.5c1.3-10.66-8.39-18.78-5.92-23.98,1.64-2.37,3.8-7.09,7.26-4.67,2.73,2.18.14,5.07-1.37,7.09,2.65,4.06,11.21,23.49,3.18,24.71-1.67,0-3.22-1.43-3.15-3.15Z"/>
  <path d="m192.72,38.33c-4.81-2.83,3.13-20.03,6.41-23.04,2.7-2.37,6.04-8.9,10.13-5.57,1.26,1.26,1.34,3.5,0,4.75-5.51,4.6-9.27,10.55-10.78,17.59.77,3.17-2.08,8.31-5.76,6.27Z"/>
  <path d="m209.59,40.83c-4.26-3.11,1.5-7.84,1.47-11.8,1.84-4.66-1.74-17.98,5.27-18.02,4.44.8,2.36,5.7,2.23,8.76,0,4.96-1.1,24.03-8.97,21.06Z"/>
  <path d="m187.47,21.49c-.23-3.67.18-7.39-.42-11.03-.32-2.28-1.94-4.74-.79-6.98,1.3-2.44,5.39-1.96,5.98.79,1.85,5.6,1.62,11.41,1.71,17.22.04,1.77-1.51,3.24-3.24,3.24s-3.2-1.47-3.24-3.24Z"/>
  <path d="m223.18,44.5c-4.37-2.39.39-7.42,1.53-10.54,2.8-4.68,4.84-9.76,7.57-14.47,2.06-3.55,7.63-.31,5.48,3.2-.79,1.17-1.42,2.44-1.88,3.33-1.98,4.13-4.22,8.13-6.44,12.13-1.48,2.48-2.32,7.78-6.26,6.34Z"/>
  <path d="m224.45,23.25c-2.97-3.43-1.42-8.33-1.36-12.43.42-3.78-1.63-13.44,5.22-10.13,3.29,5.01.16,12.16.76,17.89,2.99,3.41-1.25,8.22-4.61,4.68Z"/>
  <path d="m243.43,49.97c-5.85-3.49,7.5-19.2,10.9-22.26,2.6-2.66,6.76,1.46,4.08,4.08-10.63,8.39-10.08,20.25-14.98,18.18Z"/>
  <path d="m246.07,31.75c-3.72-1.14-1.8-5.03-1.09-7.63,1.66-3.89-1.18-12.84,4.24-13.38,5.3.56,2.52,7.53,2.57,11.04-.86,3.38-.68,10.76-5.71,9.98Z"/>
  <path d="m263.09,54.06c-5.22-13.28,13.45-24.75,25.25-22.22,4.09.53,3.23,6.91-.86,6.32-2.3-.33-4.7-.59-6.93.25-5.8,2.09-13.06,6.23-12.05,13.41.15,2.73-3.59,4.23-5.42,2.24Z"/>
  <path d="m279.63,57.65c-5.66-3.86,4.98-11.86,5.19-16.8.99-3.76,6.91-2.13,5.8,1.6-.87,3.74-3.07,6.73-5.38,9.68-1.23,2.29-2.08,6.86-5.61,5.53Z"/>
  <path d="m259.89,37.27c-2.42-5.15,8.55-4.26,4.93-16.05-1.08-2.2-2.47-5.37.54-6.69,4.02-1.44,5.05,3.89,5.81,6.7.94,5.19-.33,11.48-4.4,15.07-1.92,1.55-5.05,3.89-6.88.96Z"/>
  <path d="m72.94,102.02c-5.22-3.37,5.63-14.7,9.65-15.39,5.46-.26,3.64,7.04-.54,7.44-3.34,2.17-4.08,10.11-9.11,7.95Z"/>
  <path d="m77.38,160.08c-1.61-.05-3.21-.25-4.8-.41-3.17-.49-2.54-5.2.66-4.86,2.64.25,5.33.58,7.98.35,2.14-.54,4.18-1.4,6.19-2.32,1.44-.93,3.54-1.59,4.59.24.66,1.12.29,2.7-.88,3.34-4.21,2.27-8.87,4.26-13.75,3.66Z"/>
  <path d="m99.32,121.98c-4.6-.43-10.6-1.05-13.18-5.39-.6-2,2.08-3.48,3.34-1.74.94-.21,1.8-.71,2.69-1.1,2.17-.8,3.18,2.4.99,3.1,5.77,1.65,12.2,1.13,17.52-1.62,1.03-.54,2.3-.27,2.91.76,2.44,4.51-11.48,6.35-14.26,5.99Z"/>
  <path d="m169.1,147.04c-6.39-4.52-13.46-11.31-12.26-19.85.47-2.16-.47-6.5,2.82-6.35,1.16.16,1.91,1.23,1.79,2.36-.2,2.65-.83,5.34-.36,7.99,1.56,5.43,6.12,9.36,10.55,12.55,2.12,1.71-.33,4.91-2.55,3.3Z"/>
  <path d="m188.08,149.85c-.5-1.2.07-2.65,1.28-3.15,2.73-1.12,5.46-2.23,8.12-3.52,2.33-.89,5.41-4.8,7.55-1.71.69,1.17.23,2.58-.86,3.3-1.89,1.23-3.8,2.39-5.85,3.34-2.33,1.07-4.7,2.05-7.08,3.02-1.19.49-2.63-.06-3.15-1.28Z"/>
  <path d="m181.31,197.94c-10.38-1.38-16.75-4.41-20.94-14.51-.8-2.01-1.38-4.09-2.04-6.14-.28-.88.32-1.85,1.19-2.09,2.63-.61,2.63,3.98,3.52,5.65,1.84,4.94,5.15,9.65,10.38,11.28,1.98.71,4.09.89,6.15,1.21,4.49.86,9.11,1.33,13.54.23,1.09-.24,2.21.31,2.52,1.43,1.13,4.56-11.74,3.72-14.32,2.93Z"/>
  <path d="m114.96,211.48c-6.17-1.33-12.76-1.93-18.36-5.04-5.74-3.37-11.76-7.28-14.59-13.55-2.44-3.98-2.35-8.56-2.2-13.06,0-.84.69-1.53,1.53-1.53s1.54.7,1.54,1.53c-.02,2.22-.08,4.43.05,6.64.57,3.41,2.5,6.54,4.6,9.22,2.82,2.92,6.33,5.15,9.83,7.15,4.38,2.57,9.29,2.99,14.15,3.97,3.19.67,6.34.97,9.53.85,4.55-.52,9.09-1.56,13.31-3.38,4.09-2.67,8.37-5.44,11.59-9.09,1.8-3.14,6.09-.7,3.85,2.23-4.23,4.45-9.31,8.29-14.76,11.1-6.37,2.41-13.27,3.86-20.09,2.96Z"/>
  <path d="m150.96,296.5c-22.37-.05-28.03-4.48-45.51-16.46-5.48-3.55-10.92-7.13-16.69-10.19-8.65-7.38-16.32-16.2-21.07-26.62-4.78-9.81-14.63-41.87-4.68-49.41,5.52-2.66,8.54,4.5,2.48,5.11-3.26,24.34,7.63,49.8,26.02,65.74,7.36,4.03,14.24,8.84,21.48,13.11,6.1,4.42,12.06,9.4,19.61,11.06,10.72,2.4,21.71,1.61,32.6,1.81,1.59.01,2.92,1.32,2.92,2.92s-1.33,2.94-2.92,2.92c-4.74-.08-9.49-.16-14.23,0Z"/>
  <path d="m151.5,297.16c-5.89-.34-11.74-.89-17.58-1.72-3.92-.43-7.89-1.06-11.43-2.89-8.01-3.3-15.8-7.24-23.22-11.71-5.6-4.3-11.1-8.9-15.64-14.33-2.26-3-4.77-5.82-6.88-8.93-2.14-3.86,3.47-7.21,5.84-3.41,1.28,1.95,2.91,3.65,4.3,5.52,4.66,6.27,10.24,10.96,16.32,15.65,4.46,2.73,9.35,5.07,13.95,7.47,4.3,1.87,8.51,4.17,13.07,5.29,5.73.79,12.02,1.83,17.71,2.16,5.47.66,10.94.73,16.44.66,4.97.23,9.96.37,14.9-.18.98.1,1.71.98,1.72,1.95-.29,2.81-3.97,3.29-6.22,3.77-2.59.43-5.23.44-7.84.46-5.15-.05-10.32.79-15.45.22Z"/>
  <path d="m111.37,275.67c-2.52-.12-4.2-2.33-5.97-3.87-.51-.12-1.01-.28-1.5-.43-1.2-.35-2.37-.8-3.52-1.26,1.11,2.98-2.95,5.55-5.17,3.2-4.16-5.11-8.55-10.05-12.8-15.1-5.25-6.12-9.56-12.95-13.17-20.15-2.34-2.56-6-7.16-1.81-9.8-1.61-4.55-2.67-9.3-3.35-14.08-1.14-2.88-1.59-5.92-1.03-8.96-3.96.43-3.45-5.06-2.25-7.43,6.31-10.81,10.52,2.83,13.53,8.07,3.63,6.05,6.8,11.73,11.87,16.44,6.98,6.51,15.87,9.73,24.48,13.37,9.97,4.53,20.11,8.58,30.54,11.94,13.75,3.94,27.86,6.56,42.15,4.77,3.23.1,6.6-.17,9.77.46,2.01.75,2.65,3.45,1.32,5.1-2.12,2.47-5.77,2.45-8.74,3.15.17,1.02-.2,2.05-.91,2.83-.14.16-.3.3-.46.42.34,3.66-5.02,5.15-6.33,1.63-.24-.1-.49-.2-.73-.3-.19.01-.38.03-.57.04-.03,1.94-1.81,3.3-3.67,3.25-2.44,2.3-6.22.09-9.17.14-2.27,2.63-20.04-1.18-24.51-1.45-2.69,2.1-6.08-.29-8.78-1.22-3.41,1.37-6.94-1.43-9.91-2.89-.02.38-.11.75-.22,1.12-.22.71-.68,1.31-1.27,1.71,5.46,4.31,1.84,11.47-4.1,6.31-.27,1.84-1.85,3.21-3.72,3Zm-1.43-32.77c.46-.06.92-.09,1.38-.12-1.03-.44-2.06-.89-3.07-1.35-.99-.45-1.98-.92-2.98-1.36,1.56.93,3.08,1.94,4.67,2.82Zm-44.85-41.49c.13-.08.26-.15.4-.21-.08-.24-.16-.48-.24-.72,0-.01,0-.03-.01-.04-.13.31-.16.65-.15.98Z"/>
  <path d="m146.76,294.65c-1.51-.37-2.62-1.55-3.7-2.59,0,0,0,0,0,0-.17.07-.34.14-.52.19-.84.23-1.75.1-2.57-.17-2.74,2.15-5.94-.65-8.01-2.47-1.98,1.96-4.74.37-6.44-1.17-2.81,1.93-5.39-1.4-7.48-2.97-3.31-2.44-6.99-4.48-10.4-6.82-.28,1.13-1.15,2.01-2.35,2.18-3.11.27-5.4-5.05-7.27-7.14-1.55-2.49-3.89-4.71-4.69-7.57-.34-2.03,2.11-3.42,3.75-2.28-1.27-2.43-.7-5.11-1.16-7.66-.35-.65-.4-1.32-.36-2.04-.2-2.87-2.07-7.57,1.03-9.35.71-1.23,2.01-2.19,3.35-2.66-3.18-10.59,6.32-9.95,11.65-3.82,3.04,3.26,5.57,6.96,8.46,10.34,1.52,1.99,4.5,3.63,3.99,6.49.77,1.06,1.46,2.2,2.12,3.33.99,1.69,1.84,3.45,2.57,5.27.39.11.77.26,1.12.45,1.36.72,2.6,1.66,3.76,2.68.23-.13.47-.23.71-.3.94-.29,1.92-.28,2.87-.07,1.77-1.23,4.07-.72,5.8.33,2.26-1.8,5.12.02,6.74,1.83,4.56-.19,7.12,4.66,9.42,7.92,1.22,2.35,3.53,4.67,3.18,7.48,2.74,2.67.87,7.11-3.03,5.99-.15.09-.31.16-.48.23-1.04,2.39-4.23,2.49-5.97.8-.59.34-1.29.52-1.95.42,0,2.08-2.12,3.83-4.14,3.2Zm-42.83-29.73c-.23-.37-.45-.75-.68-1.13.1.34.19.67.29,1.01.13.04.26.08.38.12Z"/>
  <path d="m173.81,292.99c-.11-.3-.2-.6-.27-.92-.03,0-.06-.01-.09-.02-1.99.95-4.2-.32-5.43-1.89.09,5.06-11.88,4.51-13.11.63-4.3-1.05-4.71-6.39-.09-7.07-2.59-2.92-4.58-6.32-6.72-9.57-.91-1.57-2.15-3.03-2.68-4.78-.75-2.67,2.1-5.1,4.67-4.32,2.86.78,5.19,2.79,7.14,4.97-.27-3.12,3.34-4.89,5.77-3.03,2.25-1.66,5.26-.49,7,1.35,1.37-3.28,2.6-6.71,4.38-9.78,2.1-1.59,3.22,1.09,3.05,2.92.23-.44.51-.85.93-1.15,1.06-.77,2.4-.67,3.33.12.19-.2.41-.37.67-.5.3-.15.61-.26.91-.32.84-1.75,1.34-3.63,2.33-5.3,1.3-1.96,4.53-1.58,5.36.62.57,1.48.06,3.13-.2,4.63-1.3,5.92-3.36,10.97-5.27,16.41-1.73,4.99-3.61,9.77-5.01,14.78-.21.92-.3,2-.81,2.81-1.37,2.43-4.97,2.01-5.84-.61Zm-1.87-21.95c.23-.8.47-1.59.69-2.39-.19.48-.38.96-.58,1.44-.08.2-.21.37-.37.49.09.15.17.3.25.46Z"/>
  <path d="m32.15,330.25c-14.59.16-20.79-12.51-15.46-25.2,1.12-2.61,3.36-4.4,5.74-5.8,6.27-4.74,3.73-9.64,2.42-16.1-.84-4.75-3.09-9.04-4.66-13.57-2.01-4.85-3.32-9.96-5.63-14.69-3.71-6.43-6.42-13.34-8.91-20.31C2.5,226-.17,217.07,0,207.82c.16-3.99.43-8.13,2.33-11.72,1.65-3.01,3.52-5.88,5.11-8.93,3.87-7.66,10.11-14.43,17.32-18.93,3.55-2.41,6.7-5.39,10.62-7.22,2.91-1.42,5.8-2.91,8.57-4.59,5.49-3.5,11.14-6.84,17.35-8.9,1.76-.68,4.31-1.36,5.55.5.93,1.54-.4,3.05-1.82,3.67-.45.59-1.06,1.09-1.84.96-6.49,3.07-12.4,7.05-18.44,10.9-3.01,1.83-6.32,3.15-9.28,5.07-2.17,1.52-4.16,3.27-6.35,4.77-4.07,2.67-7.19,5.21-10.26,8.71-4.33,5.19-7.03,11.52-10.6,17.22-2.57,6.38-1.4,13.59-.26,20.17,1.45,6.62,4.18,12.85,6.38,19.23,1.84,5.54,5.05,10.45,7.39,15.76,2.19,5.53,3.99,11.21,6.23,16.73,2.52,5.51,3.78,11.47,4.87,17.4.44,2.9.64,5.97-.45,8.75-1.79,3.39-4.36,6.52-7.69,8.47-3.17,2.14-3.67,8.48-2.47,11.82.39,1.03.82,2.07,1.54,2.91,1.06.84,1.85,1.3,2.95,1.95,1.7.8,3.68.64,5.51.9,7.31.41,14.24-4.4,19.44-9.13,5.57-4.1,7.91-11.28,8.08-17.97.15-1.67,1.75-2.94,3.37-2.94,4.28.15,3.6,5.33,3,8.29-1.32,6.44-3.85,13.05-9.26,17.14-6.55,6.11-15.45,12-24.75,11.43Z"/>
  <path d="m61.72,301.02c-2.81-.98-1.3-3.47-1.01-5.51.44-2.76-2.02-8.16,1.85-8.93,4.09-.19,2.78,5.08,2.98,7.71-.21,2.36-.34,7.43-3.82,6.73Z"/>
  <path d="m49.96,265.61c-2.02-7.05-6.21-13.7-9.21-20.44-4.21-7.79-10.84-18.13-1.52-24.97,3.24-2.1,8.47-9.31,12.3-5.21,2.45,3.36-1.96,6.08-4.58,7.41-2.03,2.37-5.69,3.69-5.79,7.01,1.11,5.83,5,10.73,7.25,16.12,1.1,4.37,11.1,20.8,4.56,22.38-1.39.19-2.89-.84-3.01-2.29Z"/>
  <path d="m122.11,456.47c-9.06-1-13.11-10.53-12.56-18.73.94-6.49,5.92-11.45,8.63-17.25,2.64-5.23,4.77-10.74,6.11-16.45,1.71-10.21,4.32-19.95,4.46-30.25.15-1.64,1.82-2.8,3.4-2.58,4.48,1.05,1.72,6.81,2.27,10.04-1.28,12.15-3.07,24.55-7.47,36-2.63,7.04-7.33,13.03-10.52,19.76-1.79,11.42,5.6,14.71,15.72,12.79,5.49-.27,10.96-.94,16.4-.99,6.86-2.98,7.46-11.7,7.15-18.28-.66-14.3-.92-28.62-1.59-42.89.44-4.24,7.22-3.45,6.69.76,1.09,12.53.49,25.08,1.56,37.61.97,11.3-.7,28.33-14.8,29.76-8.43-.59-17.01,1.82-25.45.71Z"/>
  <path d="m198.88,479.89c-11,1.54-17.32-10.33-15.52-19.99,1.31-6.57,4.71-12.53,6.04-19.12,2.16-12.78.94-25.38,2.1-38.2-1.44-1.62-.4-4.08.11-5.92,1.11-2.77,5.37-2.09,5.76.84.37,13.68.19,27.57-.89,41.23-.47,10.8-11.08,21.79-4.44,32.16,4.03,4.65,10.9,1.65,16.06,1.02,3.89-.26,7.77,0,11.59-.86,1.86.1,3.67.74,5.54.29,3.99-5.09,1.83-12.19,1.72-18.12.02-10.01-2.82-19.4-4.87-29.07-.67-6.44-6.62-26.22-1.76-30.24,2.46-1.53,5.77.93,5,3.73-.05,19.13,8.27,37.32,8.44,56.41.49,6.82,1.72,14.46-2.43,20.44-3.13,5.55-9.66,2.83-14.63,3.74-6.07-.33-11.81,1.53-17.82,1.67Z"/>
  <path d="m189.71,406.83c-.23-3.59-.11-7.14-.42-10.72-3.36-3.75,2.85-7.63,5.26-3.37,1.91,4.34.76,9.52,1.34,14.09.02,4-6.2,4-6.18,0Z"/>
  <path d="m161.08,375.31c-4.16-1.42-8.15-3.72-12.2-5.34-3.8-2.03-7.38-4.45-11.12-6.58-6.89-4.45-14.13-8.52-20.12-14.19-2.97-2.83-5.62-5.97-8.51-8.88-3.67-3.66-7.32-7.26-10.2-11.52-3.67-5.64-7.74-11.08-11.05-16.97-4.56-9.19-9.4-18.21-12.93-27.83-2.07-5.21-3.9-10.51-5.11-15.98-.27-.88-.63-2.14.54-2.49.6-.16,1.27.2,1.42.81,1.33,6.16,3.44,12.08,5.82,17.91,2.8,7.49,6.66,14.54,10.16,21.7,1.48,3,3.15,5.99,5.02,8.75,3.38,4.76,6.5,9.6,9.91,14.29,2.57,3.34,5.53,6.15,8.34,9.22,5.4,6.22,10.68,12.44,17.71,16.76,6.82,4.55,13.87,8.98,20.95,13.05,4.01,1.63,7.85,3.7,11.96,5.06,1.39.37.9,2.62-.61,2.22Z"/>
  <path d="m246.46,378.99c-.45-1.06.04-2.48,1.17-2.89,2.37-.78,4.58-1.88,6.71-3.17,11.39-7.17,24.45-12.04,34.81-20.73,1.02-.98,2.65-1.02,3.66,0,.98.98,1.02,2.69,0,3.66-6.41,5.71-14.44,9.39-21.97,13.35-3.8,1.95-7.68,3.72-11.39,5.83-2.47,1.19-11.43,7.88-12.99,3.95Z"/>
  <path d="m312.55,339.3c-.83-.64-1.01-1.89-.35-2.72,3.68-4.73,7.52-9.35,10.84-14.35.6-.87,1.92-.97,2.72-.35.85.63.99,1.89.35,2.72-1.64,2.44-3.35,4.84-5.18,7.13-1.86,2.42-3.76,4.82-5.66,7.21-.66.83-1.88,1-2.72.35Z"/>
  <path d="m371.1,200.61c.57-8.9-1.08-17.03-2.78-25.63-1.32-8.63-3.19-16.98-4.81-25.5-.26-2.09,2.86-2.56,3.22-.44,2.68,13.77,5.92,27.64,7.93,41.46.23,3.36.14,6.74.1,10.11,0,1-.82,1.83-1.83,1.83s-1.83-.83-1.83-1.83Z"/>
  <path d="m119.11,63.66c-4.54-5.34,10.65-11.95,14.46-13.45,7.18-3.74,15.79-11.74,24.1-6.69,1.23.59,1.89,1.99,1.34,3.3-1.41,3-4.3.63-6.41-.02-1.43.03-2.78.59-4.12,1.01-4.11,1.47-7.61,4.09-11.31,6.34-3.62,2.27-8.04,3.15-11.31,5.96-2.01,1.42-3.88,5.5-6.73,3.55Z"/>
  <path d="m147.05,307.99c-9.04-.94-18.14-1.87-27.14-3.04-5.62-2.02-10.7-5.26-16.44-6.98-.61-.22-.88-.99-.64-1.56.27-.62.95-.85,1.56-.63,1.6.58,3.21,1.14,4.8,1.75,3.93,1.64,7.64,3.91,11.8,4.97,2.36.13,4.71.32,7.05.62,6.3.84,12.67.91,19,1.4,2.26.04,2.29,3.44,0,3.47Z"/>
  <path d="m164.02,243.78c-5.01-.82-10.04-1.62-15.11-1.95-2.8-.19-5.61-.16-8.4-.4-2.98-.58-5.65-2.16-8.46-3.27-1.37-.6-.5-2.69.9-2.12,2.39,1,4.72,2.21,7.21,2.95,1.71.24,3.46.11,5.18.15,4.41-.15,8.81.16,13.19.63,1.98.19,3.95.54,5.93.81.88.12,1.51.95,1.39,1.83-.11.86-.97,1.53-1.83,1.39Z"/>
  <path d="m59.03,184.63c-.95-.95-.97-2.57,0-3.51,2.59-2.7,6-5.23,9.93-4.27,2.16.32,5.74.14,5.43,3.27-.19,1.36-1.47,2.33-2.83,2.15-1.64-.18-3.27-.55-4.91-.56-2.71.51-4.68,5.47-7.62,2.93Z"/>
  <path d="m12.21,205.52c.1-4.61,1.36-9.18,3.55-13.24,1.24-1.54,2.49-6.09,5.03-4.77.84.49,1.19,1.66.66,2.51-1.67,2.58-3.29,5.19-4.24,8.13-.9,2.44-1.27,5.01-1.46,7.6-.07.87-.93,1.54-1.76,1.54-.94,0-1.82-.81-1.78-1.78Z"/>
  <path d="m43.09,311.36c-1.19-1.44,1.19-2.45,1.86-3.54,1-1.19,1.78-2.56,2.28-4.03.57-1.85,1.1-3.71,1.65-5.58.17-.59.79-.95,1.39-.79.59.16.96.8.79,1.39-1.02,3.31-1.59,6.73-3.64,9.55-.92.99-2.82,4.3-4.33,2.99Z"/>
  <path d="m247.8,230.83c-2.52-2.43-4.58-5.22-6.66-8.01-1.85-2.09-3.73-4.18-4.67-6.86-2.6-6.21-3.07-13.29-2.32-19.93.71-4.18,3.27-7.59,6.08-10.63,1.33-1.64,3.86.29,2.57,1.99-2.8,3.05-5.45,6.5-5.68,10.8-.19,6.33.21,12.74,3.12,18.36.79,1.61,2.16,2.86,3.27,4.25,2.02,2.73,3.98,5.5,6.43,7.88,1.36,1.4-.72,3.53-2.13,2.14Z"/>
  <path d="m326.26,168.47c-.8-.22-1.28-1.07-1.06-1.88,1.25-4.61,2.44-9.25,3.52-13.9,1.1-6.02,1.61-12.17,1.79-18.26.38-7.34-1.56-14.86-7.41-19.64-1.4-1.4.73-3.56,2.16-2.16,10.73,8.85,8.56,23.92,7.18,36.21-.42,3.89-1.47,7.65-2.41,11.44-.59,2.38-1.22,4.75-1.88,7.12-.22.81-1.09,1.29-1.88,1.06Z"/>
  <path d="m226.81,318.85c-2.01-.82-6.09-3.34-3.96-5.79.81-.81,2.18-.82,2.99,0,1.81,2.44,5.32,2.71,7.95,1.54,6.07-3.27,10.22-8.64,14.63-13.69,5.47-6.02,10.96-11.93,13.65-19.73.6-1.75,1.15-3.52,1.72-5.27.23-.73.96-1.19,1.73-.98.71.2,1.22,1,.98,1.73-2.98,11.85-9.53,19.66-17.32,28.63-5.57,6.49-12.66,16.1-22.38,13.56Z"/>
  <path d="m208.27,298.92c-.37-5.38.92-10.8,2.98-15.75.73-1.64,1.59-3.21,2.45-4.78.52-.94,1.79-1.24,2.7-.71.95.55,1.23,1.76.71,2.7-1.09,1.95-2.13,3.92-2.93,6.01-1.33,4.04-2.3,8.25-2,12.53-.05,2.57-3.84,2.58-3.92,0Z"/>
  <path d="m289.75,125.59c-.69-.29-1.04-1.12-.74-1.81.67-1.51,1.39-2.98,2.2-4.42,2.67-4.69,6.29-8.75,10.29-12.36,1.27-1.24,3.19.66,1.93,1.93-.8.76-1.61,1.51-2.4,2.28-3.39,3.29-6.22,7.14-8.39,11.33-.72,1.15-1.03,3.7-2.89,3.05Z"/>
  <path d="m209.34,468.21c-2.39-3.78,5.54-4.99,6.1-8.64.46-1.49.71-3.02.91-4.56.47-2.92,4.79-2.34,4.48.61-.46,3.14-.92,6.61-3.21,9-1.57,1.51-3.39,2.71-5.13,4-.98.72-2.39.59-3.16-.41Z"/>
  <path d="m129.75,445.67c-1.59,0-4.08.2-4.12-2.01.12-2.41,2.59-1.92,4.29-1.9,3.55-.27,6.99-.31,10.41-1.2,2.12-1.99,3.7-4.69,4.76-7.38.52-1.85,3.35-1.29,3.09.64-.78,3.9-2.34,8.39-5.97,10.48-3.96,1.27-8.34,1.03-12.46,1.37Z"/>
  <path d="m700.31,83.63c-.13-3.68-.67-8.2-4.09-10.3-.33-.19-.73-.22-1.1-.23-.79-.03-1.45-.64-1.45-1.45s.66-1.47,1.45-1.45c6.25.45,8.13,8.2,7.96,13.43-.04,1.81-2.73,1.82-2.77,0Z"/>
  <path d="m691.21,218.71c-.81-.46-1.47-1.23-2.14-1.87-1.16-1.04-3.01-2.58-1.5-4.14,2.25-1.89,3.92,1.69,5.6,2.76,1.96.99,4-2.51,5.58.36.42.99-.08,2.02-1,2.48-1.97,1.15-4.48,1.67-6.52.41Z"/>
  <path d="m618.43,427.97c-1.26-.16-2.49-.47-3.68-.87-2.16-.78-4.17-1.9-5.91-3.41-2.48-2.16-4.39-4.84-5.78-7.82-2.44-5.22-3.26-11.13-3.09-16.85.25-8.43,2.65-16.72,6.57-24.16,2.38-4.53,5.47-8.75,9.17-12.3,2.31-2.22,4.9-4.2,7.75-5.68,2.46-1.27,5.2-2.18,7.96-2.58.39-.25.84-.41,1.32-.44.15-.01.31-.02.45-.03.03,0,.05,0,.08,0-.02,0-.04,0-.06,0,0,0,0,0,0,0,0,0,0,0-.01,0-.02,0-.04,0-.06,0h-.12s-.09.01-.14.02c-.05,0-.09,0-.14,0,.02,0,.05,0,.06,0,.95-.07,1.88-.08,2.65-.04.07,0,.13,0,.2.01h.04c.83.07,1.64.17,2.46.33,2.76.59,5.33,1.74,7.57,3.47,3.53,2.71,6.01,6.61,7.52,10.75,2.39,6.58,2.6,13.73,1.58,20.61-.29,1.97-.7,3.93-1.2,5.85-.57,2.19-1.37,4.27-2.19,6.38-1.43,3.68-3.25,7.24-5.46,10.52-3.21,4.77-7.18,9.05-12.02,12.18-3.91,2.53-8.47,4.19-13.14,4.19-.79,0-1.58-.05-2.37-.15Zm3.33-6.36c.64-.05,1.27-.14,1.9-.26.72-.16,1.42-.35,2.12-.58.85-.3,1.69-.66,2.5-1.06.92-.47,1.81-1,2.68-1.57,1.02-.7,2-1.46,2.94-2.27,1.22-1.08,2.37-2.24,3.17-3.16,1.22-1.39,2.34-2.84,3.38-4.36,1.14-1.7,2.16-3.47,3.09-5.29.8-1.62,1.54-3.28,2.15-4.98.82-2.43,1.52-4.92,2.04-7.34,0-.04.01-.07.02-.11v-.04c.41-2.01.69-4.05.85-6.1.11-1.73.08-3.43-.02-5.16-.11-1.55-.31-3.09-.6-4.62-.26-1.21-.58-2.4-.97-3.57-.33-.92-.71-1.82-1.14-2.7-.35-.68-.73-1.34-1.15-1.99-.38-.55-.78-1.08-1.21-1.59-.42-.47-.87-.92-1.34-1.34-.37-.32-.76-.62-1.16-.9-.44-.29-.89-.55-1.36-.8-.46-.22-.92-.41-1.4-.59-.48-.16-.97-.29-1.47-.4-.51-.09-1.02-.16-1.54-.21-.59-.03-1.18-.03-1.77,0-.03,0-.05,0-.08,0-.05,0-.09,0-.18,0,.06,0,.11,0,.17-.01.02,0,.05,0,.07,0,.07,0,.15-.01.22-.02-.5.04-.98,0-1.44-.12-.19.03-.38.06-.56.1-.62.13-1.23.29-1.83.49-.92.34-1.81.75-2.68,1.19-1.03.53-2.02,1.13-2.99,1.78-.98.69-1.92,1.42-2.83,2.21-1.2,1.07-2.32,2.21-3.39,3.41-1.13,1.33-2.19,2.71-3.18,4.15-1.07,1.62-2.05,3.29-2.94,5.03-1.02,2.05-1.91,4.17-2.67,6.33-.74,2.18-1.34,4.41-1.79,6.54-.38,1.92-.64,3.86-.79,5.81-.11,1.85-.13,3.71,0,5.56.12,1.51.32,3.01.61,4.5.25,1.15.55,2.28.93,3.4.33.91.7,1.81,1.13,2.69.38.74.8,1.46,1.26,2.16.38.54.78,1.06,1.21,1.56.39.43.81.85,1.24,1.24.41.35.85.68,1.29.99.42.28.86.53,1.31.77.43.21.87.39,1.31.56.52.17,1.04.32,1.57.44.54.1,1.09.17,1.64.22.56.03,1.13.02,1.7,0Z"/>
  <path d="m627.61,400.52c-3.11-.98-2.45-4.6-3.84-6.92-1.88-3.31-5.35-6.73-9.46-5.35-2.83.29-6.3,3.82-8.45.42-2.09-4.46,4.39-5.72,7.45-6.62,4.59-1.3,9.34.14,12.47,3.74,3.42,2.51,10.23,15.38,1.83,14.73Z"/>
  <path d="m632.42,355.56c-.17-1.28.57-2.38,1.68-2.86.01,0,.03-.02.02-.02,2.31-3.65,15.23-14.98,14.54-4.53-.41,1.13-1.46,1.65-2.49,2.01-1.5.85-2.76,2.06-4.27,2.9-2.61,1.99-7.47,8.21-9.47,2.5Z"/>
  <path d="m582.54,493.14c-3-.43-3.17-3.64-2.42-5.97,1.32-6.44,3.18-12.75,4.85-19.1,1.08-4.16,19.34-61.97,24.36-43.76-9.01,16.69-15.34,34.83-20.05,53.22-.92,3.5-2.12,7.47-2.72,10.96-.11,2.32-1.23,5.06-4.02,4.66Z"/>
  <path d="m621.51,702.25c-7.74-1.5-15.72-3.38-22.4-7.75-7.63-6.1-14.91-11.82-20.78-19.47-8.95-12.93-12.01-28.33-14.2-43.61-2.87-13.52-5.45-27.26-5.24-41.13.36-11.16,2.32-22.17,3.22-33.27.69-9.67,4.31-18.73,5.63-28.26.44-2.46.05-6.05,3.07-6.87,9.69-1.56-.47,22.18-.64,27.24-2.23,17.21-5.09,34.55-4.31,51.96,1.23,11.47,3.57,22.78,5.76,34.1,1.59,10.92,3.76,22.01,9.63,31.53,4.74,9.23,19.4,22.5,29.16,25.77,18.34,6.4,40.98,5.34,57.04-6.14,8.34-5.19,15.2-12.73,19.87-21.36,4.66-7.16,6.57-15.58,11.11-22.82,3.69-6.51,7.73-12.91,10.43-19.91,4.87-14.52,6.7-29.74,11.5-44.29,8.29-17.49,11.43-36.46,14.94-55.3,4.34-27.69,7.84-55.69,6.89-83.77-.55-22.9-.88-46.48-8.28-68.36-1.09-3.25-2.49-6.36-4.09-9.39-.98-3.28-6.58-6.99-2.66-10.01,4.76-2.21,6.89,7.21,9.12,9.97,12.19,25.33,11.38,54.6,12.36,82,.27,36.63-4.67,73.07-12.31,108.76-3.69,15.82-11.4,30.21-14.44,46.22-2.68,10.41-4.02,21.28-8.7,31.08-4.18,8.83-10.14,17.1-13.79,26.04-11.87,33.29-42.76,52.57-77.91,47.05Z"/>
  <path d="m696.9,357.85c-4.98-.3-9.96-.04-14.94-.26-6.75-.68-13.56-2.17-19.62-5.31-1.11-.58-2.32-1.28-2.97-2.39-.81-1.39-.05-3.2,1.48-3.63,2-.55,4.75-.74,4.97,1.98,5.04,1.99,10.49,2.69,15.84,3.29,4.13.08,8.26-.2,12.39-.14,8.51.32,16.88.17,25.03-2.13,3.4-.84,7.13-.9,10.25-2.62,3.42-2.57,7.35,2.53,3.98,5.16-3.3,2.31-7.38,2.8-11.26,3.46-8.19,2.23-16.68,3-25.15,2.59Z"/>
  <path d="m729.72,350.38c-.36-6.19.38-12.43-.9-18.55-.08-4.09-5.33-11.1-1.27-13.92,2.1-1.25,4.75.17,5.16,2.52,3.7,9.63,3.54,19.82,3.26,29.95.05,4.04-6.27,4.05-6.25,0Z"/>
  <path d="m679.16,326.13c-19.75-3.16-17.62-14.86-1.21-21.85,8.67-3.03,18.13-1.81,26.87.29,9.38,1.95,19.91,6.13,24.85,14.83,2.92,6.61-5.14,9.72-5.2,2.49-5.89,6.29-36.19,5.34-45.31,4.23Zm17.24-6.11c7.63-.48,15.95.63,23.07-2.54-12.5-7.73-36.93-13.86-47.77-.88,7.41,4.33,16.43,3.69,24.7,3.42Z"/>
  <path d="m656.51,327.5c-9.5-1.62,11.45-24.49,13.77-14.65.36,3.44-4.12,3.11-5.51,5.65-1.62,2.16-3.47,4.21-4.85,6.53-.29,1.55-1.82,2.72-3.41,2.47Z"/>
  <path d="m664.35,319.57c-4.78-1.38-.27-6.62,1.72-8.61,2.22-2.25,8.57-5.86,9.84-1.04.2,1.48-.86,2.87-2.34,3.07-1.03.09-1.97.54-2.81,1.12-.47,1.5-2.06,2.37-3.03,3.55-.92.93-1.95,2.11-3.39,1.89Z"/>
  <path d="m653.94,352.27c-4.63-.4-8.99-1.64-13.36-3.13-2.97-.54-5.98-1.1-8.49-2.88-17.49-9.72-9.8-16.87,6.28-18.57,3.58-1.12,7.39-1.46,10.96-2.45,3.23-.7,8.31-5.53,10.78-1.68,1.19,4.33-5.34,4.19-7.85,6.02-7.28,3.88-15.96,3.7-23.49,6.79,4.08,3.8,9.06,6.13,14.57,6.73,5.58,2.13,11.55,3.03,17.5,2.76,4.02-.9,5.56,5.36,1.55,6.39-2.77.41-5.66.31-8.45.01Z"/>
  <path d="m660.31,338.78c-.86-2.36-1.59-4.77-2.86-6.94-.33-.54-.12-1.27.42-1.59,2.14-1.39,3.96,6.43,4.68,7.91.4,1.46-1.8,2.09-2.24.62Z"/>
  <path d="m704.45,348.55c-1.35-.12-3.72.45-3.82-1.52,0-.79.67-1.49,1.47-1.47,4.51.21,9.07.03,13.38-1.43,1.84-.68,3.38-1.98,5-3.05.6-.73,1.72-.88,2.46-.29,2.34,2.38-1.83,3.91-3.42,5.04-4.52,2.47-10.02,2.73-15.08,2.71Z"/>
  <path d="m687.96,318.58c-9.52-.9-5.9-6.91,1.57-6.89,1.72.15,5.32-1.39,5.83.99.11.8-.48,1.67-1.32,1.74-2.5.3-5.12.16-7.55.87,1.17.28,3.01.05,3.02,1.75,0,.81-.71,1.6-1.55,1.55Z"/>
  <path d="m618.13,493.51c-13.78-4.63-23.64-18.89-26.84-32.66-1.03-3.55,4.61-5.12,5.52-1.52.85,3.48,1.94,6.87,3.91,9.9,4.38,7.42,10.12,15.02,18.41,18.14,2.51-.14,6.03.16,5.64,3.56-.46,3.15-4.23,2.92-6.63,2.58Z"/>
  <path d="m735.04,519.76c-.08-8.17-1.51-16.18-4.07-23.93-2.25-6.56-6.07-12.39-9.76-18.2-2.68-4.2-5.1-8.59-8.09-12.57-4.47-5.28-9.55-10.2-15.92-13.09-3.72-2.1-8.13-1.43-12.23-1.98-9.43-1.19-17.48,2.76-25.38,7.39-11,5.19-18.41,15.01-26.61,23.57-1.8,2.07-3.18,4.31-4.71,6.53-1.04,1.39-2.16,3.18-4.02,3.46-1.03.09-2.02-.35-2.55-1.26-.85-1.54-.06-4.45,1.77-4.87,2.44-4.5,5.43-8.61,9.04-12.26,1.88-2.2,3.65-4.48,5.67-6.56,6.15-7.34,13.61-12.11,21.95-16.4,10.58-6.19,18.6-7.22,30.62-5.74,3.38-.02,6.72.62,9.67,2.35,3.2,1.69,6.48,3.35,9.15,5.84,3.74,3.51,7.62,7,10.48,11.3,1.71,2.59,3.32,5.26,4.95,7.9,4.87,7.82,10.27,15.51,12.88,24.45,1.85,6.52,3.5,13.17,3.55,19.98.13,2.99,1.2,7.06-3.07,7.4-1.86,0-3.23-1.5-3.31-3.3Z"/>
  <path d="m641.29,520.23c1.16-13.65,7.74-26.84,17-36.76,3.26-3.4,13.78-14.11,17.53-7.36.82,3.17-2.65,3.98-4.96,4.65-11.02,7.3-18.09,19.32-21.89,31.78-.99,2.93-1,5.25-1.61,8.09-.75,3.18-5.76,2.86-6.08-.41Z"/>
  <path d="m627.25,530.14c-2.05-4.23,3.19-5.23,6.07-6.31,3.26-1.1,6-3.25,8.63-5.41,5.97-4.2,10.35-10.16,15.46-15.32,2.76-3.32,5.58-6.6,8.08-10.12,1.03-1.67,1.72-3.16,3.34-4.43,0,0,0,.02,0,.02,1.58-1.4,4.45-.27,4.63,1.87.18,1.05-.52,2.28-1.11,2.94-4.71,7.56-10.69,14.24-16.85,20.65-1.68,1.68-3.17,3.53-4.82,5.22-3.7,3.02-7.37,6.16-11.48,8.62-2,1.3-4.21,2.21-6.47,2.94-1.81,1.01-4.24,1.45-5.47-.69Z"/>
  <path d="m626.84,570.96c-5.95-.97-10.14-5.54-14.45-9.36-4.94-4.08-10.34-7.57-14.91-12.11-7.79-8.22-16.43-15.53-24.46-23.47-4.19-4.59-7.77-9.72-12.5-13.8-5.24-4.81-10.11-10.42-15.7-14.77-7.36-5.1-15.12-9.79-20.22-17.38-5.93-8.7-11.31-20.69-5.73-30.79,3.87-6.04,9.29-13.81,17.51-11.74,8.51,1.43,14,8.07,18.78,14.65,4.79,4.74,9.44,9.66,13.56,15.01,13.76,16.65,26.79,34.62,45.12,46.36,5.59,3.77,10.57,9.62,17.19,11.34,1.6-.37,3.25.48,3.7,2.11-1.18,11.61-19.95-4.37-24.11-7.54-5.97-4.12-11.98-8.22-17.2-13.3-16.69-17.09-30.93-36.38-47.03-53.98-3-4.56-8.68-8.74-14.36-7.79-3.53,2.7-6.71,6.64-8.24,10.85-1.38,7.57,2.37,14.67,6.42,20.79,6.53,9.84,18.39,13.71,26.04,22.46,10.91,9.32,19.38,21.38,30.14,30.65,6.61,5.74,12.42,12.32,18.93,18.18,6.72,5.04,13,10.61,19.59,15.78,2.41,1.35,5.1,1.1,7.75.81,3.83-.61,5.11,5.37,1.29,6.3-2.32.49-4.71,1.04-7.09.75Z"/>
  <path d="m628.03,569.09c-.4-2.84,2.51-3.48,4.68-3.82,6.35-3.05,12.68-6.1,19.18-8.86,18.32-10.87,32.9-28.77,41.9-47.9,1.65-3.96,7.91-1.38,6.15,2.6-7.73,17.5-20.53,32.39-35.03,44.67-6.92,6.29-16.09,8.64-24.26,12.72-3.6,1.18-10.81,6.18-12.62.59Z"/>
  <path d="m704.76,496.98c-4.98-1.75,1.15-5.44-8.09-9.39-2.96-1.7-.27-6.31,2.66-4.55,1.73,1.03,3.59,1.98,5.13,3.27,2.93,2.15,5.98,10.46.3,10.67Z"/>
  <path d="m663.36,586.14c-9.33-1.43-20.92-6.35-23.82-16.08-.67-2.67-.45-6.68,3.13-6.73,2.09-.01,3.66,1.91,3.43,3.96,1.05,6.88,9.9,10.16,15.93,11.68,11.72,2.67,25.18-.77,32.89-10.33,17.88-18.35,26.31-50.21,17.96-74.73-6.31-19.41-20.16-20.42-37.71-15.83-1.35,1.44-4.03,2.8-6.03,2.16-2.84-1.23-1.64-4.76.53-6.04,8.22-3.97,22.54-7.04,31.16-3.29,24.43,9.69,25.17,45.69,18.31,67.18-3.82,15.02-11.53,28.59-23.08,38.99-8.64,7.82-21.34,10.8-32.72,9.07Z"/>
  <path d="m565.07,585.69c.79-3.4,1.16-21.64,7.45-16.14.77.95.56,2.12.16,3.14-.95,4.18-1.3,8.44-1.95,12.65,0,3.4-5.22,3.76-5.67.34Z"/>
  <path d="m570.35,590.05c-4.04-.53-3.17-6.84.85-6.23,5.65.26,10.45-2.94,4.37-7.5-1.91-2.14-6.98-2.65-5.57-6.45,3.47-6.1,15.18,6.02,14.7,10.59-.3,6.85-8.3,10.23-14.34,9.59Z"/>
  <path d="m607.61,647.24c-5.52-2.17-11.28-3.62-17.05-4.89-4.27-.46-8.87-.99-12.53-3.37-1.38-1.36-1.35-3.49-1.67-5.28-.89-4.23-2.15-8.37-3.1-12.59.09,4.49-6.96,4.53-6.9.04.11-2.25.46-4.49.58-6.74.91-3.84-.18-12.13,5.8-11.27,2.32.64,2.85,3.04,2.98,4.88,4.68,7.71,5.33,17.29,7.52,25.94,6.98,2.17,14.47,2.46,21.43,5.04-4.24-8.81-8.55-17.49-12.77-26.21-1.98-5.36-7.72-9.69-7.71-15.54,2.04-4.95,9.52-4.39,11.55-9.56,5.17-14.54-7.22-35.16-23.75-33.3-4.77,1.56-7.12-5.11-1.97-5.94,12.25-2.12,24.13,5.24,29.28,16.25,6.28,11.47,6.9,29.64-7.85,34.46,6.91,10.24,11.78,21.7,17.18,32.69,2.41,4.68,10.33,17.73-1.03,15.37Z"/>
  <path d="m591.18,452.16c-4.27-9.85-10.47-18.24-18.82-24.94-7.57-6.5-15.53-15.46-26.12-15.9-2.89,4.88-9.36-2.22-4.71-5.09,3.98-2.2,9.08-1.38,13.14.24,7.88,3.25,14.47,8.44,20.5,14.36,5.32,4.56,10.58,9.29,14.64,15.04,1.76,3.81,11.6,15.52,5.75,18.07-1.64.7-3.71-.08-4.38-1.78Z"/>
  <path d="m581.78,475.09c-8.49-6.76-33.49-25.38-35.86-34.8-.15-5.72,9.94-4.83,6.05.7,9.15,10.76,21.05,18.9,31.96,27.76,5.16,2.04,2.89,9.13-2.15,6.35Z"/>
  <path d="m729.52,411.4c-2.03-11.99-7.66-22.85-14.6-32.71-1.34-3.03-6.97-6.69-3.69-9.97,4.83-5.05,21.02,28.17,21.68,32.69.33,3.54,4.2,9.81-.06,11.89-1.37.37-3.03-.45-3.34-1.89Z"/>
  <path d="m731.58,451.51c-.48-6.87.76-13.69.66-20.56.41-3.26-2.18-8.24,1.94-9.31,6.07-.45,2.62,17.74,2.78,21.88-.86,3.29,1.93,9.89-2.74,10.64-1.47,0-2.61-1.2-2.64-2.64Z"/>
  <path d="m629.46,686.86c-2.46-.52-7.34-.48-6.62-4.14.37-1.34,1.78-2.12,3.12-1.77,2.76.8,5.62,1.18,8.49.97,11.36-1.01,21.59-6.46,31.28-12.12,2.56-1.95,7.9-7.18,9.01-1.2-1.81,5.1-9.1,7.35-13.37,9.87-9.75,5.14-20.72,9.39-31.91,8.38Z"/>
  <path d="m695.79,625.44c-1.08-.3-1.61-1.38-1.38-2.43.39-1.78.78-3.56,1.19-5.34,1.42-6.81,5.45-12.74,6.78-19.59.5-2.19.96-4.38,1.43-6.58.77-2.63,4.7-1.58,4.05,1.12-.84,3.95-1.58,7.93-2.9,11.76-1.39,4.24-3.63,8.17-4.87,12.46-.63,2.4-1.23,4.81-1.88,7.21-.28,1.04-1.42,1.66-2.43,1.38Z"/>
</svg>