<?xml version="1.0" encoding="UTF-8"?>
<svg id="Vektorebene" xmlns="http://www.w3.org/2000/svg" viewBox="0 0 1197.09 635.87">
  <path d="m990.46,550.42c-4.13-1.39-8.2-.37-12.4-1-3.95-.48-7.78-1.54-11.59-2.6-2.4-.97-5.05-1.43-7.14-3.03-4.3-2.91-7.04-7.37-10.58-11.07-1.51-1.69-3.27-3.23-4-5.45-1.7-5.63.19-12.2,4.32-16.33,8.51-7.59,14.99-17.09,20.3-27.12,2.93-5.85,5.29-11.32,8.54-16.78,1.83-3.13,3.83-5.47,5.46-8.46,2.6-5.98,4.6-12.23,6.85-18.36,1.51-3.89,3.14-7.99,3.54-12.05.11-1.13,1.25-1.93,2.34-1.78,3.07.64,1.3,4.71,1.16,6.83-1.12,5.37-3.09,9.93-4.64,15.06-1.63,4.26-2.82,8.74-4.85,12.82-2.91,4.86-6.39,9.36-8.78,14.52-2.83,5.61-5.32,11.41-8.65,16.75-4.36,6.85-8.48,13.39-14.41,18.89-1.73,1.94-4,3.47-5.19,5.82-1.94,3.73-2.6,8.68,1.08,11.51,1.58,1.93,3.39,3.63,4.95,5.57,1.86,2.6,4.2,5.06,7.14,6.42,1.42.42,2.8.99,4.22,1.43,1,.14,1.98.16,2.83.36,4.4.74,8.83,1.85,13.32,1.36,3.36-.29,6.5,1.28,9.83.81,4.16-.49,4.93-5.05,5.09-8.5,1.35-6.06,1.97-12.2,2.49-18.33,1.01-8.07,4.62-15.46,9.41-21.94,5.24-8.75,10-17.85,13.63-27.4,4.62-12.22,10.94-23.72,15.85-35.79,1.31-2.87,1.14-6.09,1.86-9.07,1.55-3.5,6.97-1.36,5.46,2.36.04-.12.08-.23.12-.36.02-.11.04-.22.07-.32-.45,6.74-3.13,12.97-6.18,18.92-2.95,6.19-5.86,12.41-8.57,18.71-5.33,13.19-10.8,26.48-18.86,38.28-2.21,3.2-3.96,6.74-5.44,10.33-1.55,4.88-1.87,9.96-2.31,15.02-.34,3.89-1.41,7.66-1.89,11.52-.24,8.27-6.09,13.47-14.37,12.47Z"/>
  <path d="m1175.99,469.39c-13.69-1.12-27.51.65-41.13-1.39-6.38-1.04-12.09-4.36-18.42-5.59-4.75-.7-9.86-.72-14.47-1.89-3.09-.69-6.3-.95-9.15-2.41-3.57-1.65-6.61-4.13-9.63-6.6-2.57-2.11-5.49-3.73-8.15-5.71-4.68-3.99-7.69-9.51-11.43-14.29-.85-.93-1.71-1.86-2.7-2.65-1.75-.66-3.04-2.56-1.97-4.35,4.39-5.67,12.2,8.42,14.73,11.36,2.36,3.43,5.28,6.27,8.94,8.3,3.19,2.1,6.01,4.69,9.11,6.9,3.43,2.54,7.59,3.34,11.7,4.03,4.12.95,8.32,1.1,12.51,1.51,5.18.71,10.1,2.59,14.9,4.61,3.98,1.31,7.52,1.59,11.55,1.96,8.47.54,16.96.02,25.43.31,5.1.22,9.89,1.28,14.93.35,2.16-.48,4.19-1.41,6.2-2.34.79-.48,1.81-.8,2.26-1.65,1.52-4.28.77-8.98,1.04-13.44.22-6.87-.04-13.9-2.05-20.5-3.43-6.71-8.29-5.05-14.3-3.25-6.54,2.23-13.01,4.73-19.69,6.53-6.3,2.17-13.53,2.66-19.86.89-2.08-.47-4.23-.38-6.3-.91-2.66-.65-5.59-2-8.18-2.52-4.78-.63-9.27-2.39-13.5-4.68-2.86-1.62-5.42-3.88-8.12-5.71-.93-.79-2.18-1.26-2.95-2.19-.69-1.15.3-2.7,1.66-2.49,1.78.58,3.29,1.89,4.96,2.75,5.87,4.18,12.6,6.95,19.76,7.89,3.7.88,6.97,2.66,10.8,2.71,3.98.45,7.78,1.78,11.82,1.43,10.65-1.3,20.34-6.01,30.52-9.01,7.77-2.26,13.23-1.46,17.44,5.97,1.08,1.93,1.31,4.14,1.68,6.28.7,3.8,1.28,7.64,1.16,11.51-.09,3.85-.05,7.7-.12,11.54-.07,4.39-.09,10.1-4.54,12.41-4.97,2.89-10.71,4.2-16.43,4.31Z"/>
  <path d="m997.42,429.17c-.36-4.24,4.7-3.71,7.54-4.43,6.3-1.34,12.56.28,18.87.1,4.38-.56,8.72-1.38,13.09-2.07,5.17-1.17,10.23-3.02,15.57-3.36,3.57-.29,7.16.64,10.69-.21,5.05-1.21,10.08-2.55,15.02-4.15,8.09-2.97,15.34-7.72,22.78-11.98,2.45-1.3,5.15-2.11,7.47-3.67,4.92-3.61,8.85-8.48,13.59-12.28,6.79-6.47,13.96-12.54,20.75-19.01,4.49-5.27,7.95-11.29,12.16-16.76,5.46-7.93,8.87-16.97,11.98-26.01,1.33-3.71,2.37-7.75,3.1-11.56,1.22-5.41,2.07-11.12.27-16.51-1.66-4.84-4.32-9.25-7.17-13.46-1.82-2.62-3.6-5.91-2.52-9.11.67-4.31,3.79-7.84,7.71-9.6,1.23-.42,2.28-1.07,3.24-1.95.99-.71,2.17-1.22,2.85-2.27.85-4.5-.56-9.27-1.23-13.76-1.84-8.88-5.12-17.4-8.8-25.67-1.94-4.12-3.89-8.54-5.36-12.77-.59-1.49-.94-3.19-2.02-4.42-1.79.89-3.04-1.78-1.26-2.56,6.38-4.02,8.98,9.12,11.29,12.99,3.27,6.86,6.22,13.88,8.62,21.09,2.2,6.84,3.75,13.93,4.27,21.11.31,3,.09,6.38-2.36,8.49-1.53,1.15-3.78,3-5.35,3.87-3.02,1.05-5.98,3.16-6.41,6.55-.74,2.9,2.36,5.5,3.62,7.95,2.26,3.4,3.81,6.45,5.28,10.05,5.56,13.48-2.3,31.88-7,44.87-4.68,11.8-12.69,21.87-20.12,32.02-5.97,6.57-12.83,12.28-19.16,18.5-3.09,2.92-6.38,5.63-9.38,8.65-4.07,4.52-9.01,8.04-14.72,10.17-9.66,5.59-19.13,11.95-30.12,14.59-4.7,1.18-9.33,2.91-14.2,3.19-3.72-.07-7.45-.43-11.12.48-6.78,1.76-13.12,3.4-20.12,4.31-4.94,1.12-9.98.62-14.96.05-2.83-.18-5.65.04-8.44.51-2.85.48-7.17,2.05-7.95-1.98Z"/>
  <path d="m979.81,430.68c-6.79-.28-13.59,0-20.35-.85-6.53-.82-12.93-2.55-19.19-4.56-6.28-2.17-12.37-4.86-18.57-7.25-4.62-1.92-9.28-3.9-13.42-6.73-4.44-2.99-8.55-6.43-12.91-9.53-6.1-3.98-12.79-7.48-17.57-13.1-6.43-6.74-11.05-14.8-15.9-22.69-2.95-5.39-6.82-10.21-9.67-15.64-1.38-2.82-2.6-5.71-3.88-8.58-4.12-8.34-5.86-17.5-7.78-26.54-1.22-5.66-3.75-10.94-4.82-16.63-1.68-11.08-1.64-22.35-2.43-33.44.21-9.7-1.88-19.33-1.06-29.02.19-7.64,1.6-15.11,3.42-22.51,2.1-12.42,7.08-24.09,11.73-35.73,1.25-2.95,2.64-5.82,4.31-8.56,3.44-5.37,8.3-9.66,11.95-14.89,4.01-5.66,7.33-11.78,11.79-17.12,3.88-4.78,7.75-9.89,13.42-12.64,1.93-.98,3.9-1.9,5.86-2.84,1.06-.5,2.39.11,2.83,1.15.48,1.12-.09,2.32-1.15,2.83-4.79,2.16-9.61,4.49-12.95,8.71-6.74,7.4-11.41,16.02-17.15,24.05-3.17,4.26-6.98,8.01-10.07,12.33-4.44,7.02-6.99,15.01-9.91,22.73-3.19,7.74-5.19,15.84-6.71,24.04-2.27,8.83-3.03,17.91-2.79,26.93,1.03,8.91,1.04,18.3,1.55,27.18.74,8.74.55,17.57,2.05,26.23.98,4.44,2.68,8.65,3.95,13.01,1.94,7.36,3.01,14.95,5.5,22.16,1.92,4.89,4.15,9.65,6.35,14.42,1.69,3.41,3.81,5.93,5.9,8.98,2.7,3.98,5.16,8.13,7.81,12.14,6.06,10.53,14.09,20.12,25,25.8,6.74,3.81,12.37,9.28,19.03,13.19,4.46,2.56,9.34,4.31,14.11,6.2,6.42,2.43,12.74,5.17,19.4,6.91,8.52,2.48,17.45,3.34,26.26,3.13,10.17.24,20.38.56,30.5-.74,4.04-.38,8.1-.43,12.1-1.12,2.01-.98,4.62-.36,5.26,1.97,1.16,5.88-8.56,4.77-12.16,5.38-9.85.98-19.7,1.63-29.61,1.22Z"/>
  <path d="m921.6,104.33c-2.52-2.34,6.53-7.11,8.25-8.09,7.38-4.07,15.53-6.26,23.46-8.97,14.64-5.03,30.19-7.64,45.63-8.29,6.59.21,13.2.16,19.78.57,7,.91,14.06.97,21.05,1.89,3,.46,9.82-.95,9.06,3.86-1.19,3.25-4.01,1.45-6.42,1.09-3.61-.45-7.38-.93-10.97-1.27-5.02-.15-10-.76-14.98-1.29-7.2-.02-14.4-.63-21.6-.37-12.91,1.26-25.92,2.96-38.31,6.93-8.65,2.93-17.61,5.06-25.74,9.33-2.43,1.26-4.45,2.48-6.48,4.1-.65.85-1.88,1.39-2.75.5Z"/>
  <path d="m1127.78,205.98c-32.51-7.68-51.74-48.97-34.56-78.25,7.98-14.9,27.4-19.99,42.96-15.85,15.24,3.43,26.02,19.04,29.05,33.72,6.16,20.91,3.64,52.79-20.37,60.69-3.67.78-16.19,5.04-17.09-.31Zm6.02-5.86c7.52.59,15.7-8.39,19.8-6.63,12.81-19.57,9.67-49.01-5.22-66.68-10.15-11.5-29.39-12.84-41.53-4.07-14.58,9.53-15.41,30.79-10.55,45.97,5.42,15.68,20.66,29.85,37.5,31.42Z"/>
  <path d="m1125.66,142.64c-1.19-.45-2.3-1.09-3.33-1.84-.36-.26-.69-.54-.93-.75-.04-.04-.08-.07-.12-.11h0c-.43-.39-.83-.8-1.22-1.23-3.11-3.6-4.32-8.49-3.17-13.13.34-1.34.86-2.65,1.65-3.75-.07-.79.14-1.59.67-2.23.1-.12.2-.24.25-.3,2.45-2.78,5.75-4.62,9.44-5.13,2.55-.35,5.12-.03,7.49.95,2.55,1.06,4.81,2.7,6.5,4.91,1.75,2.28,2.72,5.19,2.93,8.04.09,1.72-.18,3.42-.65,5.08-.27.96-.66,1.9-1.12,2.79-.23.45-.49.86-.78,1.28-.35.51-.81.9-1.28,1.3-.35.35-.67.73-1.04,1.08-.43.42-.91.81-1.39,1.18-.55.42-1.14.8-1.76,1.13-1.1.58-2.23.99-3.44,1.28-1.12.26-2.28.39-3.44.39-1.8,0-3.61-.31-5.27-.95Zm5.9-4.4c.42-.04.84-.09,1.26-.17.39-.09.78-.19,1.17-.31.34-.13.67-.27.99-.42.33-.17.64-.36.95-.55.33-.24.65-.48.96-.74.29-.27.57-.54.83-.83,0,0,.02-.02.02-.03.03-.05.05-.09.08-.14.32-.64.66-1.27.99-1.9.16-.34.31-.69.44-1.04.12-.37.22-.74.31-1.12.04-.21.07-.42.09-.63.02-.53-.02-1.07-.05-1.6-.04-.43-.1-.86-.18-1.29-.09-.39-.2-.77-.32-1.15-.11-.29-.23-.58-.36-.86-.15-.29-.33-.56-.51-.83-.28-.4-.57-.8-.89-1.17-.23-.25-.47-.49-.72-.72-.29-.25-.59-.48-.9-.7-.29-.19-.58-.36-.89-.52-.25-.12-.51-.24-.78-.34-.45-.14-.92-.25-1.38-.35-.41-.07-.81-.13-1.23-.16-.38-.02-.75-.01-1.13,0-.37.03-.74.09-1.1.15-.4.09-.79.2-1.17.33-.32.12-.64.26-.95.4-.31.16-.62.34-.91.53-.32.22-.62.45-.91.7-.27.25-.54.51-.79.79-.02.02-.04.05-.06.07-.42.51-.97.88-1.56,1.08-.21.47-.41.95-.59,1.43-.13.39-.23.78-.32,1.18-.08.43-.13.86-.17,1.3-.02.37-.02.74,0,1.11.03.42.09.84.17,1.26.09.39.19.77.32,1.14.14.38.3.76.48,1.13.18.34.37.66.57.98.24.34.5.67.76.99.27.29.55.56.84.82.28.23.56.45.85.65.34.22.69.43,1.05.62.26.12.52.24.78.35.36.12.72.21,1.08.3.58.1,1.15.19,1.73.24.38.02.76.02,1.14.01Z"/>
  <path d="m1129.76,209.24c-1.57-.59-2.84-1.68-3.95-2.9-.99-1.11-1.84-2.34-2.6-3.62-4.16-1.77-6.66-5.9-8.68-9.74-2.69-.31-4.75-2.45-6.6-4.26-6.81-2.63-11.93-11.99-14.46-18.54-1.01-2.78-1.62-5.69-1.84-8.64-.82-2.1-1.53-4.67-.07-6.65-3.08-4.63-.87-10,1.17-14.55.12-5.55,2.28-11.44,6.76-14.92,1.15-1.01,2.73-1.1,3.85-2.11,1.18-.9,2.79-1.15,3.91-2.18,2.82-2.38,5.22-5.8,9.03-6.68.53-.11,1.08-.15,1.62-.07,1.8-.8,3.96-.4,4.76,1.55.83,2.75-2.11,4.88-3.69,6.76-.58,1.11-1.19,2.2-1.88,3.24.71.68,1.03,1.74.85,2.77.37,1.28.29,2.66.35,4,1.83,1.33,2.8,3.5,4.31,5.15,1.39,1.53,3.12,2.68,4.81,3.85,2.53-2.08,6.03-1.2,8.53.48,1.52-.5,2.81-1.39,4.24-2.09.37-.74.83-1.44,1.31-2.15.36-.52.8-1,1.24-1.45-.06-1.09.02-2.18.44-3.19-.18-2.52-.76-5.48.6-7.74-1.6-2.52.75-6.07,3.71-5.18,2.24.61,2.65,3.21,3.47,5.06,1.63,3.78,3.03,7.67,4.46,11.52,3.12,3.42,4.89,7.8,5.88,12.33.77,3.14,1.42,6.2,1.72,9.37.88,4.68,1.42,9.56.12,14.15-.22,2.46.03,5.39-1.79,7.32-.05,2.84-.6,6.77-4.11,7.05-.94,5-2.47,10.24-8.72,7.82-.56.28-1.18.42-1.84.42-.15,0-.29,0-.44-.03-1.17,2.42-3.6,4.28-6.37,4.05-1.53,4.53-3.87,12.09-10.11,9.77Zm1.72-6.62s0,0,0,0c.36-.75.69-1.51.99-2.28-.39.15-.8.27-1.22.35-.24.29-.5.56-.78.82-.01,0-.02.02-.03.03.07.09.15.19.22.28.26.28.53.55.81.81Z"/>
  <path d="m1046.41,151.21c-2.74-.72-5.38-1.86-7.76-3.4-1.88-1.22-3.47-2.73-4.98-4.36-3.31-3.59-5.18-8.32-5.73-13.12-.47-4.18.22-8.46,1.91-12.3.63-1.44,1.43-2.8,2.37-4.06.66-.88,1.4-1.68,2.14-2.49,0,0,.01-.02.02-.03.35-.55.84-.95,1.38-1.33,1.06-.75,2.13-1.5,3.23-2.2.56-.36,1.14-.7,1.73-1.02.28-.91.94-1.7,1.87-2.09,4.15-1.73,8.84-2.23,13.26-1.53,6.86,1.08,13.2,5.16,16.84,11.1,1.18,1.92,2.11,3.96,2.79,6.11.62,1.97.85,3.99.97,6.04.1,1.72,0,3.47-.29,5.17-.32,1.89-.8,3.75-1.7,5.45-.36.68-.73,1.34-1.09,2.01-.36.68-.75,1.33-1.17,1.96-.94,1.41-2.03,2.73-3.23,3.92-2.36,2.34-5.31,4.3-8.49,5.32-2.82.89-5.69,1.47-8.66,1.54-.11,0-.22,0-.33,0-1.69,0-3.43-.25-5.06-.68Zm6.5-4.75c.94-.09,1.87-.21,2.79-.39,1.26-.3,2.49-.66,3.72-1.06.23-.09.46-.18.68-.28.77-.4,1.53-.83,2.25-1.3.66-.46,1.31-.95,1.92-1.47.62-.56,1.21-1.15,1.77-1.76.51-.59.99-1.21,1.43-1.86.43-.65.83-1.33,1.2-2.03.11-.22.21-.45.3-.67.21-.66.36-1.34.55-2,.2-.69.39-1.39.55-2.1.16-.82.26-1.64.33-2.46.04-.81.05-1.62,0-2.43-.05-.57-.13-1.14-.24-1.71-.22-1.03-.49-2.05-.82-3.05-.28-.78-.61-1.55-.98-2.29-.29-.55-.6-1.09-.94-1.62-.51-.73-1.08-1.42-1.66-2.09-.55-.61-1.12-1.19-1.73-1.74-.57-.48-1.17-.91-1.78-1.33-.67-.44-1.36-.85-2.07-1.22-.76-.37-1.54-.7-2.34-.99-.76-.25-1.54-.46-2.32-.63-.76-.14-1.53-.24-2.3-.31-.82-.05-1.65-.05-2.48,0-.83.07-1.65.18-2.47.34-.78.17-1.55.38-2.3.63-.27.09-.53.19-.8.3-.6.25-1.25.31-1.85.2-.94.52-1.86,1.07-2.71,1.64-.73.49-1.46.99-2.16,1.52-.49.78-1.11,1.47-1.65,2.22-.56.84-1.07,1.72-1.53,2.62-.4.81-.75,1.64-1.06,2.49-.27.81-.49,1.64-.68,2.48-.15.83-.26,1.66-.33,2.5-.04.8-.03,1.59,0,2.38.08.93.2,1.84.38,2.76.19.81.4,1.61.66,2.39.27.73.58,1.45.92,2.15.28.54.58,1.05.91,1.57.48.66.98,1.3,1.49,1.94.67.72,1.35,1.41,2.07,2.09.58.49,1.18.95,1.8,1.38.66.42,1.33.81,2.02,1.18.76.36,1.53.69,2.32.99.79.26,1.57.5,2.37.72.87.16,1.74.27,2.62.35.71.03,1.42.02,2.13-.02Z"/>
  <path d="m1051.73,127.89c-1.74-.06-3.49-.39-5.05-1.18-.79-.4-1.52-.88-2.25-1.38-.34-.24-.68-.51-.98-.8-.29-.28-.64-.57-.88-.91-.44-.64-.84-1.28-1.16-1.98-.96-2.05-1.3-4.31-.93-6.54.25-1.43.77-2.74,1.49-4,.18-.31.36-.62.57-.91.47-.63,1.07-1.11,1.68-1.59.49-.38.99-.74,1.5-1.07.03-.11.07-.22.12-.32.29-.68.82-1.26,1.55-1.54,0,0,0,0,0,0,0,0,0,0,0,0h0s.06-.02.08-.03c3.2-1.28,6.83-.99,9.88.56.93.47,1.71,1.1,2.45,1.83.35.34.69.69.99,1.07.33.43.56.93.79,1.42.18.34.38.67.56,1.01.25.52.47,1.03.55,1.28.79,2.26.96,4.66.32,6.98-.32,1.18-.81,2.34-1.5,3.35-.37.54-.8,1.01-1.28,1.45-1.06,1-2.21,1.86-3.54,2.47-1.35.62-2.91.83-4.4.83-.2,0-.39,0-.58-.01Zm1.24-4.86c.25-.03.49-.06.74-.1.3-.07.58-.14.87-.23.15-.06.29-.12.44-.19.13-.07.26-.14.38-.22.37-.26.72-.53,1.07-.81.29-.26.58-.54.85-.82.08-.1.15-.2.22-.3.09-.15.18-.3.26-.45.14-.3.27-.6.38-.92.08-.26.16-.52.22-.78.05-.29.09-.58.11-.87.01-.27.01-.54,0-.81-.03-.32-.07-.63-.12-.94-.07-.29-.14-.58-.23-.86-.1-.26-.21-.52-.33-.77-.1-.2-.21-.39-.33-.58-.02-.02-.05-.05-.07-.07-.35-.31-.69-.61-1.04-.92-.1-.09-.21-.17-.32-.25-.44-.29-.89-.56-1.36-.8-.24-.11-.48-.22-.73-.31-.23-.07-.47-.14-.71-.2-.3-.05-.59-.09-.89-.12-.28-.01-.56,0-.84,0-.32.03-.63.07-.94.13l-.18.04c-.14.03-.29.07-.33.08-.13.04-.26.08-.38.13,0,0,0,0-.01,0,0,0,0,0,0,0-.06.02-.13.05-.19.07,0,0,0,0,0,0,0,0,0,0-.01,0h-.01c-.33.1-.67.15-1,.14-.14.09-.28.17-.42.26-.53.38-1.05.78-1.34.98-.12.1-.24.21-.34.31-.01.02-.03.04-.04.05-.12.2-.24.4-.34.61-.13.27-.24.55-.35.82-.12.36-.21.72-.3,1.09-.06.36-.11.71-.14,1.07,0,.26-.01.52,0,.78.03.29.06.58.11.86.05.23.12.46.2.69.12.31.24.61.38.91.14.27.29.52.45.78.02.03.04.05.05.08.11.12.23.24.35.35.29.25.6.48.91.7.42.27.84.52,1.27.75.18.08.35.16.53.22.29.09.59.17.89.23.4.06.8.12,1.2.15.48.02.94.02,1.42,0Z"/>
  <path d="m1054,147.84c-3.36,1.71-7.25.35-9.88-2.06-6.75.18-12.08-7.18-10.73-13.61-.49-1.06-.75-2.18-.87-3.34-2.36-2.41-1.5-6.2-.82-9.14.78-2.54,1.65-6.04,4.73-6.5.27-.43.57-.84.76-1.31.65-1.69,2.73-2.46,4.36-1.77,3.13,1.44,1.97,4.81.31,6.95,0,.03,0,.06.01.09.11,1.07.05,2.12-.18,3.16.8.85,1.22,1.88,1.41,2.98.3.23.59.49.87.78.39.4.71.84.98,1.31,1.44.23,2.74.89,3.83,1.83,1.33-.1,2.29-1.13,3.66-1.29,1.23-.2,2.51-.25,3.69.19.31-.05.62-.09.94-.1.08,0,.17,0,.25,0,0-2.8-.1-6.2,1.94-8.36.45-1.47-.25-3.34,1.15-4.37,1.23-2.11,4.42-2.42,6.12-.67,2.16,2.23,2.46,5.57,2.7,8.52,1.13,2.18,1.42,4.67,1.36,7.09-.32,2.89.32,5.85-.86,8.63-2.22,6.09-8.43,14.36-15.73,10.98Z"/>
  <path d="m1126.21,116.05c-1.17-.13-1.97-.97-2.5-1.89-2.54-2.02-5.24-3.85-8.06-5.46-4.19-2.3-8.49-4.42-13.02-5.96-4.05-1.61-8.45-1.85-12.55-3.28-5.74-1.78-10.73-5.24-15.61-8.64-5.84-4.71-9.3-5.76-16.77-5.03-2.59.56-5.3,1.53-7.96.8-1.08,1.56-3.12.94-4.38-.06-1.96-1.41-1.31-4.69,1.07-5.2,1.78-.51,3.46.57,5.21.59,2.48-.21,4.78-1.36,7.29-1.37,3.54-.08,7.23-.29,10.54,1.18,3.88,1.39,6.91,4.3,10.32,6.5,4.4,2.94,9.25,5.09,14.46,6.11,7.7,1.03,15.01,3.92,21.86,7.52,2.58,1.33,5.04,2.82,7.44,4.46,2.49,1.96,7.22,3.99,5.93,7.86-.55,1.28-1.92,2.06-3.28,1.87Z"/>
  <path d="m1094.9,96.84c-16.74-27.32-23.6-3.78-27.66-12.8,1.1-10.13,18.27-8.38,24.33-3.48,4.15,3.89,10.72,10.72,7.78,16.71-1.27,1.28-3.42,1.03-4.45-.44Z"/>
  <path d="m1091.52,96.62c-2.05-.65-6.18-1.17-6.4-3.78-3.17-.8-6.58-2.07-8.73-4.64-1.12-1.25-6.87-7.26-4.12-8.43.57-.16,1.12.19,1.3.73.41,1.47,1.28,2.78,2.29,3.89,1.95,2.46,4.25,4.53,7.36,5.32,1.42.46,3.2,1.05,4.38-.21-.78-1.1-1.65-2.16-2.3-3.34-.93-2.31,2.39-3.8,3.55-1.61,1.64.56,3.48,1.89,2.81,3.86.07.1.14.19.21.29.43.59.85,1.19,1.27,1.8,1.19.14,2.15,1.09,2.15,2.34,0,.44-.13.88-.36,1.25.15,1.83-1.76,2.96-3.41,2.54Z"/>
  <path d="m1087.4,93.16c-4.43-.91-.38-7.01,2.39-4,1.25,1.58-.48,4.25-2.39,4Z"/>
  <path d="m1071.22,236.78c-1.84-.18-3.61-.64-5.34-1.31-2.21-.86-4.29-1.97-6.12-3.48-1.36-1.13-2.57-2.42-3.61-3.85-2.63-3.61-4.07-8.01-4.08-12.48,0-4.84,1.68-9.65,4.75-13.41.72-.89,1.53-1.66,2.37-2.43.29-.27.57-.54.88-.77.64-.49,1.39-.85,2.1-1.23,1.02-.56,2.07-1.08,3.14-1.55.43-.57,1.04-1.01,1.77-1.24,4.12-1.29,8.71-1.23,12.82.11,5,1.63,9.29,5.03,11.96,9.56,1.71,2.9,2.64,6.28,2.87,9.62.13,2.45-.06,4.97-.85,7.31-.39,1.08-.85,2.15-1.35,3.17-.68,1.41-1.51,2.74-2.47,3.97-.86,1.1-1.84,2.08-2.88,3-.68.6-1.43,1.12-2.21,1.59-1.45.89-3.01,1.68-4.62,2.23-2.38.8-4.86,1.28-7.36,1.28-.59,0-1.18-.03-1.78-.08Zm2.92-6.09c.51-.06,1.02-.12,1.53-.2.97-.21,1.9-.46,2.84-.77.64-.26,1.25-.54,1.87-.84.62-.34,1.25-.69,1.85-1.07.39-.27.75-.56,1.11-.87.46-.42.9-.85,1.31-1.31.4-.47.78-.95,1.13-1.46.38-.58.73-1.19,1.05-1.81.21-.43.4-.86.57-1.31.07-.21.13-.43.18-.65.12-.58.25-1.17.37-1.75.13-.69.23-1.39.28-2.1.03-.65.03-1.29,0-1.94-.05-.66-.15-1.32-.27-1.98-.14-.65-.32-1.29-.53-1.91-.17-.47-.35-.93-.57-1.37-.37-.71-.79-1.41-1.23-2.08-.36-.52-.75-1.02-1.16-1.5-.43-.48-.89-.93-1.37-1.37-.48-.41-.98-.79-1.5-1.15-.52-.34-1.06-.65-1.62-.94-.58-.28-1.17-.53-1.78-.75-.65-.22-1.32-.4-1.99-.54-.63-.12-1.27-.2-1.91-.26-.68-.04-1.35-.04-2.03,0-.74.06-1.47.17-2.13.3h0c-.44.1-.88.21-1.31.35-.29.09-.58.13-.87.13-.65.28-1.3.57-1.94.89-.82.43-1.64.87-2.43,1.35-.53.52-1.03,1.06-1.52,1.61-.44.51-.85,1.03-1.23,1.58-.38.59-.74,1.19-1.06,1.81-.29.61-.56,1.24-.79,1.88-.2.62-.37,1.25-.52,1.89-.13.67-.22,1.35-.27,2.03-.03.69-.03,1.37,0,2.05.06.69.15,1.37.28,2.05.14.64.32,1.27.53,1.9.23.62.48,1.22.77,1.81.3.58.63,1.14.99,1.69.37.52.75,1.03,1.17,1.52.44.48.89.94,1.37,1.38.49.41,1,.81,1.52,1.17.4.26.82.49,1.23.71.89.43,1.81.82,2.73,1.16.47.15.95.29,1.44.4.67.13,1.34.21,2.02.27.62.03,1.25,0,1.87-.03Z"/>
  <path d="m1068.4,219.19c-2.79-.93-5.3-2.56-7-5.01-.96-1.38-1.61-2.89-1.88-4.56-.26-1.64-.09-3.29.41-4.86.56-1.6,1.45-3.03,2.67-4.21.53-.52,1.11-.96,1.73-1.37.16-.11.33-.19.5-.27.32-.51.8-.92,1.38-1.17,2.87-1.2,5.98-1.34,8.99-.62,1.95.46,3.8,1.39,5.37,2.64.76.61,1.43,1.28,2.06,2.01.31.37.58.77.85,1.17.19.29.34.6.49.91.2.4.27.82.34,1.25,0,.02.01.04.02.06.38,1.11.63,2.19.69,3.38.07,1.29-.17,2.57-.58,3.79-.48,1.32-1.17,2.57-2.16,3.58-1.2,1.23-2.8,2.18-4.35,2.88-1.63.74-3.43.98-5.2,1.02-.1,0-.2,0-.3,0-1.35,0-2.75-.2-4.03-.62Zm5.04-4.87c.36-.04.71-.09,1.06-.15.4-.09.8-.21.85-.24.25-.09.5-.19.74-.31.42-.23.83-.47,1.23-.73.28-.2.56-.41.84-.63.1-.09.19-.18.28-.28.1-.12.19-.24.28-.37.1-.16.19-.32.28-.48.09-.18.17-.37.24-.56.07-.21.13-.42.18-.63.04-.22.07-.45.09-.68,0-.19,0-.37,0-.56-.02-.22-.05-.44-.09-.66-.05-.22-.11-.44-.18-.66-.01-.03-.03-.07-.04-.1-.32-.39-.6-.78-.67-.89-.23-.34-.47-.66-.73-.97-.19-.21-.39-.41-.6-.6-.22-.18-.44-.35-.67-.52-.27-.17-.55-.33-.84-.48-.37-.17-.74-.33-1.12-.47-.4-.13-.8-.24-1.21-.33-.36-.06-.72-.11-1.08-.14-.41-.02-.82-.02-1.23,0-.4.03-.79.09-1.18.16-.33.08-.66.18-.99.28-.09.03-.17.07-.26.1-.42.17-.87.24-1.3.23-.22.17-.45.35-.66.53-.18.17-.36.34-.53.53-.16.18-.3.37-.44.56-.12.19-.24.39-.35.6-.09.19-.17.37-.24.57-.07.22-.12.43-.18.65-.04.21-.07.42-.09.63,0,.21,0,.42,0,.62.02.23.05.45.09.67.05.23.12.45.19.67.08.21.17.42.26.62.11.2.23.4.35.59.2.28.41.55.63.81.22.23.45.46.68.67.24.2.49.39.74.57.27.16.54.32.81.47.36.17.73.32,1.1.47.34.11.69.21,1.04.29.38.06.77.11,1.16.15.53.02,1.04.02,1.57,0Z"/>
  <path d="m1072.44,233.04c-.69-.18-1.31-.57-1.78-1.09-4.48.06-9.33-.92-12.46-4.35-1.58-1.48-2.8-4.13-1.22-6.01-1.13-3.03-1.23-6.32-1.89-9.46-.46-3.04,3.58-5.06,5.68-2.8,1.34,1.46,1.82,3.46,2.94,5.07.85.41,1.56,1.09,2.09,1.89.07.12.14.23.21.35,1.53-.54,3.25-.63,4.82-.17,1.7-.7,3.65-1.29,5.45-.63.21-.13.43-.25.66-.36,1.08-2.03,1.88-4.31,3.41-6.05-.18-1.15-.39-2.3-.58-3.45-.21-1.25.76-2.45,1.99-2.62,1.88-.27,2.74,1.53,2.82,3.13.36-1,.46-2.14,1-3.05,1.3-2.36,5.14-1.9,5.77.75.08,5.8-.88,11.72-1.67,17.5-.32,2.3-1.07,5.47-3.9,5.63-2.95,4.04-8.31,6.66-13.32,5.72Z"/>
  <path d="m1087.8,353.28c-8.99-.53-16.84-6.89-21.59-14.23-4.09-6.39-4.03-14.78-3.61-22.11,1.7-9.93,8.93-19.63,15.7-26.86,2.97-3.21,6.48-5.8,9.87-8.53,3.86-3.14,7.85-6.24,12.39-8.33,3.97-1.7,8.21-2.68,12.05-4.72,4.44-2.8,9.26-4.78,14.11-6.73,9.9-4.36,20.94-6.34,31.74-5.35,5.06.33,10.11.77,14.95,2.4,1.43.15,3.43.53,3.18,2.41-.13.99-1.12,1.82-2.14,1.63-7.54-.72-15.11-.9-22.68-.77-5.99.49-12.01,1.36-17.69,3.4-4.53,1.76-9.03,3.64-13.48,5.58-3.59,2.13-7.24,4.15-11.19,5.54-6.4,1.66-11.98,5.15-16.96,9.42-6.4,4.88-12.48,10.28-16.85,17.12-3.27,4.96-6.7,10.25-7.06,16.34.21,5.63-.22,11.83,3.15,16.65,3.96,5.95,10.74,11.18,18.2,10.63,6.49-.73,13.15-.91,19.36-3.12,7.09-2.59,13.46-6.96,19.22-11.77,5.97-5.59,11.58-11.85,16.59-18.18,2.63-4.16,4.74-8.74,8.24-12.27,4.27-4.56,10.05-7.25,15.71-9.65,2.71-.88,5.24,2.44,3.72,4.83-.8,1.38-2.38,1.58-3.65,2.31-3.3,1.55-6.69,3.09-9.46,5.54-3.55,3.03-5.73,7.23-8.04,11.19-2.65,4.37-6.33,7.96-9.67,11.79-2.92,3.3-6.11,6.77-9.41,9.59-6.21,5.23-13.18,9.85-20.82,12.68-7.63,2.7-15.88,3.14-23.9,3.55Z"/>
  <path d="m1112.22,291.76c-9.14.26-10-10.36-7.77-17.03.86-3.22,5.87-1.84,4.97,1.37-.67,3.12-2.12,8.91,1.72,10.13,5.1.59,9.92-2.54,14.1-5.03,2.39-4.54-2.13-16.02,4.89-16.33,5.41,1.39,1.37,10.17,1.97,14.11-.35,9.18-12.45,11.87-19.87,12.78Z"/>
  <path d="m1128.26,329.86c-5.84-5.68-13.23-18.96.26-19.64,3.41-3.23,5.37-8.08,9.73-10.52,5.29-2.73,12.51-3.09,18-.88,3.29,1.89.31,6.99-2.96,5.06-17.82-3.28-13.71,11.92-26.02,13.03-.02.05-.03.11-.05.16,1.64,3.24,3.68,6.17,6.15,8.82,2.59,3.29-2.58,7.3-5.12,3.96Z"/>
  <path d="m1101.79,345.63c.32-2.07-.32-4.14.14-6.2,1.19-4.05,5.55-5.86,9.16-7.25,2.61-.8,4.87-1.03,4.69-4.37.25-2.81-.7-5.7-.1-8.47.74-5,3.37-9.34,5.38-13.84-3.53,2.11-5.98,5.43-8.66,8.45-3.5,4.14-8.5.24-12.32,2.85-1.57,1.28-2.64,3.08-4.33,4.26-5.4,4.45-11.97,2.17-18.12,1.43-2.5.26-4.68,1.72-6.92,2.75-1.25.61-2.64,1.26-4.05.86.01,0,.02,0,.03-.01-2.42-.78-1.71-3.62.46-4.28,3.36-2.31,6.84-5.01,11.11-5.05,3.58.17,7.17,1.52,10.78,1.08,3.13-.55,4.86-3.33,7.01-5.36,2.8-2.37,6.48-2.87,10.01-2.39.63.01,1.37.31,1.94-.06,1.1-1.2,2.11-2.47,3.24-3.64,1.82-2.5,4.36-4.35,6.94-6.01,5.26-3.59,10.35.62,8.56,6.57-.94,3.18-3.01,5.92-4.14,9.05-.5,1.8-1.2,3.62-1.31,5.49.27,4.42,1.3,9.91-2.21,13.33-3.05,2.79-7.66,2.65-10.8,5.3-.45.36-.84.78-.7,1.4.15,1.49.24,3.01,0,4.5-.5,3.53-5.81,3.19-5.81-.39Z"/>
  <path d="m1078.12,336.95c-3.15-2.31,1.16-6.02,3.86-6.05,1.57-.17,3.13.24,4.71.15,2.51-.38,5.16-.77,7.45-1.9,1.57-1.24,2.2-3.28,3.21-4.95,1.59-2.95,4.59-5.08,7.74-6.12,2.27-.41,6.04-2.81,7.19.39.33,1.21-.4,2.5-1.61,2.83-2.75.77-5.73,1.24-7.86,3.31-1.91,1.68-2.54,4.29-4.06,6.27-1.12,1.6-2.8,2.65-4.66,3.19-2.76.74-5.58,1.57-8.47,1.5-1.28.05-2.7-.52-3.9.07.09-.06.16-.11.24-.16-.39.22-.67.55-.91.92-.63.92-1.99,1.11-2.92.57Z"/>
  <path d="m1066.22,319.93c-1.01-1.01-1.1-2.85,0-3.85.16-.15.33-.3.49-.45,1.38-3.48,5.48-6.62,9.24-6.74,3.12-1.63,7.52-7.08,10.94-3.58.44-.11.89-.15,1.34-.09.72.08,1.34.26,1.9.66,3.55-2.5,6.99-8.18,12.04-6.25.29-.04.59-.06.89-.07.49-.02,1.03-.02,1.55.04.93-.53,1.94-.98,3.02-.93.42.02.83.06,1.22.14,5.93-1.46,13.97-12.89,19.14-4.56,2.43,1.23,3.03,4.28,2.39,6.73.19.17.36.35.52.56,7.63,4.01-5.43,14.21-6.66,5.11-.47-.29-.88-.68-1.17-1.18-.59-1.01-.55-2.13-.22-3.19-.4,0-.8-.09-1.21-.26-.69-.28-1.23-.79-1.58-1.41-1.67.93-3.46,1.57-5.08,2.6-.91,4.13-8.19,11.15-12.44,7.65-.11.04-.23.07-.35.1-.34.1-.7.14-1.05.13-1.49,1.53-3.76,2.69-5.89,1.96-.18.17-.37.33-.56.49-.97,4.25-6.76,9.8-10.39,4.95-2.02,1.49-5.48,2.25-6.77-.53-.45.13-.9.16-1.32.1-1.55,1.26-3.53,2.02-5.54,1.88-1.4.62-3.21,1.27-4.47-.04Z"/>
  <path d="m1110.24,344.91c-3.18,0-3.72-3.86-2.61-6.16,3.12-2.52,6.72-6.98,11.07-6.23.72-.64.69-1.6.88-2.48-3.65-1.73-.65-6.25.26-8.92,3.93-4.51,7.08,2.25,5.98,6,.22.05.42.12.62.21,5.96-.16,3.88,6.13.18,8.13-1.42,2.44-4.21,2.81-6.29,4.44-3.2,1.83-6.4,4.42-10.09,5.01Z"/>
  <path d="m1123.32,311.05c-.53-1.25.19-2.47.9-3.48.48-1.2.97-2.39,1.45-3.58.88-2.16,1.84-4.27,2.79-6.39.64-1.58,3.08-1.38,3.43.29,1.22-1.41,2.09-3.62,4.1-3.99,2.63-.44,4.33,3.01,2.41,4.84-2.96,3.57-6.01,7.27-9.17,10.62-.89.9-1.5,2.11-2.57,2.8-1.19.66-2.78.21-3.34-1.11Z"/>
  <path d="m1131.38,306.17c-1.61-.22-2.95-1.83-2.64-3.49.25-6.34,5.82-10.19,11.15-12.46,3.83-1.35,14.96-5.35,15.9.78,0,1.71-1.42,3.1-3.12,3.12-6.16-.12-12.99,1.69-17.09,6.48-.73,2.29-.82,6.03-4.19,5.57Z"/>
  <path d="m1120.38,327.62c-1.65-3.33-.14-7.97.48-11.54,1.47-2.76,3.73-5.1,5.52-7.68.83-1.1,2.47-1.29,3.55-.46,3.1,3.37-2.99,6.9-4.32,9.94-1.35,3.33.84,13.09-5.23,9.73Z"/>
  <path d="m1124.52,330.2c-5.91-1.67,1.28-18.21,3.88-21.57,1.71-2.94,6.29-.27,4.54,2.65-.87,1.39-1.73,2.78-2.48,4.23-3.01,3.57-.88,14.96-5.93,14.69Z"/>
  <path d="m1131.8,302.42c-.83-1.07-.92-2.77,0-3.83.14-.16.28-.31.43-.47,0-.63.24-1.23.67-1.73.17-.2.37-.39.57-.56-.26-.21-.49-.45-.67-.73-.1.01-.19.02-.29.02-1.39,3.81-6.32,4.41-7.07-.03-2.16-2.67.04-6.81.74-9.74.99-3.17,1.96-6.35,3.19-9.43-.26-1.34.36-2.8,1.15-3.97.1-.15.21-.3.31-.44-1.28-1.51-.47-3.46.31-5.02.44-1.13.8-2.25,1.7-3.14,2.47-2.65,6.29-2.37,9.59-2.9,5.85-.63,10.95-1.83,16.74-2.11,4.05-.13,7.94,1.26,11.85,2.09,4.22,1.09,3.6,7.06-.85,6.99-3.97,1.15-7.61,4.08-9.53,7.77,2.34,1.97,3.46,4.65,5.41,6.93,1.53,2.01,3.12,3.99,4.1,6.34,1.84,2.87-.78,6.48-4.08,5.21-2.26,2.3-4.75,4.37-7.37,6.25-1.11.79-2.57.86-3.68.11-1.05.41-2.15.6-3.24.14-.66-.28-1.24-.82-1.58-1.47-.43.13-.86.26-1.3.35-.98.21-2,.45-2.99.33-2.96.75-5.83,1.88-8.65,3.1-1.64,1.17-4.05,1.82-5.45-.06Z"/>
  <path d="m1070.35,312.27c-2.01.04-3.09-2.52-1.72-3.97.57-.7.89-1.44,1.24-2.26.92-1.4,2.24-2.52,3.46-3.66,3.69-4.29,7.35-8.63,11.52-12.48-1.39-3.67,3.38-5.77,5.64-7.77,1.2-.89,2.41-1.77,3.62-2.64,1.09-.88,2.48-1.71,3.91-1.25,2.3-1,5.68-3.07,7.69-.59,1,1.38.75,3.27,0,4.64,0,.93-.47,1.8-1.13,2.44-.05.34-.14.68-.29,1.01,2.4-1.6,6.09-.71,6,2.59,3.22-.3,6.42-.78,9.59-1.41,2.75-1.62,7.09-6.26,9.46-1.74,1.85.49,2.91,2.95,1.85,4.62-1.33,2-3.8,2.87-5.86,3.92-1.87.86-3.81,1.6-5.37,2.14-1.65.48-3.43,1.53-5.18,1.08-3.73,1.75-7.6,3.22-11.29,5.05-2.01.37-3.8,2.46-5.92,1.45-2.38,1.59-4.82,3.09-7.28,4.57-1.9,1.27-4.65,2.69-6.32.3-.34.19-.68.36-1.05.48-.89.29-1.83.25-2.64-.22.1-.07.2-.14.3-.2-2.41,1.34-5.19,4.43-8.12,2.9-.6.55-1.28,1.01-2.1.99Z"/>
  <path d="m983.12,291.52c-1.12-.15-2.08-.94-2.84-1.73-3.15-3.27-5.64-7.1-7.95-10.98-8.02-12.76-14.32-26.49-22.24-39.3-9.8-14.73-16.56-31.22-25.13-46.52-4.04-7.32-7.97-14.7-11.53-22.26-6.53-12.11-12.9-24.33-17.88-37.17-1.42-3.93-2.46-8.01-4.34-11.76-2.71-5.12-5.15-10.15-8.34-14.91-2.26-4.56-5.03-8.77-7.87-12.98-1.72-2.88-3.35-5.82-5.1-8.68-4.45-7.52-10.93-13.51-16.22-20.41-5.25-8.61-12.43-15.84-17.88-24.27-1.44-2.71-2.16-5.73-2.61-8.76-.53-4.4-1.18-8.89-.73-13.33,1.5-7.67,8.52-15.41,16.22-17.1,19.41-4.88,41.09,3.44,47.65,23.34,1.81,4.5,3.66,8.99,5.52,13.47,3.73,9.03,6.24,18.51,8.64,27.96,3.44,13.47,8.13,26.72,15.29,38.69,6.28,11.01,10.91,22.8,16.28,34.25,2.68,5.69,6.58,10.64,9.79,16.03,8.36,13.86,15.44,28.61,22.49,43.07,4.17,8.88,8.71,17.59,14.01,25.86,5.04,8.76,9.25,17.22,14.69,25.88.73,1.35.46,3.04-.78,4-3.6,2.4-5.81-2.67-7.65-5-4.31-6.32-7.3-13.4-11.25-19.95-12.9-20.23-21.37-42.76-33.33-63.46-4.37-8.42-10.54-15.78-14.54-24.39-3.9-8.11-7.11-16.53-11.22-24.55-2.85-5.64-5.98-11.13-9-16.69-2.87-5.76-5.01-11.86-7.25-17.89-4.96-15.31-7.72-31.32-14.47-46.02-2.35-5.23-3.89-10.87-6.88-15.77-6.41-9.67-18.37-14.29-29.71-13.2-3.53.39-7.28.64-10.4,2.5-3.05,2.18-5.61,5.23-7.01,8.73-.58,1.69-.4,3.5-.33,5.26.33,3.97.55,8.02,1.76,11.84,1.03,3.21,3.44,5.62,5.47,8.22,2.73,3.66,5.74,7.12,8.42,10.83,6.02,10.03,15.19,17.65,21.13,27.72,3.9,7.22,8.89,13.78,12.55,21.13,2.01,3.36,4.26,6.56,5.81,10.17,3.14,5.44,5.55,11.2,7.29,17.24,4.95,13.1,11.59,25.44,18.11,37.79,4.02,8.63,8.35,16.42,12.84,24.71,5.77,11.01,11,22.04,16.91,32.89,4.46,7.89,9.59,15.36,13.67,23.47,4.29,8.07,8.23,16.31,12.84,24.21,2.41,4.34,4.75,8.84,7.98,12.61,4.13.22,2.95,5.68-.86,5.21Z"/>
  <path d="m1007.67,240.48c-2.64-3.23-5.49-6.87-9.68-8.05-.7-.14-1.4-.16-2.11-.13-1.33.04-2.45-1.14-2.45-2.45s1.12-2.41,2.45-2.45c4.04-.28,7.78,1.81,10.68,4.46,1.87,1.68,3.48,3.62,5.03,5.59.84,1.06.61,2.65-.45,3.47-1.07.83-2.63.61-3.47-.45Z"/>
  <path d="m996.24,232.2c-1.87-.2-3.95.12-5.66-.74-2-1.17-.92-4.29,1.37-3.99,2.22.53,6.36-.99,6.59,2.43,0,1.21-1.05,2.35-2.3,2.3Z"/>
  <path d="m951.57,89.09c-.84-.23-1.46-.89-1.7-1.68-2.86-4.25-5.76-8.46-8.77-12.6-2.07-3.37-4.69-6.28-7.43-9.12-4.78-5.82-9.93-11.34-15.15-16.77-4.58-3.98-6.14-10-7.64-15.64-.73-2.8-1.47-5.67-1.46-8.59-.03-6.11,3.22-12.26,8.73-15.08,4.42-2.51,9.87-2.03,14.73-1.42,6.65,1.72,11.61,6.78,16.73,11.07,1.99,1.67,4.11,3.2,6.03,4.96,2.96,2.71,4.99,6.26,6.67,9.86,4.33,8.99,4.79,19.14,8.12,28.45,1.92,5.41,5.06,10.31,8.45,14.89.73.92,1.36,1.96,2.21,2.77,1.34.95,1.65,2.94.84,4.32-1.81,2.74-4.9,1.73-6.52-.66-2.27-2.83-4.36-5.8-6.26-8.88-4.45-6.88-6.73-14.71-8.34-22.61-1.81-8.42-3.82-17.75-10.38-23.83-6.24-4.46-11.3-10.92-18.6-13.69-3.77-.54-8.24-1.11-11.51,1.27-7.25,5.11-3.27,14.78-1.17,21.62,1.02,4.1,4.39,6.67,7.1,9.65,5.81,6.23,11.37,12.66,16.86,19.16,3.28,4.67,5.89,8.89,8.68,13.69.78,1.3,1.47,2.64,2.11,4.02.46,1,1,1.98.7,3.12-.34,1.3-1.77,2.08-3.04,1.72Z"/>
  <path d="m1046.06,162.49c-7.64-1.01-14.78-4.69-19.82-10.56-4.21-4.62-5.89-10.84-7.09-16.84-.86-3.87-.27-7.81,1.15-11.46.42-1.27,1.68-2.08,3.01-1.71,3.76,1.38.28,5.45.36,8.12-.02,5.1,1.54,10.22,3.62,14.85,3.67,6.62,10.57,11.23,17.99,12.51,1.71.16,3.81.9,3.51,3.01-.17,1.28-1.45,2.31-2.74,2.08Z"/>
  <path d="m1032.33,177.44c-6.76-5.56-13.97-11.27-17.35-19.61-.61-2.06-3.35-5.21-.53-6.67,1.06-.45,2.33.07,2.78,1.13.85,1.98,1.65,3.96,2.61,5.89,3.37,6.65,9.49,11.21,15.07,15.91,2.14,1.76-.36,5.01-2.59,3.35Z"/>
  <path d="m1069.55,248.34c-9.49-3.15-15.78-6.11-20.47-15.43-1.52-2.56-3.01-5.2-3.8-8.09-.67-3.61-.4-7.34-.64-11,.04-2.29,3.43-2.31,3.5,0,.29,3.6-.17,7.39.78,10.89,1.33,3.65,3.5,6.93,5.51,10.23,1.34,1.9,2.84,3.72,4.81,5,3.45,2.26,7.41,3.61,11.28,4.95,2.24.69,1.32,4.06-.95,3.45Z"/>
  <path d="m1065.1,259.96c-4.65-1.07-9.41-2.38-13.18-5.45-4.46-3.86-8.28-8.93-10.16-14.56-.97-2.71-2.09-5.38-3.14-8.06-.38-.97.04-2.09,1.02-2.5.94-.4,2.12.05,2.5,1.02,1.45,3.52,2.73,7.09,4.1,10.64,2.77,4.8,6.09,9.73,11.17,12.3,2.91,1.39,5.7,2,8.76,2.72,2.55.74,1.5,4.53-1.07,3.9Z"/>
  <path d="m1146.56,223.55c-10.31-.27-20.81-1.95-29.91-7.06-4.05-2.1-7.68-4.88-11.3-7.62-4.37-3.31-8.72-6.88-11.78-11.48-4.98-7.81-7.5-16.77-9.71-25.65-2.23-8.46-2.2-17.28-2.2-25.97.19-4.56.37-9.21,1.85-13.57.88-1.91,1.06-6.05,4.05-5.11,2.53,1.3.23,4.23-.2,6.15-1.81,5.6-1.64,11.61-1.6,17.43-.08,8.77.97,16.97,3.4,25.3,2.01,7.92,4.47,16.14,9.82,22.48,5.74,5.96,12.69,11.15,19.97,15.08,6.79,3.51,14.46,4.83,22,5.28,1.86.12,3.75.12,5.61.12,1.25,0,2.3,1.05,2.3,2.3,0,1.22-1.05,2.35-2.3,2.3Z"/>
  <path d="m1148.41,230.23c-20.89.61-41.42-8.84-54.95-24.7-6.77-8.3-11.2-18.42-14.96-28.35-1.73-4.95-3.08-10-4.38-15.09-.24-.93.29-1.91,1.23-2.17.91-.25,1.93.3,2.17,1.23,1.2,4.92,2.57,9.79,4.22,14.58,3.48,9.13,7.5,18.26,13.42,26.1,10.12,12.35,24.76,21.38,40.68,23.59,4.14.75,8.37.63,12.55.47,2.81,0,2.87,4.31,0,4.34Z"/>
  <path d="m1066.91,96.78c-3.31-2.89-6.64-6.8-5.34-11.5.27-1.6.18-4.33,2.5-4.09,2.13.36,1.59,2.57,1.32,4.11-1.29,3.73,1.65,6.51,4.18,8.81,1.73,1.74-.89,4.37-2.66,2.66Z"/>
  <path d="m1059.94,98.94c-2.15-3.33-4.47-6.83-4.71-10.9-.13-1.86.25-3.64.65-5.44.23-1.07,1.45-1.68,2.46-1.4,1.09.3,1.63,1.4,1.4,2.46-1.71,4.85,1.01,9.36,3.66,13.26,1.28,2.26-2.03,4.25-3.45,2.02Z"/>
  <path d="m992.48,74.16c0-.4.34-.74.74-.74s.74.34.74.74-.34.74-.74.74-.74-.34-.74-.74Z"/>
  <path d="m995.46,88.11c-4.15-6.6-5.75-14.2-3.08-21.66.31-1.43,1.96-2.25,3.31-1.88,4.63,2.3-.84,8.46.84,12.38,0,4.03,6.35,8.79,2.61,12.13-1.23.72-2.99.33-3.68-.96Z"/>
  <path d="m1009.52,89.13c-3.2-1.35-1.04-4.37-1.11-6.76.2-3.82-4.89-11.21,1.24-12.24,1.89,0,3.21,1.7,3.08,3.53,1.31,4.4,4.59,16.34-3.22,15.47Z"/>
  <path d="m1015.24,89.03c-3.84-5.01,6.72-7.46,5.1-12.57-2.96-3.47,2.49-7.84,5-3.93,2.83,4.56.8,10.29-3.02,13.56-1.8,1.95-4.3,5.54-7.09,2.93Z"/>
  <path d="m970.44,87.51c-3.3-3.79-9.09-5.33-11.39-9.8-1.55-5.19,7.2-7.67,6.26-1.43,2.84,2.51,11.85,6.11,9.25,10.7-.95,1.23-2.9,1.56-4.11.53Z"/>
  <path d="m979.18,92.04c-2.52-.22-1.85-3.22-1.38-4.9.62-2.55,1.29-5.09,1.95-7.63.93-3.55,1.93-7.09,2.97-10.62.39-1.34,1.79-2.16,3.15-1.79,1.48.41,2.25,2.06,1.68,3.47-2.23,5.42-3.81,11.08-5.69,16.63,1.43-.78,2.86-1.58,4.28-2.38.79-.44,1.81-.2,2.27.59.45.77.2,1.83-.59,2.27-2,1.11-3.99,2.23-5.99,3.32-.85.41-1.68,1.05-2.66,1.04Z"/>
  <path d="m980.97,105.74c-4.52.33-14.5-5.45-9.26-10.19,3.85-2.12,5.02,3.95,8.67,3.87,2.64.08,6.85-.58,6.94,3.19-.05,3.44-3.83,3.28-6.35,3.13Z"/>
  <path d="m973.73,121.25c-4.49-.72-15.08-4.49-11.44-10.38,3.35-3.06,5.83,2.08,8.79,3.11,1.43.43,2.91.71,4.37,1.03,4.06,1.03,2.31,7.42-1.72,6.25Z"/>
  <path d="m957.26,104.36c.46-3.33-2.41-10.02,2.48-10.7,4.71.69,2.31,7.37,3.12,10.7.05,3.63-5.62,3.64-5.61,0Z"/>
  <path d="m981.55,109.72c-3.21-4.01,6.33-7.48,4.84-14.68-.04-3.6,5.62-3.61,5.57,0,.76,4.44-4.85,18.33-10.42,14.68Z"/>
  <path d="m939.29,102.54c-3.11-4.59-6.24-9.13-9.87-13.32-1.07-1.23-.7-3.25.54-4.2,4.98-3.18,10.99,10.69,14.07,13.86,2.41,3.04-2.45,6.77-4.74,3.66Z"/>
  <path d="m947.26,98.13c-2.06-3.72-11.56-11.51-5.98-15.15,2.02-.87,3.84.66,4.41,2.56,1.72,3.23,4.14,6.01,6.34,8.92,2.4,3.06-2.4,6.79-4.77,3.68Z"/>
  <path d="m947.25,114.53c-3.1-.58-6.22-1.44-9.39-1.39-1.89.5-4.05-.42-4.33-2.51-.56-6.31,13.7-3.08,16.55-.99,1.69,2-.25,5.41-2.83,4.89Z"/>
  <path d="m955.75,105.59c-.93-3.73-6.99-10.36-1.97-12.93,1.49-.41,2.99.49,3.43,1.95.34,3.92,6.64,9.49,2.19,12.46-1.38.6-3.02-.09-3.65-1.48Z"/>
  <path d="m971.57,94.81c-2.07-3.68-12.24-11.67-8.08-15.55,4.39-3.38,9.43,9.27,12.9,11.82,2.44,3.08-2.41,6.86-4.82,3.72Z"/>
  <path d="m851.22,205.12c-.66-.18-.99-.85-.85-1.49.52-2.44,1.01-4.9,1.82-7.27,3.24-8.48,8.12-16.15,12.66-23.96,1.76-3.35,3.86-6.51,5.66-9.84,1.92-4.43,4.55-8.46,7.21-12.47.68-1.12,2.45-.14,1.77,1.04-3.16,4.5-5.7,9.3-8.17,14.19-5.12,8.23-10.14,16.58-14.1,25.43-.92,1.98-1.88,3.93-2.62,5.98-.82,2.47-1.35,5.01-1.89,7.55-.14.64-.88,1.01-1.49.85Z"/>
  <path d="m845.37,242.26c.15-2.94.35-5.89.54-8.83.04-2.48,3.77-2.47,3.78,0-.19,2.94-.39,5.89-.56,8.83-.06,1.02-.81,1.88-1.88,1.88-.99,0-1.93-.86-1.88-1.88Z"/>
  <path d="m847.47,273.9c0-.51.43-.94.94-.94s.94.43.94.94-.43.94-.94.94-.94-.43-.94-.94Z"/>
  <path d="m849.91,294.74c-.54-2.58-1.09-5.16-1.63-7.74-.4-1.57,1.96-2.22,2.39-.66.55,2.58,1.09,5.16,1.63,7.74.14.66-.18,1.34-.86,1.52-.63.17-1.39-.2-1.52-.86Z"/>
  <path d="m858.04,318.7c-1.61-2.95-3.14-5.94-4.62-8.95-.91-2.23,2.36-3.61,3.38-1.43,1.41,2.88,2.89,5.71,4.41,8.53.48.88.22,1.99-.66,2.51-.84.49-2.03.23-2.51-.66Z"/>
  <path d="m959.42,416.75c-11.82-.8-19.86-7.75-29.83-13.01-14.41-5.49-29.19-10.24-42.76-17.72-2.17-1.28-.3-4.63,1.97-3.37,7.47,3.94,15.17,7.42,23.1,10.33,3.96,1.29,7.49,2.68,11.39,3.98,2.89.9,5.82,1.72,8.53,3.1,7.17,3.3,13.05,8.87,20.54,11.5,2.47.77,5.01,1.24,7.57,1.57.99.13,1.7,1.08,1.57,2.06-.13,1-1.09,1.69-2.06,1.57Z"/>
  <path d="m1016.53,415.88c-7.33-1.99-15.14.35-22.43-2.03-1.98-.55-1.17-3.56.84-3.05,6.13,1.92,12.36.38,18.57,1.66,1.34.34,5.23.81,4.57,2.79-.27.63-.96.84-1.55.63Z"/>
  <path d="m1036.57,414.83c0-.79.66-1.45,1.45-1.45s1.45.66,1.45,1.45-.66,1.45-1.45,1.45-1.45-.66-1.45-1.45Z"/>
  <path d="m1056.63,411.39c-.23-.56.04-1.21.59-1.45,2.14-.92,4.27-1.88,6.42-2.75,4.08-1.62,8.57-2.72,12.34-4.78,4.08-2.06,8.21-4.06,12.04-6.56,2.68-1.88,5.17-4.02,7.79-5.97,4.26-3.28,9-6.47,13.09-9.84,2.24-2.03,4.27-4.3,6.62-6.22,1.45-.84,3.3-3.57,4.96-1.86.48.63.4,1.65-.27,2.12-4.83,2.95-7.95,7.75-12.22,11.36-3.82,3.43-7.97,6.48-12.18,9.42-4.02,3.1-8.37,5.72-13.07,7.65-5.45,2.28-10.85,4.65-16.59,6.1-2.73,1.01-5.4,2.23-8.07,3.38-.54.24-1.22-.03-1.45-.59Z"/>
  <path d="m1005.38,486.21c-.5-1.19.07-2.6,1.26-3.11.71-.23,1.23-.78,1.64-1.39,2.29-3.12,2.22-7.08,2.67-10.76.14-1.29,1.42-2.21,2.68-2.04,3.59.75,1.36,5.53,1.42,8.03-.57,4.16-2.53,8.81-6.56,10.54-1.17.5-2.61-.07-3.11-1.27Z"/>
  <path d="m1121.58,432.87c-2.21-.54-4.42-1.23-6.71-1.3-.66.2-1.41.05-1.91-.47-.65-.67-.78-1.78-.16-2.53,1.92-2.03,7.32.18,9.8.63,2.39.73,1.4,4.27-1.01,3.67Z"/>
  <path d="m664.27,23.58c-.34-.8.03-1.87.88-2.18,6.43-2.32,12.98-4.26,19.48-6.33,8.35-2.72,16.75-5.32,25.38-6.98,15.35-3.18,30.64-5.86,46.23-7.33,16.02-.95,32.09.08,48.14-.16,3.66-.01,7.32-.02,10.98.04.95,0,2.37-.12,2.41,1.18,0,.62-.53,1.16-1.16,1.16-3.54-.05-7.09-.1-10.63-.06-16.2.25-32.44-.51-48.62.41-12.3,1.23-24.54,3.25-36.66,5.68-13.11,2.43-25.94,5.91-38.54,10.25-4.57,1.46-9.43,3.01-13.91,4.56-1.32.44-3.19,1.51-4-.24Z"/>
  <path d="m726.49,131.64c-.25-.92.3-1.84,1.2-2.11,5.17-1.56,10.04-2.5,15.28-3.2,9.56-1.26,18.51-4.02,27.82-6.22,6.94-1.69,13.84-3.58,20.91-4.67,10.15-1.57,20.49-1.28,30.7-2.06,7.08-.49,14.14-1.25,21.19-2.13,7.96-.84,16.02-2.76,24.04-1.51,1.61.46,4.72-.1,4.63,2.29-.6,2.47-3.65.78-5.36.8-9.55-1.23-19.08,1.51-28.58,2.25-14.67,2.02-29.45,1.64-44.12,3.3-19.32,3.1-37.84,10.03-57.31,12.41-2.79.58-5.55,1.27-8.29,2.05-.88.26-1.87-.3-2.11-1.2Z"/>
  <path d="m716.71,268.33c-.41-.7-.2-1.77.57-2.16,3-1.51,6.14-2.73,9.31-3.82,4.61-1.57,9.25-3.08,13.96-4.37,10.99-2.97,22.05-6.44,33.56-5.94,1.8.02,1.83,2.77,0,2.79-8.41-.38-16.6,1.44-24.65,3.69-6.51,1.71-13.03,3.6-19.38,5.77-3.62,1.24-7.2,2.61-10.64,4.31-.86.59-2.12.79-2.73-.27Z"/>
  <path d="m683.72,435.97c-.32-1.12.38-2.32,1.5-2.63,2.48-.83,4.97-1.64,7.5-2.32,6.99-1.88,14.28-1.51,21.39-2.51,14.19-2.21,28.08-6.02,42.07-9.18,11.8-2.7,23.71-5.07,35.18-9,6.25-1.91,12.65-3.36,18.62-6.07,2.27-.98,4.54-1.98,6.81-2.98.75-.33,1.66.05,1.98.8.32.76-.05,1.64-.8,1.98-7.45,3.52-15.18,6.39-23.16,8.48-15.03,5.22-30.62,8.4-46.03,12.27-11.55,2.72-23,6.04-34.75,7.81-6,.84-12.11.79-18.06,2-3.26.75-6.44,1.81-9.62,2.85-1.09.37-2.34-.41-2.63-1.49Z"/>
  <path d="m824.32,568.83c-2.88-.1-2.92-4.36,0-4.42,8.09.38,16.22-.02,24.16-1.64,13.87-2.33,27.15-5.92,40.36-10.59,5.62-1.66,10.99-3.94,15.99-7,2.43-1.35,4.57,2.21,2.16,3.69-8.21,5.18-17.66,7.58-26.75,10.71-8.81,2.98-17.49,4.99-26.49,6.63-9.65,2.12-19.54,3.28-29.43,2.62Z"/>
  <path d="m1077.02,497.46c-.78-.44-1.06-1.51-.6-2.27.48-.93,2.01-.91,2.77-1.12,1.16-.24,2.33-.47,3.48-.72,12.77-2.92,25.56-5.78,38.22-9.15,10.79-3.09,21.43-6.85,32.56-8.6,1.66-.23,2.09,2.34.36,2.61-14.64,2.32-28.31,8.32-42.7,11.65-6.34,1.55-12.69,3.03-19,4.68-4.57,1.17-9.19,2.14-13.81,3.09-.44.09-.88.07-1.28-.17Z"/>
  <path d="m504.32,252.59c-13.37-2.3-7.97-15.01-11.55-24.36-1.82-12.48-16.76-29.05-3.73-39.48,2.85-2.18,6.28,2.23,3.4,4.4-1.8.88-2.52,2.61-2.82,4.5-.87,7.74,4.55,14.44,6.86,21.53,3.14,7.98,4.7,16.37,5.04,24.9,14.64,9.54,22.85-11.51,26.72-22.38,4.22-9.05,4.44-32.51-10.68-27.11-9.08-.1-2.92-11.28,8.27-7.08,17.4,7.89,12.06,30.87,5.37,44.61-3.99,11.28-13.51,23.41-26.88,20.47Z"/>
  <path d="m517.96,220.15c-3.03-.86-2.39-4.05-1.6-6.34,3.11-12.36-9.5-23.23-21.41-20.19-2.37.24-5.07,2.98-7.05.52-.93-1.2-.66-2.88.49-3.82,13.72-8.15,32.79,1.55,34.56,17.39.08,3.92.84,13.06-5,12.44Z"/>
  <path d="m547.96,201.75c0-.4.34-.74.74-.74s.74.34.74.74-.34.74-.74.74-.74-.34-.74-.74Z"/>
  <path d="m561.25,200.6c-.43-16.98-29.7-18.85-25.62-9.09,1.25,2.09,1.17,5.56-1.91,5.64-1.45-.03-2.92-1.23-2.92-2.72-4.87-7.28,1.88-14.86,9.68-14.69,12.96-2.15,26.51,7.36,27.04,20.86.03,4.06-6.33,4.06-6.27,0Z"/>
  <path d="m560.25,245.09c-10.23-4.1-5.55-17.82-8.49-26.17-2.72-7.25-8.66-12.56-14-17.93-1.99-1.88-6.13-3.49-4.25-6.87,4.76-5.53,12.01,6.2,15.56,9.16,15.07,14.76,6.63,22.26,12.4,35.63,26.08-6.99,19.8-75.39-4.85-51.61-1.79,1.5-4.75-.21-4.33-2.51,2-5,7.68-8.97,13.15-8.59,30.37,2.64,22.55,67.52-5.2,68.89Z"/>
  <path d="m525.57,235.99c-1.32-1.02-1.5-2.88-.54-4.2,2.01-2.83,4.11-5.73,7.4-7.13,5.78-2.77,12.62-5.05,19.03-3.45.33-1.28,2.24-1.5,2.86-.33.62,1.34.61,2.93,1.08,4.32,0,0,0,0,0,0,.1.82-.44,1.72-1.34,1.78-1.5-.04-2.63-1.29-4.25-1.19-4.71-.11-9.33,1.54-13.57,3.48-1.24.72-2.63,1.27-3.59,2.36-1.92,2.04-3.63,6.75-7.08,4.36Z"/>
  <path d="m544.67,209.28c-.27-.6-.53-1.19-.81-1.79-1.93,1.03-6.84,2.82-7.17-.63.19-2.76,3-1.7,4.83-2.2.47-.11.96-.19,1.39-.4.38-.39.94-.59,1.48-.44.45.12.84.5.96.96.32,1.25.95,2.41,1.45,3.59.57,1.39-1.52,2.29-2.13.9Z"/>
  <path d="m459.64,259.46c-2.26-2.59-5.73-3.82-7.48-6.89-1.59-2.69-.92-5.93.57-8.5-1.5-3.22-3.63-6.25-4.2-9.82-.24-1.29.26-2.52.44-3.78.03-1.11-.56-2.66-.78-3.44-.68-2-1.45-3.96-2.18-5.93-.98-2.31-1.77-5.1-.11-7.3,1.12-1.96,3.19-2.99,4.64-4.61.5-1.35.77-2.79,1.76-3.91,4.28-4.35,8.21-1.46,12.74.38,2.34.68,4.8.75,7.19,1.24,3.16.51,6.23,1.51,9.44,1.73,2.55.52,7.5-1.86,8.2,1.71.16,1.22-.73,2.52-2,2.64-7.49,1.47-14.87-.41-22.32-1.21-2.56-.41-4.89-1.5-7.23-2.56-.47-.29-.98-.27-1.46,0-.49,1.39-.82,2.88-1.84,4.01-1.17,1.48-2.97,2.25-4.06,3.8,1.2,4.11,3.32,7.99,3.93,12.25.42,1.78-.75,3.52-.19,5.23,1.06,3.65,4.66,6.84,3.92,10.83-.27,1.25-1.17,2.26-1.4,3.51.49,2.73,4.33,3.33,5.78,5.55.05,0,.09-.01.14-.02,0,0,0,0,0,0,1.56-2.14,2.69-4.62,4.73-6.38,4.16-3.54,9.89-4.29,15.06-5.43,2.35-.49,4.74-.64,7.12-.91,2.4-.03,5.18-1.24,7.36.1,2.09,1.49,1.15,5.17-1.44,5.39-1.21.1-2.43.19-3.64.33-6.63.77-13.59,1.37-19.64,4.39-2.85,1.92-3.53,5.81-6.41,7.67-2,1.08-4.75,1.36-6.65-.05Z"/>
  <path d="m472.65,226.86c-3.09-.17-5.87-1.66-8.69-2.8-.8-.34-1.19-1.29-.85-2.09s1.29-1.19,2.1-.85c3.16,1.36,6.37,2.97,9.91,2.53,2.6-.26,5.17-.78,7.73-1.29.86-.17,1.7.55,1.82,1.38.12.91-.52,1.65-1.38,1.82-3.5.65-7.05,1.53-10.64,1.31Z"/>
  <path d="m467.46,240.09c-3.5-4.65,13.06-8.21,16-9.52,1.97-.32,6.63-2.87,7.46-.08.25.92-.3,2.05-1.28,2.26-4.52.98-8.88,2.57-13.02,3.98-1.96.75-4.09,1.31-5.78,2.6-.82,1.03-2.25,1.92-3.38.78Z"/>
  <path d="m543.7,217.37c-1.98-.04-3.97-.07-5.95-.11-3.28-.09-3.28-4.93,0-5,2.58.42,8.27-1.21,8.45,2.61,0,1.34-1.14,2.52-2.49,2.49Z"/>
  <path d="m487.52,310.98c-29.71,1.49-41.03-35.87-4.41-31.76,20.89-.09,19.13-7.31,34.83-14.54,20.71-1.06,20.8,22.01,8.05,33.01-10.36,9.15-24.9,12.83-38.47,13.29Zm3.14-6.35c10.71-1.48,22.12-4.3,30.49-11.48,7.61-5.89,11.36-23.33-2.67-21.46-9.4,6.05-18.01,14.81-30.19,13.81-1.05,1.07-2.71.96-3.92.13-30.82-5.74-17.93,22.33,6.29,19Z"/>
  <path d="m475.39,305.93c-10.45-8.78,23.38-16.37,29.13-14.9,4.88-.45,15.5,5.8,9.3,10.59-3.88,1.47-4.45-4.31-8.27-4.17-8.68-.55-20.09,1.15-26.69,6.52-.41,1.45-1.99,2.4-3.46,1.97Z"/>
  <path d="m465.97,351.13c-23.32.38-37.69-26.45-10.62-35.41,6.36-1.69,12.79.04,19.18.14,7.63-.98,15.31-1.63,22.89-1.91,20.89-2.22,27.08.04,38.59-19.18,8.7-10,26.45-12.63,24.54,5.48-.11,18.31-4.96,27.55-21.62,35.52-11.52,7.39-24.64,11.43-38.28,12.13-11.57.89-23.02,4.29-34.68,3.24Zm2.34-6.02c10.84.14,21.52-2.94,32.29-3.68,10.09-.83,20.08-2.76,28.95-7.86,7.7-5.01,18.86-8.17,21.99-17.61,1.81-5.23,2.23-10.8,2.38-16.08.4-6.68-1.29-7.94-7.27-5.02-6.81,2.87-8.69,10.04-13.02,15.2-15.93,14.11-39.52,8.66-58.96,12.42.03,3.74-5.16,3.31-5.43-.17-2.95.08-7.61,2.49-8.78-1.65-25.27,4.53-11.95,26.42,7.85,24.44Z"/>
  <path d="m559.17,315.21c-2.77-.27-3.86-4.21-1.55-5.82,3.59-2.62,7.42-4.99,11.71-6.27,3.73-1.15,7.46-2.29,11.35-2.74,3.34-.63,6.78-.47,10.11-1.17,2.3-.6,4.84-1.15,6.47-3.03,2.95-3.77,4.14-8.77,4.63-13.46.32-3.14.2-7.04-.51-9.93-1.02-4.29-1.43-9.45-5.05-12.45-3.8-2.26-9.11,6.9-11.59,9.1-2.59,2.4-4.43,5.5-7.19,7.73-1.94,1.68-4.35,2.59-6.63,3.69-2.2,1.15-4.39,2.36-6.78,3.09-10.69,3.16-21.62,6.16-32.85,6.24-2.35-.05-2.42-3.58,0-3.64,7.91-.54,15.65-2.47,23.16-4.93,3.45-1.05,6.96-2.04,10.26-3.51,2.72-1.73,5.74-2.99,8.4-4.78,2.88-2.59,4.74-6.07,7.47-8.79,2.53-3.24,4.87-6.71,8.39-8.98,4.67-3.78,10.94-2.49,14.15,2.47,1.95,2.62,3.04,5.86,3.72,9.02.86,4.07,1.95,8.17,1.75,12.36-.27,9.04-2.52,21.32-12.07,24.88-7.25,2.8-15.3,1.59-22.59,4.28-3.43.88-6.77,2.18-9.72,4.17-1.58.94-3.04,2.71-5.04,2.46Z"/>
  <path d="m516.5,318.92c-2.81-.49-2.19-3.41-1.69-5.42.94-4.5.82-9.54,3.52-13.46.4-.42.89-.7,1.49-.7.62-.05,1,.44,1.54.6,1.37.36,1.11,2.46-.29,2.48-.71,4.19-.66,8.48-1.46,12.65-.14,1.9-.75,4.12-3.1,3.84Z"/>
  <path d="m519.79,266.63c-2.13-1.37-.57-3.2-.2-5.01.63-5.43,1.3-11.04,3.03-16.23.28-2.44,3.63-3.35,5.08-1.36,1.51,2.26-.49,4.97-.96,7.29-1.58,3.09-1.71,17.91-6.95,15.3Z"/>
  <path d="m526.32,250.99c-1.3-.18-2.23-1.41-2.06-2.71.35-2.61.69-5.21,1.05-7.81.63-2.62.46-9.36,4.5-8.47,3.39,1.22,1.06,4.42.65,6.8-.59,3.36-.94,6.76-1.42,10.14-.17,1.3-1.44,2.24-2.71,2.06Z"/>
  <path d="m529.67,182.68c-.47-.8-.18-1.83.61-2.31.06-.04.13-.08.19-.12.96-11.84,4.58-23.24,7.06-34.8,1.56-9.81,1.97-19.79,2.09-29.7.28-8.1-.7-16.09-1.76-24.09-1.29-13.96-4.06-27.96-10.79-40.34-2.29-4.6-4.59-9.99-9.79-11.87-6.61-1.38-14.04-1.19-20.33,1.26-4.47,1.56-9,2.98-13.51,4.41-3.18,1.33-6.7,2.18-9.38,4.45-7.62,7.79-9.69,17.06-6.28,27.37,3.7,11.1,8.49,22.43,13.14,33.19,5.86,11.61,12.26,23.32,13.67,36.46.51,3.91.87,7.86.46,11.79-.14,1.62-1.7,2.86-3.28,2.86-1.71,0-3.42-1.5-3.3-3.3.56-9.96-1.74-19.9-5.7-28.88-2.79-6.66-6.56-12.85-9.43-19.47-2.07-5-4-10.05-6.12-15.03-5.53-13.74-12.2-28.49-3.41-42.45,5.35-9.96,13.05-11.87,23.09-15.05,6.86-2.01,12.87-5.12,20.05-4.98,16.33-.93,20.99,4.86,27.3,18.85,6.58,12.66,8.97,27.08,10.33,41.14,1.93,12.08,2.06,24.36,1.18,36.55-.67,7.56-.99,15.2-3.15,22.52-2.24,8.39-4.8,16.69-7.08,25.06-.74,2.53-1,5.71-3.56,7.1-.78.48-1.85.18-2.31-.61Z"/>
  <path d="m485.31,182.26s0,0,0,0c-4.86-15.09-13.18-28.73-19.66-43.11-5.66-12.99-11.08-26.46-20.85-37-4.09-4.39-7.93-9-11.56-13.77-3.39-4.92-6.57-10.22-11.12-14.18-2.71-1.65-6.43-2.92-8.66.05-1.83,4.13-7.86,1.72-6.25-2.49.88-2.17,2.92-3.48,4.69-4.89,3.34-2.08,7.76-1.15,11.18.3,3.46,1.29,5.95,4.09,8.14,6.94,3.95,4.4,6.59,9.71,10.46,14.16,3.02,3.78,6.22,7.39,9.44,11,5.01,5.87,9.16,12.4,12.44,19.39,2.5,4.83,4.69,9.77,6.66,14.84,3.11,7.15,6.59,14.14,9.77,21.26,3.36,7,6.65,14.1,8.94,21.54.41,2.01,1.48,4.2.8,6.23-.83,1.96-3.88,1.87-4.41-.27Z"/>
  <path d="m364.01,131.57c-5.97-1.79-8.31-7.2-5.64-12.81,1.68-4.48,3.95-8.69,6.5-12.73,2.46-3.96,5.97-7.49,10.68-8.45,4-1.14,7.72-2.95,11.47-4.73,12.45-5.71,10.53-12.02,17.48-21.12,3.19-3.95,11.73-8.46,14.62-2.05.98,2.47-2.61,3.94-3.71,1.54-9.27,1.23-9.74,13.34-15.04,19.21-3.58,4.9-9.23,7.55-14.58,10.07-3.28,1.68-6.83,2.68-10.31,3.83-1.38.45-2.37,1.59-3.36,2.6-2.95,3.78-5.18,7.94-6.94,12.1-.56,1.55-1.53,3.08-1.53,4.76,1.65,2.8,5.5,1.69,8,.84,8.79-4.03,18.13-7.07,26.15-12.6,10.66-7.18,21.78-18.92,22.08-32.44-.06-2.8-2.85-6.52.79-8.16,5.17-1.8,5.61,6.73,5.58,10.08-.85,10.06-6.64,19.14-13.47,26.3-8.21,8.48-18.57,14.6-29.59,18.68-6.01,2.58-12.39,6.77-19.18,5.07Z"/>
  <path d="m440.37,280.34c-4.55-27.44-13.98-53.49-24.71-79.05-5.9-13.68-12.78-26.94-22.32-38.37-6.33-6.87-13.95-12.38-20.38-19.17-4.51-4.83-11.6-9.11-11.87-16.36-.41-3.16,2.01-6.36,5.39-5.09,7.45.47,6.98,8.06.15,5.61,8.6,13.74,24.99,21.58,34.62,34.82,15.78,21.3,24.44,46.68,33.87,71.19,4.67,14.97,8.57,30.15,11.37,45.59.55,3.9-5.58,4.86-6.13.84Z"/>
  <path d="m423.6,563.79c-23.2-6.9-51.22-17.36-37.44-46.84,6.36-17.92,12.37-36.09,20.03-53.59,4.36-8.3,9.1-16.42,12.04-25.39,6.54-21.26,9.23-43.34,13.42-65.01,3.27-20.81,7.87-41.52,8.01-62.68.36-11.62.57-23.21.44-34.84-.04-3.62,5.8-3.81,5.77,0-.06,9.55.34,19.08-.14,28.62.82,21.57-3.16,42.84-6.87,63.98-3.83,22.1-7.26,44.33-12.79,66.05-3.17,13.09-10.66,24.36-15.93,36.58-4.58,12.9-10.38,25.39-14.22,38.53-4.25,14.01-14.19,29.6,4.5,37.99,49.79,28.48,57.44-1.08,68.51-44.65,10.17-38.79,18.29-78.1,28.05-117,2.45-6.75,1.14-47.08,8.18-46.11,6.56,1.12,1.99,10.1,1.8,14.42-1.99,10.14-1.09,20.53-2.94,30.69-2.96,12.9-6,25.82-9.17,38.68-6.28,25.79-11.66,51.8-18.48,77.45-6.85,26.22-15.61,73.97-52.76,63.1Z"/>
  <path d="m486.13,178.32c.04-11.24,1.7-22.73-.05-34.03.64-4.32-4.96-14.72-.14-16.47,6.15-1.86,5.89,20.54,7.06,24.93,5.67,2.18.52,14.72.48,19.55-.4,2.01-.65,4.07-1.3,6.02-.97,2.63-5.07,2.62-6.05,0Z"/>
  <path d="m491.88,194.63c-2.25-2.61-3.41-6.11-5.23-9.05-2.2-1.31-2.27-5.15.14-6.3,4.91-5.7,6.85,4.19,8.62,7.44,2.15,3.73,2.68,10.63-3.52,7.91Z"/>
  <path d="m503.26,143.6c.14-6.34-.81-12.94-3.81-18.57-.9-1.75-1.84-3.48-2.78-5.22-.46-.85-.22-1.91.63-2.41.81-.47,1.96-.21,2.41.63,2.79,4.98,5.56,10.12,6.38,15.85.57,3.2.8,6.46.71,9.71-.02.96-.79,1.77-1.77,1.77s-1.79-.8-1.77-1.77Z"/>
  <path d="m404.78,127.9c-.2-.72.24-1.61,1-1.77,2.43-.54,4.88-.98,7.26-1.69,2.18-.75,4.01-2.5,5.68-3.91,2.75-2.24,5.4-5.03,6.75-8.3.48-1.21,2.32-1.22,2.79,0,.2.45.13.92-.09,1.35-1.35,2.86-3.14,5.5-5.63,7.48-3.34,3.04-6.82,6.22-11.47,6.86-1.5.35-3.02.66-4.53.98-.75.16-1.55-.21-1.77-1Z"/>
  <path d="m429.17,542.47c-.4-1.43.83-2.39,2.11-2.59,5.43-2.04,10.53-5.43,14.43-9.55,3.33-3.54,5.27-8.05,7.64-12.23,1.19-2.02,4.28-.24,3.12,1.82-3.72,7.33-8.01,14.73-15.29,19.04-2,1.27-10.96,7.5-12.02,3.53Z"/>
  <path d="m424.86,543.3c-2.74-.42-2.2-4.5.57-4.2,2.69.17,5.38-.22,8.06-.37.57-.04,1.12.06,1.58.42,1.47,1.04.81,3.63-1.01,3.78-3.06.18-6.14.63-9.21.37Z"/>
  <path d="m408.32,541.91c-3.52-.94-7-2.06-10.18-3.86-2.12-1.28-.28-4.45,1.91-3.27,2.92,1.59,6.07,2.64,9.28,3.47,2.38.72,1.39,4.26-1.01,3.65Z"/>
  <path d="m500.46,338.17c-1.82-.11-3.64-.4-5.45-.64-.88-.12-1.51-.96-1.39-1.83.12-.88.95-1.5,1.83-1.39,3.06.33,6.25,1.21,9.23.04.84-.28,1.78.32,2,1.13.51,2.8-4.39,2.71-6.23,2.68Z"/>
  <path d="m586.12,288.31c-.57-2.54-1.48-5.14-.97-7.76.29-1.78.6-3.56.93-5.33.18-.93.98-1.61,1.95-1.48.9.12,1.66,1.02,1.48,1.95-.36,2.08-.82,4.15-1.06,6.24-.02,1.86.6,3.66.99,5.47.56,2.16-2.69,3.07-3.32.91Z"/>
  <path d="m541.88,317.3c-.85-.11-1.41-.9-1.32-1.73.08-.71.15-1.43.21-2.15,0,.07,0,.14-.01.21.15-2.48.19-4.96.25-7.45.02-.84.68-1.53,1.54-1.53s1.55.7,1.53,1.53c-.08,3.27-.12,6.55-.46,9.8-.09.83-.93,1.42-1.73,1.31Z"/>
  <path d="m564.45,232.32c-2.26-2.69,2.09-4.59,3.19-6.74,1.04-1.6,1.92-3.29,2.84-4.96.59-1.07,2.04-1.41,3.07-.8,1.07.63,1.4,2,.81,3.07-.99,1.78-1.91,3.63-3.08,5.31-1.57,1.72-4.2,6.45-6.84,4.12Z"/>
  <path d="m507.18,241.37c-.43-1.52.82-2.68,2.23-2.9,2.1-.82,4.12-1.84,6.01-3.06,1.58-.99,3.73-3.41,5.45-1.34.69.89.57,2.32-.38,2.99-3.28,2.37-6.75,4.6-10.62,5.83-1.12.34-2.37-.38-2.68-1.52Z"/>
  <path d="m500.81,213.21c-2.44-3.76-5.23-7.61-5.76-12.18.02-1.61-.75-5.97,1.75-5.75,1.53.23,1.27,1.89,1.13,3.02-.5,5.09,2.79,9.38,5.27,13.51.89,1.56-1.43,2.95-2.39,1.4Z"/>
  <path d="m199.6,635.86c-5.94-.01-9.6-5.27-12.21-9.95-3.64-7.09-3.81-14.59,4.04-18.66,2.18-1.28,4.6-2.15,7-2.9,1.22-.32,2.35-.38,2.64-1.83,1.45-5.32,2.28-10.07,7.52-13.04,1.25-.84,2.61-1.6,4.03-2.09,1.94-.66,4.02-.07,5.94.43,1.71.55,3.63.75,5.21,1.59,7.07-1.55,15.64-1.06,20.32,5.21,5.39,7.12,7.93,18.69,1.09,25.7-5.68,5.56-14.59,8.82-21.75,4.3-3.04,1.9-5.4,4.26-8.25,6.32-4.71,2.68-10.06,5.09-15.58,4.93Zm1.83-3.06c4.35-.55,8.52-2.33,12.27-4.55,2.45-1.75,4.47-4.03,7.12-5.52.82-.34.81-1.34,1.57-1.75.61-.41,1.65-.22,2.1.26,3.73,2.68,8.9,2.61,12.78.37,2.76-1.5,5.62-3.28,7.15-6.13,2.87-5.69.72-12.56-2.68-17.55-2.15-3.48-6.15-5.02-10.07-5.34-2.95-.08-5.87.52-8.77.97-1.23.22-2.38-.94-2.24-2.15-4.71-1.27-6.58-2.45-10.83.78-4.06,2.24-4.64,6.92-5.83,10.94-.67,2.99-3,3.72-5.65,4.36-7.49,2.54-12.71,6.02-9.32,14.64,2.21,5.18,5.94,11.56,12.41,10.65Z"/>
  <path d="m373.35,546.57c-1.13-3.65-3.46-6.83-5.67-9.93-4.36-4.02-9.98-6.3-14.4-10.2-4.11-3.11-5.13-7.91-6.9-12.47-.57-1.7-1.51-3.37-1.59-5.19,0-1.18.38-2.34.77-3.44,2.18-5.21,4.85-11.15,10.47-13.32,4.58-1.79,10.24-4.46,14.84-1.47,2.85-2.26,7.76-3.91,10.66-.93,4.37,5.15,5.22,12.41,4.37,18.92-.28,3.88-1.93,7.37-3.59,10.81-1.32,3.87-3.6,7.32-4.95,11.18-1.21,4.57-1.11,9.43-.78,14.09.77,2.25-1.77,3.98-3.25,1.95Zm-.52-8.79c-.28-5.58,1.63-10.77,4.31-15.57,2.05-5.05,5.06-9.89,5.22-15.48,0,0,0,0,0,.01,0,.01,0,.02,0,.04.45-4.74-.28-9.74-3.04-13.72-.98-1.91-3.24-.86-4.75-.25,1.23.85,3.61,1.74,2.6,3.62-.46.79-1.57,1.12-2.36.62-2.29-1.44-4.54-3.02-6.98-4.21-3.84-.7-7.77,1.36-11.25,2.8-3.01,1.4-4.59,4.51-6.09,7.31-.87,2.2-2.79,4.65-1.82,7.07,1.33,3.48,2.57,7.02,3.98,10.47.87,1.43,2.21,2.52,3.39,3.68,4.18,3.29,9.05,5.7,13.16,8.99,1.6,1.22,2.5,3.1,3.64,4.61Z"/>
  <path d="m347.88,543.05c-7.69-1.66-14.61-5.94-22.62-5.96-12.39-.28-15.97,7.45-28.73.43-7.25-4.59-10.55-14.33-9.34-22.6,1.61-6.99,7.12-9.35,13.18-11.73,2.96-.93,5.25-2.87,7.78-4.44,3.49-1.98,7.63-2.07,11.53-2.32,5.54-.69,10.43-.08,13.53,5.13,1.22,1.95,3,3.7,3.82,5.85,3.21,2.35,5.56,5.6,7.83,8.82,3.03,4.17,6.97,7.73,9.1,12.51,2.91,5.08,1.11,14.84-6.08,14.3Zm.95-4.39c5.97-5.02-2.31-13.14-5.69-17.36-1.89-2.32-3.51-4.85-5.41-7.16-1.45-1.71-3.25-3.03-4.99-4.43-.87-.73-1.13-1.95-.55-2.92-1.82-2.27-3.13-5.65-6.23-6.32-4.11-.4-8.17.32-12.23.84-2.78.41-4.91,2.23-7.17,3.74-3.53,2.24-7.75,3.15-11.32,5.32-5.38,3.38-4.27,10.41-2.55,15.57,1.12,2.78,2.92,5.41,5.22,7.33,1.46.91,3.1,1.47,4.69,2.09,4.76,2.15,9.57-.73,14.23-1.8,2.78-.65,5.98-.91,8.77-.84,3.4.22,6.79.7,10.05,1.68,4.44,1.23,8.61,3.59,13.19,4.25Z"/>
  <path d="m246.01,528.14c-5.11-1-10.47-3.44-13.43-7.89-.58-.81-.94-1.73-1.18-2.69-.82-2.71-1.73-5.68-.26-8.34,1.4-2.89,4.06-5.05,7.07-6.09,1.81-.68,3.87-.87,5.48-1.99,4.29-2.68,4.38-8.81,8.4-11.73,5.92-4.01,13.8-4.76,20.62-3.02,3.8,1.73,6.2,5.53,9.19,8.32,1.67,1.73-.88,4.3-2.61,2.61-2.65-2.41-4.74-5.72-7.9-7.44-5.78-1.17-12.29-.58-17.25,2.82-2.51,2.73-3.26,6.73-5.75,9.51-2.54,3.14-6.58,3.69-10.09,5.1-2,1.05-3.84,2.88-4.11,5.21.48,2.6.96,5.31,2.91,7.23,2.39,2.24,5.45,3.45,8.49,4.4,2.69.51,5.59.03,8.2-.46,5.26-1.2,10.83-2.55,15.26-5.75,3.76-3.87,4.07-9.69,6.21-14.45.86-1.75,1.27-5.48,4.01-4.55,2.57,1.3.14,4.13-.34,6.03-1.13,2.88-1.86,5.42-2.78,8.28-1.87,6.46-5.91,9.58-12.12,11.57-5.72,2.05-11.88,3.78-18.01,3.31Z"/>
  <path d="m214.6,578.04c-8.58-.92-15.96-6.59-22.43-11.9-6.04-6.97-3.01-14.53,5.95-15.9,4.78-.92,4.44-5.05,7.16-8.12,5.18-5.05,9.31-6.1,15.33-1.54.23-.31.54-.57.91-.74,2-.9,4.35-2.26,6.53-1.13.92.47,1.49,1.32,2.09,2.12,2.02,2.45,3.94,4.86,6.56,6.54,3.47,2.21,5.88,5.93,5.57,10.15-.29,3.39-3.35,5.42-5.58,7.62-3.14,3.36-6.01,7.07-10.18,9.25-3.68,1.84-7.72,3.6-11.9,3.66Zm.78-3.84c3.86-.56,7.61-2.13,10.89-4.22,3.06-2,5.13-5.05,7.66-7.6,1.49-1.57,3.6-2.81,4.42-4.88.65-4.55-4.17-6.3-7.01-8.74-1.84-1.93-3.7-3.88-5.29-6.03-.13.04-.25.07-.38.11-.74.28-1.46.62-2.18.94-.16,1.23-1.72,2.03-2.79,1.32-2.79-1.55-6.07-5.27-9.39-2.99-6.74,3.76-3.73,9.37-11.73,11.59-2.05.71-4.45.83-5.96,2.58-2.14,3,.3,6.85,2.88,8.71,5.73,3.88,11.64,9,18.88,9.22Z"/>
  <path d="m154.7,543.35c-5.88-2-11.72-4.12-17.92-4.91-3.45-.57-6.97.04-10.41-.5-3.01-.51-6.02-1.28-8.89-2.3-4.76-2.03-7.18-7.12-10.44-10.87-5.06-5.92-6.49-11.66-.74-17.78,3.65-4.11,9.32-5.19,13.36-8.76,2.32-2.05,3.89-4.81,6.31-6.75,3.17-2.46,6.6-4.75,10.53-5.77,6.71-1.86,13.45,1.46,17.58,6.69,3.78,3.85,7.49,7.75,10.61,12.16,1.6,2.3,3.18,4.6,5.37,6.39,1.28,1.11,2.55,2.23,3.83,3.34.73.63,1.09,1.57.92,2.46,2.06,5.21,2.79,11.5.06,16.61-3.82,6.76-12.36,11.68-20.16,9.99Zm3.66-4.93c6.01-.84,12.54-5.22,12.85-11.77.12-2.31-.31-4.59-1.01-6.79-.3-.85-.8-1.76-.57-2.68-7.12-5.34-11.09-13.55-17.72-19.39-4.12-4.65-8.44-8.97-15.16-6.58-3.26,1.24-6.3,3.24-8.8,5.67-2.26,2.73-4.12,5.01-6.95,6.99-4.62,3.38-12.41,4.79-13.2,11.5.51,3.52,3.63,6.12,5.55,8.97,1.66,1.96,3.02,4.26,5.05,5.87,5.11,2.52,10.91,2.78,16.51,2.73,4.46.37,8.88,1.35,13.18,2.55,3.43.91,6.66,2.94,10.27,2.93Z"/>
  <path d="m35.76,533.4c-8.68-.25-18.07-1.25-25.46-6.15-4.04-3.46-8.05-7.43-9.65-12.64-3.08-10.62,5.37-16.51,14.27-19.68,4.2-1.5,8.77-1.82,12.82-3.76,4.48-2.17,7.84-5.92,11.63-9.03,3.48-2.73,7.44-4.83,11.46-6.66,6.32-3.03,14.11-1.99,20.21,1.14,3.58,2.46,6.86,5.44,9.67,8.74,1.93,2.51,4.01,4.91,6.05,7.33.66.78.45,2.02-.34,2.62-.83.64-1.97.44-2.62-.34-2.18-2.58-4.34-5.18-6.47-7.81-1.44-1.59-2.83-2.58-4.39-3.9-1.94-1.72-4.15-3.42-6.67-4.11.05.02.11.04.17.06.03.01.06.02.09.03-9.58-2.98-14.84.21-22.71,5.2-4.44,3.2-7.74,7.29-12.51,9.95-5.59,3.41-12.47,3.27-18.25,6.21-3.33,1.82-7.4,3.93-8.37,7.91-.7,5.03,2.12,9.37,5.67,12.65,6.52,7.58,24.57,8.6,33.96,7.11,7.18-1.46,13.86-4.6,20.27-7.78,2.84-1.46,5.82-2.85,7.93-5.32,2.53-3.27,5.3-6.51,7.1-10.25.79-2.37.49-4.93.24-7.36-.35-3.04,4.16-3.66,4.63-.64.27,2.35.49,4.76.13,7.11-.67,4.55-4.04,8.02-6.58,11.66-2.64,4.02-6.83,6.83-11.08,8.78-9.68,4.86-20.12,9.61-31.2,8.93Z"/>
  <path d="m375.35,580.42c-1.45-.62-2.04-2.26-1.5-3.7,2.66-7.25,6.3-15.49,14.22-18.1,1.32-.41,2.82-.83,4.16-.27,1.54.59,2.14,2.5,1.27,3.88-1.2,1.64-3.64,4.37-5.59,2.19-5,3.19-6.88,9.21-8.86,14.49-.52,1.44-2.33,2.07-3.7,1.5Z"/>
  <path d="m372.49,576.92c-9.58-13.08-25.11-21.08-39.57-27.66-20.6-10.4-43.99-1.64-60.63,12.19-5.57,4.24-12.07,8.13-16.03,13.96-1.53,3.8-7.51,1.33-5.87-2.48,5.46-9.2,15.76-14.47,24.11-20.78,16.26-12.86,39.68-18.27,59.03-9.41,14.38,5.69,27.85,14.26,39.33,24.57,1.78,2.89,7.37,6.79,3.91,10.16-1.29,1-3.3.79-4.28-.56Z"/>
  <path d="m193.02,584.83c-14.71-14.49-35.72-21.72-53.68-31.58-20.84-9.29-49.74-8.83-71.05-1.33-4.56,1.22-19.06,14.4-21.45,9.17-.85-1.45-.29-3.21,1.07-4.09,7.55-4.63,14.83-10.08,23.27-12.98,18.24-4.27,37.44-4.93,55.87-1.4,14.98,3.41,28.03,12.28,41.64,18.95,8.47,5.69,18.35,9.68,25.79,16.72,1.11,1.47,3.08,2.64,3.21,4.61.08,2.33-3.08,3.7-4.67,1.94Z"/>
  <path d="m245.51,470.06c-1.59-.37-2.42-1.96-3.53-3.02-2.18-2.29-4.49-4.47-6.98-6.39-6.08-4.71-13.3-7.61-19.82-11.62-6.05-3.66-11.72-7.91-17.93-11.3-6.34-3.44-13.19-5.76-19.92-8.31-9.38-3.11-17.94-9.21-28.01-9.8-5.39-.3-10.66.25-15.95,1.1-11.28,1.59-22.1,3.98-32.18,9.17-4.85,2.37-9.73,4.85-14.39,7.17-2.26,1.14-4.5,2.3-6.74,3.46-.49.25-1.02.35-1.55.2-1.65-.39-2.03-2.88-.48-3.69,5.82-3.07,11.74-5.94,17.63-8.87,9.97-5.25,20.7-8.9,31.89-10.38,8.06-1.24,16.28-2.54,24.43-1.48,8.96,1.19,16.61,6.5,25.01,9.49,7.52,2.93,15.21,5.5,22.3,9.41,7.04,3.95,13.47,8.89,20.5,12.85,9.71,4.96,19.38,10.36,26.35,18.97,3.19-2.46,5.07-6.19,7.95-8.97,2.17-2.18,4.63-4.03,7.27-5.62,8.55-4.67,16.74-9.92,24.94-15.18,5.35-3.28,11.17-5.64,16.98-7.95,6.64-2.7,13.26-5.62,20.3-7.13,5.72-1.24,11.58-1.45,17.41-1.62,6.43-.22,12.85-.69,19.29-.56,4.17.11,8.41.47,12.34,1.96,1.18.65,4.82.98,4.16,2.69-.23.54-.83.75-1.36.55-1.53-.57-3.05-1.14-4.59-1.68-3.59-1.13-7.36-1.39-11.11-1.43-6.2-.06-12.38.48-18.57.81-5.86.27-11.78.54-17.51,1.87-6.76,1.63-13.14,4.47-19.54,7.14-9.84,3.59-18.77,9.01-27.38,14.93-6.23,4.26-13.43,7.07-19.17,12.03-3.53,2.53-7.91,11.76-12.06,11.22Z"/>
  <path d="m266.5,317.96c-3.79-3.45-6.16-8.25-9.7-11.97-4.74-5.09-11.66-7.74-18.03-9.94-6.55-2.08-13.16-3.98-19.73-6.02-11.81-3.47-23.84-6.88-35.86-9.35-7.81-1.61-15.72-2.98-23.72-2.55-6.57.41-13.06,1.5-19.57,2.42-12.81,2.08-26.38,3.05-37.54,10.32-8.4,5.46-16.8,10.86-25.7,15.5-1.5.86-2.96,1.79-4.41,2.74-.81.53-1.96.16-2.44-.64-.49-.83-.2-1.95.64-2.44,1.52-1.01,3.05-1.99,4.62-2.91,7.69-4.08,15.18-8.49,22.38-13.4,5.85-3.88,12.21-7.05,19.05-8.7,10.13-2.28,20.47-3.54,30.75-5.01,6.97-.97,14.02-1.76,21.05-1.09,14.05,1.51,27.75,5.28,41.35,9.01,6.89,1.91,13.71,4.03,20.54,6.12,8.55,2.55,17.35,4.97,24.77,10.12,5.72,3.86,8.72,10.43,13.28,15.38,5.13-9.42,10.82-18.61,18.2-26.47,5.96-5.85,12.6-10.63,18.79-16.2,5.04-4.31,10.39-8.28,16.12-11.62,7.63-4.3,16.07-6.89,24.35-9.64,10.73-3.61,22.26-2.8,33.31-1.27,4.47.62,9.04,1.2,13.14,3.23,1.58.72,3.13,1.5,4.69,2.26.71.34,1.09,1.14.77,1.91-.3.7-1.19,1.12-1.91.77-2.46-1.2-4.89-2.46-7.45-3.42-3.54-1.11-7.24-1.55-10.9-2.06-14.85-2.11-24.81-1.47-38.79,3.98-9.86,3.15-19.09,7.94-27.13,14.48-4.43,3.53-8.64,7.3-12.97,10.95-6.01,4.7-11.65,9.8-16.07,16.06-3.21,4.23-6.2,8.63-8.71,13.32-1.68,2.54-3.16,8.62-7.19,6.11Z"/>
  <path d="m84.92,181.38c-.7-.54-.86-1.61-.3-2.3,1.81-2.2,3.95-4.09,5.96-6.1,4.46-4.37,8.91-8.75,13.69-12.77,7.5-5.98,15.67-11.21,24.41-15.17,6.93-2.85,14.33-4.21,21.63-5.73,17.31-3.93,35.51-4.1,52.78.14,9.03,2.49,18.23,4.35,27.25,6.89,9.33,2.61,17.37,6.65,22.82,14.99,4.23-6.45,11.5-9.7,17.16-14.7,10.18-8.51,21.81-15,34.08-19.99,6.8-3.03,13.52-6.5,20.83-8.12,4.05-1.02,8.08.37,11.93,1.55.57.17.93.77.77,1.36-.16.57-.78.94-1.36.77-2.92-.82-5.85-2.04-8.94-1.79-5.83.74-11.25,3.32-16.57,5.69-9.64,4.55-19.84,8.47-28.58,14.61-4.15,2.8-8.13,5.83-11.99,9.02-3.64,3.06-7.98,5.69-11.56,8.7-2.18,1.51-2.97,4.89-5.59,5.63-2.29.14-3.31-3.07-4.71-4.33-2.03-2.36-4.37-4.49-7.07-6.07-7.29-4.01-15.49-5.82-23.52-7.7-7.66-1.69-15.16-4.12-22.91-5.39-11.24-1.76-22.76-1.99-34.01-.3-13.88,2.61-28.4,4.64-40.48,12.47-9.26,5.33-17.48,12.18-24.95,19.78-2.68,2.66-5.44,5.25-8.02,8-.57.94-1.77,1.65-2.76.85Z"/>
  <path d="m155.16,99.75c-.55-.71-.39-1.71.29-2.27,1.43-1.15,2.87-2.29,4.31-3.42,4.77-3.81,10.13-6.82,15.8-9.06,21.06-8.85,43.57-14.83,66.48-15.57,9.32-.11,18.64.69,27.86,2.01,9.24,1.37,18.6,2.46,27.54,5.27,8.82,2.93,17.83,5.62,26.14,9.82,11.58,6.51,3.73,8.38,15.84.55,4.88-3.07,10.03-5.65,15.08-8.43,5.32-2.97,10.63-5.97,16.22-8.39,8.14-3.84,16.98-5.63,25.79-7.2,5.35-.95,10.72-2.07,16.17-2.21,5-.25,9.89,1.02,14.85,1.39,3.77.22,7.56.28,11.33.4.62.02,1.14.5,1.14,1.13s-.52,1.16-1.14,1.14c-7.74.05-15.44-.81-23.1-1.69-5.09-.2-10.14.6-15.13,1.53-8.38,1.6-16.92,2.88-24.87,6.08-8.5,3.3-16.16,7.95-24.13,12.26-3.55,1.9-7.11,3.79-10.51,5.96-1.89,1.18-3.84,2.3-5.48,3.83-2.77,2.53-5.3,2.81-7.92-.07-5.81-5-13.35-7.11-20.42-9.69-11.29-4.29-23.05-6.83-34.98-8.29-11.88-1.76-23.84-2.85-35.83-2.12-22.36,1.87-44.15,8.05-64.5,17.38-3.76,1.84-7.27,4.13-10.54,6.75-1.36,1.06-2.7,2.13-4.04,3.21-.68.55-1.73.39-2.27-.29Z"/>
</svg>